<svg version="1.1" xmlns="http://www.w3.org/2000/svg" xmlns:xlink="http://www.w3.org/1999/xlink" width="130.20489" height="107" viewBox="0,0,130.20489,107"><defs><linearGradient x1="237.39055" y1="127.5" x2="237.39055" y2="232.5" gradientUnits="userSpaceOnUse" id="color-1"><stop offset="0" stop-color="#f0ffff"/><stop offset="1" stop-color="#dddddd"/></linearGradient><radialGradient cx="258.47046" cy="176.13434" r="14.33333" gradientUnits="userSpaceOnUse" id="color-2"><stop offset="0" stop-color="#ff9494"/><stop offset="1" stop-color="#fdeeee"/></radialGradient><linearGradient x1="230.38967" y1="165.26977" x2="230.38967" y2="203.10247" gradientUnits="userSpaceOnUse" id="color-3"><stop offset="0" stop-color="#f0ffff"/><stop offset="1" stop-color="#dddddd"/></linearGradient><linearGradient x1="214.32838" y1="184.24421" x2="214.32838" y2="202.71" gradientUnits="userSpaceOnUse" id="color-4"><stop offset="0" stop-color="#e1e4e4"/><stop offset="1" stop-color="#e5ebeb"/></linearGradient><linearGradient x1="284.96247" y1="164.25001" x2="284.96247" y2="199.60491" gradientUnits="userSpaceOnUse" id="color-5"><stop offset="0" stop-color="#f0ffff"/><stop offset="1" stop-color="#dddddd"/></linearGradient></defs><g transform="translate(-175.82687,-126.5)"><g data-paper-data="{&quot;isPaintingLayer&quot;:true}" fill-rule="nonzero" stroke-linejoin="miter" stroke-miterlimit="10" stroke-dasharray="" stroke-dashoffset="0" style="mix-blend-mode: normal"><path d="M246.58514,127.5c28.37037,0 51.36909,23.50505 51.36909,52.5c0,28.99495 -22.99872,52.5 -51.36909,52.5c-24.59992,0 -62.60028,-26.55957 -69.57474,-46.46188c-2.32482,-6.6341 18.20565,1.00863 18.20565,-6.03812c0,-28.99495 22.99872,-52.5 51.36909,-52.5z" data-paper-data="{&quot;origPos&quot;:null,&quot;index&quot;:null}" fill="url(#color-1)" stroke="#6d6d6d" stroke-width="2" stroke-linecap="butt"/><path d="M257.80379,168.48728c7.91608,0 14.33333,3.35786 14.33333,7.5c0,4.14214 -6.41725,7.5 -14.33333,7.5c-7.91608,0 -14.33333,-3.35786 -14.33333,-7.5c0,-4.14214 6.41725,-7.5 14.33333,-7.5z" data-paper-data="{&quot;origPos&quot;:null,&quot;index&quot;:null}" fill="url(#color-2)" stroke="none" stroke-width="0" stroke-linecap="butt"/><path d="M236.12089,199.63889c0,0 6.49351,-3.22995 7.9435,-3.32596c1.98723,-0.13158 4.27342,4.13374 6.08165,3.29906c2.38285,-1.09992 3.1895,-4.3955 5.14657,-4.6207c1.95708,-0.22521 4.32176,2.68822 5.73755,3.62715c4.36923,2.89761 5.64459,-4.10917 8.44286,-4.00214c2.79827,0.10704 6.84232,3.35592 6.84232,3.35592" data-paper-data="{&quot;origPos&quot;:null,&quot;index&quot;:null}" fill="none" stroke="#000000" stroke-width="2.5" stroke-linecap="round"/><g fill="none" stroke="#000000" stroke-width="2" stroke-linecap="round"><path d="M258.7175,150.83333c0,0 -0.74103,13.36568 -13.5,14c-15.08578,0.75 -18.75,-10.41666 -18.75,-10.41666" data-paper-data="{&quot;origPos&quot;:null}"/><path d="M288.63356,155.75c0,0 -1.33089,9.83333 -16.41667,9.08333c-12.75897,-0.63432 -13.5,-14 -13.5,-14" data-paper-data="{&quot;origPos&quot;:null,&quot;index&quot;:null}"/></g><g stroke-linecap="butt"><path d="M250.47612,172.5585c-2.63824,3.58412 -10.24906,16.70169 -23.37243,25.29397c-13.12337,8.59228 -20.52468,-8.37171 -17.52701,-11.52168c2.99767,-3.14997 25.42158,-16.81254 33.70686,-20.72753c2.76176,-1.305 4.52996,-0.48018 6.46499,1.391c1.93503,1.87118 1.607,4.36954 0.72759,5.56424z" data-paper-data="{&quot;origPos&quot;:null,&quot;index&quot;:null,&quot;origRot&quot;:0}" fill="url(#color-3)" stroke="#6d6d6d" stroke-width="2"/><path d="M206.73258,195.67658c0,0 -1.39118,-3.37308 -1.4414,-5.11816c-0.04523,-1.57177 1.46392,-4.56778 1.46392,-4.56778l3.18969,-1.74643c0,0 5.79369,5.25581 8.78925,9.76874c1.93194,2.91054 4.63253,7.97646 4.63253,7.97646l-6.03641,0.72058c0,0 -3.64907,-1.9081 -5.36237,-3.04519c-1.81353,-1.20361 -5.23522,-3.98824 -5.23522,-3.98824z" fill="url(#color-4)" stroke="none" stroke-width="0"/></g><path d="M266.87149,165.86156c1.8083,-1.74863 3.46069,-2.51943 6.04157,-1.2999c7.74265,3.65858 28.69794,16.42634 31.49928,19.37001c2.80134,2.94367 -4.11523,18.79663 -16.3791,10.76708c-12.26387,-8.02954 -19.37623,-20.288 -21.84169,-23.63738c-0.82181,-1.11645 -1.12836,-3.45119 0.67994,-5.19982z" data-paper-data="{&quot;index&quot;:null,&quot;origRot&quot;:0}" fill="url(#color-5)" stroke="#6d6d6d" stroke-width="2" stroke-linecap="butt"/></g></g></svg>