<svg version="1.1" xmlns="http://www.w3.org/2000/svg" xmlns:xlink="http://www.w3.org/1999/xlink" width="501.45313" height="280.18761" viewBox="0,0,501.45313,280.18761"><defs><linearGradient x1="450.95463" y1="102.8125" x2="450.95463" y2="303.8125" gradientUnits="userSpaceOnUse" id="color-1"><stop offset="0" stop-color="#63ba4a"/><stop offset="1" stop-color="#4b8e39"/></linearGradient><linearGradient x1="240.53125" y1="295.00005" x2="240.53125" y2="334.29147" gradientUnits="userSpaceOnUse" id="color-2"><stop offset="0" stop-color="#17ff22"/><stop offset="1" stop-color="#02d10c"/></linearGradient><linearGradient x1="363.95463" y1="172.8125" x2="363.95463" y2="293.8125" gradientUnits="userSpaceOnUse" id="color-3"><stop offset="0" stop-color="#63ba4a"/><stop offset="1" stop-color="#4b8e39"/></linearGradient><linearGradient x1="365.45313" y1="156.8125" x2="365.45313" y2="179.8125" gradientUnits="userSpaceOnUse" id="color-4"><stop offset="0" stop-color="#63ba4a"/><stop offset="1" stop-color="#4b8e39"/></linearGradient><linearGradient x1="195.50151" y1="249.54791" x2="195.50151" y2="293.31261" gradientUnits="userSpaceOnUse" id="color-5"><stop offset="0" stop-color="#996917"/><stop offset="1" stop-color="#7a4d00"/></linearGradient><linearGradient x1="245.00151" y1="249.54791" x2="245.00151" y2="293.31261" gradientUnits="userSpaceOnUse" id="color-6"><stop offset="0" stop-color="#996917"/><stop offset="1" stop-color="#7a4d00"/></linearGradient><linearGradient x1="245.00151" y1="203.04791" x2="245.00151" y2="246.81261" gradientUnits="userSpaceOnUse" id="color-7"><stop offset="0" stop-color="#996917"/><stop offset="1" stop-color="#7a4d00"/></linearGradient><linearGradient x1="294.50151" y1="249.54791" x2="294.50151" y2="293.31261" gradientUnits="userSpaceOnUse" id="color-8"><stop offset="0" stop-color="#996917"/><stop offset="1" stop-color="#7a4d00"/></linearGradient><linearGradient x1="294.50151" y1="203.04791" x2="294.50151" y2="246.81261" gradientUnits="userSpaceOnUse" id="color-9"><stop offset="0" stop-color="#996917"/><stop offset="1" stop-color="#7a4d00"/></linearGradient><linearGradient x1="294.50151" y1="156.5479" x2="294.50151" y2="200.31261" gradientUnits="userSpaceOnUse" id="color-10"><stop offset="0" stop-color="#996917"/><stop offset="1" stop-color="#7a4d00"/></linearGradient><linearGradient x1="452.45313" y1="86.8125" x2="452.45313" y2="109.8125" gradientUnits="userSpaceOnUse" id="color-11"><stop offset="0" stop-color="#63ba4a"/><stop offset="1" stop-color="#4b8e39"/></linearGradient></defs><g transform="translate(3,-84.8125)"><g data-paper-data="{&quot;isPaintingLayer&quot;:true}" fill-rule="nonzero" stroke-linejoin="miter" stroke-miterlimit="10" stroke-dasharray="" stroke-dashoffset="0" style="mix-blend-mode: normal"><path d="M419.95463,303.8125v-201h62v201z" fill="url(#color-1)" stroke="#4b8e39" stroke-width="4" stroke-linecap="butt"/><path d="M-3,365.00011v-47h484.1351v47z" fill="#98763d" stroke="none" stroke-width="0" stroke-linecap="butt"/><path d="M-1.48588,321.89333v-26.89326h484.03426v26.89326l-27.00578,1.75726l-43.97163,10.64086l-42.7619,-11.9986l-40.7049,10.37815l-40.72936,-10.67969l-43.3929,8.22474l-40.39009,-9.40523l-57.53162,12.49333l-42.69222,-13.2091l-56.22042,10.7627z" fill="url(#color-2)" stroke="#08a310" stroke-width="3" stroke-linecap="butt"/><path d="M239.71646,328.13819l11.83901,18.01465l-0.24675,16.26774l-16.92389,-13.87762l-4.99504,-14.90558z" data-paper-data="{&quot;index&quot;:null}" fill="#774b00" stroke="#703100" stroke-width="2" stroke-linecap="round"/><path d="M44.40041,347.34629l-8.87184,-13.22785l6.05447,-3.87501l16.87004,15.94784l1.16689,7.40281z" data-paper-data="{&quot;index&quot;:null}" fill="#774b00" stroke="#703100" stroke-width="2" stroke-linecap="round"/><path d="M133.91212,356.94539l-4.82531,-3.22167l6.49233,-9.08013l11.4581,-1.92088l-0.76959,5.37415z" data-paper-data="{&quot;index&quot;:null}" fill="#774b00" stroke="#703100" stroke-width="2" stroke-linecap="round"/><path d="M382.98471,340.64029l32.29784,-1.89717l23.81362,6.44201l-28.69929,7.27995l-24.37452,-2.00971z" data-paper-data="{&quot;index&quot;:null}" fill="#774b00" stroke="#703100" stroke-width="2" stroke-linecap="round"/><path d="M316.18179,338.36506l11.22505,10.0917l-2.46597,9.05432l-17.63868,-7.81609l-3.75631,-8.32422z" data-paper-data="{&quot;index&quot;:null}" fill="#774b00" stroke="#703100" stroke-width="2" stroke-linecap="round"/><path d="M332.95463,293.8125v-121h62v121z" fill="url(#color-3)" stroke="#4b8e39" stroke-width="4" stroke-linecap="butt"/><path d="M321.45313,179.8125v-23h88v23z" fill="url(#color-4)" stroke="#4b8e39" stroke-width="4" stroke-linecap="butt"/><path d="M172.50151,293.31261v-43.76471h46v43.76471z" fill="url(#color-5)" stroke="#703100" stroke-width="4" stroke-linecap="butt"/><path d="M181.86772,260.90636c0,-1.19662 0.92963,-2.16667 2.07639,-2.16667c1.14676,0 2.07639,0.97005 2.07639,2.16667c0,1.19662 -0.92963,2.16666 -2.07639,2.16666c-1.14676,0 -2.07639,-0.97005 -2.07639,-2.16666z" fill="#703100" stroke="#703100" stroke-width="0.5" stroke-linecap="butt"/><path d="M205.34689,260.90636c0,-1.19662 0.92963,-2.16667 2.07639,-2.16667c1.14676,0 2.07639,0.97005 2.07639,2.16667c0,1.19662 -0.92964,2.16666 -2.07639,2.16666c-1.14676,0 -2.07639,-0.97005 -2.07639,-2.16666z" fill="#703100" stroke="#713301" stroke-width="0.5" stroke-linecap="butt"/><path d="M181.708,282.7397c0,-1.19662 0.92963,-2.16666 2.07638,-2.16666c1.14676,0 2.07639,0.97005 2.07639,2.16666c0,1.19662 -0.92963,2.16667 -2.07639,2.16667c-1.14676,0 -2.07638,-0.97005 -2.07638,-2.16667z" fill="#703100" stroke="#703100" stroke-width="0.5" stroke-linecap="butt"/><path d="M205.34688,282.90636c0,-1.19662 0.92963,-2.16667 2.07639,-2.16667c1.14676,0 2.07639,0.97005 2.07639,2.16667c0,1.19662 -0.92963,2.16666 -2.07639,2.16666c-1.14676,0 -2.07639,-0.97005 -2.07639,-2.16666z" fill="#703100" stroke="#703100" stroke-width="0.5" stroke-linecap="butt"/><path d="M222.00151,293.31261v-43.76471h46v43.76471z" fill="url(#color-6)" stroke="#703100" stroke-width="4" stroke-linecap="butt"/><path d="M231.36772,260.90636c0,-1.19662 0.92963,-2.16667 2.07639,-2.16667c1.14676,0 2.07639,0.97005 2.07639,2.16667c0,1.19662 -0.92963,2.16666 -2.07639,2.16666c-1.14676,0 -2.07639,-0.97005 -2.07639,-2.16666z" fill="#703100" stroke="#703100" stroke-width="0.5" stroke-linecap="butt"/><path d="M254.84689,260.90636c0,-1.19662 0.92963,-2.16667 2.07639,-2.16667c1.14675,0 2.07639,0.97005 2.07639,2.16667c0,1.19662 -0.92964,2.16666 -2.07639,2.16666c-1.14676,0 -2.07639,-0.97005 -2.07639,-2.16666z" fill="#703100" stroke="#713301" stroke-width="0.5" stroke-linecap="butt"/><path d="M231.208,282.7397c0,-1.19662 0.92963,-2.16666 2.07638,-2.16666c1.14676,0 2.07639,0.97005 2.07639,2.16666c0,1.19662 -0.92963,2.16667 -2.07639,2.16667c-1.14676,0 -2.07638,-0.97005 -2.07638,-2.16667z" fill="#703100" stroke="#703100" stroke-width="0.5" stroke-linecap="butt"/><path d="M254.84688,282.90636c0,-1.19662 0.92963,-2.16667 2.07639,-2.16667c1.14675,0 2.07639,0.97005 2.07639,2.16667c0,1.19662 -0.92964,2.16666 -2.07639,2.16666c-1.14676,0 -2.07639,-0.97005 -2.07639,-2.16666z" fill="#703100" stroke="#703100" stroke-width="0.5" stroke-linecap="butt"/><path d="M222.00151,246.81261v-43.76471h46v43.76471z" fill="url(#color-7)" stroke="#703100" stroke-width="4" stroke-linecap="butt"/><path d="M231.36772,214.40636c0,-1.19662 0.92963,-2.16666 2.07639,-2.16666c1.14676,0 2.07639,0.97005 2.07639,2.16666c0,1.19662 -0.92963,2.16666 -2.07639,2.16666c-1.14676,0 -2.07639,-0.97005 -2.07639,-2.16666z" fill="#703100" stroke="#703100" stroke-width="0.5" stroke-linecap="butt"/><path d="M254.84689,214.40636c0,-1.19662 0.92963,-2.16666 2.07639,-2.16666c1.14675,0 2.07639,0.97005 2.07639,2.16666c0,1.19662 -0.92964,2.16666 -2.07639,2.16666c-1.14676,0 -2.07639,-0.97005 -2.07639,-2.16666z" fill="#703100" stroke="#713301" stroke-width="0.5" stroke-linecap="butt"/><path d="M231.208,236.2397c0,-1.19662 0.92963,-2.16667 2.07638,-2.16667c1.14676,0 2.07639,0.97005 2.07639,2.16667c0,1.19662 -0.92963,2.16666 -2.07639,2.16666c-1.14676,0 -2.07638,-0.97005 -2.07638,-2.16666z" fill="#703100" stroke="#703100" stroke-width="0.5" stroke-linecap="butt"/><path d="M254.84688,236.40636c0,-1.19662 0.92963,-2.16666 2.07639,-2.16666c1.14675,0 2.07639,0.97005 2.07639,2.16666c0,1.19662 -0.92964,2.16666 -2.07639,2.16666c-1.14676,0 -2.07639,-0.97005 -2.07639,-2.16666z" fill="#703100" stroke="#703100" stroke-width="0.5" stroke-linecap="butt"/><path d="M271.50151,293.31261v-43.76471h46v43.76471z" fill="url(#color-8)" stroke="#703100" stroke-width="4" stroke-linecap="butt"/><path d="M280.86772,260.90636c0,-1.19662 0.92963,-2.16667 2.07639,-2.16667c1.14676,0 2.07639,0.97005 2.07639,2.16667c0,1.19662 -0.92963,2.16666 -2.07639,2.16666c-1.14676,0 -2.07639,-0.97005 -2.07639,-2.16666z" fill="#703100" stroke="#703100" stroke-width="0.5" stroke-linecap="butt"/><path d="M304.34689,260.90636c0,-1.19662 0.92963,-2.16667 2.07639,-2.16667c1.14675,0 2.07639,0.97005 2.07639,2.16667c0,1.19662 -0.92964,2.16666 -2.07639,2.16666c-1.14675,0 -2.07639,-0.97005 -2.07639,-2.16666z" fill="#703100" stroke="#713301" stroke-width="0.5" stroke-linecap="butt"/><path d="M280.708,282.7397c0,-1.19662 0.92963,-2.16666 2.07639,-2.16666c1.14676,0 2.07639,0.97005 2.07639,2.16666c0,1.19662 -0.92963,2.16667 -2.07639,2.16667c-1.14676,0 -2.07639,-0.97005 -2.07639,-2.16667z" fill="#703100" stroke="#703100" stroke-width="0.5" stroke-linecap="butt"/><path d="M304.34688,282.90636c0,-1.19662 0.92964,-2.16667 2.07639,-2.16667c1.14675,0 2.07639,0.97005 2.07639,2.16667c0,1.19662 -0.92964,2.16666 -2.07639,2.16666c-1.14675,0 -2.07639,-0.97005 -2.07639,-2.16666z" fill="#703100" stroke="#703100" stroke-width="0.5" stroke-linecap="butt"/><path d="M271.50151,246.81261v-43.76471h46v43.76471z" fill="url(#color-9)" stroke="#703100" stroke-width="4" stroke-linecap="butt"/><path d="M280.86772,214.40636c0,-1.19662 0.92963,-2.16666 2.07639,-2.16666c1.14676,0 2.07639,0.97005 2.07639,2.16666c0,1.19662 -0.92963,2.16666 -2.07639,2.16666c-1.14676,0 -2.07639,-0.97005 -2.07639,-2.16666z" fill="#703100" stroke="#703100" stroke-width="0.5" stroke-linecap="butt"/><path d="M304.34689,214.40636c0,-1.19662 0.92963,-2.16666 2.07639,-2.16666c1.14675,0 2.07639,0.97005 2.07639,2.16666c0,1.19662 -0.92964,2.16666 -2.07639,2.16666c-1.14675,0 -2.07639,-0.97005 -2.07639,-2.16666z" fill="#703100" stroke="#713301" stroke-width="0.5" stroke-linecap="butt"/><path d="M280.708,236.2397c0,-1.19662 0.92963,-2.16667 2.07639,-2.16667c1.14676,0 2.07639,0.97005 2.07639,2.16667c0,1.19662 -0.92963,2.16666 -2.07639,2.16666c-1.14676,0 -2.07639,-0.97005 -2.07639,-2.16666z" fill="#703100" stroke="#703100" stroke-width="0.5" stroke-linecap="butt"/><path d="M304.34688,236.40636c0,-1.19662 0.92964,-2.16666 2.07639,-2.16666c1.14675,0 2.07639,0.97005 2.07639,2.16666c0,1.19662 -0.92964,2.16666 -2.07639,2.16666c-1.14675,0 -2.07639,-0.97005 -2.07639,-2.16666z" fill="#703100" stroke="#703100" stroke-width="0.5" stroke-linecap="butt"/><path d="M271.50151,200.31261v-43.76471h46v43.76471z" fill="url(#color-10)" stroke="#703100" stroke-width="4" stroke-linecap="butt"/><path d="M280.86772,167.90636c0,-1.19662 0.92963,-2.16667 2.07639,-2.16667c1.14676,0 2.07639,0.97005 2.07639,2.16667c0,1.19662 -0.92963,2.16666 -2.07639,2.16666c-1.14676,0 -2.07639,-0.97005 -2.07639,-2.16666z" fill="#703100" stroke="#703100" stroke-width="0.5" stroke-linecap="butt"/><path d="M304.34689,167.90636c0,-1.19662 0.92963,-2.16667 2.07639,-2.16667c1.14675,0 2.07639,0.97005 2.07639,2.16667c0,1.19662 -0.92964,2.16666 -2.07639,2.16666c-1.14675,0 -2.07639,-0.97005 -2.07639,-2.16666z" fill="#703100" stroke="#713301" stroke-width="0.5" stroke-linecap="butt"/><path d="M280.708,189.73969c0,-1.19662 0.92963,-2.16666 2.07639,-2.16666c1.14676,0 2.07639,0.97005 2.07639,2.16666c0,1.19662 -0.92963,2.16667 -2.07639,2.16667c-1.14676,0 -2.07639,-0.97005 -2.07639,-2.16667z" fill="#703100" stroke="#703100" stroke-width="0.5" stroke-linecap="butt"/><path d="M304.34688,189.90636c0,-1.19662 0.92964,-2.16667 2.07639,-2.16667c1.14675,0 2.07639,0.97005 2.07639,2.16667c0,1.19662 -0.92964,2.16666 -2.07639,2.16666c-1.14675,0 -2.07639,-0.97005 -2.07639,-2.16666z" fill="#703100" stroke="#703100" stroke-width="0.5" stroke-linecap="butt"/><path d="M408.45313,109.8125v-23h88v23z" fill="url(#color-11)" stroke="#4b8e39" stroke-width="4" stroke-linecap="butt"/></g></g></svg>