<svg version="1.1" xmlns="http://www.w3.org/2000/svg" xmlns:xlink="http://www.w3.org/1999/xlink" width="200.42796" height="35.90731" viewBox="0,0,200.42796,35.90731"><defs><linearGradient x1="183.56082" y1="167.19856" x2="183.56082" y2="190.75556" gradientUnits="userSpaceOnUse" id="color-1"><stop offset="0" stop-color="#ffffff"/><stop offset="1" stop-color="#b7b7b7"/></linearGradient><linearGradient x1="211.05806" y1="165.28501" x2="211.05806" y2="193.25767" gradientUnits="userSpaceOnUse" id="color-2"><stop offset="0" stop-color="#ffffff"/><stop offset="1" stop-color="#b7b7b7"/></linearGradient><linearGradient x1="158.14411" y1="168.68088" x2="158.14411" y2="192.04383" gradientUnits="userSpaceOnUse" id="color-3"><stop offset="0" stop-color="#ffffff"/><stop offset="1" stop-color="#b7b7b7"/></linearGradient><linearGradient x1="132.66964" y1="168.39878" x2="132.66964" y2="190.8081" gradientUnits="userSpaceOnUse" id="color-4"><stop offset="0" stop-color="#ffffff"/><stop offset="1" stop-color="#b7b7b7"/></linearGradient><linearGradient x1="106.14811" y1="167.12923" x2="106.14811" y2="191.83591" gradientUnits="userSpaceOnUse" id="color-5"><stop offset="0" stop-color="#ffffff"/><stop offset="1" stop-color="#b7b7b7"/></linearGradient><linearGradient x1="246.44023" y1="167.34482" x2="246.44023" y2="193.43559" gradientUnits="userSpaceOnUse" id="color-6"><stop offset="0" stop-color="#f6f6f6"/><stop offset="1" stop-color="#c4c4c4"/></linearGradient><linearGradient x1="276.37924" y1="167.32356" x2="276.37924" y2="194.71503" gradientUnits="userSpaceOnUse" id="color-7"><stop offset="0" stop-color="#ffffff"/><stop offset="1" stop-color="#b7b7b7"/></linearGradient></defs><g transform="translate(-92.99838,-163.82072)"><g data-paper-data="{&quot;isPaintingLayer&quot;:true}" fill-rule="nonzero" stroke-width="2.5" stroke-linecap="round" stroke-linejoin="miter" stroke-miterlimit="10" stroke-dasharray="" stroke-dashoffset="0" style="mix-blend-mode: normal"><path d="M197.38239,191.97688l-13.14809,2.19135l-7.66971,-12.05242l4.38269,-8.76539l7.66972,-2.73919h7.66972v8.76539l-4.93054,-1.64351l-4.93054,3.28702v4.38269l3.28703,1.09567l5.47836,-3.28702z" data-paper-data="{&quot;origPos&quot;:null}" fill="#000000" stroke="#000000"/><path d="M203.61568,193.74783l3.34003,-25.05014l18.3701,3.34003l-0.83501,7.09754l-9.18505,-2.50502l-1.67001,3.34003l7.51504,1.67001v3.75752h-9.18505l-0.41749,5.01002l10.43756,-1.25251l0.83501,7.51504z" data-paper-data="{&quot;origPos&quot;:null}" fill="#000000" stroke="#000000"/><path d="M149.17038,194.65089l6.84776,-22.55733l9.66743,0.40281l8.25759,21.95311l-7.04915,0.60421l-0.80562,-6.44495l-8.25759,1.20843l-1.40984,5.63933z" data-paper-data="{&quot;origPos&quot;:null}" fill="#000000" stroke="#000000"/><path d="M158.0322,184.98348l1.40983,-5.84075l3.02107,-0.60421l1.61124,6.04215z" data-paper-data="{&quot;origPos&quot;:null}" fill="#000000" stroke="#000000"/><path d="M126.80533,194.22078l0.48192,-22.40932h13.01186l4.81921,3.6144l0.24096,8.91553l-4.81921,4.81921l-6.98785,0.72288l0.48192,4.33729z" data-paper-data="{&quot;origPos&quot;:null}" fill="#000000" stroke="#000000"/><path d="M136.68471,181.9318l-2.16864,-0.24096v-3.37345l3.85537,0.72288z" data-paper-data="{&quot;origPos&quot;:null}" fill="#000000" stroke="#000000"/><path d="M110.52586,179.80693l9.26501,4.6325l0.38604,6.17667l-3.08833,4.6325h-11.58126l-6.17667,-4.6325l2.31626,-5.01855l6.94876,3.08833l0.77208,-2.31626l-11.19522,-6.56271l5.01855,-7.72084l10.80918,-1.54417l6.94876,4.24646l-2.70228,5.01855l-7.33479,-3.08833z" data-paper-data="{&quot;origPos&quot;:null}" fill="#000000" stroke="#000000"/><path d="M239.28721,192.75137l-2.58752,-8.62505l6.90004,-13.36883l12.72195,1.94063l6.68441,9.27193l-3.45002,11.64381l-9.0563,3.23439z" data-paper-data="{&quot;origPos&quot;:null}" fill="#000000" stroke="#000000"/><path d="M249.20601,188.43884l-4.74377,-3.88128l2.58752,-5.60628l6.03754,0.86251l1.29377,5.60628z" data-paper-data="{&quot;origPos&quot;:null}" fill="#000000" stroke="#000000"/><path d="M268.11025,195.71081l0.40282,-23.36331l11.68166,-1.61127l10.47321,5.63942l-0.80563,6.44505l-3.62535,4.83379l5.2366,6.44505l-8.05631,4.02816l-5.63942,-8.05631v6.44505z" fill="#000000" stroke="#000000"/><path d="M276.56939,183.62634v-6.04224l6.04224,1.20846l-0.80563,2.41689z" data-paper-data="{&quot;origPos&quot;:null}" fill="#000000" stroke="#000000"/><path d="M193.96972,188.5642l-13.14809,2.19135l-7.66971,-12.05242l4.38269,-8.76539l7.66972,-2.73919h7.66972v8.76539l-4.93054,-1.64351l-4.93054,3.28702v4.38269l3.28703,1.09567l5.47836,-3.28702z" data-paper-data="{&quot;origPos&quot;:null}" fill="url(#color-1)" stroke="#989898"/><path d="M200.20301,190.33515l3.34003,-25.05014l18.3701,3.34003l-0.83501,7.09754l-9.18505,-2.50502l-1.67001,3.34003l7.51504,1.67001v3.75752h-9.18505l-0.41749,5.01002l10.43756,-1.25251l0.83501,7.51504z" data-paper-data="{&quot;origPos&quot;:null}" fill="url(#color-2)" stroke="#989898"/><path d="M145.75771,191.23821l6.84776,-22.55733l9.66743,0.40281l8.25759,21.95311l-7.04915,0.60421l-0.80562,-6.44495l-8.25759,1.20843l-1.40984,5.63933z" data-paper-data="{&quot;origPos&quot;:null}" fill="url(#color-3)" stroke="#989898"/><path d="M154.61953,181.5708l1.40983,-5.84075l3.02107,-0.60421l1.61124,6.04215z" data-paper-data="{&quot;origPos&quot;:null}" fill="#ffffff" stroke="#989898"/><path d="M123.39266,190.8081l0.48192,-22.40932h13.01186l4.81921,3.6144l0.24096,8.91553l-4.81921,4.81921l-6.98785,0.72288l0.48192,4.33729z" data-paper-data="{&quot;origPos&quot;:null}" fill="url(#color-4)" stroke="#989898"/><path d="M133.27204,178.51912l-2.16864,-0.24096v-3.37345l3.85537,0.72288z" data-paper-data="{&quot;origPos&quot;:null}" fill="#b600ff" stroke="#989898"/><path d="M107.11319,176.39425l9.26501,4.6325l0.38604,6.17667l-3.08833,4.6325h-11.58126l-6.17667,-4.6325l2.31626,-5.01855l6.94876,3.08833l0.77208,-2.31626l-11.19522,-6.56271l5.01855,-7.72084l10.80918,-1.54417l6.94876,4.24646l-2.70228,5.01855l-7.33479,-3.08833z" data-paper-data="{&quot;origPos&quot;:null}" fill="url(#color-5)" stroke="#989898"/><path d="M235.87454,189.33869l-2.58752,-8.62505l6.90004,-13.36883l12.72195,1.94063l6.68441,9.27193l-3.45002,11.64381l-9.0563,3.23439z" data-paper-data="{&quot;origPos&quot;:null}" fill="url(#color-6)" stroke="#989898"/><path d="M245.79334,185.02616l-4.74377,-3.88128l2.58752,-5.60628l6.03754,0.86251l1.29377,5.60628z" data-paper-data="{&quot;origPos&quot;:null}" fill="#ffffff" stroke="#989898"/><path d="M264.69758,192.29813l0.40282,-23.36331l11.68166,-1.61127l10.47321,5.63942l-0.80563,6.44505l-3.62535,4.83379l5.2366,6.44505l-8.05631,4.02816l-5.63942,-8.05631v6.44505z" fill="url(#color-7)" stroke="#989898"/><path d="M273.15672,180.21366v-6.04224l6.04224,1.20846l-0.80563,2.41689z" data-paper-data="{&quot;origPos&quot;:null}" fill="#ffffff" stroke="#989898"/></g></g></svg>