<svg version="1.1" xmlns="http://www.w3.org/2000/svg" xmlns:xlink="http://www.w3.org/1999/xlink" width="502.4531" height="369.38312" viewBox="0,0,502.4531,369.38312"><defs><linearGradient x1="240" y1="2" x2="240" y2="358" gradientUnits="userSpaceOnUse" id="color-1"><stop offset="0" stop-color="#1f263d"/><stop offset="1" stop-color="#344ea9"/></linearGradient><linearGradient x1="233.58706" y1="121.42939" x2="233.58706" y2="316.42939" gradientUnits="userSpaceOnUse" id="color-2"><stop offset="0" stop-color="#ffffff" stop-opacity="0"/><stop offset="1" stop-color="#ffffff"/></linearGradient><linearGradient x1="330.13394" y1="47.01607" x2="330.13394" y2="94.11688" gradientUnits="userSpaceOnUse" id="color-3"><stop offset="0" stop-color="#7e7e7e"/><stop offset="1" stop-color="#7e7e7e" stop-opacity="0"/></linearGradient><linearGradient x1="330.13394" y1="47.01607" x2="330.13394" y2="94.11688" gradientUnits="userSpaceOnUse" id="color-4"><stop offset="0" stop-color="#000000"/><stop offset="1" stop-color="#000000" stop-opacity="0"/></linearGradient><linearGradient x1="131.13394" y1="127.01607" x2="131.13394" y2="174.11689" gradientUnits="userSpaceOnUse" id="color-5"><stop offset="0" stop-color="#7e7e7e"/><stop offset="1" stop-color="#7e7e7e" stop-opacity="0"/></linearGradient><linearGradient x1="131.13394" y1="127.01607" x2="131.13394" y2="174.11689" gradientUnits="userSpaceOnUse" id="color-6"><stop offset="0" stop-color="#000000"/><stop offset="1" stop-color="#000000" stop-opacity="0"/></linearGradient><linearGradient x1="346.63394" y1="172.01607" x2="346.63394" y2="219.11689" gradientUnits="userSpaceOnUse" id="color-7"><stop offset="0" stop-color="#7e7e7e"/><stop offset="1" stop-color="#7e7e7e" stop-opacity="0"/></linearGradient><linearGradient x1="346.63394" y1="172.01607" x2="346.63394" y2="219.11689" gradientUnits="userSpaceOnUse" id="color-8"><stop offset="0" stop-color="#000000"/><stop offset="1" stop-color="#000000" stop-opacity="0"/></linearGradient><linearGradient x1="235.08704" y1="-10.38312" x2="235.08704" y2="117.61688" gradientUnits="userSpaceOnUse" id="color-9"><stop offset="0" stop-color="#000000"/><stop offset="1" stop-color="#000000" stop-opacity="0"/></linearGradient><linearGradient x1="235.08704" y1="-11.38312" x2="235.08704" y2="65.61688" gradientUnits="userSpaceOnUse" id="color-10"><stop offset="0" stop-color="#000000"/><stop offset="1" stop-color="#000000" stop-opacity="0"/></linearGradient></defs><g transform="translate(17.36606,11.38312)"><g data-paper-data="{&quot;isPaintingLayer&quot;:true}" fill-rule="nonzero" stroke-linecap="butt" stroke-linejoin="miter" stroke-miterlimit="10" stroke-dasharray="" stroke-dashoffset="0" style="mix-blend-mode: normal"><path d="M-5,358v-356h490v356z" fill="url(#color-1)" stroke="none" stroke-width="0"/><path d="M-15.41294,316.42939v-195h498v195z" fill="url(#color-2)" stroke="none" stroke-width="0"/><path d="M183.13394,94.11688v-47.10081h294v47.10082z" fill="url(#color-3)" stroke="url(#color-4)" stroke-width="3"/><path d="M183.13394,46.46839v-8.76295h31.24251v8.76295z" fill="#444444" stroke="#000000" stroke-width="3"/><path d="M215.97862,46.46839v-8.76295h31.24251v8.76295z" fill="#444444" stroke="#000000" stroke-width="3"/><path d="M248.82331,46.46839v-8.76295h31.24251v8.76295z" fill="#444444" stroke="#000000" stroke-width="3"/><path d="M281.668,46.46839v-8.76295h31.2425v8.76295z" fill="#444444" stroke="#000000" stroke-width="3"/><path d="M314.51268,46.46839v-8.76295h31.2425v8.76295z" fill="#444444" stroke="#000000" stroke-width="3"/><path d="M347.35736,46.46839v-8.76295h31.24251v8.76295z" fill="#444444" stroke="#000000" stroke-width="3"/><path d="M380.20205,46.46839v-8.76295h31.24251v8.76295z" fill="#444444" stroke="#000000" stroke-width="3"/><path d="M413.04674,46.46839v-8.76295h31.2425v8.76295z" fill="#444444" stroke="#000000" stroke-width="3"/><path d="M445.89142,46.46839v-8.76295h31.24251v8.76295z" fill="#444444" stroke="#000000" stroke-width="3"/><path d="M-15.86606,174.11689v-47.10081h294v47.10081z" fill="url(#color-5)" stroke="url(#color-6)" stroke-width="3"/><path d="M-15.86606,126.46839v-8.76295h31.24251v8.76295z" fill="#444444" stroke="#000000" stroke-width="3"/><path d="M16.97862,126.46839v-8.76295h31.24251v8.76295z" fill="#444444" stroke="#000000" stroke-width="3"/><path d="M49.82331,126.46839v-8.76295h31.24251v8.76295z" fill="#444444" stroke="#000000" stroke-width="3"/><path d="M82.668,126.46839v-8.76295h31.2425v8.76295z" fill="#444444" stroke="#000000" stroke-width="3"/><path d="M115.51268,126.46839v-8.76295h31.2425v8.76295z" fill="#444444" stroke="#000000" stroke-width="3"/><path d="M148.35736,126.46839v-8.76295h31.2425v8.76295z" fill="#444444" stroke="#000000" stroke-width="3"/><path d="M181.20205,126.46839v-8.76295h31.24251v8.76295z" fill="#444444" stroke="#000000" stroke-width="3"/><path d="M214.04673,126.46839v-8.76295h31.24251v8.76295z" fill="#444444" stroke="#000000" stroke-width="3"/><path d="M246.89142,126.46839v-8.76295h31.24251v8.76295z" fill="#444444" stroke="#000000" stroke-width="3"/><path d="M246.13394,219.11689v-47.10082h201v47.10082z" fill="url(#color-7)" stroke="url(#color-8)" stroke-width="3"/><path d="M246.13394,171.46838v-8.76294h21.35967v8.76294z" fill="#444444" stroke="#000000" stroke-width="3"/><path d="M268.58898,171.46838v-8.76294h21.35967v8.76294z" fill="#444444" stroke="#000000" stroke-width="3"/><path d="M291.04402,171.46838v-8.76294h21.35967v8.76294z" fill="#444444" stroke="#000000" stroke-width="3"/><path d="M313.49906,171.46838v-8.76294h21.35967v8.76294z" fill="#444444" stroke="#000000" stroke-width="3"/><path d="M335.95409,171.46838v-8.76294h21.35967v8.76294z" fill="#444444" stroke="#000000" stroke-width="3"/><path d="M358.40913,171.46838v-8.76294h21.35967v8.76294z" fill="#444444" stroke="#000000" stroke-width="3"/><path d="M380.86417,171.46838v-8.76294h21.35967v8.76294z" fill="#444444" stroke="#000000" stroke-width="3"/><path d="M403.31922,171.46838v-8.76294h21.35967v8.76294z" fill="#444444" stroke="#000000" stroke-width="3"/><path d="M425.77426,171.46838v-8.76294h21.35967v8.76294z" fill="#444444" stroke="#000000" stroke-width="3"/><path d="M-14.91296,117.61688v-128h500v128z" fill="url(#color-9)" stroke="none" stroke-width="0"/><path d="M-14.91296,65.61688v-77h500v77z" fill="url(#color-10)" stroke="none" stroke-width="0"/></g></g></svg>