<svg version="1.1" xmlns="http://www.w3.org/2000/svg" xmlns:xlink="http://www.w3.org/1999/xlink" width="364.45531" height="215.31375" viewBox="0,0,364.45531,215.31375"><g transform="translate(-103.58413,1.68748)"><g data-paper-data="{&quot;isPaintingLayer&quot;:true}" fill-rule="nonzero" stroke-linejoin="miter" stroke-miterlimit="10" stroke-dasharray="" stroke-dashoffset="0" style="mix-blend-mode: normal"><path d="" data-paper-data="{&quot;origPos&quot;:null}" fill="none" stroke="#5c4a25" stroke-width="7.5" stroke-linecap="round"/><path d="M403.46621,96.81251v-47.54774h5.1093v47.54774z" fill="#90ff96" stroke="none" stroke-width="0" stroke-linecap="butt"/><path d="M411.23443,62.40296c0,11.40232 -10.42714,11.40232 -10.42714,0c0,-11.40232 5.21357,-20.64573 5.21357,-20.64573c0,0 5.21357,9.24341 5.21357,20.64573z" fill="#ff8cf5" stroke="none" stroke-width="0" stroke-linecap="butt"/><path d="M406.02086,43.00999c0,0 -5.21357,-9.24341 -5.21357,-20.64573c0,-11.40232 10.42714,-11.40232 10.42714,0c0,11.40232 -5.21357,20.64573 -5.21357,20.64573z" data-paper-data="{&quot;index&quot;:null}" fill="#ff8cf5" stroke="none" stroke-width="0" stroke-linecap="butt"/><path d="M406.87059,42.44796c0,0 8.98667,-5.64462 20.37625,-6.18353c11.38958,-0.53891 11.8824,9.87657 0.49282,10.41548c-11.38958,0.53891 -20.86907,-4.23196 -20.86907,-4.23196z" data-paper-data="{&quot;index&quot;:null}" fill="#ff8cf5" stroke="none" stroke-width="0" stroke-linecap="butt"/><path d="M384.72314,47.09701c-11.38958,-0.53891 -10.89676,-10.95439 0.49282,-10.41548c11.38958,0.53891 20.37625,6.18353 20.37625,6.18353c0,0 -9.47949,4.77087 -20.86907,4.23196z" data-paper-data="{&quot;index&quot;:null}" fill="#ff8cf5" stroke="none" stroke-width="0" stroke-linecap="butt"/><path d="M406.47533,42.99661c0,0 3.15285,-10.13318 11.45216,-17.95203c8.29931,-7.81885 15.44945,-0.22934 7.15014,7.58951c-8.29931,7.81885 -18.6023,10.36253 -18.6023,10.36253z" data-paper-data="{&quot;index&quot;:null}" fill="#ff8cf5" stroke="none" stroke-width="0" stroke-linecap="butt"/><path d="M387.22654,32.6341c-8.29931,-7.81885 -1.14917,-15.40836 7.15014,-7.58951c8.29931,7.81885 11.45216,17.95204 11.45216,17.95204c0,0 -10.30299,-2.54367 -18.6023,-10.36252z" data-paper-data="{&quot;index&quot;:null}" fill="#ff8cf5" stroke="none" stroke-width="0" stroke-linecap="butt"/><path d="M425.49469,53.39167c8.29931,7.81885 1.14917,15.40836 -7.15014,7.58951c-8.29931,-7.81885 -11.45215,-17.95204 -11.45215,-17.95204c0,0 10.30299,2.54367 18.6023,10.36252z" data-paper-data="{&quot;index&quot;:null}" fill="#ff8cf5" stroke="none" stroke-width="0" stroke-linecap="butt"/><path d="M405.82884,43.02915c0,0 -3.15285,10.13318 -11.45215,17.95203c-8.29931,7.81885 -15.44945,0.22934 -7.15014,-7.58951c8.29931,-7.81885 18.6023,-10.36252 18.6023,-10.36252z" data-paper-data="{&quot;index&quot;:null}" fill="#ff8cf5" stroke="none" stroke-width="0" stroke-linecap="butt"/><path d="M401.64147,43.00849c0,-2.53385 2.05409,-4.58794 4.58794,-4.58794c2.53385,0 4.58794,2.05409 4.58794,4.58794c0,2.53385 -2.05409,4.58794 -4.58794,4.58794c-2.53385,0 -4.58794,-2.05409 -4.58794,-4.58794z" fill="#fffa5b" stroke="none" stroke-width="0" stroke-linecap="butt"/><path d="M406.85783,78.54796c0,0 3.92257,-5.84413 10.67826,-9.24282c6.75569,-3.39868 9.8637,2.77923 3.10801,6.17791c-6.75569,3.39868 -13.78627,3.0649 -13.78627,3.0649z" data-paper-data="{&quot;index&quot;:null}" fill="#90ff96" stroke="none" stroke-width="0" stroke-linecap="butt"/><path d="M404.81317,78.13088c0,0 -7.03058,0.33378 -13.78627,-3.0649c-6.75569,-3.39868 -3.64768,-9.57659 3.10801,-6.17791c6.75569,3.39869 10.67826,9.24282 10.67826,9.24282z" data-paper-data="{&quot;index&quot;:null}" fill="#90ff96" stroke="none" stroke-width="0" stroke-linecap="butt"/><path d="M435.46622,97.31253v-63.54774h5.1093v63.54774z" fill="#90ff96" stroke="none" stroke-width="0" stroke-linecap="butt"/><path d="M443.23444,46.90298c0,11.40232 -10.42714,11.40232 -10.42714,0c0,-11.40232 5.21357,-20.64573 5.21357,-20.64573c0,0 5.21357,9.24341 5.21357,20.64573z" fill="#bb8cff" stroke="none" stroke-width="0" stroke-linecap="butt"/><path d="M438.02087,27.50999c0,0 -5.21357,-9.24341 -5.21357,-20.64573c0,-11.40232 10.42714,-11.40232 10.42714,0c0,11.40232 -5.21357,20.64573 -5.21357,20.64573z" data-paper-data="{&quot;index&quot;:null}" fill="#bb8cff" stroke="none" stroke-width="0" stroke-linecap="butt"/><path d="M438.8706,26.94797c0,0 8.98667,-5.64462 20.37625,-6.18353c11.38958,-0.53891 11.8824,9.87657 0.49282,10.41548c-11.38958,0.53891 -20.86907,-4.23196 -20.86907,-4.23196z" data-paper-data="{&quot;index&quot;:null}" fill="#bb8cff" stroke="none" stroke-width="0" stroke-linecap="butt"/><path d="M416.72315,31.59703c-11.38958,-0.53891 -10.89676,-10.95439 0.49282,-10.41548c11.38958,0.53891 20.37625,6.18353 20.37625,6.18353c0,0 -9.47949,4.77087 -20.86907,4.23196z" data-paper-data="{&quot;index&quot;:null}" fill="#bb8cff" stroke="none" stroke-width="0" stroke-linecap="butt"/><path d="M438.47534,27.49663c0,0 3.15285,-10.13318 11.45216,-17.95203c8.29931,-7.81885 15.44945,-0.22934 7.15014,7.58951c-8.29931,7.81885 -18.6023,10.36253 -18.6023,10.36253z" data-paper-data="{&quot;index&quot;:null}" fill="#bb8cff" stroke="none" stroke-width="0" stroke-linecap="butt"/><path d="M419.22655,17.13409c-8.29931,-7.81885 -1.14917,-15.40836 7.15014,-7.58951c8.29931,7.81885 11.45216,17.95204 11.45216,17.95204c0,0 -10.30299,-2.54367 -18.6023,-10.36252z" data-paper-data="{&quot;index&quot;:null}" fill="#bb8cff" stroke="none" stroke-width="0" stroke-linecap="butt"/><path d="M457.49472,37.89166c8.29931,7.81885 1.14917,15.40836 -7.15014,7.58951c-8.29931,-7.81885 -11.45215,-17.95204 -11.45215,-17.95204c0,0 10.30299,2.54367 18.6023,10.36252z" data-paper-data="{&quot;index&quot;:null}" fill="#bb8cff" stroke="none" stroke-width="0" stroke-linecap="butt"/><path d="M437.82885,27.52915c0,0 -3.15285,10.13318 -11.45215,17.95203c-8.29931,7.81885 -15.44945,0.22934 -7.15014,-7.58951c8.29931,-7.81885 18.6023,-10.36252 18.6023,-10.36252z" data-paper-data="{&quot;index&quot;:null}" fill="#bb8cff" stroke="none" stroke-width="0" stroke-linecap="butt"/><path d="M433.64148,27.5085c0,-2.53385 2.05409,-4.58794 4.58794,-4.58794c2.53385,0 4.58794,2.05409 4.58794,4.58794c0,2.53385 -2.05409,4.58794 -4.58794,4.58794c-2.53385,0 -4.58794,-2.05409 -4.58794,-4.58794z" fill="#fffa5b" stroke="none" stroke-width="0" stroke-linecap="butt"/><path d="M438.85784,63.04798c0,0 3.92257,-5.84413 10.67826,-9.24282c6.75569,-3.39868 9.8637,2.77923 3.10801,6.17791c-6.75569,3.39868 -13.78627,3.0649 -13.78627,3.0649z" data-paper-data="{&quot;index&quot;:null}" fill="#90ff96" stroke="none" stroke-width="0" stroke-linecap="butt"/><path d="M436.81318,62.63089c0,0 -7.03058,0.33378 -13.78627,-3.0649c-6.75569,-3.39868 -3.64768,-9.57659 3.10801,-6.17791c6.75569,3.39869 10.67826,9.24282 10.67826,9.24282z" data-paper-data="{&quot;index&quot;:null}" fill="#90ff96" stroke="none" stroke-width="0" stroke-linecap="butt"/><path d="M330.95313,43.3125c0,0 6.25258,10.48725 8.59828,16.06382c2.02304,4.80951 4.65172,15.43618 4.65172,15.43618c0,0 2.62918,-10.60502 4.92992,-15.87582c2.28244,-5.22886 8.82008,-15.62418 8.82008,-15.62418c0,0 -1.78825,20.71235 -4.01722,30.43876c-2.34815,10.24648 -9.73278,29.56124 -9.73278,29.56124c0,0 -6.29268,-19.17442 -8.35896,-28.53115c-2.32076,-10.50912 -4.89104,-31.46885 -4.89104,-31.46885z" fill="#90ff96" stroke="none" stroke-width="0" stroke-linecap="butt"/><path d="M344.95313,24.42361c0,0 8.22098,13.78879 11.30514,21.12095c2.65993,6.32361 6.11615,20.29572 6.11615,20.29572c0,0 3.45689,-13.94364 6.48194,-20.87377c3.00099,-6.87499 11.59677,-20.5429 11.59677,-20.5429c0,0 -2.35121,27.2329 -5.2819,40.02134c-3.08738,13.47223 -12.79681,38.86755 -12.79681,38.86755c0,0 -8.27371,-25.2108 -10.99048,-37.51317c-3.05138,-13.81754 -6.43081,-41.37572 -6.43081,-41.37572z" fill="#80ff87" stroke="none" stroke-width="0" stroke-linecap="butt"/><path d="M113.50434,173.1555c0,0 11.25191,4.74044 16.44651,7.84149c4.48008,2.6745 12.89591,9.67521 12.89591,9.67521c0,0 -4.16829,-10.09972 -5.43938,-15.70857c-1.26098,-5.56421 -2.15708,-17.81167 -2.15708,-17.81167c0,0 10.83643,17.74179 14.80628,26.89666c4.18212,9.64438 9.6828,29.57765 9.6828,29.57765c0,0 -16.43329,-11.71337 -23.64344,-18.02461c-8.09816,-7.08854 -22.5916,-22.44616 -22.5916,-22.44616z" fill="#90ff96" stroke="none" stroke-width="0" stroke-linecap="butt"/><path d="M103.58413,147.64415c0,0 14.79417,6.23281 21.62411,10.31012c5.89048,3.51647 16.95574,12.72111 16.95574,12.72111c0,0 -5.48052,-13.27927 -7.15178,-20.65386c-1.65795,-7.31592 -2.83615,-23.41905 -2.83615,-23.41905c0,0 14.2479,23.32716 19.46752,35.36413c5.49871,12.68057 12.73109,38.88913 12.73109,38.88913c0,0 -21.60673,-15.40091 -31.08674,-23.69901c-10.64759,-9.32011 -29.70378,-29.51256 -29.70378,-29.51256z" fill="#80ff87" stroke="none" stroke-width="0" stroke-linecap="butt"/></g></g></svg>