<svg version="1.1" xmlns="http://www.w3.org/2000/svg" xmlns:xlink="http://www.w3.org/1999/xlink" width="441.30665" height="256.31128" viewBox="0,0,441.30665,256.31128"><defs><linearGradient x1="284.11461" y1="39.13277" x2="284.11461" y2="82.64754" gradientUnits="userSpaceOnUse" id="color-1"><stop offset="0" stop-color="#36d900"/><stop offset="1" stop-color="#0ba600"/></linearGradient><linearGradient x1="154.64877" y1="35.2329" x2="154.64877" y2="79.15063" gradientUnits="userSpaceOnUse" id="color-2"><stop offset="0" stop-color="#0040ff"/><stop offset="1" stop-color="#1500a2"/></linearGradient><linearGradient x1="201.34689" y1="37.11953" x2="201.34689" y2="80.57919" gradientUnits="userSpaceOnUse" id="color-3"><stop offset="0" stop-color="#f6ff00"/><stop offset="1" stop-color="#ffde00"/></linearGradient><linearGradient x1="301.67804" y1="89.11385" x2="301.67804" y2="139.18865" gradientUnits="userSpaceOnUse" id="color-4"><stop offset="0" stop-color="#0040ff"/><stop offset="1" stop-color="#1500a2"/></linearGradient><linearGradient x1="149.11821" y1="89.95327" x2="149.11821" y2="138.61999" gradientUnits="userSpaceOnUse" id="color-5"><stop offset="0" stop-color="#ff0000"/><stop offset="1" stop-color="#be0000"/></linearGradient><linearGradient x1="245.92418" y1="39.42896" x2="245.92418" y2="79.26296" gradientUnits="userSpaceOnUse" id="color-6"><stop offset="0" stop-color="#ff0000"/><stop offset="1" stop-color="#be0000"/></linearGradient><linearGradient x1="244.79281" y1="50.99367" x2="244.79281" y2="57.41851" gradientUnits="userSpaceOnUse" id="color-7"><stop offset="0" stop-color="#000000"/><stop offset="1" stop-color="#1a1a1a"/></linearGradient><linearGradient x1="327.12197" y1="40.52995" x2="327.12197" y2="84.08289" gradientUnits="userSpaceOnUse" id="color-8"><stop offset="0" stop-color="#f6ff00"/><stop offset="1" stop-color="#ffde00"/></linearGradient><linearGradient x1="326.80171" y1="51.4182" x2="326.80171" y2="61.02547" gradientUnits="userSpaceOnUse" id="color-9"><stop offset="0" stop-color="#000000"/><stop offset="1" stop-color="#1a1a1a"/></linearGradient><linearGradient x1="208.82934" y1="91.47638" x2="208.82934" y2="138.70137" gradientUnits="userSpaceOnUse" id="color-10"><stop offset="0" stop-color="#36d900"/><stop offset="1" stop-color="#0ba600"/></linearGradient><linearGradient x1="262.55309" y1="89.13245" x2="262.55309" y2="141.68451" gradientUnits="userSpaceOnUse" id="color-11"><stop offset="0" stop-color="#f6ff00"/><stop offset="1" stop-color="#ffde00"/></linearGradient><linearGradient x1="262.16666" y1="102.27048" x2="262.16666" y2="113.86284" gradientUnits="userSpaceOnUse" id="color-12"><stop offset="0" stop-color="#000000"/><stop offset="1" stop-color="#1a1a1a"/></linearGradient><linearGradient x1="338.96169" y1="92.23873" x2="338.96169" y2="140.39663" gradientUnits="userSpaceOnUse" id="color-13"><stop offset="0" stop-color="#36d900"/><stop offset="1" stop-color="#0ba600"/></linearGradient><linearGradient x1="338.16569" y1="107.3627" x2="338.16569" y2="124.87466" gradientUnits="userSpaceOnUse" id="color-14"><stop offset="0" stop-color="#000000"/><stop offset="1" stop-color="#1a1a1a"/></linearGradient><linearGradient x1="210.48282" y1="156.31336" x2="210.48282" y2="180.15117" gradientUnits="userSpaceOnUse" id="color-15"><stop offset="0" stop-color="#f3f3f3"/><stop offset="1" stop-color="#b7b7b7"/></linearGradient><linearGradient x1="348.00771" y1="152.5408" x2="348.00771" y2="179.01052" gradientUnits="userSpaceOnUse" id="color-16"><stop offset="0" stop-color="#f3f3f3"/><stop offset="1" stop-color="#b7b7b7"/></linearGradient><linearGradient x1="185.69202" y1="156.24319" x2="185.69202" y2="181.2444" gradientUnits="userSpaceOnUse" id="color-17"><stop offset="0" stop-color="#f3f3f3"/><stop offset="1" stop-color="#b7b7b7"/></linearGradient><linearGradient x1="321.43637" y1="155.20934" x2="321.43637" y2="179.04716" gradientUnits="userSpaceOnUse" id="color-18"><stop offset="0" stop-color="#f3f3f3"/><stop offset="1" stop-color="#b7b7b7"/></linearGradient><linearGradient x1="293.46493" y1="154.28116" x2="293.46493" y2="178.29349" gradientUnits="userSpaceOnUse" id="color-19"><stop offset="0" stop-color="#f3f3f3"/><stop offset="1" stop-color="#b7b7b7"/></linearGradient><linearGradient x1="153.57929" y1="157.35136" x2="153.57929" y2="179.39504" gradientUnits="userSpaceOnUse" id="color-20"><stop offset="0" stop-color="#f3f3f3"/><stop offset="1" stop-color="#b7b7b7"/></linearGradient><linearGradient x1="128.10223" y1="157.05373" x2="128.10223" y2="181.1622" gradientUnits="userSpaceOnUse" id="color-21"><stop offset="0" stop-color="#f3f3f3"/><stop offset="1" stop-color="#b7b7b7"/></linearGradient><linearGradient x1="237.49429" y1="153.87991" x2="237.49429" y2="180.18817" gradientUnits="userSpaceOnUse" id="color-22"><stop offset="0" stop-color="#f3f3f3"/><stop offset="1" stop-color="#b7b7b7"/></linearGradient><linearGradient x1="265.35624" y1="155.05331" x2="265.35624" y2="178.69476" gradientUnits="userSpaceOnUse" id="color-23"><stop offset="0" stop-color="#f3f3f3"/><stop offset="1" stop-color="#b7b7b7"/></linearGradient></defs><g transform="translate(-19.49645,-29.90917)"><g data-paper-data="{&quot;isPaintingLayer&quot;:true}" fill-rule="nonzero" stroke-linejoin="miter" stroke-miterlimit="10" stroke-dasharray="" stroke-dashoffset="0" style="mix-blend-mode: normal"><text transform="translate(19.79369,278.94725) scale(0.59449,0.59449)" font-size="40" xml:space="preserve" data-paper-data="{&quot;origPos&quot;:null}" fill="#ffffff" fill-rule="nonzero" stroke="none" stroke-width="1" stroke-linecap="butt" stroke-linejoin="miter" stroke-miterlimit="10" stroke-dasharray="" stroke-dashoffset="0" font-family="Sans Serif" font-weight="normal" text-anchor="start" style="mix-blend-mode: normal"><tspan x="0" dy="0">PLEASE LOVE, FAVORITE, AND FOLLOW</tspan></text><g><g fill="none" stroke="none" stroke-width="1" stroke-linecap="butt" font-family="sans-serif" font-weight="normal" font-size="12" text-anchor="start"><g/><g/></g><path d="M225.45038,182.36827l-13.30483,2.21748l-7.76114,-12.19609l4.43493,-8.86989l7.76115,-2.77183h7.76114v8.86989l-4.98931,-1.66311l-4.98931,3.3262v4.43493l3.32621,1.10875l5.54368,-3.32621z" fill="#000000" stroke="#000000" stroke-width="2" stroke-linecap="round"/><path d="M344.64641,183.4451l-3.98859,-25.01933l7.61458,-1.45039l2.17559,9.06497h4.71378l-1.08778,-8.70238l10.15277,-0.36261c0,0 0,5.56116 0,9.12057c0,5.92169 0,15.17357 0,15.17357h-7.25198l-0.7252,-7.25198l-5.07639,0.3626l0.72519,7.61458z" fill="#000000" stroke="#000000" stroke-width="2" stroke-linecap="round"/><path d="M191.1032,170.05324l9.37546,4.68772l0.39065,6.25029l-3.12515,4.68772h-11.71932l-6.2503,-4.68772l2.34386,-5.07837l7.03159,3.12515l0.78128,-2.34385l-11.32868,-6.64095l5.07837,-7.81288l10.93802,-1.56258l7.03159,4.29707l-2.7345,5.07837l-7.42224,-3.12515z" fill="#000000" stroke="#000000" stroke-width="2" stroke-linecap="round"/><path d="M336.40392,181.26426l-13.30482,2.21748l-7.76114,-12.19609l4.43493,-8.86988l7.76115,-2.77184h7.76114v8.86989l-4.98931,-1.6631l-4.98932,3.3262v4.43495l3.32622,1.10872l5.54368,-3.32621z" fill="#000000" stroke="#000000" stroke-width="2" stroke-linecap="round"/><path d="M285.20334,158.71574l25.94436,0.276l-0.276,10.21215l-8.28011,-1.38001l1.10402,14.90421l-10.48814,-0.276l1.93203,-15.18021l-10.48814,1.38002z" fill="#000000" stroke="#000000" stroke-width="2" stroke-linecap="round"/><path d="M148.69644,182.23886l1.13627,-19.31662l3.63608,-0.45452l6.59038,8.18116l1.13627,-8.86292l6.13587,1.13626l-0.45451,19.99839h-4.77235l-6.36312,-6.81764v7.72665z" fill="#000000" stroke="#000000" stroke-width="2" stroke-linecap="round"/><g fill="#000000" stroke="#000000" stroke-width="2" stroke-linecap="round"><path d="M122.77388,181.81116l-2.39092,-7.96973l6.3758,-12.3531l11.75538,1.79319l6.17655,8.56747l-3.1879,10.75915l-8.36823,2.98865z" data-paper-data="{&quot;origPos&quot;:null}"/><path d="M131.93909,177.82629l-4.38335,-3.58639l2.39093,-5.18033l5.57882,0.79696l1.19547,5.18034z" data-paper-data="{&quot;origPos&quot;:null}"/></g><g fill="#000000" stroke="#000000" stroke-width="2" stroke-linecap="round"><path d="M230.70917,182.30143l0.38688,-22.43938l11.2197,-1.54755l10.05904,5.4164l-0.77377,6.19018l-3.48198,4.64263l5.02952,6.19018l-7.73773,3.86886l-5.4164,-7.73773v6.19018z" data-paper-data="{&quot;origPos&quot;:null}"/><path d="M238.83378,170.69485v-5.80329l5.80329,1.16065l-0.77377,2.32132z" data-paper-data="{&quot;origPos&quot;:null}"/></g><g fill="#000000" stroke="#000000" stroke-width="2" stroke-linecap="round"><path d="M257.25677,182.31412l6.92939,-22.82624l9.78268,0.40761l8.35603,22.21481l-7.1332,0.61141l-0.81523,-6.52178l-8.35603,1.22284l-1.42664,5.70656z" data-paper-data="{&quot;origPos&quot;:null}"/><path d="M266.22421,172.53146l1.42664,-5.91036l3.05708,-0.61142l1.63045,6.11417z" data-paper-data="{&quot;origPos&quot;:null}"/></g><path d="M110.63623,137.50314l23.70144,-53.81598l9.12826,-0.93055l-13.53679,-10.13544l4.28769,-13.93107l-6.85078,-5.76683l13.69141,-19.67056l22.39332,-3.34354l10.79315,7.0628l0.38741,-5.0312l32.16936,3.23312l0.10258,7.00884l17.92902,3.73902l0.71532,-11.06627l29.77083,-0.36945l11.39256,8.65409l1.95704,-9.3273l35.98644,5.94802l23.51944,-4.34416l21.56048,11.67193l-0.96929,14.7333l-4.03212,5.09589l9.14927,12.23073l-11.9041,8.37236l13.52118,5.03054l13.29511,18.98506c0,0 -5.76353,25.38496 -7.6252,27.61209c-0.62056,0.74238 -21.27963,7.04635 -21.27963,7.04635l-24.10723,-8.67435l-3.74595,-9.2004l-2.0878,17.7985l-23.02845,0.82524l-1.34992,-4.95003l-17.27079,7.34115l-5.02892,-7.25799l-1.95216,4.21768l-24.06121,-3.7044l-22.89668,1.61134l-0.88447,-12.71615l-7.95595,1.30665l-4.27727,12.46766l-22.57121,-2.14779l-0.17109,-4.02619l-21.79272,7.14288l-2.16505,-17.41676l-4.75357,4.25211l-4.14644,-6.63591l-5.54811,15.24807z" fill="#000000" stroke="none" stroke-width="0" stroke-linecap="butt"/><path d="M267.22828,78.10123l5.19579,-38.96846l28.57688,5.1958l-1.29894,11.04106l-14.28844,-3.89684l-2.59789,5.1958l11.69055,2.59789v5.84527h-14.28843l-0.64946,7.79369l16.23686,-1.94844l1.29894,11.69054z" fill="url(#color-1)" stroke="#098c00" stroke-width="4" stroke-linecap="round"/><path d="M156.36429,51.70206l16.46915,8.23457l0.68622,10.97943l-5.48972,8.23457h-20.58643l-10.97943,-8.23457l4.11729,-8.9208l12.35187,5.48972l1.37242,-4.11729l-19.90023,-11.66564l8.9208,-13.72429l19.21401,-2.74486l12.35187,7.54836l-4.80349,8.9208l-13.03807,-5.48972z" fill="url(#color-2)" stroke="#1500a2" stroke-width="4" stroke-linecap="round"/><path d="M178.80206,37.11953l23.21448,2.90901l-0.44643,23.75691l4.46432,0.48484v-16.96922l17.85729,3.87868l-1.28544,20.88186l-8.09568,8.51757l-28.1125,-0.64959l-6.52982,-8.84496z" fill="url(#color-3)" stroke="#dcac00" stroke-width="4" stroke-linecap="round"/><path d="M291.90735,139.18865l3.25691,-50.0748l16.28449,4.47823l-6.51379,44.78234z" fill="url(#color-4)" stroke="#1500a2" stroke-width="4" stroke-linecap="round"/><path d="M120.31544,131.33655l17.87758,-41.38329l9.26986,1.65531l4.966,11.58732l6.95239,-10.92518l10.59412,1.65533l7.9456,38.73476l-17.54653,5.95919l-2.64853,-22.51251l-6.29027,8.27666l-6.95239,-8.93879l-6.62132,18.5397z" fill="url(#color-5)" stroke="#9f0000" stroke-width="4" stroke-linecap="round"/><path d="M229.43376,79.26296l0.85665,-39.834h23.12942l8.56646,6.42483l0.42832,15.84794l-8.56645,8.56645l-12.42136,1.28497l0.85665,7.7098z" fill="url(#color-6)" stroke="#9f0000" stroke-width="4" stroke-linecap="round"/><path d="M245.22114,57.41851l-3.8549,-0.42832v-5.99652l6.85316,1.28497z" fill="url(#color-7)" stroke="#9f0000" stroke-width="3" stroke-linecap="round"/><path d="M308.54791,80.23999l0.64049,-37.1481l18.57406,-2.56195l16.6526,8.96678l-1.28096,10.24775l-5.76437,7.68582l8.32631,10.24775l-12.80969,6.40485l-8.96678,-12.80969v10.24775z" fill="url(#color-8)" stroke="#dcac00" stroke-width="4" stroke-linecap="round"/><path d="M321.99808,61.02547v-9.60727l9.60727,1.92146l-1.28095,3.84291z" fill="url(#color-9)" stroke="#ffc600" stroke-width="3" stroke-linecap="round"/><path d="M183.79194,137.07294l13.84182,-45.59656l19.54138,0.81422l16.69159,44.37523l-14.24892,1.22134l-1.62846,-13.02759l-16.69158,2.44267l-2.84979,11.39913z" fill="url(#color-10)" stroke="#098c00" stroke-width="4" stroke-linecap="round"/><path d="M201.70487,117.53157l2.84978,-11.80625l6.10668,-1.22133l3.2569,12.21336z" fill="#000000" stroke="#098c00" stroke-width="3" stroke-linecap="round"/><path d="M240.14118,137.04758l0.77282,-44.82382l22.41191,-3.09131l20.09344,10.81954l-1.54565,12.36519l-6.95543,9.27389l10.04674,12.36519l-15.45649,7.72825l-10.81955,-15.45649v12.36519z" fill="url(#color-11)" stroke="#dcac00" stroke-width="4" stroke-linecap="round"/><path d="M256.37049,113.86284v-11.59236l11.59236,2.31848l-1.54564,4.63694z" fill="url(#color-12)" stroke="#ffc600" stroke-width="3" stroke-linecap="round"/><path d="M319.45973,132.83465l-4.776,-15.91996l12.73599,-24.67595l23.48196,3.582l12.33798,17.11396l-6.36798,21.49196l-16.71597,5.96998z" fill="url(#color-13)" stroke="#098c00" stroke-width="4" stroke-linecap="round"/><path d="M337.76768,124.87466l-8.75598,-7.16398l4.776,-10.34798l11.14397,1.592l2.38799,10.34798z" fill="url(#color-14)" stroke="#098c00" stroke-width="3" stroke-linecap="round"/><path d="M221.0158,177.93369l-13.30483,2.21748l-7.76114,-12.19609l4.43493,-8.86989l7.76115,-2.77183h7.76114v8.86989l-4.98931,-1.66311l-4.98931,3.3262v4.43493l3.32621,1.10873l5.54368,-3.3262z" fill="url(#color-15)" stroke="#989898" stroke-width="2" stroke-linecap="round"/><path d="M340.21183,179.01052l-3.98859,-25.01933l7.61458,-1.45039l2.17559,9.06497h4.71378l-1.08778,-8.70238l10.15277,-0.36261c0,0 0,5.56116 0,9.12057c0,5.92169 0,15.17357 0,15.17357h-7.25198l-0.7252,-7.25198l-5.07639,0.3626l0.72519,7.61458z" fill="url(#color-16)" stroke="#989898" stroke-width="2" stroke-linecap="round"/><path d="M186.66862,165.61865l9.37546,4.68772l0.39065,6.25029l-3.12515,4.68772h-11.71932l-6.2503,-4.68772l2.34386,-5.07837l7.03159,3.12515l0.78128,-2.34386l-11.32868,-6.64095l5.07837,-7.81288l10.93803,-1.56258l7.03159,4.29707l-2.7345,5.07837l-7.42224,-3.12515z" fill="url(#color-17)" stroke="#989898" stroke-width="2" stroke-linecap="round"/><path d="M331.96934,176.82968l-13.30482,2.21748l-7.76114,-12.19609l4.43493,-8.86988l7.76115,-2.77184h7.76114v8.86989l-4.98931,-1.6631l-4.98932,3.3262v4.43495l3.32622,1.10872l5.54368,-3.32621z" fill="url(#color-18)" stroke="#989898" stroke-width="2" stroke-linecap="round"/><path d="M280.76876,154.28116l25.94436,0.276l-0.276,10.21215l-8.28011,-1.38001l1.10402,14.90421l-10.48814,-0.276l1.93203,-15.18021l-10.48814,1.38002z" fill="url(#color-19)" stroke="#989898" stroke-width="2" stroke-linecap="round"/><path d="M144.26186,177.80428l1.13627,-19.31662l3.63608,-0.45452l6.59038,8.18116l1.13627,-8.86292l6.13587,1.13626l-0.45451,19.99839h-4.77235l-6.36312,-6.81764v7.72665z" fill="url(#color-20)" stroke="#989898" stroke-width="2" stroke-linecap="round"/><g stroke="#989898" stroke-width="2" stroke-linecap="round"><path d="M118.3393,177.37658l-2.39092,-7.96973l6.3758,-12.3531l11.75538,1.79319l6.17655,8.56747l-3.1879,10.75915l-8.36823,2.98865z" data-paper-data="{&quot;origPos&quot;:null}" fill="url(#color-21)"/><path d="M127.50451,173.39171l-4.38335,-3.58639l2.39093,-5.18033l5.57882,0.79696l1.19547,5.18034z" data-paper-data="{&quot;origPos&quot;:null}" fill="#ffffff"/></g><g stroke="#989898" stroke-width="2" stroke-linecap="round"><path d="M226.27459,177.86685l0.38688,-22.43938l11.2197,-1.54755l10.05904,5.4164l-0.77377,6.19018l-3.48198,4.64263l5.02952,6.19018l-7.73773,3.86886l-5.4164,-7.73773v6.19018z" data-paper-data="{&quot;origPos&quot;:null}" fill="url(#color-22)"/><path d="M234.3992,166.26027v-5.80329l5.80329,1.16065l-0.77377,2.32132z" data-paper-data="{&quot;origPos&quot;:null}" fill="#ffffff"/></g><g stroke="#989898" stroke-width="2" stroke-linecap="round"><path d="M252.82219,177.87954l6.92939,-22.82624l9.78268,0.40761l8.35603,22.21481l-7.1332,0.61141l-0.81523,-6.52178l-8.35603,1.22284l-1.42664,5.70656z" data-paper-data="{&quot;origPos&quot;:null}" fill="url(#color-23)"/><path d="M261.78963,168.09688l1.42664,-5.91036l3.05708,-0.61142l1.63045,6.11417z" data-paper-data="{&quot;origPos&quot;:null}" fill="#ffffff"/></g><g fill="none" stroke="none" stroke-width="1" stroke-linecap="butt" font-family="sans-serif" font-weight="normal" font-size="12" text-anchor="start"><g/><g/></g></g></g></g></svg>