<svg version="1.1" xmlns="http://www.w3.org/2000/svg" xmlns:xlink="http://www.w3.org/1999/xlink" width="79.34432" height="150.09866" viewBox="0,0,79.34432,150.09866"><defs><linearGradient x1="262.48508" y1="169.95403" x2="262.48508" y2="199.74325" gradientUnits="userSpaceOnUse" id="color-1"><stop offset="0" stop-color="#d21515"/><stop offset="1" stop-color="#940000"/></linearGradient><linearGradient x1="252.22198" y1="214.41697" x2="252.22198" y2="249.82119" gradientUnits="userSpaceOnUse" id="color-2"><stop offset="0" stop-color="#364ec7"/><stop offset="1" stop-color="#001371"/></linearGradient><linearGradient x1="255.69243" y1="243.39387" x2="255.69243" y2="257.50607" gradientUnits="userSpaceOnUse" id="color-3"><stop offset="0" stop-color="#a6680a"/><stop offset="1" stop-color="#6c4306"/></linearGradient><linearGradient x1="240.07517" y1="162.58105" x2="240.07517" y2="221.78101" gradientUnits="userSpaceOnUse" id="color-4"><stop offset="0" stop-color="#364ec7"/><stop offset="1" stop-color="#001371"/></linearGradient><linearGradient x1="241.66482" y1="167.89431" x2="241.66482" y2="188.4161" gradientUnits="userSpaceOnUse" id="color-5"><stop offset="0" stop-color="#d21515"/><stop offset="1" stop-color="#940000"/></linearGradient><linearGradient x1="227.98692" y1="214.75301" x2="227.98692" y2="249.8782" gradientUnits="userSpaceOnUse" id="color-6"><stop offset="0" stop-color="#364ec7"/><stop offset="1" stop-color="#001371"/></linearGradient><linearGradient x1="229.81623" y1="243.87439" x2="229.81623" y2="258.59287" gradientUnits="userSpaceOnUse" id="color-7"><stop offset="0" stop-color="#a6680a"/><stop offset="1" stop-color="#6c4306"/></linearGradient><linearGradient x1="239.52134" y1="123.32031" x2="239.52134" y2="173.93276" gradientUnits="userSpaceOnUse" id="color-8"><stop offset="0" stop-color="#ffefc0"/><stop offset="1" stop-color="#e0ce98"/></linearGradient><linearGradient x1="239.42808" y1="109.74421" x2="239.42808" y2="136.26002" gradientUnits="userSpaceOnUse" id="color-9"><stop offset="0" stop-color="#d21515"/><stop offset="1" stop-color="#940000"/></linearGradient><linearGradient x1="240.7504" y1="127.35084" x2="240.7504" y2="135.01437" gradientUnits="userSpaceOnUse" id="color-10"><stop offset="0" stop-color="#d21515"/><stop offset="1" stop-color="#940000"/></linearGradient><linearGradient x1="241.95837" y1="147.81726" x2="241.95837" y2="164.52716" gradientUnits="userSpaceOnUse" id="color-11"><stop offset="0" stop-color="#ffefc0"/><stop offset="1" stop-color="#e0ce98"/></linearGradient><linearGradient x1="219.07094" y1="150.68466" x2="219.07094" y2="184.14787" gradientUnits="userSpaceOnUse" id="color-12"><stop offset="0" stop-color="#d21515"/><stop offset="1" stop-color="#940000"/></linearGradient></defs><g transform="translate(-204.51703,-109.24421)"><g data-paper-data="{&quot;isPaintingLayer&quot;:true}" fill-rule="nonzero" stroke-linejoin="miter" stroke-miterlimit="10" stroke-dasharray="" stroke-dashoffset="0" style="mix-blend-mode: normal"><path d="M252.65063,170.40589c2.94133,-2.00284 9.7288,2.83978 15.16021,10.81629c5.43142,7.97651 7.45003,16.06635 4.50869,18.0692c-2.94135,2.00284 -9.72881,-2.83977 -15.16021,-10.81628c-5.43142,-7.97651 -7.45003,-16.06638 -4.50868,-18.0692z" data-paper-data="{&quot;origRot&quot;:0,&quot;origPos&quot;:null,&quot;index&quot;:null}" fill="url(#color-1)" stroke="#940000" stroke-width="1.5" stroke-linecap="butt"/><path d="M273.87651,191.77752c5.58728,0.49472 9.70268,5.57127 9.19201,11.33877c-0.51068,5.76752 -5.45404,10.04195 -11.04133,9.54723c-5.58726,-0.49472 -9.70268,-5.57127 -9.19201,-11.33877c0.51068,-5.76752 5.45405,-10.04195 11.04133,-9.54723z" data-paper-data="{&quot;origPos&quot;:null,&quot;index&quot;:null}" fill="#ffffff" stroke="#bfbfbf" stroke-width="1.5" stroke-linecap="butt"/><path d="M261.42482,229.96923c0.4304,3.46996 -0.38477,9.57506 -0.80484,13.04622c-0.60413,4.99206 -2.47038,5.79114 -7.60614,6.39258c-5.15866,0.60413 -6.67558,1.23342 -8.48206,-3.50047c-1.24252,-3.25603 0.77249,-10.55265 0.34486,-14.00036c-1.2628,-10.18101 -4.03398,-16.92601 0.60523,-17.46931c0,0 7.49004,-0.29825 8.97246,1.35716c0,0 3.30405,-1.94866 4.59979,0.95312c1.3047,2.92187 1.10791,3.04005 2.3707,13.22106z" data-paper-data="{&quot;origPos&quot;:null,&quot;origRot&quot;:0}" fill="url(#color-2)" stroke="#001371" stroke-width="1.5" stroke-linecap="butt"/><path d="M264.68819,246.75481c4.95801,3.19042 2.83269,7.10483 0.34599,8.69775c-3.01121,1.92892 -12.5986,2.85295 -17.69305,1.18816c-5.09444,-1.66479 -3.28117,-2.83589 -3.53013,-4.62651c-0.55354,-3.98118 2.18398,-7.54143 9.64728,-8.32113c7.4633,-0.77971 6.27192,-0.12869 11.22993,3.06173z" data-paper-data="{&quot;origPos&quot;:null,&quot;origRot&quot;:0}" fill="url(#color-3)" stroke="#6c4306" stroke-width="1.5" stroke-linecap="butt"/><path d="" data-paper-data="{&quot;origPos&quot;:null}" fill="#c1770b" stroke="#6c4306" stroke-width="1.5" stroke-linecap="butt"/><path d="M258.9692,192.85576c0,9.26372 2.84091,18.23837 -2.69239,25.3177c-3.54659,4.53753 -10.70286,3.50701 -16.20164,3.50701c-5.49877,0 -12.65505,0.73766 -16.20165,-3.79985c-5.5333,-7.07933 -2.69238,-15.76114 -2.69238,-25.02485c0,-15.91945 8.45914,-28.82471 18.89403,-28.82471c0,0 11.73737,-4.40076 15.22571,2.13104c3.4719,6.50102 3.66832,10.77421 3.66832,26.69366z" data-paper-data="{&quot;origPos&quot;:null}" fill="url(#color-4)" stroke="#001371" stroke-width="1.5" stroke-linecap="butt"/><path d="M249.05212,176.53214c0,2.68857 1.31009,7.12666 -0.34219,8.97831c-1.7848,2.00015 -3.67346,2.91985 -6.1351,2.90548c-2.72608,-0.01592 -4.60612,-1.00217 -6.88148,-2.77355c-2.33853,-1.82055 -1.87025,-5.80478 -1.87025,-9.11024c0,-4.77054 3.40914,-8.63783 7.61452,-8.63783c4.20537,0 7.61451,3.8673 7.61451,8.63783z" data-paper-data="{&quot;origPos&quot;:null}" fill="url(#color-5)" stroke="none" stroke-width="0" stroke-linecap="butt"/><path d="M234.41458,184.68768c0,2.23365 -1.96162,4.0444 -4.38142,4.0444c-2.4198,0 -4.38143,-1.81074 -4.38143,-4.0444c0,-2.23365 1.96163,-4.04439 4.38143,-4.04439c2.4198,0 4.38142,1.81074 4.38142,4.04439z" data-paper-data="{&quot;origPos&quot;:null}" fill="#faff66" stroke="none" stroke-width="1.5" stroke-linecap="butt"/><path d="M257.91589,184.13296c0,2.17864 -1.9133,3.94477 -4.2735,3.94477c-2.36019,0 -4.2735,-1.76612 -4.2735,-3.94477c0,-2.17864 1.91331,-3.94477 4.2735,-3.94477c2.36019,0 4.2735,1.76612 4.2735,3.94477z" data-paper-data="{&quot;origPos&quot;:null}" fill="#faff66" stroke="none" stroke-width="1.5" stroke-linecap="butt"/><path d="M237.44758,231.79351c0,3.44794 -1.56414,9.33395 -2.41029,12.6855c-1.21689,4.82006 -3.17192,5.38864 -8.35489,5.38864c-5.20608,0 -6.79267,0.44235 -8.00558,-4.40136c-0.83424,-3.33157 2.07045,-10.24695 2.07045,-13.67278c0,-10.1164 -1.9244,-17.0405 2.75746,-17.0405c0,0 7.48747,0.567 8.75785,2.3584c3.66296,5.1652 5.185,4.5657 5.185,14.68211z" data-paper-data="{&quot;origPos&quot;:null}" fill="url(#color-6)" stroke="#001371" stroke-width="1.5" stroke-linecap="butt"/><path d="M239.83339,248.30094c4.61964,3.87617 1.88784,7.73559 -0.88346,9.12904c-3.35584,1.68736 -13.29817,1.60626 -18.27449,-0.69016c-4.97631,-2.29641 -2.95416,-3.3225 -2.95416,-5.22131c0,-4.22174 3.30787,-7.64412 11.05606,-7.64412c7.74819,0 6.43641,0.55038 11.05605,4.42656z" data-paper-data="{&quot;origPos&quot;:null}" fill="url(#color-7)" stroke="#6c4306" stroke-width="1.5" stroke-linecap="butt"/><path d="M269.64279,149.70953c0,13.37811 -13.73475,24.22323 -28.56379,24.22323c-14.82904,0 -31.67913,-11.007 -31.67913,-24.38512c0,-4.84199 0.68944,-17.04147 3.19789,-21.12167c5.78078,-9.40291 17.74496,-2.93967 28.48124,-2.93967c0,0 17.47791,-4.07051 23.38966,4.87354c2.80538,4.24433 5.17415,5.97157 5.17415,19.34969z" data-paper-data="{&quot;origPos&quot;:null}" fill="url(#color-8)" stroke="#e0ce98" stroke-width="1" stroke-linecap="butt"/><path d="M269.02029,125.38196c5.03003,9.40432 -1.73673,11.55139 -11.88128,12.30628c-5.52152,0.41087 -15.57531,-2.18669 -20.10135,1.20349c-2.60107,1.9483 -26.17661,-1.6789 -26.17661,-3.87114c0,-11.89009 10.77902,-11.68761 17.8548,-11.68761c7.07578,0 32.2072,-13.0899 40.30444,2.04897z" data-paper-data="{&quot;origPos&quot;:null}" fill="#5a3413" stroke="#351c06" stroke-width="1" stroke-linecap="butt"/><path d="M247.51294,161.61512c0,0.93673 -1.03545,2.26869 -1.13658,3.19959c-0.21477,1.97699 -1.58685,3.01897 -3.51269,3.10762c-2.12553,0.09786 -3.01604,-2.04326 -5.14035,-2.16621c-1.47465,-0.08537 -1.53991,1.74597 -3.01688,1.74597c-1.60871,0 -1.59206,-1.47457 -3.17663,-1.76096c-2.16384,-0.39108 -2.86624,1.73159 -4.82742,0.71024c-1.02557,-0.53411 -2.61762,-2.77623 -3.25007,-3.76589c-2.00221,-3.13303 -6.90647,-7.24457 -2.50601,-8.38529c2.1651,-0.56126 8.33282,5.18914 10.56518,5.18914c0,0 3.73999,-0.01695 5.59794,0.08157c4.21276,0.22336 10.4035,-2.38936 10.4035,2.04422z" data-paper-data="{&quot;origPos&quot;:null}" fill="#5a3413" stroke="#351c06" stroke-width="1" stroke-linecap="butt"/><path d="M270.67452,130.41201c0,10.22611 -12.29169,3.93148 -29.30368,3.93148c-4.11857,0 -25.80918,2.79311 -30.42112,-0.53887c-3.25572,-2.35216 -2.73868,-4.48848 -2.73868,-8.32384c0,-8.66476 8.19237,-8.36117 16.59332,-12.09918c6.1066,-2.71713 8.29835,-3.00748 15.06722,-3.00748c0,0 13.85643,-1.8789 21.91934,0.85332c9.12834,3.09325 8.8836,8.95845 8.8836,19.18456z" data-paper-data="{&quot;origPos&quot;:null}" fill="url(#color-9)" stroke="#940000" stroke-width="1" stroke-linecap="butt"/><path d="M264.87483,133.44206c0,3.36409 -10.25569,0.28331 -23.57925,0.28331c-13.32355,0 -24.66962,3.08078 -24.66962,-0.28331c0,-3.36409 10.80087,-6.09122 24.12443,-6.09122c13.32355,0 24.12443,2.72713 24.12443,6.09122z" data-paper-data="{&quot;origPos&quot;:null}" fill="url(#color-10)" stroke="#940000" stroke-width="1" stroke-linecap="butt"/><path d="M247.69903,122.58765c0,2.07307 0.30737,3.50338 -1.23203,4.82162c-1.32872,1.13783 -8.88182,0.83961 -10.13715,-0.07455c-1.7882,-1.30221 -1.07033,-2.47775 -1.07033,-4.74707c0,-3.38707 2.78469,-6.13285 6.21977,-6.13285c3.43508,0 6.21976,2.74578 6.21976,6.13285z" data-paper-data="{&quot;origPos&quot;:null}" fill="#ffffff" stroke="#a4a4a4" stroke-width="1" stroke-linecap="butt"/><path d="M238.02337,125.69473l1.71344,-5.34246l2.02498,3.56164l1.55767,-3.72353l2.3365,5.01868" data-paper-data="{&quot;origPos&quot;:null}" fill="none" stroke="#ba0000" stroke-width="1" stroke-linecap="round"/><path d="M228.71175,142.86412c0,0 3.51435,-0.56784 4.22549,-0.44572c1.27172,0.21838 3.47173,1.77246 3.47173,1.77246" data-paper-data="{&quot;origPos&quot;:null,&quot;origRot&quot;:0}" fill="none" stroke="#351c06" stroke-width="2.5" stroke-linecap="round"/><path d="M249.02231,144.64169c0,0 1.82422,-1.28863 2.87872,-1.46971c0.58967,-0.10126 3.50373,0.36959 3.50373,0.36959" data-paper-data="{&quot;origPos&quot;:null,&quot;origRot&quot;:0,&quot;index&quot;:null}" fill="none" stroke="#351c06" stroke-width="2.5" stroke-linecap="round"/><path d="M237.05336,161.70266c0,-4.43358 6.19074,-1.82086 10.4035,-2.04422c1.85795,-0.09852 5.59794,-0.08157 5.59794,-0.08157c2.23236,0 8.40008,-5.7504 10.56518,-5.18914c4.40046,1.14072 -0.5038,5.25226 -2.50601,8.38529c-0.63245,0.98966 -2.2245,3.23178 -3.25007,3.76589c-1.96118,1.02135 -2.66358,-1.10132 -4.82742,-0.71024c-1.58457,0.28639 -1.56792,1.76096 -3.17663,1.76096c-1.47697,0 -1.54223,-1.83134 -3.01688,-1.74597c-2.12431,0.12295 -3.01482,2.26407 -5.14035,2.16621c-1.92584,-0.08865 -3.29792,-1.13063 -3.51269,-3.10762c-0.10113,-0.9309 -1.13658,-2.26286 -1.13658,-3.19959z" data-paper-data="{&quot;origPos&quot;:null,&quot;index&quot;:null}" fill="#5a3413" stroke="#351c06" stroke-width="1" stroke-linecap="butt"/><path d="M253.94606,156.17221c0,4.61431 -5.36707,8.35495 -11.98769,8.35495c-6.62061,0 -11.98769,-3.74063 -11.98769,-8.35495c0,-4.61431 5.36707,-8.35495 11.98769,-8.35495c6.62061,0 11.98769,3.74063 11.98769,8.35495z" data-paper-data="{&quot;origPos&quot;:null}" fill="url(#color-11)" stroke="#e0ce98" stroke-width="1.5" stroke-linecap="butt"/><path d="M248.5723,168.61116c0,0.2178 -1.25999,3.16019 -3.04906,3.87118c-1.78907,0.71098 -4.32608,0.92489 -6.90419,0.08427c-2.57811,-0.84061 -3.17686,-1.69128 -3.17686,-3.37128c0,-1.28117 5.01632,0.03915 6.44822,0.03915c1.4319,0 6.68189,-1.90449 6.68189,-0.62332z" data-paper-data="{&quot;origPos&quot;:null}" fill="#050201" stroke="#050201" stroke-width="0.5" stroke-linecap="butt"/><path d="M223.03355,184.06278c-3.43365,0.92378 -7.99131,-5.78025 -10.17981,-14.97386c-2.18847,-9.19365 -1.17908,-17.39542 2.25458,-18.31918c3.43365,-0.92378 7.99131,5.78025 10.17981,14.97386c2.18847,9.19365 1.17908,17.39542 -2.25458,18.31918z" data-paper-data="{&quot;origRot&quot;:0,&quot;origPos&quot;:null}" fill="url(#color-12)" stroke="#940000" stroke-width="1.5" stroke-linecap="butt"/><path d="M205.73207,146.685c0.61424,-1.98658 2.19881,-1.0327 2.96416,-2.9661c0.46859,-1.18372 0.61796,-9.26631 0.61796,-9.26631l2.55784,-0.4679l2.68298,8.23946c0,0 1.42219,0.5738 2.67804,0.54095c0.00584,-0.00015 3.18208,-8.28452 3.18208,-8.28452l2.14715,0.50495c0,0 0.27324,7.54109 0.6009,10.10549c0.12846,1.00537 2.03218,1.31049 2.13342,2.31896c0.48593,4.84022 0.08979,6.78345 -3.86871,9.61085c-4.71824,3.37006 -11.21679,2.55359 -14.51491,-1.82364c0,0 -2.70344,-3.58799 -1.18091,-8.51218z" data-paper-data="{&quot;origPos&quot;:null,&quot;origRot&quot;:0}" fill="#ffffff" stroke="#bfbfbf" stroke-width="1.5" stroke-linecap="butt"/><path d="M243.74223,172.27984c0,0.59061 -0.90804,1.06939 -2.02815,1.06939c-1.12012,0 -2.02815,-0.47878 -2.02815,-1.06939c0,-0.59061 0.90804,-1.06939 2.02815,-1.06939c1.12012,0 2.02815,0.47878 2.02815,1.06939z" data-paper-data="{&quot;origPos&quot;:null}" fill="#ff0000" stroke="none" stroke-width="0" stroke-linecap="butt"/></g></g></svg>