<svg version="1.1" xmlns="http://www.w3.org/2000/svg" xmlns:xlink="http://www.w3.org/1999/xlink" width="354.70811" height="142" viewBox="0,0,354.70811,142"><defs><radialGradient cx="83.13423" cy="268.8125" r="71" gradientUnits="userSpaceOnUse" id="color-1"><stop offset="0" stop-color="#00ff4c"/><stop offset="1" stop-color="#48983d"/></radialGradient><radialGradient cx="113.57312" cy="237.43491" r="9.45266" gradientUnits="userSpaceOnUse" id="color-2"><stop offset="0" stop-color="#ff5858"/><stop offset="1" stop-color="#f73434"/></radialGradient><radialGradient cx="113.57312" cy="233.8639" r="4.83136" gradientUnits="userSpaceOnUse" id="color-3"><stop offset="0" stop-color="#f78934"/><stop offset="1" stop-color="#f78934" stop-opacity="0"/></radialGradient></defs><g transform="translate(-12.13423,-197.8125)"><g data-paper-data="{&quot;isPaintingLayer&quot;:true}" fill-rule="nonzero" stroke="none" stroke-linecap="butt" stroke-linejoin="miter" stroke-miterlimit="10" stroke-dasharray="" stroke-dashoffset="0" style="mix-blend-mode: normal"><path d="M12.13423,268.8125c0,-39.21222 31.78778,-71 71,-71c39.21222,0 71,31.78778 71,71c0,39.21222 -31.78778,71 -71,71c-39.21222,0 -71,-31.78778 -71,-71z" fill="url(#color-1)" stroke-width="0"/><path d="M93.40928,227.90589c0.02027,-0.44325 0.26216,-3.08823 3.14903,-3.08823c3.15089,0 3.15089,3.15089 3.15089,3.15089l-0.47894,2.51021c-3.66319,5.86067 -6.98837,11.84271 -9.88971,18.12652c-0.85103,1.8432 -2.45117,7.94698 -5.62031,8.50274c-2.77734,0.48705 -7.66014,-4.32146 -8.93708,-5.73175c-2.11869,-2.33997 -3.32561,-5.37905 -4.70533,-8.21819c-2.88523,-5.93715 -4.38864,-11.5712 -4.39822,-18.13034c0,0 0,-3.15089 3.15089,-3.15089c3.15089,0 3.15089,3.15089 3.15089,3.15089c-0.01296,7.82806 2.99068,13.92888 6.77967,20.67574c0.31698,0.56442 0.48515,1.2313 0.92152,1.70945c0.52015,0.56997 1.61319,1.31847 2.36766,1.99502c0.43543,-1.1706 1.03811,-2.28926 1.56016,-3.42522c0.89226,-1.94153 1.90942,-3.82319 2.86507,-5.73432c2.13841,-4.27644 4.43035,-8.29764 6.93381,-12.34251z" fill="#13ae37" stroke-width="0.5"/><path d="M53.49804,257.31418c0.02027,-0.44326 0.26217,-3.08823 3.14903,-3.08823c3.15089,0 3.15089,3.15089 3.15089,3.15089l-0.47894,2.51021c-3.66319,5.86067 -6.98837,11.84271 -9.88971,18.12652c-0.85104,1.8432 -2.45117,7.94697 -5.62032,8.50274c-2.77733,0.48705 -7.66015,-4.32146 -8.93708,-5.73176c-2.11869,-2.33998 -3.32561,-5.37905 -4.70532,-8.21819c-2.88522,-5.93715 -4.38863,-11.57121 -4.39822,-18.13035c0,0 0,-3.15089 3.15089,-3.15089c3.15089,0 3.15089,3.15089 3.15089,3.15089c-0.01296,7.82806 2.99067,13.92888 6.77967,20.67574c0.31698,0.56442 0.48516,1.2313 0.92152,1.70945c0.52015,0.56997 1.61319,1.31847 2.36766,1.99502c0.43544,-1.1706 1.0381,-2.28926 1.56016,-3.42522c0.89226,-1.94153 1.90942,-3.82319 2.86507,-5.73433c2.13842,-4.27644 4.43034,-8.29763 6.93381,-12.3425z" fill="#13ae37" stroke-width="0.5"/><path d="M124.49805,262.3556c0.02027,-0.44326 0.26217,-3.08823 3.14903,-3.08823c3.15089,0 3.15089,3.15089 3.15089,3.15089l-0.47894,2.51021c-3.66318,5.86066 -6.98837,11.84271 -9.88971,18.12652c-0.85104,1.8432 -2.45117,7.94697 -5.62031,8.50274c-2.77733,0.48705 -7.66014,-4.32146 -8.93708,-5.73176c-2.11869,-2.33998 -3.32561,-5.37905 -4.70533,-8.21819c-2.88522,-5.93715 -4.38864,-11.57121 -4.39822,-18.13035c0,0 0,-3.15089 3.15089,-3.15089c3.15089,0 3.15089,3.15089 3.15089,3.15089c-0.01296,7.82806 2.99068,13.92888 6.77967,20.67575c0.31698,0.56442 0.48515,1.2313 0.92152,1.70945c0.52015,0.56997 1.61319,1.31846 2.36766,1.99502c0.43544,-1.1706 1.03811,-2.28926 1.56016,-3.42522c0.89226,-1.94153 1.90942,-3.82319 2.86507,-5.73432c2.13842,-4.27644 4.43035,-8.29764 6.93381,-12.34251z" fill="#13ae37" stroke-width="0.5"/><path d="M104.12045,237.43491c0,-5.22056 4.2321,-9.45266 9.45266,-9.45266c5.22056,0 9.45266,4.2321 9.45266,9.45266c0,5.22056 -4.2321,9.45266 -9.45266,9.45266c-5.22056,0 -9.45266,-4.2321 -9.45266,-9.45266z" fill="url(#color-2)" stroke-width="0"/><path d="M108.74176,233.8639c0,-2.66829 2.16307,-4.83136 4.83136,-4.83136c2.66829,0 4.83136,2.16307 4.83136,4.83136c0,2.66829 -2.16307,4.83136 -4.83136,4.83136c-2.66829,0 -4.83136,-2.16307 -4.83136,-4.83136z" fill="url(#color-3)" stroke-width="0"/><path d="M118.12305,217.63189c0.5826,0.8739 -0.2913,1.4565 -0.2913,1.4565l-0.41533,0.22975c-3.05676,3.53562 -3.10809,8.4861 -3.10809,12.97032c0,0 0,1.0503 -1.0503,1.0503c-1.0503,0 -1.0503,-1.0503 -1.0503,-1.0503c0,-5.04944 0.21691,-10.34422 3.6138,-14.33737l0.84503,-0.61049c0,0 0.8739,-0.5826 1.4565,0.2913z" fill="#13ae37" stroke-width="0.5"/><path d="M157.7163,280.30985c0,11.91307 -5.91461,14.13953 -13.21065,14.13953c-7.29604,0 -13.21065,-2.22646 -13.21065,-14.13953c0,-11.91307 5.91461,-21.57053 13.21065,-21.57053c7.29604,0 13.21065,9.65745 13.21065,21.57053z" fill="#fff6bc" stroke-width="0"/><path d="M144.55724,289.75341c0,-4.56003 4.62551,-7.63742 9.18553,-7.63742c2.30584,0 3.72152,2.88215 3.72152,2.88215c0,0 -0.36116,2.35959 -2.9044,5.82066c-2.44267,3.3242 -7.52765,3.5219 -7.52765,3.5219c0,0 -2.47501,-1.79529 -2.47501,-4.58729z" fill="#ffdd00" stroke-width="0"/><path d="M132.6449,271.47773c0,0 1.39739,-0.40501 2.15916,-0.40501c3.27752,0 5.93447,2.65695 5.93447,5.93447c0,3.27752 -2.65695,5.93447 -5.93447,5.93447c-1.37017,0 -3.32673,-1.03784 -3.32673,-1.03784c0,0 -0.61919,-2.09237 -0.3224,-5.52061c0.32799,-3.78874 1.48997,-4.9055 1.48997,-4.9055z" fill="#ffdd00" stroke-width="0"/><path d="M144.14441,266.42834c0,-3.02688 4.98307,-6.15867 4.98307,-6.15867c0,0 2.34401,0.85824 4.11773,3.35819c1.72022,2.42453 2.73908,5.786 2.73908,5.786c0,0 -3.14748,3.31017 -5.54417,3.31017c-3.47703,0 -6.2957,-2.81868 -6.2957,-6.2957z" fill="#ffdd00" stroke-width="0"/><path d="M366.84235,257.2981c0,31.61696 -15.69722,37.5259 -35.06071,37.5259c-19.36349,0 -35.0607,-5.90895 -35.0607,-37.5259c0,-31.61696 15.69721,-57.24757 35.0607,-57.24757c19.36349,0 35.06071,25.63062 35.06071,57.24757z" fill="#99a6ff" stroke-width="0"/><path d="M331.9186,282.36102c0,-12.10218 12.27596,-20.26947 24.37814,-20.26947c6.11964,0 9.8768,7.64912 9.8768,7.64912c0,0 0.41666,7.63747 -6.33302,16.82302c-6.48277,8.82233 -21.35333,7.97186 -21.35333,7.97186c0,0 -6.5686,-4.76465 -6.5686,-12.17453z" fill="#0021ff" stroke-width="0"/><path d="M300.3036,233.85789c0,0 3.70864,-1.07489 5.73033,-1.07489c8.69844,0 15.74993,7.05148 15.74993,15.74992c0,8.69844 -7.05149,15.74993 -15.74993,15.74993c-3.63638,0 -8.82904,-2.75438 -8.82904,-2.75438c0,0 -1.6433,-5.55312 -0.85564,-14.65153c0.87049,-10.05522 3.95435,-13.01904 3.95435,-13.01904z" fill="#0021ff" stroke-width="0"/><path d="M330.82295,220.45697c0,-8.03325 13.2249,-16.34492 13.2249,-16.34492c0,0 6.22093,2.27776 10.92835,8.91255c4.5654,6.43464 7.26944,15.35588 7.26944,15.35588c0,0 -8.35332,8.78511 -14.71407,8.78511c-9.22792,0 -16.70862,-7.4807 -16.70862,-16.70862z" fill="#0021ff" stroke-width="0"/><path d="M327.96675,268.527c0,20.99756 -10.42489,24.92184 -23.28465,24.92184c-12.85975,0 -23.28464,-3.92427 -23.28464,-24.92184c0,-20.99756 10.42488,-38.01946 23.28464,-38.01946c12.85975,0 23.28465,17.0219 23.28465,38.01946z" fill="#ff9898" stroke-width="0"/><path d="M304.77307,285.17188c0,-8.03734 8.15275,-13.46143 16.1901,-13.46143c4.06419,0 6.55942,5.07996 6.55942,5.07996c0,0 -0.63657,4.15895 -5.11919,10.25929c-4.30536,5.85912 -13.26797,6.20758 -13.26797,6.20758c0,0 -4.36236,-3.16432 -4.36236,-8.08539z" fill="#ff0000" stroke-width="0"/><path d="M283.7768,252.9598c0,0 2.463,-0.71386 3.80565,-0.71386c5.77684,0 10.4599,4.68305 10.4599,10.4599c0,5.77684 -4.68305,10.4599 -10.4599,10.4599c-2.41501,0 -5.86357,-1.82925 -5.86357,-1.82925c0,0 -1.09135,-3.68795 -0.56825,-9.73043c0.57811,-6.67791 2.62618,-8.64625 2.62618,-8.64625z" fill="#ff0000" stroke-width="0"/><path d="M304.04542,244.05993c0,-5.33507 8.78297,-10.85505 8.78297,-10.85505c0,0 4.13146,1.51272 7.25777,5.91903c3.03199,4.2734 4.82781,10.1982 4.82781,10.1982c0,0 -5.54764,5.8344 -9.77196,5.8344c-6.12847,0 -11.09658,-4.96811 -11.09658,-11.09658z" fill="#ff0000" stroke-width="0"/></g></g></svg>