<svg version="1.1" xmlns="http://www.w3.org/2000/svg" xmlns:xlink="http://www.w3.org/1999/xlink" width="277.11505" height="155.70275" viewBox="0,0,277.11505,155.70275"><defs><linearGradient x1="354.8291" y1="174.53747" x2="354.8291" y2="197.8564" gradientUnits="userSpaceOnUse" id="color-1"><stop offset="0" stop-color="#d21515"/><stop offset="1" stop-color="#940000"/></linearGradient><linearGradient x1="343.77043" y1="216.55539" x2="343.77043" y2="251.52532" gradientUnits="userSpaceOnUse" id="color-2"><stop offset="0" stop-color="#364ec7"/><stop offset="1" stop-color="#001371"/></linearGradient><linearGradient x1="351.49836" y1="243.46487" x2="351.49836" y2="258.37333" gradientUnits="userSpaceOnUse" id="color-3"><stop offset="0" stop-color="#a6680a"/><stop offset="1" stop-color="#6c4306"/></linearGradient><linearGradient x1="330.57517" y1="165.96001" x2="330.57517" y2="223.9837" gradientUnits="userSpaceOnUse" id="color-4"><stop offset="0" stop-color="#364ec7"/><stop offset="1" stop-color="#001371"/></linearGradient><linearGradient x1="332.16483" y1="171.1677" x2="332.16483" y2="191.28173" gradientUnits="userSpaceOnUse" id="color-5"><stop offset="0" stop-color="#d21515"/><stop offset="1" stop-color="#940000"/></linearGradient><linearGradient x1="330.51095" y1="129.2204" x2="330.51095" y2="178.82721" gradientUnits="userSpaceOnUse" id="color-6"><stop offset="0" stop-color="#ffefc0"/><stop offset="1" stop-color="#e0ce98"/></linearGradient><linearGradient x1="330.63481" y1="110.66052" x2="330.63481" y2="143.89625" gradientUnits="userSpaceOnUse" id="color-7"><stop offset="0" stop-color="#d21515"/><stop offset="1" stop-color="#940000"/></linearGradient><linearGradient x1="348.2489" y1="130.64915" x2="348.2489" y2="138.16041" gradientUnits="userSpaceOnUse" id="color-8"><stop offset="0" stop-color="#d21515"/><stop offset="1" stop-color="#940000"/></linearGradient><linearGradient x1="356.99924" y1="151.34645" x2="356.99924" y2="167.72433" gradientUnits="userSpaceOnUse" id="color-9"><stop offset="0" stop-color="#ffefc0"/><stop offset="1" stop-color="#e0ce98"/></linearGradient><linearGradient x1="307.75291" y1="143.83398" x2="307.75291" y2="154.91333" gradientUnits="userSpaceOnUse" id="color-10"><stop offset="0" stop-color="#ffefc0"/><stop offset="1" stop-color="#e0ce98"/></linearGradient><linearGradient x1="315.21568" y1="214.19118" x2="315.21568" y2="249.14206" gradientUnits="userSpaceOnUse" id="color-11"><stop offset="0" stop-color="#364ec7"/><stop offset="1" stop-color="#001371"/></linearGradient><linearGradient x1="313.10835" y1="242.71909" x2="313.10835" y2="258.6467" gradientUnits="userSpaceOnUse" id="color-12"><stop offset="0" stop-color="#a6680a"/><stop offset="1" stop-color="#6c4306"/></linearGradient><linearGradient x1="303.82906" y1="175.65495" x2="303.82906" y2="197.87406" gradientUnits="userSpaceOnUse" id="color-13"><stop offset="0" stop-color="#d21515"/><stop offset="1" stop-color="#940000"/></linearGradient><linearGradient x1="160.77596" y1="214.76199" x2="170.55241" y2="249.04995" gradientUnits="userSpaceOnUse" id="color-14"><stop offset="0" stop-color="#364ec7"/><stop offset="1" stop-color="#001371"/></linearGradient><linearGradient x1="172.16558" y1="241.87803" x2="175.8587" y2="254.83056" gradientUnits="userSpaceOnUse" id="color-15"><stop offset="0" stop-color="#a6680a"/><stop offset="1" stop-color="#6c4205"/></linearGradient><linearGradient x1="167.4382" y1="168.87021" x2="176.05875" y2="197.607" gradientUnits="userSpaceOnUse" id="color-16"><stop offset="0" stop-color="#20de16"/><stop offset="1" stop-color="#158e0e"/></linearGradient><linearGradient x1="151.0723" y1="163.50771" x2="151.0723" y2="221.91733" gradientUnits="userSpaceOnUse" id="color-17"><stop offset="0" stop-color="#364ec7"/><stop offset="1" stop-color="#001371"/></linearGradient><linearGradient x1="152.51259" y1="167.68938" x2="152.51259" y2="188.34112" gradientUnits="userSpaceOnUse" id="color-18"><stop offset="0" stop-color="#20de16"/><stop offset="1" stop-color="#158e0e"/></linearGradient><linearGradient x1="141.88861" y1="213.05599" x2="132.75039" y2="247.22574" gradientUnits="userSpaceOnUse" id="color-19"><stop offset="0" stop-color="#364ec7"/><stop offset="1" stop-color="#001371"/></linearGradient><linearGradient x1="134.12885" y1="242.37813" x2="130.74766" y2="255.0211" gradientUnits="userSpaceOnUse" id="color-20"><stop offset="0" stop-color="#a6680a"/><stop offset="1" stop-color="#6c4205"/></linearGradient><linearGradient x1="132.12111" y1="167.80784" x2="127.14721" y2="195.68646" gradientUnits="userSpaceOnUse" id="color-21"><stop offset="0" stop-color="#20de16"/><stop offset="1" stop-color="#158e0e"/></linearGradient><linearGradient x1="152.3245" y1="120.64617" x2="152.3245" y2="173.0217" gradientUnits="userSpaceOnUse" id="color-22"><stop offset="0" stop-color="#ffefc0"/><stop offset="1" stop-color="#e0ce98"/></linearGradient><linearGradient x1="151.28018" y1="104.00884" x2="151.28018" y2="135.98956" gradientUnits="userSpaceOnUse" id="color-23"><stop offset="0" stop-color="#20de16"/><stop offset="1" stop-color="#158e0e"/></linearGradient><linearGradient x1="165.24264" y1="122.95968" x2="165.24264" y2="130.81259" gradientUnits="userSpaceOnUse" id="color-24"><stop offset="0" stop-color="#20de16"/><stop offset="1" stop-color="#158e0e"/></linearGradient><linearGradient x1="175.78201" y1="143.77863" x2="175.78201" y2="161.15763" gradientUnits="userSpaceOnUse" id="color-25"><stop offset="0" stop-color="#ffefc0"/><stop offset="1" stop-color="#e0ce98"/></linearGradient></defs><g transform="translate(-103.63898,-103.50884)"><g data-paper-data="{&quot;isPaintingLayer&quot;:true}" fill-rule="nonzero" stroke-linejoin="miter" stroke-miterlimit="10" stroke-dasharray="" stroke-dashoffset="0" style="mix-blend-mode: normal"><path d="" data-paper-data="{&quot;origPos&quot;:null}" fill="#c1770b" stroke="#6c4306" stroke-width="1.5" stroke-linecap="butt"/><g data-paper-data="{&quot;origPos&quot;:null,&quot;origRot&quot;:0}" stroke-width="1.5" stroke-linecap="butt"><path d="M341.05762,175.65629c2.19016,-2.74891 10.13136,-0.25813 17.73713,5.56331c7.60578,5.82144 11.99599,12.76906 9.80582,15.51798c-2.19018,2.74891 -10.13137,0.25815 -17.73713,-5.5633c-7.60578,-5.82144 -11.996,-12.76908 -9.80581,-15.51799z" data-paper-data="{&quot;origRot&quot;:0,&quot;origPos&quot;:null,&quot;index&quot;:null}" fill="url(#color-1)" stroke="#940000"/><path d="M367.79124,189.25852c5.47188,-1.20877 10.93974,2.29929 12.21279,7.83545c1.27305,5.53616 -2.13077,11.00401 -7.60266,12.21277c-5.47186,1.20876 -10.93974,-2.29929 -12.21279,-7.83545c-1.27305,-5.53616 2.13078,-11.00401 7.60266,-12.21277z" data-paper-data="{&quot;origPos&quot;:null,&quot;index&quot;:null}" fill="#ffffff" stroke="#bfbfbf"/></g><g data-paper-data="{&quot;origPos&quot;:null,&quot;origRot&quot;:0}" stroke-width="1.5" stroke-linecap="butt"><path d="M353.20544,230.01547c1.06728,3.26352 1.39999,9.29161 1.63181,12.71108c0.33339,4.91773 -1.35201,6.02698 -6.28676,7.54096c-4.95675,1.52074 -6.33043,2.40289 -8.98456,-1.82744c-1.82554,-2.90968 -1.20054,-10.30368 -2.26097,-13.54628c-3.13142,-9.57532 -7.10693,-15.56694 -2.6493,-16.93456c0,0 7.30438,-1.65048 9.06842,-0.326c0,0 2.88472,-2.47808 4.69678,0.08073c1.82459,2.57654 1.65317,2.72617 4.78458,12.30149z" data-paper-data="{&quot;origPos&quot;:null,&quot;origRot&quot;:0}" fill="url(#color-2)" stroke="#001371"/><path d="M359.52908,245.58742c5.46423,2.17024 4.10277,6.32697 1.95512,8.31368c-2.60064,2.40577 -11.84969,5.04067 -17.16468,4.36457c-5.31498,-0.6761 -3.75072,-2.134 -4.32786,-3.81321c-1.28321,-3.73345 0.74557,-7.66052 7.93427,-9.76981c7.1887,-2.1093 6.13894,-1.26548 11.60316,0.90477z" data-paper-data="{&quot;origPos&quot;:null,&quot;origRot&quot;:0}" fill="url(#color-3)" stroke="#6c4306"/></g><g data-paper-data="{&quot;origPos&quot;:null}" stroke-linecap="butt"><path d="M349.4692,195.63318c0,9.07966 2.84091,17.87599 -2.69239,24.81465c-3.54659,4.44737 -10.70286,3.43733 -16.20164,3.43733c-5.49877,0 -12.65505,0.723 -16.20165,-3.72435c-5.5333,-6.93867 -2.69238,-15.44798 -2.69238,-24.52762c0,-15.60314 8.45914,-28.25198 18.89403,-28.25198c0,0 11.73737,-4.31332 15.22571,2.0887c3.4719,6.37185 3.66832,10.56013 3.66832,26.16327z" data-paper-data="{&quot;origPos&quot;:null}" fill="url(#color-4)" stroke="#001371" stroke-width="1.5"/><path d="M339.55212,179.6339c0,2.63515 1.31009,6.98506 -0.34219,8.79992c-1.7848,1.96041 -3.67346,2.86183 -6.1351,2.84775c-2.72608,-0.0156 -4.60612,-0.98226 -6.88148,-2.71844c-2.33853,-1.78438 -1.87025,-5.68944 -1.87025,-8.92923c0,-4.67575 3.40914,-8.4662 7.61452,-8.4662c4.20537,0 7.61451,3.79046 7.61451,8.4662z" data-paper-data="{&quot;origPos&quot;:null}" fill="url(#color-5)" stroke="none" stroke-width="0"/><path d="M324.91458,187.62739c0,2.18927 -1.96162,3.96404 -4.38142,3.96404c-2.4198,0 -4.38143,-1.77476 -4.38143,-3.96404c0,-2.18927 1.96163,-3.96403 4.38143,-3.96403c2.4198,0 4.38142,1.77476 4.38142,3.96403z" data-paper-data="{&quot;origPos&quot;:null}" fill="#faff66" stroke="none" stroke-width="1.5"/><path d="M348.41589,187.0837c0,2.13535 -1.9133,3.86639 -4.2735,3.86639c-2.36019,0 -4.2735,-1.73103 -4.2735,-3.86639c0,-2.13535 1.91331,-3.86639 4.2735,-3.86639c2.36019,0 4.2735,1.73103 4.2735,3.86639z" data-paper-data="{&quot;origPos&quot;:null}" fill="#faff66" stroke="none" stroke-width="1.5"/></g><g data-paper-data="{&quot;origPos&quot;:null}"><path d="M360.6324,155.08528c0,13.1123 -13.73475,23.74193 -28.56379,23.74193c-14.82904,0 -31.67913,-10.7883 -31.67913,-23.9006c0,-4.74578 0.68944,-16.70287 3.19789,-20.702c5.78078,-9.21608 17.74496,-2.88126 28.48124,-2.88126c0,0 17.47791,-3.98963 23.38966,4.77671c2.80538,4.16 5.17415,5.85292 5.17415,18.96522z" data-paper-data="{&quot;origPos&quot;:null}" fill="url(#color-6)" stroke="#e0ce98" stroke-width="1" stroke-linecap="butt"/><path d="M358.50909,128.49858c8.09723,13.94486 -29.33424,10.61696 -31.98263,12.44425c-2.60107,1.79464 -0.81879,7.28081 -3.96033,7.28081c-4.40313,0 -9.25612,0.69998 -10.46658,5.01252c-0.70052,2.49579 2.60132,7.35144 0.13667,8.01076c-2.42796,0.64951 -4.70501,2.5992 -7.21096,2.74921c-2.03236,0.12165 -2.35905,-1.85843 -4.39469,-1.8893c-5.79716,-0.08794 0.78824,-11.72878 0.9253,-12.33925c0.04568,-0.20348 -1.20602,-4.36064 -1.20602,-6.37997c0,-10.95231 10.77902,-16.7764 17.8548,-16.7764c7.07578,0 32.2072,-12.05749 40.30444,1.88737z" data-paper-data="{&quot;origPos&quot;:null}" fill="#5a3413" stroke="#351c06" stroke-width="1" stroke-linecap="butt"/><path d="M357.91427,167.2893c0,0.91812 -1.03545,2.22361 -1.13658,3.13602c-0.21477,1.93771 -1.58685,2.95898 -3.51269,3.04587c-2.12553,0.09592 -3.01604,-2.00266 -5.14035,-2.12317c-1.47465,-0.08367 -1.53991,1.71128 -3.01688,1.71128c-1.60871,0 -1.59206,-1.44527 -3.17663,-1.72597c-2.16384,-0.38331 -2.86624,1.69718 -4.82742,0.69613c-1.02557,-0.5235 -2.61762,-2.72107 -3.25007,-3.69106c-2.00221,-3.07078 -6.90647,-7.10062 -2.50601,-8.21868c2.1651,-0.55011 8.33282,5.08604 10.56518,5.08604c0,0 3.73999,-0.01661 5.59794,0.07995c4.21276,0.21892 10.4035,-2.34188 10.4035,2.0036z" data-paper-data="{&quot;origPos&quot;:null}" fill="#5a3413" stroke="#351c06" stroke-width="1" stroke-linecap="butt"/><path d="M361.87853,130.91766c0,10.02292 -12.29169,3.85336 -29.30368,3.85336c-4.11857,0 -9.56963,8.26548 -13.688,8.22898c-5.83861,-0.05173 -13.19319,2.49399 -17.80513,-0.77178c-3.25572,-2.30542 -0.80907,-7.55142 -0.80907,-11.31057c0,-8.4926 9.69318,-8.61532 18.09413,-12.27906c6.1066,-2.66314 5.93994,-7.36068 12.70881,-7.36068c0,0 13.85643,-1.84157 21.91934,0.83637c9.12834,3.03179 8.8836,8.78045 8.8836,18.80337z" data-paper-data="{&quot;origPos&quot;:null}" fill="url(#color-7)" stroke="#940000" stroke-width="1" stroke-linecap="butt"/><path d="M372.37333,136.61934c0,3.29725 -10.25569,0.27768 -23.57925,0.27768c-13.32355,0 -24.66962,3.01957 -24.66962,-0.27768c0,-3.29725 10.80087,-5.97019 24.12443,-5.97019c13.32355,0 24.12443,2.67294 24.12443,5.97019z" data-paper-data="{&quot;origPos&quot;:null}" fill="url(#color-8)" stroke="#940000" stroke-width="1" stroke-linecap="butt"/><path d="M356.48394,124.71976c0,2.03188 0.30737,3.43377 -1.23203,4.72582c-1.32872,1.11522 -8.88182,0.82293 -10.13715,-0.07307c-1.7882,-1.27634 -1.07033,-2.42852 -1.07033,-4.65275c0,-3.31977 2.78469,-6.01099 6.21977,-6.01099c3.43508,0 6.21976,2.69122 6.21976,6.01099z" data-paper-data="{&quot;origPos&quot;:null}" fill="#ffffff" stroke="#a4a4a4" stroke-width="1" stroke-linecap="butt"/><path d="M348.88145,149.05752c0,3.92051 -2.08558,7.09872 -4.65827,7.09872c-2.57269,0 -4.65827,-3.17821 -4.65827,-7.09872c0,-3.92051 2.08558,-7.09873 4.65827,-7.09873c2.57269,0 4.65827,3.17821 4.65827,7.09873z" data-paper-data="{&quot;origPos&quot;:null}" fill="#ffffff" stroke="none" stroke-width="0" stroke-linecap="butt"/><path d="M346.59388,127.55496l1.71344,-5.23631l2.02498,3.49087l1.55767,-3.64955l2.3365,4.91896" data-paper-data="{&quot;origPos&quot;:null}" fill="none" stroke="#ba0000" stroke-width="1" stroke-linecap="round"/><path d="M340.53295,141.25805c0,0 3.51435,-0.55656 4.22549,-0.43686c1.27172,0.21404 3.47173,1.73724 3.47173,1.73724" data-paper-data="{&quot;origPos&quot;:null,&quot;origRot&quot;:0}" fill="none" stroke="#351c06" stroke-width="1.5" stroke-linecap="round"/><path d="M348.90994,148.75252c0,2.60187 -1.3841,4.7111 -3.09148,4.7111c-1.70738,0 -3.09148,-2.10924 -3.09148,-4.7111c0,-2.60187 1.38411,-4.7111 3.09148,-4.7111c1.70738,0 3.09148,2.10924 3.09148,4.7111z" data-paper-data="{&quot;origPos&quot;:null}" fill="#1121d4" stroke="none" stroke-width="0" stroke-linecap="butt"/><path d="M348.97722,148.6157c0,1.34544 -0.71572,2.43611 -1.59861,2.43611c-0.8829,0 -1.59861,-1.09069 -1.59861,-2.43611c0,-1.34544 0.71573,-2.43611 1.59861,-2.43611c0.8829,0 1.59861,1.09069 1.59861,2.43611z" data-paper-data="{&quot;origPos&quot;:null}" fill="#000000" stroke="none" stroke-width="0" stroke-linecap="butt"/><path d="M355.16295,141.34392c2.13325,0 3.8626,2.63533 3.8626,5.88617c0,3.25085 -1.72934,5.88617 -3.8626,5.88617c-2.13325,0 -3.8626,-2.63533 -3.8626,-5.88617c0,-3.25085 1.72934,-5.88617 3.8626,-5.88617z" data-paper-data="{&quot;origPos&quot;:null,&quot;index&quot;:null}" fill="#ffffff" stroke="none" stroke-width="0" stroke-linecap="butt"/><path d="M352.17604,141.74971c0,0 1.82422,-1.26303 2.87872,-1.44051c0.58967,-0.09925 3.50373,0.36225 3.50373,0.36225" data-paper-data="{&quot;origPos&quot;:null,&quot;origRot&quot;:0,&quot;index&quot;:null}" fill="none" stroke="#351c06" stroke-width="1.5" stroke-linecap="round"/><path d="M356.58257,143.18593c1.41573,0 2.56343,1.74895 2.56343,3.90638c0,2.15743 -1.14768,3.90638 -2.56343,3.90638c-1.41573,0 -2.56342,-1.74895 -2.56342,-3.90638c0,-2.15743 1.14768,-3.90638 2.56342,-3.90638z" data-paper-data="{&quot;origPos&quot;:null,&quot;index&quot;:null}" fill="#1121d4" stroke="none" stroke-width="0" stroke-linecap="butt"/><path d="M357.92058,145.07861c0.73209,0 1.32555,0.90439 1.32555,2.02c0,1.11562 -0.59347,2.02 -1.32555,2.02c-0.73209,0 -1.32554,-0.90439 -1.32554,-2.02c0,-1.11562 0.59347,-2.02 1.32554,-2.02z" data-paper-data="{&quot;origPos&quot;:null,&quot;index&quot;:null}" fill="#000000" stroke="none" stroke-width="0" stroke-linecap="butt"/><path d="M368.98693,159.53539c0,4.52263 -5.36707,8.18894 -11.98769,8.18894c-6.62061,0 -11.98769,-3.66631 -11.98769,-8.18894c0,-4.52263 5.36707,-8.18894 11.98769,-8.18894c6.62061,0 11.98769,3.66631 11.98769,8.18894z" data-paper-data="{&quot;origPos&quot;:null}" fill="url(#color-9)" stroke="#e0ce98" stroke-width="1.5" stroke-linecap="butt"/><path d="M314.73522,151.74456c-0.90455,2.76431 -4.76391,3.94375 -8.62013,2.63434c-3.85623,-1.30942 -6.24902,-4.61182 -5.34448,-7.37614c0.90455,-2.76431 4.76391,-3.94375 8.62013,-2.63434c3.85623,1.30942 6.24902,4.61182 5.34448,7.37614z" data-paper-data="{&quot;origRot&quot;:0,&quot;origPos&quot;:null}" fill="url(#color-10)" stroke="#e0ce98" stroke-width="1.5" stroke-linecap="butt"/></g><g data-paper-data="{&quot;origPos&quot;:null,&quot;origRot&quot;:0}" stroke-width="1.5" stroke-linecap="butt"><path d="M325.35337,233.6525c-0.77977,3.29188 -3.63454,8.56475 -5.21674,11.57704c-2.27544,4.33215 -4.30841,4.44164 -9.3571,3.29277c-5.0712,-1.15399 -6.71672,-1.08335 -6.80277,-5.97667c-0.05917,-3.36569 4.33421,-9.3242 5.10898,-12.59496c2.28788,-9.6585 1.97926,-16.69576 6.53982,-15.65797c0,0 7.16525,2.20102 7.99758,4.19293c2.39992,5.74334 4.0181,5.50835 1.73022,15.16686z" data-paper-data="{&quot;origPos&quot;:null}" fill="url(#color-11)" stroke="#001371"/><path d="M323.94412,249.94158c3.62333,4.72472 0.08948,7.80392 -2.92515,8.52c-3.6505,0.86712 -13.3169,-1.41414 -17.64494,-4.70967c-4.32803,-3.29552 -2.12622,-3.82694 -1.69679,-5.6398c0.95477,-4.03065 4.95093,-6.5649 12.49837,-4.84741c7.54744,1.71748 6.14518,1.95218 9.76851,6.6769z" data-paper-data="{&quot;origPos&quot;:null}" fill="url(#color-12)" stroke="#6c4306"/></g><g data-paper-data="{&quot;origPos&quot;:null,&quot;origRot&quot;:0}" stroke-width="1.5" stroke-linecap="butt"><path d="M307.51555,191.99524c-7.99299,5.41161 -16.12309,7.45675 -18.15907,4.5679c-2.03601,-2.88884 2.79311,-9.6177 10.78609,-15.02936c7.99299,-5.41161 16.12309,-7.45675 18.15907,-4.5679c2.03601,2.88884 -2.79311,9.6177 -10.78609,15.02936z" data-paper-data="{&quot;origRot&quot;:0,&quot;origPos&quot;:null}" fill="url(#color-13)" stroke="#940000"/><path d="M297.52598,201.80547c-1.61174,5.49018 -7.3173,8.70027 -12.74375,7.16991c-5.42644,-1.53035 -8.51886,-7.22161 -6.90712,-12.71179c1.61174,-5.49018 7.3173,-8.70027 12.74375,-7.16991c5.42644,1.53035 8.51886,7.22161 6.90712,12.71179z" data-paper-data="{&quot;origPos&quot;:null,&quot;origRot&quot;:0}" fill="#ffffff" stroke="#bfbfbf"/></g><path d="M172.07502,227.86555c1.28577,3.26897 2.35119,9.35505 2.98997,12.80616c0.91868,4.96322 -0.28111,6.13425 -4.02398,7.8096c-3.75956,1.68283 -4.74035,2.61508 -7.4225,-1.58514c-1.84482,-2.88897 -2.32602,-10.38432 -3.60355,-13.63233c-3.77251,-9.59129 -7.74427,-15.53393 -4.36329,-17.04732c0,0 5.61849,-1.88271 7.20391,-0.59495c0,0 1.9767,-2.59032 3.7642,-0.05575c1.79988,2.55211 1.68273,2.70844 5.45523,12.29973z" data-paper-data="{&quot;origPos&quot;:null,&quot;origRot&quot;:0}" fill="url(#color-14)" stroke="#001371" stroke-width="1.5" stroke-linecap="butt"/><path d="M180.62019,242.84494c5.00991,1.76098 4.24464,5.85409 2.56753,7.90155c-2.03086,2.47934 -9.86229,5.58458 -14.58786,5.25597c-4.72554,-0.3286 -3.50512,-1.83038 -4.18336,-3.41523c-1.50798,-3.52371 -0.13451,-7.43589 5.94607,-9.90859c6.08057,-2.47271 5.24772,-1.5947 10.25763,0.16628z" data-paper-data="{&quot;origPos&quot;:null,&quot;origRot&quot;:0}" fill="url(#color-15)" stroke="#6c4306" stroke-width="1.5" stroke-linecap="butt"/><path d="M159.02752,171.81857c1.97502,-2.68352 9.27149,0.25398 16.29708,6.56109c7.0256,6.30711 11.11989,13.59544 9.14485,16.27898c-1.97504,2.68353 -9.2715,-0.25397 -16.29708,-6.56108c-7.0256,-6.30711 -11.1199,-13.59547 -9.14484,-16.27898z" data-paper-data="{&quot;origRot&quot;:0,&quot;origPos&quot;:null,&quot;index&quot;:null}" fill="url(#color-16)" stroke="#158e0e" stroke-width="1.5" stroke-linecap="butt"/><path d="M168.19093,192.80889c0,9.32239 2.57396,18.35387 -2.43939,25.47804c-3.21333,4.56627 -9.69716,3.52922 -14.67924,3.52922c-4.98207,0 -11.4659,0.74234 -14.67924,-3.82391c-5.01335,-7.12416 -2.43939,-15.86095 -2.43939,-25.18332c0,-16.02026 7.66426,-29.25883 17.11863,-29.25883c0,0 9.72842,-0.90647 12.88897,5.6667c3.14566,6.54219 4.22966,7.57186 4.22966,23.59212z" data-paper-data="{&quot;origPos&quot;:null}" fill="url(#color-17)" stroke="#001371" stroke-width="1.5" stroke-linecap="butt"/><path d="M186.06234,186.3021c5.49914,-1.09821 10.91324,2.63856 12.09273,8.3463c1.17949,5.70776 -2.32226,11.22506 -7.8214,12.32329c-5.49912,1.0982 -10.91324,-2.63856 -12.09273,-8.3463c-1.17949,-5.70776 2.32227,-11.22507 7.8214,-12.32329z" data-paper-data="{&quot;origPos&quot;:null,&quot;index&quot;:null,&quot;origRot&quot;:0}" fill="#ffffff" stroke="#bfbfbf" stroke-width="1.5" stroke-linecap="butt"/><path d="M159.20572,176.3819c0,2.70559 1.18698,7.17179 -0.31003,9.03517c-1.61709,2.01282 -3.32827,2.93834 -5.5586,2.92388c-2.46992,-0.01602 -4.1733,-1.00852 -6.23486,-2.79111c-2.11879,-1.83208 -1.69451,-5.84154 -1.69451,-9.16793c0,-4.80075 3.0888,-8.69253 6.89902,-8.69253c3.8102,0 6.899,3.89179 6.899,8.69253z" data-paper-data="{&quot;origPos&quot;:null}" fill="url(#color-18)" stroke="none" stroke-width="0" stroke-linecap="butt"/><path d="M145.94361,184.58908c0,2.24779 -1.7773,4.07001 -3.96972,4.07001c-2.19242,0 -3.96972,-1.82221 -3.96972,-4.07001c0,-2.24779 1.7773,-4.07 3.96972,-4.07c2.19242,0 3.96972,1.82221 3.96972,4.07z" data-paper-data="{&quot;origPos&quot;:null}" fill="#faff66" stroke="none" stroke-width="1.5" stroke-linecap="butt"/><path d="M167.23659,184.03085c0,2.19244 -1.73351,3.96975 -3.87193,3.96975c-2.13841,0 -3.87194,-1.7773 -3.87194,-3.96975c0,-2.19244 1.73353,-3.96975 3.87194,-3.96975c2.13841,0 3.87193,1.7773 3.87193,3.96975z" data-paper-data="{&quot;origPos&quot;:null}" fill="#faff66" stroke="none" stroke-width="1.5" stroke-linecap="butt"/><path d="M144.90903,231.5876c-0.89702,3.35415 -3.66067,8.7569 -5.19926,11.84246c-2.21273,4.43753 -3.90096,4.58672 -7.98444,3.51589c-4.10169,-1.07561 -5.46679,-0.9731 -5.16225,-5.93565c0.20948,-3.41331 4.2971,-9.54046 5.18837,-12.8731c2.6319,-9.84122 2.91712,-16.97457 6.60579,-16.00727c0,0 5.7516,2.09853 6.28644,4.10368c1.54213,5.7815 2.89725,5.51276 0.26535,15.35399z" data-paper-data="{&quot;origPos&quot;:null,&quot;origRot&quot;:0}" fill="url(#color-19)" stroke="#001371" stroke-width="1.5" stroke-linecap="butt"/><path d="M140.85887,248.21199c2.68222,4.26645 -0.31707,7.02762 -2.7804,7.66255c-2.98291,0.76884 -10.65331,-1.31716 -13.97427,-4.29897c-3.32096,-2.98179 -1.52138,-3.45309 -1.08517,-5.08415c0.96983,-3.62641 4.31422,-5.89535 10.30639,-4.32398c5.99217,1.57136 4.85125,1.77809 7.53346,6.04455z" data-paper-data="{&quot;origPos&quot;:null,&quot;origRot&quot;:0}" fill="url(#color-20)" stroke="#6c4306" stroke-width="1.5" stroke-linecap="butt"/><path d="M133.76729,186.75389c-7.49314,6.26494 -15.41799,9.10209 -17.70065,6.33695c-2.28268,-2.76514 1.94126,-10.08547 9.43438,-16.35044c7.49314,-6.26494 15.41799,-9.10209 17.70065,-6.33695c2.28268,2.76514 -1.94126,10.08547 -9.43438,16.35044z" data-paper-data="{&quot;origRot&quot;:0,&quot;origPos&quot;:null}" fill="url(#color-21)" stroke="#158e0e" stroke-width="1.5" stroke-linecap="butt"/><path d="M124.66947,197.69748c-1.12541,5.75879 -6.53139,9.56366 -12.0746,8.4984c-5.54321,-1.06524 -9.12453,-6.59724 -7.99911,-12.35604c1.12541,-5.75879 6.53139,-9.56366 12.0746,-8.4984c5.54321,1.06524 9.12453,6.59724 7.99911,12.35604z" data-paper-data="{&quot;origPos&quot;:null,&quot;origRot&quot;:0}" fill="#ffffff" stroke="#bfbfbf" stroke-width="1.5" stroke-linecap="butt"/><path d="M177.34623,147.68751c0,9.74602 -5.14936,13.76502 -11.92352,18.78067c-4.72012,3.49483 -6.06853,6.55351 -11.57363,6.55351c-6.39728,0 -8.94794,-3.40472 -14.4308,-7.47049c-6.66848,-4.94496 -12.11553,-8.43171 -12.11553,-18.02958c0,-4.96164 0.57271,-17.46259 2.65647,-21.64362c4.80207,-9.63527 14.74065,-3.01232 23.65922,-3.01232c0,0 14.51881,-4.17109 19.42967,4.99397c2.33042,4.34922 4.29814,6.11913 4.29814,19.82785z" data-paper-data="{&quot;origPos&quot;:null}" fill="url(#color-22)" stroke="#e0ce98" stroke-width="1" stroke-linecap="butt"/><path d="M177.4394,118.97912c7.39631,15.56136 -26.79497,11.84769 -29.2141,13.88679c-2.37591,2.00267 -0.74791,8.1248 -3.6175,8.1248c-4.02198,0 -8.45488,0.78112 -9.56057,5.59357c-0.63988,2.7851 2.37615,8.20363 0.12484,8.93939c-2.2178,0.72481 -4.06937,3.17394 -6.35839,3.34133c-1.85643,0.13575 -2.3832,-2.34729 -4.24263,-2.38175c-5.29533,-0.09814 0.72001,-13.08839 0.8452,-13.76963c0.04172,-0.22708 -1.10163,-4.86613 -1.10163,-7.11954c0,-12.22192 9.84594,-18.72113 16.30923,-18.72113c6.46328,0 29.41924,-13.4552 36.81555,2.10615z" data-paper-data="{&quot;origPos&quot;:null}" fill="#c27231" stroke="#985926" stroke-width="1.5" stroke-linecap="butt"/><path d="M176.96832,160.70281c0,0.95988 -1.05436,2.58093 -1.15734,3.53483c-0.21869,2.02584 -1.61583,3.09357 -3.57684,3.18442c-2.16435,0.10028 -5.99132,-2.49128 -5.99132,-2.49128c0,0 -2.87775,1.17883 -4.82459,1.63167c-1.63184,0.37956 -4.15503,0.13082 -5.64053,-0.6477c-1.0443,-0.54731 -2.66543,-2.84484 -3.30943,-3.85895c-2.03878,-3.21045 -7.28717,-7.93595 -2.80634,-9.10485c2.20464,-0.57514 8.73957,5.57355 11.0127,5.57355c0,0 3.80829,-0.01737 5.70018,0.08359c4.2897,0.22888 10.5935,-2.44841 10.5935,2.09473z" data-paper-data="{&quot;origPos&quot;:null}" fill="#160b02" stroke="none" stroke-width="0" stroke-linecap="butt"/><path d="M179.32542,123.31416c0,9.78879 -11.03409,3.76335 -26.30554,3.76335c-3.69718,0 -8.59054,8.0724 -12.28753,8.03675c-5.24124,-0.05053 -11.84335,2.43574 -15.98343,-0.75375c-2.92262,-2.25156 -0.72629,-7.37501 -0.72629,-11.04636c0,-8.29421 8.70145,-8.41406 16.24287,-11.99222c5.48182,-2.60093 5.55662,-6.71012 11.63295,-6.71012c0,0 12.43874,-1.79855 19.6767,0.81682c8.19439,2.96096 7.75028,8.09672 7.75028,17.88551z" data-paper-data="{&quot;origPos&quot;:null}" fill="url(#color-23)" stroke="#158e0e" stroke-width="1" stroke-linecap="butt"/><path d="M189.80766,129.20143c0,3.44723 -10.44299,0.29032 -24.00988,0.29032c-13.56688,0 -25.12017,3.15691 -25.12017,-0.29032c0,-3.44723 10.99813,-6.24174 24.56502,-6.24174c13.56688,0 24.56502,2.79453 24.56502,6.24174z" data-paper-data="{&quot;origPos&quot;:null}" fill="url(#color-24)" stroke="#158e0e" stroke-width="1" stroke-linecap="butt"/><path d="M175.2573,116.35071c0,2.1243 0.31298,3.58995 -1.25453,4.94077c-1.35299,1.16595 -9.04403,0.86035 -10.32229,-0.07639c-1.82086,-1.33439 -1.08988,-2.53898 -1.08988,-4.86438c0,-3.47076 2.83555,-6.2844 6.33336,-6.2844c3.49782,0 6.33335,2.81363 6.33335,6.2844z" data-paper-data="{&quot;origPos&quot;:null}" fill="#ffffff" stroke="#a4a4a4" stroke-width="1" stroke-linecap="butt"/><path d="M167.51597,141.38559c0,4.09884 -2.12367,7.4216 -4.74334,7.4216c-2.61968,0 -4.74334,-3.32277 -4.74334,-7.4216c0,-4.09884 2.12367,-7.42161 4.74334,-7.42161c2.61968,0 4.74334,3.32277 4.74334,7.42161z" data-paper-data="{&quot;origPos&quot;:null}" fill="#ffffff" stroke="none" stroke-width="0" stroke-linecap="butt"/><path d="M159.015,133.23137c0,0 3.57853,-0.58187 4.30266,-0.45673c1.29495,0.22377 3.53513,1.81626 3.53513,1.81626" data-paper-data="{&quot;origPos&quot;:null,&quot;origRot&quot;:0}" fill="none" stroke="#351c06" stroke-width="1.5" stroke-linecap="round"/><path d="M167.54498,141.06671c0,2.72022 -1.40938,4.92538 -3.14794,4.92538c-1.73856,0 -3.14794,-2.20518 -3.14794,-4.92538c0,-2.72022 1.40939,-4.92538 3.14794,-4.92538c1.73856,0 3.14794,2.20518 3.14794,4.92538z" data-paper-data="{&quot;origPos&quot;:null}" fill="#1121d4" stroke="none" stroke-width="0" stroke-linecap="butt"/><path d="M167.61349,140.92368c0,1.40663 -0.72879,2.54692 -1.62781,2.54692c-0.89902,0 -1.62781,-1.1403 -1.62781,-2.54692c0,-1.40663 0.7288,-2.54692 1.62781,-2.54692c0.89902,0 1.62781,1.1403 1.62781,2.54692z" data-paper-data="{&quot;origPos&quot;:null}" fill="#000000" stroke="none" stroke-width="0" stroke-linecap="butt"/><path d="M173.91219,133.32114c2.17221,0 3.93314,2.75519 3.93314,6.1539c0,3.39872 -1.76092,6.1539 -3.93314,6.1539c-2.17221,0 -3.93314,-2.75519 -3.93314,-6.1539c0,-3.39872 1.76092,-6.1539 3.93314,-6.1539z" data-paper-data="{&quot;origPos&quot;:null,&quot;index&quot;:null}" fill="#ffffff" stroke="none" stroke-width="0" stroke-linecap="butt"/><path d="M170.61616,132.73708c0,0 1.85754,-1.32048 2.93129,-1.50603c0.60044,-0.10377 3.56772,0.37872 3.56772,0.37872" data-paper-data="{&quot;origPos&quot;:null,&quot;origRot&quot;:0,&quot;index&quot;:null}" fill="none" stroke="#351c06" stroke-width="1.5" stroke-linecap="round"/><path d="M175.35774,135.24693c1.44159,0 2.61025,1.82851 2.61025,4.08405c0,2.25556 -1.16864,4.08405 -2.61025,4.08405c-1.44159,0 -2.61024,-1.82851 -2.61024,-4.08405c0,-2.25556 1.16864,-4.08405 2.61024,-4.08405z" data-paper-data="{&quot;origPos&quot;:null,&quot;index&quot;:null}" fill="#1121d4" stroke="none" stroke-width="0" stroke-linecap="butt"/><path d="M176.72018,137.2257c0.74546,0 1.34976,0.94553 1.34976,2.11188c0,1.16637 -0.60431,2.11188 -1.34976,2.11188c-0.74546,0 -1.34975,-0.94553 -1.34975,-2.11188c0,-1.16637 0.60431,-2.11188 1.34975,-2.11188z" data-paper-data="{&quot;origPos&quot;:null,&quot;index&quot;:null}" fill="#000000" stroke="none" stroke-width="0" stroke-linecap="butt"/><path d="M187.98864,152.34005c0,4.72834 -5.21052,8.81759 -11.95206,8.81759c-6.74152,0 -12.46119,-4.08925 -12.46119,-8.81759c0,-4.72834 5.46509,-8.56142 12.20662,-8.56142c6.74152,0 12.20662,3.83307 12.20662,8.56142z" data-paper-data="{&quot;origPos&quot;:null}" fill="url(#color-25)" stroke="#e0ce98" stroke-width="1.5" stroke-linecap="butt"/><path d="M140.48492,146.03933c-0.92107,2.89004 -4.85091,4.12313 -8.77756,2.75416c-3.92666,-1.36898 -6.36315,-4.82159 -5.44209,-7.71164c0.92107,-2.89004 4.85091,-4.12313 8.77756,-2.75416c3.92666,1.36898 6.36315,4.82159 5.44209,7.71164z" data-paper-data="{&quot;origRot&quot;:0,&quot;origPos&quot;:null}" fill="#ffefc0" stroke="#e0ce98" stroke-width="1.5" stroke-linecap="butt"/><path d="M171.75718,119.12959l-4.53402,-0.22459l0.06825,-5.75038" data-paper-data="{&quot;origPos&quot;:null}" fill="none" stroke="#158e0e" stroke-width="1" stroke-linecap="round"/></g></g></svg>