<svg version="1.1" xmlns="http://www.w3.org/2000/svg" xmlns:xlink="http://www.w3.org/1999/xlink" width="53.36895" height="74.43545" viewBox="0,0,53.36895,74.43545"><defs><linearGradient x1="229.45738" y1="211.61139" x2="229.45738" y2="224.54215" gradientUnits="userSpaceOnUse" id="color-1"><stop offset="0" stop-color="#51f21c"/><stop offset="1" stop-color="#369f13"/></linearGradient><linearGradient x1="257.57117" y1="211.21853" x2="257.57117" y2="224.14928" gradientUnits="userSpaceOnUse" id="color-2"><stop offset="0" stop-color="#51f21c"/><stop offset="1" stop-color="#369f13"/></linearGradient><linearGradient x1="243.65765" y1="209.19329" x2="243.65765" y2="233.42287" gradientUnits="userSpaceOnUse" id="color-3"><stop offset="0" stop-color="#51f21c"/><stop offset="1" stop-color="#369f13"/></linearGradient><linearGradient x1="243.71695" y1="205.93019" x2="243.71695" y2="210.89006" gradientUnits="userSpaceOnUse" id="color-4"><stop offset="0" stop-color="#51f21c"/><stop offset="1" stop-color="#369f13"/></linearGradient><linearGradient x1="242.47674" y1="165.12459" x2="242.47674" y2="206.9242" gradientUnits="userSpaceOnUse" id="color-5"><stop offset="0" stop-color="#ff3535"/><stop offset="1" stop-color="#b32626"/></linearGradient></defs><g transform="translate(-216.8298,-159.49557)"><g data-paper-data="{&quot;isPaintingLayer&quot;:true}" fill-rule="nonzero" stroke-linejoin="miter" stroke-miterlimit="10" stroke-dasharray="" stroke-dashoffset="0" style="mix-blend-mode: normal"><path d="M229.6109,211.61138c6.78267,0 11.97407,8.22336 11.97407,12.09732c0,3.87396 -5.1914,-7.01441 -11.97407,-7.01441c-6.78267,0 -12.2811,5.80547 -12.2811,1.93151c0,-3.87395 5.49843,-7.01441 12.2811,-7.01441z" data-paper-data="{&quot;origPos&quot;:null,&quot;index&quot;:null}" fill="url(#color-1)" stroke="#369f13" stroke-width="1" stroke-linecap="butt"/><path d="M257.41765,211.21853c6.78267,0 12.2811,3.14046 12.2811,7.01441c0,3.87396 -5.49843,-1.93151 -12.2811,-1.93151c-6.78267,0 -11.97407,10.88837 -11.97407,7.01441c0,-3.87396 5.1914,-12.09732 11.97407,-12.09732z" data-paper-data="{&quot;origPos&quot;:null,&quot;index&quot;:null}" fill="url(#color-2)" stroke="#369f13" stroke-width="1" stroke-linecap="butt"/><path d="M246.69772,209.19329l1.57203,24.22959l-9.22419,-0.13972l1.90845,-24.0652z" data-paper-data="{&quot;origPos&quot;:null}" fill="url(#color-3)" stroke="#369f13" stroke-width="1" stroke-linecap="round"/><path d="M252.32842,206.12525c0,0 -4.2689,4.76481 -8.61147,4.76481c-4.34258,0 -8.61147,-4.95987 -8.61147,-4.95987z" data-paper-data="{&quot;origPos&quot;:null}" fill="url(#color-4)" stroke="#369f13" stroke-width="1" stroke-linecap="butt"/><path d="M246.28995,168.60324l-0.8113,-6.29406l3.78607,3.83784z" data-paper-data="{&quot;origPos&quot;:null,&quot;index&quot;:null}" fill="#f2f0f0" stroke="#f2f0f0" stroke-width="2" stroke-linecap="round"/><path d="M245.36434,176.2784l-0.8113,-6.29406l3.78608,3.83784z" data-paper-data="{&quot;origPos&quot;:null,&quot;index&quot;:null}" fill="#f2f0f0" stroke="#f2f0f0" stroke-width="2" stroke-linecap="round"/><path d="M239.75186,173.87493l3.78608,-3.83785l-0.8113,6.29407z" data-paper-data="{&quot;origPos&quot;:null}" fill="#f2f0f0" stroke="#f2f0f0" stroke-width="2" stroke-linecap="round"/><path d="M237.87142,166.96367l3.78607,-3.83785l-0.8113,6.29407z" data-paper-data="{&quot;origPos&quot;:null}" fill="#f2f0f0" stroke="#f2f0f0" stroke-width="2" stroke-linecap="round"/><path d="M243.829,206.9242c-9.97134,0 -19.13656,-5.84099 -24.09644,-15.66177c-3.93127,-7.7841 10.18736,-22.96146 16.16026,-28.8376c4.93819,-4.85819 6.85445,26.69177 6.85445,26.69177c0,0 4.98686,-28.69128 9.34036,-26.33685c4.35349,2.35443 18.10357,19.61138 14.00839,28.19367c-4.47024,9.36833 -10.65455,15.95077 -22.26701,15.95077z" data-paper-data="{&quot;origPos&quot;:null}" fill="url(#color-5)" stroke="#b32626" stroke-width="1" stroke-linecap="butt"/><path d="M243.52709,192.12093c0,0 -6.16778,-7.48873 -7.48983,-13.29557c-1.32205,-5.80685 -3.80593,-12.81687 0.56563,-17.11761c3.61425,-3.5557 6.80857,23.36685 6.80857,23.36685c0,0 4.55321,-25.27143 7.73953,-23.54824c3.18631,1.72321 1.04861,10.65171 -0.64504,17.44828c-1.69365,6.79657 -6.97885,13.14628 -6.97885,13.14628z" data-paper-data="{&quot;origPos&quot;:null}" fill="#fffcfc" stroke="#d2d2d2" stroke-width="1" stroke-linecap="butt"/><path d="M232.02184,183.52308c0,2.41633 -1.72535,4.37514 -3.85368,4.37514c-2.12833,0 -3.85368,-1.95882 -3.85368,-4.37514c0,-2.41633 1.72535,-4.37514 3.85368,-4.37514c2.12833,0 3.85368,1.95881 3.85368,4.37514z" data-paper-data="{&quot;origPos&quot;:null}" fill="#fffcfc" stroke="none" stroke-width="0" stroke-linecap="butt"/><path d="M262.12477,182.59047c0,2.41633 -1.72536,4.37514 -3.85369,4.37514c-2.12833,0 -3.85368,-1.95881 -3.85368,-4.37514c0,-2.41633 1.72535,-4.37514 3.85368,-4.37514c2.12833,0 3.85369,1.95882 3.85369,4.37514z" data-paper-data="{&quot;origPos&quot;:null}" fill="#fffcfc" stroke="none" stroke-width="0" stroke-linecap="butt"/><path d="M239.94178,195.99559c0,2.41633 -1.95882,4.37514 -4.37515,4.37514c-2.41633,0 -4.37514,-1.95882 -4.37514,-4.37514c0,-2.41633 1.95881,-4.37514 4.37514,-4.37514c2.41633,0 4.37515,1.95881 4.37515,4.37514z" data-paper-data="{&quot;origPos&quot;:null}" fill="#fffcfc" stroke="none" stroke-width="0" stroke-linecap="butt"/><path d="M255.81607,196.39018c0,2.41633 -1.95882,4.37514 -4.37514,4.37514c-2.41633,0 -4.37514,-1.95881 -4.37514,-4.37514c0,-2.41633 1.95882,-4.37514 4.37514,-4.37514c2.41633,0 4.37514,1.95882 4.37514,4.37514z" data-paper-data="{&quot;origPos&quot;:null}" fill="#fffcfc" stroke="none" stroke-width="0" stroke-linecap="butt"/></g></g></svg>