<svg version="1.1" xmlns="http://www.w3.org/2000/svg" xmlns:xlink="http://www.w3.org/1999/xlink" width="480.19118" height="403.50004" viewBox="0,0,480.19118,403.50004"><defs><linearGradient x1="239.23621" y1="94.09374" x2="239.23621" y2="133.38516" gradientUnits="userSpaceOnUse" id="color-1"><stop offset="0" stop-color="#17ff22"/><stop offset="1" stop-color="#02d10c"/></linearGradient><linearGradient x1="414.23621" y1="200.09374" x2="414.23621" y2="239.38516" gradientUnits="userSpaceOnUse" id="color-2"><stop offset="0" stop-color="#17ff22"/><stop offset="1" stop-color="#02d10c"/></linearGradient><linearGradient x1="51.23621" y1="204.09374" x2="51.23621" y2="243.38516" gradientUnits="userSpaceOnUse" id="color-3"><stop offset="0" stop-color="#17ff22"/><stop offset="1" stop-color="#02d10c"/></linearGradient></defs><g transform="translate(7.35938,-92.59376)"><g data-paper-data="{&quot;isPaintingLayer&quot;:true}" fill-rule="nonzero" stroke-linejoin="miter" stroke-miterlimit="10" stroke-dasharray="" stroke-dashoffset="0" style="mix-blend-mode: normal"><path d="M182.47404,394.2813v-276.1875h114.21496v276.1875z" data-paper-data="{&quot;index&quot;:null}" fill="#98763d" stroke="none" stroke-width="0" stroke-linecap="butt"/><path d="M284.85842,129.95144l-13.26327,-10.7627l-10.07175,13.2091l-13.5726,-12.49333l-9.52865,9.40523l-10.23706,-8.22474l-9.60869,10.67969l-9.60292,-10.37815l-10.08819,11.9986l-10.37359,-10.64086l-6.37108,-1.75726v-26.89326h114.19118v26.89326z" data-paper-data="{&quot;index&quot;:null}" fill="url(#color-1)" stroke="#08a310" stroke-width="3" stroke-linecap="butt"/><path d="M257.06903,254.68777l1.16689,-7.40281l16.87004,-15.94784l6.05447,3.87501l-8.87184,13.22785z" data-paper-data="{&quot;index&quot;:null}" fill="#774b00" stroke="#703100" stroke-width="2" stroke-linecap="round"/><path d="M203.06903,207.68777l1.16689,-7.40281l16.87004,-15.94784l6.05447,3.87501l-8.87184,13.22785z" data-paper-data="{&quot;index&quot;:null}" fill="#774b00" stroke="#703100" stroke-width="2" stroke-linecap="round"/><path d="M357.47404,492.0938v-269h114.21496v269z" data-paper-data="{&quot;index&quot;:null}" fill="#98763d" stroke="none" stroke-width="0" stroke-linecap="butt"/><path d="M459.85842,235.95144l-13.26327,-10.7627l-10.07175,13.2091l-13.5726,-12.49333l-9.52865,9.40523l-10.23706,-8.22474l-9.60869,10.67969l-9.60292,-10.37815l-10.08819,11.9986l-10.37359,-10.64086l-6.37108,-1.75726v-26.89326h114.19118v26.89326z" data-paper-data="{&quot;index&quot;:null}" fill="url(#color-2)" stroke="#08a310" stroke-width="3" stroke-linecap="butt"/><path d="M421.06903,277.68777l1.16689,-7.40281l16.87004,-15.94784l6.05447,3.87501l-8.87184,13.22785z" data-paper-data="{&quot;index&quot;:null}" fill="#774b00" stroke="#703100" stroke-width="2" stroke-linecap="round"/><path d="M377.06903,354.68777l1.16689,-7.40281l16.87004,-15.94784l6.05447,3.87501l-8.87184,13.22785z" data-paper-data="{&quot;index&quot;:null}" fill="#774b00" stroke="#703100" stroke-width="2" stroke-linecap="round"/><path d="M421.06903,413.68777l1.16689,-7.40281l16.87004,-15.94784l6.05447,3.87501l-8.87184,13.22785z" data-paper-data="{&quot;index&quot;:null}" fill="#774b00" stroke="#703100" stroke-width="2" stroke-linecap="round"/><path d="M205.06903,324.68777l1.16689,-7.40281l16.87004,-15.94784l6.05447,3.87501l-8.87184,13.22785z" data-paper-data="{&quot;index&quot;:null}" fill="#774b00" stroke="#703100" stroke-width="2" stroke-linecap="round"/><path d="M-5.52596,496.0938v-269h114.21496v269z" data-paper-data="{&quot;index&quot;:null}" fill="#98763d" stroke="none" stroke-width="0" stroke-linecap="butt"/><path d="M96.85842,239.95144l-13.26327,-10.7627l-10.07175,13.2091l-13.5726,-12.49333l-9.52865,9.40523l-10.23706,-8.22474l-9.60869,10.67969l-9.60292,-10.37815l-10.08819,11.9986l-10.37359,-10.64086l-6.37108,-1.75726v-26.89326h114.19118v26.89326z" data-paper-data="{&quot;index&quot;:null}" fill="url(#color-3)" stroke="#08a310" stroke-width="3" stroke-linecap="butt"/><path d="M58.06903,281.68777l1.16689,-7.40281l16.87004,-15.94784l6.05447,3.87501l-8.87184,13.22785z" data-paper-data="{&quot;index&quot;:null}" fill="#774b00" stroke="#703100" stroke-width="2" stroke-linecap="round"/><path d="M14.06903,358.68777l1.16689,-7.40281l16.87004,-15.94784l6.05447,3.87501l-8.87184,13.22785z" data-paper-data="{&quot;index&quot;:null}" fill="#774b00" stroke="#703100" stroke-width="2" stroke-linecap="round"/><path d="M58.06903,417.68777l1.16689,-7.40281l16.87004,-15.94784l6.05447,3.87501l-8.87184,13.22785z" data-paper-data="{&quot;index&quot;:null}" fill="#774b00" stroke="#703100" stroke-width="2" stroke-linecap="round"/></g></g></svg>