<svg version="1.1" xmlns="http://www.w3.org/2000/svg" xmlns:xlink="http://www.w3.org/1999/xlink" width="513.54687" height="333.45221" viewBox="0,0,513.54687,333.45221"><defs><linearGradient x1="116.92892" y1="291.09374" x2="116.92892" y2="330.38516" gradientUnits="userSpaceOnUse" id="color-1"><stop offset="0" stop-color="#17ff22"/><stop offset="1" stop-color="#02d10c"/></linearGradient><linearGradient x1="214.77495" y1="245.6416" x2="214.77495" y2="289.4063" gradientUnits="userSpaceOnUse" id="color-2"><stop offset="0" stop-color="#996917"/><stop offset="1" stop-color="#7a4d00"/></linearGradient><linearGradient x1="165.27495" y1="245.6416" x2="165.27495" y2="289.4063" gradientUnits="userSpaceOnUse" id="color-3"><stop offset="0" stop-color="#996917"/><stop offset="1" stop-color="#7a4d00"/></linearGradient><linearGradient x1="165.27495" y1="199.1416" x2="165.27495" y2="242.9063" gradientUnits="userSpaceOnUse" id="color-4"><stop offset="0" stop-color="#996917"/><stop offset="1" stop-color="#7a4d00"/></linearGradient><linearGradient x1="115.77495" y1="245.6416" x2="115.77495" y2="289.4063" gradientUnits="userSpaceOnUse" id="color-5"><stop offset="0" stop-color="#996917"/><stop offset="1" stop-color="#7a4d00"/></linearGradient><linearGradient x1="115.77495" y1="199.1416" x2="115.77495" y2="242.9063" gradientUnits="userSpaceOnUse" id="color-6"><stop offset="0" stop-color="#996917"/><stop offset="1" stop-color="#7a4d00"/></linearGradient><linearGradient x1="115.77495" y1="152.64159" x2="115.77495" y2="196.4063" gradientUnits="userSpaceOnUse" id="color-7"><stop offset="0" stop-color="#996917"/><stop offset="1" stop-color="#7a4d00"/></linearGradient><linearGradient x1="66.77495" y1="245.6416" x2="66.77495" y2="289.4063" gradientUnits="userSpaceOnUse" id="color-8"><stop offset="0" stop-color="#996917"/><stop offset="1" stop-color="#7a4d00"/></linearGradient><linearGradient x1="66.77495" y1="199.1416" x2="66.77495" y2="242.9063" gradientUnits="userSpaceOnUse" id="color-9"><stop offset="0" stop-color="#996917"/><stop offset="1" stop-color="#7a4d00"/></linearGradient><linearGradient x1="66.77495" y1="152.64159" x2="66.77495" y2="196.4063" gradientUnits="userSpaceOnUse" id="color-10"><stop offset="0" stop-color="#996917"/><stop offset="1" stop-color="#7a4d00"/></linearGradient><linearGradient x1="66.77495" y1="105.6416" x2="66.77495" y2="149.4063" gradientUnits="userSpaceOnUse" id="color-11"><stop offset="0" stop-color="#996917"/><stop offset="1" stop-color="#7a4d00"/></linearGradient><linearGradient x1="17.77495" y1="245.6416" x2="17.77495" y2="289.4063" gradientUnits="userSpaceOnUse" id="color-12"><stop offset="0" stop-color="#996917"/><stop offset="1" stop-color="#7a4d00"/></linearGradient><linearGradient x1="17.77495" y1="199.1416" x2="17.77495" y2="242.9063" gradientUnits="userSpaceOnUse" id="color-13"><stop offset="0" stop-color="#996917"/><stop offset="1" stop-color="#7a4d00"/></linearGradient><linearGradient x1="17.77495" y1="152.64159" x2="17.77495" y2="196.4063" gradientUnits="userSpaceOnUse" id="color-14"><stop offset="0" stop-color="#996917"/><stop offset="1" stop-color="#7a4d00"/></linearGradient><linearGradient x1="17.77495" y1="105.6416" x2="17.77495" y2="149.4063" gradientUnits="userSpaceOnUse" id="color-15"><stop offset="0" stop-color="#996917"/><stop offset="1" stop-color="#7a4d00"/></linearGradient><linearGradient x1="17.77495" y1="58.6416" x2="17.77495" y2="102.4063" gradientUnits="userSpaceOnUse" id="color-16"><stop offset="0" stop-color="#996917"/><stop offset="1" stop-color="#7a4d00"/></linearGradient><linearGradient x1="447.72623" y1="147.09374" x2="447.72623" y2="186.38516" gradientUnits="userSpaceOnUse" id="color-17"><stop offset="0" stop-color="#17ff22"/><stop offset="1" stop-color="#02d10c"/></linearGradient></defs><g transform="translate(7.22505,-56.64159)"><g data-paper-data="{&quot;isPaintingLayer&quot;:true}" fill-rule="nonzero" stroke-linejoin="miter" stroke-miterlimit="10" stroke-dasharray="" stroke-dashoffset="0" style="mix-blend-mode: normal"><path d="M-5.72656,361.0938v-47h243.83658v47z" fill="#98763d" stroke="none" stroke-width="0" stroke-linecap="butt"/><path d="M-4.96397,317.98702v-26.89326h243.78579v26.89326l-13.60157,1.75726l-22.14649,10.64086l-21.5372,-11.9986l-20.50119,10.37815l-20.5135,-10.67969l-21.85501,8.22474l-20.34263,-9.40523l-28.97603,12.49333l-21.50211,-13.2091l-28.31564,10.7627z" fill="url(#color-1)" stroke="#08a310" stroke-width="3" stroke-linecap="butt"/><path d="M41.67385,343.43998l-8.87184,-13.22785l6.05447,-3.87501l16.87004,15.94784l1.16689,7.40281z" data-paper-data="{&quot;index&quot;:null}" fill="#774b00" stroke="#703100" stroke-width="2" stroke-linecap="round"/><path d="M131.18556,353.03908l-4.82531,-3.22167l6.49233,-9.08013l11.4581,-1.92088l-0.76959,5.37415z" data-paper-data="{&quot;index&quot;:null}" fill="#774b00" stroke="#703100" stroke-width="2" stroke-linecap="round"/><path d="M191.77495,289.4063v-43.76471h46v43.76471z" data-paper-data="{&quot;index&quot;:null}" fill="url(#color-2)" stroke="#703100" stroke-width="4" stroke-linecap="butt"/><path d="M226.33235,259.16671c-1.14676,0 -2.07639,-0.97004 -2.07639,-2.16666c0,-1.19662 0.92963,-2.16667 2.07639,-2.16667c1.14676,0 2.07639,0.97005 2.07639,2.16667c0,1.19661 -0.92963,2.16666 -2.07639,2.16666z" data-paper-data="{&quot;index&quot;:null}" fill="#703100" stroke="#703100" stroke-width="0.5" stroke-linecap="butt"/><path d="M202.85318,259.16671c-1.14675,0 -2.07639,-0.97004 -2.07639,-2.16666c0,-1.19662 0.92963,-2.16667 2.07639,-2.16667c1.14676,0 2.07639,0.97005 2.07639,2.16667c0,1.19661 -0.92963,2.16666 -2.07639,2.16666z" data-paper-data="{&quot;index&quot;:null}" fill="#703100" stroke="#713301" stroke-width="0.5" stroke-linecap="butt"/><path d="M226.49208,281.00006c-1.14676,0 -2.07639,-0.97005 -2.07639,-2.16667c0,-1.19661 0.92963,-2.16666 2.07639,-2.16666c1.14675,0 2.07638,0.97004 2.07638,2.16666c0,1.19662 -0.92962,2.16667 -2.07638,2.16667z" data-paper-data="{&quot;index&quot;:null}" fill="#703100" stroke="#703100" stroke-width="0.5" stroke-linecap="butt"/><path d="M202.85319,281.16671c-1.14676,0 -2.07639,-0.97004 -2.07639,-2.16666c0,-1.19662 0.92963,-2.16667 2.07639,-2.16667c1.14676,0 2.07639,0.97005 2.07639,2.16667c0,1.19661 -0.92963,2.16666 -2.07639,2.16666z" data-paper-data="{&quot;index&quot;:null}" fill="#703100" stroke="#703100" stroke-width="0.5" stroke-linecap="butt"/><path d="M142.27495,289.4063v-43.76471h46v43.76471z" data-paper-data="{&quot;index&quot;:null}" fill="url(#color-3)" stroke="#703100" stroke-width="4" stroke-linecap="butt"/><path d="M176.83235,259.16671c-1.14676,0 -2.07639,-0.97004 -2.07639,-2.16666c0,-1.19662 0.92963,-2.16667 2.07639,-2.16667c1.14676,0 2.07639,0.97005 2.07639,2.16667c0,1.19661 -0.92963,2.16666 -2.07639,2.16666z" data-paper-data="{&quot;index&quot;:null}" fill="#703100" stroke="#703100" stroke-width="0.5" stroke-linecap="butt"/><path d="M153.35318,259.16671c-1.14675,0 -2.07639,-0.97004 -2.07639,-2.16666c0,-1.19662 0.92964,-2.16667 2.07639,-2.16667c1.14676,0 2.07639,0.97005 2.07639,2.16667c0,1.19661 -0.92963,2.16666 -2.07639,2.16666z" data-paper-data="{&quot;index&quot;:null}" fill="#703100" stroke="#713301" stroke-width="0.5" stroke-linecap="butt"/><path d="M176.99208,281.00006c-1.14676,0 -2.07639,-0.97005 -2.07639,-2.16667c0,-1.19661 0.92963,-2.16666 2.07639,-2.16666c1.14675,0 2.07638,0.97004 2.07638,2.16666c0,1.19662 -0.92962,2.16667 -2.07638,2.16667z" data-paper-data="{&quot;index&quot;:null}" fill="#703100" stroke="#703100" stroke-width="0.5" stroke-linecap="butt"/><path d="M153.35319,281.16671c-1.14675,0 -2.07639,-0.97004 -2.07639,-2.16666c0,-1.19662 0.92964,-2.16667 2.07639,-2.16667c1.14676,0 2.07639,0.97005 2.07639,2.16667c0,1.19661 -0.92963,2.16666 -2.07639,2.16666z" data-paper-data="{&quot;index&quot;:null}" fill="#703100" stroke="#703100" stroke-width="0.5" stroke-linecap="butt"/><path d="M142.27495,242.9063v-43.76471h46v43.76471z" data-paper-data="{&quot;index&quot;:null}" fill="url(#color-4)" stroke="#703100" stroke-width="4" stroke-linecap="butt"/><path d="M176.83235,212.66671c-1.14676,0 -2.07639,-0.97004 -2.07639,-2.16666c0,-1.19661 0.92963,-2.16666 2.07639,-2.16666c1.14676,0 2.07639,0.97004 2.07639,2.16666c0,1.19661 -0.92963,2.16666 -2.07639,2.16666z" data-paper-data="{&quot;index&quot;:null}" fill="#703100" stroke="#703100" stroke-width="0.5" stroke-linecap="butt"/><path d="M153.35318,212.66671c-1.14675,0 -2.07639,-0.97004 -2.07639,-2.16666c0,-1.19661 0.92964,-2.16666 2.07639,-2.16666c1.14676,0 2.07639,0.97004 2.07639,2.16666c0,1.19661 -0.92963,2.16666 -2.07639,2.16666z" data-paper-data="{&quot;index&quot;:null}" fill="#703100" stroke="#713301" stroke-width="0.5" stroke-linecap="butt"/><path d="M176.99208,234.50005c-1.14676,0 -2.07639,-0.97004 -2.07639,-2.16666c0,-1.19662 0.92963,-2.16667 2.07639,-2.16667c1.14675,0 2.07638,0.97005 2.07638,2.16667c0,1.19661 -0.92962,2.16666 -2.07638,2.16666z" data-paper-data="{&quot;index&quot;:null}" fill="#703100" stroke="#703100" stroke-width="0.5" stroke-linecap="butt"/><path d="M153.35319,234.66671c-1.14675,0 -2.07639,-0.97004 -2.07639,-2.16666c0,-1.19661 0.92964,-2.16666 2.07639,-2.16666c1.14676,0 2.07639,0.97004 2.07639,2.16666c0,1.19661 -0.92963,2.16666 -2.07639,2.16666z" data-paper-data="{&quot;index&quot;:null}" fill="#703100" stroke="#703100" stroke-width="0.5" stroke-linecap="butt"/><path d="M92.77495,289.4063v-43.76471h46v43.76471z" data-paper-data="{&quot;index&quot;:null}" fill="url(#color-5)" stroke="#703100" stroke-width="4" stroke-linecap="butt"/><path d="M127.33235,259.16671c-1.14676,0 -2.07639,-0.97004 -2.07639,-2.16666c0,-1.19662 0.92963,-2.16667 2.07639,-2.16667c1.14676,0 2.07639,0.97005 2.07639,2.16667c0,1.19661 -0.92963,2.16666 -2.07639,2.16666z" data-paper-data="{&quot;index&quot;:null}" fill="#703100" stroke="#703100" stroke-width="0.5" stroke-linecap="butt"/><path d="M103.85318,259.16671c-1.14675,0 -2.07639,-0.97004 -2.07639,-2.16666c0,-1.19662 0.92964,-2.16667 2.07639,-2.16667c1.14676,0 2.07639,0.97005 2.07639,2.16667c0,1.19661 -0.92964,2.16666 -2.07639,2.16666z" data-paper-data="{&quot;index&quot;:null}" fill="#703100" stroke="#713301" stroke-width="0.5" stroke-linecap="butt"/><path d="M127.49207,281.00006c-1.14676,0 -2.07639,-0.97005 -2.07639,-2.16667c0,-1.19661 0.92963,-2.16666 2.07639,-2.16666c1.14676,0 2.07639,0.97004 2.07639,2.16666c0,1.19662 -0.92963,2.16667 -2.07639,2.16667z" data-paper-data="{&quot;index&quot;:null}" fill="#703100" stroke="#703100" stroke-width="0.5" stroke-linecap="butt"/><path d="M103.85319,281.16671c-1.14675,0 -2.07639,-0.97004 -2.07639,-2.16666c0,-1.19662 0.92964,-2.16667 2.07639,-2.16667c1.14675,0 2.07639,0.97005 2.07639,2.16667c0,1.19661 -0.92964,2.16666 -2.07639,2.16666z" data-paper-data="{&quot;index&quot;:null}" fill="#703100" stroke="#703100" stroke-width="0.5" stroke-linecap="butt"/><path d="M92.77495,242.9063v-43.76471h46v43.76471z" data-paper-data="{&quot;index&quot;:null}" fill="url(#color-6)" stroke="#703100" stroke-width="4" stroke-linecap="butt"/><path d="M127.33235,212.66671c-1.14676,0 -2.07639,-0.97004 -2.07639,-2.16666c0,-1.19661 0.92963,-2.16666 2.07639,-2.16666c1.14676,0 2.07639,0.97004 2.07639,2.16666c0,1.19661 -0.92963,2.16666 -2.07639,2.16666z" data-paper-data="{&quot;index&quot;:null}" fill="#703100" stroke="#703100" stroke-width="0.5" stroke-linecap="butt"/><path d="M103.85318,212.66671c-1.14675,0 -2.07639,-0.97004 -2.07639,-2.16666c0,-1.19661 0.92964,-2.16666 2.07639,-2.16666c1.14676,0 2.07639,0.97004 2.07639,2.16666c0,1.19661 -0.92964,2.16666 -2.07639,2.16666z" data-paper-data="{&quot;index&quot;:null}" fill="#703100" stroke="#713301" stroke-width="0.5" stroke-linecap="butt"/><path d="M127.49207,234.50005c-1.14676,0 -2.07639,-0.97004 -2.07639,-2.16666c0,-1.19662 0.92963,-2.16667 2.07639,-2.16667c1.14676,0 2.07639,0.97005 2.07639,2.16667c0,1.19661 -0.92963,2.16666 -2.07639,2.16666z" data-paper-data="{&quot;index&quot;:null}" fill="#703100" stroke="#703100" stroke-width="0.5" stroke-linecap="butt"/><path d="M103.85319,234.66671c-1.14675,0 -2.07639,-0.97004 -2.07639,-2.16666c0,-1.19661 0.92964,-2.16666 2.07639,-2.16666c1.14675,0 2.07639,0.97004 2.07639,2.16666c0,1.19661 -0.92964,2.16666 -2.07639,2.16666z" data-paper-data="{&quot;index&quot;:null}" fill="#703100" stroke="#703100" stroke-width="0.5" stroke-linecap="butt"/><path d="M92.77495,196.4063v-43.76471h46v43.76471z" data-paper-data="{&quot;index&quot;:null}" fill="url(#color-7)" stroke="#703100" stroke-width="4" stroke-linecap="butt"/><path d="M127.33235,166.16671c-1.14676,0 -2.07639,-0.97004 -2.07639,-2.16666c0,-1.19662 0.92963,-2.16667 2.07639,-2.16667c1.14676,0 2.07639,0.97005 2.07639,2.16667c0,1.19661 -0.92963,2.16666 -2.07639,2.16666z" data-paper-data="{&quot;index&quot;:null}" fill="#703100" stroke="#703100" stroke-width="0.5" stroke-linecap="butt"/><path d="M103.85318,166.16671c-1.14675,0 -2.07639,-0.97004 -2.07639,-2.16666c0,-1.19662 0.92964,-2.16667 2.07639,-2.16667c1.14676,0 2.07639,0.97005 2.07639,2.16667c0,1.19661 -0.92964,2.16666 -2.07639,2.16666z" data-paper-data="{&quot;index&quot;:null}" fill="#703100" stroke="#713301" stroke-width="0.5" stroke-linecap="butt"/><path d="M127.49207,188.00005c-1.14676,0 -2.07639,-0.97005 -2.07639,-2.16667c0,-1.19661 0.92963,-2.16666 2.07639,-2.16666c1.14676,0 2.07639,0.97004 2.07639,2.16666c0,1.19662 -0.92963,2.16667 -2.07639,2.16667z" data-paper-data="{&quot;index&quot;:null}" fill="#703100" stroke="#703100" stroke-width="0.5" stroke-linecap="butt"/><path d="M103.85319,188.16671c-1.14675,0 -2.07639,-0.97004 -2.07639,-2.16666c0,-1.19662 0.92964,-2.16667 2.07639,-2.16667c1.14675,0 2.07639,0.97005 2.07639,2.16667c0,1.19661 -0.92964,2.16666 -2.07639,2.16666z" data-paper-data="{&quot;index&quot;:null}" fill="#703100" stroke="#703100" stroke-width="0.5" stroke-linecap="butt"/><path d="M43.77495,289.4063v-43.76471h46v43.76471z" data-paper-data="{&quot;index&quot;:null}" fill="url(#color-8)" stroke="#703100" stroke-width="4" stroke-linecap="butt"/><path d="M78.33235,259.16671c-1.14676,0 -2.07639,-0.97004 -2.07639,-2.16666c0,-1.19662 0.92963,-2.16667 2.07639,-2.16667c1.14676,0 2.07639,0.97005 2.07639,2.16667c0,1.19661 -0.92963,2.16666 -2.07639,2.16666z" data-paper-data="{&quot;index&quot;:null}" fill="#703100" stroke="#703100" stroke-width="0.5" stroke-linecap="butt"/><path d="M54.85317,259.16671c-1.14675,0 -2.07639,-0.97004 -2.07639,-2.16666c0,-1.19662 0.92964,-2.16667 2.07639,-2.16667c1.14676,0 2.07639,0.97005 2.07639,2.16667c0,1.19661 -0.92964,2.16666 -2.07639,2.16666z" data-paper-data="{&quot;index&quot;:null}" fill="#703100" stroke="#713301" stroke-width="0.5" stroke-linecap="butt"/><path d="M78.49207,281.00006c-1.14676,0 -2.07639,-0.97005 -2.07639,-2.16667c0,-1.19661 0.92963,-2.16666 2.07639,-2.16666c1.14676,0 2.07639,0.97004 2.07639,2.16666c0,1.19662 -0.92963,2.16667 -2.07639,2.16667z" data-paper-data="{&quot;index&quot;:null}" fill="#703100" stroke="#703100" stroke-width="0.5" stroke-linecap="butt"/><path d="M54.85319,281.16671c-1.14675,0 -2.07639,-0.97004 -2.07639,-2.16666c0,-1.19662 0.92964,-2.16667 2.07639,-2.16667c1.14675,0 2.07639,0.97005 2.07639,2.16667c0,1.19661 -0.92964,2.16666 -2.07639,2.16666z" data-paper-data="{&quot;index&quot;:null}" fill="#703100" stroke="#703100" stroke-width="0.5" stroke-linecap="butt"/><path d="M43.77495,242.9063v-43.76471h46v43.76471z" data-paper-data="{&quot;index&quot;:null}" fill="url(#color-9)" stroke="#703100" stroke-width="4" stroke-linecap="butt"/><path d="M78.33235,212.66671c-1.14676,0 -2.07639,-0.97004 -2.07639,-2.16666c0,-1.19661 0.92963,-2.16666 2.07639,-2.16666c1.14676,0 2.07639,0.97004 2.07639,2.16666c0,1.19661 -0.92963,2.16666 -2.07639,2.16666z" data-paper-data="{&quot;index&quot;:null}" fill="#703100" stroke="#703100" stroke-width="0.5" stroke-linecap="butt"/><path d="M54.85317,212.66671c-1.14675,0 -2.07639,-0.97004 -2.07639,-2.16666c0,-1.19661 0.92964,-2.16666 2.07639,-2.16666c1.14676,0 2.07639,0.97004 2.07639,2.16666c0,1.19661 -0.92964,2.16666 -2.07639,2.16666z" data-paper-data="{&quot;index&quot;:null}" fill="#703100" stroke="#713301" stroke-width="0.5" stroke-linecap="butt"/><path d="M78.49207,234.50005c-1.14676,0 -2.07639,-0.97004 -2.07639,-2.16666c0,-1.19662 0.92963,-2.16667 2.07639,-2.16667c1.14676,0 2.07639,0.97005 2.07639,2.16667c0,1.19661 -0.92963,2.16666 -2.07639,2.16666z" data-paper-data="{&quot;index&quot;:null}" fill="#703100" stroke="#703100" stroke-width="0.5" stroke-linecap="butt"/><path d="M54.85319,234.66671c-1.14675,0 -2.07639,-0.97004 -2.07639,-2.16666c0,-1.19661 0.92964,-2.16666 2.07639,-2.16666c1.14675,0 2.07639,0.97004 2.07639,2.16666c0,1.19661 -0.92964,2.16666 -2.07639,2.16666z" data-paper-data="{&quot;index&quot;:null}" fill="#703100" stroke="#703100" stroke-width="0.5" stroke-linecap="butt"/><path d="M43.77495,196.4063v-43.76471h46v43.76471z" data-paper-data="{&quot;index&quot;:null}" fill="url(#color-10)" stroke="#703100" stroke-width="4" stroke-linecap="butt"/><path d="M78.33235,166.16671c-1.14676,0 -2.07639,-0.97004 -2.07639,-2.16666c0,-1.19662 0.92963,-2.16667 2.07639,-2.16667c1.14676,0 2.07639,0.97005 2.07639,2.16667c0,1.19661 -0.92963,2.16666 -2.07639,2.16666z" data-paper-data="{&quot;index&quot;:null}" fill="#703100" stroke="#703100" stroke-width="0.5" stroke-linecap="butt"/><path d="M54.85317,166.16671c-1.14675,0 -2.07639,-0.97004 -2.07639,-2.16666c0,-1.19662 0.92964,-2.16667 2.07639,-2.16667c1.14676,0 2.07639,0.97005 2.07639,2.16667c0,1.19661 -0.92964,2.16666 -2.07639,2.16666z" data-paper-data="{&quot;index&quot;:null}" fill="#703100" stroke="#713301" stroke-width="0.5" stroke-linecap="butt"/><path d="M78.49207,188.00005c-1.14676,0 -2.07639,-0.97005 -2.07639,-2.16667c0,-1.19661 0.92963,-2.16666 2.07639,-2.16666c1.14676,0 2.07639,0.97004 2.07639,2.16666c0,1.19662 -0.92963,2.16667 -2.07639,2.16667z" data-paper-data="{&quot;index&quot;:null}" fill="#703100" stroke="#703100" stroke-width="0.5" stroke-linecap="butt"/><path d="M54.85319,188.16671c-1.14675,0 -2.07639,-0.97004 -2.07639,-2.16666c0,-1.19662 0.92964,-2.16667 2.07639,-2.16667c1.14675,0 2.07639,0.97005 2.07639,2.16667c0,1.19661 -0.92964,2.16666 -2.07639,2.16666z" data-paper-data="{&quot;index&quot;:null}" fill="#703100" stroke="#703100" stroke-width="0.5" stroke-linecap="butt"/><path d="M43.77495,149.4063v-43.76471h46v43.76471z" data-paper-data="{&quot;index&quot;:null}" fill="url(#color-11)" stroke="#703100" stroke-width="4" stroke-linecap="butt"/><path d="M78.33234,119.16671c-1.14676,0 -2.07639,-0.97004 -2.07639,-2.16666c0,-1.19662 0.92963,-2.16667 2.07639,-2.16667c1.14676,0 2.07639,0.97005 2.07639,2.16667c0,1.19661 -0.92963,2.16666 -2.07639,2.16666z" data-paper-data="{&quot;index&quot;:null}" fill="#703100" stroke="#703100" stroke-width="0.5" stroke-linecap="butt"/><path d="M54.85318,119.16671c-1.14675,0 -2.07639,-0.97004 -2.07639,-2.16666c0,-1.19662 0.92964,-2.16667 2.07639,-2.16667c1.14676,0 2.07639,0.97005 2.07639,2.16667c0,1.19661 -0.92963,2.16666 -2.07639,2.16666z" data-paper-data="{&quot;index&quot;:null}" fill="#703100" stroke="#713301" stroke-width="0.5" stroke-linecap="butt"/><path d="M78.49208,141.00006c-1.14676,0 -2.07639,-0.97005 -2.07639,-2.16667c0,-1.19661 0.92963,-2.16666 2.07639,-2.16666c1.14675,0 2.07638,0.97004 2.07638,2.16666c0,1.19662 -0.92962,2.16667 -2.07638,2.16667z" data-paper-data="{&quot;index&quot;:null}" fill="#703100" stroke="#703100" stroke-width="0.5" stroke-linecap="butt"/><path d="M54.85319,141.16671c-1.14676,0 -2.07639,-0.97004 -2.07639,-2.16666c0,-1.19662 0.92963,-2.16667 2.07639,-2.16667c1.14676,0 2.07639,0.97005 2.07639,2.16667c0,1.19661 -0.92963,2.16666 -2.07639,2.16666z" data-paper-data="{&quot;index&quot;:null}" fill="#703100" stroke="#703100" stroke-width="0.5" stroke-linecap="butt"/><path d="M-5.22505,289.4063v-43.76471h46v43.76471z" data-paper-data="{&quot;index&quot;:null}" fill="url(#color-12)" stroke="#703100" stroke-width="4" stroke-linecap="butt"/><path d="M29.33235,259.16671c-1.14676,0 -2.07639,-0.97004 -2.07639,-2.16666c0,-1.19662 0.92963,-2.16667 2.07639,-2.16667c1.14676,0 2.07639,0.97005 2.07639,2.16667c0,1.19661 -0.92963,2.16666 -2.07639,2.16666z" data-paper-data="{&quot;index&quot;:null}" fill="#703100" stroke="#703100" stroke-width="0.5" stroke-linecap="butt"/><path d="M5.85317,259.16671c-1.14675,0 -2.07639,-0.97004 -2.07639,-2.16666c0,-1.19662 0.92964,-2.16667 2.07639,-2.16667c1.14676,0 2.07639,0.97005 2.07639,2.16667c0,1.19661 -0.92964,2.16666 -2.07639,2.16666z" data-paper-data="{&quot;index&quot;:null}" fill="#703100" stroke="#713301" stroke-width="0.5" stroke-linecap="butt"/><path d="M29.49206,281.00006c-1.14676,0 -2.07639,-0.97005 -2.07639,-2.16667c0,-1.19661 0.92963,-2.16666 2.07639,-2.16666c1.14676,0 2.07639,0.97004 2.07639,2.16666c0,1.19662 -0.92963,2.16667 -2.07639,2.16667z" data-paper-data="{&quot;index&quot;:null}" fill="#703100" stroke="#703100" stroke-width="0.5" stroke-linecap="butt"/><path d="M5.85319,281.16671c-1.14675,0 -2.07639,-0.97004 -2.07639,-2.16666c0,-1.19662 0.92964,-2.16667 2.07639,-2.16667c1.14675,0 2.07639,0.97005 2.07639,2.16667c0,1.19661 -0.92964,2.16666 -2.07639,2.16666z" data-paper-data="{&quot;index&quot;:null}" fill="#703100" stroke="#703100" stroke-width="0.5" stroke-linecap="butt"/><path d="M-5.22505,242.9063v-43.76471h46v43.76471z" data-paper-data="{&quot;index&quot;:null}" fill="url(#color-13)" stroke="#703100" stroke-width="4" stroke-linecap="butt"/><path d="M29.33235,212.66671c-1.14676,0 -2.07639,-0.97004 -2.07639,-2.16666c0,-1.19661 0.92963,-2.16666 2.07639,-2.16666c1.14676,0 2.07639,0.97004 2.07639,2.16666c0,1.19661 -0.92963,2.16666 -2.07639,2.16666z" data-paper-data="{&quot;index&quot;:null}" fill="#703100" stroke="#703100" stroke-width="0.5" stroke-linecap="butt"/><path d="M5.85317,212.66671c-1.14675,0 -2.07639,-0.97004 -2.07639,-2.16666c0,-1.19661 0.92964,-2.16666 2.07639,-2.16666c1.14676,0 2.07639,0.97004 2.07639,2.16666c0,1.19661 -0.92964,2.16666 -2.07639,2.16666z" data-paper-data="{&quot;index&quot;:null}" fill="#703100" stroke="#713301" stroke-width="0.5" stroke-linecap="butt"/><path d="M29.49206,234.50005c-1.14676,0 -2.07639,-0.97004 -2.07639,-2.16666c0,-1.19662 0.92963,-2.16667 2.07639,-2.16667c1.14676,0 2.07639,0.97005 2.07639,2.16667c0,1.19661 -0.92963,2.16666 -2.07639,2.16666z" data-paper-data="{&quot;index&quot;:null}" fill="#703100" stroke="#703100" stroke-width="0.5" stroke-linecap="butt"/><path d="M5.85319,234.66671c-1.14675,0 -2.07639,-0.97004 -2.07639,-2.16666c0,-1.19661 0.92964,-2.16666 2.07639,-2.16666c1.14675,0 2.07639,0.97004 2.07639,2.16666c0,1.19661 -0.92964,2.16666 -2.07639,2.16666z" data-paper-data="{&quot;index&quot;:null}" fill="#703100" stroke="#703100" stroke-width="0.5" stroke-linecap="butt"/><path d="M-5.22505,196.4063v-43.76471h46v43.76471z" data-paper-data="{&quot;index&quot;:null}" fill="url(#color-14)" stroke="#703100" stroke-width="4" stroke-linecap="butt"/><path d="M29.33235,166.16671c-1.14676,0 -2.07639,-0.97004 -2.07639,-2.16666c0,-1.19662 0.92963,-2.16667 2.07639,-2.16667c1.14676,0 2.07639,0.97005 2.07639,2.16667c0,1.19661 -0.92963,2.16666 -2.07639,2.16666z" data-paper-data="{&quot;index&quot;:null}" fill="#703100" stroke="#703100" stroke-width="0.5" stroke-linecap="butt"/><path d="M5.85317,166.16671c-1.14675,0 -2.07639,-0.97004 -2.07639,-2.16666c0,-1.19662 0.92964,-2.16667 2.07639,-2.16667c1.14676,0 2.07639,0.97005 2.07639,2.16667c0,1.19661 -0.92964,2.16666 -2.07639,2.16666z" data-paper-data="{&quot;index&quot;:null}" fill="#703100" stroke="#713301" stroke-width="0.5" stroke-linecap="butt"/><path d="M29.49206,188.00005c-1.14676,0 -2.07639,-0.97005 -2.07639,-2.16667c0,-1.19661 0.92963,-2.16666 2.07639,-2.16666c1.14676,0 2.07639,0.97004 2.07639,2.16666c0,1.19662 -0.92963,2.16667 -2.07639,2.16667z" data-paper-data="{&quot;index&quot;:null}" fill="#703100" stroke="#703100" stroke-width="0.5" stroke-linecap="butt"/><path d="M5.85319,188.16671c-1.14675,0 -2.07639,-0.97004 -2.07639,-2.16666c0,-1.19662 0.92964,-2.16667 2.07639,-2.16667c1.14675,0 2.07639,0.97005 2.07639,2.16667c0,1.19661 -0.92964,2.16666 -2.07639,2.16666z" data-paper-data="{&quot;index&quot;:null}" fill="#703100" stroke="#703100" stroke-width="0.5" stroke-linecap="butt"/><path d="M-5.22505,149.4063v-43.76471h46v43.76471z" data-paper-data="{&quot;index&quot;:null}" fill="url(#color-15)" stroke="#703100" stroke-width="4" stroke-linecap="butt"/><path d="M29.33235,119.16671c-1.14676,0 -2.07639,-0.97004 -2.07639,-2.16666c0,-1.19662 0.92963,-2.16667 2.07639,-2.16667c1.14676,0 2.07639,0.97005 2.07639,2.16667c0,1.19661 -0.92963,2.16666 -2.07639,2.16666z" data-paper-data="{&quot;index&quot;:null}" fill="#703100" stroke="#703100" stroke-width="0.5" stroke-linecap="butt"/><path d="M5.85318,119.16671c-1.14675,0 -2.0764,-0.97004 -2.0764,-2.16666c0,-1.19662 0.92964,-2.16667 2.0764,-2.16667c1.14676,0 2.07638,0.97005 2.07638,2.16667c0,1.19661 -0.92962,2.16666 -2.07638,2.16666z" data-paper-data="{&quot;index&quot;:null}" fill="#703100" stroke="#713301" stroke-width="0.5" stroke-linecap="butt"/><path d="M29.49208,141.00006c-1.14676,0 -2.07639,-0.97005 -2.07639,-2.16667c0,-1.19661 0.92963,-2.16666 2.07639,-2.16666c1.14675,0 2.07638,0.97004 2.07638,2.16666c0,1.19662 -0.92962,2.16667 -2.07638,2.16667z" data-paper-data="{&quot;index&quot;:null}" fill="#703100" stroke="#703100" stroke-width="0.5" stroke-linecap="butt"/><path d="M5.85319,141.16671c-1.14676,0 -2.07639,-0.97004 -2.07639,-2.16666c0,-1.19662 0.92963,-2.16667 2.07639,-2.16667c1.14676,0 2.07639,0.97005 2.07639,2.16667c0,1.19661 -0.92963,2.16666 -2.07639,2.16666z" data-paper-data="{&quot;index&quot;:null}" fill="#703100" stroke="#703100" stroke-width="0.5" stroke-linecap="butt"/><path d="M-5.22505,102.4063v-43.76471h46v43.76471z" data-paper-data="{&quot;index&quot;:null}" fill="url(#color-16)" stroke="#703100" stroke-width="4" stroke-linecap="butt"/><path d="M29.33235,72.16671c-1.14676,0 -2.07639,-0.97004 -2.07639,-2.16666c0,-1.19662 0.92963,-2.16667 2.07639,-2.16667c1.14676,0 2.07639,0.97005 2.07639,2.16667c0,1.19661 -0.92963,2.16666 -2.07639,2.16666z" data-paper-data="{&quot;index&quot;:null}" fill="#703100" stroke="#703100" stroke-width="0.5" stroke-linecap="butt"/><path d="M5.85318,72.16671c-1.14675,0 -2.07639,-0.97004 -2.07639,-2.16666c0,-1.19662 0.92963,-2.16667 2.07639,-2.16667c1.14676,0 2.07639,0.97005 2.07639,2.16667c0,1.19661 -0.92963,2.16666 -2.07639,2.16666z" data-paper-data="{&quot;index&quot;:null}" fill="#703100" stroke="#713301" stroke-width="0.5" stroke-linecap="butt"/><path d="M29.49208,94.00006c-1.14676,0 -2.07639,-0.97005 -2.07639,-2.16667c0,-1.19661 0.92963,-2.16666 2.07639,-2.16666c1.14675,0 2.07638,0.97004 2.07638,2.16666c0,1.19662 -0.92962,2.16667 -2.07638,2.16667z" data-paper-data="{&quot;index&quot;:null}" fill="#703100" stroke="#703100" stroke-width="0.5" stroke-linecap="butt"/><path d="M5.85319,94.16671c-1.14676,0 -2.07639,-0.97004 -2.07639,-2.16666c0,-1.19662 0.92963,-2.16667 2.07639,-2.16667c1.14676,0 2.07639,0.97005 2.07639,2.16667c0,1.19661 -0.92963,2.16666 -2.07639,2.16666z" data-paper-data="{&quot;index&quot;:null}" fill="#703100" stroke="#703100" stroke-width="0.5" stroke-linecap="butt"/><path d="M390.27344,390.0938v-220h114.21496v220z" fill="#98763d" stroke="none" stroke-width="0" stroke-linecap="butt"/><path d="M390.63064,173.98702v-26.89326h114.19118v26.89326l-6.37108,1.75726l-10.37359,10.64086l-10.08819,-11.9986l-9.60292,10.37815l-9.60869,-10.67969l-10.23706,8.22474l-9.52865,-9.40523l-13.5726,12.49333l-10.07175,-13.2091l-13.26327,10.7627z" fill="url(#color-17)" stroke="#08a310" stroke-width="3" stroke-linecap="butt"/><path d="M425.67385,218.43998l-8.87184,-13.22785l6.05447,-3.87501l16.87004,15.94784l1.16689,7.40281z" data-paper-data="{&quot;index&quot;:null}" fill="#774b00" stroke="#703100" stroke-width="2" stroke-linecap="round"/><path d="M467.67385,276.43998l-8.87184,-13.22785l6.05447,-3.87501l16.87004,15.94784l1.16689,7.40281z" data-paper-data="{&quot;index&quot;:null}" fill="#774b00" stroke="#703100" stroke-width="2" stroke-linecap="round"/><path d="M424.67385,323.43998l-8.87184,-13.22785l6.05447,-3.87501l16.87004,15.94784l1.16689,7.40281z" data-paper-data="{&quot;index&quot;:null}" fill="#774b00" stroke="#703100" stroke-width="2" stroke-linecap="round"/></g></g></svg>