<svg version="1.1" xmlns="http://www.w3.org/2000/svg" xmlns:xlink="http://www.w3.org/1999/xlink" width="559.30954" height="290.50004" viewBox="0,0,559.30954,290.50004"><defs><linearGradient x1="237.83728" y1="291.09374" x2="237.83728" y2="330.38516" gradientUnits="userSpaceOnUse" id="color-1"><stop offset="0" stop-color="#17ff22"/><stop offset="1" stop-color="#02d10c"/></linearGradient><linearGradient x1="352.41556" y1="250.3125" x2="352.41556" y2="289.3125" gradientUnits="userSpaceOnUse" id="color-2"><stop offset="0" stop-color="#c6964f"/><stop offset="1" stop-color="#a98044"/></linearGradient><linearGradient x1="483.92821" y1="77.09374" x2="483.92821" y2="116.38516" gradientUnits="userSpaceOnUse" id="color-3"><stop offset="0" stop-color="#17ff22"/><stop offset="1" stop-color="#02d10c"/></linearGradient></defs><g transform="translate(13.22656,-75.59376)"><g data-paper-data="{&quot;isPaintingLayer&quot;:true}" fill-rule="nonzero" stroke-linejoin="miter" stroke-miterlimit="10" stroke-dasharray="" stroke-dashoffset="0" style="mix-blend-mode: normal"><path d="M179.06903,337.68777l1.16689,-7.40281l16.87004,-15.94784l6.05447,3.87501l-8.87184,13.22785z" data-paper-data="{&quot;index&quot;:null}" fill="#774b00" stroke="#703100" stroke-width="2" stroke-linecap="round"/><path d="M-10.26919,366.0938v-52h499.23163v52z" data-paper-data="{&quot;index&quot;:null}" fill="#98763d" stroke="none" stroke-width="0" stroke-linecap="butt"/><path d="M437.25117,326.95144l-57.97352,-10.7627l-44.02345,13.2091l-59.3256,-12.49333l-41.64956,9.40523l-44.74602,-8.22474l-41.99942,10.67969l-41.97419,-10.37815l-44.09531,11.9986l-45.34278,-10.64086l-27.84788,-1.75726v-26.89326h499.12769v26.89326z" data-paper-data="{&quot;index&quot;:null}" fill="url(#color-1)" stroke="#08a310" stroke-width="3" stroke-linecap="butt"/><path d="M317.06903,349.68777l1.16689,-7.40281l16.87004,-15.94784l6.05447,3.87501l-8.87184,13.22785z" data-paper-data="{&quot;index&quot;:null}" fill="#774b00" stroke="#703100" stroke-width="2" stroke-linecap="round"/><path d="M224.06903,349.68777l1.16689,-7.40281l16.87004,-15.94784l6.05447,3.87501l-8.87184,13.22785z" data-paper-data="{&quot;index&quot;:null}" fill="#774b00" stroke="#703100" stroke-width="2" stroke-linecap="round"/><path d="M139.06903,361.68777l1.16689,-7.40281l16.87004,-15.94784l6.05447,3.87501l-8.87184,13.22785z" data-paper-data="{&quot;index&quot;:null}" fill="#774b00" stroke="#703100" stroke-width="2" stroke-linecap="round"/><path d="M31.06903,354.68777l1.16689,-7.40281l16.87004,-15.94784l6.05447,3.87501l-8.87184,13.22785z" data-paper-data="{&quot;index&quot;:null}" fill="#774b00" stroke="#703100" stroke-width="2" stroke-linecap="round"/><path d="M386.06903,355.68777l1.16689,-7.40281l16.87004,-15.94784l6.05447,3.87501l-8.87184,13.22785z" data-paper-data="{&quot;index&quot;:null}" fill="#774b00" stroke="#703100" stroke-width="2" stroke-linecap="round"/><path d="M314.91556,289.3125v-39h75v39z" fill="url(#color-2)" stroke="#826334" stroke-width="2.5" stroke-linecap="butt"/><path d="M423.62765,365.0938v-265h121.3348v265z" data-paper-data="{&quot;index&quot;:null}" fill="#98763d" stroke="none" stroke-width="0" stroke-linecap="butt"/><path d="M532.39438,112.95144l-14.09006,-10.7627l-10.69959,13.2091l-14.41868,-12.49333l-10.12264,9.40523l-10.87521,-8.22474l-10.20767,10.67969l-10.20154,-10.37815l-10.71706,11.9986l-11.02025,-10.64086l-6.76824,-1.75726v-26.89326h121.30954v26.89326z" data-paper-data="{&quot;index&quot;:null}" fill="url(#color-3)" stroke="#08a310" stroke-width="3" stroke-linecap="butt"/><path d="M502.78478,188.68777l0.67718,-7.40281l9.79021,-15.94784l3.5136,3.87501l-5.1486,13.22785z" data-paper-data="{&quot;index&quot;:null}" fill="#774b00" stroke="#703100" stroke-width="2" stroke-linecap="round"/><path d="M452.10904,152.68777l0.67719,-7.40281l9.79021,-15.94784l3.5136,3.87501l-5.1486,13.22785z" data-paper-data="{&quot;index&quot;:null}" fill="#774b00" stroke="#703100" stroke-width="2" stroke-linecap="round"/><path d="M457.78478,250.68777l0.67718,-7.40281l9.79021,-15.94784l3.5136,3.87501l-5.1486,13.22785z" data-paper-data="{&quot;index&quot;:null}" fill="#774b00" stroke="#703100" stroke-width="2" stroke-linecap="round"/><path d="M479.78478,316.68777l0.67718,-7.40281l9.79021,-15.94784l3.5136,3.87501l-5.1486,13.22785z" data-paper-data="{&quot;index&quot;:null}" fill="#774b00" stroke="#703100" stroke-width="2" stroke-linecap="round"/></g></g></svg>