<svg version="1.1" xmlns="http://www.w3.org/2000/svg" xmlns:xlink="http://www.w3.org/1999/xlink" width="271.71985" height="157.33403" viewBox="0,0,271.71985,157.33403"><defs><linearGradient x1="354.65386" y1="169.38787" x2="354.65386" y2="197.63915" gradientUnits="userSpaceOnUse" id="color-1"><stop offset="0" stop-color="#d21515"/><stop offset="1" stop-color="#940000"/></linearGradient><linearGradient x1="341.22198" y1="214.41697" x2="341.22198" y2="249.82119" gradientUnits="userSpaceOnUse" id="color-2"><stop offset="0" stop-color="#364ec7"/><stop offset="1" stop-color="#001371"/></linearGradient><linearGradient x1="344.69243" y1="243.39387" x2="344.69243" y2="257.50608" gradientUnits="userSpaceOnUse" id="color-3"><stop offset="0" stop-color="#a6680a"/><stop offset="1" stop-color="#6c4306"/></linearGradient><linearGradient x1="330.07516" y1="162.58105" x2="330.07516" y2="221.78101" gradientUnits="userSpaceOnUse" id="color-4"><stop offset="0" stop-color="#364ec7"/><stop offset="1" stop-color="#001371"/></linearGradient><linearGradient x1="331.66483" y1="167.89431" x2="331.66483" y2="188.4161" gradientUnits="userSpaceOnUse" id="color-5"><stop offset="0" stop-color="#d21515"/><stop offset="1" stop-color="#940000"/></linearGradient><linearGradient x1="330.51095" y1="123.59665" x2="330.51095" y2="174.2091" gradientUnits="userSpaceOnUse" id="color-6"><stop offset="0" stop-color="#ffefc0"/><stop offset="1" stop-color="#e0ce98"/></linearGradient><linearGradient x1="330.63481" y1="104.66052" x2="330.63481" y2="138.57001" gradientUnits="userSpaceOnUse" id="color-7"><stop offset="0" stop-color="#d21515"/><stop offset="1" stop-color="#940000"/></linearGradient><linearGradient x1="348.2489" y1="125.05436" x2="348.2489" y2="132.71789" gradientUnits="userSpaceOnUse" id="color-8"><stop offset="0" stop-color="#d21515"/><stop offset="1" stop-color="#940000"/></linearGradient><linearGradient x1="356.99924" y1="146.17124" x2="356.99924" y2="162.88114" gradientUnits="userSpaceOnUse" id="color-9"><stop offset="0" stop-color="#ffefc0"/><stop offset="1" stop-color="#e0ce98"/></linearGradient><linearGradient x1="307.75291" y1="138.50648" x2="307.75291" y2="149.81043" gradientUnits="userSpaceOnUse" id="color-10"><stop offset="0" stop-color="#ffefc0"/><stop offset="1" stop-color="#e0ce98"/></linearGradient><linearGradient x1="319.98692" y1="214.75301" x2="319.98692" y2="249.8782" gradientUnits="userSpaceOnUse" id="color-11"><stop offset="0" stop-color="#364ec7"/><stop offset="1" stop-color="#001371"/></linearGradient><linearGradient x1="321.81623" y1="243.87439" x2="321.81623" y2="258.59287" gradientUnits="userSpaceOnUse" id="color-12"><stop offset="0" stop-color="#a6680a"/><stop offset="1" stop-color="#6c4306"/></linearGradient><linearGradient x1="304.87068" y1="171.22411" x2="304.87068" y2="197.45236" gradientUnits="userSpaceOnUse" id="color-13"><stop offset="0" stop-color="#d21515"/><stop offset="1" stop-color="#940000"/></linearGradient><linearGradient x1="161.41223" y1="214.09691" x2="161.41223" y2="250.07687" gradientUnits="userSpaceOnUse" id="color-14"><stop offset="0" stop-color="#364ec7"/><stop offset="1" stop-color="#001371"/></linearGradient><linearGradient x1="164.93266" y1="243.54501" x2="164.93266" y2="257.13671" gradientUnits="userSpaceOnUse" id="color-15"><stop offset="0" stop-color="#a6680a"/><stop offset="1" stop-color="#6c4205"/></linearGradient><linearGradient x1="171.37644" y1="168.9109" x2="171.37644" y2="199.18454" gradientUnits="userSpaceOnUse" id="color-16"><stop offset="0" stop-color="#20de16"/><stop offset="1" stop-color="#158e0e"/></linearGradient><linearGradient x1="151.07231" y1="162.59478" x2="151.07231" y2="221.5807" gradientUnits="userSpaceOnUse" id="color-17"><stop offset="0" stop-color="#364ec7"/><stop offset="1" stop-color="#001371"/></linearGradient><linearGradient x1="152.5126" y1="166.8177" x2="152.5126" y2="187.67321" gradientUnits="userSpaceOnUse" id="color-18"><stop offset="0" stop-color="#20de16"/><stop offset="1" stop-color="#158e0e"/></linearGradient><linearGradient x1="141.27718" y1="213.42214" x2="141.27718" y2="249.11854" gradientUnits="userSpaceOnUse" id="color-19"><stop offset="0" stop-color="#364ec7"/><stop offset="1" stop-color="#001371"/></linearGradient><linearGradient x1="141.35646" y1="244.03335" x2="141.35646" y2="257.24118" gradientUnits="userSpaceOnUse" id="color-20"><stop offset="0" stop-color="#a6680a"/><stop offset="1" stop-color="#6c4205"/></linearGradient><linearGradient x1="129.08194" y1="168.73898" x2="129.08194" y2="197.32866" gradientUnits="userSpaceOnUse" id="color-21"><stop offset="0" stop-color="#20de16"/><stop offset="1" stop-color="#158e0e"/></linearGradient><linearGradient x1="152.3245" y1="119.31033" x2="152.3245" y2="172.20263" gradientUnits="userSpaceOnUse" id="color-22"><stop offset="0" stop-color="#ffefc0"/><stop offset="1" stop-color="#e0ce98"/></linearGradient><linearGradient x1="151.2802" y1="102.50884" x2="151.2802" y2="134.80511" gradientUnits="userSpaceOnUse" id="color-23"><stop offset="0" stop-color="#20de16"/><stop offset="1" stop-color="#158e0e"/></linearGradient><linearGradient x1="165.24265" y1="121.64667" x2="165.24265" y2="129.57707" gradientUnits="userSpaceOnUse" id="color-24"><stop offset="0" stop-color="#20de16"/><stop offset="1" stop-color="#158e0e"/></linearGradient><linearGradient x1="175.78202" y1="142.67103" x2="175.78202" y2="160.22151" gradientUnits="userSpaceOnUse" id="color-25"><stop offset="0" stop-color="#ffefc0"/><stop offset="1" stop-color="#e0ce98"/></linearGradient></defs><g transform="translate(-105.79842,-102.00883)"><g data-paper-data="{&quot;isPaintingLayer&quot;:true}" fill-rule="nonzero" stroke-linejoin="miter" stroke-miterlimit="10" stroke-dasharray="" stroke-dashoffset="0" style="mix-blend-mode: normal"><g data-paper-data="{&quot;origPos&quot;:null}" stroke-width="1.5" stroke-linecap="butt"><path d="M343.5839,169.99444c2.75322,-2.25446 9.94135,1.97064 16.05511,9.43702c6.11377,7.46638 8.83803,15.34665 6.0848,17.60112c-2.75324,2.25446 -9.94136,-1.97063 -16.05511,-9.43701c-6.11377,-7.46638 -8.83803,-15.34668 -6.08479,-17.60112z" data-paper-data="{&quot;origRot&quot;:0,&quot;origPos&quot;:null,&quot;index&quot;:null}" fill="url(#color-1)" stroke="#940000"/><path d="M366.61202,189.41068c5.60914,0 10.15625,4.69379 10.15625,10.48386c0,5.79008 -4.5471,10.48386 -10.15625,10.48386c-5.60912,0 -10.15625,-4.69379 -10.15625,-10.48386c0,-5.79008 4.54711,-10.48386 10.15625,-10.48386z" data-paper-data="{&quot;origPos&quot;:null,&quot;index&quot;:null}" fill="#ffffff" stroke="#bfbfbf"/></g><g data-paper-data="{&quot;origPos&quot;:null}" stroke-width="1.5" stroke-linecap="butt"><path d="M350.42482,229.96923c0.4304,3.46996 -0.38477,9.57506 -0.80484,13.04622c-0.60413,4.99206 -2.47038,5.79114 -7.60614,6.39258c-5.15866,0.60413 -6.67558,1.23342 -8.48206,-3.50047c-1.24252,-3.25603 0.77249,-10.55265 0.34486,-14.00036c-1.2628,-10.18101 -4.03398,-16.92601 0.60523,-17.46931c0,0 7.49004,-0.29825 8.97246,1.35716c0,0 3.30405,-1.94866 4.59979,0.95312c1.3047,2.92187 1.10791,3.04005 2.3707,13.22106z" data-paper-data="{&quot;origPos&quot;:null,&quot;origRot&quot;:0}" fill="url(#color-2)" stroke="#001371"/><path d="M353.68819,246.75481c4.95801,3.19042 2.83269,7.10483 0.34599,8.69775c-3.01121,1.92892 -12.5986,2.85295 -17.69305,1.18816c-5.09444,-1.66479 -3.28117,-2.83589 -3.53013,-4.62651c-0.55354,-3.98118 2.18398,-7.54143 9.64728,-8.32113c7.4633,-0.77971 6.27192,-0.12869 11.22993,3.06173z" data-paper-data="{&quot;origPos&quot;:null,&quot;origRot&quot;:0}" fill="url(#color-3)" stroke="#6c4306"/></g><path d="" data-paper-data="{&quot;origPos&quot;:null}" fill="#c1770b" stroke="#6c4306" stroke-width="1.5" stroke-linecap="butt"/><g data-paper-data="{&quot;origPos&quot;:null}" stroke-linecap="butt"><path d="M348.9692,192.85576c0,9.26372 2.84091,18.23837 -2.69239,25.3177c-3.54659,4.53753 -10.70286,3.50701 -16.20164,3.50701c-5.49877,0 -12.65505,0.73766 -16.20165,-3.79985c-5.5333,-7.07933 -2.69238,-15.76114 -2.69238,-25.02485c0,-15.91945 8.45914,-28.82471 18.89403,-28.82471c0,0 11.73737,-4.40076 15.22571,2.13104c3.4719,6.50102 3.66832,10.77421 3.66832,26.69366z" data-paper-data="{&quot;origPos&quot;:null}" fill="url(#color-4)" stroke="#001371" stroke-width="1.5"/><path d="M339.05212,176.53214c0,2.68857 1.31009,7.12666 -0.34219,8.97831c-1.7848,2.00015 -3.67346,2.91985 -6.1351,2.90548c-2.72608,-0.01592 -4.60612,-1.00217 -6.88148,-2.77355c-2.33853,-1.82055 -1.87025,-5.80478 -1.87025,-9.11024c0,-4.77054 3.40914,-8.63783 7.61452,-8.63783c4.20537,0 7.61451,3.8673 7.61451,8.63783z" data-paper-data="{&quot;origPos&quot;:null}" fill="url(#color-5)" stroke="none" stroke-width="0"/><path d="M324.41458,184.68768c0,2.23365 -1.96162,4.0444 -4.38142,4.0444c-2.4198,0 -4.38143,-1.81074 -4.38143,-4.0444c0,-2.23365 1.96163,-4.04439 4.38143,-4.04439c2.4198,0 4.38142,1.81074 4.38142,4.04439z" data-paper-data="{&quot;origPos&quot;:null}" fill="#faff66" stroke="none" stroke-width="1.5"/><path d="M347.91589,184.13296c0,2.17864 -1.9133,3.94477 -4.2735,3.94477c-2.36019,0 -4.2735,-1.76612 -4.2735,-3.94477c0,-2.17864 1.91331,-3.94477 4.2735,-3.94477c2.36019,0 4.2735,1.76612 4.2735,3.94477z" data-paper-data="{&quot;origPos&quot;:null}" fill="#faff66" stroke="none" stroke-width="1.5"/></g><g data-paper-data="{&quot;origPos&quot;:null}"><path d="M360.6324,149.98587c0,13.37811 -13.73475,24.22323 -28.56379,24.22323c-14.82904,0 -31.67913,-11.007 -31.67913,-24.38512c0,-4.84199 0.68944,-17.04147 3.19789,-21.12167c5.78078,-9.40291 17.74496,-2.93967 28.48124,-2.93967c0,0 17.47791,-4.07051 23.38966,4.87354c2.80538,4.24433 5.17415,5.97157 5.17415,19.34969z" data-paper-data="{&quot;origPos&quot;:null}" fill="url(#color-6)" stroke="#e0ce98" stroke-width="1" stroke-linecap="butt"/><path d="M358.50909,122.8602c8.09723,14.22755 -29.33424,10.83219 -31.98263,12.69652c-2.60107,1.83102 -0.81879,7.42841 -3.96033,7.42841c-4.40313,0 -9.25612,0.71417 -10.46658,5.11413c-0.70052,2.54638 2.60132,7.50047 0.13667,8.17316c-2.42796,0.66268 -4.70501,2.65189 -7.21096,2.80494c-2.03236,0.12412 -2.35905,-1.8961 -4.39469,-1.9276c-5.79716,-0.08972 0.78824,-11.96655 0.9253,-12.58939c0.04568,-0.20761 -1.20602,-4.44904 -1.20602,-6.50931c0,-11.17434 10.77902,-17.11649 17.8548,-17.11649c7.07578,0 32.2072,-12.30192 40.30444,1.92563z" data-paper-data="{&quot;origPos&quot;:null}" fill="#5a3413" stroke="#351c06" stroke-width="1" stroke-linecap="butt"/><path d="M357.91427,162.43729c0,0.93673 -1.03545,2.26869 -1.13658,3.19959c-0.21477,1.97699 -1.58685,3.01897 -3.51269,3.10762c-2.12553,0.09786 -3.01604,-2.04326 -5.14035,-2.16621c-1.47465,-0.08537 -1.53991,1.74597 -3.01688,1.74597c-1.60871,0 -1.59206,-1.47457 -3.17663,-1.76096c-2.16384,-0.39108 -2.86624,1.73159 -4.82742,0.71024c-1.02557,-0.53411 -2.61762,-2.77623 -3.25007,-3.76589c-2.00221,-3.13303 -6.90647,-7.24457 -2.50601,-8.38529c2.1651,-0.56126 8.33282,5.18914 10.56518,5.18914c0,0 3.73999,-0.01695 5.59794,0.08157c4.21276,0.22336 10.4035,-2.38936 10.4035,2.04422z" data-paper-data="{&quot;origPos&quot;:null}" fill="#5a3413" stroke="#351c06" stroke-width="1" stroke-linecap="butt"/><path d="M361.87853,125.32832c0,10.22611 -12.29169,3.93148 -29.30368,3.93148c-4.11857,0 -9.56963,8.43304 -13.688,8.3958c-5.83861,-0.05278 -13.19319,2.54455 -17.80513,-0.78743c-3.25572,-2.35216 -0.80907,-7.7045 -0.80907,-11.53986c0,-8.66476 9.69318,-8.78997 18.09413,-12.52798c6.1066,-2.71713 5.93994,-7.5099 12.70881,-7.5099c0,0 13.85643,-1.8789 21.91934,0.85332c9.12834,3.09325 8.8836,8.95845 8.8836,19.18456z" data-paper-data="{&quot;origPos&quot;:null}" fill="url(#color-7)" stroke="#940000" stroke-width="1" stroke-linecap="butt"/><path d="M372.37333,131.14558c0,3.36409 -10.25569,0.28331 -23.57925,0.28331c-13.32355,0 -24.66962,3.08078 -24.66962,-0.28331c0,-3.36409 10.80087,-6.09122 24.12443,-6.09122c13.32355,0 24.12443,2.72713 24.12443,6.09122z" data-paper-data="{&quot;origPos&quot;:null}" fill="url(#color-8)" stroke="#940000" stroke-width="1" stroke-linecap="butt"/><path d="M356.48394,119.00477c0,2.07307 0.30737,3.50338 -1.23203,4.82162c-1.32872,1.13783 -8.88182,0.83961 -10.13715,-0.07455c-1.7882,-1.30221 -1.07033,-2.47775 -1.07033,-4.74707c0,-3.38707 2.78469,-6.13285 6.21977,-6.13285c3.43508,0 6.21976,2.74578 6.21976,6.13285z" data-paper-data="{&quot;origPos&quot;:null}" fill="#ffffff" stroke="#a4a4a4" stroke-width="1" stroke-linecap="butt"/><path d="M348.88145,143.83591c0,3.99999 -2.08558,7.24263 -4.65827,7.24263c-2.57269,0 -4.65827,-3.24264 -4.65827,-7.24263c0,-3.99999 2.08558,-7.24264 4.65827,-7.24264c2.57269,0 4.65827,3.24264 4.65827,7.24264z" data-paper-data="{&quot;origPos&quot;:null}" fill="#ffffff" stroke="none" stroke-width="0" stroke-linecap="butt"/><path d="M346.59388,121.89745l1.71344,-5.34246l2.02498,3.56164l1.55767,-3.72353l2.3365,5.01868" data-paper-data="{&quot;origPos&quot;:null}" fill="none" stroke="#ba0000" stroke-width="1" stroke-linecap="round"/><path d="M340.53295,135.87833c0,0 3.51435,-0.56784 4.22549,-0.44572c1.27172,0.21838 3.47173,1.77246 3.47173,1.77246" data-paper-data="{&quot;origPos&quot;:null,&quot;origRot&quot;:0}" fill="none" stroke="#351c06" stroke-width="1.5" stroke-linecap="round"/><path d="M348.90994,143.52473c0,2.65462 -1.3841,4.8066 -3.09148,4.8066c-1.70738,0 -3.09148,-2.152 -3.09148,-4.8066c0,-2.65462 1.38411,-4.8066 3.09148,-4.8066c1.70738,0 3.09148,2.152 3.09148,4.8066z" data-paper-data="{&quot;origPos&quot;:null}" fill="#1121d4" stroke="none" stroke-width="0" stroke-linecap="butt"/><path d="M348.97722,143.38514c0,1.37271 -0.71572,2.4855 -1.59861,2.4855c-0.8829,0 -1.59861,-1.1128 -1.59861,-2.4855c0,-1.37271 0.71573,-2.4855 1.59861,-2.4855c0.8829,0 1.59861,1.1128 1.59861,2.4855z" data-paper-data="{&quot;origPos&quot;:null}" fill="#000000" stroke="none" stroke-width="0" stroke-linecap="butt"/><path d="M355.16295,135.96594c2.13325,0 3.8626,2.68875 3.8626,6.0055c0,3.31675 -1.72934,6.0055 -3.8626,6.0055c-2.13325,0 -3.8626,-2.68875 -3.8626,-6.0055c0,-3.31675 1.72934,-6.0055 3.8626,-6.0055z" data-paper-data="{&quot;origPos&quot;:null,&quot;index&quot;:null}" fill="#ffffff" stroke="none" stroke-width="0" stroke-linecap="butt"/><path d="M352.17604,136.37996c0,0 1.82422,-1.28863 2.87872,-1.46971c0.58967,-0.10126 3.50373,0.36959 3.50373,0.36959" data-paper-data="{&quot;origPos&quot;:null,&quot;origRot&quot;:0,&quot;index&quot;:null}" fill="none" stroke="#351c06" stroke-width="1.5" stroke-linecap="round"/><path d="M356.58257,137.84529c1.41573,0 2.56343,1.78441 2.56343,3.98557c0,2.20117 -1.14768,3.98557 -2.56343,3.98557c-1.41573,0 -2.56342,-1.78441 -2.56342,-3.98557c0,-2.20117 1.14768,-3.98557 2.56342,-3.98557z" data-paper-data="{&quot;origPos&quot;:null,&quot;index&quot;:null}" fill="#1121d4" stroke="none" stroke-width="0" stroke-linecap="butt"/><path d="M357.92058,139.77634c0.73209,0 1.32555,0.92272 1.32555,2.06095c0,1.13824 -0.59347,2.06095 -1.32555,2.06095c-0.73209,0 -1.32554,-0.92272 -1.32554,-2.06095c0,-1.13824 0.59347,-2.06095 1.32554,-2.06095z" data-paper-data="{&quot;origPos&quot;:null,&quot;index&quot;:null}" fill="#000000" stroke="none" stroke-width="0" stroke-linecap="butt"/><path d="M368.98693,154.52619c0,4.61431 -5.36707,8.35495 -11.98769,8.35495c-6.62061,0 -11.98769,-3.74063 -11.98769,-8.35495c0,-4.61431 5.36707,-8.35495 11.98769,-8.35495c6.62061,0 11.98769,3.74063 11.98769,8.35495z" data-paper-data="{&quot;origPos&quot;:null}" fill="url(#color-9)" stroke="#e0ce98" stroke-width="1.5" stroke-linecap="butt"/><path d="M314.73522,146.57742c-0.90455,2.82035 -4.76391,4.0237 -8.62013,2.68774c-3.85623,-1.33596 -6.24902,-4.70531 -5.34448,-7.52567c0.90455,-2.82035 4.76391,-4.0237 8.62013,-2.68774c3.85623,1.33596 6.24902,4.70531 5.34448,7.52567z" data-paper-data="{&quot;origRot&quot;:0,&quot;origPos&quot;:null}" fill="url(#color-10)" stroke="#e0ce98" stroke-width="1.5" stroke-linecap="butt"/></g><g data-paper-data="{&quot;origPos&quot;:null}" stroke-width="1.5" stroke-linecap="butt"><path d="M329.44758,231.79351c0,3.44794 -1.56414,9.33395 -2.41029,12.6855c-1.21689,4.82006 -3.17192,5.38864 -8.35489,5.38864c-5.20608,0 -6.79267,0.44235 -8.00558,-4.40136c-0.83424,-3.33157 2.07045,-10.24695 2.07045,-13.67278c0,-10.1164 -1.9244,-17.0405 2.75746,-17.0405c0,0 7.48747,0.567 8.75785,2.3584c3.66296,5.1652 5.185,4.5657 5.185,14.68211z" data-paper-data="{&quot;origPos&quot;:null}" fill="url(#color-11)" stroke="#001371"/><path d="M331.83339,248.30094c4.61964,3.87617 1.88784,7.73559 -0.88346,9.12904c-3.35584,1.68736 -13.29817,1.60626 -18.27449,-0.69016c-4.97631,-2.29641 -2.95416,-3.3225 -2.95416,-5.22131c0,-4.22174 3.30787,-7.64412 11.05606,-7.64412c7.74819,0 6.43641,0.55038 11.05605,4.42656z" data-paper-data="{&quot;origPos&quot;:null}" fill="url(#color-12)" stroke="#6c4306"/></g><g data-paper-data="{&quot;origPos&quot;:null}" stroke-width="1.5" stroke-linecap="butt"><path d="M309.39063,188.99026c-6.96744,6.76961 -14.63932,10.1747 -17.13561,7.60546c-2.49631,-2.56923 1.12828,-10.13987 8.09571,-16.90952c6.96744,-6.76961 14.63932,-10.1747 17.13561,-7.60546c2.49631,2.56923 -1.12828,10.13987 -8.09571,16.90952z" data-paper-data="{&quot;origRot&quot;:0,&quot;origPos&quot;:null}" fill="url(#color-13)" stroke="#940000"/><path d="M301.19795,200.51649c-0.66115,5.79113 -5.74504,9.96655 -11.35521,9.32606c-5.61016,-0.64048 -9.62212,-5.85434 -8.96097,-11.64547c0.66115,-5.79113 5.74504,-9.96655 11.35521,-9.32606c5.61016,0.64048 9.62212,5.85434 8.96097,11.64547z" data-paper-data="{&quot;origPos&quot;:null,&quot;origRot&quot;:0}" fill="#ffffff" stroke="#bfbfbf"/></g><path d="M168.69056,229.90207c0.34039,3.52639 -0.3043,9.73077 -0.63653,13.25838c-0.47779,5.07324 -1.95377,5.88532 -6.01554,6.49654c-4.07988,0.61395 -5.27958,1.25348 -6.70828,-3.55739c-0.98268,-3.30898 0.61095,-10.72426 0.27274,-14.22803c-0.99872,-10.34657 -3.19039,-17.20126 0.47866,-17.7534c0,0 5.92372,-0.3031 7.09613,1.37923c0,0 2.61311,-1.98035 3.63788,0.96862c1.03186,2.96939 0.87622,3.08949 1.87494,13.43606z" data-paper-data="{&quot;origPos&quot;:null,&quot;origRot&quot;:0}" fill="url(#color-14)" stroke="#001371" stroke-width="1.5" stroke-linecap="butt"/><path d="M172.80388,246.782c4.33821,3.07274 2.47858,6.84278 0.30274,8.37694c-2.63478,1.85778 -11.02365,2.74772 -15.48125,1.14433c-4.45758,-1.60338 -2.87099,-2.7313 -3.08883,-4.45587c-0.48434,-3.83434 1.91096,-7.26328 8.44128,-8.01422c6.53031,-0.75095 5.48787,-0.12394 9.82608,2.9488z" data-paper-data="{&quot;origPos&quot;:null,&quot;origRot&quot;:0}" fill="url(#color-15)" stroke="#6c4306" stroke-width="1.5" stroke-linecap="butt"/><path d="M162.4661,169.37011c2.66494,-2.03541 8.81462,2.88596 13.73566,10.99218c4.92105,8.10622 6.74998,16.32762 4.08502,18.36304c-2.66496,2.03541 -8.81463,-2.88595 -13.73566,-10.99217c-4.92105,-8.10622 -6.74998,-16.32765 -4.08501,-18.36304z" data-paper-data="{&quot;origRot&quot;:0,&quot;origPos&quot;:null,&quot;index&quot;:null}" fill="url(#color-16)" stroke="#158e0e" stroke-width="1.5" stroke-linecap="butt"/><path d="M168.19094,192.18506c0,9.41437 2.57396,18.53496 -2.43939,25.72942c-3.21333,4.61132 -9.69716,3.56404 -14.67924,3.56404c-4.98207,0 -11.4659,0.74966 -14.67924,-3.86164c-5.01335,-7.19445 -2.43939,-16.01745 -2.43939,-25.4318c0,-16.17833 7.66426,-29.54752 17.11863,-29.54752c0,0 9.72842,-0.91541 12.88897,5.72261c3.14566,6.60674 4.22966,7.64657 4.22966,23.8249z" data-paper-data="{&quot;origPos&quot;:null}" fill="url(#color-17)" stroke="#001371" stroke-width="1.5" stroke-linecap="butt"/><path d="M184.21675,191.08929c5.58728,0.50277 9.70268,5.66187 9.19201,11.52316c-0.51068,5.86131 -5.45404,10.20525 -11.04133,9.70249c-5.58726,-0.50277 -9.70268,-5.66187 -9.19201,-11.52316c0.51068,-5.86131 5.45405,-10.20525 11.04133,-9.70249z" data-paper-data="{&quot;origPos&quot;:null,&quot;index&quot;:null}" fill="#ffffff" stroke="#bfbfbf" stroke-width="1.5" stroke-linecap="butt"/><path d="M159.20573,175.59599c0,2.73229 1.18698,7.24255 -0.31003,9.12432c-1.61709,2.03268 -3.32827,2.96733 -5.5586,2.95273c-2.46992,-0.01618 -4.1733,-1.01847 -6.23486,-2.81865c-2.11879,-1.85016 -1.69451,-5.89918 -1.69451,-9.25839c0,-4.84812 3.0888,-8.7783 6.89902,-8.7783c3.8102,0 6.899,3.93019 6.899,8.7783z" data-paper-data="{&quot;origPos&quot;:null}" fill="url(#color-18)" stroke="none" stroke-width="0" stroke-linecap="butt"/><path d="M145.94362,183.88415c0,2.26997 -1.7773,4.11017 -3.96972,4.11017c-2.19242,0 -3.96972,-1.84019 -3.96972,-4.11017c0,-2.26997 1.7773,-4.11016 3.96972,-4.11016c2.19242,0 3.96972,1.84019 3.96972,4.11016z" data-paper-data="{&quot;origPos&quot;:null}" fill="#faff66" stroke="none" stroke-width="1.5" stroke-linecap="butt"/><path d="M167.2366,183.32041c0,2.21407 -1.73351,4.00892 -3.87193,4.00892c-2.13841,0 -3.87194,-1.79484 -3.87194,-4.00892c0,-2.21407 1.73353,-4.00892 3.87194,-4.00892c2.13841,0 3.87193,1.79484 3.87193,4.00892z" data-paper-data="{&quot;origPos&quot;:null}" fill="#faff66" stroke="none" stroke-width="1.5" stroke-linecap="butt"/><path d="M148.98782,230.73976c0,3.50401 -1.27481,9.48574 -1.96444,12.89179c-0.99179,4.89844 -2.58519,5.47627 -6.80943,5.47627c-4.24308,0 -5.53619,0.44954 -6.52474,-4.47294c-0.67992,-3.38575 1.68747,-10.41359 1.68747,-13.89513c0,-10.28091 -1.56843,-17.31761 2.2474,-17.31761c0,0 6.10246,0.57622 7.13786,2.39675c2.9854,5.2492 4.22589,4.63995 4.22589,14.92087z" data-paper-data="{&quot;origPos&quot;:null}" fill="url(#color-19)" stroke="#001371" stroke-width="1.5" stroke-linecap="butt"/><path d="M149.37043,248.00558c3.69582,3.47833 1.51031,6.94164 -0.70679,8.19207c-2.68475,1.51418 -10.63883,1.4414 -14.62,-0.61932c-3.98116,-2.06071 -2.36339,-2.98149 -2.36339,-4.68542c0,-3.78843 2.64637,-6.85956 8.8451,-6.85956c6.19873,0 5.14927,0.49389 8.84509,3.97223z" data-paper-data="{&quot;origPos&quot;:null}" fill="url(#color-20)" stroke="#6c4306" stroke-width="1.5" stroke-linecap="butt"/><path d="M134.0317,187.2938c-6.27817,7.53389 -13.58371,11.73407 -16.31737,9.38135c-2.73368,-2.35271 0.13972,-10.36739 6.41787,-17.90131c6.27817,-7.53389 13.58371,-11.73407 16.31737,-9.38135c2.73368,2.35271 -0.13972,10.36739 -6.41787,17.90131z" data-paper-data="{&quot;origRot&quot;:0,&quot;origPos&quot;:null}" fill="url(#color-21)" stroke="#158e0e" stroke-width="1.5" stroke-linecap="butt"/><path d="M126.9953,199.75962c-0.09648,5.92272 -4.75153,10.64704 -10.39737,10.55205c-5.64583,-0.09497 -10.14446,-4.97329 -10.04798,-10.89602c0.09648,-5.92272 4.75153,-10.64704 10.39737,-10.55205c5.64583,0.09497 10.14446,4.97329 10.04798,10.89602z" data-paper-data="{&quot;origPos&quot;:null,&quot;origRot&quot;:0}" fill="#ffffff" stroke="#bfbfbf" stroke-width="1.5" stroke-linecap="butt"/><path d="M177.34623,146.61849c0,9.84218 -5.14936,13.90084 -11.92352,18.96597c-4.72012,3.52931 -6.06853,6.61817 -11.57363,6.61817c-6.39728,0 -8.94794,-3.43831 -14.4308,-7.5442c-6.66848,-4.99375 -12.11553,-8.5149 -12.11553,-18.20747c0,-5.0106 0.57271,-17.63489 2.65647,-21.85717c4.80207,-9.73034 14.74065,-3.04204 23.65922,-3.04204c0,0 14.51881,-4.21225 19.42967,5.04324c2.33042,4.39213 4.29814,6.17951 4.29814,20.02349z" data-paper-data="{&quot;origPos&quot;:null}" fill="url(#color-22)" stroke="#e0ce98" stroke-width="1" stroke-linecap="butt"/><path d="M177.43941,117.62683c7.39631,15.7149 -26.79497,11.96459 -29.2141,14.02381c-2.37591,2.02243 -0.74791,8.20497 -3.6175,8.20497c-4.02198,0 -8.45488,0.78883 -9.56057,5.64876c-0.63988,2.81258 2.37615,8.28457 0.12484,9.02759c-2.2178,0.73196 -4.06937,3.20526 -6.35839,3.3743c-1.85643,0.13709 -2.3832,-2.37045 -4.24263,-2.40525c-5.29533,-0.09911 0.72001,-13.21753 0.8452,-13.90549c0.04172,-0.22932 -1.10163,-4.91414 -1.10163,-7.18979c0,-12.34251 9.84594,-18.90585 16.30923,-18.90585c6.46328,0 29.41924,-13.58796 36.81555,2.12693z" data-paper-data="{&quot;origPos&quot;:null}" fill="#c27231" stroke="#985926" stroke-width="1.5" stroke-linecap="butt"/><path d="M176.96833,159.76221c0,0.96935 -1.05436,2.6064 -1.15734,3.56971c-0.21869,2.04583 -1.61583,3.12409 -3.57684,3.21584c-2.16435,0.10127 -5.99132,-2.51586 -5.99132,-2.51586c0,0 -2.87775,1.19046 -4.82459,1.64777c-1.63184,0.38331 -4.15503,0.13211 -5.64053,-0.65409c-1.0443,-0.55271 -2.66543,-2.87291 -3.30943,-3.89703c-2.03878,-3.24213 -7.28717,-8.01425 -2.80634,-9.19469c2.20464,-0.58081 8.73957,5.62854 11.0127,5.62854c0,0 3.80829,-0.01754 5.70018,0.08441c4.2897,0.23114 10.5935,-2.47257 10.5935,2.1154z" data-paper-data="{&quot;origPos&quot;:null}" fill="#160b02" stroke="none" stroke-width="0" stroke-linecap="butt"/><path d="M179.32543,122.00464c0,9.88537 -11.03409,3.80048 -26.30554,3.80048c-3.69718,0 -8.59054,8.15205 -12.28753,8.11605c-5.24124,-0.05103 -11.84335,2.45977 -15.98343,-0.76119c-2.92262,-2.27378 -0.72629,-7.44778 -0.72629,-11.15535c0,-8.37605 8.70145,-8.49708 16.24287,-12.11054c5.48182,-2.62659 5.55662,-6.77633 11.63295,-6.77633c0,0 12.43874,-1.8163 19.6767,0.82488c8.19439,2.99018 7.75028,8.17661 7.75028,18.06198z" data-paper-data="{&quot;origPos&quot;:null}" fill="url(#color-23)" stroke="#158e0e" stroke-width="1" stroke-linecap="butt"/><path d="M189.80767,127.95c0,3.48124 -10.44299,0.29318 -24.00988,0.29318c-13.56688,0 -25.12017,3.18806 -25.12017,-0.29318c0,-3.48124 10.99813,-6.30333 24.56502,-6.30333c13.56688,0 24.56502,2.8221 24.56502,6.30333z" data-paper-data="{&quot;origPos&quot;:null}" fill="url(#color-24)" stroke="#158e0e" stroke-width="1" stroke-linecap="butt"/><path d="M175.25732,114.97249c0,2.14526 0.31298,3.62537 -1.25453,4.98952c-1.35299,1.17745 -9.04403,0.86884 -10.32229,-0.07714c-1.82086,-1.34756 -1.08988,-2.56403 -1.08988,-4.91238c0,-3.50501 2.83555,-6.34641 6.33336,-6.34641c3.49782,0 6.33335,2.84139 6.33335,6.34641z" data-paper-data="{&quot;origPos&quot;:null}" fill="#ffffff" stroke="#a4a4a4" stroke-width="1" stroke-linecap="butt"/><path d="M167.51598,140.25438c0,4.13928 -2.12367,7.49483 -4.74334,7.49483c-2.61968,0 -4.74334,-3.35555 -4.74334,-7.49483c0,-4.13928 2.12367,-7.49484 4.74334,-7.49484c2.61968,0 4.74334,3.35555 4.74334,7.49484z" data-paper-data="{&quot;origPos&quot;:null}" fill="#ffffff" stroke="none" stroke-width="0" stroke-linecap="butt"/><path d="M159.01501,132.0197c0,0 3.57853,-0.58761 4.30266,-0.46124c1.29495,0.22598 3.53513,1.83418 3.53513,1.83418" data-paper-data="{&quot;origPos&quot;:null,&quot;origRot&quot;:0}" fill="none" stroke="#351c06" stroke-width="1.5" stroke-linecap="round"/><path d="M167.54499,139.93236c0,2.74706 -1.40938,4.97398 -3.14794,4.97398c-1.73856,0 -3.14794,-2.22694 -3.14794,-4.97398c0,-2.74706 1.40939,-4.97398 3.14794,-4.97398c1.73856,0 3.14794,2.22694 3.14794,4.97398z" data-paper-data="{&quot;origPos&quot;:null}" fill="#1121d4" stroke="none" stroke-width="0" stroke-linecap="butt"/><path d="M167.6135,139.78791c0,1.42051 -0.72879,2.57205 -1.62781,2.57205c-0.89902,0 -1.62781,-1.15155 -1.62781,-2.57205c0,-1.42051 0.7288,-2.57205 1.62781,-2.57205c0.89902,0 1.62781,1.15155 1.62781,2.57205z" data-paper-data="{&quot;origPos&quot;:null}" fill="#000000" stroke="none" stroke-width="0" stroke-linecap="butt"/><path d="M173.9122,132.11036c2.17221,0 3.93314,2.78237 3.93314,6.21462c0,3.43225 -1.76092,6.21462 -3.93314,6.21462c-2.17221,0 -3.93314,-2.78237 -3.93314,-6.21462c0,-3.43225 1.76092,-6.21462 3.93314,-6.21462z" data-paper-data="{&quot;origPos&quot;:null,&quot;index&quot;:null}" fill="#ffffff" stroke="none" stroke-width="0" stroke-linecap="butt"/><path d="M170.61617,131.52054c0,0 1.85754,-1.33351 2.93129,-1.52089c0.60044,-0.10479 3.56772,0.38246 3.56772,0.38246" data-paper-data="{&quot;origPos&quot;:null,&quot;origRot&quot;:0,&quot;index&quot;:null}" fill="none" stroke="#351c06" stroke-width="1.5" stroke-linecap="round"/><path d="M175.35775,134.05515c1.44159,0 2.61025,1.84655 2.61025,4.12435c0,2.27782 -1.16864,4.12435 -2.61025,4.12435c-1.44159,0 -2.61024,-1.84655 -2.61024,-4.12435c0,-2.27782 1.16864,-4.12435 2.61024,-4.12435z" data-paper-data="{&quot;origPos&quot;:null,&quot;index&quot;:null}" fill="#1121d4" stroke="none" stroke-width="0" stroke-linecap="butt"/><path d="M176.72019,136.05345c0.74546,0 1.34976,0.95486 1.34976,2.13272c0,1.17788 -0.60431,2.13272 -1.34976,2.13272c-0.74546,0 -1.34975,-0.95486 -1.34975,-2.13272c0,-1.17788 0.60431,-2.13272 1.34975,-2.13272z" data-paper-data="{&quot;origPos&quot;:null,&quot;index&quot;:null}" fill="#000000" stroke="none" stroke-width="0" stroke-linecap="butt"/><path d="M187.98865,151.31692c0,4.77499 -5.21052,8.90459 -11.95206,8.90459c-6.74152,0 -12.46119,-4.1296 -12.46119,-8.90459c0,-4.77499 5.46509,-8.64589 12.20662,-8.64589c6.74152,0 12.20662,3.87089 12.20662,8.64589z" data-paper-data="{&quot;origPos&quot;:null}" fill="url(#color-25)" stroke="#e0ce98" stroke-width="1.5" stroke-linecap="butt"/><path d="M140.48493,144.95404c-0.92107,2.91856 -4.85091,4.16381 -8.77756,2.78133c-3.92666,-1.38249 -6.36315,-4.86916 -5.44209,-7.78773c0.92107,-2.91856 4.85091,-4.16381 8.77756,-2.78133c3.92666,1.38249 6.36315,4.86916 5.44209,7.78773z" data-paper-data="{&quot;origRot&quot;:0,&quot;origPos&quot;:null}" fill="#ffefc0" stroke="#e0ce98" stroke-width="1.5" stroke-linecap="butt"/><path d="M171.75719,117.77879l-4.53402,-0.22681l0.06825,-5.80712" data-paper-data="{&quot;origPos&quot;:null}" fill="none" stroke="#158e0e" stroke-width="1" stroke-linecap="round"/></g></g></svg>