<svg version="1.1" xmlns="http://www.w3.org/2000/svg" xmlns:xlink="http://www.w3.org/1999/xlink" width="480.1" height="360" viewBox="0,0,480.1,360"><g transform="translate(0.05,0)"><g data-paper-data="{&quot;isPaintingLayer&quot;:true}" fill-rule="nonzero" stroke-linejoin="miter" stroke-miterlimit="10" stroke-dasharray="" stroke-dashoffset="0" style="mix-blend-mode: normal"><path d="M1.45,358.5v-357h477.1v357z" fill="#6b6b6b" stroke="#211502" stroke-width="3" stroke-linecap="butt"/><path d="M96.82271,41.10472l13.59138,28.08073l-41.38698,12.15641l-13.59137,-28.08076z" data-paper-data="{&quot;index&quot;:null}" fill="#3c3c3c" stroke="none" stroke-width="0" stroke-linecap="butt"/><path d="M101.54572,212.39247l-30.40207,9.32915l-14.26812,-18.54854l11.41449,-22.82898l24.25579,1.42681l12.8413,17.12174z" data-paper-data="{&quot;index&quot;:null}" fill="#3c3c3c" stroke="none" stroke-width="0" stroke-linecap="round"/><path d="M405.21284,76.91388l-10.51138,14.01518l-19.85484,1.16793l-9.34345,-18.68691l11.67932,-15.18311l24.88594,7.63648z" data-paper-data="{&quot;index&quot;:null}" fill="#3c3c3c" stroke="none" stroke-width="0" stroke-linecap="round"/><path d="M388.06136,284.72552l43.9894,-13.49855l20.64484,26.83828l-16.51586,33.03174l-35.09622,-2.06448l-18.58034,-24.7738z" data-paper-data="{&quot;index&quot;:null}" fill="#3c3c3c" stroke="none" stroke-width="0" stroke-linecap="round"/><path d="M224.41409,276.23113l-20.26612,41.87129l-61.71223,-18.12645l20.26614,-41.87124z" data-paper-data="{&quot;index&quot;:null}" fill="#3c3c3c" stroke="none" stroke-width="0" stroke-linecap="butt"/><path d="M240.60954,92.20611l24.25609,39.69336l-48.62538,42.10153l-24.25604,-39.69335z" data-paper-data="{&quot;index&quot;:null}" fill="#3c3c3c" stroke="none" stroke-width="0" stroke-linecap="butt"/><path d="M344.54572,233.39247l-30.40207,9.32915l-14.26812,-18.54854l11.41449,-22.82898l24.25579,1.42681l12.8413,17.12174z" data-paper-data="{&quot;index&quot;:null}" fill="#3c3c3c" stroke="none" stroke-width="0" stroke-linecap="round"/></g></g></svg>