<svg version="1.1" xmlns="http://www.w3.org/2000/svg" xmlns:xlink="http://www.w3.org/1999/xlink" width="105.28409" height="68.24012" viewBox="0,0,105.28409,68.24012"><defs><linearGradient x1="28.31764" y1="40.1648" x2="21.28958" y2="70.34573" gradientUnits="userSpaceOnUse" id="color-1"><stop offset="0" stop-color="#fffd3f"/><stop offset="1" stop-color="#ccc933"/></linearGradient><linearGradient x1="39.32063" y1="7.37421" x2="39.32063" y2="28.84858" gradientUnits="userSpaceOnUse" id="color-2"><stop offset="0" stop-color="#ffffff"/><stop offset="1" stop-color="#b7b7b7"/></linearGradient><linearGradient x1="18.67786" y1="7.99411" x2="18.67786" y2="27.73033" gradientUnits="userSpaceOnUse" id="color-3"><stop offset="0" stop-color="#ffffff"/><stop offset="1" stop-color="#b7b7b7"/></linearGradient><linearGradient x1="62.28113" y1="10.32526" x2="62.28113" y2="28.49979" gradientUnits="userSpaceOnUse" id="color-4"><stop offset="0" stop-color="#ffffff"/><stop offset="1" stop-color="#b7b7b7"/></linearGradient><linearGradient x1="103.40221" y1="10.72715" x2="103.40221" y2="30.46337" gradientUnits="userSpaceOnUse" id="color-5"><stop offset="0" stop-color="#ffffff"/><stop offset="1" stop-color="#b7b7b7"/></linearGradient><linearGradient x1="82.13831" y1="9.65174" x2="82.13831" y2="31.12612" gradientUnits="userSpaceOnUse" id="color-6"><stop offset="0" stop-color="#ffffff"/><stop offset="1" stop-color="#b7b7b7"/></linearGradient><linearGradient x1="54.85555" y1="50.15307" x2="54.85555" y2="65.06664" gradientUnits="userSpaceOnUse" id="color-7"><stop offset="0" stop-color="#fafafa"/><stop offset="1" stop-color="#bbbbbb"/></linearGradient></defs><g transform="translate(-9.40159,-6.20278)"><g data-paper-data="{&quot;isPaintingLayer&quot;:true}" fill-rule="nonzero" stroke-linejoin="miter" stroke-miterlimit="10" stroke-dasharray="" stroke-dashoffset="0" style="mix-blend-mode: normal"><g fill="#000000" stroke="#000000" stroke-width="1.5" stroke-linecap="butt"><path d="M40.56989,61.55162c-1.94074,8.33423 -9.88091,13.60785 -17.73488,11.77894c-7.85396,-1.82891 -12.64757,-10.06775 -10.70682,-18.40199c1.94074,-8.33423 9.88091,-13.60785 17.73488,-11.77894c7.85396,1.82891 12.64757,10.06775 10.70682,18.40199z"/><path d="M37.62592,60.86607c-1.53897,6.6089 -7.83539,10.79077 -14.06344,9.34049c-6.22805,-1.45029 -10.0293,-7.98355 -8.49032,-14.59245c1.53897,-6.6089 7.83539,-10.79077 14.06344,-9.34049c6.22805,1.45029 10.0293,7.98355 8.49032,14.59245z"/><path d="M22.91229,65.89481l3.73519,-16.04023l3.1383,0.7308l-3.73519,16.04023z"/></g><path d="M53.50999,59.62646l-3.00888,-3.66298l2.87806,-3.1397l3.1397,2.87806l2.61641,-3.1397l3.92462,3.53216l-2.74723,3.1397l4.18627,3.92462l-3.27052,4.31709l-3.7938,-3.92462l-3.92462,3.92462l-4.05545,-3.7938z" data-paper-data="{&quot;origPos&quot;:null}" fill="#000000" stroke="#000000" stroke-width="2" stroke-linecap="round"/><g fill="#000000" stroke="none" stroke-width="0" stroke-linecap="round"><path d="M34.54788,30.74134l2.56411,-19.23078l14.10257,2.56411l-0.64103,5.44872l-7.05128,-1.92308l-1.28205,2.56411l5.76923,1.28205v2.88462h-7.05128l-0.32051,3.84615l8.01282,-0.96154l0.64103,5.76923z" data-paper-data="{&quot;origPos&quot;:null}"/><path d="M22.02394,13.41761l-0.64358,10.94073l7.72287,-0.64358l0.8581,7.0793l-15.01669,1.07261l-0.42905,-19.73622z" data-paper-data="{&quot;origPos&quot;:null}"/><path d="M62.8903,14.92762l2.48541,9.94162l3.26209,-9.94162h6.99021l-6.52419,17.70852l-8.54358,-0.15534l-4.5048,-18.01919z" data-paper-data="{&quot;origPos&quot;:null}"/><path d="M106.74829,16.15065l-0.64358,10.94073l7.72287,-0.64358l0.8581,7.0793l-15.01669,1.07261l-0.42905,-19.73622z" data-paper-data="{&quot;origPos&quot;:null}"/><path d="M77.36557,33.01888l2.56411,-19.23078l14.10257,2.56411l-0.64103,5.44872l-7.05128,-1.92308l-1.28205,2.56411l5.76923,1.28205v2.88462h-7.05128l-0.32051,3.84615l8.01282,-0.96154l0.64103,5.76923z" data-paper-data="{&quot;origPos&quot;:null}"/></g><g stroke="#a3b100" stroke-width="1.5" stroke-linecap="butt"><path d="M39.02446,58.56679c-1.94074,8.33423 -9.88091,13.60785 -17.73488,11.77894c-7.85396,-1.82891 -12.64757,-10.06775 -10.70682,-18.40199c1.94074,-8.33423 9.88091,-13.60785 17.73488,-11.77894c7.85396,1.82891 12.64757,10.06775 10.70682,18.40199z" fill="url(#color-1)"/><path d="M36.08049,57.88124c-1.53897,6.6089 -7.83539,10.79077 -14.06344,9.34049c-6.22805,-1.45029 -10.0293,-7.98355 -8.49032,-14.59245c1.53897,-6.6089 7.83539,-10.79077 14.06344,-9.34049c6.22805,1.45029 10.0293,7.98355 8.49032,14.59245z" fill="none"/><path d="M21.36686,62.90998l3.73519,-16.04023l3.1383,0.7308l-3.73519,16.04023z" fill="none"/></g><path d="M30.98729,26.60499l2.56411,-19.23078l14.10257,2.56411l-0.64103,5.44872l-7.05128,-1.92308l-1.28205,2.56411l5.76923,1.28205v2.88462h-7.05128l-0.32051,3.84615l8.01282,-0.96154l0.64103,5.76923z" data-paper-data="{&quot;origPos&quot;:null}" fill="url(#color-2)" stroke="#989898" stroke-width="2" stroke-linecap="round"/><path d="M18.46335,9.28126l-0.64358,10.94073l7.72287,-0.64358l0.8581,7.0793l-15.01669,1.07261l-0.42905,-19.73622z" data-paper-data="{&quot;origPos&quot;:null}" fill="url(#color-3)" stroke="#989898" stroke-width="2" stroke-linecap="round"/><path d="M59.32971,10.79127l2.48541,9.94162l3.26209,-9.94162h6.99021l-6.52419,17.70852l-8.54358,-0.15534l-4.5048,-18.01919z" data-paper-data="{&quot;origPos&quot;:null}" fill="url(#color-4)" stroke="#989898" stroke-width="2" stroke-linecap="round"/><path d="M103.1877,12.0143l-0.64358,10.94073l7.72287,-0.64358l0.8581,7.0793l-15.01669,1.07261l-0.42905,-19.73622z" data-paper-data="{&quot;origPos&quot;:null}" fill="url(#color-5)" stroke="#989898" stroke-width="2" stroke-linecap="round"/><path d="M73.80498,28.88253l2.56411,-19.23078l14.10257,2.56411l-0.64103,5.44872l-7.05128,-1.92308l-1.28205,2.56411l5.76923,1.28205v2.88462h-7.05128l-0.32051,3.84615l8.01282,-0.96154l0.64103,5.76923z" data-paper-data="{&quot;origPos&quot;:null}" fill="url(#color-6)" stroke="#989898" stroke-width="2" stroke-linecap="round"/><path d="M51.3888,57.21739l-3.00888,-3.66298l2.87806,-3.1397l3.1397,2.87806l2.61641,-3.1397l3.92462,3.53216l-2.74723,3.1397l4.18627,3.92462l-3.27052,4.31709l-3.7938,-3.92462l-3.92462,3.92462l-4.05545,-3.7938z" data-paper-data="{&quot;origPos&quot;:null}" fill="url(#color-7)" stroke="#9e9e9e" stroke-width="2" stroke-linecap="round"/></g></g></svg>