<svg version="1.1" xmlns="http://www.w3.org/2000/svg" xmlns:xlink="http://www.w3.org/1999/xlink" width="88.40317" height="155.98235" viewBox="0,0,88.40317,155.98235"><defs><linearGradient x1="251.41222" y1="214.2219" x2="251.41222" y2="250.20186" gradientUnits="userSpaceOnUse" id="color-1"><stop offset="0" stop-color="#364ec7"/><stop offset="1" stop-color="#001371"/></linearGradient><linearGradient x1="254.93266" y1="243.67" x2="254.93266" y2="257.26171" gradientUnits="userSpaceOnUse" id="color-2"><stop offset="0" stop-color="#a6680a"/><stop offset="1" stop-color="#6c4205"/></linearGradient><linearGradient x1="261.37643" y1="169.03589" x2="261.37643" y2="199.30953" gradientUnits="userSpaceOnUse" id="color-3"><stop offset="0" stop-color="#20de16"/><stop offset="1" stop-color="#158e0e"/></linearGradient><linearGradient x1="241.0723" y1="162.71977" x2="241.0723" y2="221.70569" gradientUnits="userSpaceOnUse" id="color-4"><stop offset="0" stop-color="#364ec7"/><stop offset="1" stop-color="#001371"/></linearGradient><linearGradient x1="242.51259" y1="166.94269" x2="242.51259" y2="187.7982" gradientUnits="userSpaceOnUse" id="color-5"><stop offset="0" stop-color="#20de16"/><stop offset="1" stop-color="#158e0e"/></linearGradient><linearGradient x1="231.27717" y1="213.54713" x2="231.27717" y2="249.24353" gradientUnits="userSpaceOnUse" id="color-6"><stop offset="0" stop-color="#364ec7"/><stop offset="1" stop-color="#001371"/></linearGradient><linearGradient x1="231.35646" y1="244.15834" x2="231.35646" y2="257.36618" gradientUnits="userSpaceOnUse" id="color-7"><stop offset="0" stop-color="#a6680a"/><stop offset="1" stop-color="#6c4205"/></linearGradient><linearGradient x1="219.08194" y1="168.86397" x2="219.08194" y2="197.45365" gradientUnits="userSpaceOnUse" id="color-8"><stop offset="0" stop-color="#20de16"/><stop offset="1" stop-color="#158e0e"/></linearGradient><linearGradient x1="242.3245" y1="119.43532" x2="242.3245" y2="172.32762" gradientUnits="userSpaceOnUse" id="color-9"><stop offset="0" stop-color="#ffefc0"/><stop offset="1" stop-color="#e0ce98"/></linearGradient><linearGradient x1="241.28019" y1="102.63383" x2="241.28019" y2="134.9301" gradientUnits="userSpaceOnUse" id="color-10"><stop offset="0" stop-color="#20de16"/><stop offset="1" stop-color="#158e0e"/></linearGradient><linearGradient x1="255.24264" y1="121.77166" x2="255.24264" y2="129.70206" gradientUnits="userSpaceOnUse" id="color-11"><stop offset="0" stop-color="#20de16"/><stop offset="1" stop-color="#158e0e"/></linearGradient><linearGradient x1="265.78201" y1="142.79602" x2="265.78201" y2="160.3465" gradientUnits="userSpaceOnUse" id="color-12"><stop offset="0" stop-color="#ffefc0"/><stop offset="1" stop-color="#e0ce98"/></linearGradient></defs><g transform="translate(-195.79841,-102.13383)"><g data-paper-data="{&quot;isPaintingLayer&quot;:true}" fill-rule="nonzero" stroke-linejoin="miter" stroke-miterlimit="10" stroke-dasharray="" stroke-dashoffset="0" style="mix-blend-mode: normal"><path d="M258.69055,230.02706c0.34039,3.52639 -0.3043,9.73077 -0.63653,13.25838c-0.47779,5.07324 -1.95377,5.88532 -6.01554,6.49654c-4.07988,0.61395 -5.27958,1.25348 -6.70828,-3.55739c-0.98268,-3.30898 0.61095,-10.72426 0.27274,-14.22803c-0.99872,-10.34657 -3.19039,-17.20126 0.47866,-17.7534c0,0 5.92372,-0.3031 7.09613,1.37923c0,0 2.61311,-1.98035 3.63788,0.96862c1.03186,2.96939 0.87622,3.08949 1.87494,13.43606z" data-paper-data="{&quot;origPos&quot;:null,&quot;origRot&quot;:0}" fill="url(#color-1)" stroke="#001371" stroke-width="1.5" stroke-linecap="butt"/><path d="M262.80387,246.90699c4.33821,3.07274 2.47858,6.84278 0.30274,8.37694c-2.63478,1.85778 -11.02365,2.74772 -15.48125,1.14433c-4.45758,-1.60338 -2.87099,-2.7313 -3.08883,-4.45587c-0.48434,-3.83434 1.91096,-7.26328 8.44128,-8.01422c6.53031,-0.75095 5.48787,-0.12394 9.82608,2.9488z" data-paper-data="{&quot;origPos&quot;:null,&quot;origRot&quot;:0}" fill="url(#color-2)" stroke="#6c4306" stroke-width="1.5" stroke-linecap="butt"/><path d="M252.46609,169.4951c2.66494,-2.03541 8.81462,2.88596 13.73566,10.99218c4.92105,8.10622 6.74998,16.32762 4.08502,18.36304c-2.66496,2.03541 -8.81463,-2.88595 -13.73566,-10.99217c-4.92105,-8.10622 -6.74998,-16.32765 -4.08501,-18.36304z" data-paper-data="{&quot;origRot&quot;:0,&quot;origPos&quot;:null,&quot;index&quot;:null}" fill="url(#color-3)" stroke="#158e0e" stroke-width="1.5" stroke-linecap="butt"/><path d="M258.19093,192.31005c0,9.41437 2.57396,18.53496 -2.43939,25.72942c-3.21333,4.61132 -9.69716,3.56404 -14.67924,3.56404c-4.98207,0 -11.4659,0.74966 -14.67924,-3.86164c-5.01335,-7.19445 -2.43939,-16.01745 -2.43939,-25.4318c0,-16.17833 7.66426,-29.54752 17.11863,-29.54752c0,0 9.72842,-0.91541 12.88897,5.72261c3.14566,6.60674 4.22966,7.64657 4.22966,23.8249z" data-paper-data="{&quot;origPos&quot;:null}" fill="url(#color-4)" stroke="#001371" stroke-width="1.5" stroke-linecap="butt"/><path d="M274.21675,191.21428c5.58728,0.50277 9.70268,5.66187 9.19201,11.52316c-0.51068,5.86131 -5.45404,10.20525 -11.04133,9.70249c-5.58726,-0.50277 -9.70268,-5.66187 -9.19201,-11.52316c0.51068,-5.86131 5.45405,-10.20525 11.04133,-9.70249z" data-paper-data="{&quot;origPos&quot;:null,&quot;index&quot;:null}" fill="#ffffff" stroke="#bfbfbf" stroke-width="1.5" stroke-linecap="butt"/><path d="M249.20572,175.72098c0,2.73229 1.18698,7.24255 -0.31003,9.12432c-1.61709,2.03268 -3.32827,2.96733 -5.5586,2.95273c-2.46992,-0.01618 -4.1733,-1.01847 -6.23486,-2.81865c-2.11879,-1.85016 -1.69451,-5.89918 -1.69451,-9.25839c0,-4.84812 3.0888,-8.7783 6.89902,-8.7783c3.8102,0 6.899,3.93019 6.899,8.7783z" data-paper-data="{&quot;origPos&quot;:null}" fill="url(#color-5)" stroke="none" stroke-width="0" stroke-linecap="butt"/><path d="M235.94361,184.00914c0,2.26997 -1.7773,4.11017 -3.96972,4.11017c-2.19242,0 -3.96972,-1.84019 -3.96972,-4.11017c0,-2.26997 1.7773,-4.11016 3.96972,-4.11016c2.19242,0 3.96972,1.84019 3.96972,4.11016z" data-paper-data="{&quot;origPos&quot;:null}" fill="#faff66" stroke="none" stroke-width="1.5" stroke-linecap="butt"/><path d="M257.23659,183.4454c0,2.21407 -1.73351,4.00892 -3.87193,4.00892c-2.13841,0 -3.87194,-1.79484 -3.87194,-4.00892c0,-2.21407 1.73353,-4.00892 3.87194,-4.00892c2.13841,0 3.87193,1.79484 3.87193,4.00892z" data-paper-data="{&quot;origPos&quot;:null}" fill="#faff66" stroke="none" stroke-width="1.5" stroke-linecap="butt"/><path d="M238.98782,230.86475c0,3.50401 -1.27481,9.48574 -1.96444,12.89179c-0.99179,4.89844 -2.58519,5.47627 -6.80943,5.47627c-4.24308,0 -5.53619,0.44954 -6.52474,-4.47294c-0.67992,-3.38575 1.68747,-10.41359 1.68747,-13.89513c0,-10.28091 -1.56843,-17.31761 2.2474,-17.31761c0,0 6.10246,0.57622 7.13786,2.39675c2.9854,5.2492 4.22589,4.63995 4.22589,14.92087z" data-paper-data="{&quot;origPos&quot;:null}" fill="url(#color-6)" stroke="#001371" stroke-width="1.5" stroke-linecap="butt"/><path d="M239.37042,248.13057c3.69582,3.47833 1.51031,6.94164 -0.70679,8.19207c-2.68475,1.51418 -10.63883,1.4414 -14.62,-0.61932c-3.98116,-2.06071 -2.36339,-2.98149 -2.36339,-4.68542c0,-3.78843 2.64637,-6.85956 8.8451,-6.85956c6.19873,0 5.14927,0.49389 8.84509,3.97223z" data-paper-data="{&quot;origPos&quot;:null}" fill="url(#color-7)" stroke="#6c4306" stroke-width="1.5" stroke-linecap="butt"/><path d="M224.03169,187.41879c-6.27817,7.53389 -13.58371,11.73407 -16.31737,9.38135c-2.73368,-2.35271 0.13972,-10.36739 6.41787,-17.90131c6.27817,-7.53389 13.58371,-11.73407 16.31737,-9.38135c2.73368,2.35271 -0.13972,10.36739 -6.41787,17.90131z" data-paper-data="{&quot;origRot&quot;:0,&quot;origPos&quot;:null}" fill="url(#color-8)" stroke="#158e0e" stroke-width="1.5" stroke-linecap="butt"/><path d="M216.99529,199.88461c-0.09648,5.92272 -4.75153,10.64704 -10.39737,10.55205c-5.64583,-0.09497 -10.14446,-4.97329 -10.04798,-10.89602c0.09648,-5.92272 4.75153,-10.64704 10.39737,-10.55205c5.64583,0.09497 10.14446,4.97329 10.04798,10.89602z" data-paper-data="{&quot;origPos&quot;:null,&quot;origRot&quot;:0}" fill="#ffffff" stroke="#bfbfbf" stroke-width="1.5" stroke-linecap="butt"/><path d="M267.34623,146.74348c0,9.84218 -5.14936,13.90084 -11.92352,18.96597c-4.72012,3.52931 -6.06853,6.61817 -11.57363,6.61817c-6.39728,0 -8.94794,-3.43831 -14.4308,-7.5442c-6.66848,-4.99375 -12.11553,-8.5149 -12.11553,-18.20747c0,-5.0106 0.57271,-17.63489 2.65647,-21.85717c4.80207,-9.73034 14.74065,-3.04204 23.65922,-3.04204c0,0 14.51881,-4.21225 19.42967,5.04324c2.33042,4.39213 4.29814,6.17951 4.29814,20.02349z" data-paper-data="{&quot;origPos&quot;:null}" fill="url(#color-9)" stroke="#e0ce98" stroke-width="1" stroke-linecap="butt"/><path d="M267.4394,117.75182c7.39631,15.7149 -26.79497,11.96459 -29.2141,14.02381c-2.37591,2.02243 -0.74791,8.20497 -3.6175,8.20497c-4.02198,0 -8.45488,0.78883 -9.56057,5.64876c-0.63988,2.81258 2.37615,8.28457 0.12484,9.02759c-2.2178,0.73196 -4.06937,3.20526 -6.35839,3.3743c-1.85643,0.13709 -2.3832,-2.37045 -4.24263,-2.40525c-5.29533,-0.09911 0.72001,-13.21753 0.8452,-13.90549c0.04172,-0.22932 -1.10163,-4.91414 -1.10163,-7.18979c0,-12.34251 9.84594,-18.90585 16.30923,-18.90585c6.46328,0 29.41924,-13.58796 36.81555,2.12693z" data-paper-data="{&quot;origPos&quot;:null}" fill="#c27231" stroke="#985926" stroke-width="1.5" stroke-linecap="butt"/><path d="M266.96832,159.8872c0,0.96935 -1.05436,2.6064 -1.15734,3.56971c-0.21869,2.04583 -1.61583,3.12409 -3.57684,3.21584c-2.16435,0.10127 -5.99132,-2.51586 -5.99132,-2.51586c0,0 -2.87775,1.19046 -4.82459,1.64777c-1.63184,0.38331 -4.15503,0.13211 -5.64053,-0.65409c-1.0443,-0.55271 -2.66543,-2.87291 -3.30943,-3.89703c-2.03878,-3.24213 -7.28717,-8.01425 -2.80634,-9.19469c2.20464,-0.58081 8.73957,5.62854 11.0127,5.62854c0,0 3.80829,-0.01754 5.70018,0.08441c4.2897,0.23114 10.5935,-2.47257 10.5935,2.1154z" data-paper-data="{&quot;origPos&quot;:null}" fill="#160b02" stroke="none" stroke-width="0" stroke-linecap="butt"/><path d="M269.32542,122.12963c0,9.88537 -11.03409,3.80048 -26.30554,3.80048c-3.69718,0 -8.59054,8.15205 -12.28753,8.11605c-5.24124,-0.05103 -11.84335,2.45977 -15.98343,-0.76119c-2.92262,-2.27378 -0.72629,-7.44778 -0.72629,-11.15535c0,-8.37605 8.70145,-8.49708 16.24287,-12.11054c5.48182,-2.62659 5.55662,-6.77633 11.63295,-6.77633c0,0 12.43874,-1.8163 19.6767,0.82488c8.19439,2.99018 7.75028,8.17661 7.75028,18.06198z" data-paper-data="{&quot;origPos&quot;:null}" fill="url(#color-10)" stroke="#158e0e" stroke-width="1" stroke-linecap="butt"/><path d="M279.80766,128.07499c0,3.48124 -10.44299,0.29318 -24.00988,0.29318c-13.56688,0 -25.12017,3.18806 -25.12017,-0.29318c0,-3.48124 10.99813,-6.30333 24.56502,-6.30333c13.56688,0 24.56502,2.8221 24.56502,6.30333z" data-paper-data="{&quot;origPos&quot;:null}" fill="url(#color-11)" stroke="#158e0e" stroke-width="1" stroke-linecap="butt"/><path d="M265.25731,115.09748c0,2.14526 0.31298,3.62537 -1.25453,4.98952c-1.35299,1.17745 -9.04403,0.86884 -10.32229,-0.07714c-1.82086,-1.34756 -1.08988,-2.56403 -1.08988,-4.91238c0,-3.50501 2.83555,-6.34641 6.33336,-6.34641c3.49782,0 6.33335,2.84139 6.33335,6.34641z" data-paper-data="{&quot;origPos&quot;:null}" fill="#ffffff" stroke="#a4a4a4" stroke-width="1" stroke-linecap="butt"/><path d="M257.51597,140.37937c0,4.13928 -2.12367,7.49483 -4.74334,7.49483c-2.61968,0 -4.74334,-3.35555 -4.74334,-7.49483c0,-4.13928 2.12367,-7.49484 4.74334,-7.49484c2.61968,0 4.74334,3.35555 4.74334,7.49484z" data-paper-data="{&quot;origPos&quot;:null}" fill="#ffffff" stroke="none" stroke-width="0" stroke-linecap="butt"/><path d="M249.015,132.14469c0,0 3.57853,-0.58761 4.30266,-0.46124c1.29495,0.22598 3.53513,1.83418 3.53513,1.83418" data-paper-data="{&quot;origPos&quot;:null,&quot;origRot&quot;:0}" fill="none" stroke="#351c06" stroke-width="1.5" stroke-linecap="round"/><path d="M257.54498,140.05735c0,2.74706 -1.40938,4.97398 -3.14794,4.97398c-1.73856,0 -3.14794,-2.22694 -3.14794,-4.97398c0,-2.74706 1.40939,-4.97398 3.14794,-4.97398c1.73856,0 3.14794,2.22694 3.14794,4.97398z" data-paper-data="{&quot;origPos&quot;:null}" fill="#1121d4" stroke="none" stroke-width="0" stroke-linecap="butt"/><path d="M257.61349,139.9129c0,1.42051 -0.72879,2.57205 -1.62781,2.57205c-0.89902,0 -1.62781,-1.15155 -1.62781,-2.57205c0,-1.42051 0.7288,-2.57205 1.62781,-2.57205c0.89902,0 1.62781,1.15155 1.62781,2.57205z" data-paper-data="{&quot;origPos&quot;:null}" fill="#000000" stroke="none" stroke-width="0" stroke-linecap="butt"/><path d="M263.91219,132.23535c2.17221,0 3.93314,2.78237 3.93314,6.21462c0,3.43225 -1.76092,6.21462 -3.93314,6.21462c-2.17221,0 -3.93314,-2.78237 -3.93314,-6.21462c0,-3.43225 1.76092,-6.21462 3.93314,-6.21462z" data-paper-data="{&quot;origPos&quot;:null,&quot;index&quot;:null}" fill="#ffffff" stroke="none" stroke-width="0" stroke-linecap="butt"/><path d="M260.61616,131.64553c0,0 1.85754,-1.33351 2.93129,-1.52089c0.60044,-0.10479 3.56772,0.38246 3.56772,0.38246" data-paper-data="{&quot;origPos&quot;:null,&quot;origRot&quot;:0,&quot;index&quot;:null}" fill="none" stroke="#351c06" stroke-width="1.5" stroke-linecap="round"/><path d="M265.35774,134.18014c1.44159,0 2.61025,1.84655 2.61025,4.12435c0,2.27782 -1.16864,4.12435 -2.61025,4.12435c-1.44159,0 -2.61024,-1.84655 -2.61024,-4.12435c0,-2.27782 1.16864,-4.12435 2.61024,-4.12435z" data-paper-data="{&quot;origPos&quot;:null,&quot;index&quot;:null}" fill="#1121d4" stroke="none" stroke-width="0" stroke-linecap="butt"/><path d="M266.72018,136.17844c0.74546,0 1.34976,0.95486 1.34976,2.13272c0,1.17788 -0.60431,2.13272 -1.34976,2.13272c-0.74546,0 -1.34975,-0.95486 -1.34975,-2.13272c0,-1.17788 0.60431,-2.13272 1.34975,-2.13272z" data-paper-data="{&quot;origPos&quot;:null,&quot;index&quot;:null}" fill="#000000" stroke="none" stroke-width="0" stroke-linecap="butt"/><path d="M277.98864,151.44191c0,4.77499 -5.21052,8.90459 -11.95206,8.90459c-6.74152,0 -12.46119,-4.1296 -12.46119,-8.90459c0,-4.77499 5.46509,-8.64589 12.20662,-8.64589c6.74152,0 12.20662,3.87089 12.20662,8.64589z" data-paper-data="{&quot;origPos&quot;:null}" fill="url(#color-12)" stroke="#e0ce98" stroke-width="1.5" stroke-linecap="butt"/><path d="M230.48492,145.07903c-0.92107,2.91856 -4.85091,4.16381 -8.77756,2.78133c-3.92666,-1.38249 -6.36315,-4.86916 -5.44209,-7.78773c0.92107,-2.91856 4.85091,-4.16381 8.77756,-2.78133c3.92666,1.38249 6.36315,4.86916 5.44209,7.78773z" data-paper-data="{&quot;origRot&quot;:0,&quot;origPos&quot;:null}" fill="#ffefc0" stroke="#e0ce98" stroke-width="1.5" stroke-linecap="butt"/><path d="M261.75718,117.90378l-4.53402,-0.22681l0.06825,-5.80712" data-paper-data="{&quot;origPos&quot;:null}" fill="none" stroke="#158e0e" stroke-width="1" stroke-linecap="round"/></g></g></svg>