<svg version="1.1" xmlns="http://www.w3.org/2000/svg" xmlns:xlink="http://www.w3.org/1999/xlink" width="487.04838" height="71.50004" viewBox="0,0,487.04838,71.50004"><defs><linearGradient x1="232.80469" y1="294.09374" x2="232.80469" y2="333.38516" gradientUnits="userSpaceOnUse" id="color-1"><stop offset="0" stop-color="#17ff22"/><stop offset="1" stop-color="#02d10c"/></linearGradient></defs><g transform="translate(10.72656,-292.59376)"><g data-paper-data="{&quot;isPaintingLayer&quot;:true}" fill-rule="nonzero" stroke-linejoin="miter" stroke-miterlimit="10" stroke-dasharray="" stroke-dashoffset="0" style="mix-blend-mode: normal"><path d="M-10.72656,364.0938v-47h484.1351v47z" fill="#98763d" stroke="none" stroke-width="0" stroke-linecap="butt"/><path d="M-9.21244,320.98702v-26.89326h484.03426v26.89326l-27.00578,1.75726l-43.97163,10.64086l-42.7619,-11.9986l-40.7049,10.37815l-40.72936,-10.67969l-43.3929,8.22474l-40.39009,-9.40523l-57.53162,12.49333l-42.69222,-13.2091l-56.22042,10.7627z" fill="url(#color-1)" stroke="#08a310" stroke-width="3" stroke-linecap="butt"/><path d="M231.9899,327.23188l11.83901,18.01465l-0.24675,16.26774l-16.92389,-13.87762l-4.99504,-14.90558z" data-paper-data="{&quot;index&quot;:null}" fill="#774b00" stroke="#703100" stroke-width="2" stroke-linecap="round"/><path d="M36.67385,346.43998l-8.87184,-13.22785l6.05447,-3.87501l16.87004,15.94784l1.16689,7.40281z" data-paper-data="{&quot;index&quot;:null}" fill="#774b00" stroke="#703100" stroke-width="2" stroke-linecap="round"/><path d="M126.18556,356.03908l-4.82531,-3.22167l6.49233,-9.08013l11.4581,-1.92088l-0.76959,5.37415z" data-paper-data="{&quot;index&quot;:null}" fill="#774b00" stroke="#703100" stroke-width="2" stroke-linecap="round"/><path d="M375.25815,339.73398l32.29784,-1.89717l23.81362,6.44201l-28.69929,7.27995l-24.37452,-2.00971z" data-paper-data="{&quot;index&quot;:null}" fill="#774b00" stroke="#703100" stroke-width="2" stroke-linecap="round"/><path d="M308.45523,337.45875l11.22505,10.0917l-2.46597,9.05432l-17.63868,-7.81609l-3.75631,-8.32422z" data-paper-data="{&quot;index&quot;:null}" fill="#774b00" stroke="#703100" stroke-width="2" stroke-linecap="round"/></g></g></svg>