<svg version="1.1" xmlns="http://www.w3.org/2000/svg" xmlns:xlink="http://www.w3.org/1999/xlink" width="54.50976" height="72.71672" viewBox="0,0,54.50976,72.71672"><defs><linearGradient x1="229.45738" y1="211.61139" x2="229.45738" y2="224.54215" gradientUnits="userSpaceOnUse" id="color-1"><stop offset="0" stop-color="#51f21c"/><stop offset="1" stop-color="#369f13"/></linearGradient><linearGradient x1="257.57117" y1="211.21853" x2="257.57117" y2="224.14928" gradientUnits="userSpaceOnUse" id="color-2"><stop offset="0" stop-color="#51f21c"/><stop offset="1" stop-color="#369f13"/></linearGradient><linearGradient x1="243.65765" y1="209.19329" x2="243.65765" y2="233.42287" gradientUnits="userSpaceOnUse" id="color-3"><stop offset="0" stop-color="#51f21c"/><stop offset="1" stop-color="#369f13"/></linearGradient><linearGradient x1="243.71695" y1="205.93019" x2="243.71695" y2="210.89006" gradientUnits="userSpaceOnUse" id="color-4"><stop offset="0" stop-color="#51f21c"/><stop offset="1" stop-color="#369f13"/></linearGradient><linearGradient x1="242.47674" y1="165.12459" x2="242.47674" y2="206.9242" gradientUnits="userSpaceOnUse" id="color-5"><stop offset="0" stop-color="#ff3535"/><stop offset="1" stop-color="#b32626"/></linearGradient></defs><g transform="translate(-215.68899,-161.2143)"><g data-paper-data="{&quot;isPaintingLayer&quot;:true}" fill-rule="nonzero" stroke-linejoin="miter" stroke-miterlimit="10" stroke-dasharray="" stroke-dashoffset="0" style="mix-blend-mode: normal"><path d="M229.6109,211.61138c6.78267,0 11.97407,8.22336 11.97407,12.09732c0,3.87396 -5.1914,-7.01441 -11.97407,-7.01441c-6.78267,0 -12.2811,5.80547 -12.2811,1.93151c0,-3.87395 5.49843,-7.01441 12.2811,-7.01441z" data-paper-data="{&quot;origPos&quot;:null,&quot;index&quot;:null}" fill="url(#color-1)" stroke="#369f13" stroke-width="1" stroke-linecap="butt"/><path d="M257.41765,211.21853c6.78267,0 12.2811,3.14046 12.2811,7.01441c0,3.87396 -5.49843,-1.93151 -12.2811,-1.93151c-6.78267,0 -11.97407,10.88837 -11.97407,7.01441c0,-3.87396 5.1914,-12.09732 11.97407,-12.09732z" data-paper-data="{&quot;origPos&quot;:null,&quot;index&quot;:null}" fill="url(#color-2)" stroke="#369f13" stroke-width="1" stroke-linecap="butt"/><path d="M246.69772,209.19329l1.57203,24.22959l-9.22419,-0.13972l1.90845,-24.0652z" data-paper-data="{&quot;origPos&quot;:null}" fill="url(#color-3)" stroke="#369f13" stroke-width="1" stroke-linecap="round"/><path d="M252.32842,206.12525c0,0 -4.2689,4.76481 -8.61147,4.76481c-4.34258,0 -8.61147,-4.95987 -8.61147,-4.95987z" data-paper-data="{&quot;origPos&quot;:null}" fill="url(#color-4)" stroke="#369f13" stroke-width="1" stroke-linecap="butt"/><path d="M256.22037,170.32197l-0.8113,-6.29406l3.78607,3.83784z" data-paper-data="{&quot;origPos&quot;:null,&quot;index&quot;:null}" fill="#f2f0f0" stroke="#f2f0f0" stroke-width="2" stroke-linecap="round"/><path d="M248.70632,179.62036l-0.8113,-6.29406l3.78608,3.83784z" data-paper-data="{&quot;origPos&quot;:null,&quot;index&quot;:null}" fill="#f2f0f0" stroke="#f2f0f0" stroke-width="2" stroke-linecap="round"/><path d="M235.45506,178.4582l3.78608,-3.83785l-0.8113,6.29407z" data-paper-data="{&quot;origPos&quot;:null}" fill="#f2f0f0" stroke="#f2f0f0" stroke-width="2" stroke-linecap="round"/><path d="M227.94101,169.15982l3.78607,-3.83785l-0.8113,6.29407z" data-paper-data="{&quot;origPos&quot;:null}" fill="#f2f0f0" stroke="#f2f0f0" stroke-width="2" stroke-linecap="round"/><path d="M243.829,206.9242c-9.97134,0 -19.13656,-5.84099 -24.09644,-15.66177c-3.93127,-7.7841 -5.60044,-19.13461 0.37246,-25.01075c4.93819,-4.85819 22.64225,22.86492 22.64225,22.86492c0,0 17.91608,-26.19674 22.26958,-23.84231c4.35349,2.35443 5.17435,17.11684 1.07917,25.69913c-4.47024,9.36833 -10.65455,15.95077 -22.26701,15.95077z" data-paper-data="{&quot;origPos&quot;:null}" fill="url(#color-5)" stroke="#b32626" stroke-width="1" stroke-linecap="butt"/><path d="M243.52709,192.12093c0,0 -10.21057,-7.3499 -15.33748,-13.76554c-5.12691,-6.41564 -11.94153,-8.3246 -7.56997,-12.62535c3.61425,-3.5557 22.79182,19.34455 22.79182,19.34455c0,0 17.57493,-21.62959 20.76125,-19.90639c3.18631,1.72321 -3.44515,9.07201 -7.72881,14.66431c-4.28367,5.5923 -12.9168,12.28841 -12.9168,12.28841z" data-paper-data="{&quot;origPos&quot;:null}" fill="#fffcfc" stroke="#d2d2d2" stroke-width="1" stroke-linecap="butt"/><path d="M227.26493,185.202c0,2.41633 -1.72535,4.37514 -3.85368,4.37514c-2.12833,0 -3.85368,-1.95882 -3.85368,-4.37514c0,-2.41633 1.72535,-4.37514 3.85368,-4.37514c2.12833,0 3.85368,1.95881 3.85368,4.37514z" data-paper-data="{&quot;origPos&quot;:null}" fill="#fffcfc" stroke="none" stroke-width="0" stroke-linecap="butt"/><path d="M265.20278,184.82902c0,2.41633 -1.72536,4.37514 -3.85369,4.37514c-2.12833,0 -3.85368,-1.95881 -3.85368,-4.37514c0,-2.41633 1.72535,-4.37514 3.85368,-4.37514c2.12833,0 3.85369,1.95882 3.85369,4.37514z" data-paper-data="{&quot;origPos&quot;:null}" fill="#fffcfc" stroke="none" stroke-width="0" stroke-linecap="butt"/><path d="M236.86378,197.39469c0,2.41633 -1.95882,4.37514 -4.37515,4.37514c-2.41633,0 -4.37514,-1.95882 -4.37514,-4.37514c0,-2.41633 1.95881,-4.37514 4.37514,-4.37514c2.41633,0 4.37515,1.95881 4.37515,4.37514z" data-paper-data="{&quot;origPos&quot;:null}" fill="#fffcfc" stroke="none" stroke-width="0" stroke-linecap="butt"/><path d="M257.21516,197.78928c0,2.41633 -1.95882,4.37514 -4.37514,4.37514c-2.41633,0 -4.37514,-1.95881 -4.37514,-4.37514c0,-2.41633 1.95882,-4.37514 4.37514,-4.37514c2.41633,0 4.37514,1.95882 4.37514,4.37514z" data-paper-data="{&quot;origPos&quot;:null}" fill="#fffcfc" stroke="none" stroke-width="0" stroke-linecap="butt"/></g></g></svg>