<svg version="1.1" xmlns="http://www.w3.org/2000/svg" xmlns:xlink="http://www.w3.org/1999/xlink" width="591" height="377.6875" viewBox="0,0,591,377.6875"><defs><linearGradient x1="253.14985" y1="66.4558" x2="253.14985" y2="278.1087" gradientUnits="userSpaceOnUse" id="color-1"><stop offset="0" stop-color="#dc8223"/><stop offset="1" stop-color="#a8661b"/></linearGradient><radialGradient cx="258.13584" cy="62.49908" r="54.87408" gradientUnits="userSpaceOnUse" id="color-2"><stop offset="0" stop-color="#66ff68"/><stop offset="1" stop-color="#398f3b"/></radialGradient><radialGradient cx="314.20284" cy="107.04699" r="39.36618" gradientUnits="userSpaceOnUse" id="color-3"><stop offset="0" stop-color="#66ff68"/><stop offset="1" stop-color="#398f3b"/></radialGradient><radialGradient cx="197.59542" cy="98.39836" r="30.1211" gradientUnits="userSpaceOnUse" id="color-4"><stop offset="0" stop-color="#66ff68"/><stop offset="1" stop-color="#398f3b"/></radialGradient><linearGradient x1="194.80382" y1="138.32312" x2="194.80382" y2="192.89692" gradientUnits="userSpaceOnUse" id="color-5"><stop offset="0" stop-color="#dc8223"/><stop offset="1" stop-color="#744613"/></linearGradient><linearGradient x1="160.50558" y1="70.42866" x2="160.50558" y2="130.02051" gradientUnits="userSpaceOnUse" id="color-6"><stop offset="0" stop-color="#dc8223"/><stop offset="1" stop-color="#744613"/></linearGradient><linearGradient x1="418.25382" y1="127.11325" x2="418.25382" y2="181.68705" gradientUnits="userSpaceOnUse" id="color-7"><stop offset="0" stop-color="#dc8223"/><stop offset="1" stop-color="#744613"/></linearGradient><linearGradient x1="318.07847" y1="137.57579" x2="318.07847" y2="192.1496" gradientUnits="userSpaceOnUse" id="color-8"><stop offset="0" stop-color="#dc8223"/><stop offset="1" stop-color="#744613"/></linearGradient><linearGradient x1="383.95558" y1="59.2188" x2="383.95558" y2="118.81064" gradientUnits="userSpaceOnUse" id="color-9"><stop offset="0" stop-color="#dc8223"/><stop offset="1" stop-color="#744613"/></linearGradient><linearGradient x1="34.00555" y1="69.46345" x2="34.00555" y2="335.1087" gradientUnits="userSpaceOnUse" id="color-10"><stop offset="0" stop-color="#dc8223"/><stop offset="1" stop-color="#a8661b"/></linearGradient><radialGradient cx="40.26346" cy="64.49738" r="68.87238" gradientUnits="userSpaceOnUse" id="color-11"><stop offset="0" stop-color="#66ff68"/><stop offset="1" stop-color="#398f3b"/></radialGradient><radialGradient cx="110.63307" cy="120.4094" r="49.40844" gradientUnits="userSpaceOnUse" id="color-12"><stop offset="0" stop-color="#66ff68"/><stop offset="1" stop-color="#398f3b"/></radialGradient><radialGradient cx="-35.72073" cy="109.55451" r="37.80495" gradientUnits="userSpaceOnUse" id="color-13"><stop offset="0" stop-color="#66ff68"/><stop offset="1" stop-color="#398f3b"/></radialGradient><radialGradient cx="82.47432" cy="275.3125" r="98" gradientUnits="userSpaceOnUse" id="color-14"><stop offset="0" stop-color="#66ff68"/><stop offset="1" stop-color="#398f3b"/></radialGradient><radialGradient cx="163.97432" cy="262.8125" r="87.5" gradientUnits="userSpaceOnUse" id="color-15"><stop offset="0" stop-color="#66ff68"/><stop offset="1" stop-color="#398f3b"/></radialGradient><radialGradient cx="256.47432" cy="274.3125" r="98" gradientUnits="userSpaceOnUse" id="color-16"><stop offset="0" stop-color="#66ff68"/><stop offset="1" stop-color="#398f3b"/></radialGradient><radialGradient cx="357.97432" cy="259.8125" r="87.5" gradientUnits="userSpaceOnUse" id="color-17"><stop offset="0" stop-color="#66ff68"/><stop offset="1" stop-color="#398f3b"/></radialGradient><radialGradient cx="429.97432" cy="266.8125" r="87.5" gradientUnits="userSpaceOnUse" id="color-18"><stop offset="0" stop-color="#66ff68"/><stop offset="1" stop-color="#398f3b"/></radialGradient><linearGradient x1="242.82896" y1="208.8125" x2="242.82896" y2="365" gradientUnits="userSpaceOnUse" id="color-19"><stop offset="0" stop-color="#ffffff" stop-opacity="0"/><stop offset="1" stop-color="#ffffff"/></linearGradient></defs><g transform="translate(73.52568,4.375)"><g data-paper-data="{&quot;isPaintingLayer&quot;:true}" fill-rule="nonzero" stroke-linecap="butt" stroke-linejoin="miter" stroke-miterlimit="10" stroke-dasharray="" stroke-dashoffset="0" style="mix-blend-mode: normal"><path d="M238.90304,278.1087l-0.98313,-145.57362l-48.64694,-21.76576l4.21835,-14.07738l46.30213,21.98991l-0.89042,-52.22604h28.49362v72.38346l45.41171,-35.73361l6.54419,10.84657l-51.03001,43.56311l-0.92588,120.59335z" fill="url(#color-1)" stroke="none" stroke-width="0"/><path d="M203.26176,62.49908c0,-30.30611 24.56796,-54.87408 54.87408,-54.87408c30.30611,0 54.87408,24.56796 54.87408,54.87408c0,30.30611 -24.56796,54.87408 -54.87408,54.87408c-30.30611,0 -54.87408,-24.56796 -54.87408,-54.87408z" fill="url(#color-2)" stroke="none" stroke-width="0"/><path d="M274.83665,107.04699c0,-21.74134 17.62484,-39.36618 39.36618,-39.36618c21.74134,0 39.36618,17.62484 39.36618,39.36618c0,21.74134 -17.62484,39.36618 -39.36618,39.36618c-21.74134,0 -39.36618,-17.62484 -39.36618,-39.36618z" fill="url(#color-3)" stroke="none" stroke-width="0"/><path d="M167.47432,98.39836c0,-16.63543 13.48567,-30.1211 30.1211,-30.1211c16.63543,0 30.1211,13.48567 30.1211,30.1211c0,16.63543 -13.48567,30.1211 -30.1211,30.1211c-16.63543,0 -30.1211,-13.48567 -30.1211,-30.1211z" fill="url(#color-4)" stroke="none" stroke-width="0"/><path d="M208.31548,161.37455c-16.26777,0 -29.4554,-13.18763 -29.4554,-29.4554c0,-16.26777 13.18763,-29.4554 29.4554,-29.4554c16.26777,0 29.4554,13.18763 29.4554,29.4554c0,16.26777 -13.18763,29.4554 -29.4554,29.4554z" data-paper-data="{&quot;index&quot;:null}" fill="#478148" stroke="#398f3b" stroke-width="7.5"/><path d="M175.06523,154.86906c-13.87251,0 -25.1184,-11.24589 -25.1184,-25.1184c0,-13.87251 11.24589,-25.11841 25.1184,-25.11841c13.87251,0 25.1184,11.24589 25.1184,25.11841c0,13.87251 -11.24589,25.1184 -25.1184,25.1184z" data-paper-data="{&quot;index&quot;:null}" fill="#478148" stroke="#398f3b" stroke-width="7.5"/><path d="M185.34775,335.71577c0,0 3.04953,-145.70513 1.61171,-159.21634c-0.66889,-6.28553 -20.68075,-24.75333 -20.68075,-24.75333c0,0 2.19178,-5.29588 5.21378,-8.00175c0.64858,-0.58073 7.23935,2.21529 11.05655,7.33809c2.65701,3.56578 4.12292,8.3149 4.12292,7.84139c0,-3.69424 0,-8.5693 0,-12.64956c0,-4.44778 0,-7.95115 0,-7.95115h16.26372c0,0 0.08237,15.33612 0.13255,24.67874c0.00734,1.36601 20.62596,-7.22457 20.62596,-7.22457l3.04315,18.05044c0,0 -8.81782,-1.58791 -15.83551,-1.2292c-4.65946,0.23818 -6.72023,2.53793 -6.68467,5.52699c0.18727,15.74297 7.62336,157.8983 7.62336,157.8983z" data-paper-data="{&quot;index&quot;:null}" fill="url(#color-5)" stroke="none" stroke-width="0"/><path d="M158.98222,158.12181c-11.37746,0 -20.60071,-9.22325 -20.60071,-20.60071c0,-11.37746 9.22325,-20.60071 20.60071,-20.60071c11.37746,0 20.6007,9.22325 20.6007,20.60071c0,11.37746 -9.22325,20.60071 -20.6007,20.60071z" data-paper-data="{&quot;index&quot;:null}" fill="#42a543" stroke="#398f3b" stroke-width="7.5"/><path d="M196.02735,142.2195c-13.87251,0 -25.1184,-11.24589 -25.1184,-25.11841c0,-13.87251 11.24589,-25.1184 25.1184,-25.1184c13.87251,0 25.11841,11.24589 25.11841,25.1184c0,13.87251 -11.24589,25.11841 -25.11841,25.11841z" data-paper-data="{&quot;index&quot;:null}" fill="#42a543" stroke="#398f3b" stroke-width="7.5"/><path d="M229.0969,172.93986c-11.37746,0 -20.60071,-9.22325 -20.60071,-20.60071c0,-11.37746 9.22325,-20.60071 20.60071,-20.60071c11.37746,0 20.60071,9.22325 20.60071,20.60071c0,11.37746 -9.22325,20.60071 -20.60071,20.60071z" data-paper-data="{&quot;index&quot;:null}" fill="#42a543" stroke="#398f3b" stroke-width="7.5"/><path d="M175.71184,100.49591c-17.34847,0 -31.4122,-14.40023 -31.4122,-32.16381c0,-17.76358 14.06372,-32.1638 31.4122,-32.1638c17.34847,0 31.4122,14.40023 31.4122,32.16381c0,17.76358 -14.06372,32.16381 -31.4122,32.16381z" data-paper-data="{&quot;index&quot;:null}" fill="#46af48" stroke="#398f3b" stroke-width="7.5"/><path d="M140.25267,93.39224c-14.7941,0 -26.78708,-12.27994 -26.78708,-27.42803c0,-15.14809 11.99298,-27.42804 26.78708,-27.42804c14.7941,0 26.78708,12.27995 26.78708,27.42804c0,15.14809 -11.99298,27.42803 -26.78708,27.42803z" data-paper-data="{&quot;index&quot;:null}" fill="#46af48" stroke="#398f3b" stroke-width="7.5"/><path d="M145.91559,329.6929c0,0 7.75785,-202.82408 6.22451,-217.57763c-0.71332,-6.86348 -22.05463,-27.02939 -22.05463,-27.02939c0,0 2.33739,-5.78283 5.56015,-8.7375c0.69167,-0.63413 7.72028,2.41899 11.79106,8.01282c2.83352,3.89365 4.39681,9.07944 4.39681,8.5624c0,-4.03393 0,-9.35724 0,-13.81268c0,-4.85675 0,-8.68225 0,-8.68225h17.34416c0,0 0.08784,16.74628 0.14135,26.94794c0.00783,1.49162 21.9962,-7.88887 21.9962,-7.88887l3.24531,19.71018c0,0 -9.40361,-1.73392 -16.8875,-1.34222c-4.969,0.26007 -7.16668,2.77129 -7.12876,6.03519c0.19971,17.19053 3.62407,216.13841 3.62407,216.13841z" data-paper-data="{&quot;index&quot;:null}" fill="url(#color-6)" stroke="none" stroke-width="0"/><path d="M128.6899,71.6866c-2.23508,0 -4.04697,-1.85524 -4.04697,-4.1438c0,-2.28856 1.81189,-4.1438 4.04697,-4.1438c2.23508,0 4.04696,1.85524 4.04696,4.1438c0,2.28856 -1.81188,4.1438 -4.04696,4.1438z" data-paper-data="{&quot;index&quot;:null}" fill="#ff4a4a" stroke="none" stroke-width="0"/><path d="M116.7417,85.49928c-2.23508,0 -4.04697,-1.85524 -4.04697,-4.14381c0,-2.28857 1.8119,-4.1438 4.04697,-4.1438c2.23508,0 4.04697,1.85524 4.04697,4.1438c0,2.28857 -1.81188,4.14381 -4.04697,4.14381z" data-paper-data="{&quot;index&quot;:null}" fill="#ff4a4a" stroke="none" stroke-width="0"/><path d="M162.60736,79.57956c-14.7941,0 -26.78709,-12.27995 -26.78709,-27.42804c0,-15.14809 11.99298,-27.42803 26.78709,-27.42803c14.7941,0 26.78708,12.27994 26.78708,27.42803c0,15.14809 -11.99298,27.42804 -26.78708,27.42804z" data-paper-data="{&quot;index&quot;:null}" fill="#66ff68" stroke="#398f3b" stroke-width="7.5"/><path d="M172.62842,46.42914c-2.23508,0 -4.04697,-1.85524 -4.04697,-4.14381c0,-2.28857 1.81189,-4.14381 4.04697,-4.14381c2.23508,0 4.04697,1.85524 4.04697,4.14381c0,2.28857 -1.81189,4.14381 -4.04697,4.14381z" data-paper-data="{&quot;index&quot;:null}" fill="#ff4a4a" stroke="none" stroke-width="0"/><path d="M156.05512,71.29195c-2.23508,0 -4.04697,-1.85524 -4.04697,-4.1438c0,-2.28856 1.81188,-4.14381 4.04697,-4.14381c2.23508,0 4.04697,1.85524 4.04697,4.14381c0,2.28856 -1.81189,4.1438 -4.04697,4.1438z" data-paper-data="{&quot;index&quot;:null}" fill="#ff4a4a" stroke="none" stroke-width="0"/><path d="M151.04459,48.79702c-2.23508,0 -4.04697,-1.85524 -4.04697,-4.14381c0,-2.28857 1.81189,-4.1438 4.04697,-4.1438c2.23508,0 4.04697,1.85524 4.04697,4.1438c0,2.28856 -1.81189,4.14381 -4.04697,4.14381z" data-paper-data="{&quot;index&quot;:null}" fill="#ff4a4a" stroke="none" stroke-width="0"/><path d="M197.87381,113.12464c-12.13329,0 -21.96926,-10.07133 -21.96926,-22.49494c0,-12.42361 9.83597,-22.49494 21.96926,-22.49494c12.13329,0 21.96927,10.07133 21.96927,22.49494c0,12.42361 -9.83598,22.49494 -21.96927,22.49494z" data-paper-data="{&quot;index&quot;:null}" fill="#66ff68" stroke="#398f3b" stroke-width="7.5"/><path d="M203.84791,99.70661c-2.23508,0 -4.04697,-1.85524 -4.04697,-4.1438c0,-2.28857 1.81189,-4.1438 4.04697,-4.1438c2.23508,0 4.04697,1.85524 4.04697,4.1438c0,2.28856 -1.81189,4.1438 -4.04697,4.1438z" data-paper-data="{&quot;index&quot;:null}" fill="#ff4a4a" stroke="none" stroke-width="0"/><path d="M191.89971,87.86717c-2.23508,0 -4.04697,-1.85524 -4.04697,-4.14381c0,-2.28857 1.81189,-4.1438 4.04697,-4.1438c2.23508,0 4.04697,1.85524 4.04697,4.1438c0,2.28857 -1.8119,4.14381 -4.04697,4.14381z" data-paper-data="{&quot;index&quot;:null}" fill="#ff4a4a" stroke="none" stroke-width="0"/><path d="M431.76548,150.16468c-16.26777,0 -29.4554,-13.18763 -29.4554,-29.4554c0,-16.26777 13.18763,-29.4554 29.4554,-29.4554c16.26777,0 29.4554,13.18763 29.4554,29.4554c0,16.26777 -13.18763,29.4554 -29.4554,29.4554z" data-paper-data="{&quot;index&quot;:null}" fill="#478148" stroke="#398f3b" stroke-width="7.5"/><path d="M398.51522,143.65919c-13.87251,0 -25.1184,-11.24589 -25.1184,-25.1184c0,-13.87251 11.24589,-25.11841 25.1184,-25.11841c13.87251,0 25.1184,11.24589 25.1184,25.11841c0,13.87251 -11.24589,25.1184 -25.1184,25.1184z" data-paper-data="{&quot;index&quot;:null}" fill="#478148" stroke="#398f3b" stroke-width="7.5"/><path d="M408.79775,324.50591c0,0 3.04953,-145.70513 1.61171,-159.21634c-0.66889,-6.28553 -20.68075,-24.75333 -20.68075,-24.75333c0,0 2.19178,-5.29588 5.21378,-8.00175c0.64858,-0.58073 7.23935,2.21529 11.05655,7.33809c2.65701,3.56578 4.12292,8.3149 4.12292,7.84139c0,-3.69424 0,-8.5693 0,-12.64956c0,-4.44778 0,-7.95115 0,-7.95115h16.26372c0,0 0.08237,15.33612 0.13255,24.67874c0.00734,1.36601 20.62596,-7.22457 20.62596,-7.22457l3.04315,18.05044c0,0 -8.81782,-1.58791 -15.83551,-1.2292c-4.65946,0.23818 -6.72023,2.53793 -6.68467,5.52699c0.18727,15.74297 7.62336,157.8983 7.62336,157.8983z" data-paper-data="{&quot;index&quot;:null}" fill="url(#color-7)" stroke="none" stroke-width="0"/><path d="M382.43222,146.91194c-11.37746,0 -20.60071,-9.22325 -20.60071,-20.60071c0,-11.37746 9.22325,-20.60071 20.60071,-20.60071c11.37746,0 20.6007,9.22325 20.6007,20.60071c0,11.37746 -9.22325,20.60071 -20.6007,20.60071z" data-paper-data="{&quot;index&quot;:null}" fill="#42a543" stroke="#398f3b" stroke-width="7.5"/><path d="M419.47735,131.00964c-13.87251,0 -25.1184,-11.24589 -25.1184,-25.11841c0,-13.87251 11.24589,-25.1184 25.1184,-25.1184c13.87251,0 25.11841,11.24589 25.11841,25.1184c0,13.87251 -11.24589,25.11841 -25.11841,25.11841z" data-paper-data="{&quot;index&quot;:null}" fill="#42a543" stroke="#398f3b" stroke-width="7.5"/><path d="M452.5469,161.73c-11.37746,0 -20.60071,-9.22325 -20.60071,-20.60071c0,-11.37746 9.22325,-20.60071 20.60071,-20.60071c11.37746,0 20.60071,9.22325 20.60071,20.60071c0,11.37746 -9.22325,20.60071 -20.60071,20.60071z" data-paper-data="{&quot;index&quot;:null}" fill="#42a543" stroke="#398f3b" stroke-width="7.5"/><path d="M275.85873,135.65577c0,-16.26777 13.18763,-29.4554 29.4554,-29.4554c16.26777,0 29.4554,13.18763 29.4554,29.4554c0,16.26777 -13.18763,29.4554 -29.4554,29.4554c-16.26777,0 -29.4554,-13.18763 -29.4554,-29.4554z" fill="#478148" stroke="#398f3b" stroke-width="7.5"/><path d="M313.44599,133.48728c0,-13.87251 11.24589,-25.11841 25.1184,-25.11841c13.87251,0 25.1184,11.24589 25.1184,25.11841c0,13.87251 -11.24589,25.1184 -25.1184,25.1184c-13.87251,0 -25.1184,-11.24589 -25.1184,-25.1184z" fill="#478148" stroke="#398f3b" stroke-width="7.5"/><path d="M301.04179,335.2765c0,0 7.43609,-142.15533 7.62336,-157.8983c0.03556,-2.98906 -2.02522,-5.28881 -6.68467,-5.52699c-7.0177,-0.35872 -15.83551,1.2292 -15.83551,1.2292l3.04315,-18.05044c0,0 20.61862,8.59058 20.62596,7.22457c0.05018,-9.34262 0.13255,-24.67874 0.13255,-24.67874h16.26372c0,0 0,3.50337 0,7.95115c0,4.08026 0,8.95532 0,12.64956c0,0.47351 1.46591,-4.27561 4.12292,-7.84139c3.8172,-5.12279 10.40797,-7.91882 11.05655,-7.33809c3.022,2.70587 5.21378,8.00175 5.21378,8.00175c0,0 -20.01186,18.4678 -20.68075,24.75333c-1.43782,13.5112 1.61171,159.21634 1.61171,159.21634z" fill="url(#color-8)" stroke="none" stroke-width="0"/><path d="M334.04669,141.25772c0,-11.37746 9.22325,-20.60071 20.6007,-20.60071c11.37746,0 20.60071,9.22325 20.60071,20.60071c0,11.37746 -9.22325,20.60071 -20.60071,20.60071c-11.37746,0 -20.6007,-9.22325 -20.6007,-20.60071z" fill="#42a543" stroke="#398f3b" stroke-width="7.5"/><path d="M292.48386,120.83772c0,-13.87251 11.24589,-25.1184 25.11841,-25.1184c13.87251,0 25.1184,11.24589 25.1184,25.1184c0,13.87251 -11.24589,25.11841 -25.1184,25.11841c-13.87251,0 -25.11841,-11.24589 -25.11841,-25.11841z" fill="#42a543" stroke="#398f3b" stroke-width="7.5"/><path d="M263.93201,156.07577c0,-11.37746 9.22325,-20.60071 20.60071,-20.60071c11.37746,0 20.60071,9.22325 20.60071,20.60071c0,11.37746 -9.22325,20.60071 -20.60071,20.60071c-11.37746,0 -20.60071,-9.22325 -20.60071,-20.60071z" fill="#42a543" stroke="#398f3b" stroke-width="7.5"/><path d="M399.16183,89.28604c-17.34847,0 -31.4122,-14.40023 -31.4122,-32.16381c0,-17.76358 14.06372,-32.1638 31.4122,-32.1638c17.34847,0 31.4122,14.40023 31.4122,32.16381c0,17.76358 -14.06372,32.16381 -31.4122,32.16381z" data-paper-data="{&quot;index&quot;:null}" fill="#46af48" stroke="#398f3b" stroke-width="7.5"/><path d="M363.70267,82.18238c-14.7941,0 -26.78708,-12.27994 -26.78708,-27.42803c0,-15.14809 11.99298,-27.42804 26.78708,-27.42804c14.7941,0 26.78708,12.27995 26.78708,27.42804c0,15.14809 -11.99298,27.42803 -26.78708,27.42803z" data-paper-data="{&quot;index&quot;:null}" fill="#46af48" stroke="#398f3b" stroke-width="7.5"/><path d="M369.36558,318.48304c0,0 7.75785,-202.82408 6.22451,-217.57763c-0.71332,-6.86348 -22.05463,-27.02939 -22.05463,-27.02939c0,0 2.33739,-5.78283 5.56015,-8.7375c0.69167,-0.63413 7.72028,2.41899 11.79106,8.01282c2.83352,3.89365 4.39681,9.07944 4.39681,8.5624c0,-4.03393 0,-9.35724 0,-13.81268c0,-4.85675 0,-8.68225 0,-8.68225h17.34416c0,0 0.08784,16.74628 0.14135,26.94794c0.00783,1.49162 21.9962,-7.88887 21.9962,-7.88887l3.24531,19.71018c0,0 -9.40361,-1.73392 -16.8875,-1.34222c-4.969,0.26007 -7.16668,2.77129 -7.12876,6.03519c0.19971,17.19053 3.62407,216.13841 3.62407,216.13841z" data-paper-data="{&quot;index&quot;:null}" fill="url(#color-9)" stroke="none" stroke-width="0"/><path d="M354.05113,92.09487c-3.27737,1.26658 -6.93696,-0.42706 -8.17394,-3.78284c-1.23698,-3.35579 0.41708,-7.10295 3.69444,-8.36953c3.27737,-1.26658 6.93696,0.42706 8.17394,3.78284c1.23698,3.35578 -0.41708,7.10294 -3.69444,8.36953z" data-paper-data="{&quot;index&quot;:null}" fill="#93ff95" stroke="#398f3b" stroke-width="5"/><path d="M359.72988,88.68777c-3.58461,1.38532 -7.58731,-0.4671 -8.94025,-4.13749c-1.35294,-3.67039 0.45619,-7.76885 4.04081,-9.15417c3.58461,-1.38532 7.58731,0.4671 8.94025,4.13749c1.35294,3.67038 -0.45619,7.76885 -4.04081,9.15417z" data-paper-data="{&quot;index&quot;:null}" fill="#93ff95" stroke="#398f3b" stroke-width="5"/><path d="M346.55122,85.73421c-12.13329,0 -21.96927,-10.07133 -21.96927,-22.49494c0,-12.42361 9.83598,-22.49493 21.96927,-22.49493c12.13329,0 21.96926,10.07132 21.96926,22.49493c0,12.42361 -9.83597,22.49494 -21.96926,22.49494z" data-paper-data="{&quot;index&quot;:null}" fill="#66ff68" stroke="#398f3b" stroke-width="7.5"/><path d="M352.1399,60.47674c-2.23508,0 -4.04697,-1.85524 -4.04697,-4.1438c0,-2.28856 1.81189,-4.1438 4.04697,-4.1438c2.23508,0 4.04696,1.85524 4.04696,4.1438c0,2.28856 -1.81188,4.1438 -4.04696,4.1438z" data-paper-data="{&quot;index&quot;:null}" fill="#ff4a4a" stroke="none" stroke-width="0"/><path d="M340.1917,74.28942c-2.23508,0 -4.04697,-1.85524 -4.04697,-4.14381c0,-2.28857 1.8119,-4.1438 4.04697,-4.1438c2.23508,0 4.04697,1.85524 4.04697,4.1438c0,2.28857 -1.81188,4.14381 -4.04697,4.14381z" data-paper-data="{&quot;index&quot;:null}" fill="#ff4a4a" stroke="none" stroke-width="0"/><path d="M386.05736,68.3697c-14.7941,0 -26.78709,-12.27995 -26.78709,-27.42804c0,-15.14809 11.99298,-27.42803 26.78709,-27.42803c14.7941,0 26.78708,12.27994 26.78708,27.42803c0,15.14809 -11.99298,27.42804 -26.78708,27.42804z" data-paper-data="{&quot;index&quot;:null}" fill="#66ff68" stroke="#398f3b" stroke-width="7.5"/><path d="M396.07842,35.21927c-2.23508,0 -4.04697,-1.85524 -4.04697,-4.14381c0,-2.28857 1.81189,-4.14381 4.04697,-4.14381c2.23508,0 4.04697,1.85524 4.04697,4.14381c0,2.28857 -1.81189,4.14381 -4.04697,4.14381z" data-paper-data="{&quot;index&quot;:null}" fill="#ff4a4a" stroke="none" stroke-width="0"/><path d="M379.50512,60.08209c-2.23508,0 -4.04697,-1.85524 -4.04697,-4.1438c0,-2.28856 1.81188,-4.14381 4.04697,-4.14381c2.23508,0 4.04697,1.85524 4.04697,4.14381c0,2.28856 -1.81189,4.1438 -4.04697,4.1438z" data-paper-data="{&quot;index&quot;:null}" fill="#ff4a4a" stroke="none" stroke-width="0"/><path d="M374.49459,37.58716c-2.23508,0 -4.04697,-1.85524 -4.04697,-4.14381c0,-2.28857 1.81189,-4.1438 4.04697,-4.1438c2.23508,0 4.04697,1.85524 4.04697,4.1438c0,2.28856 -1.81189,4.14381 -4.04697,4.14381z" data-paper-data="{&quot;index&quot;:null}" fill="#ff4a4a" stroke="none" stroke-width="0"/><path d="M421.3238,101.91478c-12.13329,0 -21.96926,-10.07133 -21.96926,-22.49494c0,-12.42361 9.83597,-22.49494 21.96926,-22.49494c12.13329,0 21.96927,10.07133 21.96927,22.49494c0,12.42361 -9.83598,22.49494 -21.96927,22.49494z" data-paper-data="{&quot;index&quot;:null}" fill="#66ff68" stroke="#398f3b" stroke-width="7.5"/><path d="M427.29791,88.49674c-2.23508,0 -4.04697,-1.85524 -4.04697,-4.1438c0,-2.28857 1.81189,-4.1438 4.04697,-4.1438c2.23508,0 4.04697,1.85524 4.04697,4.1438c0,2.28856 -1.81189,4.1438 -4.04697,4.1438z" data-paper-data="{&quot;index&quot;:null}" fill="#ff4a4a" stroke="none" stroke-width="0"/><path d="M415.34971,76.65731c-2.23508,0 -4.04697,-1.85524 -4.04697,-4.14381c0,-2.28857 1.81189,-4.1438 4.04697,-4.1438c2.23508,0 4.04697,1.85524 4.04697,4.1438c0,2.28857 -1.8119,4.14381 -4.04697,4.14381z" data-paper-data="{&quot;index&quot;:null}" fill="#ff4a4a" stroke="none" stroke-width="0"/><path d="M16.1244,335.1087l-1.23392,-182.70924l-61.0567,-27.31818l5.29445,-17.6685l58.11374,27.59951l-1.11757,-65.54883h35.7623v90.84837l56.99617,-44.8492l8.2136,13.61352l-64.04769,54.676l-1.16207,151.35654z" fill="url(#color-10)" stroke="none" stroke-width="0"/><path d="M-28.60891,64.49738c0,-38.03716 30.83521,-68.87238 68.87238,-68.87238c38.03716,0 68.87238,30.83521 68.87238,68.87238c0,38.03716 -30.83521,68.87238 -68.87238,68.87238c-38.03716,0 -68.87238,-30.83521 -68.87238,-68.87238z" fill="url(#color-11)" stroke="none" stroke-width="0"/><path d="M61.22462,120.4094c0,-27.28753 22.12091,-49.40844 49.40844,-49.40844c27.28753,0 49.40844,22.12091 49.40844,49.40844c0,27.28753 -22.12091,49.40844 -49.40844,49.40844c-27.28753,0 -49.40844,-22.12091 -49.40844,-49.40844z" fill="url(#color-12)" stroke="none" stroke-width="0"/><path d="M-73.52568,109.55451c0,-20.8791 16.92585,-37.80495 37.80495,-37.80495c20.8791,0 37.80495,16.92585 37.80495,37.80495c0,20.8791 -16.92585,37.80495 -37.80495,37.80495c-20.8791,0 -37.80495,-16.92585 -37.80495,-37.80495z" fill="url(#color-13)" stroke="none" stroke-width="0"/><path d="M-15.52568,275.3125c0,-54.12391 43.87609,-98 98,-98c54.12391,0 98,43.87609 98,98c0,54.12391 -43.87609,98 -98,98c-54.12391,0 -98,-43.87609 -98,-98z" fill="url(#color-14)" stroke="none" stroke-width="0"/><path d="M76.47432,262.8125c0,-48.32492 39.17508,-87.5 87.5,-87.5c48.32492,0 87.5,39.17508 87.5,87.5c0,48.32492 -39.17508,87.5 -87.5,87.5c-48.32492,0 -87.5,-39.17508 -87.5,-87.5z" fill="url(#color-15)" stroke="none" stroke-width="0"/><path d="M158.47432,274.3125c0,-54.12391 43.87609,-98 98,-98c54.12391,0 98,43.87609 98,98c0,54.1239 -43.87609,98 -98,98c-54.12391,0 -98,-43.8761 -98,-98z" fill="url(#color-16)" stroke="none" stroke-width="0"/><path d="M270.47432,259.8125c0,-48.32491 39.17508,-87.5 87.5,-87.5c48.32491,0 87.5,39.17508 87.5,87.5c0,48.32491 -39.17509,87.5 -87.5,87.5c-48.32492,0 -87.5,-39.17509 -87.5,-87.5z" fill="url(#color-17)" stroke="none" stroke-width="0"/><path d="M342.47432,266.8125c0,-48.32491 39.17509,-87.5 87.5,-87.5c48.32491,0 87.5,39.17508 87.5,87.5c0,48.32491 -39.17509,87.5 -87.5,87.5c-48.32491,0 -87.5,-39.17509 -87.5,-87.5z" fill="url(#color-18)" stroke="none" stroke-width="0"/><path d="M-7.69447,365v-156.1875h501.04687v156.1875z" fill="url(#color-19)" stroke="none" stroke-width="0"/></g></g></svg>