<svg version="1.1" xmlns="http://www.w3.org/2000/svg" xmlns:xlink="http://www.w3.org/1999/xlink" width="33.53541" height="83.86205" viewBox="0,0,33.53541,83.86205"><defs><linearGradient x1="238.64084" y1="195.06821" x2="238.64084" y2="220.76435" gradientUnits="userSpaceOnUse" id="color-1"><stop offset="0" stop-color="#ffffff"/><stop offset="1" stop-color="#f1f1f1"/></linearGradient><linearGradient x1="238.23458" y1="172.04569" x2="238.23458" y2="197.74183" gradientUnits="userSpaceOnUse" id="color-2"><stop offset="0" stop-color="#ffffff"/><stop offset="1" stop-color="#f1f1f1"/></linearGradient><linearGradient x1="239.80982" y1="149.77663" x2="239.80982" y2="175.47277" gradientUnits="userSpaceOnUse" id="color-3"><stop offset="0" stop-color="#ffffff"/><stop offset="1" stop-color="#f1f1f1"/></linearGradient><linearGradient x1="236.39399" y1="162.88142" x2="236.39399" y2="166.59715" gradientUnits="userSpaceOnUse" id="color-4"><stop offset="0" stop-color="#ffa100"/><stop offset="1" stop-color="#c67d00"/></linearGradient><linearGradient x1="252.7532" y1="147.49921" x2="252.7532" y2="160.42981" gradientUnits="userSpaceOnUse" id="color-5"><stop offset="0" stop-color="#e3e100"/><stop offset="1" stop-color="#d4d100"/></linearGradient><linearGradient x1="247.78399" y1="138.24034" x2="247.78399" y2="154.46381" gradientUnits="userSpaceOnUse" id="color-6"><stop offset="0" stop-color="#e30000"/><stop offset="1" stop-color="#a20000"/></linearGradient><linearGradient x1="244.87875" y1="148.17131" x2="244.87875" y2="155.22911" gradientUnits="userSpaceOnUse" id="color-7"><stop offset="0" stop-color="#e30000"/><stop offset="1" stop-color="#cf0000"/></linearGradient></defs><g transform="translate(-223.2111,-137.90229)"><g data-paper-data="{&quot;isPaintingLayer&quot;:true}" fill-rule="nonzero" stroke-linejoin="miter" stroke-miterlimit="10" stroke-dasharray="" stroke-dashoffset="0" style="mix-blend-mode: normal"><path d="M251.48891,207.91628c0,7.09579 -5.75228,12.84807 -12.84807,12.84807c-7.09579,0 -12.84807,-5.75227 -12.84807,-12.84807c0,-7.09579 5.75228,-12.84807 12.84807,-12.84807c7.09579,0 12.84807,5.75227 12.84807,12.84807z" data-paper-data="{&quot;origPos&quot;:null}" fill="url(#color-1)" stroke="#e4e4e4" stroke-width="2" stroke-linecap="butt"/><path d="M249.8594,200.48947l4.13645,-0.87743l-2.38159,4.01111z" data-paper-data="{&quot;origPos&quot;:null,&quot;index&quot;:null}" fill="#e4e4e4" stroke="none" stroke-width="0" stroke-linecap="round"/><path d="M251.86495,211.01862l2.63229,3.88576l-4.13645,-0.87743z" data-paper-data="{&quot;origPos&quot;:null,&quot;index&quot;:null}" fill="#e4e4e4" stroke="none" stroke-width="0" stroke-linecap="round"/><path d="M229.08848,216.56454l-4.13645,0.87743l2.38159,-4.01111z" data-paper-data="{&quot;origPos&quot;:null,&quot;index&quot;:null}" fill="#e4e4e4" stroke="none" stroke-width="0" stroke-linecap="round"/><path d="M225.79278,204.75126l-2.38159,-4.01111l4.13645,0.87743z" data-paper-data="{&quot;origPos&quot;:null}" fill="#e4e4e4" stroke="none" stroke-width="0" stroke-linecap="round"/><path d="M233.06291,204.24988c0,-0.86534 0.7015,-1.56684 1.56684,-1.56684c0.86534,0 1.56684,0.7015 1.56684,1.56684c0,0.86534 -0.7015,1.56684 -1.56684,1.56684c-0.86534,0 -1.56684,-0.7015 -1.56684,-1.56684z" data-paper-data="{&quot;origPos&quot;:null}" fill="#e4e4e4" stroke="none" stroke-width="0.5" stroke-linecap="butt"/><path d="M243.13626,200.80747c0,-0.86534 0.7015,-1.56684 1.56684,-1.56684c0.86534,0 1.56684,0.7015 1.56684,1.56684c0,0.86534 -0.7015,1.56684 -1.56684,1.56684c-0.86534,0 -1.56684,-0.7015 -1.56684,-1.56684z" data-paper-data="{&quot;origPos&quot;:null}" fill="#e4e4e4" stroke="none" stroke-width="0.5" stroke-linecap="butt"/><path d="M240.22813,216.67004c0,-0.86534 0.7015,-1.56684 1.56684,-1.56684c0.86534,0 1.56684,0.7015 1.56684,1.56684c0,0.86534 -0.7015,1.56684 -1.56684,1.56684c-0.86534,0 -1.56684,-0.7015 -1.56684,-1.56684z" data-paper-data="{&quot;origPos&quot;:null}" fill="#e4e4e4" stroke="none" stroke-width="0.5" stroke-linecap="butt"/><path d="M245.64784,209.53189c0,-0.86534 0.7015,-1.56684 1.56684,-1.56684c0.86534,0 1.56684,0.7015 1.56684,1.56684c0,0.86534 -0.7015,1.56684 -1.56684,1.56684c-0.86534,0 -1.56684,-0.7015 -1.56684,-1.56684z" data-paper-data="{&quot;origPos&quot;:null}" fill="#e4e4e4" stroke="none" stroke-width="0.5" stroke-linecap="butt"/><path d="M229.3887,213.62972c0,-0.86534 0.7015,-1.56684 1.56684,-1.56684c0.86534,0 1.56684,0.7015 1.56684,1.56684c0,0.86534 -0.7015,1.56684 -1.56684,1.56684c-0.86534,0 -1.56684,-0.7015 -1.56684,-1.56684z" data-paper-data="{&quot;origPos&quot;:null}" fill="#e4e4e4" stroke="none" stroke-width="0.5" stroke-linecap="butt"/><path d="M237.45218,209.26751c0,-0.86534 0.7015,-1.56684 1.56684,-1.56684c0.86534,0 1.56684,0.7015 1.56684,1.56684c0,0.86534 -0.7015,1.56684 -1.56684,1.56684c-0.86534,0 -1.56684,-0.7015 -1.56684,-1.56684z" data-paper-data="{&quot;origPos&quot;:null}" fill="#e4e4e4" stroke="none" stroke-width="0.5" stroke-linecap="butt"/><path d="M229.52089,201.20403c0,-0.86534 0.7015,-1.56684 1.56684,-1.56684c0.86534,0 1.56684,0.7015 1.56684,1.56684c0,0.86534 -0.7015,1.56684 -1.56684,1.56684c-0.86534,0 -1.56684,-0.7015 -1.56684,-1.56684z" data-paper-data="{&quot;origPos&quot;:null}" fill="#e4e4e4" stroke="none" stroke-width="0.5" stroke-linecap="butt"/><path d="M251.08265,184.89376c0,7.09579 -5.75228,12.84807 -12.84807,12.84807c-7.09579,0 -12.84807,-5.75227 -12.84807,-12.84807c0,-7.09579 5.75228,-12.84807 12.84807,-12.84807c7.09579,0 12.84807,5.75228 12.84807,12.84807z" data-paper-data="{&quot;origPos&quot;:null}" fill="url(#color-2)" stroke="#e4e4e4" stroke-width="2" stroke-linecap="butt"/><path d="M249.20244,177.99039l4.13645,-0.87743l-2.38159,4.01111z" data-paper-data="{&quot;origPos&quot;:null,&quot;index&quot;:null}" fill="#e4e4e4" stroke="none" stroke-width="0" stroke-linecap="round"/><path d="M251.20799,188.74817l2.63229,3.88576l-4.13645,-0.87743z" data-paper-data="{&quot;origPos&quot;:null,&quot;index&quot;:null}" fill="#e4e4e4" stroke="none" stroke-width="0" stroke-linecap="round"/><path d="M225.59269,181.15035l-2.38159,-4.01111l4.13645,0.87743z" data-paper-data="{&quot;origPos&quot;:null}" fill="#e4e4e4" stroke="none" stroke-width="0" stroke-linecap="round"/><path d="M227.64951,192.78664l-4.13645,0.87743l2.38159,-4.01111z" data-paper-data="{&quot;origPos&quot;:null,&quot;index&quot;:null}" fill="#e4e4e4" stroke="none" stroke-width="0" stroke-linecap="round"/><path d="M242.7431,190.71621c0,-0.86534 0.7015,-1.56684 1.56684,-1.56684c0.86534,0 1.56684,0.7015 1.56684,1.56684c0,0.86534 -0.7015,1.56684 -1.56684,1.56684c-0.86534,0 -1.56684,-0.7015 -1.56684,-1.56684z" data-paper-data="{&quot;origPos&quot;:null}" fill="#e4e4e4" stroke="none" stroke-width="0.5" stroke-linecap="butt"/><path d="M229.14883,180.73382c0,-0.86534 0.7015,-1.56684 1.56684,-1.56684c0.86534,0 1.56684,0.7015 1.56684,1.56684c0,0.86534 -0.7015,1.56684 -1.56684,1.56684c-0.86534,0 -1.56684,-0.7015 -1.56684,-1.56684z" data-paper-data="{&quot;origPos&quot;:null}" fill="#e4e4e4" stroke="none" stroke-width="0.5" stroke-linecap="butt"/><path d="M230.99947,190.51573c0,-0.86534 0.7015,-1.56684 1.56684,-1.56684c0.86534,0 1.56684,0.7015 1.56684,1.56684c0,0.86534 -0.7015,1.56684 -1.56684,1.56684c-0.86534,0 -1.56684,-0.7015 -1.56684,-1.56684z" data-paper-data="{&quot;origPos&quot;:null}" fill="#e4e4e4" stroke="none" stroke-width="0.5" stroke-linecap="butt"/><path d="M244.35046,184.3029c0,-0.86534 0.7015,-1.56684 1.56684,-1.56684c0.86534,0 1.56684,0.7015 1.56684,1.56684c0,0.86534 -0.7015,1.56684 -1.56684,1.56684c-0.86534,0 -1.56684,-0.7015 -1.56684,-1.56684z" data-paper-data="{&quot;origPos&quot;:null}" fill="#e4e4e4" stroke="none" stroke-width="0.5" stroke-linecap="butt"/><path d="M241.44232,178.88319c0,-0.86534 0.7015,-1.56684 1.56684,-1.56684c0.86534,0 1.56684,0.7015 1.56684,1.56684c0,0.86534 -0.7015,1.56684 -1.56684,1.56684c-0.86534,0 -1.56684,-0.7015 -1.56684,-1.56684z" data-paper-data="{&quot;origPos&quot;:null}" fill="#e4e4e4" stroke="none" stroke-width="0.5" stroke-linecap="butt"/><path d="M236.28698,185.36039c0,-0.86534 0.7015,-1.56684 1.56684,-1.56684c0.86534,0 1.56684,0.7015 1.56684,1.56684c0,0.86534 -0.7015,1.56684 -1.56684,1.56684c-0.86534,0 -1.56684,-0.7015 -1.56684,-1.56684z" data-paper-data="{&quot;origPos&quot;:null}" fill="#e4e4e4" stroke="none" stroke-width="0.5" stroke-linecap="butt"/><path d="M250.65234,155.32324l4.13645,-0.87743l-2.38159,4.01111z" data-paper-data="{&quot;origPos&quot;:null,&quot;index&quot;:null}" fill="#e4e4e4" stroke="none" stroke-width="0" stroke-linecap="round"/><path d="M252.65789,162.6247c0,7.09579 -5.75228,12.84807 -12.84807,12.84807c-7.09579,0 -12.84807,-5.75228 -12.84807,-12.84807c0,-7.09579 5.75228,-12.84807 12.84807,-12.84807c7.09579,0 12.84807,5.75228 12.84807,12.84807z" data-paper-data="{&quot;origPos&quot;:null}" fill="url(#color-3)" stroke="#e4e4e4" stroke-width="2" stroke-linecap="butt"/><path d="M229.10627,169.68972l-4.13645,0.87743l2.38159,-4.01111z" data-paper-data="{&quot;origPos&quot;:null,&quot;index&quot;:null}" fill="#e4e4e4" stroke="none" stroke-width="0" stroke-linecap="round"/><path d="M228.01464,157.77281l-2.38159,-4.01111l4.13645,0.87743z" data-paper-data="{&quot;origPos&quot;:null}" fill="#e4e4e4" stroke="none" stroke-width="0" stroke-linecap="round"/><path d="M252.65789,165.85238l2.63229,3.88576l-4.13645,-0.87743z" data-paper-data="{&quot;origPos&quot;:null,&quot;index&quot;:null}" fill="#e4e4e4" stroke="none" stroke-width="0" stroke-linecap="round"/><path d="M237.9111,158.61574c0,1.85779 -1.02913,3.36383 -2.29862,3.36383c-1.2695,0 -2.29862,-1.50605 -2.29862,-3.36383c0,-1.85779 1.02913,-3.36383 2.29862,-3.36383c1.2695,0 2.29862,1.50605 2.29862,3.36383z" data-paper-data="{&quot;origPos&quot;:null}" fill="#e4e4e4" stroke="#000000" stroke-width="2" stroke-linecap="butt"/><path d="M246.17247,158.74354c0,1.85779 -1.02913,3.36383 -2.29862,3.36383c-1.2695,0 -2.29862,-1.50605 -2.29862,-3.36383c0,-1.85779 1.02913,-3.36383 2.29862,-3.36383c1.2695,0 2.29862,1.50605 2.29862,3.36383z" data-paper-data="{&quot;origPos&quot;:null}" fill="#e4e4e4" stroke="#000000" stroke-width="2" stroke-linecap="butt"/><path d="M240.19544,166.59715l-7.6029,-0.05803l7.27763,-3.6577z" data-paper-data="{&quot;origPos&quot;:null,&quot;origRot&quot;:0}" fill="url(#color-4)" stroke="#c67d00" stroke-width="0.5" stroke-linecap="round"/><path d="M239.8971,170.33312c0,0.78122 -0.51456,1.41454 -1.1493,1.41454c-0.63475,0 -1.14931,-0.63331 -1.14931,-1.41454c0,-0.78122 0.51456,-1.41454 1.14931,-1.41454c0.63475,0 1.1493,0.63331 1.1493,1.41454z" data-paper-data="{&quot;origPos&quot;:null}" fill="#000000" stroke="#000000" stroke-width="0.5" stroke-linecap="butt"/><g data-paper-data="{&quot;origPos&quot;:null}" stroke-width="0.5" stroke-linecap="butt"><path d="M254.41585,158.7529c1.7584,1.05194 -1.71831,-11.25369 -1.71831,-11.25369c0.1413,0.91688 4.92098,12.55776 2.60465,12.91472c-2.31634,0.35696 -5.5841,-5.4121 -5.7254,-6.32899c-0.1413,-0.91688 2.6473,3.35679 4.83906,4.66797z" data-paper-data="{&quot;origPos&quot;:null,&quot;index&quot;:null,&quot;origRot&quot;:0}" fill="url(#color-5)" stroke="#b8b500"/><path d="M239.15952,148.07891l5.22402,-9.83857l12.02492,6.3849l-5.22402,9.83857z" data-paper-data="{&quot;origPos&quot;:null,&quot;origRot&quot;:0}" fill="url(#color-6)" stroke="#a20000"/><path d="M251.18293,154.82331c-0.51591,0.90654 -3.75661,0.24318 -7.23831,-1.48166c-3.48169,-1.72484 -5.88595,-3.85799 -5.37003,-4.76454c0.51591,-0.90654 3.75662,-0.24319 7.23831,1.48165c3.48169,1.72484 5.88594,3.85799 5.37002,4.76454z" data-paper-data="{&quot;origPos&quot;:null,&quot;origRot&quot;:0}" fill="url(#color-7)" stroke="#a20000"/></g></g></g></svg>