<svg version="1.1" xmlns="http://www.w3.org/2000/svg" xmlns:xlink="http://www.w3.org/1999/xlink" width="127.36022" height="177.99459" viewBox="0,0,127.36022,177.99459"><defs><radialGradient cx="275.52522" cy="202.3607" r="11.15763" gradientUnits="userSpaceOnUse" id="color-1"><stop offset="0" stop-color="#b6d6d4"/><stop offset="1" stop-color="#839a99"/></radialGradient><radialGradient cx="287.9092" cy="211.21405" r="5.68075" gradientUnits="userSpaceOnUse" id="color-2"><stop offset="0" stop-color="#b6d6d6"/><stop offset="1" stop-color="#89a19f"/></radialGradient><radialGradient cx="281.3064" cy="213.81504" r="5.57885" gradientUnits="userSpaceOnUse" id="color-3"><stop offset="0" stop-color="#b6d6d6"/><stop offset="1" stop-color="#89a19f"/></radialGradient><radialGradient cx="293.28906" cy="205.76478" r="5.28347" gradientUnits="userSpaceOnUse" id="color-4"><stop offset="0" stop-color="#b6d6d6"/><stop offset="1" stop-color="#89a19f"/></radialGradient><radialGradient cx="293.22585" cy="201.15169" r="3.24716" gradientUnits="userSpaceOnUse" id="color-5"><stop offset="0" stop-color="#b6d6d6"/><stop offset="1" stop-color="#89a19f"/></radialGradient><radialGradient cx="268.13687" cy="196.71869" r="3.61811" gradientUnits="userSpaceOnUse" id="color-6"><stop offset="0" stop-color="#d2d3db"/><stop offset="1" stop-color="#a3a5ab"/></radialGradient><radialGradient cx="268.80854" cy="194.56935" r="6.99881" gradientUnits="userSpaceOnUse" id="color-7"><stop offset="0" stop-color="#d2d3db"/><stop offset="1" stop-color="#a3a5ab"/></radialGradient><linearGradient x1="197.4938" y1="203.03086" x2="178.68048" y2="203.03086" gradientUnits="userSpaceOnUse" id="color-8"><stop offset="0" stop-color="#e9eaf3"/><stop offset="1" stop-color="#9ca4ab"/></linearGradient><linearGradient x1="217.33988" y1="208.53129" x2="192.54918" y2="208.53129" gradientUnits="userSpaceOnUse" id="color-9"><stop offset="0" stop-color="#e9eaf3"/><stop offset="1" stop-color="#9ca4ab"/></linearGradient><radialGradient cx="250.84669" cy="247.51954" r="14.56944" gradientUnits="userSpaceOnUse" id="color-10"><stop offset="0" stop-color="#accac8"/><stop offset="1" stop-color="#839a99"/></radialGradient><linearGradient x1="239.54006" y1="236.99079" x2="240.28815" y2="242.56823" gradientUnits="userSpaceOnUse" id="color-11"><stop offset="0" stop-color="#d2d3db"/><stop offset="1" stop-color="#a3a5ab"/></linearGradient><linearGradient x1="236.06835" y1="228.1303" x2="237.4116" y2="238.14505" gradientUnits="userSpaceOnUse" id="color-12"><stop offset="0" stop-color="#d2d3db"/><stop offset="1" stop-color="#a3a5ab"/></linearGradient><radialGradient cx="251.55873" cy="184.37294" r="12.46491" gradientUnits="userSpaceOnUse" id="color-13"><stop offset="0" stop-color="#645d46"/><stop offset="1" stop-color="#978d69"/></radialGradient><radialGradient cx="261.72087" cy="189.88953" r="14.40414" gradientUnits="userSpaceOnUse" id="color-14"><stop offset="0" stop-color="#645d46"/><stop offset="1" stop-color="#978d69"/></radialGradient><radialGradient cx="252.72012" cy="205.27791" r="18.36514" gradientUnits="userSpaceOnUse" id="color-15"><stop offset="0" stop-color="#645d46"/><stop offset="1" stop-color="#978d69"/></radialGradient><radialGradient cx="255.0429" cy="220.37595" r="18.81118" gradientUnits="userSpaceOnUse" id="color-16"><stop offset="0" stop-color="#645d46"/><stop offset="1" stop-color="#978d69"/></radialGradient><radialGradient cx="233.84758" cy="226.47323" r="16.1122" gradientUnits="userSpaceOnUse" id="color-17"><stop offset="0" stop-color="#645d46"/><stop offset="1" stop-color="#978d69"/></radialGradient><linearGradient x1="246.69985" y1="194.12298" x2="208.0695" y2="194.12298" gradientUnits="userSpaceOnUse" id="color-18"><stop offset="0" stop-color="#9299a0"/><stop offset="1" stop-color="#e5f0fb"/></linearGradient><radialGradient cx="212.17273" cy="182.02082" r="10.30069" gradientUnits="userSpaceOnUse" id="color-19"><stop offset="0" stop-color="#a6a7ad"/><stop offset="1" stop-color="#74757a"/></radialGradient><radialGradient cx="224.8068" cy="164.57846" r="9.21465" gradientUnits="userSpaceOnUse" id="color-20"><stop offset="0" stop-color="#a6a7ad"/><stop offset="1" stop-color="#74757a"/></radialGradient><radialGradient cx="226.80438" cy="172.25715" r="2.96811" gradientUnits="userSpaceOnUse" id="color-21"><stop offset="0" stop-color="#a6a7ad"/><stop offset="1" stop-color="#74757a"/></radialGradient><radialGradient cx="205.52983" cy="198.83351" r="13.1884" gradientUnits="userSpaceOnUse" id="color-22"><stop offset="0" stop-color="#a6a7ad"/><stop offset="1" stop-color="#74757a"/></radialGradient><radialGradient cx="213.58984" cy="196.31137" r="2.13332" gradientUnits="userSpaceOnUse" id="color-23"><stop offset="0" stop-color="#a6a7ad"/><stop offset="1" stop-color="#74757a"/></radialGradient><radialGradient cx="225.28804" cy="243.26107" r="16.61441" gradientUnits="userSpaceOnUse" id="color-24"><stop offset="0" stop-color="#accac8"/><stop offset="1" stop-color="#839a99"/></radialGradient><linearGradient x1="233.94136" y1="230.27121" x2="227.70924" y2="232.90018" gradientUnits="userSpaceOnUse" id="color-25"><stop offset="0" stop-color="#d2d3db"/><stop offset="1" stop-color="#a3a5ab"/></linearGradient><linearGradient x1="242.3484" y1="224.93894" x2="232.34824" y2="229.15741" gradientUnits="userSpaceOnUse" id="color-26"><stop offset="0" stop-color="#d2d3db"/><stop offset="1" stop-color="#a3a5ab"/></linearGradient><linearGradient x1="268.76772" y1="156.60635" x2="263.12699" y2="180.84891" gradientUnits="userSpaceOnUse" id="color-27"><stop offset="0" stop-color="#9da5ac"/><stop offset="1" stop-color="#838a90"/></linearGradient><linearGradient x1="265.86567" y1="103.02586" x2="256.41667" y2="143.63552" gradientUnits="userSpaceOnUse" id="color-28"><stop offset="0" stop-color="#d2d3db"/><stop offset="1" stop-color="#bdc0c7"/></linearGradient><radialGradient cx="273.53072" cy="121.28774" r="5.1506" gradientUnits="userSpaceOnUse" id="color-29"><stop offset="0" stop-color="#d5e20f"/><stop offset="1" stop-color="#d5e20f" stop-opacity="0"/></radialGradient><radialGradient cx="263.55662" cy="122.10283" r="6.53642" gradientUnits="userSpaceOnUse" id="color-30"><stop offset="0" stop-color="#d5e20f"/><stop offset="1" stop-color="#d5e20f" stop-opacity="0"/></radialGradient><linearGradient x1="276.3024" y1="120.92534" x2="264.76488" y2="170.51095" gradientUnits="userSpaceOnUse" id="color-31"><stop offset="0" stop-color="#e9eaf3"/><stop offset="1" stop-color="#9ca4ab"/></linearGradient><linearGradient x1="281.16613" y1="158.54813" x2="278.72905" y2="166.24539" gradientUnits="userSpaceOnUse" id="color-32"><stop offset="0" stop-color="#000000"/><stop offset="1" stop-color="#000000" stop-opacity="0"/></linearGradient><radialGradient cx="235.27482" cy="198.46002" r="4.28242" gradientUnits="userSpaceOnUse" id="color-33"><stop offset="0" stop-color="#d2d3db"/><stop offset="1" stop-color="#a3a5ab"/></radialGradient><radialGradient cx="233.25982" cy="193.62401" r="9.15743" gradientUnits="userSpaceOnUse" id="color-34"><stop offset="0" stop-color="#d2d3db"/><stop offset="1" stop-color="#a3a5ab"/></radialGradient><radialGradient cx="243.35805" cy="205.30789" r="12.54263" gradientUnits="userSpaceOnUse" id="color-35"><stop offset="0" stop-color="#b6d6d4"/><stop offset="1" stop-color="#839a99"/></radialGradient><radialGradient cx="257.27927" cy="215.26022" r="6.38591" gradientUnits="userSpaceOnUse" id="color-36"><stop offset="0" stop-color="#b6d6d6"/><stop offset="1" stop-color="#89a19f"/></radialGradient><radialGradient cx="249.85685" cy="218.18407" r="6.27135" gradientUnits="userSpaceOnUse" id="color-37"><stop offset="0" stop-color="#b6d6d6"/><stop offset="1" stop-color="#89a19f"/></radialGradient><radialGradient cx="263.32693" cy="209.13452" r="5.9393" gradientUnits="userSpaceOnUse" id="color-38"><stop offset="0" stop-color="#b6d6d6"/><stop offset="1" stop-color="#89a19f"/></radialGradient><radialGradient cx="263.25587" cy="203.94881" r="3.65023" gradientUnits="userSpaceOnUse" id="color-39"><stop offset="0" stop-color="#b6d6d6"/><stop offset="1" stop-color="#89a19f"/></radialGradient><linearGradient x1="245.05768" y1="85.44772" x2="257.29788" y2="110.25053" gradientUnits="userSpaceOnUse" id="color-40"><stop offset="0" stop-color="#6b40c0"/><stop offset="1" stop-color="#252972"/></linearGradient><linearGradient x1="254.39722" y1="100.64925" x2="259.38138" y2="110.74884" gradientUnits="userSpaceOnUse" id="color-41"><stop offset="0" stop-color="#d62d2d"/><stop offset="1" stop-color="#8e1e1e"/></linearGradient></defs><g transform="translate(-178.30547,-80.68982)"><g data-paper-data="{&quot;isPaintingLayer&quot;:true}" fill-rule="nonzero" stroke-linejoin="miter" stroke-miterlimit="10" stroke-dasharray="" stroke-dashoffset="0" style="mix-blend-mode: normal"><g data-paper-data="{&quot;index&quot;:null}" stroke-width="0.75" stroke-linecap="butt"><path d="M266.43976,204.90704c-0.39524,-1.44671 -0.2972,-3.14646 -0.3012,-3.25482c-0.03963,-1.07434 1.42539,-3.42609 2.96789,-4.93839c1.09039,-1.06905 2.63065,-1.58703 3.31692,-1.85817c1.755,-0.6934 4.34954,1.71035 4.34954,1.71035c0,0 1.89813,-0.5602 3.91586,-0.41311c2.20242,0.16055 7.73839,1.85258 7.645,2.19758c-0.05607,0.20715 -3.92474,1.35203 -2.96649,3.43206c0.68113,1.4785 3.07854,3.31302 3.07854,3.31302c0,0 -6.79416,-2.9586 -7.00697,-1.93818c-0.46987,2.25297 2.13219,5.03985 2.13219,5.03985l-1.00819,0.08357c0,0 -4.60515,-3.5607 -4.914,-2.97449c-1.47523,2.79999 0.73617,5.74477 0.73617,5.74477c0,0 -3.56003,0.2582 -5.92578,-0.60429c-2.10032,-0.76572 -3.18491,-2.12996 -3.18491,-2.12996c0,0 -0.79429,-0.42589 -1.45117,-1.07528c-0.64663,-0.63925 -1.15418,-1.49541 -1.38342,-2.33451z" fill="url(#color-1)" stroke="#4a5957"/><path d="M285.30502,211.5106c-0.78472,-1.98611 -5.47198,-7.83862 -4.04949,-8.40065c0.78087,-0.30853 4.15606,0.23013 6.34588,1.83917c1.79933,1.3221 1.85898,3.99637 2.21293,4.89222c0.78472,1.9861 0.90965,3.68578 -0.51284,4.24781c-0.84994,0.33581 -2.43436,0.52203 -3.25366,-0.17899c-0.55193,-0.47224 -0.42699,-1.60012 -0.74283,-2.39955z" fill="url(#color-2)" stroke="#4a5957"/><path d="M278.63546,214.07782c-0.07284,-0.60791 0.66411,-1.15683 0.40575,-2.1877c-0.28662,-1.14361 -1.26019,-2.18242 -1.65339,-3.36032c-0.54609,-1.63588 -0.32406,-3.30042 0.34675,-3.38078c0.8724,-0.10451 5.12998,3.27916 5.12998,3.27916c0,0 0.98699,2.48057 0.92514,3.75283c-0.01738,0.35757 -0.22652,3.5422 -1.81574,3.73258c-0.94955,0.11375 -1.78201,0.85897 -2.42472,-0.0685c-0.43297,-0.6248 -0.80679,-0.87416 -0.91378,-1.76727z" fill="url(#color-3)" stroke="#4a5957"/><path d="M290.46891,207.0826c-0.33404,-0.84546 -1.81901,-1.68296 -3.03858,-2.80202c-1.6217,-1.48802 -2.32794,-3.34978 -2.32794,-3.34978c0,0 1.33749,-3.04349 3.50921,-1.44776c0.62191,0.45696 1.82795,0.30209 2.82152,0.99338c0.81563,0.56748 1.40873,1.97136 2.0944,2.48282c0.87572,0.65322 1.44058,1.10462 1.56884,1.42925c0.77823,1.96969 0.90214,3.65531 -0.5086,4.21269c-0.84291,0.33304 -2.41424,0.51771 -3.22677,-0.17751c-0.54737,-0.46834 -0.57887,-0.54826 -0.8921,-1.34108z" fill="url(#color-4)" stroke="#4a5957"/><path d="M291.62702,200.742c-1.42209,-0.88948 -4.21854,-1.85269 -4.21854,-1.85269l1.09769,-0.47506c0,0 1.03977,0.55191 1.58551,0.6999c1.06582,0.28903 2.40974,0.19488 3.0573,0.5999c1.4221,0.88947 0.39548,3.11199 0.39548,3.11199c0,0 -0.38201,-0.41332 -0.9214,-1.09023c-0.24067,-0.30202 -0.55728,-0.71938 -0.99603,-0.99381z" fill="url(#color-5)" stroke="#4a5957"/><path d="M266.12705,202.72542c0,0 -0.91876,-1.34787 -1.00522,-2.65269c-0.04001,-0.60388 0.49666,-1.25988 0.63765,-1.73803c0.44563,-1.51128 2.02819,-2.21862 2.79997,-2.68448c0.65568,-0.39578 1.61542,0.06258 1.61542,0.06258c0,0 -2.45442,2.4758 -2.49647,2.54865c-0.70393,1.2195 -1.55136,4.46397 -1.55136,4.46397z" data-paper-data="{&quot;index&quot;:null}" fill="url(#color-6)" stroke="#747474"/><path d="M268.37814,192.56051c0.1542,0.17501 0.37027,1.10129 0.82262,1.56222c0.61227,0.62389 1.10705,1.15637 1.11062,1.45594c0.00185,0.15493 -1.56426,-0.19551 -2.31554,0.36103c-0.37557,0.27821 -0.9655,0.51803 -1.40138,1.0288c-0.46946,0.55012 -0.94096,1.17543 -1.17422,1.82838c-0.41656,1.16604 -0.37785,2.2882 -0.37785,2.2882c0,0 -1.27802,-0.00007 -1.7639,-0.46099c-0.32404,-0.3074 -1.02193,-1.25438 -1.26063,-2.25171c-0.25608,-1.06994 -0.04269,-2.21509 -0.07877,-3.21945c-0.00296,-0.08264 -0.59011,-1.15974 -0.58868,-1.23543c0.01148,-0.60828 -1.36812,-2.75034 -1.07175,-4.30034c0.18659,-0.97584 1.90129,-1.40896 2.33321,-2.04423c0.41522,-0.6107 2.64139,-0.47192 2.64139,-0.47192c0,0 0.64247,0.56385 1.20257,1.03835c0.26162,0.22164 0.50529,0.4238 0.6571,0.53988c0.3616,0.2765 0.6559,1.28532 0.9294,1.86456c0.43289,0.91681 0.11422,1.76525 0.3358,2.01672z" data-paper-data="{&quot;index&quot;:null}" fill="url(#color-7)" stroke="#747474"/></g><g data-paper-data="{&quot;index&quot;:null}" stroke="#747474" stroke-width="0.75" stroke-linecap="butt"><path d="M182.91846,202.81225c0,-1.73998 -2.4774,-3.02732 -3.256,-4.35536c-1.52658,-2.60384 -1.49721,-4.53505 1.7013,-4.53505c2.29762,0 3.4083,0.80762 6.99803,2.57142c3.95629,1.94391 9.40067,3.9186 9.40067,3.9186c0,0 -2.99758,2.75241 -3.74311,4.69088c-0.83723,2.17691 -1.30582,6.93243 -1.30582,6.93243c0,0 -2.49174,0.1047 -3.18757,0.1047c-2.36056,0 -2.42003,-1.76756 -3.85095,-3.2822c-1.49685,-1.5844 -2.75655,-3.41168 -2.75655,-6.04543z" fill="url(#color-8)"/><path d="M194.19006,205.40678c0,-1.80412 3.49995,-5.19189 3.49995,-5.19189c0,0 3.48868,-0.93621 4.92002,-0.95178c1.53994,-0.01675 4.01766,0.85455 4.01766,0.85455c0,0 0.38924,5.18423 2.79411,8.77943c2.35589,3.52198 7.91809,5.83606 7.91809,5.83606l-5.38691,2.35225c0,0 -4.82381,-0.64702 -5.51964,-0.64702c-2.36056,0 -6.50112,2.39856 -7.93204,0.82808c-0.9656,-1.05977 -5.94768,-5.67323 -5.94768,-5.67323c0,0 -0.07664,-2.23404 0.40775,-4.04991c0.25584,-0.95911 1.22868,-1.80156 1.22868,-2.13654z" fill="url(#color-9)"/></g><g data-paper-data="{&quot;index&quot;:null}" stroke-width="0.75" stroke-linecap="butt"><path d="M241.48392,246.26315c-3.63853,0.48802 -10.34419,-0.86247 -10.34419,-0.86247c0,0 -2.51541,-4.1 0.32998,-4.854c0.38895,-0.10307 3.85362,-0.69187 3.85362,-0.69187l0.2642,1.83901c0,0 3.71144,0.94087 4.26133,0.86712c2.64402,-0.35464 4.71016,-1.595 4.71016,-1.595c0,0 1.56426,0.0253 2.13008,0.36479c0.6609,0.39652 1.59462,1.86987 1.59462,1.86987c0,0 -2.61336,2.50104 -6.79978,3.06256z" fill="#627372" stroke="#222828"/><path d="M229.7447,256.07343c0,0 -1.76001,-0.96539 -2.18205,-2.69808c-0.30833,-1.26584 0.6553,-3.24888 0.77304,-4.03768c0.17367,-1.16345 2.41167,-3.74743 2.41167,-3.74743l8.61954,0.44482c0,0 2.47583,0.10981 4.29334,-1.15198c1.69092,-1.17392 3.48539,-1.52981 3.70611,-1.55941c3.02765,-0.40609 5.87907,-0.28243 7.16,1.58037c0.70303,1.02239 1.56005,2.35693 1.78261,3.70908c0.37772,2.29479 -0.20895,4.52457 -0.20895,4.52457c0,0 -7.42141,2.19382 -14.93091,3.20105c-7.50948,1.00723 -11.42436,-0.2653 -11.42436,-0.2653z" fill="url(#color-10)" stroke="#4a5957"/><path d="M229.73619,256.07206c0,0 2.02274,1.20209 6.45658,0.65914c0.09391,-0.0115 9.30329,-1.02017 9.39171,-1.03203c3.76743,-0.50531 10.34641,-2.486 10.34641,-2.486l0.10396,1.86753c0,0 -3.73381,1.81134 -10.26105,2.68683c-6.52724,0.87549 -15.76282,0.42702 -15.76282,0.42702z" fill="#a06025" stroke="#3f260f"/><path d="M235.51388,238.35367c0,0 3.02976,-1.22923 3.95635,-1.35351c0.7872,-0.10559 4.57609,0.3128 4.89689,2.01825c0.1284,0.68258 -0.90691,0.81827 -0.48942,1.13583c0.44569,0.339 0.6549,0.79502 0.6549,0.79502c0,0 -2.57154,1.39458 -4.64235,1.67234c-2.07081,0.27775 -4.28507,-0.99976 -4.28507,-0.99976z" fill="url(#color-11)" stroke="#747474"/><path d="M235.29836,238.42846c0,0 -1.10718,-1.68856 -1.31963,-2.48562c-0.09998,-0.37507 -0.14224,-1.41249 -0.71284,-2.41834c-0.83587,-1.47347 -1.68243,-1.81887 -2.19676,-2.43249c-0.13609,-0.16236 -0.68598,-1.5293 -0.68598,-1.5293c0,0 4.99542,-1.3399 5.92201,-1.46418c0.3331,-0.04468 1.1789,1.25821 2.39199,2.10587c1.65359,1.15546 3.75029,2.07126 3.95116,3.17294c0.13937,0.76439 -0.32869,3.81858 -0.32869,3.81858c0,0 -1.89999,-0.28502 -3.9708,-0.00726c-0.69016,0.09257 -1.22608,0.50762 -1.67796,0.69126c-0.90397,0.36739 -1.3725,0.54857 -1.3725,0.54857z" fill="url(#color-12)" stroke="#747474"/></g><g data-paper-data="{&quot;index&quot;:null}" stroke-linecap="butt"><path d="M203.64527,193.64831c-2.66178,-12.89085 4.64395,-25.29504 16.31783,-27.70554c11.67388,-2.4105 18.41158,-11.79637 21.07337,1.09448c2.66179,12.89085 -16.5049,46.9748 -28.17878,49.3853c-11.67387,2.4105 -6.55062,-9.88339 -9.21241,-22.77424z" fill="#000000" stroke="#000000" stroke-width="0.5"/><path d="M243.70629,177.20852l2.75199,-5.55027l7.27393,-0.3809c0,0 10.62022,2.39442 12.84001,8.38924c0.04083,0.11027 2.73176,12.12937 0.22839,21.93033c-3.44178,13.47496 -12.91559,26.00092 -18.19397,27.09083c-2.70735,0.55903 -9.72383,2.53843 -15.97123,1.46468c-6.12227,-1.05225 -11.49637,-5.10216 -12.28214,-9.9366c-1.11274,-6.84615 14.19563,-26.4059 14.19563,-26.4059z" fill="#000000" stroke="none" stroke-width="0"/><path d="M253.9572,187.34603c-2.72539,-0.8542 -6.25364,-2.60699 -8.5856,-4.21836c-1.92457,-1.32986 -2.92804,-2.63425 -2.92804,-2.63425c0,0 0.83823,-1.8065 1.27158,-2.62554c0.45319,-0.85654 1.3907,-2.40624 1.3907,-2.40624c0,0 7.40687,5.68617 11.09661,5.87515c3.68974,0.18898 10.41248,-0.61154 10.41248,-0.61154c0,0 0.55781,1.51329 0.67793,2.32309c0.13164,0.88745 0.08051,2.79001 0.08051,2.79001c0,0 -8.44152,3.06686 -13.41618,1.50768z" fill="url(#color-13)" stroke="none" stroke-width="NaN"/><path d="M267.30969,190.94466c0,0 -10.42498,3.49194 -14.15231,2.15765c-3.28342,-1.17538 -7.35684,-3.13133 -8.52693,-3.61715c-3.26315,-1.35484 -6.12904,-4.94294 -6.12904,-4.94294l3.35402,-4.4049c0,0 7.40829,6.39275 12.6592,6.6617c3.68974,0.18898 12.97737,-1.1705 12.97737,-1.1705c0,0 0.25577,2.26157 0.2229,3.22017c-0.02652,0.77338 -0.40521,2.09599 -0.40521,2.09599z" fill="url(#color-14)" stroke="none" stroke-width="NaN"/><path d="M249.00294,208.83388c-8.4838,-0.60794 -18.47985,-5.28662 -18.47985,-5.28662l3.51527,-7.05295c0,0 4.47126,2.04148 9.72217,2.31043c3.68974,0.18897 10.23607,2.36507 13.98421,1.2349c3.74814,-1.13017 9.50864,-1.87591 9.50864,-1.87591c0,0 -0.7691,8.50621 -2.42309,10.1769c-2.13945,2.16107 -7.34356,1.1012 -15.82735,0.49326z" fill="url(#color-15)" stroke="none" stroke-width="NaN"/><path d="M255.45441,223.5598c0,0 -11.52784,-0.27693 -17.35331,-2.09059c-5.82547,-1.81366 -13.59685,-7.71617 -13.59685,-7.71617l4.28822,-7.13529c0,0 7.67451,5.88466 14.76086,7.22359c6.03013,1.13936 18.57327,-0.2371 18.57327,-0.2371c0,0 -1.57229,3.9382 -2.71708,5.64633c-1.07487,1.60382 -3.95512,4.30924 -3.95512,4.30924z" fill="url(#color-16)" stroke="none" stroke-width="NaN"/><path d="M242.10311,230.07538c-3.90539,0.89414 -11.36498,-0.09606 -11.36498,-0.09606c-4.97466,-1.55918 -10.0432,-10.3135 -10.0432,-10.3135l1.95065,-4.2201c0,0 3.1837,6.67659 10.85255,9.23515c0.10227,0.03412 5.32241,1.06663 10.57154,1.43123c4.31434,0.29967 8.84967,-0.05326 8.84967,-0.05326l-3.9478,2.68161c0,0 -4.38433,0.76618 -6.86843,1.33492z" fill="url(#color-17)" stroke="none" stroke-width="NaN"/><path d="M228.59257,178.38623c0,0 3.69062,-6.89814 3.96092,-7.30912c1.16435,-1.77033 6.19941,-7.77135 6.19941,-7.77135c0,0 1.03805,2.50389 3.62959,5.12008c1.90996,1.92813 4.31736,2.28298 4.31736,2.28298c0,0 -5.2861,10.62623 -11.16859,21.44719c-3.02874,5.57145 -5.47629,11.79705 -8.54791,16.95472c-5.31003,8.91625 -10.4446,15.37985 -12.4178,15.78729c-1.79865,0.3714 -8.35297,-1.65713 -5.98752,-8.17562c4.64613,-12.80335 20.01454,-38.33615 20.01454,-38.33615z" fill="url(#color-18)" stroke="#747474" stroke-width="1"/><path d="M210.32621,178.62768l2.58266,0.24695l-0.9806,-4.31294l2.68536,-3.30997c0,0 5.0259,-0.3262 6.68027,1.76573c1.34277,1.69792 2.29549,4.12648 2.46734,4.95875c0.76679,3.71349 -4.22483,13.2527 -6.99019,13.82371c-1.6242,0.33537 -5.19551,-1.80049 -6.32,-4.47794c-0.79007,-1.88118 -2.14039,-6.15543 -2.14039,-6.15543z" fill="url(#color-19)" stroke="#343434" stroke-width="0.75"/><path d="M227.22684,169.5624c0,0 -3.13087,-1.12 -4.54483,-1.44801c-2.01249,-0.46687 -4.05276,0.03192 -4.0127,-1.14724c0.0682,-2.00763 5.70144,-6.38924 8.39741,-6.29765c0.60422,0.02052 4.92142,-2.33173 6.27328,-1.59415c1.66557,0.90874 3.75803,2.07521 3.75803,2.07521c0,0 -0.32301,3.27147 -1.3613,4.22305c-0.43065,0.39468 -4.33631,2.39518 -4.33631,2.39518l-3.18725,0.69984z" data-paper-data="{&quot;index&quot;:null}" fill="url(#color-20)" stroke="#343434" stroke-width="0.75"/><path d="M226.66983,176.00104l-1.99044,-4.69448c0,0 0.89445,-0.77071 1.8384,-0.99658c0.73061,-0.17482 3.35104,-0.24516 3.35104,-0.24516z" fill="url(#color-21)" stroke="#343434" stroke-width="0.75"/><path d="M212.32248,203.50224c0,0 -1.82152,3.62948 -2.45712,5.33956c-0.90465,2.43394 -0.79918,5.28931 -2.03138,4.76672c-2.09794,-0.88976 -5.54969,-9.97215 -4.89937,-13.4457c0.14575,-0.77849 -1.44164,-7.33784 -0.38795,-8.80365c1.2982,-1.80598 2.95525,-4.06493 2.95525,-4.06493c0,0 3.37508,1.72572 4.16276,3.45718c0.3267,0.71817 1.62861,6.60133 1.62861,6.60133l0.08128,4.42893z" data-paper-data="{&quot;index&quot;:null}" fill="url(#color-22)" stroke="#343434" stroke-width="0.75"/><path d="M214.10319,199.49038l-1.43063,-3.37416c0,0 0.6429,-0.55395 1.32136,-0.71629c0.52513,-0.12565 2.40856,-0.1762 2.40856,-0.1762z" fill="url(#color-23)" stroke="#343434" stroke-width="0.75"/></g><g data-paper-data="{&quot;index&quot;:null}" stroke-width="0.75" stroke-linecap="butt"><path d="M223.84204,235.54944c-1.7643,-4.18238 -1.83252,-11.10398 -1.83252,-11.10398c0,0 4.12457,-3.9594 5.75311,-1.24014c0.2226,0.37171 1.82584,3.79192 1.82584,3.79192l-2.0502,0.88513c0,0 -0.09489,4.18464 0.13685,4.734c1.11429,2.64149 3.09578,4.38643 3.09578,4.38643c0,0 0.3881,1.64066 0.14757,2.34359c-0.28094,0.82105 -1.73088,2.28364 -1.73088,2.28364c0,0 -3.58125,-1.89817 -5.34556,-6.08057z" fill="#627372" stroke="#222828"/><path d="M209.26495,225.89717c0,0 0.58844,-2.24835 2.4482,-3.26551c1.35868,-0.74311 3.91194,-0.31184 4.84958,-0.43316c1.38299,-0.17893 4.99846,1.46639 4.99846,1.46639l2.02177,9.6474c0,0 0.60128,2.76536 2.57956,4.36796c1.84048,1.49096 2.77485,3.35661 2.87356,3.59061c1.35396,3.20964 2.04964,6.3936 0.29313,8.39938c-0.96406,1.10086 -2.24025,2.47093 -3.72293,3.14692c-2.51631,1.14725 -5.24136,1.21025 -5.24136,1.21025c0,0 -4.69085,-7.48591 -8.04907,-15.44678c-3.35821,-7.96086 -3.05092,-12.68345 -3.05092,-12.68345z" fill="url(#color-24)" stroke="#4a5957"/><path d="M209.26402,225.88733c0,0 -0.78228,2.61348 1.14127,7.3303c0.04074,0.09993 3.89977,9.935 3.93931,10.02874c1.68477,3.99386 5.88423,10.61859 5.88423,10.61859l-2.10754,0.7093c0,0 -3.17013,-3.54095 -6.08909,-10.46053c-2.91896,-6.91958 -5.11745,-17.24752 -5.11745,-17.24752z" fill="#a06025" stroke="#3f260f"/><path d="M231.3787,226.71837c0,0 2.16273,2.60479 2.53463,3.48641c0.31596,0.74898 0.77061,4.66679 -1.11229,5.56242c-0.75358,0.35847 -1.16547,-0.62764 -1.42769,-0.10429c-0.27992,0.55869 -0.7529,0.92121 -0.7529,0.92121c0,0 -2.23977,-2.09227 -3.07092,-4.06254c-0.83113,-1.97027 0.09164,-4.60869 0.09164,-4.60869z" fill="url(#color-25)" stroke="#747474"/><path d="M231.61971,227.43038c0,0 1.50372,-1.46719 2.27775,-1.8935c0.36423,-0.20061 1.42022,-0.55447 2.33437,-1.35211c1.33917,-1.16847 1.51835,-2.0008 2.0416,-2.63008c0.13844,-0.16649 1.42748,-1.0569 1.42748,-1.0569c0,0 2.40968,3.87745 2.72913,4.63471c0.11483,0.27223 -1.04718,1.397 -1.66593,2.69768c-0.84343,1.77297 -1.34914,3.85294 -2.43821,4.36256c-0.75564,0.35361 -3.98713,0.88675 -3.98713,0.88675c0,0 -0.10097,-1.71803 -0.81488,-3.41039c-0.23794,-0.56405 -0.77488,-0.89697 -1.05695,-1.22861c-0.56425,-0.66344 -0.84723,-1.01012 -0.84723,-1.01012z" fill="url(#color-26)" stroke="#747474"/></g><g data-paper-data="{&quot;index&quot;:null}" stroke-linecap="butt"><path d="M248.6489,155.82081c0.92507,-3.97574 11.46329,-4.92119 23.53777,-2.11171c6.50861,1.51442 14.41847,3.35836 18.07773,5.7763c3.12924,2.06772 2.53648,4.67676 2.11006,6.50942c-0.92507,3.97574 -11.46328,4.92119 -23.53776,2.11171c-6.45981,-1.50306 -13.78103,0.03682 -17.44207,-2.36114c-3.18207,-2.08425 -3.17588,-8.07584 -2.74572,-9.92458z" fill="#000000" stroke="none" stroke-width="0"/><path d="M245.17059,160.18861l5.56444,5.73932c0,0 1.96686,-12.43819 2.97557,-12.79185c0.73448,-0.25751 3.19139,4.14043 5.69761,6.62618c1.86264,1.84743 4.26154,3.40746 4.26154,3.40746l2.97535,2.33719l2.7394,-6.32793c0,0 10.36581,0.28558 13.79607,1.27739c3.25276,0.94048 10.49176,2.1347 10.49176,2.1347c0,0 -0.48742,5.09116 -3.41752,8.11022c-5.61735,5.78791 -18.4066,12.17687 -27.04351,10.16725c-5.65734,-1.31635 -11.66361,-4.30016 -15.01025,-7.52597c-4.42762,-4.26776 -7.2184,-10.78544 -7.2184,-10.78544z" fill="url(#color-27)" stroke="none" stroke-width="0"/><path d="M244.68948,118.24026c1.34145,-5.76525 6.25527,-11.99068 10.26653,-14.29611c2.69929,-1.55139 3.41433,-1.11725 5.72346,-0.67344c2.30913,0.44382 4.19307,2.40775 4.19307,2.40775c0,0 4.04463,-3.59098 7.70606,-0.43994c3.66143,3.15104 3.10347,6.27207 4.39354,10.85291c1.3794,4.89801 1.30212,9.40118 1.30212,9.40118c0,0 -6.98567,3.52226 -11.31271,6.18351c-2.20762,1.35774 -13.36446,8.59155 -15.47866,8.09962c-2.87152,-0.66814 -10.45582,0.27895 -10.45582,0.27895c0,0 2.44799,-16.59513 3.66242,-21.81445z" fill="url(#color-28)" stroke="#747474" stroke-width="1"/><path d="M276.67749,126.19641l-4.37316,1.58221c0,0 -1.29525,-6.24028 -1.50815,-9.55233c-0.07833,-1.21855 -0.63197,-2.91451 -0.62755,-4.38334c0.00699,-2.32424 0.60934,-4.26639 0.60934,-4.26639c0,0 1.44703,1.33531 3.33355,3.63822c1.19721,1.46145 1.25125,3.90324 1.6552,5.10298c0.84261,2.50254 0.91078,7.87865 0.91078,7.87865z" fill="#000000" stroke="none" stroke-width="0"/><path d="M272.90512,115.90196c1.2333,-0.09085 2.40903,2.22388 2.62607,5.1701c0.21705,2.94621 -0.6068,5.40824 -1.8401,5.49909c-1.2333,0.09086 -2.40903,-2.22386 -2.62607,-5.17008c-0.21704,-2.94622 0.6068,-5.40826 1.8401,-5.49911z" fill="url(#color-29)" stroke="none" stroke-width="0"/><path d="M253.41664,119.87065c0.62322,-2.67846 0.92069,-8.27811 2.19742,-9.94013c1.49572,-1.94711 3.93518,-2.26406 5.54385,-1.88975c2.9818,0.69381 6.62292,15.92668 5.26958,21.74305c-1.35335,5.81637 -6.63435,5.48268 -9.61615,4.78888c-2.98181,-0.6938 -4.74804,-8.88566 -3.3947,-14.70203z" fill="#000000" stroke="none" stroke-width="0"/><path d="M260.42749,122.24665c-0.27544,-3.73892 0.77006,-6.86338 2.33519,-6.97868c1.56513,-0.1153 3.0572,2.82224 3.33264,6.56116c0.27545,3.73893 -0.77006,6.86338 -2.33519,6.97868c-1.56513,0.1153 -3.05719,-2.82223 -3.33263,-6.56115z" fill="url(#color-30)" stroke="none" stroke-width="0"/><path d="M233.99001,156.29532c0.49407,-2.12339 0.35318,-5.32766 1.22267,-8.40515c0.64762,-2.2922 2.1024,-4.4984 3.47861,-6.21907c2.70849,-3.3864 11.1945,-3.07002 13.46606,-2.66021c2.27156,0.40982 13.64257,-8.03449 20.30696,-11.01239c9.61762,-4.2975 7.95661,-4.48759 15.02053,-4.29544c7.09042,0.19289 14.79588,9.94097 17.02698,14.61437c0.90676,1.89935 1.14556,8.79574 -1.11173,14.98972c-2.58199,7.08492 -7.77845,13.43128 -7.77845,13.43128c0,0 -2.39433,-5.73932 -12.55768,-8.37018c-1.07461,-0.27817 -11.77617,-0.83306 -11.77617,-0.83306c0,0 -3.47864,8.42248 -5.22096,8.26133c-1.87262,-0.1732 -5.65208,-9.26699 -5.65208,-9.26699l-2.65911,1.23716c0,0 -2.30151,-3.95961 -3.63862,-4.38945c-0.51556,-0.16574 -2.14561,12.63426 -2.77547,12.46764c-1.73794,-0.45975 -5.24678,-5.11947 -5.24678,-5.11947l-3.83602,3.96511c0,0 -2.04886,0.63049 -3.65233,-0.57799c-2.5825,-1.94634 -4.90916,-6.55897 -4.6164,-7.81717z" fill="url(#color-31)" stroke="#747474" stroke-width="1"/><path d="M273.08608,118.68439c0.74181,-0.05464 1.449,1.33764 1.57955,3.10976c0.13055,1.77212 -0.36499,3.25301 -1.1068,3.30765c-0.74181,0.05464 -1.449,-1.33764 -1.57955,-3.10976c-0.13055,-1.77212 0.36498,-3.253 1.1068,-3.30765z" fill="#d5e20f" stroke="none" stroke-width="0"/><path d="M261.90544,122.16042c-0.1417,-1.92341 0.39614,-3.53073 1.20129,-3.59005c0.80516,-0.05932 1.57272,1.45184 1.71441,3.37525c0.14169,1.92341 -0.39615,3.53073 -1.2013,3.59004c-0.80515,0.05931 -1.57272,-1.45184 -1.71441,-3.37525z" fill="#d5e20f" stroke="none" stroke-width="0"/><path d="M288.89483,129.82861c2.85481,0.66425 3.96112,4.26533 3.96112,4.26533c0,0 -2.21598,0.10358 -5.07079,-0.56067c-2.85481,-0.66425 -3.7512,-0.90965 -3.40398,-2.40194c0.34722,-1.49229 1.65884,-1.96697 4.51365,-1.30272z" fill="#000000" stroke="#73797e" stroke-width="1"/><path d="M271.58924,158.08863c0,0 4.20056,0.22089 8.94342,0.53659c1.67808,0.11171 3.28449,0.355 4.65987,0.62277c2.51194,0.48907 3.58384,1.43171 3.58384,1.43171c0,0 1.45766,0.69241 2.04422,1.01869c0.51608,0.28707 1.81149,1.95217 1.81149,1.95217c0,0 -9.82395,-1.45005 -12.57783,-1.63335c-2.34907,-0.15637 -10.14532,-0.13281 -10.14532,-0.13281z" fill="url(#color-32)" stroke="none" stroke-width="0"/></g><g data-paper-data="{&quot;index&quot;:null}" stroke-width="0.75" stroke-linecap="butt"><path d="M232.20104,204.78423c0,0 -0.83485,-1.97351 -0.60886,-3.6764c0.10459,-0.78811 0.9654,-1.49427 1.27061,-2.07364c0.96466,-1.83123 3.18579,-2.3331 4.30024,-2.73356c0.94681,-0.34022 2.0644,0.49824 2.0644,0.49824c0,0 -3.80125,2.55416 -3.87423,2.6371c-1.22189,1.38866 -3.15216,5.34827 -3.15216,5.34827z" data-paper-data="{&quot;index&quot;:null}" fill="url(#color-33)" stroke="#747474"/><path d="M237.72835,192.27438c0.15336,0.26527 0.19217,1.51413 0.6556,2.22473c0.62727,0.96183 1.12686,1.77557 1.05401,2.16231c-0.03768,0.20002 -1.96415,-0.65623 -3.07565,-0.13366c-0.55563,0.26123 -1.37745,0.41757 -2.07088,0.96272c-0.74686,0.58717 -1.51578,1.27063 -1.98503,2.05129c-0.83797,1.39409 -1.07823,2.84938 -1.07823,2.84938c0,0 -1.646,-0.3305 -2.15263,-1.04976c-0.33787,-0.47969 -0.99188,-1.87978 -1.04147,-3.22601c-0.0532,-1.44423 0.51769,-2.86396 0.73089,-4.16684c0.01755,-0.1072 -0.46019,-1.64625 -0.43878,-1.74337c0.17205,-0.78047 -1.051,-3.89599 -0.26856,-5.81569c0.4926,-1.20859 2.81302,-1.32313 3.53355,-2.02964c0.69267,-0.6792 3.52398,0.07509 3.52398,0.07509c0,0 0.68169,0.89231 1.28039,1.64825c0.27966,0.35311 0.54122,0.67647 0.70673,0.86523c0.39424,0.4496 0.51247,1.825 0.71497,2.64173c0.32051,1.29271 -0.30927,2.30308 -0.08891,2.68425z" data-paper-data="{&quot;index&quot;:null}" fill="url(#color-34)" stroke="#747474"/><path d="M233.1448,208.17032c-0.4443,-1.62629 -0.3341,-3.53703 -0.33859,-3.65884c-0.04455,-1.2077 1.60232,-3.85137 3.33629,-5.5514c1.22574,-1.20175 2.9572,-1.78402 3.72866,-2.08882c1.97285,-0.77947 4.88945,1.92265 4.88945,1.92265c0,0 2.13375,-0.62974 4.40194,-0.46439c2.47581,0.18048 8.69896,2.08255 8.59398,2.47037c-0.06303,0.23287 -4.41192,1.51986 -3.33472,3.85808c0.76568,1.66202 3.46068,3.72427 3.46068,3.72427c0,0 -7.63752,-3.32586 -7.87675,-2.17877c-0.5282,2.53264 2.39686,5.66545 2.39686,5.66545l-1.13334,0.09395c0,0 -5.17679,-4.00269 -5.52398,-3.34372c-1.65835,3.14756 0.82755,6.45787 0.82755,6.45787c0,0 -4.00194,0.29025 -6.66135,-0.6793c-2.36103,-0.86077 -3.58025,-2.39435 -3.58025,-2.39435c0,0 -0.89288,-0.47876 -1.6313,-1.20876c-0.7269,-0.7186 -1.29745,-1.68103 -1.55515,-2.62429z" fill="url(#color-35)" stroke="#4a5957"/><path d="M249.79966,206.15016c0.8778,-0.34683 4.67196,0.25871 7.1336,2.06747c2.02267,1.48621 2.08973,4.49244 2.48762,5.49949c0.88213,2.23264 1.02256,4.1433 -0.5765,4.77509c-0.95544,0.37749 -2.73654,0.58683 -3.65754,-0.20121c-0.62044,-0.53087 -0.47998,-1.79875 -0.83503,-2.69741c-0.88213,-2.23264 -6.15121,-8.81164 -4.55215,-9.44343z" fill="url(#color-36)" stroke="#4a5957"/><path d="M246.85438,218.47945c-0.08187,-0.68337 0.74656,-1.30042 0.45612,-2.45926c-0.32219,-1.28556 -1.41661,-2.45332 -1.85862,-3.77743c-0.61388,-1.83894 -0.36429,-3.7101 0.38979,-3.80044c0.98068,-0.11747 5.76676,3.68621 5.76676,3.68621c0,0 1.10949,2.78849 1.03997,4.21867c-0.01953,0.40196 -0.25463,3.98189 -2.04113,4.19591c-1.06742,0.12787 -2.00322,0.96559 -2.72571,-0.077c-0.48671,-0.70236 -0.90693,-0.98267 -1.0272,-1.98665z" fill="url(#color-37)" stroke="#4a5957"/><path d="M260.15672,210.61594c-0.37551,-0.95041 -2.0448,-1.89186 -3.41576,-3.14983c-1.823,-1.67274 -2.61691,-3.7656 -2.61691,-3.7656c0,0 1.50352,-3.42128 3.94481,-1.62747c0.69909,0.51368 2.05484,0.33957 3.17175,1.11668c0.91688,0.63792 1.58361,2.21608 2.35438,2.79102c0.98443,0.7343 1.6194,1.24174 1.76358,1.60666c0.87483,2.21419 1.01412,4.10904 -0.57173,4.73561c-0.94754,0.37437 -2.71392,0.58197 -3.62731,-0.19955c-0.61531,-0.52647 -0.65073,-0.61632 -1.00284,-1.50755z" fill="url(#color-38)" stroke="#4a5957"/><path d="M261.45858,203.48826c-1.59862,-0.99989 -4.74219,-2.08266 -4.74219,-2.08266l1.23395,-0.53403c0,0 1.16884,0.62042 1.78232,0.78678c1.19812,0.32491 2.70886,0.21907 3.4368,0.67437c1.59863,0.99988 0.44458,3.49828 0.44458,3.49828c0,0 -0.42943,-0.46463 -1.03578,-1.22556c-0.27054,-0.33951 -0.62646,-0.80868 -1.11967,-1.11717z" fill="url(#color-39)" stroke="#4a5957"/></g><g><path d="M280.64829,91.69498c3.3806,6.85023 -5.08946,2.30599 -21.66911,10.48806c-16.57964,8.18206 -25.6002,25.47106 -28.9808,18.62082c-3.38059,-6.85023 -1.64847,-27.11085 14.93118,-35.29292c16.57964,-8.18206 32.33813,-0.6662 35.71873,6.18403z" fill="url(#color-40)" stroke="#9c9f00" stroke-width="2.5" stroke-linecap="butt"/><path d="M242.96438,92.33389c0.65808,-0.8805 2.43984,-1.76323 2.43984,-1.76323l-1.27529,-0.54657c0,0 1.90906,-0.54582 2.46246,-0.42106c0.49919,0.11254 1.00798,-0.07291 1.23443,0.38597c0.20188,0.40906 0.72856,0.84884 0.53582,1.26229c-0.28203,0.60498 -0.64199,1.53734 -1.24057,1.83274c-0.32,0.15792 -0.07084,0.41341 -0.86566,0.89868c-0.79482,0.48527 -2.18332,0.96285 -2.18332,0.96285l0.76843,-1.2516l-2.60513,1.17668c0,0 0.07091,-1.65624 0.72899,-2.53674z" data-paper-data="{&quot;index&quot;:null}" fill="#ececec" stroke="#000000" stroke-width="0.25" stroke-linecap="butt"/><path d="M247.28419,96.06949c-0.19421,-0.39353 -0.2938,-0.92092 -0.12463,-1.53726c0.22547,-0.82143 1.01635,-2.04245 1.01635,-2.04245c0.41564,-0.6894 1.2863,-1.14301 1.98209,-1.27799c0.82922,-0.16087 1.87366,-0.37434 2.24747,0.38312c0.57645,1.16809 -0.3927,2.55429 -1.25615,3.52956c-0.8116,0.91671 -1.79985,0.83379 -2.89779,1.37562c-0.39354,0.19421 -0.77312,-0.03706 -0.96733,-0.4306z" data-paper-data="{&quot;index&quot;:null}" fill="#ececec" stroke="#000000" stroke-width="0.25" stroke-linecap="butt"/><path d="M251.39807,91.94897c0.1276,-0.16842 0.42709,-0.15641 0.66891,0.02681c0.24183,0.18322 0.33443,0.46829 0.20683,0.63671c-0.1276,0.16841 -0.42709,0.15641 -0.66891,-0.02681c-0.24183,-0.18322 -0.33443,-0.46829 -0.20683,-0.6367z" data-paper-data="{&quot;origRot&quot;:0,&quot;index&quot;:null}" fill="#090005" stroke="#000000" stroke-width="0.25" stroke-linecap="butt"/><path d="M250.84038,99.71074l-1.64972,-3.34288l5.49396,-2.71127l1.64972,3.34288z" data-paper-data="{&quot;index&quot;:null}" fill="#ececec" stroke="#000000" stroke-width="0.25" stroke-linecap="butt"/><path d="M250.82579,95.09807c0,0 0.27193,-1.54665 0.64196,-2.24265c0.50229,-0.94478 1.8886,-1.70825 1.8886,-1.70825c1.25133,-0.61754 2.25039,0.06749 2.78187,1.14445c0.35442,0.71818 0.39159,1.31174 0.07585,2.04775c-0.42345,0.98712 -1.03252,1.54213 -1.99573,2.01748c-0.69378,0.34238 -1.09984,0.5054 -1.87347,0.49818c-0.54242,-0.00505 -1.5053,-0.36222 -1.5053,-0.36222l0.363,-0.76454c0,0 -0.70517,0.44387 -1.03846,0.84367c-0.2676,0.32099 -0.42798,1.0261 -0.42798,1.0261l0.38841,-0.30954c0,0 0.36753,0.54775 0.69949,0.83553c0.4376,0.37935 0.79389,0.56395 1.31614,0.81426c0.52399,0.25115 0.75138,0.3482 1.38164,0.35135c0.63026,0.00316 0.96572,0.0439 1.56787,-0.9889c0.34238,-0.58724 0.57189,-0.89381 0.60675,-1.57267c0.02218,-0.43179 -0.149,-0.82663 -0.03054,-1.24245c0.11275,-0.3958 0.45249,-0.72304 0.45249,-0.72304c0,0 0.2517,1.65371 0.16627,2.46009c-0.08351,0.7882 -0.29738,1.21358 -0.58275,1.95304c-0.09903,0.2566 -0.83845,0.77608 -1.06898,0.9261c-0.22759,0.14809 -1.13046,0.42257 -2.10922,0.42101c-0.97876,-0.00156 -1.67516,-0.20718 -2.46948,-0.42833c-0.79432,-0.22115 -1.72524,-0.70756 -1.94922,-0.81487c-0.53653,-0.25704 -1.00722,-1.32836 -1.00974,-1.92328c-0.00174,-0.41135 0.19522,-0.72888 0.38312,-1.09481c0.27112,-0.52801 0.74552,-0.79806 1.30553,-0.99474c0.72672,-0.25522 2.04189,-0.16871 2.04189,-0.16871z" data-paper-data="{&quot;index&quot;:null}" fill="#ececec" stroke="#000000" stroke-width="0.25" stroke-linecap="butt"/><path d="M253.45656,97.02796c0.61808,-0.30503 1.94777,0.39432 1.94777,0.39432c0,0 -0.38309,1.25542 -1.00117,1.56045c-0.55765,0.2752 -1.0553,0.20427 -1.64895,0.01909c-0.54694,-0.17061 -1.33097,-0.7077 -1.33097,-0.7077c0,0 1.41524,-0.96113 2.03332,-1.26616z" data-paper-data="{&quot;index&quot;:null}" fill="#ececec" stroke="#000000" stroke-width="0.25" stroke-linecap="butt"/><path d="M252.42554,97.59895l-0.48455,-0.81902l0.72798,0.07654z" data-paper-data="{&quot;origRot&quot;:0,&quot;index&quot;:null}" fill="#ececec" stroke="#000000" stroke-width="0.25" stroke-linecap="butt"/><path d="M249.64345,93.58064c0.1276,-0.16841 0.42709,-0.15641 0.66892,0.02681c0.24183,0.18322 0.33443,0.46829 0.20683,0.63671c-0.1276,0.16842 -0.42709,0.15641 -0.66892,-0.02681c-0.24183,-0.18322 -0.33442,-0.46829 -0.20682,-0.6367z" data-paper-data="{&quot;origRot&quot;:0,&quot;index&quot;:null}" fill="#090005" stroke="#000000" stroke-width="0.25" stroke-linecap="butt"/><path d="M248.41061,93.24221c0.49066,0.01851 1.28878,-0.12588 1.28878,-0.12588c0,0 -0.82539,0.73739 -1.36212,1.13294c-0.27945,0.20594 -0.69355,0.33521 -1.04049,0.32339c-0.31762,-0.01081 -0.77942,-0.36734 -0.77942,-0.36734l0.90621,-0.4691l-0.28584,-0.71222c0,0 0.7822,0.1997 1.27287,0.2182z" data-paper-data="{&quot;index&quot;:null}" fill="#ececec" stroke="#000000" stroke-width="0.25" stroke-linecap="butt"/><path d="M250.84296,91.02253c-0.03556,-0.40808 -0.12966,-0.88441 -0.12966,-0.88441l0.63216,0.08624l0.33494,-0.54633c0,0 0.33478,0.14212 0.35683,0.40634c0.02409,0.2886 -0.06662,0.63896 -0.22675,0.88027c-0.30756,0.46348 -0.88811,1.1815 -0.88811,1.1815c0,0 -0.04385,-0.71552 -0.07941,-1.12361z" data-paper-data="{&quot;index&quot;:null,&quot;origRot&quot;:0}" fill="#ececec" stroke="#000000" stroke-width="0.25" stroke-linecap="butt"/><path d="M247.7563,93.03968c0,0 -0.63906,-0.38778 -0.64241,-0.63994c-0.00301,-0.22733 0.43805,-0.71526 0.43805,-0.71526c0.18474,-0.1949 0.54249,-0.34655 0.68217,-0.21415c0.13968,0.1324 0.47013,0.42878 0.47013,0.42878l-0.94794,1.14056z" data-paper-data="{&quot;origRot&quot;:0,&quot;index&quot;:null}" fill="#ececec" stroke="#000000" stroke-width="0.25" stroke-linecap="butt"/><path d="M254.06681,91.81461c0,0 -0.02788,-0.24173 0.0524,-0.3263c0.07573,-0.07976 0.28447,-0.16413 0.28447,-0.16413" data-paper-data="{&quot;index&quot;:null}" fill="none" stroke="#000000" stroke-width="0.25" stroke-linecap="round"/><path d="M252.93424,92.25003c0,0 0.19394,-0.11436 0.30331,-0.12594c0.11596,-0.01228 0.29086,0.1569 0.29086,0.1569" data-paper-data="{&quot;index&quot;:null}" fill="none" stroke="#000000" stroke-width="0.25" stroke-linecap="round"/><path d="M240.66555,117.9495l1.66365,-5.33303c0,0 8.57556,-7.97188 13.5028,-10.76686c2.13092,-1.20876 5.43116,-2.61576 8.47941,-3.62725c3.05566,-1.01395 5.82618,-1.69291 5.82618,-1.69291l6.46165,1.32833c0,0 -1.63853,2.52 -6.72496,6.06406c-3.83434,2.67164 -11.61995,6.38035 -13.51919,7.31762c-5.22679,2.57943 -15.68953,6.71003 -15.68953,6.71003z" fill="url(#color-41)" stroke="none" stroke-width="0" stroke-linecap="butt"/><path d="M242.39674,112.61847l-1.69677,5.30755c0,0 -3.33847,3.30782 -4.71309,4.29325c-1.08805,0.77999 -3.16859,1.60025 -3.16859,1.60025c0,0 -1.65111,0.20842 -2.83159,-0.41757c-1.15293,-0.61138 -1.29597,-2.32395 -1.29597,-2.32395z" fill="#312d7f" stroke="none" stroke-width="0" stroke-linecap="butt"/><path d="M282.14003,91.66921c0,0 0.8698,1.27684 0.65372,2.56383c-0.22125,1.31774 -1.20511,2.40969 -1.20511,2.40969c0,0 -1.72829,0.59698 -3.00924,0.98609c-1.61833,0.4916 -2.22105,0.28484 -2.22105,0.28484l-6.51491,-1.33215z" data-paper-data="{&quot;index&quot;:null}" fill="#372f86" stroke="none" stroke-width="0" stroke-linecap="butt"/></g></g></g></svg>