<svg version="1.1" xmlns="http://www.w3.org/2000/svg" xmlns:xlink="http://www.w3.org/1999/xlink" width="95.26609" height="153.26767" viewBox="0,0,95.26609,153.26767"><defs><linearGradient x1="250.77596" y1="214.76199" x2="260.55241" y2="249.04995" gradientUnits="userSpaceOnUse" id="color-1"><stop offset="0" stop-color="#364ec7"/><stop offset="1" stop-color="#001371"/></linearGradient><linearGradient x1="262.16558" y1="241.87803" x2="265.8587" y2="254.83056" gradientUnits="userSpaceOnUse" id="color-2"><stop offset="0" stop-color="#a6680a"/><stop offset="1" stop-color="#6c4205"/></linearGradient><linearGradient x1="257.43821" y1="168.87021" x2="266.05875" y2="197.607" gradientUnits="userSpaceOnUse" id="color-3"><stop offset="0" stop-color="#20de16"/><stop offset="1" stop-color="#158e0e"/></linearGradient><linearGradient x1="241.0723" y1="163.50772" x2="241.0723" y2="221.91733" gradientUnits="userSpaceOnUse" id="color-4"><stop offset="0" stop-color="#364ec7"/><stop offset="1" stop-color="#001371"/></linearGradient><linearGradient x1="242.51259" y1="167.68938" x2="242.51259" y2="188.34112" gradientUnits="userSpaceOnUse" id="color-5"><stop offset="0" stop-color="#20de16"/><stop offset="1" stop-color="#158e0e"/></linearGradient><linearGradient x1="231.88862" y1="213.05599" x2="222.75039" y2="247.22574" gradientUnits="userSpaceOnUse" id="color-6"><stop offset="0" stop-color="#364ec7"/><stop offset="1" stop-color="#001371"/></linearGradient><linearGradient x1="224.12885" y1="242.37813" x2="220.74766" y2="255.0211" gradientUnits="userSpaceOnUse" id="color-7"><stop offset="0" stop-color="#a6680a"/><stop offset="1" stop-color="#6c4205"/></linearGradient><linearGradient x1="222.12111" y1="167.80784" x2="217.14722" y2="195.68646" gradientUnits="userSpaceOnUse" id="color-8"><stop offset="0" stop-color="#20de16"/><stop offset="1" stop-color="#158e0e"/></linearGradient><linearGradient x1="242.3245" y1="120.64617" x2="242.3245" y2="173.0217" gradientUnits="userSpaceOnUse" id="color-9"><stop offset="0" stop-color="#ffefc0"/><stop offset="1" stop-color="#e0ce98"/></linearGradient><linearGradient x1="241.28019" y1="104.00884" x2="241.28019" y2="135.98956" gradientUnits="userSpaceOnUse" id="color-10"><stop offset="0" stop-color="#20de16"/><stop offset="1" stop-color="#158e0e"/></linearGradient><linearGradient x1="255.24264" y1="122.95968" x2="255.24264" y2="130.8126" gradientUnits="userSpaceOnUse" id="color-11"><stop offset="0" stop-color="#20de16"/><stop offset="1" stop-color="#158e0e"/></linearGradient><linearGradient x1="265.78201" y1="143.77863" x2="265.78201" y2="161.15763" gradientUnits="userSpaceOnUse" id="color-12"><stop offset="0" stop-color="#ffefc0"/><stop offset="1" stop-color="#e0ce98"/></linearGradient></defs><g transform="translate(-193.63899,-103.50884)"><g data-paper-data="{&quot;isPaintingLayer&quot;:true}" fill-rule="nonzero" stroke-linejoin="miter" stroke-miterlimit="10" stroke-dasharray="" stroke-dashoffset="0" style="mix-blend-mode: normal"><path d="M262.07502,227.86555c1.28577,3.26897 2.35119,9.35505 2.98997,12.80616c0.91868,4.96322 -0.28111,6.13425 -4.02398,7.8096c-3.75956,1.68283 -4.74035,2.61508 -7.4225,-1.58514c-1.84482,-2.88897 -2.32602,-10.38432 -3.60355,-13.63233c-3.77251,-9.59129 -7.74427,-15.53393 -4.36329,-17.04732c0,0 5.61849,-1.88271 7.20391,-0.59495c0,0 1.9767,-2.59032 3.7642,-0.05575c1.79988,2.55211 1.68273,2.70844 5.45523,12.29973z" data-paper-data="{&quot;origPos&quot;:null,&quot;origRot&quot;:0}" fill="url(#color-1)" stroke="#001371" stroke-width="1.5" stroke-linecap="butt"/><path d="M270.62019,242.84494c5.00991,1.76098 4.24464,5.85409 2.56753,7.90155c-2.03086,2.47934 -9.86229,5.58458 -14.58786,5.25597c-4.72554,-0.3286 -3.50512,-1.83038 -4.18336,-3.41523c-1.50798,-3.52371 -0.13451,-7.43589 5.94607,-9.90859c6.08057,-2.47271 5.24772,-1.5947 10.25763,0.16628z" data-paper-data="{&quot;origPos&quot;:null,&quot;origRot&quot;:0}" fill="url(#color-2)" stroke="#6c4306" stroke-width="1.5" stroke-linecap="butt"/><path d="M249.02752,171.81857c1.97502,-2.68352 9.27149,0.25398 16.29708,6.56109c7.0256,6.30711 11.11989,13.59544 9.14485,16.27898c-1.97504,2.68353 -9.2715,-0.25397 -16.29708,-6.56108c-7.0256,-6.30711 -11.1199,-13.59547 -9.14484,-16.27898z" data-paper-data="{&quot;origRot&quot;:0,&quot;origPos&quot;:null,&quot;index&quot;:null}" fill="url(#color-3)" stroke="#158e0e" stroke-width="1.5" stroke-linecap="butt"/><path d="M258.19093,192.80889c0,9.32239 2.57396,18.35387 -2.43939,25.47804c-3.21333,4.56627 -9.69716,3.52922 -14.67924,3.52922c-4.98207,0 -11.4659,0.74234 -14.67924,-3.82391c-5.01335,-7.12416 -2.43939,-15.86095 -2.43939,-25.18332c0,-16.02026 7.66426,-29.25883 17.11863,-29.25883c0,0 9.72842,-0.90647 12.88897,5.6667c3.14566,6.54219 4.22966,7.57186 4.22966,23.59212z" data-paper-data="{&quot;origPos&quot;:null}" fill="url(#color-4)" stroke="#001371" stroke-width="1.5" stroke-linecap="butt"/><path d="M276.06234,186.3021c5.49914,-1.09821 10.91324,2.63856 12.09273,8.3463c1.17949,5.70776 -2.32226,11.22506 -7.8214,12.32329c-5.49912,1.0982 -10.91324,-2.63856 -12.09273,-8.3463c-1.17949,-5.70776 2.32227,-11.22507 7.8214,-12.32329z" data-paper-data="{&quot;origPos&quot;:null,&quot;index&quot;:null,&quot;origRot&quot;:0}" fill="#ffffff" stroke="#bfbfbf" stroke-width="1.5" stroke-linecap="butt"/><path d="M249.20572,176.3819c0,2.70559 1.18698,7.17179 -0.31003,9.03517c-1.61709,2.01282 -3.32827,2.93834 -5.5586,2.92388c-2.46992,-0.01602 -4.1733,-1.00852 -6.23486,-2.79111c-2.11879,-1.83208 -1.69451,-5.84154 -1.69451,-9.16793c0,-4.80075 3.0888,-8.69253 6.89902,-8.69253c3.8102,0 6.899,3.89179 6.899,8.69253z" data-paper-data="{&quot;origPos&quot;:null}" fill="url(#color-5)" stroke="none" stroke-width="0" stroke-linecap="butt"/><path d="M235.94361,184.58908c0,2.24779 -1.7773,4.07001 -3.96972,4.07001c-2.19242,0 -3.96972,-1.82221 -3.96972,-4.07001c0,-2.24779 1.7773,-4.07 3.96972,-4.07c2.19242,0 3.96972,1.82221 3.96972,4.07z" data-paper-data="{&quot;origPos&quot;:null}" fill="#faff66" stroke="none" stroke-width="1.5" stroke-linecap="butt"/><path d="M257.23659,184.03085c0,2.19244 -1.73351,3.96975 -3.87193,3.96975c-2.13841,0 -3.87194,-1.7773 -3.87194,-3.96975c0,-2.19244 1.73353,-3.96975 3.87194,-3.96975c2.13841,0 3.87193,1.7773 3.87193,3.96975z" data-paper-data="{&quot;origPos&quot;:null}" fill="#faff66" stroke="none" stroke-width="1.5" stroke-linecap="butt"/><path d="M234.90904,231.5876c-0.89702,3.35415 -3.66067,8.7569 -5.19926,11.84246c-2.21273,4.43753 -3.90096,4.58672 -7.98444,3.51589c-4.10169,-1.07561 -5.46679,-0.9731 -5.16225,-5.93565c0.20948,-3.41331 4.2971,-9.54046 5.18837,-12.8731c2.6319,-9.84122 2.91712,-16.97457 6.60579,-16.00727c0,0 5.7516,2.09853 6.28644,4.10368c1.54213,5.7815 2.89725,5.51276 0.26535,15.35399z" data-paper-data="{&quot;origPos&quot;:null,&quot;origRot&quot;:0}" fill="url(#color-6)" stroke="#001371" stroke-width="1.5" stroke-linecap="butt"/><path d="M230.85887,248.21199c2.68222,4.26645 -0.31707,7.02762 -2.7804,7.66255c-2.98291,0.76884 -10.65331,-1.31716 -13.97427,-4.29897c-3.32096,-2.98179 -1.52138,-3.45309 -1.08517,-5.08415c0.96983,-3.62641 4.31422,-5.89535 10.30639,-4.32398c5.99217,1.57136 4.85125,1.77809 7.53346,6.04455z" data-paper-data="{&quot;origPos&quot;:null,&quot;origRot&quot;:0}" fill="url(#color-7)" stroke="#6c4306" stroke-width="1.5" stroke-linecap="butt"/><path d="M223.7673,186.75389c-7.49314,6.26494 -15.41799,9.10209 -17.70065,6.33695c-2.28268,-2.76514 1.94126,-10.08547 9.43438,-16.35044c7.49314,-6.26494 15.41799,-9.10209 17.70065,-6.33695c2.28268,2.76514 -1.94126,10.08547 -9.43438,16.35044z" data-paper-data="{&quot;origRot&quot;:0,&quot;origPos&quot;:null}" fill="url(#color-8)" stroke="#158e0e" stroke-width="1.5" stroke-linecap="butt"/><path d="M214.66947,197.69748c-1.12541,5.75879 -6.53139,9.56366 -12.0746,8.4984c-5.54321,-1.06524 -9.12453,-6.59724 -7.99911,-12.35604c1.12541,-5.75879 6.53139,-9.56366 12.0746,-8.4984c5.54321,1.06524 9.12453,6.59724 7.99911,12.35604z" data-paper-data="{&quot;origPos&quot;:null,&quot;origRot&quot;:0}" fill="#ffffff" stroke="#bfbfbf" stroke-width="1.5" stroke-linecap="butt"/><path d="M267.34623,147.68752c0,9.74602 -5.14936,13.76502 -11.92352,18.78067c-4.72012,3.49483 -6.06853,6.55351 -11.57363,6.55351c-6.39728,0 -8.94794,-3.40472 -14.4308,-7.47049c-6.66848,-4.94496 -12.11553,-8.43171 -12.11553,-18.02958c0,-4.96164 0.57271,-17.46259 2.65647,-21.64362c4.80207,-9.63527 14.74065,-3.01232 23.65922,-3.01232c0,0 14.51881,-4.17109 19.42967,4.99397c2.33042,4.34922 4.29814,6.11913 4.29814,19.82785z" data-paper-data="{&quot;origPos&quot;:null}" fill="url(#color-9)" stroke="#e0ce98" stroke-width="1" stroke-linecap="butt"/><path d="M267.4394,118.97912c7.39631,15.56136 -26.79497,11.84769 -29.2141,13.88679c-2.37591,2.00267 -0.74791,8.1248 -3.6175,8.1248c-4.02198,0 -8.45488,0.78112 -9.56057,5.59357c-0.63988,2.7851 2.37615,8.20363 0.12484,8.93939c-2.2178,0.72481 -4.06937,3.17394 -6.35839,3.34133c-1.85643,0.13575 -2.3832,-2.34729 -4.24263,-2.38175c-5.29533,-0.09814 0.72001,-13.08839 0.8452,-13.76963c0.04172,-0.22708 -1.10163,-4.86613 -1.10163,-7.11954c0,-12.22192 9.84594,-18.72113 16.30923,-18.72113c6.46328,0 29.41924,-13.4552 36.81555,2.10615z" data-paper-data="{&quot;origPos&quot;:null}" fill="#c27231" stroke="#985926" stroke-width="1.5" stroke-linecap="butt"/><path d="M266.96832,160.70282c0,0.95988 -1.05436,2.58093 -1.15734,3.53483c-0.21869,2.02584 -1.61583,3.09357 -3.57684,3.18442c-2.16435,0.10028 -5.99132,-2.49128 -5.99132,-2.49128c0,0 -2.87775,1.17883 -4.82459,1.63167c-1.63184,0.37956 -4.15503,0.13082 -5.64053,-0.6477c-1.0443,-0.54731 -2.66543,-2.84484 -3.30943,-3.85895c-2.03878,-3.21045 -7.28717,-7.93595 -2.80634,-9.10485c2.20464,-0.57514 8.73957,5.57355 11.0127,5.57355c0,0 3.80829,-0.01737 5.70018,0.08359c4.2897,0.22888 10.5935,-2.44841 10.5935,2.09473z" data-paper-data="{&quot;origPos&quot;:null}" fill="#160b02" stroke="none" stroke-width="0" stroke-linecap="butt"/><path d="M269.32542,123.31416c0,9.78879 -11.03409,3.76335 -26.30554,3.76335c-3.69718,0 -8.59054,8.0724 -12.28753,8.03675c-5.24124,-0.05053 -11.84335,2.43574 -15.98343,-0.75375c-2.92262,-2.25156 -0.72629,-7.37501 -0.72629,-11.04636c0,-8.29421 8.70145,-8.41406 16.24287,-11.99222c5.48182,-2.60093 5.55662,-6.71012 11.63295,-6.71012c0,0 12.43874,-1.79855 19.6767,0.81682c8.19439,2.96096 7.75028,8.09672 7.75028,17.88551z" data-paper-data="{&quot;origPos&quot;:null}" fill="url(#color-10)" stroke="#158e0e" stroke-width="1" stroke-linecap="butt"/><path d="M279.80766,129.20143c0,3.44723 -10.44299,0.29032 -24.00988,0.29032c-13.56688,0 -25.12017,3.15691 -25.12017,-0.29032c0,-3.44723 10.99813,-6.24174 24.56502,-6.24174c13.56688,0 24.56502,2.79453 24.56502,6.24174z" data-paper-data="{&quot;origPos&quot;:null}" fill="url(#color-11)" stroke="#158e0e" stroke-width="1" stroke-linecap="butt"/><path d="M265.25731,116.35071c0,2.1243 0.31298,3.58995 -1.25453,4.94077c-1.35299,1.16595 -9.04403,0.86035 -10.32229,-0.07639c-1.82086,-1.33439 -1.08988,-2.53898 -1.08988,-4.86438c0,-3.47076 2.83555,-6.2844 6.33336,-6.2844c3.49782,0 6.33335,2.81363 6.33335,6.2844z" data-paper-data="{&quot;origPos&quot;:null}" fill="#ffffff" stroke="#a4a4a4" stroke-width="1" stroke-linecap="butt"/><path d="M257.51597,141.38559c0,4.09884 -2.12367,7.4216 -4.74334,7.4216c-2.61968,0 -4.74334,-3.32277 -4.74334,-7.4216c0,-4.09884 2.12367,-7.42161 4.74334,-7.42161c2.61968,0 4.74334,3.32277 4.74334,7.42161z" data-paper-data="{&quot;origPos&quot;:null}" fill="#ffffff" stroke="none" stroke-width="0" stroke-linecap="butt"/><path d="M249.015,133.23137c0,0 3.57853,-0.58187 4.30266,-0.45673c1.29495,0.22377 3.53513,1.81626 3.53513,1.81626" data-paper-data="{&quot;origPos&quot;:null,&quot;origRot&quot;:0}" fill="none" stroke="#351c06" stroke-width="1.5" stroke-linecap="round"/><path d="M257.54498,141.06672c0,2.72022 -1.40938,4.92538 -3.14794,4.92538c-1.73856,0 -3.14794,-2.20518 -3.14794,-4.92538c0,-2.72022 1.40939,-4.92538 3.14794,-4.92538c1.73856,0 3.14794,2.20518 3.14794,4.92538z" data-paper-data="{&quot;origPos&quot;:null}" fill="#1121d4" stroke="none" stroke-width="0" stroke-linecap="butt"/><path d="M257.61349,140.92368c0,1.40663 -0.72879,2.54692 -1.62781,2.54692c-0.89902,0 -1.62781,-1.1403 -1.62781,-2.54692c0,-1.40663 0.7288,-2.54692 1.62781,-2.54692c0.89902,0 1.62781,1.1403 1.62781,2.54692z" data-paper-data="{&quot;origPos&quot;:null}" fill="#000000" stroke="none" stroke-width="0" stroke-linecap="butt"/><path d="M263.91219,133.32114c2.17221,0 3.93314,2.75519 3.93314,6.1539c0,3.39872 -1.76092,6.1539 -3.93314,6.1539c-2.17221,0 -3.93314,-2.75519 -3.93314,-6.1539c0,-3.39872 1.76092,-6.1539 3.93314,-6.1539z" data-paper-data="{&quot;origPos&quot;:null,&quot;index&quot;:null}" fill="#ffffff" stroke="none" stroke-width="0" stroke-linecap="butt"/><path d="M260.61616,132.73708c0,0 1.85754,-1.32048 2.93129,-1.50603c0.60044,-0.10377 3.56772,0.37872 3.56772,0.37872" data-paper-data="{&quot;origPos&quot;:null,&quot;origRot&quot;:0,&quot;index&quot;:null}" fill="none" stroke="#351c06" stroke-width="1.5" stroke-linecap="round"/><path d="M265.35774,135.24693c1.44159,0 2.61025,1.82851 2.61025,4.08405c0,2.25556 -1.16864,4.08405 -2.61025,4.08405c-1.44159,0 -2.61024,-1.82851 -2.61024,-4.08405c0,-2.25556 1.16864,-4.08405 2.61024,-4.08405z" data-paper-data="{&quot;origPos&quot;:null,&quot;index&quot;:null}" fill="#1121d4" stroke="none" stroke-width="0" stroke-linecap="butt"/><path d="M266.72018,137.2257c0.74546,0 1.34976,0.94553 1.34976,2.11188c0,1.16637 -0.60431,2.11188 -1.34976,2.11188c-0.74546,0 -1.34975,-0.94553 -1.34975,-2.11188c0,-1.16637 0.60431,-2.11188 1.34975,-2.11188z" data-paper-data="{&quot;origPos&quot;:null,&quot;index&quot;:null}" fill="#000000" stroke="none" stroke-width="0" stroke-linecap="butt"/><path d="M277.98864,152.34005c0,4.72834 -5.21052,8.81759 -11.95206,8.81759c-6.74152,0 -12.46119,-4.08925 -12.46119,-8.81759c0,-4.72834 5.46509,-8.56142 12.20662,-8.56142c6.74152,0 12.20662,3.83307 12.20662,8.56142z" data-paper-data="{&quot;origPos&quot;:null}" fill="url(#color-12)" stroke="#e0ce98" stroke-width="1.5" stroke-linecap="butt"/><path d="M230.48492,146.03933c-0.92107,2.89004 -4.85091,4.12313 -8.77756,2.75416c-3.92666,-1.36898 -6.36315,-4.82159 -5.44209,-7.71164c0.92107,-2.89004 4.85091,-4.12313 8.77756,-2.75416c3.92666,1.36898 6.36315,4.82159 5.44209,7.71164z" data-paper-data="{&quot;origRot&quot;:0,&quot;origPos&quot;:null}" fill="#ffefc0" stroke="#e0ce98" stroke-width="1.5" stroke-linecap="butt"/><path d="M261.75718,119.12959l-4.53402,-0.22459l0.06825,-5.75038" data-paper-data="{&quot;origPos&quot;:null}" fill="none" stroke="#158e0e" stroke-width="1" stroke-linecap="round"/><path d="" data-paper-data="{&quot;origPos&quot;:null}" fill="#c1770b" stroke="#6c4306" stroke-width="1.5" stroke-linecap="butt"/></g></g></svg>