<svg version="1.1" xmlns="http://www.w3.org/2000/svg" xmlns:xlink="http://www.w3.org/1999/xlink" width="575.13423" height="464.18414" viewBox="0,0,575.13423,464.18414"><defs><linearGradient x1="240" y1="-13.5" x2="240" y2="373.5" gradientUnits="userSpaceOnUse" id="color-1"><stop offset="0" stop-color="#00f1ff"/><stop offset="1" stop-color="#d2fffd"/></linearGradient><linearGradient x1="93.65625" y1="176.31251" x2="93.65625" y2="375.31251" gradientUnits="userSpaceOnUse" id="color-2"><stop offset="0" stop-color="#ffc600"/><stop offset="1" stop-color="#ffe365"/></linearGradient><linearGradient x1="143.55649" y1="142.55731" x2="143.55649" y2="376.54287" gradientUnits="userSpaceOnUse" id="color-3"><stop offset="0" stop-color="#ff83f5"/><stop offset="1" stop-color="#ffcbfb"/></linearGradient><linearGradient x1="347.65625" y1="207.04623" x2="347.65625" y2="296.04623" gradientUnits="userSpaceOnUse" id="color-4"><stop offset="0" stop-color="#63ba4a"/><stop offset="1" stop-color="#4b8e39"/></linearGradient><linearGradient x1="348.65625" y1="193.04623" x2="348.65625" y2="211.04623" gradientUnits="userSpaceOnUse" id="color-5"><stop offset="0" stop-color="#63ba4a"/><stop offset="1" stop-color="#4b8e39"/></linearGradient><linearGradient x1="435.65625" y1="167.0462" x2="435.65625" y2="294.04622" gradientUnits="userSpaceOnUse" id="color-6"><stop offset="0" stop-color="#63ba4a"/><stop offset="1" stop-color="#4b8e39"/></linearGradient><linearGradient x1="436.65625" y1="153.0462" x2="436.65625" y2="171.04623" gradientUnits="userSpaceOnUse" id="color-7"><stop offset="0" stop-color="#63ba4a"/><stop offset="1" stop-color="#4b8e39"/></linearGradient><radialGradient cx="70.1905" cy="56.51198" r="42.53425" gradientUnits="userSpaceOnUse" id="color-8"><stop offset="0" stop-color="#ffffff"/><stop offset="1" stop-color="#ffffff" stop-opacity="0"/></radialGradient><radialGradient cx="84.36858" cy="51.58047" r="42.53425" gradientUnits="userSpaceOnUse" id="color-9"><stop offset="0" stop-color="#ffffff"/><stop offset="1" stop-color="#ffffff" stop-opacity="0"/></radialGradient><radialGradient cx="105.94392" cy="54.66266" r="42.53425" gradientUnits="userSpaceOnUse" id="color-10"><stop offset="0" stop-color="#ffffff"/><stop offset="1" stop-color="#ffffff" stop-opacity="0"/></radialGradient><radialGradient cx="93.1905" cy="59.51198" r="42.53424" gradientUnits="userSpaceOnUse" id="color-11"><stop offset="0" stop-color="#ffffff"/><stop offset="1" stop-color="#ffffff" stop-opacity="0"/></radialGradient><radialGradient cx="107.36858" cy="54.58047" r="42.53425" gradientUnits="userSpaceOnUse" id="color-12"><stop offset="0" stop-color="#ffffff"/><stop offset="1" stop-color="#ffffff" stop-opacity="0"/></radialGradient><radialGradient cx="128.94392" cy="57.66267" r="42.53425" gradientUnits="userSpaceOnUse" id="color-13"><stop offset="0" stop-color="#ffffff"/><stop offset="1" stop-color="#ffffff" stop-opacity="0"/></radialGradient><radialGradient cx="317.1905" cy="59.51198" r="42.53425" gradientUnits="userSpaceOnUse" id="color-14"><stop offset="0" stop-color="#ffffff"/><stop offset="1" stop-color="#ffffff" stop-opacity="0"/></radialGradient><radialGradient cx="352.94393" cy="57.66267" r="42.53425" gradientUnits="userSpaceOnUse" id="color-15"><stop offset="0" stop-color="#ffffff"/><stop offset="1" stop-color="#ffffff" stop-opacity="0"/></radialGradient><radialGradient cx="401.94393" cy="40.66266" r="42.53425" gradientUnits="userSpaceOnUse" id="color-16"><stop offset="0" stop-color="#ffffff"/><stop offset="1" stop-color="#ffffff" stop-opacity="0"/></radialGradient><radialGradient cx="433.94393" cy="35.66266" r="42.53425" gradientUnits="userSpaceOnUse" id="color-17"><stop offset="0" stop-color="#ffffff"/><stop offset="1" stop-color="#ffffff" stop-opacity="0"/></radialGradient><radialGradient cx="464.94393" cy="29.66267" r="42.53425" gradientUnits="userSpaceOnUse" id="color-18"><stop offset="0" stop-color="#ffffff"/><stop offset="1" stop-color="#ffffff" stop-opacity="0"/></radialGradient><radialGradient cx="373.94393" cy="47.66267" r="42.53425" gradientUnits="userSpaceOnUse" id="color-19"><stop offset="0" stop-color="#ffffff"/><stop offset="1" stop-color="#ffffff" stop-opacity="0"/></radialGradient><radialGradient cx="306.1905" cy="58.51198" r="42.53425" gradientUnits="userSpaceOnUse" id="color-20"><stop offset="0" stop-color="#ffffff"/><stop offset="1" stop-color="#ffffff" stop-opacity="0"/></radialGradient><radialGradient cx="341.94393" cy="56.66267" r="42.53425" gradientUnits="userSpaceOnUse" id="color-21"><stop offset="0" stop-color="#ffffff"/><stop offset="1" stop-color="#ffffff" stop-opacity="0"/></radialGradient><radialGradient cx="390.94393" cy="39.66266" r="42.53425" gradientUnits="userSpaceOnUse" id="color-22"><stop offset="0" stop-color="#ffffff"/><stop offset="1" stop-color="#ffffff" stop-opacity="0"/></radialGradient><radialGradient cx="422.94393" cy="34.66266" r="42.53425" gradientUnits="userSpaceOnUse" id="color-23"><stop offset="0" stop-color="#ffffff"/><stop offset="1" stop-color="#ffffff" stop-opacity="0"/></radialGradient><radialGradient cx="453.94393" cy="28.66267" r="42.53425" gradientUnits="userSpaceOnUse" id="color-24"><stop offset="0" stop-color="#ffffff"/><stop offset="1" stop-color="#ffffff" stop-opacity="0"/></radialGradient><radialGradient cx="362.94393" cy="46.66267" r="42.53425" gradientUnits="userSpaceOnUse" id="color-25"><stop offset="0" stop-color="#ffffff"/><stop offset="1" stop-color="#ffffff" stop-opacity="0"/></radialGradient><radialGradient cx="464.65625" cy="14.35872" r="72" gradientUnits="userSpaceOnUse" id="color-26"><stop offset="0" stop-color="#ffffff"/><stop offset="1" stop-color="#fbff00"/></radialGradient><radialGradient cx="448.65625" cy="29.35873" r="117" gradientUnits="userSpaceOnUse" id="color-27"><stop offset="0" stop-color="#fbff00"/><stop offset="1" stop-color="#fbff00" stop-opacity="0"/></radialGradient><linearGradient x1="239.00075" y1="296.74996" x2="239.00075" y2="336.04138" gradientUnits="userSpaceOnUse" id="color-28"><stop offset="0" stop-color="#17ff22"/><stop offset="1" stop-color="#02d10c"/></linearGradient></defs><g transform="translate(9.47798,87.64128)"><g data-paper-data="{&quot;isPaintingLayer&quot;:true}" fill-rule="nonzero" stroke-linejoin="miter" stroke-miterlimit="10" stroke-dasharray="" stroke-dashoffset="0" style="mix-blend-mode: normal"><path d="M-2,373.5v-387h484v387z" fill="url(#color-1)" stroke="none" stroke-width="0" stroke-linecap="butt"/><path d="M93.65625,375.31251c-11.14423,0 -31.01697,-12.77512 -39.75248,-38.08543c-12.47727,-36.1517 -11.59426,-92.67633 -9.91409,-129.73443c0.90998,-20.07061 10.1434,-36.64551 49.66657,-38.18014c34.6359,-1.34486 42.26943,14.33409 43.86242,34.5805c3.31631,42.14938 4.19601,96.79976 -6.78125,132.06729c-8.02692,25.78871 -25.65083,39.35222 -37.08116,39.35222z" fill="url(#color-2)" stroke="none" stroke-width="0" stroke-linecap="butt"/><path d="M68.968,285.97918c0,-10.49341 8.50659,-19 19,-19c10.49341,0 19,8.50659 19,19c0,10.49341 -8.50659,19 -19,19c-10.49341,0 -19,-8.50659 -19,-19z" fill="#ffdc5f" stroke="none" stroke-width="0" stroke-linecap="butt"/><path d="M143.55649,376.54287c-13.10345,0 -36.46996,-15.02107 -46.74123,-44.78111c-14.67086,-42.50741 -13.63261,-108.96946 -11.65705,-152.54264c1.06995,-23.59916 11.92668,-43.08804 58.39829,-44.89247c40.72513,-1.5813 49.70069,16.85411 51.57374,40.65998c3.89934,49.55953 4.9337,113.81782 -7.97344,155.28562c-9.4381,30.32254 -30.16043,46.27061 -43.60029,46.27061z" fill="url(#color-3)" stroke="none" stroke-width="0" stroke-linecap="butt"/><path d="M85.93465,273.19655c0,0 10.26247,-5.88403 16.53335,-5.88403c14.45145,0 26.16667,11.71522 26.16667,26.16667c0,14.45145 -11.71522,26.16667 -26.16667,26.16667c-14.45145,0 -16.53335,-46.4493 -16.53335,-46.4493z" fill="#ffbcf9" stroke="none" stroke-width="0" stroke-linecap="butt"/><path d="M-2.50075,366.75002v-47h480.1v47z" fill="#98763d" stroke="none" stroke-width="0" stroke-linecap="butt"/><path d="M232.67146,337.8697l13.44729,-0.36671l8.55152,5.47299l-12.92175,4.42356l-9.55,-2.24411z" data-paper-data="{&quot;index&quot;:null}" fill="#774b00" stroke="#703100" stroke-width="2" stroke-linecap="round"/><path d="M49.98286,349.55485l-15.69895,-2.68858l1.36512,-7.05753l23.18219,-1.23195l6.16802,4.25661z" data-paper-data="{&quot;index&quot;:null}" fill="#774b00" stroke="#703100" stroke-width="2" stroke-linecap="round"/><path d="M131.26027,352.1574l-0.98032,-5.76051l15.74529,-0.9763l12.62052,7.45245l-6.48829,2.91164z" data-paper-data="{&quot;index&quot;:null}" fill="#774b00" stroke="#703100" stroke-width="2" stroke-linecap="round"/><path d="M421.48396,342.3902l17.9078,-1.89717l13.20366,6.44201l-15.91256,7.27995l-13.51465,-2.00971z" data-paper-data="{&quot;index&quot;:null}" fill="#774b00" stroke="#703100" stroke-width="2" stroke-linecap="round"/><path d="M330.42101,346.96693l12.41613,-1.31538l9.15458,4.46648l-11.03276,5.04745l-9.3702,-1.39341z" data-paper-data="{&quot;index&quot;:null}" fill="#774b00" stroke="#703100" stroke-width="2" stroke-linecap="round"/><path d="M319.65625,296.04623v-89h56v89z" fill="url(#color-4)" stroke="#4b8e39" stroke-width="4" stroke-linecap="butt"/><path d="M306.65625,211.04623v-18h84v18z" fill="url(#color-5)" stroke="#4b8e39" stroke-width="4" stroke-linecap="butt"/><path d="M407.65625,294.04622v-127h56v127z" fill="url(#color-6)" stroke="#4b8e39" stroke-width="4" stroke-linecap="butt"/><path d="M394.65625,171.04623v-18h84v18z" fill="url(#color-7)" stroke="#4b8e39" stroke-width="4" stroke-linecap="butt"/><path d="M27.65625,56.51198c0,-23.49102 19.04323,-42.53425 42.53425,-42.53425c23.49102,0 42.53425,19.04323 42.53425,42.53425c0,23.49102 -19.04323,42.53425 -42.53425,42.53425c-23.49102,0 -42.53425,-19.04323 -42.53425,-42.53425z" fill="url(#color-8)" stroke="none" stroke-width="0" stroke-linecap="butt"/><path d="M41.83433,51.58047c0,-23.49102 19.04323,-42.53425 42.53425,-42.53425c23.49102,0 42.53425,19.04323 42.53425,42.53425c0,23.49102 -19.04323,42.53425 -42.53425,42.53425c-23.49102,0 -42.53425,-19.04323 -42.53425,-42.53425z" fill="url(#color-9)" stroke="none" stroke-width="0" stroke-linecap="butt"/><path d="M63.40968,54.66266c0,-23.49102 19.04323,-42.53425 42.53425,-42.53425c23.49102,0 42.53425,19.04323 42.53425,42.53425c0,23.49102 -19.04323,42.53425 -42.53425,42.53425c-23.49102,0 -42.53425,-19.04323 -42.53425,-42.53425z" fill="url(#color-10)" stroke="none" stroke-width="0" stroke-linecap="butt"/><path d="M50.65625,59.51198c0,-23.49101 19.04323,-42.53424 42.53425,-42.53424c23.49102,0 42.53424,19.04323 42.53424,42.53425c0,23.49101 -19.04323,42.53425 -42.53424,42.53425c-23.49102,0 -42.53425,-19.04323 -42.53425,-42.53425z" fill="url(#color-11)" stroke="none" stroke-width="0" stroke-linecap="butt"/><path d="M64.83434,54.58047c0,-23.49102 19.04323,-42.53424 42.53424,-42.53424c23.49102,0 42.53425,19.04323 42.53425,42.53425c0,23.49102 -19.04323,42.53425 -42.53425,42.53425c-23.49102,0 -42.53424,-19.04323 -42.53424,-42.53425z" fill="url(#color-12)" stroke="none" stroke-width="0" stroke-linecap="butt"/><path d="M86.40967,57.66267c0,-23.49102 19.04323,-42.53425 42.53425,-42.53425c23.49102,0 42.53425,19.04323 42.53425,42.53425c0,23.49102 -19.04323,42.53425 -42.53424,42.53425c-23.49102,0 -42.53425,-19.04323 -42.53425,-42.53424z" fill="url(#color-13)" stroke="none" stroke-width="0" stroke-linecap="butt"/><path d="M274.65625,59.51198c0,-23.49101 19.04323,-42.53424 42.53425,-42.53424c23.49102,0 42.53425,19.04323 42.53425,42.53425c0,23.49101 -19.04323,42.53425 -42.53424,42.53425c-23.49102,0 -42.53425,-19.04323 -42.53425,-42.53425z" fill="url(#color-14)" stroke="none" stroke-width="0" stroke-linecap="butt"/><path d="M310.40968,57.66267c0,-23.49102 19.04323,-42.53425 42.53425,-42.53425c23.49102,0 42.53425,19.04323 42.53425,42.53425c0,23.49102 -19.04323,42.53425 -42.53424,42.53425c-23.49102,0 -42.53425,-19.04323 -42.53425,-42.53424z" fill="url(#color-15)" stroke="none" stroke-width="0" stroke-linecap="butt"/><path d="M359.40968,40.66266c0,-23.49101 19.04323,-42.53425 42.53425,-42.53425c23.49102,0 42.53425,19.04323 42.53425,42.53425c0,23.49101 -19.04323,42.53424 -42.53424,42.53424c-23.49102,0 -42.53425,-19.04323 -42.53425,-42.53424z" fill="url(#color-16)" stroke="none" stroke-width="0" stroke-linecap="butt"/><path d="M391.40968,35.66266c0,-23.49101 19.04323,-42.53425 42.53425,-42.53425c23.49102,0 42.53425,19.04324 42.53425,42.53425c0,23.49102 -19.04323,42.53425 -42.53424,42.53425c-23.49102,0 -42.53425,-19.04323 -42.53425,-42.53424z" fill="url(#color-17)" stroke="none" stroke-width="0" stroke-linecap="butt"/><path d="M422.40968,29.66267c0,-23.49101 19.04323,-42.53425 42.53425,-42.53425c23.49102,0 42.53425,19.04324 42.53425,42.53425c0,23.49102 -19.04323,42.53425 -42.53424,42.53425c-23.49102,0 -42.53425,-19.04323 -42.53425,-42.53424z" fill="url(#color-18)" stroke="none" stroke-width="0" stroke-linecap="butt"/><path d="M331.40968,47.66267c0,-23.49102 19.04323,-42.53425 42.53425,-42.53425c23.49102,0 42.53425,19.04323 42.53425,42.53425c0,23.49102 -19.04323,42.53425 -42.53424,42.53425c-23.49102,0 -42.53425,-19.04323 -42.53425,-42.53424z" fill="url(#color-19)" stroke="none" stroke-width="0" stroke-linecap="butt"/><path d="M263.65625,58.51198c0,-23.49101 19.04323,-42.53424 42.53425,-42.53424c23.49102,0 42.53425,19.04323 42.53425,42.53425c0,23.49102 -19.04323,42.53425 -42.53424,42.53425c-23.49102,0 -42.53425,-19.04323 -42.53425,-42.53424z" fill="url(#color-20)" stroke="none" stroke-width="0" stroke-linecap="butt"/><path d="M299.40968,56.66267c0,-23.49102 19.04323,-42.53425 42.53425,-42.53425c23.49102,0 42.53425,19.04323 42.53425,42.53425c0,23.49102 -19.04323,42.53425 -42.53424,42.53425c-23.49102,0 -42.53425,-19.04323 -42.53425,-42.53424z" fill="url(#color-21)" stroke="none" stroke-width="0" stroke-linecap="butt"/><path d="M348.40968,39.66266c0,-23.49101 19.04323,-42.53425 42.53425,-42.53425c23.49102,0 42.53425,19.04324 42.53425,42.53425c0,23.49102 -19.04323,42.53425 -42.53424,42.53425c-23.49102,0 -42.53425,-19.04323 -42.53425,-42.53424z" fill="url(#color-22)" stroke="none" stroke-width="0" stroke-linecap="butt"/><path d="M380.40968,34.66266c0,-23.49101 19.04323,-42.53425 42.53425,-42.53425c23.49102,0 42.53425,19.04324 42.53425,42.53425c0,23.49102 -19.04323,42.53425 -42.53424,42.53425c-23.49102,0 -42.53425,-19.04323 -42.53425,-42.53424z" fill="url(#color-23)" stroke="none" stroke-width="0" stroke-linecap="butt"/><path d="M411.40968,28.66267c0,-23.49101 19.04323,-42.53425 42.53425,-42.53425c23.49102,0 42.53425,19.04324 42.53425,42.53425c0,23.49102 -19.04323,42.53425 -42.53424,42.53425c-23.49102,0 -42.53425,-19.04323 -42.53425,-42.53424z" fill="url(#color-24)" stroke="none" stroke-width="0" stroke-linecap="butt"/><path d="M320.40968,46.66267c0,-23.49101 19.04323,-42.53425 42.53425,-42.53425c23.49102,0 42.53425,19.04324 42.53425,42.53425c0,23.49102 -19.04323,42.53425 -42.53424,42.53425c-23.49102,0 -42.53425,-19.04323 -42.53425,-42.53424z" fill="url(#color-25)" stroke="none" stroke-width="0" stroke-linecap="butt"/><path d="M392.65625,14.35872c0,-39.7645 32.2355,-72 72,-72c39.7645,0 72,32.2355 72,72c0,39.7645 -32.2355,72 -72,72c-39.7645,0 -72,-32.2355 -72,-72z" fill="url(#color-26)" stroke="none" stroke-width="0" stroke-linecap="butt"/><path d="M331.65625,29.35873c0,-64.61731 52.38269,-117 117,-117c64.61731,0 117,52.38269 117,117c0,64.61731 -52.38269,117 -117,117c-64.61731,0 -117,-52.38269 -117,-117z" fill="url(#color-27)" stroke="none" stroke-width="0" stroke-linecap="butt"/><path d="M43.43741,215.15211c0,0 5.83273,-1.8396 8.71885,-1.8396c10.21727,0 18.5,8.28273 18.5,18.5c0,10.21727 -8.28273,18.5 -18.5,18.5c-3.04428,0 -9.11636,-2.03803 -9.11636,-2.03803z" fill="#ffdc5f" stroke="none" stroke-width="0" stroke-linecap="butt"/><path d="M84.83637,185.82407c0,0 10.42029,-6.17822 16.84257,-6.17822c14.38385,0 26.04427,11.66042 26.04427,26.04428c0,14.38386 -11.66041,26.04427 -26.04427,26.04427c-6.62435,0 -17.26718,-6.54648 -17.26718,-6.54648z" fill="#ffbcf9" stroke="none" stroke-width="0" stroke-linecap="butt"/><path d="M162.30133,252.31251c0,-12.15026 9.84974,-22 22,-22c5.14391,0 13.62193,4.72334 13.62193,4.72334l-1.1834,36.13028c0,0 -8.52519,3.14638 -12.43852,3.14638c-12.15026,0 -22,-9.84974 -22,-22z" fill="#ffbcf9" stroke="none" stroke-width="0" stroke-linecap="butt"/><path d="M164.28088,167.94912c0,-6.17133 2.38797,-12.70575 8.19996,-16.464c4.85061,-3.13658 13.30004,-4.036 13.30004,-4.036c0,0 6.18681,8.29031 7.9234,14.17029c1.95109,6.60627 2.21478,23.5428 2.21478,23.5428c0,0 -7.03152,3.2869 -11.13817,3.2869c-11.32184,0 -20.5,-9.17816 -20.5,-20.5z" fill="#ffbcf9" stroke="none" stroke-width="0" stroke-linecap="butt"/><path d="M18.14814,299.14583v-60.99084h7.01664v60.99084z" fill="#90ff96" stroke="none" stroke-width="0" stroke-linecap="butt"/><path d="M26.21896,254.61713c0,12.0727 -9.17561,12.0727 -9.17561,0c0,-12.07269 4.5878,-21.85954 4.5878,-21.85954c0,0 4.58781,9.78685 4.58781,21.85954z" fill="#ff8c8c" stroke="none" stroke-width="0" stroke-linecap="butt"/><path d="M17.04335,211.04681c0,-12.0727 9.17561,-12.0727 9.17561,0c0,12.0727 -4.5878,21.85955 -4.5878,21.85955c0,0 -4.58781,-9.78686 -4.58781,-21.85955z" data-paper-data="{&quot;index&quot;:null}" fill="#ff8c8c" stroke="none" stroke-width="0" stroke-linecap="butt"/><path d="M44.19219,227.92757c12.07237,-0.08833 12.13951,9.08704 0.06714,9.17536c-12.07237,0.08833 -21.89253,-4.42774 -21.89253,-4.42774c0,0 9.75302,-4.65929 21.82539,-4.74762z" data-paper-data="{&quot;index&quot;:null}" fill="#ff8c8c" stroke="none" stroke-width="0" stroke-linecap="butt"/><path d="M21.43534,233.21494c0,0 -9.82016,4.51607 -21.89253,4.42774c-12.07237,-0.08833 -12.00523,-9.26369 0.06713,-9.17536c12.07237,0.08833 21.8254,4.74762 21.8254,4.74762z" data-paper-data="{&quot;index&quot;:null}" fill="#ff8c8c" stroke="none" stroke-width="0" stroke-linecap="butt"/><path d="M20.49872,232.23462c0,0 -10.14704,-3.72398 -18.64354,-12.30066c-8.4965,-8.57668 -1.97797,-15.03428 6.51853,-6.45759c8.4965,8.57668 12.12501,18.75825 12.12501,18.75825z" data-paper-data="{&quot;index&quot;:null}" fill="#ff8c8c" stroke="none" stroke-width="0" stroke-linecap="butt"/><path d="M34.29392,213.47636c8.4965,-8.57668 15.01505,-2.11909 6.51855,6.45759c-8.4965,8.57668 -18.64355,12.30066 -18.64355,12.30066c0,0 3.62851,-10.18157 12.12501,-18.75825z" data-paper-data="{&quot;index&quot;:null}" fill="#ff8c8c" stroke="none" stroke-width="0" stroke-linecap="butt"/><path d="M22.16893,233.18141c0,0 10.14704,3.72398 18.64354,12.30066c8.4965,8.57668 1.97796,15.03428 -6.51854,6.4576c-8.4965,-8.57668 -12.12501,-18.75825 -12.12501,-18.75825z" data-paper-data="{&quot;index&quot;:null}" fill="#ff8c8c" stroke="none" stroke-width="0" stroke-linecap="butt"/><path d="M8.91346,252.4794c-8.4965,8.57668 -15.01504,2.11908 -6.51855,-6.4576c8.4965,-8.57668 18.64355,-12.30065 18.64355,-12.30065c0,0 -3.62851,10.18157 -12.12501,18.75825z" data-paper-data="{&quot;index&quot;:null}" fill="#ff8c8c" stroke="none" stroke-width="0" stroke-linecap="butt"/><path d="M13.43576,232.62265c0,-4.69494 3.80599,-8.50093 8.50093,-8.50093c4.69494,0 8.50093,3.80599 8.50093,8.50093c0,4.69494 -3.80599,8.50093 -8.50093,8.50093c-4.69494,0 -8.50093,-3.80599 -8.50093,-8.50093z" fill="#fffa5b" stroke="none" stroke-width="0" stroke-linecap="butt"/><path d="M22.0659,274.78899c0,0 -7.98708,0.34238 -16.22693,-3.09787c-8.23986,-3.44025 -5.62515,-9.70279 2.61471,-6.26254c8.23986,3.44025 13.61223,9.36041 13.61223,9.36041z" data-paper-data="{&quot;index&quot;:null}" fill="#90ff96" stroke="none" stroke-width="0" stroke-linecap="butt"/><path d="M36.55501,264.88884c8.23986,-3.44025 10.85457,2.82228 2.61471,6.26253c-8.23986,3.44025 -16.22693,3.09787 -16.22693,3.09787c0,0 5.37237,-5.92015 13.61223,-9.3604z" data-paper-data="{&quot;index&quot;:null}" fill="#90ff96" stroke="none" stroke-width="0" stroke-linecap="butt"/><path d="M42.87654,305.14584v-53.21612h6.1222v53.21612z" fill="#90ff96" stroke="none" stroke-width="0" stroke-linecap="butt"/><path d="M49.91855,266.29336c0,10.53375 -8.00597,10.53375 -8.00597,0c0,-10.53375 4.00298,-19.07303 4.00298,-19.07303c0,0 4.00298,8.53929 4.00298,19.07303z" fill="#ff8cf5" stroke="none" stroke-width="0" stroke-linecap="butt"/><path d="M41.91259,228.27711c0,-10.53375 8.00596,-10.53375 8.00596,0c0,10.53375 -4.00298,19.07303 -4.00298,19.07303c0,0 -4.00298,-8.53929 -4.00298,-19.07303z" data-paper-data="{&quot;index&quot;:null}" fill="#ff8cf5" stroke="none" stroke-width="0" stroke-linecap="butt"/><path d="M65.60066,243.00602c10.53346,-0.07707 10.59204,7.92868 0.05858,8.00575c-10.53346,0.07707 -19.10181,-3.86332 -19.10181,-3.86332c0,0 8.50977,-4.06536 19.04323,-4.14243z" data-paper-data="{&quot;index&quot;:null}" fill="#ff8cf5" stroke="none" stroke-width="0" stroke-linecap="butt"/><path d="M45.7447,247.61938c0,0 -8.56835,3.9404 -19.10181,3.86333c-10.53346,-0.07707 -10.47489,-8.08282 0.05858,-8.00575c10.53346,0.07707 19.04323,4.14242 19.04323,4.14242z" data-paper-data="{&quot;index&quot;:null}" fill="#ff8cf5" stroke="none" stroke-width="0" stroke-linecap="butt"/><path d="M44.92748,246.76403c0,0 -8.85357,-3.24927 -16.26699,-10.73265c-7.41342,-7.48338 -1.72583,-13.1178 5.68759,-5.63442c7.41342,7.48338 10.57939,16.36707 10.57939,16.36707z" data-paper-data="{&quot;index&quot;:null}" fill="#ff8cf5" stroke="none" stroke-width="0" stroke-linecap="butt"/><path d="M56.96416,230.39696c7.41342,-7.48338 13.10102,-1.84896 5.6876,5.63442c-7.41342,7.48338 -16.26699,10.73265 -16.26699,10.73265c0,0 3.16597,-8.88369 10.57939,-16.36707z" data-paper-data="{&quot;index&quot;:null}" fill="#ff8cf5" stroke="none" stroke-width="0" stroke-linecap="butt"/><path d="M46.38478,247.59013c0,0 8.85357,3.24927 16.26699,10.73265c7.41342,7.48338 1.72582,13.1178 -5.6876,5.63442c-7.41342,-7.48338 -10.57939,-16.36707 -10.57939,-16.36707z" data-paper-data="{&quot;index&quot;:null}" fill="#ff8cf5" stroke="none" stroke-width="0" stroke-linecap="butt"/><path d="M34.81904,264.42814c-7.41342,7.48338 -13.10102,1.84896 -5.6876,-5.63442c7.41342,-7.48338 16.26699,-10.73265 16.26699,-10.73265c0,0 -3.16597,8.88369 -10.57939,16.36707z" data-paper-data="{&quot;index&quot;:null}" fill="#ff8cf5" stroke="none" stroke-width="0" stroke-linecap="butt"/><path d="M41.59049,246.74939c0,-2.34083 1.89762,-4.23845 4.23845,-4.23845c2.34083,0 4.23845,1.89762 4.23845,4.23845c0,2.34083 -1.89762,4.23845 -4.23845,4.23845c-2.34083,0 -4.23845,-1.89762 -4.23845,-4.23845z" fill="#fffa5b" stroke="none" stroke-width="0" stroke-linecap="butt"/><path d="M46.29488,283.89384c0,0 -6.96893,0.29874 -14.15843,-2.70297c-7.18949,-3.00171 -4.9081,-8.46594 2.2814,-5.46423c7.18949,3.00171 11.87703,8.1672 11.87703,8.1672z" data-paper-data="{&quot;index&quot;:null}" fill="#90ff96" stroke="none" stroke-width="0" stroke-linecap="butt"/><path d="M58.93702,275.2557c7.18949,-3.00171 9.47089,2.46251 2.2814,5.46423c-7.18949,3.00171 -14.15843,2.70297 -14.15843,2.70297c0,0 4.68754,-5.16549 11.87703,-8.1672z" data-paper-data="{&quot;index&quot;:null}" fill="#90ff96" stroke="none" stroke-width="0" stroke-linecap="butt"/><path d="M272.14814,312.14583v-60.99084h7.01664v60.99084z" fill="#90ff96" stroke="none" stroke-width="0" stroke-linecap="butt"/><path d="M280.21896,267.61713c0,12.0727 -9.17561,12.0727 -9.17561,0c0,-12.07269 4.58781,-21.85954 4.58781,-21.85954c0,0 4.58781,9.78685 4.58781,21.85954z" fill="#fdff8c" stroke="none" stroke-width="0" stroke-linecap="butt"/><path d="M271.04336,224.04681c0,-12.0727 9.17561,-12.0727 9.17561,0c0,12.0727 -4.5878,21.85955 -4.5878,21.85955c0,0 -4.58781,-9.78686 -4.58781,-21.85955z" data-paper-data="{&quot;index&quot;:null}" fill="#fdff8c" stroke="none" stroke-width="0" stroke-linecap="butt"/><path d="M298.19219,240.92757c12.07237,-0.08833 12.1395,9.08703 0.06714,9.17537c-12.07237,0.08833 -21.89253,-4.42774 -21.89253,-4.42774c0,0 9.75302,-4.65929 21.82539,-4.74762z" data-paper-data="{&quot;index&quot;:null}" fill="#fdff8c" stroke="none" stroke-width="0" stroke-linecap="butt"/><path d="M275.43534,246.21493c0,0 -9.82016,4.51608 -21.89253,4.42775c-12.07237,-0.08833 -12.00524,-9.2637 0.06714,-9.17537c12.07237,0.08833 21.82539,4.74762 21.82539,4.74762z" data-paper-data="{&quot;index&quot;:null}" fill="#fdff8c" stroke="none" stroke-width="0" stroke-linecap="butt"/><path d="M274.49872,245.23462c0,0 -10.14704,-3.72398 -18.64355,-12.30066c-8.4965,-8.57668 -1.97797,-15.03428 6.51853,-6.45759c8.4965,8.57668 12.12502,18.75825 12.12502,18.75825z" data-paper-data="{&quot;index&quot;:null}" fill="#fdff8c" stroke="none" stroke-width="0" stroke-linecap="butt"/><path d="M288.29392,226.47636c8.4965,-8.57668 15.01504,-2.11909 6.51854,6.45759c-8.4965,8.57668 -18.64355,12.30066 -18.64355,12.30066c0,0 3.6285,-10.18157 12.12501,-18.75825z" data-paper-data="{&quot;index&quot;:null}" fill="#fdff8c" stroke="none" stroke-width="0" stroke-linecap="butt"/><path d="M276.16892,246.18141c0,0 10.14705,3.72398 18.64355,12.30066c8.4965,8.57668 1.97796,15.03427 -6.51854,6.45759c-8.4965,-8.57668 -12.125,-18.75825 -12.125,-18.75825z" data-paper-data="{&quot;index&quot;:null}" fill="#fdff8c" stroke="none" stroke-width="0" stroke-linecap="butt"/><path d="M262.91346,265.4794c-8.4965,8.57668 -15.01504,2.11908 -6.51854,-6.45759c8.4965,-8.57668 18.64355,-12.30066 18.64355,-12.30066c0,0 -3.62851,10.18157 -12.12501,18.75825z" data-paper-data="{&quot;index&quot;:null}" fill="#fdff8c" stroke="none" stroke-width="0" stroke-linecap="butt"/><path d="M268.93575,245.72264c0,-3.81128 3.08965,-6.90094 6.90094,-6.90094c3.81128,0 6.90094,3.08965 6.90094,6.90094c0,3.81128 -3.08965,6.90094 -6.90094,6.90094c-3.81128,0 -6.90094,-3.08965 -6.90094,-6.90094z" fill="#fffa5b" stroke="none" stroke-width="0" stroke-linecap="butt"/><path d="M276.06589,287.78899c0,0 -7.98708,0.34238 -16.22694,-3.09787c-8.23986,-3.44025 -5.62515,-9.70279 2.61471,-6.26254c8.23986,3.44025 13.61223,9.36041 13.61223,9.36041z" data-paper-data="{&quot;index&quot;:null}" fill="#90ff96" stroke="none" stroke-width="0" stroke-linecap="butt"/><path d="M290.55502,277.88884c8.23986,-3.44025 10.85456,2.82228 2.6147,6.26253c-8.23986,3.44025 -16.22693,3.09787 -16.22693,3.09787c0,0 5.37237,-5.92015 13.61223,-9.36041z" data-paper-data="{&quot;index&quot;:null}" fill="#90ff96" stroke="none" stroke-width="0" stroke-linecap="butt"/><path d="M-0.99925,323.64324v-26.89326h480v26.89326l-26.7807,1.75726l-43.60514,10.64086l-42.40549,-11.9986l-40.36564,10.37815l-40.3899,-10.67969l-43.03124,8.22474l-40.05345,-9.40523l-57.05211,12.49333l-42.3364,-13.2091l-55.75184,10.7627z" fill="url(#color-28)" stroke="#08a310" stroke-width="3" stroke-linecap="butt"/></g></g></svg>