<svg version="1.1" xmlns="http://www.w3.org/2000/svg" xmlns:xlink="http://www.w3.org/1999/xlink" width="73.14262" height="153.85556" viewBox="0,0,73.14262,153.85556"><defs><linearGradient x1="251.41222" y1="214.09691" x2="251.41222" y2="250.07687" gradientUnits="userSpaceOnUse" id="color-1"><stop offset="0" stop-color="#364ec7"/><stop offset="1" stop-color="#001371"/></linearGradient><linearGradient x1="254.93266" y1="243.54501" x2="254.93266" y2="257.13671" gradientUnits="userSpaceOnUse" id="color-2"><stop offset="0" stop-color="#a6680a"/><stop offset="1" stop-color="#6c4205"/></linearGradient><linearGradient x1="261.37643" y1="168.9109" x2="261.37643" y2="199.18454" gradientUnits="userSpaceOnUse" id="color-3"><stop offset="0" stop-color="#20de16"/><stop offset="1" stop-color="#158e0e"/></linearGradient><linearGradient x1="241.0723" y1="162.59478" x2="241.0723" y2="221.5807" gradientUnits="userSpaceOnUse" id="color-4"><stop offset="0" stop-color="#364ec7"/><stop offset="1" stop-color="#001371"/></linearGradient><linearGradient x1="242.51259" y1="166.8177" x2="242.51259" y2="187.67321" gradientUnits="userSpaceOnUse" id="color-5"><stop offset="0" stop-color="#20de16"/><stop offset="1" stop-color="#158e0e"/></linearGradient><linearGradient x1="231.27717" y1="213.42214" x2="231.27717" y2="249.11854" gradientUnits="userSpaceOnUse" id="color-6"><stop offset="0" stop-color="#364ec7"/><stop offset="1" stop-color="#001371"/></linearGradient><linearGradient x1="231.35646" y1="244.03335" x2="231.35646" y2="257.24118" gradientUnits="userSpaceOnUse" id="color-7"><stop offset="0" stop-color="#a6680a"/><stop offset="1" stop-color="#6c4205"/></linearGradient><linearGradient x1="242.36645" y1="121.43713" x2="242.36645" y2="174.32942" gradientUnits="userSpaceOnUse" id="color-8"><stop offset="0" stop-color="#ffefc0"/><stop offset="1" stop-color="#e0ce98"/></linearGradient><linearGradient x1="241.32214" y1="104.63564" x2="241.32214" y2="136.93191" gradientUnits="userSpaceOnUse" id="color-9"><stop offset="0" stop-color="#20de16"/><stop offset="1" stop-color="#158e0e"/></linearGradient><linearGradient x1="242.08459" y1="122.37347" x2="242.08459" y2="130.30387" gradientUnits="userSpaceOnUse" id="color-10"><stop offset="0" stop-color="#20de16"/><stop offset="1" stop-color="#158e0e"/></linearGradient><linearGradient x1="243.42396" y1="142.39783" x2="243.42396" y2="159.94831" gradientUnits="userSpaceOnUse" id="color-11"><stop offset="0" stop-color="#ffefc0"/><stop offset="1" stop-color="#e0ce98"/></linearGradient><linearGradient x1="235.56352" y1="175.49522" x2="213.33957" y2="157.51005" gradientUnits="userSpaceOnUse" id="color-12"><stop offset="0" stop-color="#20de16"/><stop offset="1" stop-color="#158e0e"/></linearGradient></defs><g transform="translate(-211.05897,-104.13563)"><g data-paper-data="{&quot;isPaintingLayer&quot;:true}" fill-rule="nonzero" stroke-linejoin="miter" stroke-miterlimit="10" stroke-dasharray="" stroke-dashoffset="0" style="mix-blend-mode: normal"><path d="M258.69055,229.90207c0.34039,3.52639 -0.3043,9.73077 -0.63653,13.25838c-0.47779,5.07324 -1.95377,5.88532 -6.01554,6.49654c-4.07988,0.61395 -5.27958,1.25348 -6.70828,-3.55739c-0.98268,-3.30898 0.61095,-10.72426 0.27274,-14.22803c-0.99872,-10.34657 -3.19039,-17.20126 0.47866,-17.7534c0,0 5.92372,-0.3031 7.09613,1.37923c0,0 2.61311,-1.98035 3.63788,0.96862c1.03186,2.96939 0.87622,3.08949 1.87494,13.43606z" data-paper-data="{&quot;origPos&quot;:null,&quot;origRot&quot;:0}" fill="url(#color-1)" stroke="#001371" stroke-width="1.5" stroke-linecap="butt"/><path d="M262.80387,246.782c4.33821,3.07274 2.47858,6.84278 0.30274,8.37694c-2.63478,1.85778 -11.02365,2.74772 -15.48125,1.14433c-4.45758,-1.60338 -2.87099,-2.7313 -3.08883,-4.45587c-0.48434,-3.83434 1.91096,-7.26328 8.44128,-8.01422c6.53031,-0.75095 5.48787,-0.12394 9.82608,2.9488z" data-paper-data="{&quot;origPos&quot;:null,&quot;origRot&quot;:0}" fill="url(#color-2)" stroke="#6c4306" stroke-width="1.5" stroke-linecap="butt"/><path d="M252.46609,169.37011c2.66494,-2.03541 8.81462,2.88596 13.73566,10.99218c4.92105,8.10622 6.74998,16.32762 4.08502,18.36304c-2.66496,2.03541 -8.81463,-2.88595 -13.73566,-10.99217c-4.92105,-8.10622 -6.74998,-16.32765 -4.08501,-18.36304z" data-paper-data="{&quot;origRot&quot;:0,&quot;origPos&quot;:null,&quot;index&quot;:null}" fill="url(#color-3)" stroke="#158e0e" stroke-width="1.5" stroke-linecap="butt"/><path d="M258.19093,192.18506c0,9.41437 2.57396,18.53496 -2.43939,25.72942c-3.21333,4.61132 -9.69716,3.56404 -14.67924,3.56404c-4.98207,0 -11.4659,0.74966 -14.67924,-3.86164c-5.01335,-7.19445 -2.43939,-16.01745 -2.43939,-25.4318c0,-16.17833 7.66426,-29.54752 17.11863,-29.54752c0,0 9.72842,-0.91541 12.88897,5.72261c3.14566,6.60674 4.22966,7.64657 4.22966,23.8249z" data-paper-data="{&quot;origPos&quot;:null}" fill="url(#color-4)" stroke="#001371" stroke-width="1.5" stroke-linecap="butt"/><path d="M274.21675,191.08929c5.58728,0.50277 9.70268,5.66187 9.19201,11.52316c-0.51068,5.86131 -5.45404,10.20525 -11.04133,9.70249c-5.58726,-0.50277 -9.70268,-5.66187 -9.19201,-11.52316c0.51068,-5.86131 5.45405,-10.20525 11.04133,-9.70249z" data-paper-data="{&quot;origPos&quot;:null,&quot;index&quot;:null}" fill="#ffffff" stroke="#bfbfbf" stroke-width="1.5" stroke-linecap="butt"/><path d="M249.20572,175.59599c0,2.73229 1.18698,7.24255 -0.31003,9.12432c-1.61709,2.03268 -3.32827,2.96733 -5.5586,2.95273c-2.46992,-0.01618 -4.1733,-1.01847 -6.23486,-2.81865c-2.11879,-1.85016 -1.69451,-5.89918 -1.69451,-9.25839c0,-4.84812 3.0888,-8.7783 6.89902,-8.7783c3.8102,0 6.899,3.93019 6.899,8.7783z" data-paper-data="{&quot;origPos&quot;:null}" fill="url(#color-5)" stroke="none" stroke-width="0" stroke-linecap="butt"/><path d="M235.94361,183.88415c0,2.26997 -1.7773,4.11017 -3.96972,4.11017c-2.19242,0 -3.96972,-1.84019 -3.96972,-4.11017c0,-2.26997 1.7773,-4.11016 3.96972,-4.11016c2.19242,0 3.96972,1.84019 3.96972,4.11016z" data-paper-data="{&quot;origPos&quot;:null}" fill="#faff66" stroke="none" stroke-width="1.5" stroke-linecap="butt"/><path d="M257.23659,183.32041c0,2.21407 -1.73351,4.00892 -3.87193,4.00892c-2.13841,0 -3.87194,-1.79484 -3.87194,-4.00892c0,-2.21407 1.73353,-4.00892 3.87194,-4.00892c2.13841,0 3.87193,1.79484 3.87193,4.00892z" data-paper-data="{&quot;origPos&quot;:null}" fill="#faff66" stroke="none" stroke-width="1.5" stroke-linecap="butt"/><path d="M238.98782,230.73976c0,3.50401 -1.27481,9.48574 -1.96444,12.89179c-0.99179,4.89844 -2.58519,5.47627 -6.80943,5.47627c-4.24308,0 -5.53619,0.44954 -6.52474,-4.47294c-0.67992,-3.38575 1.68747,-10.41359 1.68747,-13.89513c0,-10.28091 -1.56843,-17.31761 2.2474,-17.31761c0,0 6.10246,0.57622 7.13786,2.39675c2.9854,5.2492 4.22589,4.63995 4.22589,14.92087z" data-paper-data="{&quot;origPos&quot;:null}" fill="url(#color-6)" stroke="#001371" stroke-width="1.5" stroke-linecap="butt"/><path d="M239.37042,248.00558c3.69582,3.47833 1.51031,6.94164 -0.70679,8.19207c-2.68475,1.51418 -10.63883,1.4414 -14.62,-0.61932c-3.98116,-2.06071 -2.36339,-2.98149 -2.36339,-4.68542c0,-3.78843 2.64637,-6.85956 8.8451,-6.85956c6.19873,0 5.14927,0.49389 8.84509,3.97223z" data-paper-data="{&quot;origPos&quot;:null}" fill="url(#color-7)" stroke="#6c4306" stroke-width="1.5" stroke-linecap="butt"/><g data-paper-data="{&quot;origPos&quot;:null}"><path d="M267.38817,148.74528c0,9.84218 -5.14936,13.90084 -11.92352,18.96597c-4.72012,3.52931 -6.06853,6.61817 -11.57363,6.61817c-6.39728,0 -8.94794,-3.43831 -14.4308,-7.5442c-6.66848,-4.99375 -12.11553,-8.5149 -12.11553,-18.20747c0,-5.0106 0.57271,-17.63489 2.65647,-21.85717c4.80207,-9.73034 14.74065,-3.04204 23.65922,-3.04204c0,0 14.51881,-4.21225 19.42967,5.04324c2.33042,4.39213 4.29814,6.17951 4.29814,20.02349z" data-paper-data="{&quot;origPos&quot;:null}" fill="url(#color-8)" stroke="#e0ce98" stroke-width="1" stroke-linecap="butt"/><path d="M266.19936,123.11589c4.00627,16.71215 -25.08437,7.40635 -27.49927,9.0406c-2.37176,1.60506 -21.51796,1.04064 -21.1688,-1.20378c1.89371,-12.17314 11.44355,-17.03179 17.05142,-15.97189c5.60786,1.0599 27.61039,-8.57709 31.61666,8.13505z" data-paper-data="{&quot;origPos&quot;:null,&quot;origRot&quot;:0}" fill="#c27231" stroke="#985926" stroke-width="1.5" stroke-linecap="butt"/><path d="M255.21027,160.68901c0,0.96935 -1.05436,2.6064 -1.15734,3.56971c-0.21869,2.04583 -1.61583,3.12409 -3.57684,3.21584c-2.16435,0.10127 -5.99132,-2.51586 -5.99132,-2.51586c0,0 -2.87775,1.19046 -4.82459,1.64777c-1.63184,0.38331 -4.15503,0.13211 -5.64053,-0.65409c-1.0443,-0.55271 -2.66543,-2.87291 -3.30943,-3.89703c-2.03878,-3.24213 -7.28717,-8.01425 -2.80634,-9.19469c2.20464,-0.58081 8.73957,5.62854 11.0127,5.62854c0,0 3.80829,-0.01754 5.70018,0.08441c4.2897,0.23114 10.5935,-2.47257 10.5935,2.1154z" data-paper-data="{&quot;origPos&quot;:null}" fill="#160b02" stroke="none" stroke-width="0" stroke-linecap="butt"/><path d="M269.36737,124.13144c0,9.88537 -11.03409,3.80048 -26.30554,3.80048c-3.69718,0 -21.53088,4.57582 -25.67096,1.35486c-2.92262,-2.27378 -2.32629,-4.64778 -2.32629,-8.35535c0,-7.42474 9.66934,-13.62739 9.84287,-13.71054c5.48182,-2.62659 10.95662,-1.97633 17.03295,-1.97633c0,0 12.43874,-1.8163 19.6767,0.82488c8.19439,2.99018 7.75028,8.17661 7.75028,18.06198z" data-paper-data="{&quot;origPos&quot;:null}" fill="url(#color-9)" stroke="#158e0e" stroke-width="1" stroke-linecap="butt"/><path d="M269.0496,128.6768c0,3.48124 -11.46327,0.29318 -26.35564,0.29318c-14.89236,0 -27.57441,3.18806 -27.57441,-0.29318c0,-3.48124 12.07265,-6.30333 26.96502,-6.30333c14.89236,0 26.96502,2.8221 26.96502,6.30333z" data-paper-data="{&quot;origPos&quot;:null}" fill="url(#color-10)" stroke="#158e0e" stroke-width="1" stroke-linecap="butt"/><path d="M250.89926,117.49929c0,2.14526 0.31298,3.62537 -1.25453,4.98952c-1.35299,1.17745 -9.04403,0.86884 -10.32229,-0.07714c-1.82086,-1.34756 -1.08988,-2.56403 -1.08988,-4.91238c0,-3.50501 2.83555,-6.34641 6.33336,-6.34641c3.49782,0 6.33335,2.84139 6.33335,6.34641z" data-paper-data="{&quot;origPos&quot;:null}" fill="#ffffff" stroke="#a4a4a4" stroke-width="1" stroke-linecap="butt"/><path d="M232.45695,138.14649c0,0 3.57853,-0.58761 4.30266,-0.46124c1.29495,0.22598 3.53513,1.83418 3.53513,1.83418" data-paper-data="{&quot;origPos&quot;:null,&quot;origRot&quot;:0}" fill="none" stroke="#351c06" stroke-width="2" stroke-linecap="round"/><path d="M247.65811,139.04734c0,0 1.85754,-1.33351 2.93129,-1.52089c0.60044,-0.10479 3.56772,0.38246 3.56772,0.38246" data-paper-data="{&quot;origPos&quot;:null,&quot;origRot&quot;:0,&quot;index&quot;:null}" fill="none" stroke="#351c06" stroke-width="2" stroke-linecap="round"/><path d="M247.79913,121.10559l-4.53402,-0.22681l0.06825,-5.80712" data-paper-data="{&quot;origPos&quot;:null}" fill="none" stroke="#158e0e" stroke-width="1" stroke-linecap="round"/><path d="M231.944,160.88901c0,-4.58797 6.3038,-1.88426 10.5935,-2.1154c1.89189,-0.10195 5.70018,-0.08441 5.70018,-0.08441c2.27313,0 8.80806,-6.20935 11.0127,-5.62854c4.48083,1.18044 -0.76756,5.95256 -2.80634,9.19469c-0.644,1.02412 -2.26513,3.34432 -3.30943,3.89703c-1.4855,0.7862 -4.00869,1.0374 -5.64053,0.65409c-1.94684,-0.45731 -4.82459,-1.64777 -4.82459,-1.64777c0,0 -3.82697,2.61713 -5.99132,2.51586c-1.96101,-0.09175 -3.35815,-1.17001 -3.57684,-3.21584c-0.10298,-0.96331 -1.15734,-2.60036 -1.15734,-3.56971z" data-paper-data="{&quot;origPos&quot;:null,&quot;index&quot;:null}" fill="#160b02" stroke="none" stroke-width="0" stroke-linecap="butt"/><path d="M255.63059,151.04371c0,4.77499 -5.21052,8.90459 -11.95206,8.90459c-6.74152,0 -12.46119,-4.1296 -12.46119,-8.90459c0,-4.77499 5.46509,-8.64589 12.20662,-8.64589c6.74152,0 12.20662,3.87089 12.20662,8.64589z" data-paper-data="{&quot;origPos&quot;:null}" fill="url(#color-11)" stroke="#e0ce98" stroke-width="1.5" stroke-linecap="butt"/><path d="M247.92553,168.99346c0,0.9665 -3.27043,2.75 -4.375,2.75c-1.10457,0 -4.125,-2.1585 -4.125,-3.125c0,-0.9665 3.02043,-0.375 4.125,-0.375c1.10457,0 4.375,-0.2165 4.375,0.75z" data-paper-data="{&quot;origPos&quot;:null}" fill="#160b02" stroke="#160b02" stroke-width="1" stroke-linecap="butt"/><path d="M245.08993,171.31429c0,0.50626 -0.61561,0.91667 -1.375,0.91667c-0.75939,0 -1.375,-0.41041 -1.375,-0.91667c0,-0.50626 0.61561,-0.91667 1.375,-0.91667c0.75939,0 1.375,0.41041 1.375,0.91667z" data-paper-data="{&quot;origPos&quot;:null}" fill="#ff0000" stroke="none" stroke-width="0" stroke-linecap="butt"/></g><path d="M218.0263,167.6704c-1.90694,-9.61969 -0.57615,-17.94084 2.9724,-18.58578c3.54856,-0.64496 7.97111,6.63052 9.87808,16.25021c1.90694,9.61969 0.57615,17.94084 -2.9724,18.58578c-3.54856,0.64496 -7.97111,-6.63052 -9.87808,-16.25021z" data-paper-data="{&quot;origRot&quot;:0,&quot;origPos&quot;:null}" fill="url(#color-12)" stroke="#158e0e" stroke-width="1.5" stroke-linecap="butt"/><path d="M212.27402,145.8118c0.61424,-1.98658 2.19881,-1.0327 2.96416,-2.9661c0.46859,-1.18372 0.61796,-9.26631 0.61796,-9.26631l2.55784,-0.4679l2.68298,8.23946c0,0 1.42219,0.5738 2.67804,0.54095c0.00584,-0.00015 3.18208,-8.28452 3.18208,-8.28452l2.14715,0.50495c0,0 0.27324,7.54109 0.6009,10.10549c0.12846,1.00537 2.03218,1.31049 2.13342,2.31896c0.48593,4.84022 0.08979,6.78345 -3.86871,9.61085c-4.71824,3.37006 -11.21679,2.55359 -14.51491,-1.82364c0,0 -2.70344,-3.58799 -1.18091,-8.51218z" data-paper-data="{&quot;origPos&quot;:null,&quot;origRot&quot;:0}" fill="#ffffff" stroke="#bfbfbf" stroke-width="1.5" stroke-linecap="butt"/></g></g></svg>