<svg version="1.1" xmlns="http://www.w3.org/2000/svg" xmlns:xlink="http://www.w3.org/1999/xlink" width="400.10074" height="248.50004" viewBox="0,0,400.10074,248.50004"><defs><linearGradient x1="68.99801" y1="247.00005" x2="68.99801" y2="286.29147" gradientUnits="userSpaceOnUse" id="color-1"><stop offset="0" stop-color="#17ff22"/><stop offset="1" stop-color="#02d10c"/></linearGradient><linearGradient x1="322.99801" y1="125.00005" x2="322.99801" y2="164.29147" gradientUnits="userSpaceOnUse" id="color-2"><stop offset="0" stop-color="#17ff22"/><stop offset="1" stop-color="#02d10c"/></linearGradient></defs><g transform="translate(4.05236,-123.50007)"><g data-paper-data="{&quot;isPaintingLayer&quot;:true}" fill-rule="nonzero" stroke-linejoin="miter" stroke-miterlimit="10" stroke-dasharray="" stroke-dashoffset="0" style="mix-blend-mode: normal"><path d="M-3,372.00011v-102h143.13056v102z" fill="#98763d" stroke="none" stroke-width="0" stroke-linecap="butt"/><path d="M34.2417,329.31937l-10.71313,-30.22247l7.31103,-8.85347l20.3713,36.437l1.40907,16.91365z" data-paper-data="{&quot;index&quot;:null}" fill="#774b00" stroke="#703100" stroke-width="2" stroke-linecap="round"/><path d="M-2.55236,273.89333v-26.89326h143.10074v26.89326l-7.98404,1.75726l-12.99985,10.64086l-12.6422,-11.9986l-12.03407,10.37815l-12.0413,-10.67969l-12.82875,8.22474l-11.941,-9.40523l-17.00875,12.49333l-12.6216,-13.2091l-16.6211,10.7627z" fill="url(#color-1)" stroke="#08a310" stroke-width="3" stroke-linecap="butt"/><path d="M81.39265,325.58434l-8.37104,-6.99066l11.26302,-19.70287l19.87773,-4.1681l-1.3351,11.66131z" data-paper-data="{&quot;index&quot;:null}" fill="#774b00" stroke="#703100" stroke-width="2" stroke-linecap="round"/><path d="M251,371.18761v-223.1875h143.13056v223.1875z" fill="#98763d" stroke="none" stroke-width="0" stroke-linecap="butt"/><path d="M280.24169,226.31937l-10.71313,-30.22247l7.31103,-8.85347l20.3713,36.437l1.40907,16.91365z" data-paper-data="{&quot;index&quot;:null}" fill="#774b00" stroke="#703100" stroke-width="2" stroke-linecap="round"/><path d="M251.44764,151.89333v-26.89326h143.10074v26.89326l-7.98404,1.75726l-12.99985,10.64086l-12.6422,-11.9986l-12.03407,10.37815l-12.0413,-10.67969l-12.82875,8.22474l-11.941,-9.40523l-17.00875,12.49333l-12.6216,-13.2091l-16.6211,10.7627z" fill="url(#color-2)" stroke="#08a310" stroke-width="3" stroke-linecap="butt"/><path d="M310.39265,304.58434l-8.37104,-6.99066l11.26302,-19.70287l19.87773,-4.1681l-1.3351,11.66131z" data-paper-data="{&quot;index&quot;:null}" fill="#774b00" stroke="#703100" stroke-width="2" stroke-linecap="round"/><path d="M332.06547,216.61979l15.93651,-5.86134l26.62824,16.70021l-3.54598,20.20666l-18.55717,-4.80341z" data-paper-data="{&quot;index&quot;:null}" fill="#774b00" stroke="#703100" stroke-width="2" stroke-linecap="round"/></g></g></svg>