<svg version="1.1" xmlns="http://www.w3.org/2000/svg" xmlns:xlink="http://www.w3.org/1999/xlink" width="487.04837" height="185.18761" viewBox="0,0,487.04837,185.18761"><defs><linearGradient x1="286.01503" y1="182.00006" x2="286.01503" y2="223.26675" gradientUnits="userSpaceOnUse" id="color-1"><stop offset="0" stop-color="#17ff22"/><stop offset="1" stop-color="#02d10c"/></linearGradient><linearGradient x1="240.53125" y1="295.00005" x2="240.53125" y2="334.29147" gradientUnits="userSpaceOnUse" id="color-2"><stop offset="0" stop-color="#17ff22"/><stop offset="1" stop-color="#02d10c"/></linearGradient><linearGradient x1="419.95463" y1="197.8125" x2="419.95463" y2="292.8125" gradientUnits="userSpaceOnUse" id="color-3"><stop offset="0" stop-color="#63ba4a"/><stop offset="1" stop-color="#4b8e39"/></linearGradient><linearGradient x1="421.45313" y1="181.8125" x2="421.45313" y2="204.8125" gradientUnits="userSpaceOnUse" id="color-4"><stop offset="0" stop-color="#63ba4a"/><stop offset="1" stop-color="#4b8e39"/></linearGradient></defs><g transform="translate(3,-179.8125)"><g data-paper-data="{&quot;isPaintingLayer&quot;:true}" fill-rule="nonzero" stroke-linejoin="miter" stroke-miterlimit="10" stroke-dasharray="" stroke-dashoffset="0" style="mix-blend-mode: normal"><path d="M201,310.00011v-120.01427h169.00813v120.01427z" fill="#98763d" stroke="none" stroke-width="0" stroke-linecap="butt"/><path d="M256.06125,235.66308l18.68146,22.32335l-8.65783,21.58961l-32.60443,-16.1759l-4.25277,-19.09876z" data-paper-data="{&quot;index&quot;:null}" fill="#774b00" stroke="#703100" stroke-width="2" stroke-linecap="round"/><path d="M323.79245,254.99559l12.42303,-21.10308l16.93729,-2.14991l-5.48984,28.31916l-12.78914,10.04032z" data-paper-data="{&quot;index&quot;:null}" fill="#774b00" stroke="#703100" stroke-width="2" stroke-linecap="round"/><path d="M201.52857,210.24534v-28.24526h168.97293v28.24526l-9.42753,1.8456l-15.35018,11.1758l-14.92787,-12.6018l-14.20979,10.89989l-14.21833,-11.21659l-15.14816,8.63822l-14.09989,-9.87806l-20.08388,13.1214l-14.90355,-13.87316l-19.62615,11.30377z" fill="url(#color-1)" stroke="#08a310" stroke-width="3" stroke-linecap="butt"/><path d="M-3,365.00011v-47h484.1351v47z" fill="#98763d" stroke="none" stroke-width="0" stroke-linecap="butt"/><path d="M-1.48588,321.89333v-26.89326h484.03426v26.89326l-27.00578,1.75726l-43.97163,10.64086l-42.7619,-11.9986l-40.7049,10.37815l-40.72936,-10.67969l-43.3929,8.22474l-40.39009,-9.40523l-57.53162,12.49333l-42.69222,-13.2091l-56.22042,10.7627z" fill="url(#color-2)" stroke="#08a310" stroke-width="3" stroke-linecap="butt"/><path d="M239.71646,328.13819l11.83901,18.01465l-0.24675,16.26774l-16.92389,-13.87762l-4.99504,-14.90558z" data-paper-data="{&quot;index&quot;:null}" fill="#774b00" stroke="#703100" stroke-width="2" stroke-linecap="round"/><path d="M44.40041,347.34629l-8.87184,-13.22785l6.05447,-3.87501l16.87004,15.94784l1.16689,7.40281z" data-paper-data="{&quot;index&quot;:null}" fill="#774b00" stroke="#703100" stroke-width="2" stroke-linecap="round"/><path d="M133.91212,356.94539l-4.82531,-3.22167l6.49233,-9.08013l11.4581,-1.92088l-0.76959,5.37415z" data-paper-data="{&quot;index&quot;:null}" fill="#774b00" stroke="#703100" stroke-width="2" stroke-linecap="round"/><path d="M382.98471,340.64029l32.29784,-1.89717l23.81362,6.44201l-28.69929,7.27995l-24.37452,-2.00971z" data-paper-data="{&quot;index&quot;:null}" fill="#774b00" stroke="#703100" stroke-width="2" stroke-linecap="round"/><path d="M316.18179,338.36506l11.22505,10.0917l-2.46597,9.05432l-17.63868,-7.81609l-3.75631,-8.32422z" data-paper-data="{&quot;index&quot;:null}" fill="#774b00" stroke="#703100" stroke-width="2" stroke-linecap="round"/><path d="M388.95463,292.8125v-95h62v95z" fill="url(#color-3)" stroke="#4b8e39" stroke-width="4" stroke-linecap="butt"/><path d="M377.45313,204.8125v-23h88v23z" fill="url(#color-4)" stroke="#4b8e39" stroke-width="4" stroke-linecap="butt"/></g></g></svg>