<svg version="1.1" xmlns="http://www.w3.org/2000/svg" xmlns:xlink="http://www.w3.org/1999/xlink" width="257.9676" height="153.15417" viewBox="0,0,257.9676,153.15417"><defs><linearGradient x1="350.61039" y1="174.90801" x2="350.61039" y2="206.14354" gradientUnits="userSpaceOnUse" id="color-1"><stop offset="0" stop-color="#d21515"/><stop offset="1" stop-color="#940000"/></linearGradient><linearGradient x1="336.831" y1="214.08723" x2="336.831" y2="249.73803" gradientUnits="userSpaceOnUse" id="color-2"><stop offset="0" stop-color="#364ec7"/><stop offset="1" stop-color="#001371"/></linearGradient><linearGradient x1="334.54124" y1="243.7023" x2="334.54124" y2="258.68518" gradientUnits="userSpaceOnUse" id="color-3"><stop offset="0" stop-color="#a6680a"/><stop offset="1" stop-color="#6c4306"/></linearGradient><linearGradient x1="330.07517" y1="163.86223" x2="330.07517" y2="222.27298" gradientUnits="userSpaceOnUse" id="color-4"><stop offset="0" stop-color="#364ec7"/><stop offset="1" stop-color="#001371"/></linearGradient><linearGradient x1="331.66483" y1="169.10466" x2="331.66483" y2="189.35287" gradientUnits="userSpaceOnUse" id="color-5"><stop offset="0" stop-color="#d21515"/><stop offset="1" stop-color="#940000"/></linearGradient><linearGradient x1="330.51095" y1="129.34421" x2="330.51095" y2="179.28194" gradientUnits="userSpaceOnUse" id="color-6"><stop offset="0" stop-color="#ffefc0"/><stop offset="1" stop-color="#e0ce98"/></linearGradient><linearGradient x1="330.63481" y1="110.66052" x2="330.63481" y2="144.11796" gradientUnits="userSpaceOnUse" id="color-7"><stop offset="0" stop-color="#d21515"/><stop offset="1" stop-color="#940000"/></linearGradient><linearGradient x1="348.24889" y1="130.78249" x2="348.24889" y2="138.34385" gradientUnits="userSpaceOnUse" id="color-8"><stop offset="0" stop-color="#d21515"/><stop offset="1" stop-color="#940000"/></linearGradient><linearGradient x1="356.99924" y1="151.61785" x2="356.99924" y2="168.10499" gradientUnits="userSpaceOnUse" id="color-9"><stop offset="0" stop-color="#ffefc0"/><stop offset="1" stop-color="#e0ce98"/></linearGradient><linearGradient x1="307.75291" y1="144.05527" x2="307.75291" y2="155.20853" gradientUnits="userSpaceOnUse" id="color-10"><stop offset="0" stop-color="#ffefc0"/><stop offset="1" stop-color="#e0ce98"/></linearGradient><linearGradient x1="320.98411" y1="214.51774" x2="320.98411" y2="248.86691" gradientUnits="userSpaceOnUse" id="color-11"><stop offset="0" stop-color="#364ec7"/><stop offset="1" stop-color="#001371"/></linearGradient><linearGradient x1="328.20274" y1="240.64336" x2="328.20274" y2="256.138" gradientUnits="userSpaceOnUse" id="color-12"><stop offset="0" stop-color="#a6680a"/><stop offset="1" stop-color="#6c4306"/></linearGradient><linearGradient x1="309.87409" y1="174.88286" x2="309.87409" y2="206.70127" gradientUnits="userSpaceOnUse" id="color-13"><stop offset="0" stop-color="#d21515"/><stop offset="1" stop-color="#940000"/></linearGradient><linearGradient x1="169.92579" y1="171.14917" x2="166.42848" y2="200.44181" gradientUnits="userSpaceOnUse" id="color-14"><stop offset="0" stop-color="#20de16"/><stop offset="1" stop-color="#158e0e"/></linearGradient><linearGradient x1="162.61825" y1="215.03992" x2="154.07304" y2="249.08581" gradientUnits="userSpaceOnUse" id="color-15"><stop offset="0" stop-color="#364ec7"/><stop offset="1" stop-color="#001371"/></linearGradient><linearGradient x1="159.04405" y1="243.71952" x2="155.81604" y2="256.58062" gradientUnits="userSpaceOnUse" id="color-16"><stop offset="0" stop-color="#a6680a"/><stop offset="1" stop-color="#6c4205"/></linearGradient><linearGradient x1="151.07231" y1="165.03963" x2="151.07231" y2="222.49886" gradientUnits="userSpaceOnUse" id="color-17"><stop offset="0" stop-color="#364ec7"/><stop offset="1" stop-color="#001371"/></linearGradient><linearGradient x1="152.5126" y1="169.15324" x2="152.5126" y2="189.46897" gradientUnits="userSpaceOnUse" id="color-18"><stop offset="0" stop-color="#20de16"/><stop offset="1" stop-color="#158e0e"/></linearGradient><linearGradient x1="140.62944" y1="214.60808" x2="151.46646" y2="247.73943" gradientUnits="userSpaceOnUse" id="color-19"><stop offset="0" stop-color="#364ec7"/><stop offset="1" stop-color="#001371"/></linearGradient><linearGradient x1="149.9982" y1="242.9962" x2="154.00795" y2="255.25495" gradientUnits="userSpaceOnUse" id="color-20"><stop offset="0" stop-color="#a6680a"/><stop offset="1" stop-color="#6c4205"/></linearGradient><linearGradient x1="128.98389" y1="170.94347" x2="137.08532" y2="197.65166" gradientUnits="userSpaceOnUse" id="color-21"><stop offset="0" stop-color="#20de16"/><stop offset="1" stop-color="#158e0e"/></linearGradient><linearGradient x1="152.3245" y1="122.87548" x2="152.3245" y2="174.3988" gradientUnits="userSpaceOnUse" id="color-22"><stop offset="0" stop-color="#ffefc0"/><stop offset="1" stop-color="#e0ce98"/></linearGradient><linearGradient x1="151.28018" y1="106.50885" x2="151.28018" y2="137.96922" gradientUnits="userSpaceOnUse" id="color-23"><stop offset="0" stop-color="#20de16"/><stop offset="1" stop-color="#158e0e"/></linearGradient><linearGradient x1="165.24265" y1="125.15135" x2="165.24265" y2="132.87649" gradientUnits="userSpaceOnUse" id="color-24"><stop offset="0" stop-color="#20de16"/><stop offset="1" stop-color="#158e0e"/></linearGradient><linearGradient x1="175.78202" y1="145.63154" x2="175.78202" y2="162.72778" gradientUnits="userSpaceOnUse" id="color-25"><stop offset="0" stop-color="#ffefc0"/><stop offset="1" stop-color="#e0ce98"/></linearGradient></defs><g transform="translate(-114.90572,-106.00884)"><g data-paper-data="{&quot;isPaintingLayer&quot;:true}" fill-rule="nonzero" stroke-linejoin="miter" stroke-miterlimit="10" stroke-dasharray="" stroke-dashoffset="0" style="mix-blend-mode: normal"><path d="" data-paper-data="{&quot;origPos&quot;:null}" fill="#c1770b" stroke="#6c4306" stroke-width="1.5" stroke-linecap="butt"/><g data-paper-data="{&quot;origPos&quot;:null,&quot;origRot&quot;:0}" stroke-width="1.5" stroke-linecap="butt"><path d="M342.64286,175.18228c3.16699,-1.60101 9.30155,3.97065 13.70189,12.44463c4.40035,8.47399 5.40018,16.64134 2.23318,18.24236c-3.16701,1.601 -9.30157,-3.97064 -13.7019,-12.44462c-4.40035,-8.47399 -5.40018,-16.64137 -2.23317,-18.24236z" data-paper-data="{&quot;origRot&quot;:0,&quot;origPos&quot;:null,&quot;index&quot;:null}" fill="url(#color-1)" stroke="#940000"/><path d="M361.05468,198.7033c5.48281,1.16798 8.93691,6.64173 7.71497,12.22594c-1.22195,5.58422 -6.65722,9.16428 -12.14004,7.9963c-5.48279,-1.16798 -8.93691,-6.64173 -7.71497,-12.22594c1.22195,-5.58422 6.65723,-9.16428 12.14004,-7.9963z" data-paper-data="{&quot;origPos&quot;:null,&quot;index&quot;:null}" fill="#ffffff" stroke="#bfbfbf"/></g><g data-paper-data="{&quot;origPos&quot;:null,&quot;origRot&quot;:0}" stroke-width="1.5" stroke-linecap="butt"><path d="M346.36709,233.28675c-0.56668,3.40433 -3.07216,8.95597 -4.45506,12.12455c-1.98882,4.5569 -4.00474,4.79343 -9.1014,3.93222c-5.11938,-0.86504 -6.75225,-0.69192 -7.14888,-5.67589c-0.2728,-3.42804 3.72009,-9.77331 4.28314,-13.15581c1.66266,-9.98844 0.90831,-17.14471 5.5122,-16.36677c0,0 7.26959,1.80395 8.22439,3.78377c0,0 3.71977,-0.92418 4.14363,2.18337c0.42679,3.12906 0.20464,3.18611 -1.45803,13.17456z" data-paper-data="{&quot;origPos&quot;:null,&quot;origRot&quot;:0}" fill="url(#color-2)" stroke="#001371"/><path d="M344.75915,250.0839c3.85569,4.40084 0.71178,7.514 -2.12346,8.32911c-3.43327,0.98706 -12.89155,-0.80875 -17.30882,-3.80353c-4.41726,-2.99478 -2.34714,-3.5982 -2.08048,-5.36244c0.59286,-3.92251 4.2241,-6.52992 11.60394,-5.18914c7.37985,1.34078 6.05315,1.62515 9.90884,6.02599z" data-paper-data="{&quot;origPos&quot;:null,&quot;origRot&quot;:0}" fill="url(#color-3)" stroke="#6c4306"/></g><g data-paper-data="{&quot;origPos&quot;:null}" stroke-linecap="butt"><path d="M348.9692,193.73334c0,9.14022 2.84091,17.99523 -2.69239,24.98019c-3.54659,4.47704 -10.70286,3.46026 -16.20164,3.46026c-5.49877,0 -12.65505,0.72783 -16.20165,-3.74919c-5.5333,-6.98495 -2.69238,-15.55103 -2.69238,-24.69124c0,-15.70723 8.45914,-28.44044 18.89403,-28.44044c0,0 11.73737,-4.34209 15.22571,2.10263c3.4719,6.41435 3.66832,10.63058 3.66832,26.3378z" data-paper-data="{&quot;origPos&quot;:null}" fill="url(#color-4)" stroke="#001371" stroke-width="1.5"/><path d="M339.05212,177.62733c0,2.65273 1.31009,7.03165 -0.34219,8.85862c-1.7848,1.97349 -3.67346,2.88093 -6.1351,2.86675c-2.72608,-0.01571 -4.60612,-0.98881 -6.88148,-2.73658c-2.33853,-1.79628 -1.87025,-5.7274 -1.87025,-8.98879c0,-4.70694 3.40914,-8.52268 7.61452,-8.52268c4.20537,0 7.61451,3.81574 7.61451,8.52268z" data-paper-data="{&quot;origPos&quot;:null}" fill="url(#color-5)" stroke="none" stroke-width="0"/><path d="M324.41458,185.67415c0,2.20387 -1.96162,3.99048 -4.38142,3.99048c-2.4198,0 -4.38143,-1.7866 -4.38143,-3.99048c0,-2.20387 1.96163,-3.99047 4.38143,-3.99047c2.4198,0 4.38142,1.7866 4.38142,3.99047z" data-paper-data="{&quot;origPos&quot;:null}" fill="#faff66" stroke="none" stroke-width="1.5"/><path d="M347.91589,185.12683c0,2.1496 -1.9133,3.89218 -4.2735,3.89218c-2.36019,0 -4.2735,-1.74258 -4.2735,-3.89218c0,-2.1496 1.91331,-3.89218 4.2735,-3.89218c2.36019,0 4.2735,1.74258 4.2735,3.89218z" data-paper-data="{&quot;origPos&quot;:null}" fill="#faff66" stroke="none" stroke-width="1.5"/></g><g data-paper-data="{&quot;origPos&quot;:null}"><path d="M360.6324,155.38163c0,13.19976 -13.73475,23.90031 -28.56379,23.90031c-14.82904,0 -31.67913,-10.86026 -31.67913,-24.06004c0,-4.77744 0.68944,-16.81429 3.19789,-20.84009c5.78078,-9.27756 17.74496,-2.90048 28.48124,-2.90048c0,0 17.47791,-4.01625 23.38966,4.80857c2.80538,4.18775 5.17415,5.89196 5.17415,19.09174z" data-paper-data="{&quot;origPos&quot;:null}" fill="url(#color-6)" stroke="#e0ce98" stroke-width="1" stroke-linecap="butt"/><path d="M358.50909,128.61758c8.09723,14.03788 -29.33424,10.68778 -31.98263,12.52726c-2.60107,1.80661 -0.81879,7.32938 -3.96033,7.32938c-4.40313,0 -9.25612,0.70465 -10.46658,5.04595c-0.70052,2.51243 2.60132,7.40048 0.13667,8.0642c-2.42796,0.65385 -4.70501,2.61654 -7.21096,2.76755c-2.03236,0.12247 -2.35905,-1.87082 -4.39469,-1.9019c-5.79716,-0.08852 0.78824,-11.80702 0.9253,-12.42156c0.04568,-0.20484 -1.20602,-4.38973 -1.20602,-6.42253c0,-11.02537 10.77902,-16.88831 17.8548,-16.88831c7.07578,0 32.2072,-12.13792 40.30444,1.89996z" data-paper-data="{&quot;origPos&quot;:null}" fill="#5a3413" stroke="#351c06" stroke-width="1" stroke-linecap="butt"/><path d="M357.91427,167.66706c0,0.92424 -1.03545,2.23845 -1.13658,3.15694c-0.21477,1.95063 -1.58685,2.97872 -3.51269,3.06619c-2.12553,0.09656 -3.01604,-2.01602 -5.14035,-2.13733c-1.47465,-0.08423 -1.53991,1.72269 -3.01688,1.72269c-1.60871,0 -1.59206,-1.45491 -3.17663,-1.73748c-2.16384,-0.38587 -2.86624,1.70851 -4.82742,0.70077c-1.02557,-0.52699 -2.61762,-2.73922 -3.25007,-3.71569c-2.00221,-3.09126 -6.90647,-7.14799 -2.50601,-8.2735c2.1651,-0.55378 8.33282,5.11996 10.56518,5.11996c0,0 3.73999,-0.01672 5.59794,0.08048c4.21276,0.22038 10.4035,-2.35751 10.4035,2.01697z" data-paper-data="{&quot;origPos&quot;:null}" fill="#5a3413" stroke="#351c06" stroke-width="1" stroke-linecap="butt"/><path d="M361.87853,131.05279c0,10.08978 -12.29169,3.87907 -29.30368,3.87907c-4.11857,0 -9.56963,8.32062 -13.688,8.28387c-5.83861,-0.05208 -13.19319,2.51063 -17.80513,-0.77693c-3.25572,-2.3208 -0.80907,-7.60179 -0.80907,-11.38602c0,-8.54925 9.69318,-8.67279 18.09413,-12.36097c6.1066,-2.68091 5.93994,-7.40978 12.70881,-7.40978c0,0 13.85643,-1.85385 21.91934,0.84194c9.12834,3.05201 8.8836,8.83902 8.8836,18.92881z" data-paper-data="{&quot;origPos&quot;:null}" fill="url(#color-7)" stroke="#940000" stroke-width="1" stroke-linecap="butt"/><path d="M372.37333,136.7925c0,3.31924 -10.25569,0.27953 -23.57925,0.27953c-13.32355,0 -24.66962,3.03971 -24.66962,-0.27953c0,-3.31924 10.80087,-6.01002 24.12443,-6.01002c13.32355,0 24.12443,2.69077 24.12443,6.01002z" data-paper-data="{&quot;origPos&quot;:null}" fill="url(#color-8)" stroke="#940000" stroke-width="1" stroke-linecap="butt"/><path d="M356.48394,124.81354c0,2.04543 0.30737,3.45668 -1.23203,4.75734c-1.32872,1.12266 -8.88182,0.82842 -10.13715,-0.07356c-1.7882,-1.28485 -1.07033,-2.44472 -1.07033,-4.68379c0,-3.34192 2.78469,-6.05109 6.21977,-6.05109c3.43508,0 6.21976,2.70918 6.21976,6.05109z" data-paper-data="{&quot;origPos&quot;:null}" fill="#ffffff" stroke="#a4a4a4" stroke-width="1" stroke-linecap="butt"/><path d="M348.88145,149.31366c0,3.94667 -2.08558,7.14608 -4.65827,7.14608c-2.57269,0 -4.65827,-3.19941 -4.65827,-7.14608c0,-3.94667 2.08558,-7.14609 4.65827,-7.14609c2.57269,0 4.65827,3.19941 4.65827,7.14609z" data-paper-data="{&quot;origPos&quot;:null}" fill="#ffffff" stroke="none" stroke-width="0" stroke-linecap="butt"/><path d="M346.59388,127.66766l1.71344,-5.27124l2.02498,3.51416l1.55767,-3.67389l2.3365,4.95178" data-paper-data="{&quot;origPos&quot;:null}" fill="none" stroke="#ba0000" stroke-width="1" stroke-linecap="round"/><path d="M340.53295,141.46216c0,0 3.51435,-0.56027 4.22549,-0.43978c1.27172,0.21547 3.47173,1.74883 3.47173,1.74883" data-paper-data="{&quot;origPos&quot;:null,&quot;origRot&quot;:0}" fill="none" stroke="#351c06" stroke-width="1.5" stroke-linecap="round"/><path d="M348.90994,149.00663c0,2.61923 -1.3841,4.74252 -3.09148,4.74252c-1.70738,0 -3.09148,-2.12331 -3.09148,-4.74252c0,-2.61923 1.38411,-4.74252 3.09148,-4.74252c1.70738,0 3.09148,2.12331 3.09148,4.74252z" data-paper-data="{&quot;origPos&quot;:null}" fill="#1121d4" stroke="none" stroke-width="0" stroke-linecap="butt"/><path d="M348.97722,148.8689c0,1.35441 -0.71572,2.45237 -1.59861,2.45237c-0.8829,0 -1.59861,-1.09797 -1.59861,-2.45237c0,-1.35441 0.71573,-2.45237 1.59861,-2.45237c0.8829,0 1.59861,1.09797 1.59861,2.45237z" data-paper-data="{&quot;origPos&quot;:null}" fill="#000000" stroke="none" stroke-width="0" stroke-linecap="butt"/><path d="M355.16295,141.5486c2.13325,0 3.8626,2.65291 3.8626,5.92544c0,3.27253 -1.72934,5.92544 -3.8626,5.92544c-2.13325,0 -3.8626,-2.65291 -3.8626,-5.92544c0,-3.27253 1.72934,-5.92544 3.8626,-5.92544z" data-paper-data="{&quot;origPos&quot;:null,&quot;index&quot;:null}" fill="#ffffff" stroke="none" stroke-width="0" stroke-linecap="butt"/><path d="M352.17604,141.9571c0,0 1.82422,-1.27145 2.87872,-1.45012c0.58967,-0.09991 3.50373,0.36466 3.50373,0.36466" data-paper-data="{&quot;origPos&quot;:null,&quot;origRot&quot;:0,&quot;index&quot;:null}" fill="none" stroke="#351c06" stroke-width="1.5" stroke-linecap="round"/><path d="M356.58257,143.4029c1.41573,0 2.56343,1.76062 2.56343,3.93244c0,2.17183 -1.14768,3.93244 -2.56343,3.93244c-1.41573,0 -2.56342,-1.76062 -2.56342,-3.93244c0,-2.17183 1.14768,-3.93244 2.56342,-3.93244z" data-paper-data="{&quot;origPos&quot;:null,&quot;index&quot;:null}" fill="#1121d4" stroke="none" stroke-width="0" stroke-linecap="butt"/><path d="M357.92058,145.30821c0.73209,0 1.32555,0.91042 1.32555,2.03348c0,1.12307 -0.59347,2.03348 -1.32555,2.03348c-0.73209,0 -1.32554,-0.91042 -1.32554,-2.03348c0,-1.12307 0.59347,-2.03348 1.32554,-2.03348z" data-paper-data="{&quot;origPos&quot;:null,&quot;index&quot;:null}" fill="#000000" stroke="none" stroke-width="0" stroke-linecap="butt"/><path d="M368.98693,159.86142c0,4.5528 -5.36707,8.24357 -11.98769,8.24357c-6.62061,0 -11.98769,-3.69076 -11.98769,-8.24357c0,-4.5528 5.36707,-8.24357 11.98769,-8.24357c6.62061,0 11.98769,3.69076 11.98769,8.24357z" data-paper-data="{&quot;origPos&quot;:null}" fill="url(#color-9)" stroke="#e0ce98" stroke-width="1.5" stroke-linecap="butt"/><path d="M314.73522,152.01862c-0.90455,2.78275 -4.76391,3.97006 -8.62013,2.65191c-3.85623,-1.31815 -6.24902,-4.64258 -5.34448,-7.42534c0.90455,-2.78275 4.76391,-3.97006 8.62013,-2.65191c3.85623,1.31815 6.24902,4.64258 5.34448,7.42534z" data-paper-data="{&quot;origRot&quot;:0,&quot;origPos&quot;:null}" fill="url(#color-10)" stroke="#e0ce98" stroke-width="1.5" stroke-linecap="butt"/></g><g data-paper-data="{&quot;origPos&quot;:null,&quot;origRot&quot;:0}" stroke-width="1.5" stroke-linecap="butt"><path d="M330.53657,228.00314c0.83611,3.30044 0.74598,9.30888 0.73781,12.7195c-0.01173,4.90501 -1.77053,5.91703 -6.79881,7.15712c-5.05069,1.24562 -6.48266,2.04865 -8.83394,-2.29764c-1.61723,-2.98944 -0.47617,-10.30396 -1.30692,-13.58323c-2.45317,-9.68361 -5.99919,-15.85106 -1.45707,-16.97126c0,0 7.40148,-1.24872 9.06835,0.16209c4.80616,4.06783 6.1374,3.1298 8.59057,12.81343z" data-paper-data="{&quot;origPos&quot;:null}" fill="url(#color-11)" stroke="#001371"/><path d="M336.85413,243.23354c5.42171,2.60504 3.70733,6.95297 1.35665,8.94988c-2.8465,2.4181 -12.51175,4.71929 -17.89641,3.71175c-5.38465,-1.00753 -3.67167,-2.47355 -4.13212,-4.29112c-1.02375,-4.04113 1.35548,-8.10854 8.87241,-9.9624c7.51693,-1.85384 6.37777,-1.01315 11.79947,1.5919z" data-paper-data="{&quot;origPos&quot;:null}" fill="url(#color-12)" stroke="#6c4306"/></g><g data-paper-data="{&quot;origPos&quot;:null,&quot;origRot&quot;:0}" stroke-width="1.5" stroke-linecap="butt"><path d="M315.72912,193.54592c-4.18024,8.65228 -10.19037,14.43341 -13.424,12.9125c-3.23364,-1.52089 -2.46626,-9.7679 1.71395,-18.42021c4.18024,-8.65228 10.19037,-14.43341 13.424,-12.9125c3.23364,1.52089 2.46626,9.7679 -1.71395,18.42021z" data-paper-data="{&quot;origRot&quot;:0,&quot;origPos&quot;:null}" fill="url(#color-13)" stroke="#940000"/><path d="M312.05323,207.01899c1.39283,5.58444 -1.92292,11.19076 -7.40595,12.52207c-5.48302,1.33132 -11.05699,-2.11652 -12.44981,-7.70095c-1.39283,-5.58444 1.92292,-11.19076 7.40595,-12.52207c5.48302,-1.33132 11.05699,2.11652 12.44981,7.70095z" data-paper-data="{&quot;origPos&quot;:null,&quot;origRot&quot;:0}" fill="#ffffff" stroke="#bfbfbf"/></g><path d="M161.02206,170.59078c2.88224,-1.66956 8.42221,3.78438 12.37385,12.1817c3.95164,8.39732 4.81856,16.55814 1.93631,18.2277c-2.88225,1.66955 -8.42222,-3.78437 -12.37384,-12.18169c-3.95165,-8.39732 -4.81856,-16.55817 -1.9363,-18.2277z" data-paper-data="{&quot;origRot&quot;:0,&quot;origPos&quot;:null,&quot;index&quot;:null}" fill="url(#color-14)" stroke="#158e0e" stroke-width="1.5" stroke-linecap="butt"/><path d="M180.11802,194.05384c5.49179,1.11524 8.98364,6.57027 7.79928,12.18417c-1.18438,5.61391 -6.59647,9.2608 -12.08827,8.14557c-5.49177,-1.11524 -8.98364,-6.57027 -7.79927,-12.18417c1.18438,-5.61391 6.59648,-9.2608 12.08827,-8.14557z" data-paper-data="{&quot;origPos&quot;:null,&quot;index&quot;:null,&quot;origRot&quot;:0}" fill="#ffffff" stroke="#bfbfbf" stroke-width="1.5" stroke-linecap="butt"/><path d="M165.93462,231.67934c-0.50686,3.41558 -2.60665,9.1373 -3.76717,12.39842c-1.66901,4.69 -3.29563,5.11695 -7.38635,4.75561c-4.10896,-0.36295 -5.42622,-0.03534 -5.67146,-4.91814c-0.16868,-3.35846 3.14047,-10.00644 3.64408,-13.40012c1.48716,-10.02146 0.98618,-17.01473 4.68139,-16.68834c0,0 5.82621,1.08366 6.56553,2.94679c0,0 3.00867,-1.26935 3.30375,1.75819c0.29711,3.0485 0.1174,3.12613 -1.36976,13.14759z" data-paper-data="{&quot;origPos&quot;:null,&quot;origRot&quot;:0}" fill="url(#color-15)" stroke="#001371" stroke-width="1.5" stroke-linecap="butt"/><path d="M165.92127,248.60354c3.48431,3.91122 0.78251,7.04837 -1.69544,7.99669c-3.00061,1.14836 -11.36082,0.04967 -15.31007,-2.49881c-3.94924,-2.54847 -2.14016,-3.24869 -1.94219,-4.93095c0.44017,-3.74028 3.58131,-6.43075 10.10313,-5.63052c6.52181,0.80022 5.36029,1.15235 8.84459,5.06358z" data-paper-data="{&quot;origPos&quot;:null,&quot;origRot&quot;:0}" fill="url(#color-16)" stroke="#6c4306" stroke-width="1.5" stroke-linecap="butt"/><path d="M168.19094,193.86404c0,9.1707 2.57396,18.05523 -2.43939,25.06348c-3.21333,4.49197 -9.69716,3.47179 -14.67924,3.47179c-4.98207,0 -11.4659,0.73026 -14.67924,-3.76169c-5.01335,-7.00824 -2.43939,-15.60288 -2.43939,-24.77357c0,-15.7596 7.66426,-28.78276 17.11863,-28.78276c0,0 9.72842,-0.89172 12.88897,5.5745c3.14566,6.43574 4.22966,7.44866 4.22966,23.20826z" data-paper-data="{&quot;origPos&quot;:null}" fill="url(#color-17)" stroke="#001371" stroke-width="1.5" stroke-linecap="butt"/><path d="M159.20573,177.70434c0,2.66157 1.18698,7.0551 -0.31003,8.88816c-1.61709,1.98007 -3.32827,2.89053 -5.5586,2.87631c-2.46992,-0.01576 -4.1733,-0.99211 -6.23486,-2.7457c-2.11879,-1.80227 -1.69451,-5.7465 -1.69451,-9.01876c0,-4.72264 3.0888,-8.5511 6.89902,-8.5511c3.8102,0 6.899,3.82847 6.899,8.5511z" data-paper-data="{&quot;origPos&quot;:null}" fill="url(#color-18)" stroke="none" stroke-width="0" stroke-linecap="butt"/><path d="M145.94362,185.77798c0,2.21122 -1.7773,4.00379 -3.96972,4.00379c-2.19242,0 -3.96972,-1.79256 -3.96972,-4.00379c0,-2.21122 1.7773,-4.00378 3.96972,-4.00378c2.19242,0 3.96972,1.79256 3.96972,4.00378z" data-paper-data="{&quot;origPos&quot;:null}" fill="#faff66" stroke="none" stroke-width="1.5" stroke-linecap="butt"/><path d="M167.2366,185.22883c0,2.15676 -1.73351,3.90516 -3.87193,3.90516c-2.13841,0 -3.87194,-1.74839 -3.87194,-3.90516c0,-2.15676 1.73353,-3.90516 3.87194,-3.90516c2.13841,0 3.87193,1.74839 3.87193,3.90516z" data-paper-data="{&quot;origPos&quot;:null}" fill="#faff66" stroke="none" stroke-width="1.5" stroke-linecap="butt"/><path d="M153.23361,228.40103c1.06378,3.25222 1.66512,9.18112 2.04207,12.54636c0.54213,4.83976 -0.80064,5.84728 -4.82551,7.09652c-4.04282,1.25481 -5.13842,2.05446 -7.57473,-2.22196c-1.6757,-2.94139 -1.55362,-10.16433 -2.61057,-13.3957c-3.12117,-9.54215 -6.75183,-15.60938 -3.1161,-16.73784c0,0 5.98938,-1.26987 7.5286,0.11364c4.4381,3.98913 5.43508,3.05681 8.55625,12.59897z" data-paper-data="{&quot;origPos&quot;:null,&quot;origRot&quot;:0}" fill="url(#color-19)" stroke="#001371" stroke-width="1.5" stroke-linecap="butt"/><path d="M158.83985,244.31302c4.57737,2.13542 3.54643,5.99618 1.81359,7.81242c-2.09835,2.19933 -9.69912,4.48406 -14.118,3.74877c-4.41887,-0.73528 -3.15699,-2.06832 -3.67429,-3.64981c-1.15012,-3.5162 0.43899,-7.14926 6.34516,-8.98242c5.90617,-1.83315 5.05618,-1.0644 9.63355,1.07103z" data-paper-data="{&quot;origPos&quot;:null,&quot;origRot&quot;:0}" fill="url(#color-20)" stroke="#6c4306" stroke-width="1.5" stroke-linecap="butt"/><path d="M138.98863,186.9109c-3.88597,8.77107 -9.70187,14.71141 -12.99017,13.26811c-3.28832,-1.44329 -2.80379,-9.72368 1.08215,-18.49477c3.88597,-8.77107 9.70186,-14.71142 12.99016,-13.26812c3.28832,1.44329 2.8038,9.72368 -1.08214,18.49477z" data-paper-data="{&quot;origRot&quot;:0,&quot;origPos&quot;:null}" fill="url(#color-21)" stroke="#158e0e" stroke-width="1.5" stroke-linecap="butt"/><path d="M135.77306,200.49862c1.58578,5.55957 -1.53974,11.25794 -6.98108,12.72765c-5.44133,1.46972 -11.13792,-1.84578 -12.72371,-7.40537c-1.58578,-5.55957 1.53974,-11.25794 6.98108,-12.72765c5.44133,-1.46972 11.13792,1.84578 12.72371,7.40537z" data-paper-data="{&quot;origPos&quot;:null,&quot;origRot&quot;:0}" fill="#ffffff" stroke="#bfbfbf" stroke-width="1.5" stroke-linecap="butt"/><path d="M177.34624,149.47684c0,9.58744 -5.14936,13.54105 -11.92352,18.47509c-4.72012,3.43796 -6.06853,6.44688 -11.57363,6.44688c-6.39728,0 -8.94794,-3.34932 -14.4308,-7.34894c-6.66848,-4.8645 -12.11553,-8.29451 -12.11553,-17.73622c0,-4.88091 0.57271,-17.17846 2.65647,-21.29146c4.80207,-9.4785 14.74065,-2.96331 23.65922,-2.96331c0,0 14.51881,-4.10323 19.42967,4.91271c2.33042,4.27845 4.29814,6.01957 4.29814,19.50524z" data-paper-data="{&quot;origPos&quot;:null}" fill="url(#color-22)" stroke="#e0ce98" stroke-width="1" stroke-linecap="butt"/><path d="M177.43941,121.23555c7.39631,15.30816 -26.79497,11.65492 -29.2141,13.66084c-2.37591,1.97008 -0.74791,7.99261 -3.6175,7.99261c-4.02198,0 -8.45488,0.76841 -9.56057,5.50256c-0.63988,2.73978 2.37615,8.07015 0.12484,8.79394c-2.2178,0.71302 -4.06937,3.1223 -6.35839,3.28697c-1.85643,0.13354 -2.3832,-2.3091 -4.24263,-2.343c-5.29533,-0.09654 0.72001,-12.87543 0.8452,-13.54558c0.04172,-0.22338 -1.10163,-4.78695 -1.10163,-7.0037c0,-12.02306 9.84594,-18.41652 16.30923,-18.41652c6.46328,0 29.41924,-13.23627 36.81555,2.07188z" data-paper-data="{&quot;origPos&quot;:null}" fill="#c27231" stroke="#985926" stroke-width="1.5" stroke-linecap="butt"/><path d="M176.96833,162.28036c0,0.94426 -1.05436,2.53894 -1.15734,3.47732c-0.21869,1.99288 -1.61583,3.04323 -3.57684,3.13261c-2.16435,0.09865 -5.99132,-2.45074 -5.99132,-2.45074c0,0 -2.87775,1.15965 -4.82459,1.60512c-1.63184,0.37339 -4.15503,0.12869 -5.64053,-0.63716c-1.0443,-0.5384 -2.66543,-2.79855 -3.30943,-3.79617c-2.03878,-3.15822 -7.28717,-7.80682 -2.80634,-8.95671c2.20464,-0.56578 8.73957,5.48286 11.0127,5.48286c0,0 3.80829,-0.01709 5.70018,0.08223c4.2897,0.22516 10.5935,-2.40857 10.5935,2.06065z" data-paper-data="{&quot;origPos&quot;:null}" fill="#160b02" stroke="none" stroke-width="0" stroke-linecap="butt"/><path d="M179.32543,125.50005c0,9.62951 -11.03409,3.70211 -26.30554,3.70211c-3.69718,0 -8.59054,7.94106 -12.28753,7.90599c-5.24124,-0.04971 -11.84335,2.39611 -15.98343,-0.74149c-2.92262,-2.21493 -0.72629,-7.25501 -0.72629,-10.86662c0,-8.15926 8.70145,-8.27716 16.24287,-11.79709c5.48182,-2.55861 5.55662,-6.60094 11.63295,-6.60094c0,0 12.43874,-1.76929 19.6767,0.80353c8.19439,2.91279 7.75028,7.96498 7.75028,17.59449z" data-paper-data="{&quot;origPos&quot;:null}" fill="url(#color-23)" stroke="#158e0e" stroke-width="1" stroke-linecap="butt"/><path d="M189.80767,131.29153c0,3.39114 -10.44299,0.28559 -24.00988,0.28559c-13.56688,0 -25.12017,3.10555 -25.12017,-0.28559c0,-3.39114 10.99813,-6.14019 24.56502,-6.14019c13.56688,0 24.56502,2.74906 24.56502,6.14019z" data-paper-data="{&quot;origPos&quot;:null}" fill="url(#color-24)" stroke="#158e0e" stroke-width="1" stroke-linecap="butt"/><path d="M175.25731,118.64991c0,2.08974 0.31298,3.53154 -1.25453,4.86038c-1.35299,1.14697 -9.04403,0.84635 -10.32229,-0.07514c-1.82086,-1.31268 -1.08988,-2.49767 -1.08988,-4.78524c0,-3.41429 2.83555,-6.18215 6.33336,-6.18215c3.49782,0 6.33335,2.76785 6.33335,6.18215z" data-paper-data="{&quot;origPos&quot;:null}" fill="#ffffff" stroke="#a4a4a4" stroke-width="1" stroke-linecap="butt"/><path d="M167.51598,143.27745c0,4.03215 -2.12367,7.30085 -4.74334,7.30085c-2.61968,0 -4.74334,-3.2687 -4.74334,-7.30085c0,-4.03215 2.12367,-7.30086 4.74334,-7.30086c2.61968,0 4.74334,3.2687 4.74334,7.30086z" data-paper-data="{&quot;origPos&quot;:null}" fill="#ffffff" stroke="none" stroke-width="0" stroke-linecap="butt"/><path d="M159.01501,135.2559c0,0 3.57853,-0.5724 4.30266,-0.4493c1.29495,0.22013 3.53513,1.78671 3.53513,1.78671" data-paper-data="{&quot;origPos&quot;:null,&quot;origRot&quot;:0}" fill="none" stroke="#351c06" stroke-width="1.5" stroke-linecap="round"/><path d="M167.54499,142.96376c0,2.67596 -1.40938,4.84524 -3.14794,4.84524c-1.73856,0 -3.14794,-2.1693 -3.14794,-4.84524c0,-2.67596 1.40939,-4.84524 3.14794,-4.84524c1.73856,0 3.14794,2.1693 3.14794,4.84524z" data-paper-data="{&quot;origPos&quot;:null}" fill="#1121d4" stroke="none" stroke-width="0" stroke-linecap="butt"/><path d="M167.6135,142.82305c0,1.38374 -0.72879,2.50548 -1.62781,2.50548c-0.89902,0 -1.62781,-1.12175 -1.62781,-2.50548c0,-1.38374 0.7288,-2.50548 1.62781,-2.50548c0.89902,0 1.62781,1.12175 1.62781,2.50548z" data-paper-data="{&quot;origPos&quot;:null}" fill="#000000" stroke="none" stroke-width="0" stroke-linecap="butt"/><path d="M173.9122,135.3442c2.17221,0 3.93314,2.71036 3.93314,6.05377c0,3.34342 -1.76092,6.05377 -3.93314,6.05377c-2.17221,0 -3.93314,-2.71036 -3.93314,-6.05377c0,-3.34342 1.76092,-6.05377 3.93314,-6.05377z" data-paper-data="{&quot;origPos&quot;:null,&quot;index&quot;:null}" fill="#ffffff" stroke="none" stroke-width="0" stroke-linecap="butt"/><path d="M170.61617,134.76966c0,0 1.85754,-1.299 2.93129,-1.48153c0.60044,-0.10208 3.56772,0.37256 3.56772,0.37256" data-paper-data="{&quot;origPos&quot;:null,&quot;origRot&quot;:0,&quot;index&quot;:null}" fill="none" stroke="#351c06" stroke-width="1.5" stroke-linecap="round"/><path d="M175.35775,137.23867c1.44159,0 2.61025,1.79876 2.61025,4.0176c0,2.21886 -1.16864,4.0176 -2.61025,4.0176c-1.44159,0 -2.61024,-1.79876 -2.61024,-4.0176c0,-2.21886 1.16864,-4.0176 2.61024,-4.0176z" data-paper-data="{&quot;origPos&quot;:null,&quot;index&quot;:null}" fill="#1121d4" stroke="none" stroke-width="0" stroke-linecap="butt"/><path d="M176.72019,139.18525c0.74546,0 1.34976,0.93015 1.34976,2.07752c0,1.14739 -0.60431,2.07752 -1.34976,2.07752c-0.74546,0 -1.34975,-0.93015 -1.34975,-2.07752c0,-1.14739 0.60431,-2.07752 1.34975,-2.07752z" data-paper-data="{&quot;origPos&quot;:null,&quot;index&quot;:null}" fill="#000000" stroke="none" stroke-width="0" stroke-linecap="butt"/><path d="M187.98865,154.05366c0,4.6514 -5.21052,8.67412 -11.95206,8.67412c-6.74152,0 -12.46119,-4.02272 -12.46119,-8.67412c0,-4.6514 5.46509,-8.42211 12.20662,-8.42211c6.74152,0 12.20662,3.7707 12.20662,8.42211z" data-paper-data="{&quot;origPos&quot;:null}" fill="url(#color-25)" stroke="#e0ce98" stroke-width="1.5" stroke-linecap="butt"/><path d="M140.48493,147.85547c-0.92107,2.84302 -4.85091,4.05604 -8.77756,2.70934c-3.92666,-1.34671 -6.36315,-4.74313 -5.44209,-7.58617c0.92107,-2.84302 4.85091,-4.05604 8.77756,-2.70934c3.92666,1.34671 6.36315,4.74313 5.44209,7.58617z" data-paper-data="{&quot;origRot&quot;:0,&quot;origPos&quot;:null}" fill="#ffefc0" stroke="#e0ce98" stroke-width="1.5" stroke-linecap="butt"/><path d="M171.75719,121.38358l-4.53402,-0.22094l0.06825,-5.65682" data-paper-data="{&quot;origPos&quot;:null}" fill="none" stroke="#158e0e" stroke-width="1" stroke-linecap="round"/></g></g></svg>