<svg version="1.1" xmlns="http://www.w3.org/2000/svg" xmlns:xlink="http://www.w3.org/1999/xlink" width="370.27982" height="247.3335" viewBox="0,0,370.27982,247.3335"><defs><linearGradient x1="351.88662" y1="125.11198" x2="351.88662" y2="159.88912" gradientUnits="userSpaceOnUse" id="color-1"><stop offset="0" stop-color="#00a515"/><stop offset="1" stop-color="#00bf06"/></linearGradient><linearGradient x1="383.1224" y1="121.29125" x2="383.1224" y2="159.46459" gradientUnits="userSpaceOnUse" id="color-2"><stop offset="0" stop-color="#00a515"/><stop offset="1" stop-color="#00bf06"/></linearGradient><linearGradient x1="146.07493" y1="78.15625" x2="146.07493" y2="301.15625" gradientUnits="userSpaceOnUse" id="color-3"><stop offset="0" stop-color="#f9dea4"/><stop offset="1" stop-color="#ffce71"/></linearGradient><linearGradient x1="144.6218" y1="43.34699" x2="144.6218" y2="120.98654" gradientUnits="userSpaceOnUse" id="color-4"><stop offset="0" stop-color="#00a515"/><stop offset="1" stop-color="#00bf06"/></linearGradient></defs><g transform="translate(-40.5323,-55.82275)"><g data-paper-data="{&quot;isPaintingLayer&quot;:true}" fill-rule="nonzero" stroke-linejoin="miter" stroke-miterlimit="10" stroke-dasharray="" stroke-dashoffset="0" style="mix-blend-mode: normal"><path d="M334.49805,142.50055c0,-9.60344 7.78512,-17.38857 17.38857,-17.38857c9.60344,0 17.38855,7.78512 17.38855,17.38857c0,9.60344 -7.78512,17.38857 -17.38855,17.38857c-9.60344,0 -17.38857,-7.78512 -17.38857,-17.38857z" fill="url(#color-1)" stroke="#008a05" stroke-width="5" stroke-linecap="butt"/><path d="M362.41485,135.04831l9.3153,-6.83122" fill="none" stroke="#008a05" stroke-width="5" stroke-linecap="round"/><path d="M353.09955,133.80627l-2.48409,-14.28346" fill="none" stroke="#008a05" stroke-width="5" stroke-linecap="round"/><path d="M350.61546,144.98463l1.86306,-6.21021" fill="none" stroke="#008a05" stroke-width="5" stroke-linecap="round"/><path d="M333.2269,123.24892l10.55734,13.04142" fill="none" stroke="#008a05" stroke-width="5" stroke-linecap="round"/><path d="M341.92118,146.8477l-11.79939,1.86306" fill="none" stroke="#008a05" stroke-width="5" stroke-linecap="round"/><path d="M349.37342,153.6789l1.86306,12.42041" fill="none" stroke="#008a05" stroke-width="5" stroke-linecap="round"/><path d="M366.76199,154.29994l-13.66245,-5.58918" fill="none" stroke="#008a05" stroke-width="5" stroke-linecap="round"/><path d="M374.83526,138.77443l-14.28347,3.72612" fill="none" stroke="#008a05" stroke-width="5" stroke-linecap="round"/><path d="M364.03573,140.37791c0,-10.54128 8.54539,-19.08666 19.08668,-19.08666c10.54128,0 19.08666,8.54538 19.08666,19.08666c0,10.54128 -8.54538,19.08668 -19.08666,19.08668c-10.54128,0 -19.08668,-8.54539 -19.08668,-19.08668z" fill="url(#color-2)" stroke="#008a05" stroke-width="5" stroke-linecap="butt"/><path d="M394.67878,132.19791l10.225,-7.49832" fill="none" stroke="#008a05" stroke-width="5" stroke-linecap="round"/><path d="M381.72712,115.15625l2.72666,15.67834" fill="none" stroke="#008a05" stroke-width="5" stroke-linecap="round"/><path d="M383.77212,136.28791l-2.045,6.81668" fill="none" stroke="#008a05" stroke-width="5" stroke-linecap="round"/><path d="M374.22878,133.56125l-11.58832,-14.315" fill="none" stroke="#008a05" stroke-width="5" stroke-linecap="round"/><path d="M372.18378,145.14959l-12.95166,2.045" fill="none" stroke="#008a05" stroke-width="5" stroke-linecap="round"/><path d="M380.36378,152.64791l2.045,13.63334" fill="none" stroke="#008a05" stroke-width="5" stroke-linecap="round"/><path d="M399.45045,153.32959l-14.99668,-6.135" fill="none" stroke="#008a05" stroke-width="5" stroke-linecap="round"/><path d="M392.63378,140.37791l15.67834,-4.09" fill="none" stroke="#008a05" stroke-width="5" stroke-linecap="round"/><path d="M134.57493,301.15625v-223h23v223z" fill="url(#color-3)" stroke="#c38600" stroke-width="4" stroke-linecap="butt"/><path d="M241.6218,82.16677l-32.00489,-4.78053c0,0 25.36485,12.27634 25.94705,15.14929c1.65533,8.16847 -22.29355,13.52127 -41.22636,13.44027c-26.12816,-0.11177 -49.71579,-25.65759 -49.71579,-25.65759c0,0 -11.35577,21.62334 -46.36338,22.17788c-8.69718,0.13777 -43.99052,-4.92153 -43.99052,-4.92153c0,0 5.80907,-8.78275 14.46528,-12.48224c6.69281,-2.86037 22.60001,-8.34864 22.60001,-8.34864c0,0 -13.08675,-3.04736 -19.87847,-2.18502c-7.39416,0.93884 -22.83294,7.6081 -22.83294,7.6081c0,0 18.24937,-23.13279 48.02164,-23.88729c30.1489,-0.76405 47.97837,20.80635 47.97837,20.80635c0,0 22.90942,-22.31243 51.18088,-20.76307c26.95949,1.47746 45.81912,23.84401 45.81912,23.84401z" fill="url(#color-4)" stroke="#008a05" stroke-width="5" stroke-linecap="butt"/></g></g></svg>