<svg version="1.1" xmlns="http://www.w3.org/2000/svg" xmlns:xlink="http://www.w3.org/1999/xlink" width="82.03945" height="136.10401" viewBox="0,0,82.03945,136.10401"><defs><linearGradient x1="240.10307" y1="217.88424" x2="208.42901" y2="233.88428" gradientUnits="userSpaceOnUse" id="color-1"><stop offset="0" stop-color="#364ec7"/><stop offset="1" stop-color="#001371"/></linearGradient><linearGradient x1="215.84917" y1="233.88484" x2="203.88405" y2="239.92897" gradientUnits="userSpaceOnUse" id="color-2"><stop offset="0" stop-color="#a6680a"/><stop offset="1" stop-color="#6c4205"/></linearGradient><linearGradient x1="242.67449" y1="184.21113" x2="212.40597" y2="183.6891" gradientUnits="userSpaceOnUse" id="color-3"><stop offset="0" stop-color="#20de16"/><stop offset="1" stop-color="#158e0e"/></linearGradient><linearGradient x1="241.0723" y1="167.8356" x2="241.0723" y2="223.13116" gradientUnits="userSpaceOnUse" id="color-4"><stop offset="0" stop-color="#364ec7"/><stop offset="1" stop-color="#001371"/></linearGradient><linearGradient x1="242.51259" y1="171.79431" x2="242.51259" y2="191.34504" gradientUnits="userSpaceOnUse" id="color-5"><stop offset="0" stop-color="#20de16"/><stop offset="1" stop-color="#158e0e"/></linearGradient><linearGradient x1="242.3245" y1="127.25917" x2="242.3245" y2="176.84235" gradientUnits="userSpaceOnUse" id="color-6"><stop offset="0" stop-color="#ffefc0"/><stop offset="1" stop-color="#e0ce98"/></linearGradient><linearGradient x1="241.28019" y1="111.50884" x2="241.28019" y2="141.78455" gradientUnits="userSpaceOnUse" id="color-7"><stop offset="0" stop-color="#20de16"/><stop offset="1" stop-color="#158e0e"/></linearGradient><linearGradient x1="255.24264" y1="129.44935" x2="255.24264" y2="136.88359" gradientUnits="userSpaceOnUse" id="color-8"><stop offset="0" stop-color="#20de16"/><stop offset="1" stop-color="#158e0e"/></linearGradient><linearGradient x1="265.78201" y1="149.15834" x2="265.78201" y2="165.61081" gradientUnits="userSpaceOnUse" id="color-9"><stop offset="0" stop-color="#ffefc0"/><stop offset="1" stop-color="#e0ce98"/></linearGradient><linearGradient x1="226.91907" y1="185.52474" x2="255.43508" y2="183.60195" gradientUnits="userSpaceOnUse" id="color-10"><stop offset="0" stop-color="#20de16"/><stop offset="1" stop-color="#158e0e"/></linearGradient><linearGradient x1="239.4371" y1="215.00442" x2="266.92078" y2="236.35823" gradientUnits="userSpaceOnUse" id="color-11"><stop offset="0" stop-color="#364ec7"/><stop offset="1" stop-color="#001371"/></linearGradient><linearGradient x1="263.05615" y1="233.25901" x2="273.22523" y2="241.16002" gradientUnits="userSpaceOnUse" id="color-12"><stop offset="0" stop-color="#a6680a"/><stop offset="1" stop-color="#6c4205"/></linearGradient></defs><g transform="translate(-198.26821,-111.00884)"><g data-paper-data="{&quot;isPaintingLayer&quot;:true}" fill-rule="nonzero" stroke-linejoin="miter" stroke-miterlimit="10" stroke-dasharray="" stroke-dashoffset="0" style="mix-blend-mode: normal"><g data-paper-data="{&quot;origRot&quot;:0,&quot;origPos&quot;:null}" stroke-width="1.5" stroke-linecap="butt"><path d="M229.64202,230.91912c-2.9429,1.84907 -8.71059,4.07608 -11.97363,5.37061c-4.69275,1.86174 -6.10781,1.00481 -8.57266,-2.07535c-2.47585,-3.0939 -3.60795,-3.79955 -0.05056,-7.11795c2.44682,-2.28243 9.73065,-4.26482 12.65467,-6.10203c8.63458,-5.42524 13.62927,-10.28214 15.85582,-7.4998c0,0 3.07687,4.75376 2.15203,6.46941c0,0 2.98294,1.27581 0.87301,3.43289c-2.12454,2.17201 -2.3041,2.09697 -10.93868,7.52222z" data-paper-data="{&quot;origPos&quot;:null,&quot;origRot&quot;:0}" fill="url(#color-1)" stroke="#001371"/><path d="M216.73344,241.82002c-0.64709,4.94652 -4.8481,5.08838 -7.23082,3.975c-2.88531,-1.34821 -7.64819,-7.87536 -8.35124,-12.267c-0.70305,-4.39163 1.04252,-3.58387 2.45736,-4.53055c3.14571,-2.10481 7.30055,-1.65292 11.05942,3.40229c3.75887,5.05519 2.71239,4.47375 2.06531,9.42027z" data-paper-data="{&quot;origPos&quot;:null,&quot;origRot&quot;:0}" fill="url(#color-2)" stroke="#6c4306"/></g><g data-paper-data="{&quot;origPos&quot;:null}" stroke-width="1.5" stroke-linecap="butt"><path d="M242.37926,175.85174c1.98604,2.53289 -3.04761,8.21198 -11.24298,12.68459c-8.19537,4.47261 -16.44902,6.04506 -18.43508,3.51215c-1.98604,-2.53291 3.0476,-8.21199 11.24297,-12.68459c8.19537,-4.47261 16.44905,-6.04506 18.43508,-3.51214z" data-paper-data="{&quot;origRot&quot;:0,&quot;origPos&quot;:null,&quot;index&quot;:null}" fill="url(#color-3)" stroke="#158e0e"/><path d="M220.26366,195.86363c-0.60546,5.22817 -5.83939,8.99648 -11.69029,8.41676c-5.85092,-0.57972 -10.1032,-5.28793 -9.49775,-10.5161c0.60546,-5.22815 5.83939,-8.99648 11.6903,-8.41676c5.85093,0.57972 10.1032,5.28794 9.49775,10.51611z" data-paper-data="{&quot;origPos&quot;:null,&quot;index&quot;:null,&quot;origRot&quot;:0}" fill="#ffffff" stroke="#bfbfbf"/></g><path d="M258.19093,195.57461c0,8.82537 2.57396,17.37535 -2.43939,24.1197c-3.21333,4.32282 -9.69716,3.34106 -14.67924,3.34106c-4.98207,0 -11.4659,0.70276 -14.67924,-3.62004c-5.01335,-6.74434 -2.43939,-15.01534 -2.43939,-23.8407c0,-15.16616 7.66426,-27.69893 17.11863,-27.69893c0,0 9.72842,-0.85814 12.88897,5.36458c3.14566,6.1934 4.22966,7.16817 4.22966,22.33433z" data-paper-data="{&quot;origPos&quot;:null}" fill="url(#color-4)" stroke="#001371" stroke-width="1.5" stroke-linecap="butt"/><path d="M249.20572,180.02341c0,2.56135 1.18698,6.78943 -0.31003,8.55347c-1.61709,1.90551 -3.32827,2.78168 -5.5586,2.768c-2.46992,-0.01517 -4.1733,-0.95475 -6.23486,-2.64231c-2.11879,-1.73441 -1.69451,-5.53011 -1.69451,-8.67915c0,-4.5448 3.0888,-8.2291 6.89902,-8.2291c3.8102,0 6.899,3.6843 6.899,8.2291z" data-paper-data="{&quot;origPos&quot;:null}" fill="url(#color-5)" stroke="none" stroke-width="0" stroke-linecap="butt"/><path d="M235.94361,187.79304c0,2.12795 -1.7773,3.85302 -3.96972,3.85302c-2.19242,0 -3.96972,-1.72506 -3.96972,-3.85302c0,-2.12795 1.7773,-3.85301 3.96972,-3.85301c2.19242,0 3.96972,1.72506 3.96972,3.85301z" data-paper-data="{&quot;origPos&quot;:null}" fill="#faff66" stroke="none" stroke-width="1.5" stroke-linecap="butt"/><path d="M257.23659,187.26456c0,2.07555 -1.73351,3.75811 -3.87193,3.75811c-2.13841,0 -3.87194,-1.68255 -3.87194,-3.75811c0,-2.07555 1.73353,-3.75811 3.87194,-3.75811c2.13841,0 3.87193,1.68255 3.87193,3.75811z" data-paper-data="{&quot;origPos&quot;:null}" fill="#faff66" stroke="none" stroke-width="1.5" stroke-linecap="butt"/><path d="M267.34623,152.85884c0,9.22642 -5.14936,13.03116 -11.92352,17.77939c-4.72012,3.3085 -6.06853,6.20411 -11.57363,6.20411c-6.39728,0 -8.94794,-3.2232 -14.4308,-7.07221c-6.66848,-4.68132 -12.11553,-7.98218 -12.11553,-17.06835c0,-4.69712 0.57271,-16.53159 2.65647,-20.48971c4.80207,-9.12158 14.74065,-2.85172 23.65922,-2.85172c0,0 14.51881,-3.94872 19.42967,4.72772c2.33042,4.11734 4.29814,5.7929 4.29814,18.77075z" data-paper-data="{&quot;origPos&quot;:null}" fill="url(#color-6)" stroke="#e0ce98" stroke-width="1" stroke-linecap="butt"/><path d="M267.4394,125.681c7.39631,14.73172 -26.79497,11.21604 -29.2141,13.14643c-2.37591,1.8959 -0.74791,7.69164 -3.6175,7.69164c-4.02198,0 -8.45488,0.73948 -9.56057,5.29535c-0.63988,2.63662 2.37615,7.76626 0.12484,8.46279c-2.2178,0.68617 -4.06937,3.00473 -6.35839,3.16319c-1.85643,0.12851 -2.3832,-2.22215 -4.24263,-2.25477c-5.29533,-0.09291 0.72001,-12.3906 0.8452,-13.03551c0.04172,-0.21497 -1.10163,-4.60669 -1.10163,-6.73997c0,-11.57032 9.84594,-17.72304 16.30923,-17.72304c6.46328,0 29.41924,-12.73785 36.81555,1.99386z" data-paper-data="{&quot;origPos&quot;:null}" fill="#c27231" stroke="#985926" stroke-width="1.5" stroke-linecap="butt"/><path d="M266.96832,165.18025c0,0.9087 -1.05436,2.44333 -1.15734,3.34638c-0.21869,1.91784 -1.61583,2.92864 -3.57684,3.01465c-2.16435,0.09493 -5.99132,-2.35846 -5.99132,-2.35846c0,0 -2.87775,1.11598 -4.82459,1.54468c-1.63184,0.35933 -4.15503,0.12384 -5.64053,-0.61317c-1.0443,-0.51813 -2.66543,-2.69317 -3.30943,-3.65322c-2.03878,-3.03929 -7.28717,-7.51285 -2.80634,-8.61944c2.20464,-0.54447 8.73957,5.2764 11.0127,5.2764c0,0 3.80829,-0.01644 5.70018,0.07913c4.2897,0.21668 10.5935,-2.31788 10.5935,1.98305z" data-paper-data="{&quot;origPos&quot;:null}" fill="#160b02" stroke="none" stroke-width="0" stroke-linecap="butt"/><path d="M269.32542,129.78492c0,9.26691 -11.03409,3.56271 -26.30554,3.56271c-3.69718,0 -8.59054,7.64203 -12.28753,7.60828c-5.24124,-0.04784 -11.84335,2.30588 -15.98343,-0.71357c-2.92262,-2.13152 -0.72629,-6.98182 -0.72629,-10.45743c0,-7.85202 8.70145,-7.96547 16.24287,-11.35286c5.48182,-2.46226 5.55662,-6.35238 11.63295,-6.35238c0,0 12.43874,-1.70267 19.6767,0.77327c8.19439,2.8031 7.75028,7.66505 7.75028,16.93196z" data-paper-data="{&quot;origPos&quot;:null}" fill="url(#color-7)" stroke="#158e0e" stroke-width="1" stroke-linecap="butt"/><path d="M279.80766,135.35832c0,3.26344 -10.44299,0.27484 -24.00988,0.27484c-13.56688,0 -25.12017,2.9886 -25.12017,-0.27484c0,-3.26344 10.99813,-5.90897 24.56502,-5.90897c13.56688,0 24.56502,2.64554 24.56502,5.90897z" data-paper-data="{&quot;origPos&quot;:null}" fill="url(#color-8)" stroke="#158e0e" stroke-width="1" stroke-linecap="butt"/><path d="M265.25731,123.19272c0,2.01105 0.31298,3.39855 -1.25453,4.67736c-1.35299,1.10378 -9.04403,0.81448 -10.32229,-0.07231c-1.82086,-1.26325 -1.08988,-2.40362 -1.08988,-4.60504c0,-3.28572 2.83555,-5.94936 6.33336,-5.94936c3.49782,0 6.33335,2.66362 6.33335,5.94936z" data-paper-data="{&quot;origPos&quot;:null}" fill="#ffffff" stroke="#a4a4a4" stroke-width="1" stroke-linecap="butt"/><path d="M257.51597,146.89289c0,3.88031 -2.12367,7.02593 -4.74334,7.02593c-2.61968,0 -4.74334,-3.14562 -4.74334,-7.02593c0,-3.88031 2.12367,-7.02594 4.74334,-7.02594c2.61968,0 4.74334,3.14562 4.74334,7.02594z" data-paper-data="{&quot;origPos&quot;:null}" fill="#ffffff" stroke="none" stroke-width="0" stroke-linecap="butt"/><path d="M249.015,139.1734c0,0 3.57853,-0.55085 4.30266,-0.43238c1.29495,0.21184 3.53513,1.71943 3.53513,1.71943" data-paper-data="{&quot;origPos&quot;:null,&quot;origRot&quot;:0}" fill="none" stroke="#351c06" stroke-width="1.5" stroke-linecap="round"/><path d="M257.54498,146.59102c0,2.57519 -1.40938,4.66279 -3.14794,4.66279c-1.73856,0 -3.14794,-2.08761 -3.14794,-4.66279c0,-2.57519 1.40939,-4.66279 3.14794,-4.66279c1.73856,0 3.14794,2.08761 3.14794,4.66279z" data-paper-data="{&quot;origPos&quot;:null}" fill="#1121d4" stroke="none" stroke-width="0" stroke-linecap="butt"/><path d="M257.61349,146.45561c0,1.33164 -0.72879,2.41113 -1.62781,2.41113c-0.89902,0 -1.62781,-1.07951 -1.62781,-2.41113c0,-1.33164 0.7288,-2.41113 1.62781,-2.41113c0.89902,0 1.62781,1.07951 1.62781,2.41113z" data-paper-data="{&quot;origPos&quot;:null}" fill="#000000" stroke="none" stroke-width="0" stroke-linecap="butt"/><path d="M263.91219,139.25839c2.17221,0 3.93314,2.6083 3.93314,5.82581c0,3.21752 -1.76092,5.82581 -3.93314,5.82581c-2.17221,0 -3.93314,-2.6083 -3.93314,-5.82581c0,-3.21752 1.76092,-5.82581 3.93314,-5.82581z" data-paper-data="{&quot;origPos&quot;:null,&quot;index&quot;:null}" fill="#ffffff" stroke="none" stroke-width="0" stroke-linecap="butt"/><path d="M260.61616,138.70547c0,0 1.85754,-1.25008 2.93129,-1.42574c0.60044,-0.09823 3.56772,0.35853 3.56772,0.35853" data-paper-data="{&quot;origPos&quot;:null,&quot;origRot&quot;:0,&quot;index&quot;:null}" fill="none" stroke="#351c06" stroke-width="1.5" stroke-linecap="round"/><path d="M265.35774,141.08151c1.44159,0 2.61025,1.73102 2.61025,3.86632c0,2.13531 -1.16864,3.86632 -2.61025,3.86632c-1.44159,0 -2.61024,-1.73102 -2.61024,-3.86632c0,-2.13531 1.16864,-3.86632 2.61024,-3.86632z" data-paper-data="{&quot;origPos&quot;:null,&quot;index&quot;:null}" fill="#1121d4" stroke="none" stroke-width="0" stroke-linecap="butt"/><path d="M266.72018,142.95479c0.74546,0 1.34976,0.89512 1.34976,1.99929c0,1.10419 -0.60431,1.99929 -1.34976,1.99929c-0.74546,0 -1.34975,-0.89512 -1.34975,-1.99929c0,-1.10419 0.60431,-1.99929 1.34975,-1.99929z" data-paper-data="{&quot;origPos&quot;:null,&quot;index&quot;:null}" fill="#000000" stroke="none" stroke-width="0" stroke-linecap="butt"/><path d="M277.98864,157.26332c0,4.47625 -5.21052,8.34749 -11.95206,8.34749c-6.74152,0 -12.46119,-3.87124 -12.46119,-8.34749c0,-4.47625 5.46509,-8.10497 12.20662,-8.10497c6.74152,0 12.20662,3.62871 12.20662,8.10497z" data-paper-data="{&quot;origPos&quot;:null}" fill="url(#color-9)" stroke="#e0ce98" stroke-width="1.5" stroke-linecap="butt"/><path d="M230.48492,151.29853c-0.92107,2.73596 -4.85091,3.90331 -8.77756,2.60732c-3.92666,-1.296 -6.36315,-4.56453 -5.44209,-7.3005c0.92107,-2.73596 4.85091,-3.90331 8.77756,-2.60732c3.92666,1.296 6.36315,4.56453 5.44209,7.3005z" data-paper-data="{&quot;origRot&quot;:0,&quot;origPos&quot;:null}" fill="#ffefc0" stroke="#e0ce98" stroke-width="1.5" stroke-linecap="butt"/><path d="M261.75718,125.82345l-4.53402,-0.21262l0.06825,-5.44381" data-paper-data="{&quot;origPos&quot;:null}" fill="none" stroke="#158e0e" stroke-width="1" stroke-linecap="round"/><g data-paper-data="{&quot;origPos&quot;:null}" stroke-width="1.5" stroke-linecap="butt"><path d="M245.07097,179.64872c7.96489,5.36353 12.67836,11.91188 10.52783,14.62615c-2.15053,2.71427 -10.35069,0.56661 -18.31561,-4.7969c-7.96489,-5.36353 -12.67837,-11.91188 -10.52784,-14.62615c2.15052,-2.71427 10.3507,-0.56661 18.31562,4.7969z" data-paper-data="{&quot;origRot&quot;:0,&quot;origPos&quot;:null}" fill="url(#color-10)" stroke="#158e0e"/><path d="M258.00948,185.38952c5.91438,-0.30812 10.96049,3.72672 11.27079,9.01209c0.31033,5.28535 -4.23268,9.81975 -10.14707,10.12788c-5.91438,0.30812 -10.96049,-3.72672 -11.2708,-9.01209c-0.31032,-5.28535 4.23268,-9.81975 10.14707,-10.12788z" data-paper-data="{&quot;origPos&quot;:null,&quot;origRot&quot;:0}" fill="#ffffff" stroke="#bfbfbf"/></g><g data-paper-data="{&quot;origRot&quot;:0,&quot;origPos&quot;:null}" stroke-width="1.5" stroke-linecap="butt"><path d="M257.69083,219.79869c2.69784,2.09612 6.48985,6.59454 8.67219,9.12981c3.13856,3.64611 2.56665,5.14182 -0.12896,8.19071c-2.70764,3.06248 -3.1867,4.26472 -7.60748,2.03355c-3.04066,-1.53464 -6.9409,-7.44743 -9.62143,-9.5301c-7.91557,-6.15011 -14.33419,-9.22748 -11.89919,-11.98158c0,0 4.33781,-4.05981 6.40021,-3.71806c5.94658,0.98537 6.2691,-0.27443 14.18467,5.87568z" data-paper-data="{&quot;origPos&quot;:null}" fill="url(#color-11)" stroke="#001371"/><path d="M271.22843,229.85108c5.03648,-0.58673 6.30834,3.06246 5.85629,5.41068c-0.54741,2.84354 -5.67918,8.54093 -9.80629,10.18164c-4.1271,1.64071 -3.80368,-0.07775 -5.11559,-1.09705c-2.91682,-2.26626 -3.59264,-6.01348 0.36295,-10.48747c3.9556,-4.47399 3.66616,-3.42108 8.70265,-4.00781z" data-paper-data="{&quot;origPos&quot;:null}" fill="url(#color-12)" stroke="#6c4306"/></g></g></g></svg>