<svg version="1.1" xmlns="http://www.w3.org/2000/svg" xmlns:xlink="http://www.w3.org/1999/xlink" width="375.67486" height="309.4912" viewBox="0,0,375.67486,309.4912"><g transform="translate(-53.03525,14.02419)"><g data-paper-data="{&quot;isPaintingLayer&quot;:true}" fill-rule="nonzero" stroke-linecap="butt" stroke-linejoin="miter" stroke-miterlimit="10" stroke-dasharray="" stroke-dashoffset="0" style="mix-blend-mode: normal"><path d="M66.14016,293.11116l-11.55311,-129.91304l31.61905,-35.28503l24.32234,72.17391l-27.36264,93.82609z" data-paper-data="{&quot;index&quot;:null}" fill="#dada1f" stroke="#f5ff42" stroke-width="3"/><path d="M55.80316,162.85042l31.01099,-34.08212l0.60806,77.38648z" data-paper-data="{&quot;index&quot;:null}" fill="#ffff66" stroke="none" stroke-width="0"/><path d="M67.5083,290.55815l20.06593,-84.60386l-4.56044,85.4058z" data-paper-data="{&quot;index&quot;:null}" fill="#9e9e00" stroke="none" stroke-width="0"/><path d="M101.25554,228.13273l-13.68132,-22.45411l22.19414,-6.81642z" data-paper-data="{&quot;index&quot;:null}" fill="#9e9e00" stroke="none" stroke-width="0"/><path d="M354.08705,194.41309l-19,-162l52,-44l40,90l-45,117z" fill="#426dff" stroke="#003cff" stroke-width="3"/><path d="M354.83705,192.36689l33,-105.5l-7.5,106.5z" fill="#3559ce" stroke="none" stroke-width="0"/><path d="M335.58705,33.11689l51,-42.5l1,96.5z" fill="#86a2ff" stroke="none" stroke-width="0"/><path d="M342.04357,204.41309l-26.95652,-70.08695l23.96135,-53.91305l31.14976,26.35749l-11.38164,97.04348z" data-paper-data="{&quot;index&quot;:null}" fill="#ff4b4b" stroke="#ff0000" stroke-width="3"/><path d="M338.14985,139.54l0.59904,-57.80677l30.55073,25.45894z" data-paper-data="{&quot;index&quot;:null}" fill="#ff8787" stroke="none" stroke-width="0"/><path d="M342.49284,203.18734l-4.49275,-63.7971l19.76811,63.19807z" data-paper-data="{&quot;index&quot;:null}" fill="#8f2525" stroke="none" stroke-width="0"/><path d="M316.13536,134.09254l21.86473,5.09179l-13.47826,16.77295z" data-paper-data="{&quot;index&quot;:null}" fill="#8f2525" stroke="none" stroke-width="0"/><path d="M410.33704,114.52314l-22.5,-28l36.5,-8.5z" fill="#3c64e7" stroke="none" stroke-width="0"/></g></g></svg>