<svg version="1.1" xmlns="http://www.w3.org/2000/svg" xmlns:xlink="http://www.w3.org/1999/xlink" width="53.73488" height="157.88676" viewBox="0,0,53.73488,157.88676"><defs><linearGradient x1="233.62342" y1="225.77648" x2="233.62342" y2="238.08593" gradientUnits="userSpaceOnUse" id="color-1"><stop offset="0" stop-color="#33cd00"/><stop offset="1" stop-color="#218300"/></linearGradient><linearGradient x1="245.64936" y1="224.23446" x2="245.64936" y2="260.77073" gradientUnits="userSpaceOnUse" id="color-2"><stop offset="0" stop-color="#dd8726"/><stop offset="1" stop-color="#c87b22"/></linearGradient><linearGradient x1="230.0663" y1="248.36233" x2="230.0663" y2="262.1118" gradientUnits="userSpaceOnUse" id="color-3"><stop offset="0" stop-color="#33cd00"/><stop offset="1" stop-color="#218300"/></linearGradient><linearGradient x1="252.62341" y1="246.02648" x2="252.62341" y2="253.58593" gradientUnits="userSpaceOnUse" id="color-4"><stop offset="0" stop-color="#33cd00"/><stop offset="1" stop-color="#218300"/></linearGradient><linearGradient x1="256.06629" y1="224.11233" x2="256.06629" y2="237.8618" gradientUnits="userSpaceOnUse" id="color-5"><stop offset="0" stop-color="#33cd00"/><stop offset="1" stop-color="#218300"/></linearGradient><linearGradient x1="223.95675" y1="213.6382" x2="223.95675" y2="225.94765" gradientUnits="userSpaceOnUse" id="color-6"><stop offset="0" stop-color="#33cd00"/><stop offset="1" stop-color="#218300"/></linearGradient><linearGradient x1="235.98268" y1="190.9534" x2="235.98268" y2="227.48968" gradientUnits="userSpaceOnUse" id="color-7"><stop offset="0" stop-color="#dd8726"/><stop offset="1" stop-color="#c87b22"/></linearGradient><linearGradient x1="220.39963" y1="189.61233" x2="220.39963" y2="203.3618" gradientUnits="userSpaceOnUse" id="color-8"><stop offset="0" stop-color="#33cd00"/><stop offset="1" stop-color="#218300"/></linearGradient><linearGradient x1="242.95675" y1="198.1382" x2="242.95675" y2="205.69765" gradientUnits="userSpaceOnUse" id="color-9"><stop offset="0" stop-color="#33cd00"/><stop offset="1" stop-color="#218300"/></linearGradient><linearGradient x1="246.39963" y1="213.86233" x2="246.39963" y2="227.6118" gradientUnits="userSpaceOnUse" id="color-10"><stop offset="0" stop-color="#33cd00"/><stop offset="1" stop-color="#218300"/></linearGradient><linearGradient x1="233.95675" y1="180.6382" x2="233.95675" y2="192.94765" gradientUnits="userSpaceOnUse" id="color-11"><stop offset="0" stop-color="#33cd00"/><stop offset="1" stop-color="#218300"/></linearGradient><linearGradient x1="245.98268" y1="157.95341" x2="245.98268" y2="194.48969" gradientUnits="userSpaceOnUse" id="color-12"><stop offset="0" stop-color="#dd8726"/><stop offset="1" stop-color="#c87b22"/></linearGradient><linearGradient x1="230.39963" y1="156.61233" x2="230.39963" y2="170.3618" gradientUnits="userSpaceOnUse" id="color-13"><stop offset="0" stop-color="#33cd00"/><stop offset="1" stop-color="#218300"/></linearGradient><linearGradient x1="252.95675" y1="165.1382" x2="252.95675" y2="172.69765" gradientUnits="userSpaceOnUse" id="color-14"><stop offset="0" stop-color="#33cd00"/><stop offset="1" stop-color="#218300"/></linearGradient><linearGradient x1="256.39963" y1="180.86233" x2="256.39963" y2="194.6118" gradientUnits="userSpaceOnUse" id="color-15"><stop offset="0" stop-color="#33cd00"/><stop offset="1" stop-color="#218300"/></linearGradient><linearGradient x1="221.88659" y1="145.17386" x2="221.88659" y2="158.08552" gradientUnits="userSpaceOnUse" id="color-16"><stop offset="0" stop-color="#33cd00"/><stop offset="1" stop-color="#218300"/></linearGradient><linearGradient x1="248.98374" y1="145.17386" x2="248.98374" y2="158.08552" gradientUnits="userSpaceOnUse" id="color-17"><stop offset="0" stop-color="#33cd00"/><stop offset="1" stop-color="#218300"/></linearGradient><linearGradient x1="219.43911" y1="118.50675" x2="219.43911" y2="131.41841" gradientUnits="userSpaceOnUse" id="color-18"><stop offset="0" stop-color="#33cd00"/><stop offset="1" stop-color="#218300"/></linearGradient><linearGradient x1="250.38231" y1="118.85639" x2="250.38231" y2="131.76805" gradientUnits="userSpaceOnUse" id="color-19"><stop offset="0" stop-color="#33cd00"/><stop offset="1" stop-color="#218300"/></linearGradient><linearGradient x1="235.02532" y1="122.16597" x2="235.02532" y2="160.48967" gradientUnits="userSpaceOnUse" id="color-20"><stop offset="0" stop-color="#dd8726"/><stop offset="1" stop-color="#c87b22"/></linearGradient><linearGradient x1="235.02532" y1="106.8882" x2="235.02532" y2="124.37025" gradientUnits="userSpaceOnUse" id="color-21"><stop offset="0" stop-color="#33cd00"/><stop offset="1" stop-color="#218300"/></linearGradient></defs><g transform="translate(-211.47352,-105.25947)"><g data-paper-data="{&quot;isPaintingLayer&quot;:true}" fill-rule="nonzero" stroke-linejoin="miter" stroke-miterlimit="10" stroke-dasharray="" stroke-dashoffset="0" style="mix-blend-mode: normal"><g data-paper-data="{&quot;origPos&quot;:null,&quot;index&quot;:null}"><path d="M237.83323,235.61286c-1.164,1.23675 -3.72204,2.47307 -3.72204,2.47307l-6.94076,-12.30945l12.90597,5.97142c0,0 -1.07916,2.62821 -2.24316,3.86496z" data-paper-data="{&quot;origPos&quot;:null,&quot;origRot&quot;:0,&quot;index&quot;:null}" fill="url(#color-1)" stroke="#218300" stroke-width="1" stroke-linecap="round"/><g data-paper-data="{&quot;origPos&quot;:null}" stroke-linecap="butt"><path d="M245.64935,224.23446c10.08921,0 18.26814,8.17892 18.26814,18.26813c0,10.08921 -8.17893,18.26814 -18.26814,18.26814c-10.08921,0 -18.26813,-8.17893 -18.26813,-18.26814c0,-10.08921 8.17892,-18.26813 18.26814,-18.26813z" data-paper-data="{&quot;origPos&quot;:null}" fill="url(#color-2)" stroke="#8a8e17" stroke-width="1"/><path d="M231.29101,238.63128c0.69035,0 1.25,0.55964 1.25,1.25c0,0.69035 -0.55965,1.25 -1.25,1.25c-0.69036,0 -1.25,-0.55965 -1.25,-1.25c0,-0.69036 0.55964,-1.25 1.25,-1.25z" data-paper-data="{&quot;origPos&quot;:null}" fill="#8a8e17" stroke="none" stroke-width="0.5"/><path d="M248.45768,254.29795c0.69036,0 1.25,0.55965 1.25,1.25c0,0.69036 -0.55964,1.25 -1.25,1.25c-0.69036,0 -1.25,-0.55964 -1.25,-1.25c0,-0.69035 0.55964,-1.25 1.25,-1.25z" data-paper-data="{&quot;origPos&quot;:null}" fill="#8a8e17" stroke="none" stroke-width="0.5"/><path d="M258.62435,236.46461c0.69036,0 1.25,0.55964 1.25,1.25c0,0.69035 -0.55964,1.25 -1.25,1.25c-0.69036,0 -1.25,-0.55965 -1.25,-1.25c0,-0.69036 0.55964,-1.25 1.25,-1.25z" data-paper-data="{&quot;origPos&quot;:null}" fill="#8a8e17" stroke="none" stroke-width="0.5"/><path d="M247.29101,236.63128c0.69036,0 1.25,0.55964 1.25,1.25c0,0.69035 -0.55964,1.25 -1.25,1.25c-0.69036,0 -1.25,-0.55965 -1.25,-1.25c0,-0.69036 0.55964,-1.25 1.25,-1.25z" data-paper-data="{&quot;origPos&quot;:null}" fill="#8a8e17" stroke="none" stroke-width="0.5"/><path d="M259.95768,243.46461c0.69036,0 1.25,0.55964 1.25,1.25c0,0.69036 -0.55964,1.25 -1.25,1.25c-0.69035,0 -1.25,-0.55964 -1.25,-1.25c0,-0.69036 0.55965,-1.25 1.25,-1.25z" data-paper-data="{&quot;origPos&quot;:null}" fill="#8a8e17" stroke="none" stroke-width="0.5"/><path d="M236.62435,228.63128c0.69036,0 1.25,0.55965 1.25,1.25c0,0.69036 -0.55964,1.25 -1.25,1.25c-0.69036,0 -1.25,-0.55964 -1.25,-1.25c0,-0.69035 0.55964,-1.25 1.25,-1.25z" data-paper-data="{&quot;origPos&quot;:null}" fill="#8a8e17" stroke="none" stroke-width="0.5"/><path d="M237.95768,237.13128c0.69036,0 1.25,0.55964 1.25,1.25c0,0.69035 -0.55964,1.25 -1.25,1.25c-0.69036,0 -1.25,-0.55965 -1.25,-1.25c0,-0.69036 0.55964,-1.25 1.25,-1.25z" data-paper-data="{&quot;origPos&quot;:null}" fill="#8a8e17" stroke="none" stroke-width="0.5"/><path d="M254.79101,228.96461c0.69036,0 1.25,0.55964 1.25,1.25c0,0.69035 -0.55964,1.25 -1.25,1.25c-0.69036,0 -1.25,-0.55965 -1.25,-1.25c0,-0.69036 0.55964,-1.25 1.25,-1.25z" data-paper-data="{&quot;origPos&quot;:null}" fill="#8a8e17" stroke="none" stroke-width="0.5"/><path d="M240.45768,255.63128c0.69036,0 1.25,0.55964 1.25,1.25c0,0.69035 -0.55964,1.25 -1.25,1.25c-0.69036,0 -1.25,-0.55965 -1.25,-1.25c0,-0.69036 0.55964,-1.25 1.25,-1.25z" data-paper-data="{&quot;origPos&quot;:null}" fill="#8a8e17" stroke="none" stroke-width="0.5"/><path d="M257.62435,252.13128c0.69036,0 1.25,0.55964 1.25,1.25c0,0.69035 -0.55964,1.25 -1.25,1.25c-0.69036,0 -1.25,-0.55965 -1.25,-1.25c0,-0.69036 0.55964,-1.25 1.25,-1.25z" data-paper-data="{&quot;origPos&quot;:null}" fill="#8a8e17" stroke="none" stroke-width="0.5"/><path d="M239.20398,247.3613c0.69036,0 1.25,0.55964 1.25,1.25c0,0.69036 -0.55964,1.25 -1.25,1.25c-0.69036,0 -1.25,-0.55964 -1.25,-1.25c0,-0.69036 0.55964,-1.25 1.25,-1.25z" fill="#8a8e17" stroke="none" stroke-width="0.5"/><path d="M248.70398,244.6113c0.69036,0 1.25,0.55964 1.25,1.25c0,0.69036 -0.55964,1.25 -1.25,1.25c-0.69036,0 -1.25,-0.55964 -1.25,-1.25c0,-0.69036 0.55964,-1.25 1.25,-1.25z" fill="#8a8e17" stroke="none" stroke-width="0.5"/><path d="M245.70398,228.6113c0.69036,0 1.25,0.55965 1.25,1.25c0,0.69036 -0.55964,1.25 -1.25,1.25c-0.69036,0 -1.25,-0.55964 -1.25,-1.25c0,-0.69035 0.55964,-1.25 1.25,-1.25z" fill="#8a8e17" stroke="none" stroke-width="0.5"/></g><path d="M235.3876,251.52316c1.22451,1.51927 2.22931,4.62507 2.22931,4.62507l-15.10122,5.96357l8.8259,-13.74947c0,0 2.8215,1.64155 4.04602,3.16082z" data-paper-data="{&quot;origPos&quot;:null,&quot;origRot&quot;:0}" fill="url(#color-3)" stroke="#218300" stroke-width="1" stroke-linecap="round"/><path d="M250.91359,248.49955c1.164,-1.23675 3.72204,-2.47307 3.72204,-2.47307l1.94076,7.55945l-7.90597,-1.22142c0,0 1.07917,-2.62821 2.24317,-3.86496z" data-paper-data="{&quot;origPos&quot;:null,&quot;origRot&quot;:0,&quot;index&quot;:null}" fill="url(#color-4)" stroke="#218300" stroke-width="1" stroke-linecap="round"/><path d="M250.74499,234.70098c-1.22451,-1.51927 -2.22931,-4.62508 -2.22931,-4.62508l15.10122,-5.96357l-8.8259,13.74947c0,0 -2.82151,-1.64155 -4.04602,-3.16082z" data-paper-data="{&quot;origPos&quot;:null,&quot;origRot&quot;:0,&quot;index&quot;:null}" fill="url(#color-5)" stroke="#218300" stroke-width="1" stroke-linecap="round"/></g><g data-paper-data="{&quot;origPos&quot;:null,&quot;index&quot;:null}"><path d="M230.40973,219.97623l-12.90597,5.97142l6.94077,-12.30945c0,0 2.55804,1.23632 3.72204,2.47307c1.164,1.23675 2.24317,3.86496 2.24317,3.86496z" data-paper-data="{&quot;origPos&quot;:null,&quot;origRot&quot;:0,&quot;index&quot;:null}" fill="url(#color-6)" stroke="#218300" stroke-width="1" stroke-linecap="round"/><g data-paper-data="{&quot;origPos&quot;:null}" stroke-linecap="butt"><path d="M217.71454,209.22154c0,-10.08921 8.17893,-18.26814 18.26814,-18.26814c10.08921,0 18.26814,8.17893 18.26814,18.26814c0,10.08921 -8.17893,18.26814 -18.26814,18.26814c-10.08921,0 -18.26814,-8.17893 -18.26814,-18.26814z" data-paper-data="{&quot;origPos&quot;:null}" fill="url(#color-7)" stroke="#8a8e17" stroke-width="1"/><path d="M220.37434,211.84285c0,-0.69036 0.55964,-1.25 1.25,-1.25c0.69036,0 1.25,0.55964 1.25,1.25c0,0.69036 -0.55964,1.25 -1.25,1.25c-0.69036,0 -1.25,-0.55964 -1.25,-1.25z" data-paper-data="{&quot;origPos&quot;:null}" fill="#8a8e17" stroke="none" stroke-width="0.5"/><path d="M237.54101,196.17619c0,-0.69036 0.55964,-1.25 1.25,-1.25c0.69036,0 1.25,0.55964 1.25,1.25c0,0.69035 -0.55964,1.25 -1.25,1.25c-0.69036,0 -1.25,-0.55965 -1.25,-1.25z" data-paper-data="{&quot;origPos&quot;:null}" fill="#8a8e17" stroke="none" stroke-width="0.5"/><path d="M247.70768,214.00952c0,-0.69036 0.55964,-1.25 1.25,-1.25c0.69035,0 1.25,0.55964 1.25,1.25c0,0.69036 -0.55965,1.25 -1.25,1.25c-0.69036,0 -1.25,-0.55964 -1.25,-1.25z" data-paper-data="{&quot;origPos&quot;:null}" fill="#8a8e17" stroke="none" stroke-width="0.5"/><path d="M236.37434,213.84285c0,-0.69035 0.55964,-1.25 1.25,-1.25c0.69036,0 1.25,0.55965 1.25,1.25c0,0.69036 -0.55964,1.25 -1.25,1.25c-0.69036,0 -1.25,-0.55964 -1.25,-1.25z" data-paper-data="{&quot;origPos&quot;:null}" fill="#8a8e17" stroke="none" stroke-width="0.5"/><path d="M249.04101,207.00952c0,-0.69036 0.55964,-1.25 1.25,-1.25c0.69036,0 1.25,0.55964 1.25,1.25c0,0.69036 -0.55965,1.25 -1.25,1.25c-0.69036,0 -1.25,-0.55964 -1.25,-1.25z" data-paper-data="{&quot;origPos&quot;:null}" fill="#8a8e17" stroke="none" stroke-width="0.5"/><path d="M225.70768,221.84285c0,-0.69035 0.55964,-1.25 1.25,-1.25c0.69036,0 1.25,0.55965 1.25,1.25c0,0.69036 -0.55964,1.25 -1.25,1.25c-0.69036,0 -1.25,-0.55964 -1.25,-1.25z" data-paper-data="{&quot;origPos&quot;:null}" fill="#8a8e17" stroke="none" stroke-width="0.5"/><path d="M227.04101,213.34285c0,-0.69035 0.55964,-1.25 1.25,-1.25c0.69036,0 1.25,0.55964 1.25,1.25c0,0.69036 -0.55964,1.25 -1.25,1.25c-0.69036,0 -1.25,-0.55964 -1.25,-1.25z" data-paper-data="{&quot;origPos&quot;:null}" fill="#8a8e17" stroke="none" stroke-width="0.5"/><path d="M243.87434,221.50952c0,-0.69036 0.55964,-1.25 1.25,-1.25c0.69036,0 1.25,0.55964 1.25,1.25c0,0.69036 -0.55964,1.25 -1.25,1.25c-0.69036,0 -1.25,-0.55964 -1.25,-1.25z" data-paper-data="{&quot;origPos&quot;:null}" fill="#8a8e17" stroke="none" stroke-width="0.5"/><path d="M229.54101,194.84285c0,-0.69035 0.55964,-1.25 1.25,-1.25c0.69036,0 1.25,0.55965 1.25,1.25c0,0.69036 -0.55964,1.25 -1.25,1.25c-0.69036,0 -1.25,-0.55964 -1.25,-1.25z" data-paper-data="{&quot;origPos&quot;:null}" fill="#8a8e17" stroke="none" stroke-width="0.5"/><path d="M246.70768,198.34285c0,-0.69035 0.55964,-1.25 1.25,-1.25c0.69035,0 1.25,0.55965 1.25,1.25c0,0.69036 -0.55965,1.25 -1.25,1.25c-0.69036,0 -1.25,-0.55964 -1.25,-1.25z" data-paper-data="{&quot;origPos&quot;:null}" fill="#8a8e17" stroke="none" stroke-width="0.5"/><path d="M228.28731,203.11284c0,-0.69036 0.55964,-1.25 1.25,-1.25c0.69036,0 1.25,0.55964 1.25,1.25c0,0.69036 -0.55964,1.25 -1.25,1.25c-0.69036,0 -1.25,-0.55964 -1.25,-1.25z" fill="#8a8e17" stroke="none" stroke-width="0.5"/><path d="M237.78731,205.86284c0,-0.69036 0.55964,-1.25 1.25,-1.25c0.69036,0 1.25,0.55964 1.25,1.25c0,0.69036 -0.55964,1.25 -1.25,1.25c-0.69036,0 -1.25,-0.55964 -1.25,-1.25z" fill="#8a8e17" stroke="none" stroke-width="0.5"/><path d="M234.78731,221.86284c0,-0.69036 0.55964,-1.25 1.25,-1.25c0.69036,0 1.25,0.55964 1.25,1.25c0,0.69036 -0.55964,1.25 -1.25,1.25c-0.69036,0 -1.25,-0.55964 -1.25,-1.25z" fill="#8a8e17" stroke="none" stroke-width="0.5"/></g><path d="M221.67491,203.3618l-8.8259,-13.74947l15.10123,5.96357c0,0 -1.00479,3.1058 -2.2293,4.62507c-1.22451,1.51927 -4.04602,3.16082 -4.04602,3.16082z" data-paper-data="{&quot;origPos&quot;:null,&quot;origRot&quot;:0}" fill="url(#color-8)" stroke="#218300" stroke-width="1" stroke-linecap="round"/><path d="M239.00376,199.35962l7.90597,-1.22142l-1.94076,7.55945c0,0 -2.55804,-1.23632 -3.72204,-2.47307c-1.164,-1.23675 -2.24316,-3.86496 -2.24316,-3.86496z" data-paper-data="{&quot;origPos&quot;:null,&quot;origRot&quot;:0,&quot;index&quot;:null}" fill="url(#color-9)" stroke="#218300" stroke-width="1" stroke-linecap="round"/><path d="M245.12434,213.86233l8.8259,13.74947l-15.10123,-5.96357c0,0 1.00479,-3.1058 2.22931,-4.62507c1.22451,-1.51927 4.04602,-3.16082 4.04602,-3.16082z" data-paper-data="{&quot;origPos&quot;:null,&quot;origRot&quot;:0,&quot;index&quot;:null}" fill="url(#color-10)" stroke="#218300" stroke-width="1" stroke-linecap="round"/></g><g data-paper-data="{&quot;origPos&quot;:null}"><path d="M240.40973,186.97623l-12.90597,5.97142l6.94076,-12.30945c0,0 2.55804,1.23632 3.72204,2.47307c1.164,1.23675 2.24317,3.86496 2.24317,3.86496z" data-paper-data="{&quot;origPos&quot;:null,&quot;origRot&quot;:0,&quot;index&quot;:null}" fill="url(#color-11)" stroke="#218300" stroke-width="1" stroke-linecap="round"/><g data-paper-data="{&quot;origPos&quot;:null}" stroke-linecap="butt"><path d="M227.71454,176.22154c0,-10.08921 8.17892,-18.26813 18.26814,-18.26813c10.08921,0 18.26814,8.17892 18.26814,18.26814c0,10.08921 -8.17893,18.26814 -18.26814,18.26814c-10.08921,0 -18.26813,-8.17892 -18.26813,-18.26813z" data-paper-data="{&quot;origPos&quot;:null}" fill="url(#color-12)" stroke="#8a8e17" stroke-width="1"/><path d="M230.37434,178.84285c0,-0.69036 0.55964,-1.25 1.25,-1.25c0.69036,0 1.25,0.55964 1.25,1.25c0,0.69036 -0.55964,1.25 -1.25,1.25c-0.69036,0 -1.25,-0.55964 -1.25,-1.25z" data-paper-data="{&quot;origPos&quot;:null}" fill="#8a8e17" stroke="none" stroke-width="0.5"/><path d="M247.54101,163.17619c0,-0.69036 0.55964,-1.25 1.25,-1.25c0.69036,0 1.25,0.55964 1.25,1.25c0,0.69036 -0.55964,1.25 -1.25,1.25c-0.69036,0 -1.25,-0.55964 -1.25,-1.25z" data-paper-data="{&quot;origPos&quot;:null}" fill="#8a8e17" stroke="none" stroke-width="0.5"/><path d="M257.70768,181.00952c0,-0.69036 0.55964,-1.25 1.25,-1.25c0.69035,0 1.25,0.55964 1.25,1.25c0,0.69036 -0.55965,1.25 -1.25,1.25c-0.69036,0 -1.25,-0.55964 -1.25,-1.25z" data-paper-data="{&quot;origPos&quot;:null}" fill="#8a8e17" stroke="none" stroke-width="0.5"/><path d="M246.37434,180.84285c0,-0.69036 0.55964,-1.25 1.25,-1.25c0.69036,0 1.25,0.55964 1.25,1.25c0,0.69036 -0.55964,1.25 -1.25,1.25c-0.69036,0 -1.25,-0.55964 -1.25,-1.25z" data-paper-data="{&quot;origPos&quot;:null}" fill="#8a8e17" stroke="none" stroke-width="0.5"/><path d="M259.04101,174.00952c0,-0.69036 0.55964,-1.25 1.25,-1.25c0.69036,0 1.25,0.55964 1.25,1.25c0,0.69036 -0.55965,1.25 -1.25,1.25c-0.69036,0 -1.25,-0.55964 -1.25,-1.25z" data-paper-data="{&quot;origPos&quot;:null}" fill="#8a8e17" stroke="none" stroke-width="0.5"/><path d="M235.70768,188.84285c0,-0.69036 0.55964,-1.25 1.25,-1.25c0.69036,0 1.25,0.55964 1.25,1.25c0,0.69036 -0.55964,1.25 -1.25,1.25c-0.69036,0 -1.25,-0.55964 -1.25,-1.25z" data-paper-data="{&quot;origPos&quot;:null}" fill="#8a8e17" stroke="none" stroke-width="0.5"/><path d="M237.04101,180.34285c0,-0.69036 0.55964,-1.25 1.25,-1.25c0.69036,0 1.25,0.55964 1.25,1.25c0,0.69036 -0.55964,1.25 -1.25,1.25c-0.69036,0 -1.25,-0.55964 -1.25,-1.25z" data-paper-data="{&quot;origPos&quot;:null}" fill="#8a8e17" stroke="none" stroke-width="0.5"/><path d="M253.87434,188.50952c0,-0.69036 0.55964,-1.25 1.25,-1.25c0.69036,0 1.25,0.55964 1.25,1.25c0,0.69036 -0.55964,1.25 -1.25,1.25c-0.69036,0 -1.25,-0.55964 -1.25,-1.25z" data-paper-data="{&quot;origPos&quot;:null}" fill="#8a8e17" stroke="none" stroke-width="0.5"/><path d="M239.54101,161.84285c0,-0.69036 0.55964,-1.25 1.25,-1.25c0.69036,0 1.25,0.55964 1.25,1.25c0,0.69036 -0.55964,1.25 -1.25,1.25c-0.69036,0 -1.25,-0.55964 -1.25,-1.25z" data-paper-data="{&quot;origPos&quot;:null}" fill="#8a8e17" stroke="none" stroke-width="0.5"/><path d="M256.70768,165.34285c0,-0.69036 0.55964,-1.25 1.25,-1.25c0.69035,0 1.25,0.55964 1.25,1.25c0,0.69036 -0.55965,1.25 -1.25,1.25c-0.69036,0 -1.25,-0.55964 -1.25,-1.25z" data-paper-data="{&quot;origPos&quot;:null}" fill="#8a8e17" stroke="none" stroke-width="0.5"/><path d="M238.28731,170.11284c0,-0.69036 0.55964,-1.25 1.25,-1.25c0.69036,0 1.25,0.55964 1.25,1.25c0,0.69036 -0.55964,1.25 -1.25,1.25c-0.69036,0 -1.25,-0.55964 -1.25,-1.25z" fill="#8a8e17" stroke="none" stroke-width="0.5"/><path d="M247.78731,172.86284c0,-0.69036 0.55964,-1.25 1.25,-1.25c0.69036,0 1.25,0.55964 1.25,1.25c0,0.69036 -0.55964,1.25 -1.25,1.25c-0.69036,0 -1.25,-0.55964 -1.25,-1.25z" fill="#8a8e17" stroke="none" stroke-width="0.5"/><path d="M244.78731,188.86284c0,-0.69036 0.55964,-1.25 1.25,-1.25c0.69036,0 1.25,0.55964 1.25,1.25c0,0.69036 -0.55964,1.25 -1.25,1.25c-0.69036,0 -1.25,-0.55964 -1.25,-1.25z" fill="#8a8e17" stroke="none" stroke-width="0.5"/></g><path d="M231.67491,170.3618l-8.8259,-13.74947l15.10123,5.96357c0,0 -1.00479,3.1058 -2.2293,4.62508c-1.22451,1.51927 -4.04602,3.16082 -4.04602,3.16082z" data-paper-data="{&quot;origPos&quot;:null,&quot;origRot&quot;:0}" fill="url(#color-13)" stroke="#218300" stroke-width="1" stroke-linecap="round"/><path d="M249.00376,166.35962l7.90597,-1.22142l-1.94076,7.55945c0,0 -2.55804,-1.23632 -3.72204,-2.47307c-1.164,-1.23675 -2.24316,-3.86496 -2.24316,-3.86496z" data-paper-data="{&quot;origPos&quot;:null,&quot;origRot&quot;:0,&quot;index&quot;:null}" fill="url(#color-14)" stroke="#218300" stroke-width="1" stroke-linecap="round"/><path d="M255.12434,180.86233l8.8259,13.74947l-15.10123,-5.96357c0,0 1.00479,-3.1058 2.2293,-4.62508c1.22451,-1.51927 4.04602,-3.16082 4.04602,-3.16082z" data-paper-data="{&quot;origPos&quot;:null,&quot;origRot&quot;:0,&quot;index&quot;:null}" fill="url(#color-15)" stroke="#218300" stroke-width="1" stroke-linecap="round"/></g><g data-paper-data="{&quot;origPos&quot;:null}"><path d="M228.65527,151.82196l-13.53736,6.26356l7.28032,-12.91166c0,0 2.68319,1.2968 3.90413,2.59406c1.22095,1.29725 2.35291,4.05404 2.35291,4.05404z" data-paper-data="{&quot;origPos&quot;:null,&quot;origRot&quot;:0,&quot;index&quot;:null}" fill="url(#color-16)" stroke="#218300" stroke-width="1" stroke-linecap="round"/><path d="M244.56797,147.76792c1.22095,-1.29725 3.90413,-2.59406 3.90413,-2.59406l7.28032,12.91166l-13.53736,-6.26356c0,0 1.13196,-2.75679 2.35291,-4.05404z" data-paper-data="{&quot;origPos&quot;:null,&quot;origRot&quot;:0,&quot;index&quot;:null}" fill="url(#color-17)" stroke="#218300" stroke-width="1" stroke-linecap="round"/><path d="M223.85488,128.82435c-1.22095,1.29725 -3.90413,2.59406 -3.90413,2.59406l-7.28032,-12.91166l13.53736,6.26356c0,0 -1.13196,2.75679 -2.35291,4.05404z" data-paper-data="{&quot;origPos&quot;:null,&quot;origRot&quot;:0,&quot;index&quot;:null}" fill="url(#color-18)" stroke="#218300" stroke-width="1" stroke-linecap="round"/><path d="M243.61363,125.11995l13.53736,-6.26356l-7.28032,12.91166c0,0 -2.68319,-1.2968 -3.90413,-2.59406c-1.22095,-1.29725 -2.35291,-4.05404 -2.35291,-4.05404z" data-paper-data="{&quot;origPos&quot;:null,&quot;origRot&quot;:0}" fill="url(#color-19)" stroke="#218300" stroke-width="1" stroke-linecap="round"/><path d="M215.86347,141.32782c0,-10.5828 8.57906,-19.16185 19.16185,-19.16185c10.5828,0 19.16185,8.57906 19.16185,19.16185c0,10.5828 -8.57906,19.16185 -19.16185,19.16185c-10.5828,0 -19.16185,-8.57906 -19.16185,-19.16185z" data-paper-data="{&quot;origPos&quot;:null}" fill="url(#color-20)" stroke="#8a8e17" stroke-width="1" stroke-linecap="butt"/><path d="M245.75984,149.7038c0,0 -6.31951,7.4851 -11.10574,7.4851c-4.78623,0 -11.28056,-8.04417 -11.28056,-8.04417c0,0 6.64474,3.36041 11.43097,3.36041c4.78623,0 10.95532,-2.80134 10.95532,-2.80134z" data-paper-data="{&quot;origPos&quot;:null}" fill="#000000" stroke="none" stroke-width="0" stroke-linecap="butt"/><path d="M231.9987,136.13317c0,3.06812 -1.57918,5.55533 -3.5272,5.55533c-1.94802,0 -3.52719,-2.4872 -3.52719,-5.55533c0,-3.06812 1.57917,-5.55533 3.52719,-5.55533c1.94802,0 3.5272,2.4872 3.5272,5.55533z" data-paper-data="{&quot;origPos&quot;:null}" fill="#000000" stroke="#000000" stroke-width="3" stroke-linecap="butt"/><path d="M245.08473,136.33728c0,3.06812 -1.57918,5.55533 -3.5272,5.55533c-1.94802,0 -3.52719,-2.4872 -3.52719,-5.55533c0,-3.06812 1.57917,-5.55533 3.52719,-5.55533c1.94802,0 3.5272,2.4872 3.5272,5.55533z" data-paper-data="{&quot;origPos&quot;:null}" fill="#000000" stroke="#000000" stroke-width="3" stroke-linecap="butt"/><path d="M237.98358,155.52719c0,0.88931 -1.44186,1.61024 -3.22048,1.61024c-1.77862,0 -3.22048,-0.72093 -3.22048,-1.61024c0,-0.88931 1.44186,-1.61024 3.22048,-1.61024c1.77862,0 3.22048,0.72092 3.22048,1.61024z" data-paper-data="{&quot;origPos&quot;:null}" fill="#ff0000" stroke="none" stroke-width="0" stroke-linecap="butt"/><path d="M225.34027,147.79242c0,0 -0.73803,1.45534 -1.41182,1.78261c-0.75896,0.36864 -2.25941,0.00056 -2.25941,0.00056" data-paper-data="{&quot;origPos&quot;:null}" fill="none" stroke="#000000" stroke-width="1.5" stroke-linecap="round"/><path d="M247.28335,150.38101c0,0 -1.50045,0.36808 -2.25941,-0.00056c-0.67379,-0.32727 -1.41182,-1.78261 -1.41182,-1.78261" data-paper-data="{&quot;origPos&quot;:null,&quot;index&quot;:null}" fill="none" stroke="#000000" stroke-width="1.5" stroke-linecap="round"/><path d="M218.65339,144.07737c0,-0.72413 0.58702,-1.31115 1.31115,-1.31115c0.72413,0 1.31115,0.58702 1.31115,1.31115c0,0.72413 -0.58702,1.31115 -1.31115,1.31115c-0.72413,0 -1.31115,-0.58702 -1.31115,-1.31115z" fill="#8a8e17" stroke="none" stroke-width="0.5" stroke-linecap="butt"/><path d="M236.65989,127.64426c0,-0.72413 0.58702,-1.31115 1.31115,-1.31115c0.72413,0 1.31115,0.58702 1.31115,1.31115c0,0.72413 -0.58702,1.31115 -1.31115,1.31115c-0.72413,0 -1.31115,-0.58702 -1.31115,-1.31115z" fill="#8a8e17" stroke="none" stroke-width="0.5" stroke-linecap="butt"/><path d="M247.32393,146.35004c0,-0.72413 0.58702,-1.31115 1.31115,-1.31115c0.72413,0 1.31115,0.58702 1.31115,1.31115c0,0.72413 -0.58702,1.31115 -1.31115,1.31115c-0.72413,0 -1.31115,-0.58702 -1.31115,-1.31115z" fill="#8a8e17" stroke="none" stroke-width="0.5" stroke-linecap="butt"/><path d="M235.43615,146.17522c0,-0.72413 0.58702,-1.31115 1.31115,-1.31115c0.72413,0 1.31115,0.58702 1.31115,1.31115c0,0.72413 -0.58702,1.31115 -1.31115,1.31115c-0.72413,0 -1.31115,-0.58702 -1.31115,-1.31115z" data-paper-data="{&quot;origPos&quot;:null}" fill="#8a8e17" stroke="none" stroke-width="0.5" stroke-linecap="butt"/><path d="M248.7225,139.00758c0,-0.72413 0.58702,-1.31115 1.31115,-1.31115c0.72413,0 1.31115,0.58702 1.31115,1.31115c0,0.72413 -0.58702,1.31115 -1.31115,1.31115c-0.72413,0 -1.31115,-0.58702 -1.31115,-1.31115z" fill="#8a8e17" stroke="none" stroke-width="0.5" stroke-linecap="butt"/><path d="M224.24764,154.56659c0,-0.72413 0.58702,-1.31115 1.31115,-1.31115c0.72413,0 1.31115,0.58702 1.31115,1.31115c0,0.72413 -0.58702,1.31115 -1.31115,1.31115c-0.72413,0 -1.31115,-0.58702 -1.31115,-1.31115z" fill="#8a8e17" stroke="none" stroke-width="0.5" stroke-linecap="butt"/><path d="M225.64621,145.65076c0,-0.72413 0.58702,-1.31115 1.31115,-1.31115c0.72413,0 1.31115,0.58702 1.31115,1.31115c0,0.72413 -0.58702,1.31115 -1.31115,1.31115c-0.72413,0 -1.31115,-0.58702 -1.31115,-1.31115z" fill="#8a8e17" stroke="none" stroke-width="0.5" stroke-linecap="butt"/><path d="M243.30306,154.21696c0,-0.72413 0.58702,-1.31115 1.31115,-1.31115c0.72413,0 1.31115,0.58702 1.31115,1.31115c0,0.72413 -0.58702,1.31115 -1.31115,1.31115c-0.72413,0 -1.31115,-0.58702 -1.31115,-1.31115z" fill="#8a8e17" stroke="none" stroke-width="0.5" stroke-linecap="butt"/><path d="M228.26851,126.24569c0,-0.72413 0.58702,-1.31115 1.31115,-1.31115c0.72413,0 1.31115,0.58702 1.31115,1.31115c0,0.72413 -0.58702,1.31115 -1.31115,1.31115c-0.72413,0 -1.31115,-0.58702 -1.31115,-1.31115z" fill="#8a8e17" stroke="none" stroke-width="0.5" stroke-linecap="butt"/><path d="M246.27501,129.91692c0,-0.72413 0.58702,-1.31115 1.31115,-1.31115c0.72413,0 1.31115,0.58702 1.31115,1.31115c0,0.72413 -0.58702,1.31115 -1.31115,1.31115c-0.72413,0 -1.31115,-0.58702 -1.31115,-1.31115z" fill="#8a8e17" stroke="none" stroke-width="0.5" stroke-linecap="butt"/><path d="M229.78071,123.1465l5.41943,-16.2583l5.06979,16.2583c0,0 -3.19783,1.22375 -5.24461,1.22375c-2.04678,0 -5.24461,-1.22375 -5.24461,-1.22375z" data-paper-data="{&quot;origPos&quot;:null}" fill="url(#color-21)" stroke="#218300" stroke-width="1" stroke-linecap="round"/></g></g></g></svg>