<svg version="1.1" xmlns="http://www.w3.org/2000/svg" xmlns:xlink="http://www.w3.org/1999/xlink" width="282.27686" height="157.13176" viewBox="0,0,282.27686,157.13176"><defs><linearGradient x1="357.1857" y1="177.50662" x2="357.1857" y2="196.59152" gradientUnits="userSpaceOnUse" id="color-1"><stop offset="0" stop-color="#d21515"/><stop offset="1" stop-color="#940000"/></linearGradient><linearGradient x1="346.07745" y1="217.1446" x2="346.07745" y2="252.9192" gradientUnits="userSpaceOnUse" id="color-2"><stop offset="0" stop-color="#364ec7"/><stop offset="1" stop-color="#001371"/></linearGradient><linearGradient x1="356.49042" y1="243.2313" x2="356.49042" y2="259.5732" gradientUnits="userSpaceOnUse" id="color-3"><stop offset="0" stop-color="#a6680a"/><stop offset="1" stop-color="#6c4306"/></linearGradient><linearGradient x1="330.57516" y1="165.58105" x2="330.57516" y2="224.78101" gradientUnits="userSpaceOnUse" id="color-4"><stop offset="0" stop-color="#364ec7"/><stop offset="1" stop-color="#001371"/></linearGradient><linearGradient x1="332.16483" y1="170.89431" x2="332.16483" y2="191.4161" gradientUnits="userSpaceOnUse" id="color-5"><stop offset="0" stop-color="#d21515"/><stop offset="1" stop-color="#940000"/></linearGradient><linearGradient x1="330.51095" y1="129.59665" x2="330.51095" y2="180.2091" gradientUnits="userSpaceOnUse" id="color-6"><stop offset="0" stop-color="#ffefc0"/><stop offset="1" stop-color="#e0ce98"/></linearGradient><linearGradient x1="330.63481" y1="110.66052" x2="330.63481" y2="144.57001" gradientUnits="userSpaceOnUse" id="color-7"><stop offset="0" stop-color="#d21515"/><stop offset="1" stop-color="#940000"/></linearGradient><linearGradient x1="348.2489" y1="131.05436" x2="348.2489" y2="138.71789" gradientUnits="userSpaceOnUse" id="color-8"><stop offset="0" stop-color="#d21515"/><stop offset="1" stop-color="#940000"/></linearGradient><linearGradient x1="356.99924" y1="152.17124" x2="356.99924" y2="168.88114" gradientUnits="userSpaceOnUse" id="color-9"><stop offset="0" stop-color="#ffefc0"/><stop offset="1" stop-color="#e0ce98"/></linearGradient><linearGradient x1="307.75292" y1="144.50648" x2="307.75292" y2="155.81043" gradientUnits="userSpaceOnUse" id="color-10"><stop offset="0" stop-color="#ffefc0"/><stop offset="1" stop-color="#e0ce98"/></linearGradient><linearGradient x1="313.99681" y1="214.28001" x2="313.99681" y2="249.57696" gradientUnits="userSpaceOnUse" id="color-11"><stop offset="0" stop-color="#364ec7"/><stop offset="1" stop-color="#001371"/></linearGradient><linearGradient x1="308.92111" y1="241.96277" x2="308.92111" y2="259.90219" gradientUnits="userSpaceOnUse" id="color-12"><stop offset="0" stop-color="#a6680a"/><stop offset="1" stop-color="#6c4306"/></linearGradient><linearGradient x1="303.56437" y1="177.64205" x2="303.56437" y2="195.05036" gradientUnits="userSpaceOnUse" id="color-13"><stop offset="0" stop-color="#d21515"/><stop offset="1" stop-color="#940000"/></linearGradient><linearGradient x1="160.77596" y1="214.76199" x2="170.55241" y2="249.04995" gradientUnits="userSpaceOnUse" id="color-14"><stop offset="0" stop-color="#364ec7"/><stop offset="1" stop-color="#001371"/></linearGradient><linearGradient x1="172.16558" y1="241.87803" x2="175.8587" y2="254.83056" gradientUnits="userSpaceOnUse" id="color-15"><stop offset="0" stop-color="#a6680a"/><stop offset="1" stop-color="#6c4205"/></linearGradient><linearGradient x1="167.4382" y1="168.87021" x2="176.05875" y2="197.607" gradientUnits="userSpaceOnUse" id="color-16"><stop offset="0" stop-color="#20de16"/><stop offset="1" stop-color="#158e0e"/></linearGradient><linearGradient x1="151.0723" y1="163.50771" x2="151.0723" y2="221.91733" gradientUnits="userSpaceOnUse" id="color-17"><stop offset="0" stop-color="#364ec7"/><stop offset="1" stop-color="#001371"/></linearGradient><linearGradient x1="152.51259" y1="167.68938" x2="152.51259" y2="188.34112" gradientUnits="userSpaceOnUse" id="color-18"><stop offset="0" stop-color="#20de16"/><stop offset="1" stop-color="#158e0e"/></linearGradient><linearGradient x1="141.88861" y1="213.05599" x2="132.75039" y2="247.22574" gradientUnits="userSpaceOnUse" id="color-19"><stop offset="0" stop-color="#364ec7"/><stop offset="1" stop-color="#001371"/></linearGradient><linearGradient x1="134.12885" y1="242.37813" x2="130.74766" y2="255.0211" gradientUnits="userSpaceOnUse" id="color-20"><stop offset="0" stop-color="#a6680a"/><stop offset="1" stop-color="#6c4205"/></linearGradient><linearGradient x1="132.12111" y1="167.80784" x2="127.14721" y2="195.68646" gradientUnits="userSpaceOnUse" id="color-21"><stop offset="0" stop-color="#20de16"/><stop offset="1" stop-color="#158e0e"/></linearGradient><linearGradient x1="152.3245" y1="120.64617" x2="152.3245" y2="173.0217" gradientUnits="userSpaceOnUse" id="color-22"><stop offset="0" stop-color="#ffefc0"/><stop offset="1" stop-color="#e0ce98"/></linearGradient><linearGradient x1="151.28018" y1="104.00884" x2="151.28018" y2="135.98956" gradientUnits="userSpaceOnUse" id="color-23"><stop offset="0" stop-color="#20de16"/><stop offset="1" stop-color="#158e0e"/></linearGradient><linearGradient x1="165.24264" y1="122.95968" x2="165.24264" y2="130.81259" gradientUnits="userSpaceOnUse" id="color-24"><stop offset="0" stop-color="#20de16"/><stop offset="1" stop-color="#158e0e"/></linearGradient><linearGradient x1="175.78201" y1="143.77863" x2="175.78201" y2="161.15763" gradientUnits="userSpaceOnUse" id="color-25"><stop offset="0" stop-color="#ffefc0"/><stop offset="1" stop-color="#e0ce98"/></linearGradient></defs><g transform="translate(-103.63898,-103.50883)"><g data-paper-data="{&quot;isPaintingLayer&quot;:true}" fill-rule="nonzero" stroke-linejoin="miter" stroke-miterlimit="10" stroke-dasharray="" stroke-dashoffset="0" style="mix-blend-mode: normal"><g data-paper-data="{&quot;origPos&quot;:null,&quot;origRot&quot;:0}" stroke-width="1.5" stroke-linecap="butt"><path d="M341.43833,179.47744c1.54198,-3.20704 9.84237,-2.41691 18.5394,1.76478c8.69703,4.18169 14.49733,10.17143 12.95533,13.37847c-1.542,3.20704 -9.84238,2.41694 -18.5394,-1.76477c-8.69703,-4.18169 -14.49734,-10.17145 -12.95533,-13.37848z" data-paper-data="{&quot;origRot&quot;:0,&quot;origPos&quot;:null,&quot;index&quot;:null}" fill="url(#color-1)" stroke="#940000"/><path d="M370.51577,187.3379c5.08324,-2.37132 11.18837,-0.03994 13.63617,5.20727c2.44781,5.24721 0.31137,11.42325 -4.77187,13.79456c-5.08322,2.3713 -11.18837,0.03994 -13.63617,-5.20727c-2.44781,-5.24721 -0.31136,-11.42325 4.77187,-13.79456z" data-paper-data="{&quot;origPos&quot;:null,&quot;index&quot;:null}" fill="#ffffff" stroke="#bfbfbf"/></g><g data-paper-data="{&quot;origPos&quot;:null,&quot;origRot&quot;:0}" stroke-width="1.5" stroke-linecap="butt"><path d="M355.04422,229.76051c1.54046,3.13892 2.76464,9.17532 3.50169,12.59324c1.05999,4.91549 -0.44277,6.28045 -5.10021,8.5268c-4.6782,2.25638 -5.90628,3.34673 -9.16024,-0.53718c-2.23812,-2.67141 -2.71758,-10.22595 -4.24816,-13.34474c-4.51976,-9.20974 -9.34255,-14.67923 -5.13543,-16.7084c0,0 6.98157,-2.72897 8.92348,-1.64873c0,0 2.48608,-2.9212 4.65877,-0.602c2.18771,2.33527 2.04034,2.51126 6.56009,11.721z" data-paper-data="{&quot;origPos&quot;:null,&quot;origRot&quot;:0}" fill="url(#color-2)" stroke="#001371"/><path d="M363.61256,244.55878c5.72829,1.3955 4.99848,5.78946 3.16867,8.10741c-2.21576,2.80686 -10.97514,6.81252 -16.33394,6.90351c-5.35878,0.09099 -4.02763,-1.60827 -4.84795,-3.21929c-1.82387,-3.58185 -0.39975,-7.84112 6.39925,-11.01638c6.799,-3.17527 5.8857,-2.17074 11.61398,-0.77525z" data-paper-data="{&quot;origPos&quot;:null,&quot;origRot&quot;:0}" fill="url(#color-3)" stroke="#6c4306"/></g><path d="" data-paper-data="{&quot;origPos&quot;:null}" fill="#c1770b" stroke="#6c4306" stroke-width="1.5" stroke-linecap="butt"/><g data-paper-data="{&quot;origPos&quot;:null}" stroke-linecap="butt"><path d="M349.4692,195.85576c0,9.26372 2.84091,18.23837 -2.69239,25.3177c-3.54659,4.53753 -10.70286,3.50701 -16.20164,3.50701c-5.49877,0 -12.65505,0.73766 -16.20165,-3.79985c-5.5333,-7.07933 -2.69238,-15.76114 -2.69238,-25.02485c0,-15.91945 8.45914,-28.82471 18.89403,-28.82471c0,0 11.73737,-4.40076 15.22571,2.13104c3.4719,6.50102 3.66832,10.77421 3.66832,26.69366z" data-paper-data="{&quot;origPos&quot;:null}" fill="url(#color-4)" stroke="#001371" stroke-width="1.5"/><path d="M339.55212,179.53214c0,2.68857 1.31009,7.12666 -0.34219,8.97831c-1.7848,2.00015 -3.67346,2.91985 -6.1351,2.90548c-2.72608,-0.01592 -4.60612,-1.00217 -6.88148,-2.77355c-2.33853,-1.82055 -1.87025,-5.80478 -1.87025,-9.11024c0,-4.77054 3.40914,-8.63783 7.61452,-8.63783c4.20537,0 7.61451,3.8673 7.61451,8.63783z" data-paper-data="{&quot;origPos&quot;:null}" fill="url(#color-5)" stroke="none" stroke-width="0"/><path d="M324.91458,187.68768c0,2.23365 -1.96162,4.0444 -4.38142,4.0444c-2.4198,0 -4.38143,-1.81074 -4.38143,-4.0444c0,-2.23365 1.96163,-4.04439 4.38143,-4.04439c2.4198,0 4.38142,1.81074 4.38142,4.04439z" data-paper-data="{&quot;origPos&quot;:null}" fill="#faff66" stroke="none" stroke-width="1.5"/><path d="M348.41589,187.13296c0,2.17864 -1.9133,3.94477 -4.2735,3.94477c-2.36019,0 -4.2735,-1.76612 -4.2735,-3.94477c0,-2.17864 1.91331,-3.94477 4.2735,-3.94477c2.36019,0 4.2735,1.76612 4.2735,3.94477z" data-paper-data="{&quot;origPos&quot;:null}" fill="#faff66" stroke="none" stroke-width="1.5"/></g><g data-paper-data="{&quot;origPos&quot;:null}"><path d="M360.6324,155.98587c0,13.37811 -13.73475,24.22323 -28.56379,24.22323c-14.82904,0 -31.67913,-11.007 -31.67913,-24.38512c0,-4.84199 0.68944,-17.04147 3.19789,-21.12167c5.78078,-9.40291 17.74496,-2.93967 28.48124,-2.93967c0,0 17.47791,-4.07051 23.38966,4.87354c2.80538,4.24433 5.17415,5.97157 5.17415,19.34969z" data-paper-data="{&quot;origPos&quot;:null}" fill="url(#color-6)" stroke="#e0ce98" stroke-width="1" stroke-linecap="butt"/><path d="M358.50909,128.8602c8.09723,14.22755 -29.33424,10.83219 -31.98263,12.69652c-2.60107,1.83102 -0.81879,7.42841 -3.96033,7.42841c-4.40313,0 -9.25612,0.71417 -10.46658,5.11413c-0.70052,2.54638 2.60132,7.50047 0.13667,8.17316c-2.42796,0.66268 -4.70501,2.65189 -7.21096,2.80494c-2.03236,0.12412 -2.35905,-1.8961 -4.39469,-1.9276c-5.79716,-0.08972 0.78824,-11.96655 0.9253,-12.58939c0.04568,-0.20761 -1.20602,-4.44904 -1.20602,-6.50931c0,-11.17434 10.77902,-17.11649 17.8548,-17.11649c7.07578,0 32.2072,-12.30192 40.30444,1.92563z" data-paper-data="{&quot;origPos&quot;:null}" fill="#5a3413" stroke="#351c06" stroke-width="1" stroke-linecap="butt"/><path d="M357.91427,168.43729c0,0.93673 -1.03545,2.26869 -1.13658,3.19959c-0.21477,1.97699 -1.58685,3.01897 -3.51269,3.10762c-2.12553,0.09786 -3.01604,-2.04326 -5.14035,-2.16621c-1.47465,-0.08537 -1.53991,1.74597 -3.01688,1.74597c-1.60871,0 -1.59206,-1.47457 -3.17663,-1.76096c-2.16384,-0.39108 -2.86624,1.73159 -4.82742,0.71024c-1.02557,-0.53411 -2.61762,-2.77623 -3.25007,-3.76589c-2.00221,-3.13303 -6.90647,-7.24457 -2.50601,-8.38529c2.1651,-0.56126 8.33282,5.18914 10.56518,5.18914c0,0 3.73999,-0.01695 5.59794,0.08157c4.21276,0.22336 10.4035,-2.38936 10.4035,2.04422z" data-paper-data="{&quot;origPos&quot;:null}" fill="#5a3413" stroke="#351c06" stroke-width="1" stroke-linecap="butt"/><path d="M361.87853,131.32832c0,10.22611 -12.29169,3.93148 -29.30368,3.93148c-4.11857,0 -9.56963,8.43304 -13.688,8.3958c-5.83861,-0.05278 -13.19319,2.54455 -17.80513,-0.78743c-3.25572,-2.35216 -0.80907,-7.7045 -0.80907,-11.53986c0,-8.66476 9.69318,-8.78997 18.09413,-12.52798c6.1066,-2.71713 5.93994,-7.5099 12.70881,-7.5099c0,0 13.85643,-1.8789 21.91934,0.85332c9.12834,3.09325 8.8836,8.95845 8.8836,19.18456z" data-paper-data="{&quot;origPos&quot;:null}" fill="url(#color-7)" stroke="#940000" stroke-width="1" stroke-linecap="butt"/><path d="M372.37333,137.14558c0,3.36409 -10.25569,0.28331 -23.57925,0.28331c-13.32355,0 -24.66962,3.08078 -24.66962,-0.28331c0,-3.36409 10.80087,-6.09122 24.12443,-6.09122c13.32355,0 24.12443,2.72713 24.12443,6.09122z" data-paper-data="{&quot;origPos&quot;:null}" fill="url(#color-8)" stroke="#940000" stroke-width="1" stroke-linecap="butt"/><path d="M356.48394,125.00477c0,2.07307 0.30737,3.50338 -1.23203,4.82162c-1.32872,1.13783 -8.88182,0.83961 -10.13715,-0.07455c-1.7882,-1.30221 -1.07033,-2.47775 -1.07033,-4.74707c0,-3.38707 2.78469,-6.13285 6.21977,-6.13285c3.43508,0 6.21976,2.74578 6.21976,6.13285z" data-paper-data="{&quot;origPos&quot;:null}" fill="#ffffff" stroke="#a4a4a4" stroke-width="1" stroke-linecap="butt"/><path d="M348.88145,149.83591c0,3.99999 -2.08558,7.24263 -4.65827,7.24263c-2.57269,0 -4.65827,-3.24264 -4.65827,-7.24263c0,-3.99999 2.08558,-7.24264 4.65827,-7.24264c2.57269,0 4.65827,3.24264 4.65827,7.24264z" data-paper-data="{&quot;origPos&quot;:null}" fill="#ffffff" stroke="none" stroke-width="0" stroke-linecap="butt"/><path d="M346.59388,127.89745l1.71344,-5.34246l2.02498,3.56164l1.55767,-3.72353l2.3365,5.01868" data-paper-data="{&quot;origPos&quot;:null}" fill="none" stroke="#ba0000" stroke-width="1" stroke-linecap="round"/><path d="M340.53295,141.87833c0,0 3.51435,-0.56784 4.22549,-0.44572c1.27172,0.21838 3.47173,1.77246 3.47173,1.77246" data-paper-data="{&quot;origPos&quot;:null,&quot;origRot&quot;:0}" fill="none" stroke="#351c06" stroke-width="1.5" stroke-linecap="round"/><path d="M348.90994,149.52473c0,2.65462 -1.3841,4.8066 -3.09148,4.8066c-1.70738,0 -3.09148,-2.152 -3.09148,-4.8066c0,-2.65462 1.38411,-4.8066 3.09148,-4.8066c1.70738,0 3.09148,2.152 3.09148,4.8066z" data-paper-data="{&quot;origPos&quot;:null}" fill="#1121d4" stroke="none" stroke-width="0" stroke-linecap="butt"/><path d="M348.97722,149.38514c0,1.37271 -0.71572,2.4855 -1.59861,2.4855c-0.8829,0 -1.59861,-1.1128 -1.59861,-2.4855c0,-1.37271 0.71573,-2.4855 1.59861,-2.4855c0.8829,0 1.59861,1.1128 1.59861,2.4855z" data-paper-data="{&quot;origPos&quot;:null}" fill="#000000" stroke="none" stroke-width="0" stroke-linecap="butt"/><path d="M355.16295,141.96594c2.13325,0 3.8626,2.68875 3.8626,6.0055c0,3.31675 -1.72934,6.0055 -3.8626,6.0055c-2.13325,0 -3.8626,-2.68875 -3.8626,-6.0055c0,-3.31675 1.72934,-6.0055 3.8626,-6.0055z" data-paper-data="{&quot;origPos&quot;:null,&quot;index&quot;:null}" fill="#ffffff" stroke="none" stroke-width="0" stroke-linecap="butt"/><path d="M352.17604,142.37996c0,0 1.82422,-1.28863 2.87872,-1.46971c0.58967,-0.10126 3.50373,0.36959 3.50373,0.36959" data-paper-data="{&quot;origPos&quot;:null,&quot;origRot&quot;:0,&quot;index&quot;:null}" fill="none" stroke="#351c06" stroke-width="1.5" stroke-linecap="round"/><path d="M356.58257,143.84529c1.41573,0 2.56343,1.78441 2.56343,3.98557c0,2.20117 -1.14768,3.98557 -2.56343,3.98557c-1.41573,0 -2.56342,-1.78441 -2.56342,-3.98557c0,-2.20117 1.14768,-3.98557 2.56342,-3.98557z" data-paper-data="{&quot;origPos&quot;:null,&quot;index&quot;:null}" fill="#1121d4" stroke="none" stroke-width="0" stroke-linecap="butt"/><path d="M357.92058,145.77634c0.73209,0 1.32555,0.92272 1.32555,2.06095c0,1.13824 -0.59347,2.06095 -1.32555,2.06095c-0.73209,0 -1.32554,-0.92272 -1.32554,-2.06095c0,-1.13824 0.59347,-2.06095 1.32554,-2.06095z" data-paper-data="{&quot;origPos&quot;:null,&quot;index&quot;:null}" fill="#000000" stroke="none" stroke-width="0" stroke-linecap="butt"/><path d="M368.98693,160.52619c0,4.61431 -5.36707,8.35495 -11.98769,8.35495c-6.62061,0 -11.98769,-3.74063 -11.98769,-8.35495c0,-4.61431 5.36707,-8.35495 11.98769,-8.35495c6.62061,0 11.98769,3.74063 11.98769,8.35495z" data-paper-data="{&quot;origPos&quot;:null}" fill="url(#color-9)" stroke="#e0ce98" stroke-width="1.5" stroke-linecap="butt"/><path d="M314.73522,152.57742c-0.90455,2.82035 -4.76391,4.0237 -8.62013,2.68774c-3.85623,-1.33596 -6.24902,-4.70531 -5.34448,-7.52567c0.90455,-2.82035 4.76391,-4.0237 8.62013,-2.68774c3.85623,1.33596 6.24902,4.70531 5.34448,7.52567z" data-paper-data="{&quot;origRot&quot;:0,&quot;origPos&quot;:null}" fill="url(#color-10)" stroke="#e0ce98" stroke-width="1.5" stroke-linecap="butt"/></g><g data-paper-data="{&quot;origPos&quot;:null,&quot;origRot&quot;:0}" stroke-width="1.5" stroke-linecap="butt"><path d="M324.16165,235.67944c-1.33775,3.17785 -5.06304,7.99592 -7.14326,10.75664c-2.99167,3.97035 -5.01416,3.73587 -9.79113,1.72496c-4.79827,-2.01987 -6.4322,-2.22775 -5.67081,-7.16262c0.52371,-3.39427 5.88392,-8.64096 7.21308,-11.79844c3.925,-9.32395 4.83779,-16.45229 9.1529,-14.6358c0,0 6.68096,3.4276 7.15679,5.57156c1.37201,6.18176 3.00742,6.21974 -0.91759,15.5437z" data-paper-data="{&quot;origPos&quot;:null}" fill="url(#color-11)" stroke="#001371"/><path d="M319.95595,251.81943c2.75387,5.36488 -1.26133,7.86209 -4.35617,8.07116c-3.74763,0.25317 -12.87968,-3.67904 -16.57521,-7.7263c-3.69552,-4.04725 -1.43367,-4.2084 -0.69696,-5.95847c1.63797,-3.89103 6.01455,-5.76193 13.15579,-2.75575c7.14124,3.00618 5.71868,3.00449 8.47255,8.36938z" data-paper-data="{&quot;origPos&quot;:null}" fill="url(#color-12)" stroke="#6c4306"/></g><g data-paper-data="{&quot;origPos&quot;:null,&quot;origRot&quot;:0}" stroke-width="1.5" stroke-linecap="butt"><path d="M305.86701,192.40996c-9.08181,3.4487 -17.47501,3.52962 -18.74672,0.18071c-1.27174,-3.34891 5.05962,-8.85947 14.14143,-12.30822c9.08181,-3.4487 17.47501,-3.52962 18.74672,-0.18071c1.27174,3.34891 -5.05962,8.85947 -14.14143,12.30822z" data-paper-data="{&quot;origRot&quot;:0,&quot;origPos&quot;:null}" fill="url(#color-13)" stroke="#940000"/><path d="M293.77292,199.73845c-2.90506,5.05321 -9.22849,6.86824 -14.1238,4.05395c-4.8953,-2.81427 -6.50871,-9.19213 -3.60366,-14.24534c2.90506,-5.05321 9.22849,-6.86824 14.1238,-4.05395c4.8953,2.81427 6.50871,9.19213 3.60366,14.24534z" data-paper-data="{&quot;origPos&quot;:null,&quot;origRot&quot;:0}" fill="#ffffff" stroke="#bfbfbf"/></g><path d="M172.07502,227.86555c1.28577,3.26897 2.35119,9.35505 2.98997,12.80616c0.91868,4.96322 -0.28111,6.13425 -4.02398,7.8096c-3.75956,1.68283 -4.74035,2.61508 -7.4225,-1.58514c-1.84482,-2.88897 -2.32602,-10.38432 -3.60355,-13.63233c-3.77251,-9.59129 -7.74427,-15.53393 -4.36329,-17.04732c0,0 5.61849,-1.88271 7.20391,-0.59495c0,0 1.9767,-2.59032 3.7642,-0.05575c1.79988,2.55211 1.68273,2.70844 5.45523,12.29973z" data-paper-data="{&quot;origPos&quot;:null,&quot;origRot&quot;:0}" fill="url(#color-14)" stroke="#001371" stroke-width="1.5" stroke-linecap="butt"/><path d="M180.62019,242.84494c5.00991,1.76098 4.24464,5.85409 2.56753,7.90155c-2.03086,2.47934 -9.86229,5.58458 -14.58786,5.25597c-4.72554,-0.3286 -3.50512,-1.83038 -4.18336,-3.41523c-1.50798,-3.52371 -0.13451,-7.43589 5.94607,-9.90859c6.08057,-2.47271 5.24772,-1.5947 10.25763,0.16628z" data-paper-data="{&quot;origPos&quot;:null,&quot;origRot&quot;:0}" fill="url(#color-15)" stroke="#6c4306" stroke-width="1.5" stroke-linecap="butt"/><path d="M159.02752,171.81857c1.97502,-2.68352 9.27149,0.25398 16.29708,6.56109c7.0256,6.30711 11.11989,13.59544 9.14485,16.27898c-1.97504,2.68353 -9.2715,-0.25397 -16.29708,-6.56108c-7.0256,-6.30711 -11.1199,-13.59547 -9.14484,-16.27898z" data-paper-data="{&quot;origRot&quot;:0,&quot;origPos&quot;:null,&quot;index&quot;:null}" fill="url(#color-16)" stroke="#158e0e" stroke-width="1.5" stroke-linecap="butt"/><path d="M168.19093,192.80889c0,9.32239 2.57396,18.35387 -2.43939,25.47804c-3.21333,4.56627 -9.69716,3.52922 -14.67924,3.52922c-4.98207,0 -11.4659,0.74234 -14.67924,-3.82391c-5.01335,-7.12416 -2.43939,-15.86095 -2.43939,-25.18332c0,-16.02026 7.66426,-29.25883 17.11863,-29.25883c0,0 9.72842,-0.90647 12.88897,5.6667c3.14566,6.54219 4.22966,7.57186 4.22966,23.59212z" data-paper-data="{&quot;origPos&quot;:null}" fill="url(#color-17)" stroke="#001371" stroke-width="1.5" stroke-linecap="butt"/><path d="M186.06234,186.3021c5.49914,-1.09821 10.91324,2.63856 12.09273,8.3463c1.17949,5.70776 -2.32226,11.22506 -7.8214,12.32329c-5.49912,1.0982 -10.91324,-2.63856 -12.09273,-8.3463c-1.17949,-5.70776 2.32227,-11.22507 7.8214,-12.32329z" data-paper-data="{&quot;origPos&quot;:null,&quot;index&quot;:null,&quot;origRot&quot;:0}" fill="#ffffff" stroke="#bfbfbf" stroke-width="1.5" stroke-linecap="butt"/><path d="M159.20572,176.3819c0,2.70559 1.18698,7.17179 -0.31003,9.03517c-1.61709,2.01282 -3.32827,2.93834 -5.5586,2.92388c-2.46992,-0.01602 -4.1733,-1.00852 -6.23486,-2.79111c-2.11879,-1.83208 -1.69451,-5.84154 -1.69451,-9.16793c0,-4.80075 3.0888,-8.69253 6.89902,-8.69253c3.8102,0 6.899,3.89179 6.899,8.69253z" data-paper-data="{&quot;origPos&quot;:null}" fill="url(#color-18)" stroke="none" stroke-width="0" stroke-linecap="butt"/><path d="M145.94361,184.58908c0,2.24779 -1.7773,4.07001 -3.96972,4.07001c-2.19242,0 -3.96972,-1.82221 -3.96972,-4.07001c0,-2.24779 1.7773,-4.07 3.96972,-4.07c2.19242,0 3.96972,1.82221 3.96972,4.07z" data-paper-data="{&quot;origPos&quot;:null}" fill="#faff66" stroke="none" stroke-width="1.5" stroke-linecap="butt"/><path d="M167.23659,184.03085c0,2.19244 -1.73351,3.96975 -3.87193,3.96975c-2.13841,0 -3.87194,-1.7773 -3.87194,-3.96975c0,-2.19244 1.73353,-3.96975 3.87194,-3.96975c2.13841,0 3.87193,1.7773 3.87193,3.96975z" data-paper-data="{&quot;origPos&quot;:null}" fill="#faff66" stroke="none" stroke-width="1.5" stroke-linecap="butt"/><path d="M144.90903,231.5876c-0.89702,3.35415 -3.66067,8.7569 -5.19926,11.84246c-2.21273,4.43753 -3.90096,4.58672 -7.98444,3.51589c-4.10169,-1.07561 -5.46679,-0.9731 -5.16225,-5.93565c0.20948,-3.41331 4.2971,-9.54046 5.18837,-12.8731c2.6319,-9.84122 2.91712,-16.97457 6.60579,-16.00727c0,0 5.7516,2.09853 6.28644,4.10368c1.54213,5.7815 2.89725,5.51276 0.26535,15.35399z" data-paper-data="{&quot;origPos&quot;:null,&quot;origRot&quot;:0}" fill="url(#color-19)" stroke="#001371" stroke-width="1.5" stroke-linecap="butt"/><path d="M140.85887,248.21199c2.68222,4.26645 -0.31707,7.02762 -2.7804,7.66255c-2.98291,0.76884 -10.65331,-1.31716 -13.97427,-4.29897c-3.32096,-2.98179 -1.52138,-3.45309 -1.08517,-5.08415c0.96983,-3.62641 4.31422,-5.89535 10.30639,-4.32398c5.99217,1.57136 4.85125,1.77809 7.53346,6.04455z" data-paper-data="{&quot;origPos&quot;:null,&quot;origRot&quot;:0}" fill="url(#color-20)" stroke="#6c4306" stroke-width="1.5" stroke-linecap="butt"/><path d="M133.76729,186.75389c-7.49314,6.26494 -15.41799,9.10209 -17.70065,6.33695c-2.28268,-2.76514 1.94126,-10.08547 9.43438,-16.35044c7.49314,-6.26494 15.41799,-9.10209 17.70065,-6.33695c2.28268,2.76514 -1.94126,10.08547 -9.43438,16.35044z" data-paper-data="{&quot;origRot&quot;:0,&quot;origPos&quot;:null}" fill="url(#color-21)" stroke="#158e0e" stroke-width="1.5" stroke-linecap="butt"/><path d="M124.66947,197.69748c-1.12541,5.75879 -6.53139,9.56366 -12.0746,8.4984c-5.54321,-1.06524 -9.12453,-6.59724 -7.99911,-12.35604c1.12541,-5.75879 6.53139,-9.56366 12.0746,-8.4984c5.54321,1.06524 9.12453,6.59724 7.99911,12.35604z" data-paper-data="{&quot;origPos&quot;:null,&quot;origRot&quot;:0}" fill="#ffffff" stroke="#bfbfbf" stroke-width="1.5" stroke-linecap="butt"/><path d="M177.34623,147.68751c0,9.74602 -5.14936,13.76502 -11.92352,18.78067c-4.72012,3.49483 -6.06853,6.55351 -11.57363,6.55351c-6.39728,0 -8.94794,-3.40472 -14.4308,-7.47049c-6.66848,-4.94496 -12.11553,-8.43171 -12.11553,-18.02958c0,-4.96164 0.57271,-17.46259 2.65647,-21.64362c4.80207,-9.63527 14.74065,-3.01232 23.65922,-3.01232c0,0 14.51881,-4.17109 19.42967,4.99397c2.33042,4.34922 4.29814,6.11913 4.29814,19.82785z" data-paper-data="{&quot;origPos&quot;:null}" fill="url(#color-22)" stroke="#e0ce98" stroke-width="1" stroke-linecap="butt"/><path d="M177.4394,118.97912c7.39631,15.56136 -26.79497,11.84769 -29.2141,13.88679c-2.37591,2.00267 -0.74791,8.1248 -3.6175,8.1248c-4.02198,0 -8.45488,0.78112 -9.56057,5.59357c-0.63988,2.7851 2.37615,8.20363 0.12484,8.93939c-2.2178,0.72481 -4.06937,3.17394 -6.35839,3.34133c-1.85643,0.13575 -2.3832,-2.34729 -4.24263,-2.38175c-5.29533,-0.09814 0.72001,-13.08839 0.8452,-13.76963c0.04172,-0.22708 -1.10163,-4.86613 -1.10163,-7.11954c0,-12.22192 9.84594,-18.72113 16.30923,-18.72113c6.46328,0 29.41924,-13.4552 36.81555,2.10615z" data-paper-data="{&quot;origPos&quot;:null}" fill="#c27231" stroke="#985926" stroke-width="1.5" stroke-linecap="butt"/><path d="M176.96832,160.70281c0,0.95988 -1.05436,2.58093 -1.15734,3.53483c-0.21869,2.02584 -1.61583,3.09357 -3.57684,3.18442c-2.16435,0.10028 -5.99132,-2.49128 -5.99132,-2.49128c0,0 -2.87775,1.17883 -4.82459,1.63167c-1.63184,0.37956 -4.15503,0.13082 -5.64053,-0.6477c-1.0443,-0.54731 -2.66543,-2.84484 -3.30943,-3.85895c-2.03878,-3.21045 -7.28717,-7.93595 -2.80634,-9.10485c2.20464,-0.57514 8.73957,5.57355 11.0127,5.57355c0,0 3.80829,-0.01737 5.70018,0.08359c4.2897,0.22888 10.5935,-2.44841 10.5935,2.09473z" data-paper-data="{&quot;origPos&quot;:null}" fill="#160b02" stroke="none" stroke-width="0" stroke-linecap="butt"/><path d="M179.32542,123.31416c0,9.78879 -11.03409,3.76335 -26.30554,3.76335c-3.69718,0 -8.59054,8.0724 -12.28753,8.03675c-5.24124,-0.05053 -11.84335,2.43574 -15.98343,-0.75375c-2.92262,-2.25156 -0.72629,-7.37501 -0.72629,-11.04636c0,-8.29421 8.70145,-8.41406 16.24287,-11.99222c5.48182,-2.60093 5.55662,-6.71012 11.63295,-6.71012c0,0 12.43874,-1.79855 19.6767,0.81682c8.19439,2.96096 7.75028,8.09672 7.75028,17.88551z" data-paper-data="{&quot;origPos&quot;:null}" fill="url(#color-23)" stroke="#158e0e" stroke-width="1" stroke-linecap="butt"/><path d="M189.80766,129.20143c0,3.44723 -10.44299,0.29032 -24.00988,0.29032c-13.56688,0 -25.12017,3.15691 -25.12017,-0.29032c0,-3.44723 10.99813,-6.24174 24.56502,-6.24174c13.56688,0 24.56502,2.79453 24.56502,6.24174z" data-paper-data="{&quot;origPos&quot;:null}" fill="url(#color-24)" stroke="#158e0e" stroke-width="1" stroke-linecap="butt"/><path d="M175.2573,116.35071c0,2.1243 0.31298,3.58995 -1.25453,4.94077c-1.35299,1.16595 -9.04403,0.86035 -10.32229,-0.07639c-1.82086,-1.33439 -1.08988,-2.53898 -1.08988,-4.86438c0,-3.47076 2.83555,-6.2844 6.33336,-6.2844c3.49782,0 6.33335,2.81363 6.33335,6.2844z" data-paper-data="{&quot;origPos&quot;:null}" fill="#ffffff" stroke="#a4a4a4" stroke-width="1" stroke-linecap="butt"/><path d="M167.51597,141.38559c0,4.09884 -2.12367,7.4216 -4.74334,7.4216c-2.61968,0 -4.74334,-3.32277 -4.74334,-7.4216c0,-4.09884 2.12367,-7.42161 4.74334,-7.42161c2.61968,0 4.74334,3.32277 4.74334,7.42161z" data-paper-data="{&quot;origPos&quot;:null}" fill="#ffffff" stroke="none" stroke-width="0" stroke-linecap="butt"/><path d="M159.015,133.23137c0,0 3.57853,-0.58187 4.30266,-0.45673c1.29495,0.22377 3.53513,1.81626 3.53513,1.81626" data-paper-data="{&quot;origPos&quot;:null,&quot;origRot&quot;:0}" fill="none" stroke="#351c06" stroke-width="1.5" stroke-linecap="round"/><path d="M167.54498,141.06671c0,2.72022 -1.40938,4.92538 -3.14794,4.92538c-1.73856,0 -3.14794,-2.20518 -3.14794,-4.92538c0,-2.72022 1.40939,-4.92538 3.14794,-4.92538c1.73856,0 3.14794,2.20518 3.14794,4.92538z" data-paper-data="{&quot;origPos&quot;:null}" fill="#1121d4" stroke="none" stroke-width="0" stroke-linecap="butt"/><path d="M167.61349,140.92368c0,1.40663 -0.72879,2.54692 -1.62781,2.54692c-0.89902,0 -1.62781,-1.1403 -1.62781,-2.54692c0,-1.40663 0.7288,-2.54692 1.62781,-2.54692c0.89902,0 1.62781,1.1403 1.62781,2.54692z" data-paper-data="{&quot;origPos&quot;:null}" fill="#000000" stroke="none" stroke-width="0" stroke-linecap="butt"/><path d="M173.91219,133.32114c2.17221,0 3.93314,2.75519 3.93314,6.1539c0,3.39872 -1.76092,6.1539 -3.93314,6.1539c-2.17221,0 -3.93314,-2.75519 -3.93314,-6.1539c0,-3.39872 1.76092,-6.1539 3.93314,-6.1539z" data-paper-data="{&quot;origPos&quot;:null,&quot;index&quot;:null}" fill="#ffffff" stroke="none" stroke-width="0" stroke-linecap="butt"/><path d="M170.61616,132.73708c0,0 1.85754,-1.32048 2.93129,-1.50603c0.60044,-0.10377 3.56772,0.37872 3.56772,0.37872" data-paper-data="{&quot;origPos&quot;:null,&quot;origRot&quot;:0,&quot;index&quot;:null}" fill="none" stroke="#351c06" stroke-width="1.5" stroke-linecap="round"/><path d="M175.35774,135.24693c1.44159,0 2.61025,1.82851 2.61025,4.08405c0,2.25556 -1.16864,4.08405 -2.61025,4.08405c-1.44159,0 -2.61024,-1.82851 -2.61024,-4.08405c0,-2.25556 1.16864,-4.08405 2.61024,-4.08405z" data-paper-data="{&quot;origPos&quot;:null,&quot;index&quot;:null}" fill="#1121d4" stroke="none" stroke-width="0" stroke-linecap="butt"/><path d="M176.72018,137.2257c0.74546,0 1.34976,0.94553 1.34976,2.11188c0,1.16637 -0.60431,2.11188 -1.34976,2.11188c-0.74546,0 -1.34975,-0.94553 -1.34975,-2.11188c0,-1.16637 0.60431,-2.11188 1.34975,-2.11188z" data-paper-data="{&quot;origPos&quot;:null,&quot;index&quot;:null}" fill="#000000" stroke="none" stroke-width="0" stroke-linecap="butt"/><path d="M187.98864,152.34005c0,4.72834 -5.21052,8.81759 -11.95206,8.81759c-6.74152,0 -12.46119,-4.08925 -12.46119,-8.81759c0,-4.72834 5.46509,-8.56142 12.20662,-8.56142c6.74152,0 12.20662,3.83307 12.20662,8.56142z" data-paper-data="{&quot;origPos&quot;:null}" fill="url(#color-25)" stroke="#e0ce98" stroke-width="1.5" stroke-linecap="butt"/><path d="M140.48492,146.03933c-0.92107,2.89004 -4.85091,4.12313 -8.77756,2.75416c-3.92666,-1.36898 -6.36315,-4.82159 -5.44209,-7.71164c0.92107,-2.89004 4.85091,-4.12313 8.77756,-2.75416c3.92666,1.36898 6.36315,4.82159 5.44209,7.71164z" data-paper-data="{&quot;origRot&quot;:0,&quot;origPos&quot;:null}" fill="#ffefc0" stroke="#e0ce98" stroke-width="1.5" stroke-linecap="butt"/><path d="M171.75718,119.12959l-4.53402,-0.22459l0.06825,-5.75038" data-paper-data="{&quot;origPos&quot;:null}" fill="none" stroke="#158e0e" stroke-width="1" stroke-linecap="round"/></g></g></svg>