<svg version="1.1" xmlns="http://www.w3.org/2000/svg" xmlns:xlink="http://www.w3.org/1999/xlink" width="450.65478" height="214.8913" viewBox="0,0,450.65478,214.8913"><g transform="translate(-6.90312,-183.2962)"><g data-paper-data="{&quot;isPaintingLayer&quot;:true}" fill-rule="nonzero" stroke-linecap="butt" stroke-linejoin="miter" stroke-miterlimit="10" stroke-dasharray="" stroke-dashoffset="0" style="mix-blend-mode: normal"><path d="M8.44896,394.6875v-127.1875h135.60894v127.1875z" fill="#6b6b6b" stroke="#211502" stroke-width="3"/><path d="M45.47163,312.0424l4.3713,5.76313l-13.311,2.49491l-4.37129,-5.76313z" data-paper-data="{&quot;index&quot;:null}" fill="#3c3c3c" stroke="none" stroke-width="0"/><path d="M125.07365,290.00748l-7.7057,7.29805l-13.84748,-8.36469l7.70571,-7.29805z" data-paper-data="{&quot;index&quot;:null}" fill="#3c3c3c" stroke="none" stroke-width="0"/><path d="M8.40312,265.7962v-13h32.2622v13z" fill="#444444" stroke="#000000" stroke-width="3"/><path d="M42.62061,265.7962v-13h32.2622v13z" fill="#444444" stroke="#000000" stroke-width="3"/><path d="M77.32692,265.7962v-13h32.2622v13z" fill="#444444" stroke="#000000" stroke-width="3"/><path d="M112.03322,265.7962v-13h32.2622v13z" fill="#444444" stroke="#000000" stroke-width="3"/><path d="M114.07366,341.00748l-7.7057,7.29805l-13.84748,-8.36469l7.70571,-7.29805z" data-paper-data="{&quot;index&quot;:null}" fill="#3c3c3c" stroke="none" stroke-width="0"/><path d="M286.44897,396.6875v-197.1875h169.60894v197.1875z" fill="#6b6b6b" stroke="#211502" stroke-width="3"/><path d="M323.47164,244.0424l4.3713,5.76313l-13.311,2.49491l-4.37129,-5.76313z" data-paper-data="{&quot;index&quot;:null}" fill="#3c3c3c" stroke="none" stroke-width="0"/><path d="M406.07366,235.00748l-7.7057,7.29805l-13.84748,-8.36469l7.70571,-7.29805z" data-paper-data="{&quot;index&quot;:null}" fill="#3c3c3c" stroke="none" stroke-width="0"/><path d="M286.40313,197.7962v-13h32.2622v13z" fill="#444444" stroke="#000000" stroke-width="3"/><path d="M320.62062,197.7962v-13h32.2622v13z" fill="#444444" stroke="#000000" stroke-width="3"/><path d="M355.32693,197.7962v-13h32.2622v13z" fill="#444444" stroke="#000000" stroke-width="3"/><path d="M390.03322,197.7962v-13h32.2622v13z" fill="#444444" stroke="#000000" stroke-width="3"/><path d="M363.07366,281.00748l-7.7057,7.29805l-13.84748,-8.36469l7.70571,-7.29805z" data-paper-data="{&quot;index&quot;:null}" fill="#3c3c3c" stroke="none" stroke-width="0"/><path d="M423.40313,197.7962v-13h32.2622v13z" fill="#444444" stroke="#000000" stroke-width="3"/><path d="M421.77275,297.67213l-4.85327,-9.43849l11.9019,-10.95744l4.85326,9.4385z" data-paper-data="{&quot;index&quot;:null}" fill="#3c3c3c" stroke="none" stroke-width="0"/><path d="M332.69127,341.23151l-3.8048,-9.90772l13.01639,-9.60699l3.80479,9.90773z" data-paper-data="{&quot;index&quot;:null}" fill="#3c3c3c" stroke="none" stroke-width="0"/><path d="M388.6184,347.25915l-7.88507,-7.10388l7.2424,-14.46611l7.88507,7.10389z" data-paper-data="{&quot;index&quot;:null}" fill="#3c3c3c" stroke="none" stroke-width="0"/></g></g></svg>