<svg version="1.1" xmlns="http://www.w3.org/2000/svg" xmlns:xlink="http://www.w3.org/1999/xlink" width="67.46364" height="68.59091" viewBox="0,0,67.46364,68.59091"><defs><linearGradient x1="240" y1="149" x2="240" y2="211" gradientUnits="userSpaceOnUse" id="color-1"><stop offset="0" stop-color="#ffa2a2"/><stop offset="1" stop-color="#d96767"/></linearGradient></defs><g transform="translate(-207.5,-147.5)"><g data-paper-data="{&quot;isPaintingLayer&quot;:true}" fill-rule="nonzero" stroke-linejoin="miter" stroke-miterlimit="10" stroke-dasharray="" stroke-dashoffset="0" style="mix-blend-mode: normal"><path d="M211.46364,183.59091c0,-17.12083 13.87917,-31 31,-31c17.12083,0 31,13.87917 31,31c0,17.12083 -13.87917,31 -31,31c-17.12083,0 -31,-13.87917 -31,-31z" data-paper-data="{&quot;origPos&quot;:null}" fill="#000000" stroke="#000000" stroke-width="3" stroke-linecap="butt"/><path d="M209,180c0,-17.12083 13.87917,-31 31,-31c17.12083,0 31,13.87917 31,31c0,17.12083 -13.87917,31 -31,31c-17.12083,0 -31,-13.87917 -31,-31z" data-paper-data="{&quot;origPos&quot;:null}" fill="url(#color-1)" stroke="#9f0000" stroke-width="3" stroke-linecap="butt"/><path d="M217.13401,191.94367l13.57199,-31.41665l7.03733,1.25666l3.77,8.79666l5.278,-8.294l8.04266,1.25666l6.032,29.40599l-13.32067,4.52399l-2.01067,-17.09066l-4.77533,6.28334l-5.278,-6.786l-5.02666,14.07465z" data-paper-data="{&quot;origPos&quot;:null}" fill="#d90000" stroke="#9f0000" stroke-width="3.5" stroke-linecap="round"/></g></g></svg>