<svg version="1.1" xmlns="http://www.w3.org/2000/svg" xmlns:xlink="http://www.w3.org/1999/xlink" width="295.24692" height="151.41357" viewBox="0,0,295.24692,151.41357"><defs><linearGradient x1="358.33613" y1="179.65082" x2="358.33613" y2="192.71338" gradientUnits="userSpaceOnUse" id="color-1"><stop offset="0" stop-color="#d21515"/><stop offset="1" stop-color="#940000"/></linearGradient><linearGradient x1="350.24085" y1="218.98885" x2="350.24085" y2="251.43925" gradientUnits="userSpaceOnUse" id="color-2"><stop offset="0" stop-color="#364ec7"/><stop offset="1" stop-color="#001371"/></linearGradient><linearGradient x1="366.74833" y1="237.04217" x2="366.74833" y2="257.32464" gradientUnits="userSpaceOnUse" id="color-3"><stop offset="0" stop-color="#a6680a"/><stop offset="1" stop-color="#6c4306"/></linearGradient><linearGradient x1="330.57517" y1="169.58105" x2="330.57517" y2="228.78101" gradientUnits="userSpaceOnUse" id="color-4"><stop offset="0" stop-color="#364ec7"/><stop offset="1" stop-color="#001371"/></linearGradient><linearGradient x1="332.16484" y1="174.89431" x2="332.16484" y2="195.4161" gradientUnits="userSpaceOnUse" id="color-5"><stop offset="0" stop-color="#d21515"/><stop offset="1" stop-color="#940000"/></linearGradient><linearGradient x1="330.51096" y1="132.59664" x2="330.51096" y2="183.2091" gradientUnits="userSpaceOnUse" id="color-6"><stop offset="0" stop-color="#ffefc0"/><stop offset="1" stop-color="#e0ce98"/></linearGradient><linearGradient x1="330.63482" y1="113.66052" x2="330.63482" y2="147.57001" gradientUnits="userSpaceOnUse" id="color-7"><stop offset="0" stop-color="#d21515"/><stop offset="1" stop-color="#940000"/></linearGradient><linearGradient x1="348.2489" y1="134.05436" x2="348.2489" y2="141.71789" gradientUnits="userSpaceOnUse" id="color-8"><stop offset="0" stop-color="#d21515"/><stop offset="1" stop-color="#940000"/></linearGradient><linearGradient x1="356.99925" y1="155.17124" x2="356.99925" y2="171.88114" gradientUnits="userSpaceOnUse" id="color-9"><stop offset="0" stop-color="#ffefc0"/><stop offset="1" stop-color="#e0ce98"/></linearGradient><linearGradient x1="307.75292" y1="147.50648" x2="307.75292" y2="158.81043" gradientUnits="userSpaceOnUse" id="color-10"><stop offset="0" stop-color="#ffefc0"/><stop offset="1" stop-color="#e0ce98"/></linearGradient><linearGradient x1="307.62031" y1="216.43971" x2="307.62031" y2="247.57147" gradientUnits="userSpaceOnUse" id="color-11"><stop offset="0" stop-color="#364ec7"/><stop offset="1" stop-color="#001371"/></linearGradient><linearGradient x1="295.89748" y1="236.64535" x2="295.89748" y2="258.41528" gradientUnits="userSpaceOnUse" id="color-12"><stop offset="0" stop-color="#a6680a"/><stop offset="1" stop-color="#6c4306"/></linearGradient><linearGradient x1="302.19694" y1="179.5611" x2="302.19694" y2="192.85532" gradientUnits="userSpaceOnUse" id="color-13"><stop offset="0" stop-color="#d21515"/><stop offset="1" stop-color="#940000"/></linearGradient><linearGradient x1="159.66995" y1="215.9884" x2="181.67357" y2="243.0238" gradientUnits="userSpaceOnUse" id="color-14"><stop offset="0" stop-color="#364ec7"/><stop offset="1" stop-color="#001371"/></linearGradient><linearGradient x1="184.83619" y1="233.92373" x2="184.83619" y2="250.40781" gradientUnits="userSpaceOnUse" id="color-15"><stop offset="0" stop-color="#a6680a"/><stop offset="1" stop-color="#6c4205"/></linearGradient><linearGradient x1="160.45009" y1="169.36341" x2="185.51581" y2="185.48591" gradientUnits="userSpaceOnUse" id="color-16"><stop offset="0" stop-color="#20de16"/><stop offset="1" stop-color="#158e0e"/></linearGradient><linearGradient x1="150.70679" y1="165.31495" x2="150.70679" y2="221.3335" gradientUnits="userSpaceOnUse" id="color-17"><stop offset="0" stop-color="#364ec7"/><stop offset="1" stop-color="#001371"/></linearGradient><linearGradient x1="152.14708" y1="169.32542" x2="152.14708" y2="189.13177" gradientUnits="userSpaceOnUse" id="color-18"><stop offset="0" stop-color="#20de16"/><stop offset="1" stop-color="#158e0e"/></linearGradient><linearGradient x1="142.93406" y1="215.32022" x2="120.64765" y2="241.802" gradientUnits="userSpaceOnUse" id="color-19"><stop offset="0" stop-color="#364ec7"/><stop offset="1" stop-color="#001371"/></linearGradient><linearGradient x1="118.97157" y1="235.06928" x2="118.97157" y2="251.49829" gradientUnits="userSpaceOnUse" id="color-20"><stop offset="0" stop-color="#a6680a"/><stop offset="1" stop-color="#6c4205"/></linearGradient><linearGradient x1="135.47359" y1="167.22535" x2="116.368" y2="187.42385" gradientUnits="userSpaceOnUse" id="color-21"><stop offset="0" stop-color="#20de16"/><stop offset="1" stop-color="#158e0e"/></linearGradient><linearGradient x1="151.95899" y1="124.20799" x2="151.95899" y2="174.43946" gradientUnits="userSpaceOnUse" id="color-22"><stop offset="0" stop-color="#ffefc0"/><stop offset="1" stop-color="#e0ce98"/></linearGradient><linearGradient x1="150.91467" y1="108.25172" x2="150.91467" y2="138.92327" gradientUnits="userSpaceOnUse" id="color-23"><stop offset="0" stop-color="#20de16"/><stop offset="1" stop-color="#158e0e"/></linearGradient><linearGradient x1="164.87713" y1="126.42679" x2="164.87713" y2="133.95824" gradientUnits="userSpaceOnUse" id="color-24"><stop offset="0" stop-color="#20de16"/><stop offset="1" stop-color="#158e0e"/></linearGradient><linearGradient x1="175.4165" y1="146.39348" x2="175.4165" y2="163.06107" gradientUnits="userSpaceOnUse" id="color-25"><stop offset="0" stop-color="#ffefc0"/><stop offset="1" stop-color="#e0ce98"/></linearGradient></defs><g transform="translate(-94.49477,-107.75171)"><g data-paper-data="{&quot;isPaintingLayer&quot;:true}" fill-rule="nonzero" stroke-linejoin="miter" stroke-miterlimit="10" stroke-dasharray="" stroke-dashoffset="0" style="mix-blend-mode: normal"><g data-paper-data="{&quot;origPos&quot;:null,&quot;origRot&quot;:0}" stroke-width="1.5" stroke-linecap="butt"><path d="M340.90045,187.32482c-0.23274,-3.55086 7.38484,-6.94103 17.0143,-7.57214c9.62946,-0.63111 17.62434,1.73581 17.85707,5.28669c0.23273,3.55087 -7.38483,6.94106 -17.0143,7.57215c-9.62946,0.63111 -17.62436,-1.73582 -17.85708,-5.28669z" data-paper-data="{&quot;origRot&quot;:0,&quot;origPos&quot;:null,&quot;index&quot;:null}" fill="url(#color-1)" stroke="#940000"/><path d="M370.08808,179.88402c3.2622,-4.56295 9.72507,-5.53211 14.4352,-2.16468c4.71014,3.36743 5.88393,9.79628 2.62172,14.35922c-3.26219,4.56293 -9.72507,5.53211 -14.4352,2.16468c-4.71014,-3.36743 -5.88392,-9.79628 -2.62172,-14.35922z" data-paper-data="{&quot;origPos&quot;:null,&quot;index&quot;:null}" fill="#ffffff" stroke="#bfbfbf"/></g><g data-paper-data="{&quot;origPos&quot;:null,&quot;origRot&quot;:0}" stroke-width="1.5" stroke-linecap="butt"><path d="M356.63234,227.23373c2.69299,2.23016 6.28672,7.23235 8.36159,10.04666c2.98397,4.04741 2.1738,5.90887 -1.1514,9.86878c-3.34001,3.97758 -4.01241,5.47588 -8.5737,3.2696c-3.13732,-1.51751 -6.675,-8.20973 -9.35072,-10.42559c-7.90134,-6.54342 -14.54399,-9.55173 -11.5403,-13.12877c0,0 5.2465,-5.35386 7.46067,-5.16577c0,0 1.06817,-3.68416 4.00127,-2.46097c2.95339,1.23168 2.89123,1.45264 10.79257,7.99606z" data-paper-data="{&quot;origPos&quot;:null,&quot;origRot&quot;:0}" fill="url(#color-2)" stroke="#001371"/><path d="M370.51918,237.21175c5.79636,-1.07839 6.93417,3.22799 6.21688,6.0927c-0.86859,3.46895 -7.21231,10.71665 -12.06167,12.99893c-4.84933,2.28227 -4.33285,0.1864 -5.74208,-0.94603c-3.13322,-2.51776 -3.58261,-6.98626 1.31425,-12.67217c4.89685,-5.68591 4.47628,-4.39505 10.27263,-5.47345z" data-paper-data="{&quot;origPos&quot;:null,&quot;origRot&quot;:0}" fill="url(#color-3)" stroke="#6c4306"/></g><path d="" data-paper-data="{&quot;origPos&quot;:null}" fill="#c1770b" stroke="#6c4306" stroke-width="1.5" stroke-linecap="butt"/><g data-paper-data="{&quot;origPos&quot;:null}" stroke-linecap="butt"><path d="M349.46921,199.85576c0,9.26372 2.84091,18.23837 -2.69239,25.3177c-3.54659,4.53753 -10.70286,3.50701 -16.20164,3.50701c-5.49877,0 -12.65505,0.73766 -16.20165,-3.79985c-5.5333,-7.07933 -2.69238,-15.76114 -2.69238,-25.02485c0,-15.91945 8.45914,-28.82471 18.89403,-28.82471c0,0 11.73737,-4.40076 15.22571,2.13104c3.4719,6.50102 3.66832,10.77421 3.66832,26.69366z" data-paper-data="{&quot;origPos&quot;:null}" fill="url(#color-4)" stroke="#001371" stroke-width="1.5"/><path d="M339.55213,183.53214c0,2.68857 1.31009,7.12666 -0.34219,8.97831c-1.7848,2.00015 -3.67346,2.91985 -6.1351,2.90548c-2.72608,-0.01592 -4.60612,-1.00217 -6.88148,-2.77355c-2.33853,-1.82055 -1.87025,-5.80478 -1.87025,-9.11024c0,-4.77054 3.40914,-8.63783 7.61452,-8.63783c4.20537,0 7.61451,3.8673 7.61451,8.63783z" data-paper-data="{&quot;origPos&quot;:null}" fill="url(#color-5)" stroke="none" stroke-width="0"/><path d="M324.91459,191.68768c0,2.23365 -1.96162,4.0444 -4.38142,4.0444c-2.4198,0 -4.38143,-1.81074 -4.38143,-4.0444c0,-2.23365 1.96163,-4.04439 4.38143,-4.04439c2.4198,0 4.38142,1.81074 4.38142,4.04439z" data-paper-data="{&quot;origPos&quot;:null}" fill="#faff66" stroke="none" stroke-width="1.5"/><path d="M348.41589,191.13296c0,2.17864 -1.9133,3.94477 -4.2735,3.94477c-2.36019,0 -4.2735,-1.76612 -4.2735,-3.94477c0,-2.17864 1.91331,-3.94477 4.2735,-3.94477c2.36019,0 4.2735,1.76612 4.2735,3.94477z" data-paper-data="{&quot;origPos&quot;:null}" fill="#faff66" stroke="none" stroke-width="1.5"/></g><g data-paper-data="{&quot;origPos&quot;:null}"><path d="M360.63241,158.98587c0,13.37811 -13.73475,24.22323 -28.56379,24.22323c-14.82904,0 -31.67913,-11.007 -31.67913,-24.38512c0,-4.84199 0.68944,-17.04147 3.19789,-21.12167c5.78078,-9.40291 17.74496,-2.93967 28.48124,-2.93967c0,0 17.47791,-4.07051 23.38966,4.87354c2.80538,4.24433 5.17415,5.97157 5.17415,19.34969z" data-paper-data="{&quot;origPos&quot;:null}" fill="url(#color-6)" stroke="#e0ce98" stroke-width="1" stroke-linecap="butt"/><path d="M358.5091,131.8602c8.09723,14.22755 -29.33424,10.83219 -31.98263,12.69652c-2.60107,1.83102 -0.81879,7.42841 -3.96033,7.42841c-4.40313,0 -9.25612,0.71417 -10.46658,5.11413c-0.70052,2.54638 2.60132,7.50047 0.13667,8.17316c-2.42796,0.66268 -4.70501,2.65189 -7.21096,2.80494c-2.03236,0.12412 -2.35905,-1.8961 -4.39469,-1.9276c-5.79716,-0.08972 0.78824,-11.96655 0.9253,-12.58939c0.04568,-0.20761 -1.20602,-4.44904 -1.20602,-6.50931c0,-11.17434 10.77902,-17.11649 17.8548,-17.11649c7.07578,0 32.2072,-12.30192 40.30444,1.92563z" data-paper-data="{&quot;origPos&quot;:null}" fill="#5a3413" stroke="#351c06" stroke-width="1" stroke-linecap="butt"/><path d="M357.91427,171.43729c0,0.93673 -1.03545,2.26869 -1.13658,3.19959c-0.21477,1.97699 -1.58685,3.01897 -3.51269,3.10762c-2.12553,0.09786 -3.01604,-2.04326 -5.14035,-2.16621c-1.47465,-0.08537 -1.53991,1.74597 -3.01688,1.74597c-1.60871,0 -1.59206,-1.47457 -3.17663,-1.76096c-2.16384,-0.39108 -2.86624,1.73159 -4.82742,0.71024c-1.02557,-0.53411 -2.61762,-2.77623 -3.25007,-3.76589c-2.00221,-3.13303 -6.90647,-7.24457 -2.50601,-8.38529c2.1651,-0.56126 8.33282,5.18914 10.56518,5.18914c0,0 3.73999,-0.01695 5.59794,0.08157c4.21276,0.22336 10.4035,-2.38936 10.4035,2.04422z" data-paper-data="{&quot;origPos&quot;:null}" fill="#5a3413" stroke="#351c06" stroke-width="1" stroke-linecap="butt"/><path d="M361.87854,134.32832c0,10.22611 -12.29169,3.93148 -29.30368,3.93148c-4.11857,0 -9.56963,8.43304 -13.688,8.3958c-5.83861,-0.05278 -13.19319,2.54455 -17.80513,-0.78743c-3.25572,-2.35216 -0.80907,-7.7045 -0.80907,-11.53986c0,-8.66476 9.69318,-8.78997 18.09413,-12.52798c6.1066,-2.71713 5.93994,-7.5099 12.70881,-7.5099c0,0 13.85643,-1.8789 21.91934,0.85332c9.12834,3.09325 8.8836,8.95845 8.8836,19.18456z" data-paper-data="{&quot;origPos&quot;:null}" fill="url(#color-7)" stroke="#940000" stroke-width="1" stroke-linecap="butt"/><path d="M372.37334,140.14558c0,3.36409 -10.25569,0.28331 -23.57925,0.28331c-13.32355,0 -24.66962,3.08078 -24.66962,-0.28331c0,-3.36409 10.80087,-6.09122 24.12443,-6.09122c13.32355,0 24.12443,2.72713 24.12443,6.09122z" data-paper-data="{&quot;origPos&quot;:null}" fill="url(#color-8)" stroke="#940000" stroke-width="1" stroke-linecap="butt"/><path d="M356.48395,128.00477c0,2.07307 0.30737,3.50338 -1.23203,4.82162c-1.32872,1.13783 -8.88182,0.83961 -10.13715,-0.07455c-1.7882,-1.30221 -1.07033,-2.47775 -1.07033,-4.74707c0,-3.38707 2.78469,-6.13285 6.21977,-6.13285c3.43508,0 6.21976,2.74578 6.21976,6.13285z" data-paper-data="{&quot;origPos&quot;:null}" fill="#ffffff" stroke="#a4a4a4" stroke-width="1" stroke-linecap="butt"/><path d="M348.88146,152.83591c0,3.99999 -2.08558,7.24263 -4.65827,7.24263c-2.57269,0 -4.65827,-3.24264 -4.65827,-7.24263c0,-3.99999 2.08558,-7.24264 4.65827,-7.24264c2.57269,0 4.65827,3.24264 4.65827,7.24264z" data-paper-data="{&quot;origPos&quot;:null}" fill="#ffffff" stroke="none" stroke-width="0" stroke-linecap="butt"/><path d="M346.59389,130.89745l1.71344,-5.34246l2.02498,3.56164l1.55767,-3.72353l2.3365,5.01868" data-paper-data="{&quot;origPos&quot;:null}" fill="none" stroke="#ba0000" stroke-width="1" stroke-linecap="round"/><path d="M340.53296,144.87833c0,0 3.51435,-0.56784 4.22549,-0.44572c1.27172,0.21838 3.47173,1.77246 3.47173,1.77246" data-paper-data="{&quot;origPos&quot;:null,&quot;origRot&quot;:0}" fill="none" stroke="#351c06" stroke-width="1.5" stroke-linecap="round"/><path d="M348.90995,152.52473c0,2.65462 -1.3841,4.8066 -3.09148,4.8066c-1.70738,0 -3.09148,-2.152 -3.09148,-4.8066c0,-2.65462 1.38411,-4.8066 3.09148,-4.8066c1.70738,0 3.09148,2.152 3.09148,4.8066z" data-paper-data="{&quot;origPos&quot;:null}" fill="#1121d4" stroke="none" stroke-width="0" stroke-linecap="butt"/><path d="M348.97722,152.38514c0,1.37271 -0.71572,2.4855 -1.59861,2.4855c-0.8829,0 -1.59861,-1.1128 -1.59861,-2.4855c0,-1.37271 0.71573,-2.4855 1.59861,-2.4855c0.8829,0 1.59861,1.1128 1.59861,2.4855z" data-paper-data="{&quot;origPos&quot;:null}" fill="#000000" stroke="none" stroke-width="0" stroke-linecap="butt"/><path d="M355.16296,144.96594c2.13325,0 3.8626,2.68875 3.8626,6.0055c0,3.31675 -1.72934,6.0055 -3.8626,6.0055c-2.13325,0 -3.8626,-2.68875 -3.8626,-6.0055c0,-3.31675 1.72934,-6.0055 3.8626,-6.0055z" data-paper-data="{&quot;origPos&quot;:null,&quot;index&quot;:null}" fill="#ffffff" stroke="none" stroke-width="0" stroke-linecap="butt"/><path d="M352.17605,145.37996c0,0 1.82422,-1.28863 2.87872,-1.46971c0.58967,-0.10126 3.50373,0.36959 3.50373,0.36959" data-paper-data="{&quot;origPos&quot;:null,&quot;origRot&quot;:0,&quot;index&quot;:null}" fill="none" stroke="#351c06" stroke-width="1.5" stroke-linecap="round"/><path d="M356.58258,146.84529c1.41573,0 2.56343,1.78441 2.56343,3.98557c0,2.20117 -1.14768,3.98557 -2.56343,3.98557c-1.41573,0 -2.56342,-1.78441 -2.56342,-3.98557c0,-2.20117 1.14768,-3.98557 2.56342,-3.98557z" data-paper-data="{&quot;origPos&quot;:null,&quot;index&quot;:null}" fill="#1121d4" stroke="none" stroke-width="0" stroke-linecap="butt"/><path d="M357.92059,148.77634c0.73209,0 1.32555,0.92272 1.32555,2.06095c0,1.13824 -0.59347,2.06095 -1.32555,2.06095c-0.73209,0 -1.32554,-0.92272 -1.32554,-2.06095c0,-1.13824 0.59347,-2.06095 1.32554,-2.06095z" data-paper-data="{&quot;origPos&quot;:null,&quot;index&quot;:null}" fill="#000000" stroke="none" stroke-width="0" stroke-linecap="butt"/><path d="M368.98694,163.52619c0,4.61431 -5.36707,8.35495 -11.98769,8.35495c-6.62061,0 -11.98769,-3.74063 -11.98769,-8.35495c0,-4.61431 5.36707,-8.35495 11.98769,-8.35495c6.62061,0 11.98769,3.74063 11.98769,8.35495z" data-paper-data="{&quot;origPos&quot;:null}" fill="url(#color-9)" stroke="#e0ce98" stroke-width="1.5" stroke-linecap="butt"/><path d="M314.73523,155.57742c-0.90455,2.82035 -4.76391,4.0237 -8.62013,2.68774c-3.85623,-1.33596 -6.24902,-4.70531 -5.34448,-7.52567c0.90455,-2.82035 4.76391,-4.0237 8.62013,-2.68774c3.85623,1.33596 6.24902,4.70531 5.34448,7.52567z" data-paper-data="{&quot;origRot&quot;:0,&quot;origPos&quot;:null}" fill="url(#color-10)" stroke="#e0ce98" stroke-width="1.5" stroke-linecap="butt"/></g><g data-paper-data="{&quot;origPos&quot;:null,&quot;origRot&quot;:0}" stroke-width="1.5" stroke-linecap="butt"><path d="M316.19343,239.24595c-2.49729,2.37736 -7.83891,5.30289 -10.84981,7.00093c-4.33014,2.44206 -6.08995,1.4181 -9.66362,-2.33585c-3.5896,-3.77068 -5.00394,-4.61483 -2.33202,-8.83306c1.8378,-2.90135 8.84928,-5.56569 11.33056,-7.92781c7.32715,-6.97528 11.01529,-13.14326 14.24344,-9.75226c0,0 4.75195,5.814 4.3304,7.96929c-1.21546,6.21444 0.2682,6.90346 -7.05896,13.87875z" data-paper-data="{&quot;origPos&quot;:null}" fill="url(#color-11)" stroke="#001371"/><path d="M305.88238,252.35584c0.3778,6.01856 -4.3011,6.70104 -7.22116,5.65461c-3.53598,-1.26714 -10.3325,-8.52414 -12.10042,-13.71179c-1.76791,-5.18764 0.36954,-4.43052 1.74482,-5.73975c3.05774,-2.91089 7.8173,-2.8748 13.15968,2.7371c5.34238,5.6119 4.03928,5.04128 4.41707,11.05984z" data-paper-data="{&quot;origPos&quot;:null}" fill="url(#color-12)" stroke="#6c4306"/></g><g data-paper-data="{&quot;origPos&quot;:null,&quot;origRot&quot;:0}" stroke-width="1.5" stroke-linecap="butt"><path d="M302.77081,192.66901c-9.67647,0.85948 -17.77775,-1.33635 -18.09469,-4.90454c-0.31697,-3.5682 7.27046,-7.15754 16.94695,-8.01706c9.67647,-0.85948 17.77775,1.33635 18.09469,4.90454c0.31697,3.5682 -7.27046,7.15754 -16.94695,8.01706z" data-paper-data="{&quot;origRot&quot;:0,&quot;origPos&quot;:null}" fill="url(#color-13)" stroke="#940000"/><path d="M289.14366,196.44718c-4.16535,4.07728 -10.74402,4.11142 -14.69389,0.07622c-3.94986,-4.03518 -3.77518,-10.61162 0.39016,-14.6889c4.16535,-4.07728 10.74402,-4.11142 14.69389,-0.07622c3.94986,4.03518 3.77518,10.61162 -0.39016,14.6889z" data-paper-data="{&quot;origPos&quot;:null,&quot;origRot&quot;:0}" fill="#ffffff" stroke="#bfbfbf"/></g><path d="M175.09428,223.63726c2.42589,2.45204 5.71011,7.48846 7.60456,10.33206c2.72452,4.08953 2.05335,5.55696 -0.78655,8.37526c-2.85255,2.83087 -3.41066,4.00817 -7.48315,1.22305c-2.80111,-1.91565 -6.07506,-8.41306 -8.48539,-10.84937c-7.11766,-7.19438 -13.04371,-11.07212 -10.47841,-13.61793c0,0 4.50151,-3.66817 6.45795,-3.08498c0,0 0.85642,-3.00569 3.47067,-1.385c2.63235,1.63192 2.58265,1.81255 9.70031,9.00693z" data-paper-data="{&quot;origPos&quot;:null,&quot;origRot&quot;:0}" fill="url(#color-14)" stroke="#001371" stroke-width="1.5" stroke-linecap="butt"/><path d="M188.6717,233.93191c5.31155,-0.21072 6.14578,3.70215 5.36246,6.11862c-0.94852,2.92619 -7.04158,8.46703 -11.54901,9.85116c-4.50741,1.38412 -3.94187,-0.38487 -5.16889,-1.55419c-2.72811,-2.59983 -2.92992,-6.5675 1.77766,-10.92449c4.70756,-4.35699 4.26623,-3.28041 9.57778,-3.49112z" data-paper-data="{&quot;origPos&quot;:null,&quot;origRot&quot;:0}" fill="url(#color-15)" stroke="#6c4306" stroke-width="1.5" stroke-linecap="butt"/><path d="M155.83364,176.61434c-0.19085,-3.17947 7.33246,-5.39416 16.80376,-4.94663c9.4713,0.44752 17.30399,3.38778 17.49484,6.56727c0.19083,3.17949 -7.33246,5.39417 -16.80375,4.94664c-9.4713,-0.44752 -17.30402,-3.38779 -17.49483,-6.56728z" data-paper-data="{&quot;origRot&quot;:0,&quot;origPos&quot;:null,&quot;index&quot;:null}" fill="url(#color-16)" stroke="#158e0e" stroke-width="1.5" stroke-linecap="butt"/><path d="M167.82542,193.41665c0,8.94077 2.57396,17.60253 -2.43939,24.43506c-3.21333,4.37934 -9.69716,3.38475 -14.67924,3.38475c-4.98207,0 -11.4659,0.71195 -14.67924,-3.66737c-5.01335,-6.83252 -2.43939,-15.21167 -2.43939,-24.15242c0,-15.36446 7.66426,-28.06109 17.11863,-28.06109c0,0 9.72842,-0.86936 12.88897,5.43473c3.14566,6.27438 4.22966,7.2619 4.22966,22.62635z" data-paper-data="{&quot;origPos&quot;:null}" fill="url(#color-17)" stroke="#001371" stroke-width="1.5" stroke-linecap="butt"/><path d="M186.01363,171.07812c3.54946,-4.12563 10.12884,-4.61412 14.69545,-1.09109c4.56663,3.52305 5.3912,9.72351 1.84175,13.84916c-3.54944,4.12562 -10.12884,4.61412 -14.69545,1.09109c-4.56663,-3.52305 -5.3912,-9.72352 -1.84175,-13.84916z" data-paper-data="{&quot;origPos&quot;:null,&quot;index&quot;:null,&quot;origRot&quot;:0}" fill="#ffffff" stroke="#bfbfbf" stroke-width="1.5" stroke-linecap="butt"/><path d="M158.84021,177.66211c0,2.59484 1.18698,6.8782 -0.31003,8.66531c-1.61709,1.93042 -3.32827,2.81805 -5.5586,2.80419c-2.46992,-0.01537 -4.1733,-0.96723 -6.23486,-2.67685c-2.11879,-1.75709 -1.69451,-5.60241 -1.69451,-8.79263c0,-4.60423 3.0888,-8.33669 6.89902,-8.33669c3.8102,0 6.899,3.73248 6.899,8.33669z" data-paper-data="{&quot;origPos&quot;:null}" fill="url(#color-18)" stroke="none" stroke-width="0" stroke-linecap="butt"/><path d="M145.57809,185.53333c0,2.15578 -1.7773,3.9034 -3.96972,3.9034c-2.19242,0 -3.96972,-1.74762 -3.96972,-3.9034c0,-2.15578 1.7773,-3.90339 3.96972,-3.90339c2.19242,0 3.96972,1.74762 3.96972,3.90339z" data-paper-data="{&quot;origPos&quot;:null}" fill="#faff66" stroke="none" stroke-width="1.5" stroke-linecap="butt"/><path d="M166.87108,184.99795c0,2.10269 -1.73351,3.80725 -3.87193,3.80725c-2.13841,0 -3.87194,-1.70455 -3.87194,-3.80725c0,-2.10269 1.73353,-3.80725 3.87194,-3.80725c2.13841,0 3.87193,1.70455 3.87193,3.80725z" data-paper-data="{&quot;origPos&quot;:null}" fill="#faff66" stroke="none" stroke-width="1.5" stroke-linecap="butt"/><path d="M138.14536,232.73933c-2.18767,2.59949 -6.91809,6.28124 -9.5833,8.39917c-3.833,3.04591 -5.43845,2.52981 -8.73825,0.02516c-3.31452,-2.51582 -4.60531,-2.94904 -2.30427,-7.18698c1.58271,-2.91489 7.81973,-6.7249 9.99336,-9.30773c6.4187,-7.62701 9.58675,-13.77723 12.56752,-11.51473c0,0 4.40724,4.04577 4.07943,6.01027c-0.94517,5.6643 0.40423,5.94784 -6.01448,13.57485z" data-paper-data="{&quot;origPos&quot;:null,&quot;origRot&quot;:0}" fill="url(#color-19)" stroke="#001371" stroke-width="1.5" stroke-linecap="butt"/><path d="M127.66462,245.77503c0.71539,4.77178 -3.1541,6.04523 -5.66669,5.6583c-3.04257,-0.46854 -9.21053,-5.2387 -11.03389,-9.128c-1.82335,-3.88929 0.01526,-3.61317 1.07908,-4.87725c2.36524,-2.81049 6.34987,-3.51974 11.19207,0.15563c4.8422,3.67538 3.71405,3.41952 4.42943,8.19131z" data-paper-data="{&quot;origPos&quot;:null,&quot;origRot&quot;:0}" fill="url(#color-20)" stroke="#6c4306" stroke-width="1.5" stroke-linecap="butt"/><path d="M126.7562,183.47563c-9.70512,1.33822 -17.94671,-0.33084 -18.40808,-3.72795c-0.4614,-3.39711 7.03214,-7.23584 16.73727,-8.5741c9.70512,-1.33822 17.94671,0.33084 18.40808,3.72795c0.4614,3.39711 -7.03214,7.23585 -16.73727,8.5741z" data-paper-data="{&quot;origRot&quot;:0,&quot;origPos&quot;:null}" fill="url(#color-21)" stroke="#158e0e" stroke-width="1.5" stroke-linecap="butt"/><path d="M113.19117,187.81703c-4.02974,4.12314 -10.64985,4.50652 -14.78642,0.85628c-4.13658,-3.65022 -4.22317,-9.9518 -0.19342,-14.07495c4.02974,-4.12314 10.64985,-4.50652 14.78642,-0.85628c4.13658,3.65022 4.22317,9.9518 0.19342,14.07495z" data-paper-data="{&quot;origPos&quot;:null,&quot;origRot&quot;:0}" fill="#ffffff" stroke="#bfbfbf" stroke-width="1.5" stroke-linecap="butt"/><path d="M176.98071,150.14237c0,9.34705 -5.14936,13.20154 -11.92352,18.01186c-4.72012,3.35176 -6.06853,6.28523 -11.57363,6.28523c-6.39728,0 -8.94794,-3.26534 -14.4308,-7.16468c-6.66848,-4.74253 -12.11553,-8.08655 -12.11553,-17.29152c0,-4.75853 0.57271,-16.74774 2.65647,-20.75761c4.80207,-9.24084 14.74065,-2.88901 23.65922,-2.88901c0,0 14.51881,-4.00035 19.42967,4.78953c2.33042,4.17118 4.29814,5.86864 4.29814,19.01618z" data-paper-data="{&quot;origPos&quot;:null}" fill="url(#color-22)" stroke="#e0ce98" stroke-width="1" stroke-linecap="butt"/><path d="M177.07389,122.60918c7.39631,14.92434 -26.79497,11.36269 -29.2141,13.31832c-2.37591,1.92069 -0.74791,7.79221 -3.6175,7.79221c-4.02198,0 -8.45488,0.74915 -9.56057,5.36459c-0.63988,2.67109 2.37615,7.8678 0.12484,8.57344c-2.2178,0.69514 -4.06937,3.04401 -6.35839,3.20455c-1.85643,0.13019 -2.3832,-2.2512 -4.24263,-2.28425c-5.29533,-0.09412 0.72001,-12.5526 0.8452,-13.20595c0.04172,-0.21778 -1.10163,-4.66693 -1.10163,-6.8281c0,-11.7216 9.84594,-17.95476 16.30923,-17.95476c6.46328,0 29.41924,-12.9044 36.81555,2.01993z" data-paper-data="{&quot;origPos&quot;:null}" fill="#c27231" stroke="#985926" stroke-width="1.5" stroke-linecap="butt"/><path d="M176.60281,162.62488c0,0.92059 -1.05436,2.47528 -1.15734,3.39013c-0.21869,1.94291 -1.61583,2.96693 -3.57684,3.05406c-2.16435,0.09618 -5.99132,-2.3893 -5.99132,-2.3893c0,0 -2.87775,1.13057 -4.82459,1.56488c-1.63184,0.36403 -4.15503,0.12546 -5.64053,-0.62119c-1.0443,-0.52491 -2.66543,-2.72838 -3.30943,-3.70098c-2.03878,-3.07903 -7.28717,-7.61108 -2.80634,-8.73214c2.20464,-0.55159 8.73957,5.34539 11.0127,5.34539c0,0 3.80829,-0.01666 5.70018,0.08016c4.2897,0.21951 10.5935,-2.34818 10.5935,2.00898z" data-paper-data="{&quot;origPos&quot;:null}" fill="#160b02" stroke="none" stroke-width="0" stroke-linecap="butt"/><path d="M178.95991,126.76676c0,9.38807 -11.03409,3.60929 -26.30554,3.60929c-3.69718,0 -8.59054,7.74195 -12.28753,7.70776c-5.24124,-0.04846 -11.84335,2.33603 -15.98343,-0.7229c-2.92262,-2.15939 -0.72629,-7.07311 -0.72629,-10.59416c0,-7.95468 8.70145,-8.06962 16.24287,-11.5013c5.48182,-2.49446 5.55662,-6.43544 11.63295,-6.43544c0,0 12.43874,-1.72493 19.6767,0.78338c8.19439,2.83975 7.75028,7.76527 7.75028,17.15335z" data-paper-data="{&quot;origPos&quot;:null}" fill="url(#color-23)" stroke="#158e0e" stroke-width="1" stroke-linecap="butt"/><path d="M189.44215,132.41303c0,3.30611 -10.44299,0.27843 -24.00988,0.27843c-13.56688,0 -25.12017,3.02768 -25.12017,-0.27843c0,-3.30611 10.99813,-5.98623 24.56502,-5.98623c13.56688,0 24.56502,2.68013 24.56502,5.98623z" data-paper-data="{&quot;origPos&quot;:null}" fill="url(#color-24)" stroke="#158e0e" stroke-width="1" stroke-linecap="butt"/><path d="M174.89179,120.08837c0,2.03734 0.31298,3.44299 -1.25453,4.73851c-1.35299,1.11822 -9.04403,0.82513 -10.32229,-0.07326c-1.82086,-1.27977 -1.08988,-2.43504 -1.08988,-4.66526c0,-3.32869 2.83555,-6.02714 6.33336,-6.02714c3.49782,0 6.33335,2.69845 6.33335,6.02714z" data-paper-data="{&quot;origPos&quot;:null}" fill="#ffffff" stroke="#a4a4a4" stroke-width="1" stroke-linecap="butt"/><path d="M167.15046,144.09841c0,3.93105 -2.12367,7.11779 -4.74334,7.11779c-2.61968,0 -4.74334,-3.18674 -4.74334,-7.11779c0,-3.93105 2.12367,-7.1178 4.74334,-7.1178c2.61968,0 4.74334,3.18674 4.74334,7.1178z" data-paper-data="{&quot;origPos&quot;:null}" fill="#ffffff" stroke="none" stroke-width="0" stroke-linecap="butt"/><path d="M158.64949,136.27799c0,0 3.57853,-0.55805 4.30266,-0.43804c1.29495,0.21461 3.53513,1.74191 3.53513,1.74191" data-paper-data="{&quot;origPos&quot;:null,&quot;origRot&quot;:0}" fill="none" stroke="#351c06" stroke-width="1.5" stroke-linecap="round"/><path d="M167.17947,143.7926c0,2.60887 -1.40938,4.72376 -3.14794,4.72376c-1.73856,0 -3.14794,-2.11491 -3.14794,-4.72376c0,-2.60887 1.40939,-4.72376 3.14794,-4.72376c1.73856,0 3.14794,2.11491 3.14794,4.72376z" data-paper-data="{&quot;origPos&quot;:null}" fill="#1121d4" stroke="none" stroke-width="0" stroke-linecap="butt"/><path d="M167.24798,143.65541c0,1.34905 -0.72879,2.44266 -1.62781,2.44266c-0.89902,0 -1.62781,-1.09362 -1.62781,-2.44266c0,-1.34905 0.7288,-2.44266 1.62781,-2.44266c0.89902,0 1.62781,1.09362 1.62781,2.44266z" data-paper-data="{&quot;origPos&quot;:null}" fill="#000000" stroke="none" stroke-width="0" stroke-linecap="butt"/><path d="M173.54668,136.36408c2.17221,0 3.93314,2.6424 3.93314,5.90198c0,3.25959 -1.76092,5.90198 -3.93314,5.90198c-2.17221,0 -3.93314,-2.6424 -3.93314,-5.90198c0,-3.25959 1.76092,-5.90198 3.93314,-5.90198z" data-paper-data="{&quot;origPos&quot;:null,&quot;index&quot;:null}" fill="#ffffff" stroke="none" stroke-width="0" stroke-linecap="butt"/><path d="M170.25065,135.80394c0,0 1.85754,-1.26643 2.93129,-1.44438c0.60044,-0.09952 3.56772,0.36322 3.56772,0.36322" data-paper-data="{&quot;origPos&quot;:null,&quot;origRot&quot;:0,&quot;index&quot;:null}" fill="none" stroke="#351c06" stroke-width="1.5" stroke-linecap="round"/><path d="M174.99223,138.21105c1.44159,0 2.61025,1.75366 2.61025,3.91687c0,2.16323 -1.16864,3.91687 -2.61025,3.91687c-1.44159,0 -2.61024,-1.75366 -2.61024,-3.91687c0,-2.16323 1.16864,-3.91687 2.61024,-3.91687z" data-paper-data="{&quot;origPos&quot;:null,&quot;index&quot;:null}" fill="#1121d4" stroke="none" stroke-width="0" stroke-linecap="butt"/><path d="M176.35467,140.10882c0.74546,0 1.34976,0.90682 1.34976,2.02543c0,1.11863 -0.60431,2.02543 -1.34976,2.02543c-0.74546,0 -1.34975,-0.90682 -1.34975,-2.02543c0,-1.11863 0.60431,-2.02543 1.34975,-2.02543z" data-paper-data="{&quot;origPos&quot;:null,&quot;index&quot;:null}" fill="#000000" stroke="none" stroke-width="0" stroke-linecap="butt"/><path d="M187.62313,154.60444c0,4.53478 -5.21052,8.45663 -11.95206,8.45663c-6.74152,0 -12.46119,-3.92185 -12.46119,-8.45663c0,-4.53478 5.46509,-8.21095 12.20662,-8.21095c6.74152,0 12.20662,3.67616 12.20662,8.21095z" data-paper-data="{&quot;origPos&quot;:null}" fill="url(#color-25)" stroke="#e0ce98" stroke-width="1.5" stroke-linecap="butt"/><path d="M140.11941,148.56165c-0.92107,2.77174 -4.85091,3.95434 -8.77756,2.64141c-3.92666,-1.31294 -6.36315,-4.62421 -5.44209,-7.39596c0.92107,-2.77174 4.85091,-3.95434 8.77756,-2.64141c3.92666,1.31294 6.36315,4.62421 5.44209,7.39596z" data-paper-data="{&quot;origRot&quot;:0,&quot;origPos&quot;:null}" fill="#ffefc0" stroke="#e0ce98" stroke-width="1.5" stroke-linecap="butt"/><path d="M171.39167,122.75349l-4.53402,-0.2154l0.06825,-5.51498" data-paper-data="{&quot;origPos&quot;:null}" fill="none" stroke="#158e0e" stroke-width="1" stroke-linecap="round"/></g></g></svg>