<svg version="1.1" xmlns="http://www.w3.org/2000/svg" xmlns:xlink="http://www.w3.org/1999/xlink" width="493.80159" height="368.06724" viewBox="0,0,493.80159,368.06724"><defs><linearGradient x1="238.60473" y1="95.57054" x2="238.60473" y2="263.76003" gradientUnits="userSpaceOnUse" id="color-1"><stop offset="0" stop-color="#1f263d"/><stop offset="1" stop-color="#344ea9"/></linearGradient><linearGradient x1="239.09228" y1="98.85808" x2="239.09228" y2="161.33976" gradientUnits="userSpaceOnUse" id="color-2"><stop offset="0" stop-color="#000000"/><stop offset="1" stop-color="#000000" stop-opacity="0"/></linearGradient><linearGradient x1="95.03924" y1="42.40305" x2="95.03924" y2="76.98338" gradientUnits="userSpaceOnUse" id="color-3"><stop offset="0" stop-color="#ffffff"/><stop offset="1" stop-color="#e7e7e7"/></linearGradient><linearGradient x1="206.99464" y1="41.44521" x2="206.99464" y2="70.8855" gradientUnits="userSpaceOnUse" id="color-4"><stop offset="0" stop-color="#ffffff"/><stop offset="1" stop-color="#e7e7e7"/></linearGradient><linearGradient x1="180.28596" y1="44.55937" x2="180.28596" y2="72.14116" gradientUnits="userSpaceOnUse" id="color-5"><stop offset="0" stop-color="#ffffff"/><stop offset="1" stop-color="#e7e7e7"/></linearGradient><linearGradient x1="180.36258" y1="47.89216" x2="180.36258" y2="56.47317" gradientUnits="userSpaceOnUse" id="color-6"><stop offset="0" stop-color="#ffffff"/><stop offset="1" stop-color="#e7e7e7"/></linearGradient><linearGradient x1="123.73617" y1="42.56446" x2="123.73617" y2="70.52905" gradientUnits="userSpaceOnUse" id="color-7"><stop offset="0" stop-color="#ffffff"/><stop offset="1" stop-color="#e7e7e7"/></linearGradient><linearGradient x1="239.76921" y1="42.90718" x2="239.76921" y2="53.64039" gradientUnits="userSpaceOnUse" id="color-8"><stop offset="0" stop-color="#ffffff"/><stop offset="1" stop-color="#e7e7e7"/></linearGradient><linearGradient x1="145.19277" y1="41.40842" x2="145.19277" y2="75.90156" gradientUnits="userSpaceOnUse" id="color-9"><stop offset="0" stop-color="#ffffff"/><stop offset="1" stop-color="#e7e7e7"/></linearGradient><linearGradient x1="320.82601" y1="42.36807" x2="320.82601" y2="73.70978" gradientUnits="userSpaceOnUse" id="color-10"><stop offset="0" stop-color="#ffffff"/><stop offset="1" stop-color="#e7e7e7"/></linearGradient><linearGradient x1="321.45703" y1="49.94056" x2="321.45703" y2="60.03722" gradientUnits="userSpaceOnUse" id="color-11"><stop offset="0" stop-color="#ffffff"/><stop offset="1" stop-color="#e7e7e7"/></linearGradient><linearGradient x1="282.19278" y1="43.40842" x2="282.19278" y2="77.90156" gradientUnits="userSpaceOnUse" id="color-12"><stop offset="0" stop-color="#ffffff"/><stop offset="1" stop-color="#e7e7e7"/></linearGradient><linearGradient x1="350.69581" y1="39.76024" x2="350.69581" y2="72.3125" gradientUnits="userSpaceOnUse" id="color-13"><stop offset="0" stop-color="#ffffff"/><stop offset="1" stop-color="#e7e7e7"/></linearGradient><linearGradient x1="376.49464" y1="44.44521" x2="376.49464" y2="73.8855" gradientUnits="userSpaceOnUse" id="color-14"><stop offset="0" stop-color="#ffffff"/><stop offset="1" stop-color="#e7e7e7"/></linearGradient></defs><g transform="translate(6.9008,4.03362)"><g data-paper-data="{&quot;isPaintingLayer&quot;:true}" fill-rule="nonzero" stroke-linecap="butt" stroke-linejoin="miter" stroke-miterlimit="10" stroke-dasharray="" stroke-dashoffset="0" style="mix-blend-mode: normal"><path d="M-6.9008,364.03362v-368.06724h493.80159v368.06724z" fill="#000000" stroke="none" stroke-width="NaN"/><path d="M124.83118,263.76003v-168.18948h227.54712v168.18948z" fill="url(#color-1)" stroke="#ffffff" stroke-width="5"/><path d="M167.92574,159.71446v-4.27753h14.32339v4.27753z" fill="#444444" stroke="#000000" stroke-width="3"/><path d="M182.98367,159.71446v-4.27753h14.32339v4.27753z" fill="#444444" stroke="#000000" stroke-width="3"/><path d="M282.7582,178.02156v-4.27753h9.79253v4.27753z" fill="#444444" stroke="#000000" stroke-width="3"/><path d="M293.05292,178.02156v-4.27753h9.79253v4.27753z" fill="#444444" stroke="#000000" stroke-width="3"/><path d="M303.34758,178.02156v-4.27753h9.79253v4.27753z" fill="#444444" stroke="#000000" stroke-width="3"/><path d="M295.65599,246.33391l-20.63064,-75.32181l18.33835,-57.93986l23.83985,28.32616l-8.71071,104.29175z" data-paper-data="{&quot;index&quot;:null}" fill="#dada1f" stroke="#f5ff42" stroke-width="3"/><path d="M292.67603,176.61538l0.45846,-62.1244l23.38138,27.36049z" data-paper-data="{&quot;index&quot;:null}" fill="#ffff66" stroke="none" stroke-width="0"/><path d="M295.99983,245.01661l-3.43844,-68.56216l15.12913,67.91839z" data-paper-data="{&quot;index&quot;:null}" fill="#9e9e00" stroke="none" stroke-width="0"/><path d="M275.82764,170.76106l16.73374,5.4721l-10.31532,18.02573z" data-paper-data="{&quot;index&quot;:null}" fill="#9e9e00" stroke="none" stroke-width="0"/><path d="M174.99477,233.88445l-8.7107,-79.07836l23.83985,-21.47807l18.33835,43.93242l-20.63064,57.11215z" fill="#426dff" stroke="#003cff" stroke-width="3"/><path d="M166.97171,155.14966l23.38139,-20.74587l0.45846,47.10532z" fill="#86a2ff" stroke="none" stroke-width="0"/><path d="M169.93182,238.76582l-12.35844,-34.2121l10.98529,-26.31701l14.28087,12.86609l-5.21801,47.37061z" data-paper-data="{&quot;index&quot;:null}" fill="#ff4b4b" stroke="#ff0000" stroke-width="3"/><path d="M168.14665,207.09881l0.27463,-28.21768l14.00624,12.42748z" data-paper-data="{&quot;index&quot;:null}" fill="#ff8787" stroke="none" stroke-width="0"/><path d="M170.13776,238.16749l-2.05974,-31.14179l9.06285,30.84938z" data-paper-data="{&quot;index&quot;:null}" fill="#8f2525" stroke="none" stroke-width="0"/><path d="M158.05391,204.4397l10.02407,2.4855l-6.17923,8.18752z" data-paper-data="{&quot;index&quot;:null}" fill="#8f2525" stroke="none" stroke-width="0"/><path d="M175.79706,232.88562l15.12913,-51.49856l-3.43844,51.98669z" fill="#3559ce" stroke="none" stroke-width="0"/><path d="M201.24154,194.88714l-10.31531,-13.66786l16.73373,-4.14917z" fill="#3c64e7" stroke="none" stroke-width="0"/><path d="M127.62172,261.14198v-19.59192h224.64469v19.59192z" fill="#7e7e7e" stroke="#000000" stroke-width="3"/><path d="M127.62172,241.06192v-7.81021h17.87989v7.81021z" fill="#444444" stroke="#000000" stroke-width="3"/><path d="M146.41857,241.06192v-7.81021h17.87988v7.81021z" fill="#444444" stroke="#000000" stroke-width="3"/><path d="M165.21532,241.06192v-7.81021h17.87989v7.81021z" fill="#444444" stroke="#000000" stroke-width="3"/><path d="M184.01214,241.06192v-7.81021h17.87989v7.81021z" fill="#444444" stroke="#000000" stroke-width="3"/><path d="M202.80897,241.06192v-7.81021h17.87988v7.81021z" fill="#444444" stroke="#000000" stroke-width="3"/><path d="M221.60572,241.06192v-7.81021h17.87989v7.81021z" fill="#444444" stroke="#000000" stroke-width="3"/><path d="M240.40254,241.06192v-7.81021h17.87988v7.81021z" fill="#444444" stroke="#000000" stroke-width="3"/><path d="M259.19933,241.06192v-7.81021h17.87989v7.81021z" fill="#444444" stroke="#000000" stroke-width="3"/><path d="M277.99613,241.06192v-7.81021h17.87989v7.81021z" fill="#444444" stroke="#000000" stroke-width="3"/><path d="M296.79292,241.06192v-7.81021h17.87989v7.81021z" fill="#444444" stroke="#000000" stroke-width="3"/><path d="M315.58973,241.06192v-7.81021h17.87989v7.81021z" fill="#444444" stroke="#000000" stroke-width="3"/><path d="M334.38653,241.06192v-7.81021h17.87989v7.81021z" fill="#444444" stroke="#000000" stroke-width="3"/><path d="M127.91428,161.33976v-62.48167h222.35603v62.48167z" fill="url(#color-2)" stroke="none" stroke-width="0"/><path d="M88.69221,66.18615l2.18117,-5.07503l8.1827,3.72801l1.58892,-3.40578l-14.01069,-9.09387l5.49718,-8.06046l8.40017,-1.12558l8.60861,5.2944l-2.68284,4.1852l-8.8983,-2.52269l0.62545,3.7469l10.80915,5.48338l0.51799,4.80346l-3.01866,4.81432l-11.49717,0.82156z" fill="url(#color-3)" stroke="#303030" stroke-width="2"/><path d="M197.9106,71.05127l3.14958,-29.10876l16.87512,1.75713l0.03364,6.89641l-10.46615,-1.856l-1.57317,5.53903l8.64505,-0.37076l1.04022,5.05549l-10.9561,1.49904l0.97673,6.40134l9.69167,-2.62553l2.74071,6.64683z" fill="url(#color-4)" stroke="#303030" stroke-width="2"/><path d="M171.95397,71.91131l-0.68954,-26.89225l9.88348,-2.8731l9.76854,3.90742l-2.18356,7.35514l-5.56276,4.33398l10.84927,8.8823l-3.41991,4.31807l-11.53134,-10.14901l-2.4139,10.7593z" fill="url(#color-5)" stroke="#303030" stroke-width="2"/><path d="M176.8957,55.53462l-0.22985,-5.57382l3.77014,-1.85455l4.0447,1.33739l-0.11492,3.31365z" fill="url(#color-6)" stroke="#303030" stroke-width="2"/><path d="M115.10746,70.68651l2.99171,-27.64967l16.02925,1.66906l0.03196,6.55072l-9.94153,-1.76297l-1.49431,5.26139l8.21171,-0.35218l0.98808,4.80208l-10.40692,1.4239l0.92778,6.08047l9.20587,-2.49393l2.60333,6.31366z" fill="url(#color-7)" stroke="#303030" stroke-width="2"/><path d="M226.60303,53.16686l-1.61218,-8.83911l28.88495,1.10489l-0.40304,7.41854l-11.42071,0.41676l2.39919,18.32761l-9.51749,0.88161l0.13239,-19.42071z" fill="url(#color-8)" stroke="#303030" stroke-width="2"/><path d="M152.65075,71.70644l-11.45326,-11.01149l2.13079,-11.82856l8.38663,-6.53539l10.10293,2.49566v7.61335l-7.45798,-2.17524l-4.46306,4.33877l0.48818,5.72512l5.90718,2.73937l5.08706,-5.13053l3.07999,7.86473z" fill="url(#color-9)" stroke="#303030" stroke-width="2"/><path d="M307.46897,72.44769l9.8863,-29.65893l7.99319,0.63104l10.09667,27.97616l-7.56432,0.71731l-2.53081,-8.27362l-8.38967,1.79843l-3.33087,7.1042z" fill="url(#color-10)" stroke="#303030" stroke-width="2"/><path d="M316.93458,59.61652l2.73451,-9.88631l4.20694,0.42069l1.89312,8.41388z" fill="url(#color-11)" stroke="#303030" stroke-width="2"/><path d="M289.65076,73.70644l-11.45326,-11.01149l2.13079,-11.82856l8.38663,-6.53539l10.10293,2.49566v7.61335l-7.45798,-2.17524l-4.46306,4.33877l0.48818,5.72512l5.90718,2.73937l5.08706,-5.13053l3.07999,7.86473z" fill="url(#color-12)" stroke="#303030" stroke-width="2"/><path d="M337.98008,46.71151l4.91737,-2.46061l7.71341,15.00222l5.9159,-15.5117l6.2066,1.95284l-11.6137,26.61825z" fill="url(#color-13)" stroke="#303030" stroke-width="2"/><path d="M367.41061,74.05127l3.14958,-29.10876l16.87512,1.75713l0.03364,6.89641l-10.46615,-1.856l-1.57317,5.53903l8.64505,-0.37076l1.04022,5.05549l-10.9561,1.49904l0.97673,6.40134l9.69167,-2.62553l2.74071,6.64683z" fill="url(#color-14)" stroke="#303030" stroke-width="2"/></g></g></svg>