<svg version="1.1" xmlns="http://www.w3.org/2000/svg" xmlns:xlink="http://www.w3.org/1999/xlink" width="501.05836" height="293.50004" viewBox="0,0,501.05836,293.50004"><defs><linearGradient x1="45.72623" y1="142.09374" x2="45.72623" y2="181.38516" gradientUnits="userSpaceOnUse" id="color-1"><stop offset="0" stop-color="#17ff22"/><stop offset="1" stop-color="#02d10c"/></linearGradient><linearGradient x1="294.58215" y1="291.09374" x2="294.58215" y2="330.38516" gradientUnits="userSpaceOnUse" id="color-2"><stop offset="0" stop-color="#17ff22"/><stop offset="1" stop-color="#02d10c"/></linearGradient></defs><g transform="translate(12.86936,-140.59376)"><g data-paper-data="{&quot;isPaintingLayer&quot;:true}" fill-rule="nonzero" stroke-linejoin="miter" stroke-miterlimit="10" stroke-dasharray="" stroke-dashoffset="0" style="mix-blend-mode: normal"><path d="M-11.72656,434.0938v-269h114.21496v269z" fill="#98763d" stroke="none" stroke-width="0" stroke-linecap="butt"/><path d="M-11.36936,168.98702v-26.89326h114.19118v26.89326l-6.37108,1.75726l-10.37359,10.64086l-10.08819,-11.9986l-9.60292,10.37815l-9.60869,-10.67969l-10.23706,8.22474l-9.52865,-9.40523l-13.5726,12.49333l-10.07175,-13.2091l-13.26327,10.7627z" fill="url(#color-1)" stroke="#08a310" stroke-width="3" stroke-linecap="butt"/><path d="M23.67385,213.43998l-8.87184,-13.22785l6.05447,-3.87501l16.87004,15.94784l1.16689,7.40281z" data-paper-data="{&quot;index&quot;:null}" fill="#774b00" stroke="#703100" stroke-width="2" stroke-linecap="round"/><path d="M67.67385,290.43998l-8.87184,-13.22785l6.05447,-3.87501l16.87004,15.94784l1.16689,7.40281z" data-paper-data="{&quot;index&quot;:null}" fill="#774b00" stroke="#703100" stroke-width="2" stroke-linecap="round"/><path d="M23.67385,349.43998l-8.87184,-13.22785l6.05447,-3.87501l16.87004,15.94784l1.16689,7.40281z" data-paper-data="{&quot;index&quot;:null}" fill="#774b00" stroke="#703100" stroke-width="2" stroke-linecap="round"/><path d="M101.27344,366.0938v-52h384.29372v52z" fill="#98763d" stroke="none" stroke-width="0" stroke-linecap="butt"/><path d="M102.47529,317.98702v-26.89326h384.21371v26.89326l-21.43647,1.75726l-34.90353,10.64086l-33.94326,-11.9986l-32.31049,10.37815l-32.32991,-10.67969l-34.44416,8.22474l-32.0606,-9.40523l-45.66709,12.49333l-33.88795,-13.2091l-44.6263,10.7627z" fill="url(#color-2)" stroke="#08a310" stroke-width="3" stroke-linecap="butt"/><path d="M142.67385,343.43998l-8.87184,-13.22785l6.05447,-3.87501l16.87004,15.94784l1.16689,7.40281z" data-paper-data="{&quot;index&quot;:null}" fill="#774b00" stroke="#703100" stroke-width="2" stroke-linecap="round"/><path d="M235.67385,343.43998l-8.87184,-13.22785l6.05447,-3.87501l16.87004,15.94784l1.16689,7.40281z" data-paper-data="{&quot;index&quot;:null}" fill="#774b00" stroke="#703100" stroke-width="2" stroke-linecap="round"/><path d="M320.67385,355.43998l-8.87184,-13.22785l6.05447,-3.87501l16.87004,15.94784l1.16689,7.40281z" data-paper-data="{&quot;index&quot;:null}" fill="#774b00" stroke="#703100" stroke-width="2" stroke-linecap="round"/><path d="M428.67385,348.43998l-8.87184,-13.22785l6.05447,-3.87501l16.87004,15.94784l1.16689,7.40281z" data-paper-data="{&quot;index&quot;:null}" fill="#774b00" stroke="#703100" stroke-width="2" stroke-linecap="round"/></g></g></svg>