<svg version="1.1" xmlns="http://www.w3.org/2000/svg" xmlns:xlink="http://www.w3.org/1999/xlink" width="93.75099" height="151.94124" viewBox="0,0,93.75099,151.94124"><defs><linearGradient x1="264.01173" y1="155.71146" x2="264.01173" y2="183.96274" gradientUnits="userSpaceOnUse" id="color-1"><stop offset="0" stop-color="#d21515"/><stop offset="1" stop-color="#940000"/></linearGradient><linearGradient x1="258.31355" y1="215.72289" x2="258.31355" y2="248.17834" gradientUnits="userSpaceOnUse" id="color-2"><stop offset="0" stop-color="#364ec7"/><stop offset="1" stop-color="#001371"/></linearGradient><linearGradient x1="274.81701" y1="233.78621" x2="274.81701" y2="254.06473" gradientUnits="userSpaceOnUse" id="color-3"><stop offset="0" stop-color="#a6680a"/><stop offset="1" stop-color="#6c4306"/></linearGradient><linearGradient x1="237.43304" y1="165.16539" x2="237.43304" y2="224.36535" gradientUnits="userSpaceOnUse" id="color-4"><stop offset="0" stop-color="#364ec7"/><stop offset="1" stop-color="#001371"/></linearGradient><linearGradient x1="239.0227" y1="170.47865" x2="239.0227" y2="191.00044" gradientUnits="userSpaceOnUse" id="color-5"><stop offset="0" stop-color="#d21515"/><stop offset="1" stop-color="#940000"/></linearGradient><linearGradient x1="237.9146" y1="124.92258" x2="237.9146" y2="176.37639" gradientUnits="userSpaceOnUse" id="color-6"><stop offset="0" stop-color="#ffefc0"/><stop offset="1" stop-color="#e0ce98"/></linearGradient><linearGradient x1="234.1737" y1="104.65438" x2="234.1737" y2="146.15395" gradientUnits="userSpaceOnUse" id="color-7"><stop offset="0" stop-color="#d21515"/><stop offset="1" stop-color="#940000"/></linearGradient><linearGradient x1="265.49374" y1="142.82317" x2="265.49374" y2="159.89951" gradientUnits="userSpaceOnUse" id="color-8"><stop offset="0" stop-color="#ffefc0"/><stop offset="1" stop-color="#e0ce98"/></linearGradient><linearGradient x1="215.16808" y1="145.80848" x2="215.16808" y2="156.64379" gradientUnits="userSpaceOnUse" id="color-9"><stop offset="0" stop-color="#ffefc0"/><stop offset="1" stop-color="#e0ce98"/></linearGradient><linearGradient x1="216.1941" y1="211.66354" x2="216.1941" y2="244.51388" gradientUnits="userSpaceOnUse" id="color-10"><stop offset="0" stop-color="#364ec7"/><stop offset="1" stop-color="#001371"/></linearGradient><linearGradient x1="206.4579" y1="234.62202" x2="206.4579" y2="255.34562" gradientUnits="userSpaceOnUse" id="color-11"><stop offset="0" stop-color="#a6680a"/><stop offset="1" stop-color="#6c4306"/></linearGradient><linearGradient x1="215.88402" y1="174.43055" x2="215.88402" y2="203.14845" gradientUnits="userSpaceOnUse" id="color-12"><stop offset="0" stop-color="#d21515"/><stop offset="1" stop-color="#940000"/></linearGradient></defs><g transform="translate(-193.12515,-104.15438)"><g data-paper-data="{&quot;isPaintingLayer&quot;:true}" fill-rule="nonzero" stroke-linejoin="miter" stroke-miterlimit="10" stroke-dasharray="" stroke-dashoffset="0" style="mix-blend-mode: normal"><g data-paper-data="{&quot;origPos&quot;:null,&quot;index&quot;:null}" stroke-width="1.5" stroke-linecap="butt"><path d="M252.94178,183.35616c-2.75324,-2.25444 -0.02898,-10.13474 6.08479,-17.60112c6.11375,-7.46638 13.30187,-11.69147 16.05511,-9.43701c2.75323,2.25447 0.02897,10.13474 -6.0848,17.60112c-6.11376,7.46638 -13.30189,11.69148 -16.05511,9.43702z" data-paper-data="{&quot;origRot&quot;:0,&quot;origPos&quot;:null,&quot;index&quot;:null}" fill="url(#color-1)" stroke="#940000"/><path d="M265.81364,153.45607c0,-5.79007 4.54713,-10.48386 10.15625,-10.48386c5.60915,0 10.15625,4.69378 10.15625,10.48386c0,5.79007 -4.54711,10.48386 -10.15625,10.48386c-5.60914,0 -10.15625,-4.69378 -10.15625,-10.48386z" data-paper-data="{&quot;origPos&quot;:null,&quot;index&quot;:null}" fill="#ffffff" stroke="#bfbfbf"/></g><g data-paper-data="{&quot;origPos&quot;:null,&quot;origRot&quot;:0}" stroke-width="1.5" stroke-linecap="butt"><path d="M264.70789,223.9721c2.69218,2.23115 6.2841,7.23464 8.35794,10.0497c2.9825,4.04849 2.17165,5.90966 -1.15498,9.86836c-3.34146,3.97636 -4.01439,5.47442 -8.57489,3.26649c-3.13677,-1.51865 -6.67202,-8.21215 -9.34693,-10.42899c-7.89897,-6.54628 -14.54051,-9.557 -11.53553,-13.13296c0,0 5.24845,-5.35196 7.46256,-5.16306c0,0 1.06951,-3.68377 4.00216,-2.45951c2.95295,1.23274 2.8907,1.45369 10.78967,7.99998z" data-paper-data="{&quot;origPos&quot;:null,&quot;origRot&quot;:0}" fill="url(#color-2)" stroke="#001371"/><path d="M278.59111,233.95516c5.79675,-1.07628 6.933,3.23051 6.21466,6.09496c-0.86985,3.46864 -7.21621,10.71403 -12.06639,12.99454c-4.85017,2.28051 -4.33292,0.18483 -5.74173,-0.94811c-3.1323,-2.51891 -3.58007,-6.98756 1.31885,-12.67169c4.89891,-5.68414 4.47787,-4.39343 10.27462,-5.46971z" data-paper-data="{&quot;origPos&quot;:null,&quot;origRot&quot;:0}" fill="url(#color-3)" stroke="#6c4306"/></g><path d="" data-paper-data="{&quot;origPos&quot;:null}" fill="#c1770b" stroke="#6c4306" stroke-width="1.5" stroke-linecap="butt"/><g data-paper-data="{&quot;origPos&quot;:null}" stroke-linecap="butt"><path d="M256.32707,195.4401c0,9.26372 2.84091,18.23837 -2.69239,25.3177c-3.54659,4.53753 -10.70286,3.50701 -16.20164,3.50701c-5.49877,0 -12.65505,0.73766 -16.20165,-3.79985c-5.5333,-7.07933 -2.69238,-15.76114 -2.69238,-25.02485c0,-15.91945 8.45914,-28.82471 18.89403,-28.82471c0,0 11.73737,-4.40076 15.22571,2.13104c3.4719,6.50102 3.66832,10.77421 3.66832,26.69366z" data-paper-data="{&quot;origPos&quot;:null}" fill="url(#color-4)" stroke="#001371" stroke-width="1.5"/><path d="M246.40999,179.11648c0,2.68857 1.31009,7.12666 -0.34219,8.97831c-1.7848,2.00015 -3.67346,2.91985 -6.1351,2.90548c-2.72608,-0.01592 -4.60612,-1.00217 -6.88148,-2.77355c-2.33853,-1.82055 -1.87025,-5.80478 -1.87025,-9.11024c0,-4.77054 3.40914,-8.63783 7.61452,-8.63783c4.20537,0 7.61451,3.8673 7.61451,8.63783z" data-paper-data="{&quot;origPos&quot;:null}" fill="url(#color-5)" stroke="none" stroke-width="0"/><path d="M231.77245,187.27202c0,2.23365 -1.96162,4.0444 -4.38142,4.0444c-2.4198,0 -4.38143,-1.81074 -4.38143,-4.0444c0,-2.23365 1.96163,-4.04439 4.38143,-4.04439c2.4198,0 4.38142,1.81074 4.38142,4.04439z" data-paper-data="{&quot;origPos&quot;:null}" fill="#faff66" stroke="none" stroke-width="1.5"/><path d="M255.27376,186.7173c0,2.17864 -1.9133,3.94477 -4.2735,3.94477c-2.36019,0 -4.2735,-1.76612 -4.2735,-3.94477c0,-2.17864 1.91331,-3.94477 4.2735,-3.94477c2.36019,0 4.2735,1.76612 4.2735,3.94477z" data-paper-data="{&quot;origPos&quot;:null}" fill="#faff66" stroke="none" stroke-width="1.5"/></g><g data-paper-data="{&quot;origPos&quot;:null,&quot;origRot&quot;:0}"><path d="M268.12754,146.17699c2.72087,13.0985 -8.5211,26.51036 -23.04021,29.52632c-14.5191,3.01597 -33.25565,-4.33397 -35.97652,-17.43248c-0.98478,-4.74079 -2.79091,-16.82551 -1.16473,-21.33061c3.74757,-10.38209 16.7762,-6.48724 27.28809,-8.67081c0,0 16.28474,-7.54013 23.89199,0.01463c3.60997,3.58506 6.28052,4.79443 9.00139,17.89294z" data-paper-data="{&quot;origPos&quot;:null}" fill="url(#color-6)" stroke="#e0ce98" stroke-width="1" stroke-linecap="butt"/><path d="M260.53173,120.05011c10.82163,12.28335 -26.51806,16.57186 -28.73192,18.93586c-2.17431,2.32176 0.70913,7.43968 -2.36675,8.07861c-4.3111,0.89552 -8.91741,2.58178 -9.2077,7.13596c-0.16799,2.63563 4.07241,6.81464 1.79609,7.97454c-2.24244,1.14263 -4.06732,3.55338 -6.48977,4.2129c-1.96464,0.53487 -2.69538,-1.37668 -4.69488,-0.99351c-5.69424,1.0912 -1.66202,-11.87676 -1.6545,-12.51445c0.0025,-0.21256 -2.08567,-4.11077 -2.50469,-6.12798c-2.27266,-10.94079 7.07254,-18.95101 14.00043,-20.3901c6.92789,-1.43909 29.03205,-18.59518 39.85369,-6.31183z" data-paper-data="{&quot;origPos&quot;:null}" fill="#5a3413" stroke="#351c06" stroke-width="1" stroke-linecap="butt"/><path d="M267.99862,158.92099c0.19051,0.91715 -0.5524,2.43187 -0.46208,3.36388c0.1918,1.97935 -0.93968,3.27861 -2.80724,3.75709c-2.0612,0.52811 -3.36857,-1.38714 -5.47348,-1.07548c-1.46119,0.21633 -1.15263,2.02267 -2.59873,2.32306c-1.57509,0.32718 -1.85869,-1.11995 -3.46838,-1.07808c-2.19815,0.05718 -2.45416,2.27834 -4.58207,1.67721c-1.11276,-0.31436 -3.12755,-2.18583 -3.94806,-3.02617c-2.59757,-2.66033 -8.23554,-5.6885 -4.15905,-7.70035c2.0057,-0.98987 9.21404,3.38593 11.39974,2.93191c0,0 3.65837,-0.77724 5.49753,-1.05866c4.17014,-0.63811 9.70011,-4.45531 10.60182,-0.11439z" data-paper-data="{&quot;origPos&quot;:null}" fill="#5a3413" stroke="#351c06" stroke-width="1" stroke-linecap="butt"/><path d="M264.33271,121.78136c2.07981,10.01238 -11.23519,6.34922 -27.89162,9.80916c-4.03249,0.83764 -7.65449,10.20308 -11.69435,11.00422c-5.72731,1.13579 -12.39993,5.17463 -17.59314,2.85028c-3.66606,-1.64084 -2.35912,-7.37892 -3.13917,-11.13412c-1.76226,-8.48366 7.70286,-10.57768 15.16798,-15.94617c5.42635,-3.90232 4.28841,-8.56102 10.91581,-9.93769c0,0 13.18469,-4.65778 21.63476,-3.62252c9.56666,1.17205 10.51992,6.96444 12.59973,16.97682z" data-paper-data="{&quot;origPos&quot;:null}" fill="url(#color-7)" stroke="#940000" stroke-width="1" stroke-linecap="butt"/><path d="M275.7913,125.34257c0.6842,3.29378 -9.98372,2.36322 -23.02881,5.07299c-13.04508,2.70978 -23.52743,8.03376 -24.21163,4.73998c-0.6842,-3.29378 9.33628,-8.16062 22.38137,-10.8704c13.04508,-2.70978 24.17486,-2.23635 24.85906,1.05742z" data-paper-data="{&quot;origPos&quot;:null}" fill="#d21515" stroke="#940000" stroke-width="1" stroke-linecap="butt"/><path d="M257.76478,116.68714c0.42163,2.02974 1.01347,3.36764 -0.22565,4.97142c-1.06953,1.38429 -8.52542,2.62847 -9.94044,1.98873c-2.01567,-0.9113 -1.55189,-2.20828 -2.01343,-4.43017c-0.68887,-3.31628 1.47917,-6.57103 4.84246,-7.26966c3.36328,-0.69864 6.64821,1.4234 7.33708,4.73968z" data-paper-data="{&quot;origPos&quot;:null}" fill="#ffffff" stroke="#a4a4a4" stroke-width="1" stroke-linecap="butt"/><path d="M255.3714,142.5455c0.81353,3.91639 -0.56897,7.51542 -3.08789,8.03866c-2.51892,0.52324 -5.22041,-2.22746 -6.03393,-6.14384c-0.81353,-3.91639 0.56896,-7.51543 3.08788,-8.03867c2.51892,-0.52324 5.22041,2.22746 6.03394,6.14385z" data-paper-data="{&quot;origPos&quot;:null}" fill="#ffffff" stroke="none" stroke-width="0" stroke-linecap="butt"/><path d="M248.66974,121.53082l0.59107,-5.57928l2.70703,3.07535l0.76781,-3.96251l3.30838,4.43858" data-paper-data="{&quot;origPos&quot;:null}" fill="none" stroke="#ba0000" stroke-width="1" stroke-linecap="round"/><path d="M245.57896,136.45218c0,0 3.32541,-1.27073 4.04652,-1.29579c1.28955,-0.04483 3.75966,1.02933 3.75966,1.02933" data-paper-data="{&quot;origPos&quot;:null,&quot;origRot&quot;:0}" fill="none" stroke="#351c06" stroke-width="1.5" stroke-linecap="round"/><path d="M255.33601,142.23503c0.5399,2.59914 -0.37759,4.98764 -2.04929,5.33489c-1.67169,0.34725 -3.46455,-1.47827 -4.00444,-4.07739c-0.5399,-2.59914 0.3776,-4.98764 2.04929,-5.33489c1.67169,-0.34725 3.46455,1.47827 4.00444,4.07739z" data-paper-data="{&quot;origPos&quot;:null}" fill="#1121d4" stroke="none" stroke-width="0" stroke-linecap="butt"/><path d="M255.37349,142.08468c0.27919,1.34402 -0.19525,2.57912 -1.05969,2.75868c-0.86445,0.17957 -1.79152,-0.76441 -2.07071,-2.10842c-0.27919,-1.34402 0.19526,-2.57912 1.05969,-2.75868c0.86445,-0.17957 1.79152,0.76441 2.07071,2.10842z" data-paper-data="{&quot;origPos&quot;:null}" fill="#000000" stroke="none" stroke-width="0" stroke-linecap="butt"/><path d="M259.921,133.56247c2.08866,-0.43387 4.32871,1.84697 5.00328,5.0944c0.67457,3.24743 -0.47178,6.2317 -2.56046,6.66557c-2.08866,0.43387 -4.32871,-1.84697 -5.00328,-5.0944c-0.67457,-3.24743 0.47178,-6.2317 2.56046,-6.66557z" data-paper-data="{&quot;origPos&quot;:null,&quot;index&quot;:null}" fill="#ffffff" stroke="none" stroke-width="0" stroke-linecap="butt"/><path d="M257.08072,134.57533c0,0 1.52401,-1.63271 2.51964,-2.02447c0.55675,-0.21907 3.50567,-0.35073 3.50567,-0.35073" data-paper-data="{&quot;origPos&quot;:null,&quot;origRot&quot;:0,&quot;index&quot;:null}" fill="none" stroke="#351c06" stroke-width="1.5" stroke-linecap="round"/><path d="M261.69318,135.11382c1.38614,-0.28793 2.87277,1.22576 3.32045,3.38091c0.44768,2.15516 -0.3131,4.13569 -1.69926,4.42363c-1.38614,0.28793 -2.87276,-1.22576 -3.32044,-3.38091c-0.44768,-2.15516 0.3131,-4.13569 1.69925,-4.42362z" data-paper-data="{&quot;origPos&quot;:null,&quot;index&quot;:null}" fill="#1121d4" stroke="none" stroke-width="0" stroke-linecap="butt"/><path d="M263.39596,136.73238c0.71679,-0.14889 1.48551,0.63384 1.71701,1.74828c0.2315,1.11445 -0.16191,2.13858 -0.87868,2.28747c-0.71679,0.14889 -1.4855,-0.63384 -1.717,-1.74828c-0.2315,-1.11445 0.16191,-2.13858 0.87867,-2.28747z" data-paper-data="{&quot;origPos&quot;:null,&quot;index&quot;:null}" fill="#000000" stroke="none" stroke-width="0" stroke-linecap="butt"/><path d="M277.23088,148.92325c0.93847,4.51787 -3.55564,9.27189 -10.03789,10.61841c-6.48224,1.34652 -12.49792,-1.22436 -13.43639,-5.74224c-0.93847,-4.51787 3.55564,-9.27189 10.03789,-10.61841c6.48224,-1.34652 12.49792,1.22436 13.43639,5.74224z" data-paper-data="{&quot;origPos&quot;:null}" fill="url(#color-8)" stroke="#e0ce98" stroke-width="1.5" stroke-linecap="butt"/><path d="M222.49642,152.17446c-0.31203,2.94537 -3.84599,4.9085 -7.89332,4.38475c-4.04734,-0.52375 -7.07539,-3.33602 -6.76337,-6.28141c0.31203,-2.94537 3.84599,-4.9085 7.89332,-4.38475c4.04734,0.52375 7.07539,3.33602 6.76337,6.28141z" data-paper-data="{&quot;origRot&quot;:0,&quot;origPos&quot;:null}" fill="url(#color-9)" stroke="#e0ce98" stroke-width="1.5" stroke-linecap="butt"/></g><g data-paper-data="{&quot;origPos&quot;:null,&quot;origRot&quot;:0}" stroke-width="1.5" stroke-linecap="butt"><path d="M225.61515,234.40974c-2.1877,2.66501 -7.1313,6.22203 -9.91185,8.27566c-3.99887,2.95345 -5.87072,2.15247 -9.87679,-1.1361c-4.02392,-3.30323 -5.53091,-3.968 -3.3951,-8.48143c1.46905,-3.10438 8.10194,-6.60646 10.27561,-9.25438c6.4188,-7.81925 9.32467,-14.3921 12.94341,-11.42148c0,0 5.42752,5.18901 5.27279,7.37968c-0.44609,6.31645 1.11072,6.81881 -5.30808,14.63806z" data-paper-data="{&quot;origPos&quot;:null}" fill="url(#color-10)" stroke="#001371"/><path d="M216.98535,248.68258c1.11124,5.92713 -3.44902,7.17688 -6.47517,6.49554c-3.66444,-0.82505 -11.29769,-7.19609 -13.68696,-12.1285c-2.38927,-4.9324 -0.17525,-4.44245 1.02954,-5.91009c2.67867,-3.2631 7.40689,-3.80953 13.39568,1.10665c5.98879,4.91618 4.62567,4.50927 5.7369,10.43641z" data-paper-data="{&quot;origPos&quot;:null}" fill="url(#color-11)" stroke="#6c4306"/></g><g data-paper-data="{&quot;origPos&quot;:null,&quot;origRot&quot;:0}" stroke-width="1.5" stroke-linecap="butt"><path d="M220.96435,192.82206c-6.03964,7.60891 -13.21029,11.97174 -16.01607,9.74462c-2.8058,-2.2271 -0.18423,-10.20079 5.8554,-17.80974c6.03964,-7.60891 13.21029,-11.97174 16.01607,-9.74462c2.8058,2.2271 0.18423,10.20079 -5.8554,17.80974z" data-paper-data="{&quot;origRot&quot;:0,&quot;origPos&quot;:null}" fill="url(#color-12)" stroke="#940000"/><path d="M214.32094,205.30561c0.0886,5.82807 -4.41652,10.62224 -10.06248,10.70807c-5.64595,0.08584 -10.29471,-4.56918 -10.38331,-10.39725c-0.0886,-5.82807 4.41652,-10.62224 10.06248,-10.70807c5.64595,-0.08584 10.29471,4.56918 10.38331,10.39725z" data-paper-data="{&quot;origPos&quot;:null,&quot;origRot&quot;:0}" fill="#ffffff" stroke="#bfbfbf"/></g></g></g></svg>