<svg version="1.1" xmlns="http://www.w3.org/2000/svg" xmlns:xlink="http://www.w3.org/1999/xlink" width="497" height="382" viewBox="0,0,497,382"><defs><linearGradient x1="240" y1="-9" x2="240" y2="369" gradientUnits="userSpaceOnUse" id="color-1"><stop offset="0" stop-color="#ffaf26"/><stop offset="1" stop-color="#ffe1a0"/></linearGradient></defs><g transform="translate(8.5,11)"><g data-paper-data="{&quot;isPaintingLayer&quot;:true}" fill-rule="nonzero" stroke="#c38600" stroke-width="4" stroke-linejoin="miter" stroke-miterlimit="10" stroke-dasharray="" stroke-dashoffset="0" style="mix-blend-mode: normal"><path d="M-6.5,369v-378h493v378z" fill="url(#color-1)" stroke-linecap="butt"/><path d="M24.40625,51.3125h55" fill="none" stroke-linecap="round"/><path d="M129.40625,83.3125l81,-3" fill="none" stroke-linecap="round"/><path d="M233.40625,23.3125h82" fill="none" stroke-linecap="round"/><path d="M307.40625,69.3125h97" fill="none" stroke-linecap="round"/><path d="M48.40625,153.3125l73,3" fill="none" stroke-linecap="round"/><path d="M154.40625,157.3125l90,-4" fill="none" stroke-linecap="round"/><path d="M305.40625,151.3125l94,2" fill="none" stroke-linecap="round"/><path d="M349.40625,237.3125l91,-1" fill="none" stroke-linecap="round"/><path d="M65.40625,236.3125l81,9" fill="none" stroke-linecap="round"/><path d="M147.40625,303.3125h97" fill="none" stroke-linecap="round"/><path d="M251.40625,225.3125h82" fill="none" stroke-linecap="round"/><path d="M79.40625,315.3125l43,18" fill="none" stroke-linecap="round"/><path d="M360.40625,320.3125h75" fill="none" stroke-linecap="round"/><path d="M313.40625,301.3125h75" fill="none" stroke-linecap="round"/></g></g></svg>