<svg version="1.1" xmlns="http://www.w3.org/2000/svg" xmlns:xlink="http://www.w3.org/1999/xlink" width="567.65582" height="371" viewBox="0,0,567.65582,371"><defs><linearGradient x1="322.35625" y1="227.9837" x2="322.35625" y2="270.9837" gradientUnits="userSpaceOnUse" id="color-1"><stop offset="0" stop-color="#c6964f"/><stop offset="1" stop-color="#a98044"/></linearGradient></defs><g transform="translate(-2.14064,0.8125)"><g data-paper-data="{&quot;isPaintingLayer&quot;:true}" fill-rule="nonzero" stroke-linecap="butt" stroke-linejoin="miter" stroke-miterlimit="10" stroke-dasharray="" stroke-dashoffset="0" style="mix-blend-mode: normal"><path d="M3.64064,368.6875v-82.1875h444.60894v82.1875z" data-paper-data="{&quot;index&quot;:null}" fill="#6b6b6b" stroke="#211502" stroke-width="3"/><path d="M184.53791,321.53731l-4.37129,5.76313l-13.311,-2.49491l4.3713,-5.76313z" data-paper-data="{&quot;index&quot;:null}" fill="#3c3c3c" stroke="none" stroke-width="0"/><path d="M81.47237,312.64279l7.70571,7.29805l-13.84748,8.36469l-7.7057,-7.29805z" data-paper-data="{&quot;index&quot;:null}" fill="#3c3c3c" stroke="none" stroke-width="0"/><path d="M142.03321,284.7962v-13h32.2622v13z" data-paper-data="{&quot;index&quot;:null}" fill="#444444" stroke="#000000" stroke-width="3"/><path d="M107.81573,284.7962v-13h32.2622v13z" data-paper-data="{&quot;index&quot;:null}" fill="#444444" stroke="#000000" stroke-width="3"/><path d="M73.10941,284.7962v-13h32.2622v13z" data-paper-data="{&quot;index&quot;:null}" fill="#444444" stroke="#000000" stroke-width="3"/><path d="M38.40312,284.7962v-13h32.2622v13z" data-paper-data="{&quot;index&quot;:null}" fill="#444444" stroke="#000000" stroke-width="3"/><path d="M138.47237,343.64279l7.70571,7.29805l-13.84748,8.36469l-7.7057,-7.29805z" data-paper-data="{&quot;index&quot;:null}" fill="#3c3c3c" stroke="none" stroke-width="0"/><path d="M267.47236,335.64279l7.70571,7.29805l-13.84748,8.36469l-7.7057,-7.29805z" data-paper-data="{&quot;index&quot;:null}" fill="#3c3c3c" stroke="none" stroke-width="0"/><path d="M279.03324,284.7962v-13h32.2622v13z" data-paper-data="{&quot;index&quot;:null}" fill="#444444" stroke="#000000" stroke-width="3"/><path d="M244.81574,284.7962v-13h32.2622v13z" data-paper-data="{&quot;index&quot;:null}" fill="#444444" stroke="#000000" stroke-width="3"/><path d="M210.10943,284.7962v-13h32.2622v13z" data-paper-data="{&quot;index&quot;:null}" fill="#444444" stroke="#000000" stroke-width="3"/><path d="M175.40314,284.7962v-13h32.2622v13z" data-paper-data="{&quot;index&quot;:null}" fill="#444444" stroke="#000000" stroke-width="3"/><path d="M416.03324,284.7962v-13h32.2622v13z" data-paper-data="{&quot;index&quot;:null}" fill="#444444" stroke="#000000" stroke-width="3"/><path d="M381.81575,284.7962v-13h32.2622v13z" data-paper-data="{&quot;index&quot;:null}" fill="#444444" stroke="#000000" stroke-width="3"/><path d="M347.10943,284.7962v-13h32.2622v13z" data-paper-data="{&quot;index&quot;:null}" fill="#444444" stroke="#000000" stroke-width="3"/><path d="M312.40313,284.7962v-13h32.2622v13z" data-paper-data="{&quot;index&quot;:null}" fill="#444444" stroke="#000000" stroke-width="3"/><path d="M383.47237,310.64279l7.70571,7.29805l-13.84748,8.36469l-7.7057,-7.29805z" data-paper-data="{&quot;index&quot;:null}" fill="#3c3c3c" stroke="none" stroke-width="0"/><path d="M277.35625,270.9837v-43h90v43z" fill="url(#color-1)" stroke="#826334" stroke-width="2.5"/><path d="M4.10941,284.7962v-13h32.2622v13z" data-paper-data="{&quot;index&quot;:null}" fill="#444444" stroke="#000000" stroke-width="3"/><path d="M405.68752,368.6875v-368h162.60894v368z" data-paper-data="{&quot;index&quot;:null}" fill="#6b6b6b" stroke="#211502" stroke-width="3"/><path d="M537.58478,87.53731l-4.37129,5.76313l-13.311,-2.49491l4.3713,-5.76313z" data-paper-data="{&quot;index&quot;:null}" fill="#3c3c3c" stroke="none" stroke-width="0"/><path d="M434.51925,78.64279l7.70571,7.29805l-13.84748,8.36469l-7.7057,-7.29805z" data-paper-data="{&quot;index&quot;:null}" fill="#3c3c3c" stroke="none" stroke-width="0"/><path d="M491.51924,109.64279l7.70571,7.29805l-13.84748,8.36469l-7.7057,-7.29805z" data-paper-data="{&quot;index&quot;:null}" fill="#3c3c3c" stroke="none" stroke-width="0"/><path d="M449.51924,166.64279l7.70571,7.29805l-13.84748,8.36469l-7.7057,-7.29805z" data-paper-data="{&quot;index&quot;:null}" fill="#3c3c3c" stroke="none" stroke-width="0"/><path d="M523.51924,219.64279l7.70571,7.29805l-13.84748,8.36469l-7.7057,-7.29805z" data-paper-data="{&quot;index&quot;:null}" fill="#3c3c3c" stroke="none" stroke-width="0"/><path d="M467.51924,281.64279l7.70571,7.29805l-13.84748,8.36469l-7.7057,-7.29805z" data-paper-data="{&quot;index&quot;:null}" fill="#3c3c3c" stroke="none" stroke-width="0"/></g></g></svg>