<svg version="1.1" xmlns="http://www.w3.org/2000/svg" xmlns:xlink="http://www.w3.org/1999/xlink" width="347.73692" height="212" viewBox="0,0,347.73692,212"><defs><linearGradient x1="86.15626" y1="226.31252" x2="86.15626" y2="301.31252" gradientUnits="userSpaceOnUse" id="color-1"><stop offset="0" stop-color="#9f8040"/><stop offset="1" stop-color="#7f6633"/></linearGradient><linearGradient x1="70.9608" y1="181.22948" x2="99.44844" y2="237.42071" gradientUnits="userSpaceOnUse" id="color-2"><stop offset="0" stop-color="#9f8040"/><stop offset="1" stop-color="#7f6633"/></linearGradient></defs><g transform="translate(-25.30251,-90.31251)"><g data-paper-data="{&quot;isPaintingLayer&quot;:true}" fill-rule="nonzero" stroke-linejoin="miter" stroke-miterlimit="10" stroke-dasharray="" stroke-dashoffset="0" style="mix-blend-mode: normal"><path d="M76.15626,301.31252v-75h20v75z" fill="url(#color-1)" stroke="#3e3119" stroke-width="2" stroke-linecap="butt"/><path d="" data-paper-data="{&quot;origPos&quot;:null}" fill="none" stroke="#5c4a25" stroke-width="7.5" stroke-linecap="round"/><path d="M55.29818,259.80385l-28.48763,-56.19124l18.09569,-3.00765l11.98566,-12.77697l16.38941,-2.01097l11.75502,-14.43984l16.25722,1.20311l12.46718,-15.29171l29.83796,57.74899l-19.05381,2.23049l-11.36795,12.8812l-17.32365,2.40241l-12.62548,12.39871l-15.91978,3.1589z" fill="url(#color-2)" stroke="#3e3119" stroke-width="2" stroke-linecap="butt"/><path d="M106.47169,196.02606l-50.38809,32.67023" fill="none" stroke="#3e3119" stroke-width="7.5" stroke-linecap="round"/><path d="M80.61669,188.52647l33.13256,3.15894l-14.14432,33.50595" fill="none" stroke="#3e3119" stroke-width="7.5" stroke-linecap="round"/><path d="M308.46621,188.81251v-47.54774h5.1093v47.54774z" fill="#90ff96" stroke="none" stroke-width="0" stroke-linecap="butt"/><path d="M316.23443,154.40296c0,11.40232 -10.42714,11.40232 -10.42714,0c0,-11.40232 5.21357,-20.64573 5.21357,-20.64573c0,0 5.21357,9.24341 5.21357,20.64573z" fill="#ff8cf5" stroke="none" stroke-width="0" stroke-linecap="butt"/><path d="M311.02086,135.00998c0,0 -5.21357,-9.24341 -5.21357,-20.64573c0,-11.40232 10.42714,-11.40232 10.42714,0c0,11.40232 -5.21357,20.64573 -5.21357,20.64573z" data-paper-data="{&quot;index&quot;:null}" fill="#ff8cf5" stroke="none" stroke-width="0" stroke-linecap="butt"/><path d="M311.87059,134.44796c0,0 8.98667,-5.64462 20.37625,-6.18353c11.38958,-0.53891 11.8824,9.87657 0.49282,10.41548c-11.38958,0.53891 -20.86907,-4.23196 -20.86907,-4.23196z" data-paper-data="{&quot;index&quot;:null}" fill="#ff8cf5" stroke="none" stroke-width="0" stroke-linecap="butt"/><path d="M289.72314,139.09701c-11.38958,-0.53891 -10.89676,-10.95439 0.49282,-10.41548c11.38958,0.53891 20.37625,6.18353 20.37625,6.18353c0,0 -9.47949,4.77087 -20.86907,4.23196z" data-paper-data="{&quot;index&quot;:null}" fill="#ff8cf5" stroke="none" stroke-width="0" stroke-linecap="butt"/><path d="M311.47533,134.9966c0,0 3.15285,-10.13318 11.45216,-17.95203c8.29931,-7.81885 15.44945,-0.22934 7.15014,7.58951c-8.29931,7.81885 -18.6023,10.36253 -18.6023,10.36253z" data-paper-data="{&quot;index&quot;:null}" fill="#ff8cf5" stroke="none" stroke-width="0" stroke-linecap="butt"/><path d="M292.22654,124.63409c-8.29931,-7.81885 -1.14917,-15.40836 7.15014,-7.58951c8.29931,7.81885 11.45216,17.95204 11.45216,17.95204c0,0 -10.30299,-2.54367 -18.6023,-10.36252z" data-paper-data="{&quot;index&quot;:null}" fill="#ff8cf5" stroke="none" stroke-width="0" stroke-linecap="butt"/><path d="M330.49469,145.39166c8.29931,7.81885 1.14917,15.40836 -7.15014,7.58951c-8.29931,-7.81885 -11.45215,-17.95204 -11.45215,-17.95204c0,0 10.30299,2.54367 18.6023,10.36252z" data-paper-data="{&quot;index&quot;:null}" fill="#ff8cf5" stroke="none" stroke-width="0" stroke-linecap="butt"/><path d="M310.82884,135.02915c0,0 -3.15285,10.13318 -11.45215,17.95203c-8.29931,7.81885 -15.44945,0.22934 -7.15014,-7.58951c8.29931,-7.81885 18.6023,-10.36252 18.6023,-10.36252z" data-paper-data="{&quot;index&quot;:null}" fill="#ff8cf5" stroke="none" stroke-width="0" stroke-linecap="butt"/><path d="M306.64147,135.00849c0,-2.53385 2.05409,-4.58794 4.58794,-4.58794c2.53385,0 4.58794,2.05409 4.58794,4.58794c0,2.53385 -2.05409,4.58794 -4.58794,4.58794c-2.53385,0 -4.58794,-2.05409 -4.58794,-4.58794z" fill="#fffa5b" stroke="none" stroke-width="0" stroke-linecap="butt"/><path d="M311.85783,170.54796c0,0 3.92257,-5.84413 10.67826,-9.24282c6.75569,-3.39868 9.8637,2.77923 3.10801,6.17791c-6.75569,3.39868 -13.78627,3.0649 -13.78627,3.0649z" data-paper-data="{&quot;index&quot;:null}" fill="#90ff96" stroke="none" stroke-width="0" stroke-linecap="butt"/><path d="M309.81317,170.13088c0,0 -7.03058,0.33378 -13.78627,-3.0649c-6.75569,-3.39868 -3.64768,-9.57659 3.10801,-6.17791c6.75569,3.39869 10.67826,9.24282 10.67826,9.24282z" data-paper-data="{&quot;index&quot;:null}" fill="#90ff96" stroke="none" stroke-width="0" stroke-linecap="butt"/><path d="M340.46622,189.31252v-63.54774h5.1093v63.54774z" fill="#90ff96" stroke="none" stroke-width="0" stroke-linecap="butt"/><path d="M348.23444,138.90297c0,11.40232 -10.42714,11.40232 -10.42714,0c0,-11.40232 5.21357,-20.64573 5.21357,-20.64573c0,0 5.21357,9.24341 5.21357,20.64573z" fill="#bb8cff" stroke="none" stroke-width="0" stroke-linecap="butt"/><path d="M343.02087,119.50999c0,0 -5.21357,-9.24341 -5.21357,-20.64573c0,-11.40232 10.42714,-11.40232 10.42714,0c0,11.40232 -5.21357,20.64573 -5.21357,20.64573z" data-paper-data="{&quot;index&quot;:null}" fill="#bb8cff" stroke="none" stroke-width="0" stroke-linecap="butt"/><path d="M343.8706,118.94797c0,0 8.98667,-5.64462 20.37625,-6.18353c11.38958,-0.53891 11.8824,9.87657 0.49282,10.41548c-11.38958,0.53891 -20.86907,-4.23196 -20.86907,-4.23196z" data-paper-data="{&quot;index&quot;:null}" fill="#bb8cff" stroke="none" stroke-width="0" stroke-linecap="butt"/><path d="M321.72315,123.59702c-11.38958,-0.53891 -10.89676,-10.95439 0.49282,-10.41548c11.38958,0.53891 20.37625,6.18353 20.37625,6.18353c0,0 -9.47949,4.77087 -20.86907,4.23196z" data-paper-data="{&quot;index&quot;:null}" fill="#bb8cff" stroke="none" stroke-width="0" stroke-linecap="butt"/><path d="M343.47534,119.49662c0,0 3.15285,-10.13318 11.45216,-17.95203c8.29931,-7.81885 15.44945,-0.22934 7.15014,7.58951c-8.29931,7.81885 -18.6023,10.36253 -18.6023,10.36253z" data-paper-data="{&quot;index&quot;:null}" fill="#bb8cff" stroke="none" stroke-width="0" stroke-linecap="butt"/><path d="M324.22655,109.13409c-8.29931,-7.81885 -1.14917,-15.40836 7.15014,-7.58951c8.29931,7.81885 11.45216,17.95204 11.45216,17.95204c0,0 -10.30299,-2.54367 -18.6023,-10.36252z" data-paper-data="{&quot;index&quot;:null}" fill="#bb8cff" stroke="none" stroke-width="0" stroke-linecap="butt"/><path d="M362.49472,129.89166c8.29931,7.81885 1.14917,15.40836 -7.15014,7.58951c-8.29931,-7.81885 -11.45215,-17.95204 -11.45215,-17.95204c0,0 10.30299,2.54367 18.6023,10.36252z" data-paper-data="{&quot;index&quot;:null}" fill="#bb8cff" stroke="none" stroke-width="0" stroke-linecap="butt"/><path d="M342.82885,119.52915c0,0 -3.15285,10.13318 -11.45215,17.95203c-8.29931,7.81885 -15.44945,0.22934 -7.15014,-7.58951c8.29931,-7.81885 18.6023,-10.36252 18.6023,-10.36252z" data-paper-data="{&quot;index&quot;:null}" fill="#bb8cff" stroke="none" stroke-width="0" stroke-linecap="butt"/><path d="M338.64148,119.5085c0,-2.53385 2.05409,-4.58794 4.58794,-4.58794c2.53385,0 4.58794,2.05409 4.58794,4.58794c0,2.53385 -2.05409,4.58794 -4.58794,4.58794c-2.53385,0 -4.58794,-2.05409 -4.58794,-4.58794z" fill="#fffa5b" stroke="none" stroke-width="0" stroke-linecap="butt"/><path d="M343.85784,155.04797c0,0 3.92257,-5.84413 10.67826,-9.24282c6.75569,-3.39868 9.8637,2.77923 3.10801,6.17791c-6.75569,3.39868 -13.78627,3.0649 -13.78627,3.0649z" data-paper-data="{&quot;index&quot;:null}" fill="#90ff96" stroke="none" stroke-width="0" stroke-linecap="butt"/><path d="M341.81318,154.63089c0,0 -7.03058,0.33378 -13.78627,-3.0649c-6.75569,-3.39868 -3.64768,-9.57659 3.10801,-6.17791c6.75569,3.39869 10.67826,9.24282 10.67826,9.24282z" data-paper-data="{&quot;index&quot;:null}" fill="#90ff96" stroke="none" stroke-width="0" stroke-linecap="butt"/><path d="M235.95313,135.3125c0,0 6.25258,10.48725 8.59828,16.06382c2.02304,4.80951 4.65172,15.43618 4.65172,15.43618c0,0 2.62918,-10.60502 4.92992,-15.87582c2.28244,-5.22886 8.82008,-15.62418 8.82008,-15.62418c0,0 -1.78825,20.71235 -4.01722,30.43876c-2.34815,10.24648 -9.73278,29.56124 -9.73278,29.56124c0,0 -6.29268,-19.17442 -8.35896,-28.53115c-2.32076,-10.50912 -4.89104,-31.46885 -4.89104,-31.46885z" fill="#90ff96" stroke="none" stroke-width="0" stroke-linecap="butt"/><path d="M249.95313,116.42361c0,0 8.22098,13.78879 11.30514,21.12095c2.65993,6.32361 6.11615,20.29572 6.11615,20.29572c0,0 3.45689,-13.94364 6.48194,-20.87377c3.00099,-6.87499 11.59677,-20.5429 11.59677,-20.5429c0,0 -2.35121,27.2329 -5.2819,40.02134c-3.08738,13.47223 -12.79681,38.86755 -12.79681,38.86755c0,0 -8.27371,-25.2108 -10.99048,-37.51317c-3.05138,-13.81754 -6.43081,-41.37572 -6.43081,-41.37572z" fill="#80ff87" stroke="none" stroke-width="0" stroke-linecap="butt"/><path d="M98.95313,242.3125c0,0 6.25258,10.48725 8.59828,16.06382c2.02304,4.80951 4.65172,15.43618 4.65172,15.43618c0,0 2.62918,-10.60502 4.92993,-15.87582c2.28244,-5.22886 8.82007,-15.62418 8.82007,-15.62418c0,0 -1.78825,20.71235 -4.01722,30.43876c-2.34815,10.24648 -9.73278,29.56124 -9.73278,29.56124c0,0 -6.29268,-19.17442 -8.35896,-28.53115c-2.32076,-10.50912 -4.89104,-31.46885 -4.89104,-31.46885z" fill="#90ff96" stroke="none" stroke-width="0" stroke-linecap="butt"/><path d="M112.95313,223.42361c0,0 8.22098,13.78879 11.30514,21.12095c2.65993,6.32361 6.11615,20.29572 6.11615,20.29572c0,0 3.45689,-13.94364 6.48194,-20.87377c3.00099,-6.87499 11.59677,-20.5429 11.59677,-20.5429c0,0 -2.35121,27.2329 -5.2819,40.02134c-3.08738,13.47222 -12.79681,38.86755 -12.79681,38.86755c0,0 -8.27371,-25.2108 -10.99048,-37.51317c-3.05138,-13.81755 -6.43081,-41.37572 -6.43081,-41.37572z" fill="#80ff87" stroke="none" stroke-width="0" stroke-linecap="butt"/></g></g></svg>