<svg version="1.1" xmlns="http://www.w3.org/2000/svg" xmlns:xlink="http://www.w3.org/1999/xlink" width="56.20721" height="58.56869" viewBox="0,0,56.20721,58.56869"><defs><linearGradient x1="240" y1="155.60579" x2="240" y2="204.39421" gradientUnits="userSpaceOnUse" id="color-1"><stop offset="0" stop-color="#ffffff"/><stop offset="1" stop-color="#b7b7b7"/></linearGradient></defs><g transform="translate(-214.3694,-153.27626)"><g data-paper-data="{&quot;isPaintingLayer&quot;:true}" fill-rule="nonzero" stroke-width="4.5" stroke-linecap="round" stroke-linejoin="miter" stroke-miterlimit="10" stroke-dasharray="" stroke-dashoffset="0" style="mix-blend-mode: normal"><g><path d="M221.75828,195.94859l0.76832,-13.06147l13.82979,-22.28133l18.43972,1.15248l2.68913,23.04965h10.7565l-0.38416,10.37234l-9.21986,-0.38416l1.53664,13.06147l-16.51892,1.53664l-1.15248,-13.82979z" data-paper-data="{&quot;origPos&quot;:null}" fill="#000000" stroke="#000000"/><path d="M241.73464,176.74055l1.15248,4.99409h-4.99409z" data-paper-data="{&quot;origPos&quot;:null}" fill="#ffffff" stroke="#9d9d9d"/></g><path d="M216.75827,190.94859l0.76832,-13.06147l13.82979,-22.28133l18.43972,1.15248l2.68913,23.04965h10.7565l-0.38416,10.37234l-9.21986,-0.38416l1.53664,13.06147l-16.51892,1.53664l-1.15248,-13.82979z" data-paper-data="{&quot;origPos&quot;:null}" fill="url(#color-1)" stroke="#9d9d9d"/><path d="M236.73463,171.74055l1.15248,4.99409h-4.99409z" data-paper-data="{&quot;origPos&quot;:null}" fill="#ffffff" stroke="#9d9d9d"/></g></g></svg>