<svg version="1.1" xmlns="http://www.w3.org/2000/svg" xmlns:xlink="http://www.w3.org/1999/xlink" width="79.94429" height="106.80563" viewBox="0,0,79.94429,106.80563"><defs><linearGradient x1="180" y1="80.5585" x2="180" y2="153.5585" gradientUnits="userSpaceOnUse" id="color-1"><stop offset="0" stop-color="#ff7272"/><stop offset="1" stop-color="#e50000"/></linearGradient><linearGradient x1="169.94762" y1="54.31175" x2="169.94762" y2="74.45912" gradientUnits="userSpaceOnUse" id="color-2"><stop offset="0" stop-color="#fafafa"/><stop offset="1" stop-color="#bcbcbc"/></linearGradient><linearGradient x1="192.15211" y1="54.75666" x2="192.15211" y2="72.42493" gradientUnits="userSpaceOnUse" id="color-3"><stop offset="0" stop-color="#fafafa"/><stop offset="1" stop-color="#bcbcbc"/></linearGradient><linearGradient x1="192.43708" y1="59.88616" x2="192.43708" y2="62.73588" gradientUnits="userSpaceOnUse" id="color-4"><stop offset="0" stop-color="#fafafa"/><stop offset="1" stop-color="#bcbcbc"/></linearGradient><linearGradient x1="180" y1="96.4585" x2="180" y2="137.65851" gradientUnits="userSpaceOnUse" id="color-5"><stop offset="0" stop-color="#ffbdbd"/><stop offset="1" stop-color="#ff4f4f"/></linearGradient></defs><g transform="translate(-141.25,-53.15096)"><g data-paper-data="{&quot;isPaintingLayer&quot;:true}" fill-rule="nonzero" stroke-linejoin="miter" stroke-miterlimit="10" stroke-dasharray="" stroke-dashoffset="0" style="mix-blend-mode: normal"><g fill="#000000" stroke="#000000" stroke-width="2" stroke-linecap="round"><path d="M166.4581,76.47746l-3.0359,-19.04339l5.79582,-1.10397l1.65594,6.89978h3.58788l-0.82797,-6.62379l7.72776,-0.276c0,0 0,4.23286 0,6.94209c0,4.50727 0,11.54932 0,11.54932h-5.51983l-0.55198,-5.51983l-3.86387,0.276l0.55198,5.79582z" data-paper-data="{&quot;origPos&quot;:null}"/><path d="M187.28213,74.44327l0.37996,-17.66826h10.25899l3.79963,2.84971l0.18998,7.02931l-3.79963,3.79963l-5.50946,0.56995l0.37996,3.41966z" data-paper-data="{&quot;origPos&quot;:null}"/><path d="M195.07135,64.75422l-1.70983,-0.18998v-2.65975l3.0397,0.56995z" data-paper-data="{&quot;origPos&quot;:null}"/></g><path d="M145.94429,121.20659c0,-20.15839 16.34161,-36.5 36.5,-36.5c20.15839,0 36.5,16.34161 36.5,36.5c0,20.15839 -16.34161,36.5 -36.5,36.5c-20.15839,0 -36.5,-16.34161 -36.5,-36.5z" data-paper-data="{&quot;origPos&quot;:null}" fill="#000000" stroke="#000000" stroke-width="4.5" stroke-linecap="butt"/><path d="M143.5,117.0585c0,-20.15839 16.34161,-36.5 36.5,-36.5c20.15839,0 36.5,16.34161 36.5,36.5c0,20.15839 -16.34161,36.5 -36.5,36.5c-20.15839,0 -36.5,-16.34161 -36.5,-36.5z" data-paper-data="{&quot;origPos&quot;:null}" fill="url(#color-1)" stroke="#c40000" stroke-width="4.5" stroke-linecap="butt"/><g stroke="#9d9d9d" stroke-width="2" stroke-linecap="round"><path d="M164.01381,74.45912l-3.0359,-19.04339l5.79582,-1.10397l1.65594,6.89978h3.58788l-0.82797,-6.62379l7.72776,-0.276c0,0 0,4.23286 0,6.94209c0,4.50727 0,11.54932 0,11.54932h-5.51983l-0.55198,-5.51983l-3.86387,0.276l0.55198,5.79582z" data-paper-data="{&quot;origPos&quot;:null}" fill="url(#color-2)"/><path d="M184.83784,72.42493l0.37996,-17.66826h10.25899l3.79963,2.84971l0.18998,7.02931l-3.79963,3.79963l-5.50946,0.56995l0.37996,3.41966z" data-paper-data="{&quot;origPos&quot;:null}" fill="url(#color-3)"/><path d="M192.62706,62.73588l-1.70983,-0.18998v-2.65975l3.0397,0.56995z" data-paper-data="{&quot;origPos&quot;:null}" fill="url(#color-4)"/></g><path d="M175.74921,96.4585l13.73333,0.32698l-3.26984,29.42858l12.4254,-1.30794l1.63492,12.75238l-40.54603,-0.65397l1.63492,-10.79048h13.73334v-15.69523l-7.19366,5.55873l-7.84762,-10.4635z" data-paper-data="{&quot;origPos&quot;:null}" fill="url(#color-5)" stroke="#c40000" stroke-width="4.5" stroke-linecap="round"/></g></g></svg>