<svg version="1.1" xmlns="http://www.w3.org/2000/svg" xmlns:xlink="http://www.w3.org/1999/xlink" width="460.27982" height="247.3335" viewBox="0,0,460.27982,247.3335"><defs><linearGradient x1="365.88662" y1="141.11198" x2="365.88662" y2="175.88912" gradientUnits="userSpaceOnUse" id="color-1"><stop offset="0" stop-color="#00a515"/><stop offset="1" stop-color="#00bf06"/></linearGradient><linearGradient x1="397.1224" y1="137.29125" x2="397.1224" y2="175.46459" gradientUnits="userSpaceOnUse" id="color-2"><stop offset="0" stop-color="#00a515"/><stop offset="1" stop-color="#00bf06"/></linearGradient><linearGradient x1="70.07493" y1="115.15625" x2="70.07493" y2="338.15625" gradientUnits="userSpaceOnUse" id="color-3"><stop offset="0" stop-color="#f9dea4"/><stop offset="1" stop-color="#ffce71"/></linearGradient><linearGradient x1="68.6218" y1="80.34699" x2="68.6218" y2="157.98654" gradientUnits="userSpaceOnUse" id="color-4"><stop offset="0" stop-color="#00a515"/><stop offset="1" stop-color="#00bf06"/></linearGradient><linearGradient x1="228.88662" y1="254.11198" x2="228.88662" y2="288.88912" gradientUnits="userSpaceOnUse" id="color-5"><stop offset="0" stop-color="#00a515"/><stop offset="1" stop-color="#00bf06"/></linearGradient><linearGradient x1="260.1224" y1="250.29125" x2="260.1224" y2="288.46459" gradientUnits="userSpaceOnUse" id="color-6"><stop offset="0" stop-color="#00a515"/><stop offset="1" stop-color="#00bf06"/></linearGradient></defs><g transform="translate(35.4677,-92.82275)"><g data-paper-data="{&quot;isPaintingLayer&quot;:true}" fill-rule="nonzero" stroke-linejoin="miter" stroke-miterlimit="10" stroke-dasharray="" stroke-dashoffset="0" style="mix-blend-mode: normal"><path d="M348.49805,158.50055c0,-9.60344 7.78512,-17.38857 17.38857,-17.38857c9.60344,0 17.38855,7.78512 17.38855,17.38857c0,9.60344 -7.78512,17.38857 -17.38855,17.38857c-9.60344,0 -17.38857,-7.78512 -17.38857,-17.38857z" fill="url(#color-1)" stroke="#008a05" stroke-width="5" stroke-linecap="butt"/><path d="M385.73015,144.21709l-9.3153,6.83122" fill="none" stroke="#008a05" stroke-width="5" stroke-linecap="round"/><path d="M364.61546,135.52281l2.48409,14.28346" fill="none" stroke="#008a05" stroke-width="5" stroke-linecap="round"/><path d="M364.61546,160.98463l1.86306,-6.21021" fill="none" stroke="#008a05" stroke-width="5" stroke-linecap="round"/><path d="M347.2269,139.24892l10.55734,13.04142" fill="none" stroke="#008a05" stroke-width="5" stroke-linecap="round"/><path d="M355.92118,162.8477l-11.79939,1.86306" fill="none" stroke="#008a05" stroke-width="5" stroke-linecap="round"/><path d="M363.37342,169.6789l1.86306,12.42041" fill="none" stroke="#008a05" stroke-width="5" stroke-linecap="round"/><path d="M367.09954,164.71076l13.66245,5.58918" fill="none" stroke="#008a05" stroke-width="5" stroke-linecap="round"/><path d="M388.83526,154.77443l-14.28347,3.72612" fill="none" stroke="#008a05" stroke-width="5" stroke-linecap="round"/><path d="M378.03573,156.37791c0,-10.54128 8.54539,-19.08666 19.08668,-19.08666c10.54128,0 19.08666,8.54538 19.08666,19.08666c0,10.54128 -8.54538,19.08668 -19.08666,19.08668c-10.54128,0 -19.08668,-8.54539 -19.08668,-19.08668z" fill="url(#color-2)" stroke="#008a05" stroke-width="5" stroke-linecap="butt"/><path d="M408.67878,148.19791l10.225,-7.49832" fill="none" stroke="#008a05" stroke-width="5" stroke-linecap="round"/><path d="M395.72712,131.15625l2.72666,15.67834" fill="none" stroke="#008a05" stroke-width="5" stroke-linecap="round"/><path d="M397.77212,152.28791l-2.045,6.81668" fill="none" stroke="#008a05" stroke-width="5" stroke-linecap="round"/><path d="M376.64046,135.24625l11.58832,14.315" fill="none" stroke="#008a05" stroke-width="5" stroke-linecap="round"/><path d="M386.18378,161.14959l-12.95166,2.045" fill="none" stroke="#008a05" stroke-width="5" stroke-linecap="round"/><path d="M394.36378,168.64791l2.045,13.63334" fill="none" stroke="#008a05" stroke-width="5" stroke-linecap="round"/><path d="M413.45045,169.32959l-14.99668,-6.135" fill="none" stroke="#008a05" stroke-width="5" stroke-linecap="round"/><path d="M406.63378,156.37791l15.67834,-4.09" fill="none" stroke="#008a05" stroke-width="5" stroke-linecap="round"/><path d="M58.57493,338.15625v-223h23v223z" fill="url(#color-3)" stroke="#c38600" stroke-width="4" stroke-linecap="butt"/><path d="M165.6218,119.16677l-32.00489,-4.78053c0,0 25.36485,12.27634 25.94705,15.14929c1.65533,8.16847 -22.29355,13.52127 -41.22636,13.44027c-26.12816,-0.11177 -49.71579,-25.65759 -49.71579,-25.65759c0,0 -11.35577,21.62334 -46.36338,22.17788c-8.69718,0.13777 -43.99052,-4.92153 -43.99052,-4.92153c0,0 5.80907,-8.78275 14.46528,-12.48224c6.69281,-2.86037 22.60001,-8.34864 22.60001,-8.34864c0,0 -13.08675,-3.04736 -19.87847,-2.18502c-7.39416,0.93884 -22.83294,7.6081 -22.83294,7.6081c0,0 18.24937,-23.13279 48.02164,-23.88729c30.1489,-0.76405 47.97837,20.80635 47.97837,20.80635c0,0 22.90942,-22.31243 51.18088,-20.76307c26.95949,1.47746 45.81912,23.84401 45.81912,23.84401z" fill="url(#color-4)" stroke="#008a05" stroke-width="5" stroke-linecap="butt"/><path d="M211.49805,271.50055c0,-9.60344 7.78512,-17.38857 17.38857,-17.38857c9.60344,0 17.38855,7.78512 17.38855,17.38857c0,9.60344 -7.78512,17.38857 -17.38855,17.38857c-9.60344,0 -17.38857,-7.78512 -17.38857,-17.38857z" fill="url(#color-5)" stroke="#008a05" stroke-width="5" stroke-linecap="butt"/><path d="M248.73015,257.21709l-9.3153,6.83122" fill="none" stroke="#008a05" stroke-width="5" stroke-linecap="round"/><path d="M227.61546,248.52281l2.48409,14.28346" fill="none" stroke="#008a05" stroke-width="5" stroke-linecap="round"/><path d="M227.61546,273.98463l1.86306,-6.21021" fill="none" stroke="#008a05" stroke-width="5" stroke-linecap="round"/><path d="M210.2269,252.24892l10.55734,13.04142" fill="none" stroke="#008a05" stroke-width="5" stroke-linecap="round"/><path d="M218.92118,275.8477l-11.79939,1.86306" fill="none" stroke="#008a05" stroke-width="5" stroke-linecap="round"/><path d="M226.37342,282.6789l1.86306,12.42041" fill="none" stroke="#008a05" stroke-width="5" stroke-linecap="round"/><path d="M230.09954,277.71076l13.66245,5.58918" fill="none" stroke="#008a05" stroke-width="5" stroke-linecap="round"/><path d="M251.83526,267.77443l-14.28347,3.72612" fill="none" stroke="#008a05" stroke-width="5" stroke-linecap="round"/><path d="M241.03573,269.37791c0,-10.54128 8.54539,-19.08666 19.08668,-19.08666c10.54128,0 19.08666,8.54538 19.08666,19.08666c0,10.54128 -8.54538,19.08668 -19.08666,19.08668c-10.54128,0 -19.08668,-8.54539 -19.08668,-19.08668z" fill="url(#color-6)" stroke="#008a05" stroke-width="5" stroke-linecap="butt"/><path d="M271.67878,261.19791l10.225,-7.49832" fill="none" stroke="#008a05" stroke-width="5" stroke-linecap="round"/><path d="M258.72712,244.15625l2.72666,15.67834" fill="none" stroke="#008a05" stroke-width="5" stroke-linecap="round"/><path d="M260.77212,265.28791l-2.045,6.81668" fill="none" stroke="#008a05" stroke-width="5" stroke-linecap="round"/><path d="M239.64046,248.24625l11.58832,14.315" fill="none" stroke="#008a05" stroke-width="5" stroke-linecap="round"/><path d="M249.18378,274.14959l-12.95166,2.045" fill="none" stroke="#008a05" stroke-width="5" stroke-linecap="round"/><path d="M257.36378,281.64791l2.045,13.63334" fill="none" stroke="#008a05" stroke-width="5" stroke-linecap="round"/><path d="M276.45045,282.32959l-14.99668,-6.135" fill="none" stroke="#008a05" stroke-width="5" stroke-linecap="round"/><path d="M269.63378,269.37791l15.67834,-4.09" fill="none" stroke="#008a05" stroke-width="5" stroke-linecap="round"/></g></g></svg>