<svg version="1.1" xmlns="http://www.w3.org/2000/svg" xmlns:xlink="http://www.w3.org/1999/xlink" width="388.48581" height="261.62574" viewBox="0,0,388.48581,261.62574"><g transform="translate(-38.88266,-36.87921)"><g data-paper-data="{&quot;isPaintingLayer&quot;:true}" fill-rule="nonzero" stroke-linecap="butt" stroke-linejoin="miter" stroke-miterlimit="10" stroke-dasharray="" stroke-dashoffset="0" style="mix-blend-mode: normal"><path d="M415.44893,140.62083l-27.37143,-54.16182l6.64006,-46.82192l23.31304,17.94329l7.71991,80.61499z" data-paper-data="{&quot;index&quot;:null}" fill="#dada1f" stroke="#f5ff42" stroke-width="3"/><path d="M402.87192,87.53553l-8.42829,-47.30727l22.80509,17.27816z" data-paper-data="{&quot;index&quot;:null}" fill="#ffff66" stroke="none" stroke-width="0"/><path d="M415.25142,139.04515l-12.49509,-51.61471l21.86874,49.36209z" data-paper-data="{&quot;index&quot;:null}" fill="#9e9e00" stroke="none" stroke-width="0"/><path d="M388.4022,85.62494l14.32279,1.63722l-5.79812,15.26208z" data-paper-data="{&quot;index&quot;:null}" fill="#9e9e00" stroke="none" stroke-width="0"/><path d="M82.53706,291.4519l-42.06379,-62.20508l11.1896,-57.92716l36.29015,18.6561l10.7901,97.11103z" data-paper-data="{&quot;index&quot;:null}" fill="#ff4b4b" stroke="#ff0000" stroke-width="3"/><path d="M64.11778,229.12688l-12.44907,-56.45354l35.50396,17.91573z" data-paper-data="{&quot;index&quot;:null}" fill="#ff8787" stroke="none" stroke-width="0"/><path d="M82.69842,290.15642l-18.76031,-61.14168l33.50734,57.11421z" data-paper-data="{&quot;index&quot;:null}" fill="#8f2525" stroke="none" stroke-width="0"/><path d="M41.44193,228.78289l22.44976,0.03124l-9.34974,19.37983z" data-paper-data="{&quot;index&quot;:null}" fill="#8f2525" stroke="none" stroke-width="0"/><path d="M91.20734,290.45638l-11.3781,-119.51626l60.07676,-72.71911l36.63574,53.98003l-59.24818,144.54403z" data-paper-data="{&quot;index&quot;:null}" fill="#ff4b4b" stroke="#ff0000" stroke-width="3"/><path d="M113.10208,188.88426l25.77514,-88.75913l36.0996,52.33881z" data-paper-data="{&quot;index&quot;:null}" fill="#ff8787" stroke="none" stroke-width="0"/><path d="M92.42616,288.762l20.50969,-100.17274l3.27038,105.81758z" data-paper-data="{&quot;index&quot;:null}" fill="#8f2525" stroke="none" stroke-width="0"/><path d="M81.54397,171.03109l31.48041,17.24108l-27.96632,20.03401z" data-paper-data="{&quot;index&quot;:null}" fill="#8f2525" stroke="none" stroke-width="0"/></g></g></svg>