<svg version="1.1" xmlns="http://www.w3.org/2000/svg" xmlns:xlink="http://www.w3.org/1999/xlink" width="19.55132" height="26.66402"><defs><linearGradient x1="240" y1="167.16799" x2="240" y2="192.83201" gradientUnits="userSpaceOnUse" id="color-1"><stop offset="0" stop-color="#fffd3f"/><stop offset="1" stop-color="#ccc933"/></linearGradient></defs><g transform="translate(-230.22434,-166.66799)"><g data-paper-data="{&quot;isPaintingLayer&quot;:true}" fill-rule="nonzero" stroke="#a3b100" stroke-width="1" stroke-linecap="butt" stroke-linejoin="miter" stroke-miterlimit="10" stroke-dasharray="" stroke-dashoffset="0" style="mix-blend-mode: normal"><path d="M249.27566,180c0,7.08692 -4.15285,12.83201 -9.27566,12.83201c-5.12281,0 -9.27566,-5.74508 -9.27566,-12.83201c0,-7.08692 4.15285,-12.83201 9.27566,-12.83201c5.12281,0 9.27566,5.74508 9.27566,12.83201z" data-paper-data="{&quot;origPos&quot;:null}" fill="url(#color-1)"/><path d="M247.35543,180c0,5.6198 -3.29314,10.17555 -7.35543,10.17555c-4.06229,0 -7.35543,-4.55575 -7.35543,-10.17555c0,-5.6198 3.29314,-10.17555 7.35543,-10.17555c4.06229,0 7.35543,4.55575 7.35543,10.17555z" data-paper-data="{&quot;origPos&quot;:null}" fill="none"/><path d="M238.97651,186.81981v-13.63963h2.04698v13.63963z" data-paper-data="{&quot;origPos&quot;:null}" fill="none"/></g></g></svg>