<svg version="1.1" xmlns="http://www.w3.org/2000/svg" xmlns:xlink="http://www.w3.org/1999/xlink" width="46.16738" height="57.04059" viewBox="0,0,46.16738,57.04059"><defs><linearGradient x1="240.00001" y1="156.52873" x2="240.00001" y2="203.47128" gradientUnits="userSpaceOnUse" id="color-1"><stop offset="0" stop-color="#ffffff"/><stop offset="1" stop-color="#b7b7b7"/></linearGradient></defs><g transform="translate(-218.47341,-154.14148)"><g data-paper-data="{&quot;isPaintingLayer&quot;:true}" fill-rule="nonzero" stroke-width="4.5" stroke-linecap="round" stroke-linejoin="miter" stroke-miterlimit="10" stroke-dasharray="" stroke-dashoffset="0" style="mix-blend-mode: normal"><path d="M227.62757,197.01286l18.48132,-2.58738l3.69626,-6.65328l-12.5673,1.47851l-8.13178,-10.71917l2.58738,-13.30655l15.89394,-3.69626l14.0458,7.76215l0.73925,19.5902l-5.17477,11.45842l-20.69908,8.13178z" data-paper-data="{&quot;origPos&quot;:null}" fill="#000000" stroke="#000000"/><path d="M242.59256,174.71238l3.69626,-2.31017l2.31017,2.31017l-0.46203,3.46525h-6.23745z" data-paper-data="{&quot;origPos&quot;:null}" fill="#000000" stroke="#000000"/><path d="M222.62757,192.01286l18.48132,-2.58738l3.69626,-6.65328l-12.5673,1.47851l-8.13178,-10.71917l2.58738,-13.30655l15.89394,-3.69626l14.0458,7.76215l0.73925,19.5902l-5.17477,11.45842l-20.69908,8.13178z" data-paper-data="{&quot;origPos&quot;:null}" fill="url(#color-1)" stroke="#9d9d9d"/><path d="M237.59256,169.71238l3.69626,-2.31017l2.31017,2.31017l-0.46203,3.46525h-6.23745z" data-paper-data="{&quot;origPos&quot;:null}" fill="#ffffff" stroke="#9d9d9d"/></g></g></svg>