<svg version="1.1" xmlns="http://www.w3.org/2000/svg" xmlns:xlink="http://www.w3.org/1999/xlink" width="200.08765" height="72.9519" viewBox="0,0,200.08765,72.9519"><defs><linearGradient x1="240" y1="145.52405" x2="240" y2="214.47595" gradientUnits="userSpaceOnUse" id="color-1"><stop offset="0" stop-color="#cdcdcd"/><stop offset="1" stop-color="#a6a6a6"/></linearGradient><linearGradient x1="240.53778" y1="157.11486" x2="240.53778" y2="199.4155" gradientUnits="userSpaceOnUse" id="color-2"><stop offset="0" stop-color="#f3f3f3"/><stop offset="1" stop-color="#b7b7b7"/></linearGradient><linearGradient x1="191.70798" y1="156.40762" x2="191.70798" y2="197.95807" gradientUnits="userSpaceOnUse" id="color-3"><stop offset="0" stop-color="#f3f3f3"/><stop offset="1" stop-color="#b7b7b7"/></linearGradient><linearGradient x1="290.18656" y1="157.08979" x2="290.18656" y2="197.7995" gradientUnits="userSpaceOnUse" id="color-4"><stop offset="0" stop-color="#f3f3f3"/><stop offset="1" stop-color="#b7b7b7"/></linearGradient></defs><g transform="translate(-139.95618,-143.52405)"><g data-paper-data="{&quot;isPaintingLayer&quot;:true}" fill-rule="nonzero" stroke-width="4" stroke-linejoin="miter" stroke-miterlimit="10" stroke-dasharray="" stroke-dashoffset="0" style="mix-blend-mode: normal"><path d="M141.95618,214.47595v-68.9519h196.08765v68.9519z" fill="url(#color-1)" stroke="#373737" stroke-linecap="butt"/><g stroke-linecap="round"><g fill="#000000" stroke="#000000"><g data-paper-data="{&quot;origPos&quot;:null}"><path d="M222.28798,202.13373l12.39848,-40.84202l17.50372,0.72931l14.95109,39.74804l-12.76312,1.09399l-1.45865,-11.66913l-14.95109,2.18797l-2.55263,10.21049z" data-paper-data="{&quot;origPos&quot;:null}"/><path d="M238.33309,184.63002l2.55262,-10.57517l5.4699,-1.09399l2.9173,10.93984z" data-paper-data="{&quot;origPos&quot;:null}"/></g><path d="M173.91565,160.58448l44.89357,0.47759l-0.47759,17.67087l-14.32774,-2.38796l1.91036,25.78992l-18.14846,-0.47759l3.34314,-26.26753l-18.14846,2.38797z" data-paper-data="{&quot;origPos&quot;:null}"/><g data-paper-data="{&quot;origPos&quot;:null}"><path d="M277.51049,201.97636l0.87547,-40.70973h23.63789l8.75478,6.56608l0.43775,16.19634l-8.75478,8.75478l-12.69442,1.31323l0.87547,7.8793z" data-paper-data="{&quot;origPos&quot;:null}"/><path d="M295.45776,179.65169l-3.93964,-0.43775v-6.12834l7.00383,1.31323z" data-paper-data="{&quot;origPos&quot;:null}"/></g></g><g stroke="#989898"><g data-paper-data="{&quot;origPos&quot;:null}"><path d="M218.11112,197.95687l12.39848,-40.84202l17.50372,0.72931l14.95109,39.74804l-12.76312,1.09399l-1.45865,-11.66913l-14.95109,2.18797l-2.55263,10.21049z" data-paper-data="{&quot;origPos&quot;:null}" fill="url(#color-2)"/><path d="M234.15622,180.45316l2.55262,-10.57517l5.4699,-1.09399l2.9173,10.93984z" data-paper-data="{&quot;origPos&quot;:null}" fill="#ffffff"/></g><path d="M169.7388,156.40762l44.89357,0.47759l-0.47759,17.67087l-14.32774,-2.38796l1.91036,25.78992l-18.14846,-0.47759l3.34314,-26.26753l-18.14846,2.38797z" data-paper-data="{&quot;origPos&quot;:null}" fill="url(#color-3)"/><g data-paper-data="{&quot;origPos&quot;:null}"><path d="M273.33363,197.7995l0.87547,-40.70973h23.63789l8.75478,6.56608l0.43775,16.19634l-8.75478,8.75478l-12.69442,1.31323l0.87547,7.8793z" data-paper-data="{&quot;origPos&quot;:null}" fill="url(#color-4)"/><path d="M291.2809,175.47483l-3.93964,-0.43775v-6.12834l7.00383,1.31323z" data-paper-data="{&quot;origPos&quot;:null}" fill="#ffffff"/></g></g></g></g></g></svg>