<svg version="1.1" xmlns="http://www.w3.org/2000/svg" xmlns:xlink="http://www.w3.org/1999/xlink" width="499.45313" height="171.18761" viewBox="0,0,499.45313,171.18761"><defs><linearGradient x1="158.22807" y1="207.90619" x2="158.22807" y2="315.90619" gradientUnits="userSpaceOnUse" id="color-1"><stop offset="0" stop-color="#63ba4a"/><stop offset="1" stop-color="#4b8e39"/></linearGradient><linearGradient x1="159.72657" y1="191.90619" x2="159.72657" y2="214.90619" gradientUnits="userSpaceOnUse" id="color-2"><stop offset="0" stop-color="#63ba4a"/><stop offset="1" stop-color="#4b8e39"/></linearGradient><linearGradient x1="253.22807" y1="207.90619" x2="253.22807" y2="342.90619" gradientUnits="userSpaceOnUse" id="color-3"><stop offset="0" stop-color="#63ba4a"/><stop offset="1" stop-color="#4b8e39"/></linearGradient><linearGradient x1="254.72657" y1="191.90619" x2="254.72657" y2="214.90619" gradientUnits="userSpaceOnUse" id="color-4"><stop offset="0" stop-color="#63ba4a"/><stop offset="1" stop-color="#4b8e39"/></linearGradient><linearGradient x1="351.22807" y1="207.90619" x2="351.22807" y2="318.90619" gradientUnits="userSpaceOnUse" id="color-5"><stop offset="0" stop-color="#63ba4a"/><stop offset="1" stop-color="#4b8e39"/></linearGradient><linearGradient x1="352.72657" y1="191.90619" x2="352.72657" y2="214.90619" gradientUnits="userSpaceOnUse" id="color-6"><stop offset="0" stop-color="#63ba4a"/><stop offset="1" stop-color="#4b8e39"/></linearGradient><linearGradient x1="446.22807" y1="207.90619" x2="446.22807" y2="337.90619" gradientUnits="userSpaceOnUse" id="color-7"><stop offset="0" stop-color="#63ba4a"/><stop offset="1" stop-color="#4b8e39"/></linearGradient><linearGradient x1="237.80469" y1="291.09374" x2="237.80469" y2="330.38516" gradientUnits="userSpaceOnUse" id="color-8"><stop offset="0" stop-color="#17ff22"/><stop offset="1" stop-color="#02d10c"/></linearGradient><linearGradient x1="447.72657" y1="191.90619" x2="447.72657" y2="214.90619" gradientUnits="userSpaceOnUse" id="color-9"><stop offset="0" stop-color="#63ba4a"/><stop offset="1" stop-color="#4b8e39"/></linearGradient></defs><g transform="translate(5.72656,-189.90619)"><g data-paper-data="{&quot;isPaintingLayer&quot;:true}" fill-rule="nonzero" stroke-linejoin="miter" stroke-miterlimit="10" stroke-dasharray="" stroke-dashoffset="0" style="mix-blend-mode: normal"><path d="M127.22807,315.90619v-108h62v108z" fill="url(#color-1)" stroke="#4b8e39" stroke-width="4" stroke-linecap="butt"/><path d="M115.72657,214.90619v-23h88v23z" fill="url(#color-2)" stroke="#4b8e39" stroke-width="4" stroke-linecap="butt"/><path d="M222.22807,342.90619v-135h62v135z" fill="url(#color-3)" stroke="#4b8e39" stroke-width="4" stroke-linecap="butt"/><path d="M210.72657,214.90619v-23h88v23z" fill="url(#color-4)" stroke="#4b8e39" stroke-width="4" stroke-linecap="butt"/><path d="M320.22807,318.90619v-111h62v111z" fill="url(#color-5)" stroke="#4b8e39" stroke-width="4" stroke-linecap="butt"/><path d="M308.72657,214.90619v-23h88v23z" fill="url(#color-6)" stroke="#4b8e39" stroke-width="4" stroke-linecap="butt"/><path d="M415.22807,337.90619v-130h62v130z" fill="url(#color-7)" stroke="#4b8e39" stroke-width="4" stroke-linecap="butt"/><path d="M-5.72656,361.0938v-47h484.1351v47z" fill="#98763d" stroke="none" stroke-width="0" stroke-linecap="butt"/><path d="M-4.21244,317.98702v-26.89326h484.03426v26.89326l-27.00578,1.75726l-43.97163,10.64086l-42.7619,-11.9986l-40.7049,10.37815l-40.72936,-10.67969l-43.3929,8.22474l-40.39008,-9.40523l-57.53163,12.49333l-42.69222,-13.2091l-56.22042,10.7627z" fill="url(#color-8)" stroke="#08a310" stroke-width="3" stroke-linecap="butt"/><path d="M236.9899,324.23188l11.83901,18.01465l-0.24675,16.26774l-16.92389,-13.87762l-4.99504,-14.90558z" data-paper-data="{&quot;index&quot;:null}" fill="#774b00" stroke="#703100" stroke-width="2" stroke-linecap="round"/><path d="M41.67385,343.43998l-8.87184,-13.22785l6.05447,-3.87501l16.87004,15.94784l1.16689,7.40281z" data-paper-data="{&quot;index&quot;:null}" fill="#774b00" stroke="#703100" stroke-width="2" stroke-linecap="round"/><path d="M131.18556,353.03908l-4.82531,-3.22167l6.49233,-9.08013l11.4581,-1.92088l-0.76959,5.37415z" data-paper-data="{&quot;index&quot;:null}" fill="#774b00" stroke="#703100" stroke-width="2" stroke-linecap="round"/><path d="M380.25815,336.73398l32.29784,-1.89717l23.81362,6.44201l-28.69929,7.27995l-24.37452,-2.00971z" data-paper-data="{&quot;index&quot;:null}" fill="#774b00" stroke="#703100" stroke-width="2" stroke-linecap="round"/><path d="M313.45523,334.45875l11.22505,10.0917l-2.46597,9.05432l-17.63868,-7.81609l-3.75631,-8.32422z" data-paper-data="{&quot;index&quot;:null}" fill="#774b00" stroke="#703100" stroke-width="2" stroke-linecap="round"/><path d="M403.72657,214.90619v-23h88v23z" fill="url(#color-9)" stroke="#4b8e39" stroke-width="4" stroke-linecap="butt"/></g></g></svg>