<svg version="1.1" xmlns="http://www.w3.org/2000/svg" xmlns:xlink="http://www.w3.org/1999/xlink" width="51.90421" height="58.76892" viewBox="0,0,51.90421,58.76892"><defs><linearGradient x1="239.78213" y1="152.8337" x2="239.78213" y2="209.16179" gradientUnits="userSpaceOnUse" id="color-1"><stop offset="0" stop-color="#ffc000"/><stop offset="1" stop-color="#d86500"/></linearGradient></defs><g transform="translate(-213.84061,-151.64286)"><g data-paper-data="{&quot;isPaintingLayer&quot;:true}" fill-rule="nonzero" stroke-linecap="butt" stroke-linejoin="miter" stroke-miterlimit="10" stroke-dasharray="" stroke-dashoffset="0" style="mix-blend-mode: normal"><path d="M263.83744,177.34348c0.17001,2.54582 1.38043,11.02775 0.01592,18.29043c-0.61615,3.27949 -5.25382,8.41884 -8.59303,8.09359c-3.33921,-0.32525 -5.07354,-4.3502 -5.07354,-4.3502c0,0 -3.44377,9.79117 -10.54638,9.78449c-7.10261,-0.00668 -9.73328,-8.14613 -9.73328,-8.14613c0,0 -0.78775,2.40659 -6.61153,3.39799c-5.82378,0.9914 -8.08184,-5.35764 -8.20498,-8.56242c-0.21662,-5.63746 1.30815,-10.11609 0.97412,-15.11812c-1.01022,-15.12804 7.75668,-26.90421 22.03983,-27.84024c14.28314,-0.93602 24.72265,9.32257 25.73287,24.45061z" data-paper-data="{&quot;origRot&quot;:0}" fill="url(#color-1)" stroke="#e62800" stroke-width="2.5"/><path d="M237.31757,174.82846c0,3.89998 -1.70132,7.06154 -3.8,7.06154c-2.09868,0 -3.8,-3.16156 -3.8,-7.06154c0,-3.89998 1.70132,-7.06154 3.8,-7.06154c2.09868,0 3.8,3.16156 3.8,7.06154z" fill="#191919" stroke="none" stroke-width="0"/><path d="M250.48717,174.51307c0,4.01893 -1.84002,7.27693 -4.1098,7.27693c-2.26978,0 -4.1098,-3.25799 -4.1098,-7.27693c0,-4.01893 1.84002,-7.27692 4.1098,-7.27692c2.26978,0 4.1098,3.25798 4.1098,7.27692z" fill="#191919" stroke="none" stroke-width="0"/><path d="M235.96486,171.72581c0,0.43723 -0.14924,0.79166 -0.33334,0.79166c-0.1841,0 -0.33334,-0.35444 -0.33334,-0.79166c0,-0.43723 0.14924,-0.79166 0.33334,-0.79166c0.1841,0 0.33334,0.35444 0.33334,0.79166z" fill="#ffffff" stroke="none" stroke-width="0"/><path d="M248.71486,171.72581c0,0.34518 -0.14924,0.625 -0.33334,0.625c-0.1841,0 -0.33334,-0.27982 -0.33334,-0.625c0,-0.34518 0.14924,-0.625 0.33334,-0.625c0.1841,0 0.33334,0.27982 0.33334,0.625z" fill="#ffffff" stroke="none" stroke-width="0"/></g></g></svg>