<svg version="1.1" xmlns="http://www.w3.org/2000/svg" xmlns:xlink="http://www.w3.org/1999/xlink" width="230" height="170" viewBox="0,0,230,170"><defs><radialGradient cx="120.45313" cy="58.8125" r="85" gradientUnits="userSpaceOnUse" id="color-1"><stop offset="0" stop-color="#00ff4c"/><stop offset="1" stop-color="#48983d"/></radialGradient><radialGradient cx="104.37927" cy="28.88829" r="11.31657" gradientUnits="userSpaceOnUse" id="color-2"><stop offset="0" stop-color="#ff5858"/><stop offset="1" stop-color="#f73434"/></radialGradient><radialGradient cx="102.88878" cy="24.88138" r="5.78403" gradientUnits="userSpaceOnUse" id="color-3"><stop offset="0" stop-color="#f78934"/><stop offset="1" stop-color="#f78934" stop-opacity="0"/></radialGradient><radialGradient cx="81.27372" cy="27.09872" r="11.31657" gradientUnits="userSpaceOnUse" id="color-4"><stop offset="0" stop-color="#ff5858"/><stop offset="1" stop-color="#f73434"/></radialGradient><radialGradient cx="83.7426" cy="23.60852" r="5.78402" gradientUnits="userSpaceOnUse" id="color-5"><stop offset="0" stop-color="#f78934"/><stop offset="1" stop-color="#f78934" stop-opacity="0"/></radialGradient><radialGradient cx="198.95313" cy="45.3125" r="66.5" gradientUnits="userSpaceOnUse" id="color-6"><stop offset="0" stop-color="#00ff4c"/><stop offset="1" stop-color="#48983d"/></radialGradient><radialGradient cx="211.52857" cy="21.90121" r="8.85355" gradientUnits="userSpaceOnUse" id="color-7"><stop offset="0" stop-color="#ff5858"/><stop offset="1" stop-color="#f73434"/></radialGradient><radialGradient cx="212.69466" cy="18.76639" r="4.52515" gradientUnits="userSpaceOnUse" id="color-8"><stop offset="0" stop-color="#f78934"/><stop offset="1" stop-color="#f78934" stop-opacity="0"/></radialGradient><radialGradient cx="229.60526" cy="20.50113" r="8.85355" gradientUnits="userSpaceOnUse" id="color-9"><stop offset="0" stop-color="#ff5858"/><stop offset="1" stop-color="#f73434"/></radialGradient><radialGradient cx="227.67373" cy="17.77056" r="4.52515" gradientUnits="userSpaceOnUse" id="color-10"><stop offset="0" stop-color="#f78934"/><stop offset="1" stop-color="#f78934" stop-opacity="0"/></radialGradient></defs><g transform="translate(-35.45313,26.1875)"><g data-paper-data="{&quot;isPaintingLayer&quot;:true}" fill-rule="nonzero" stroke="none" stroke-linecap="butt" stroke-linejoin="miter" stroke-miterlimit="10" stroke-dasharray="" stroke-dashoffset="0" style="mix-blend-mode: normal"><path d="M120.45313,143.8125c-46.9442,0 -85,-38.0558 -85,-85c0,-46.9442 38.0558,-85 85,-85c46.9442,0 85,38.0558 85,85c0,46.9442 -38.0558,85 -85,85z" data-paper-data="{&quot;index&quot;:null}" fill="url(#color-1)" stroke-width="0"/><path d="M117.20527,12.85756c2.9971,4.84244 5.74096,9.65656 8.30104,14.77624c1.14409,2.28797 2.36182,4.54066 3.43002,6.86503c0.62499,1.35996 1.34651,2.69919 1.8678,4.10062c0.90324,-0.80997 2.21182,-1.70605 2.83453,-2.38841c0.52241,-0.57244 0.72375,-1.37081 1.10323,-2.04653c4.53611,-8.07722 8.13201,-15.38103 8.1165,-24.75265c0,0 0,-3.77218 3.77219,-3.77218c3.77219,0 3.77218,3.77218 3.77218,3.77218c-0.01147,7.85249 -1.81132,14.59748 -5.26547,21.70534c-1.65177,3.39896 -3.09668,7.03731 -5.63314,9.83868c-1.52872,1.68837 -7.37434,7.44504 -10.69931,6.86195c-3.79404,-0.66535 -5.7097,-7.97269 -6.72854,-10.17934c-3.47343,-7.52287 -7.45428,-14.68447 -11.83979,-21.70076l-0.57339,-3.00518c0,0 0,-3.77219 3.77219,-3.77219c3.45611,0 3.74571,3.16653 3.76997,3.69718z" data-paper-data="{&quot;index&quot;:null}" fill="#13ae37" stroke-width="0.5"/><path d="M164.98633,48.06465c2.99711,4.84244 5.74096,9.65655 8.30104,14.77623c1.14409,2.28798 2.36182,4.54067 3.43001,6.86504c0.625,1.35996 1.3465,2.6992 1.8678,4.10062c0.90324,-0.80997 2.21181,-1.70605 2.83452,-2.38841c0.5224,-0.57244 0.72375,-1.37081 1.10323,-2.04653c4.53612,-8.07722 8.13201,-15.38103 8.1165,-24.75265c0,0 0,-3.77219 3.77219,-3.77219c3.77219,0 3.77219,3.77219 3.77219,3.77219c-0.01148,7.85249 -1.81134,14.59749 -5.26548,21.70534c-1.65175,3.39896 -3.09667,7.0373 -5.63313,9.83868c-1.52872,1.68838 -7.37434,7.44505 -10.69931,6.86196c-3.79405,-0.66536 -5.70969,-7.97269 -6.72855,-10.17934c-3.47343,-7.52287 -7.45429,-14.68447 -11.8398,-21.70076l-0.57339,-3.00518c0,0 0,-3.77218 3.77219,-3.77218c3.4561,0 3.74571,3.16651 3.76997,3.69717z" data-paper-data="{&quot;index&quot;:null}" fill="#13ae37" stroke-width="0.5"/><path d="M79.98632,54.10014c2.9971,4.84244 5.74096,9.65656 8.30104,14.77624c1.14409,2.28797 2.36182,4.54066 3.43002,6.86503c0.62499,1.35996 1.3465,2.6992 1.8678,4.10062c0.90324,-0.80997 2.21182,-1.70605 2.83453,-2.3884c0.52241,-0.57244 0.72375,-1.37081 1.10323,-2.04653c4.53611,-8.07723 8.13201,-15.38104 8.1165,-24.75265c0,0 -0.00001,-3.77219 3.77218,-3.77219c3.77219,0 3.77219,3.77219 3.77219,3.77219c-0.01147,7.85249 -1.81134,14.59749 -5.26548,21.70534c-1.65177,3.39896 -3.09668,7.0373 -5.63314,9.83867c-1.52872,1.68838 -7.37434,7.44505 -10.69931,6.86197c-3.79404,-0.66536 -5.70969,-7.97269 -6.72854,-10.17934c-3.47343,-7.52287 -7.4543,-14.68448 -11.8398,-21.70076l-0.57338,-3.00518c0,0 0,-3.77219 3.77219,-3.77219c3.4561,0 3.7457,3.16652 3.76996,3.69718z" data-paper-data="{&quot;index&quot;:null}" fill="#13ae37" stroke-width="0.5"/><path d="M127.76738,84.78062c2.99711,4.84244 5.74096,9.65656 8.30104,14.77624c1.14409,2.28797 2.36182,4.54066 3.43001,6.86503c0.62499,1.35996 1.3465,2.69919 1.8678,4.10062c0.90326,-0.80997 2.21181,-1.70605 2.83452,-2.3884c0.52241,-0.57244 0.72375,-1.37081 1.10323,-2.04653c4.53611,-8.07723 8.13202,-15.38104 8.11651,-24.75266c0,0 -0.00001,-3.77218 3.77218,-3.77218c3.77219,0 3.77219,3.77218 3.77219,3.77218c-0.01147,7.85249 -1.81134,14.5975 -5.26548,21.70535c-1.65177,3.39896 -3.09667,7.0373 -5.63312,9.83867c-1.52872,1.68838 -7.37435,7.44505 -10.69932,6.86197c-3.79404,-0.66536 -5.70968,-7.97269 -6.72854,-10.17934c-3.47343,-7.52287 -7.45429,-14.68448 -11.8398,-21.70076l-0.57339,-3.00518c0,0 0,-3.77219 3.77219,-3.77219c3.4561,0 3.74571,3.16652 3.76997,3.69718z" data-paper-data="{&quot;index&quot;:null}" fill="#13ae37" stroke-width="0.5"/><path d="M108.32469,39.49482c-5.85782,2.17899 -12.37295,-0.80329 -14.55194,-6.6611c-2.17899,-5.85782 0.80329,-12.37295 6.6611,-14.55194c5.85782,-2.17899 12.37295,0.80329 14.55194,6.6611c2.17899,5.85782 -0.80329,12.37295 -6.6611,14.55194z" data-paper-data="{&quot;index&quot;:null}" fill="url(#color-2)" stroke-width="0"/><path d="M104.90532,30.3025c-2.994,1.11371 -6.32395,-0.41056 -7.43766,-3.40456c-1.11371,-2.994 0.41056,-6.32395 3.40456,-7.43766c2.994,-1.11371 6.32396,0.41056 7.43767,3.40456c1.11371,2.994 -0.41057,6.32395 -3.40457,7.43766z" data-paper-data="{&quot;index&quot;:null}" fill="url(#color-3)" stroke-width="0"/><path d="M91.00841,8.56707c0.28896,-1.22375 1.51271,-0.93479 1.51271,-0.93479l1.20299,0.33231c5.47823,3.06277 7.93159,8.91332 10.03916,14.57914c0,0 0.43838,1.1785 -0.74013,1.61689c-1.1785,0.43838 -1.61688,-0.74013 -1.61688,-0.74013c-1.87166,-5.0316 -3.99552,-10.56495 -8.90114,-13.25629l-0.56192,-0.08444c0,0 -1.22375,-0.28896 -0.93478,-1.51271z" data-paper-data="{&quot;index&quot;:null}" fill="#13ae37" stroke-width="0.5"/><path d="M74.73845,36.33749c-5.10243,-3.60933 -6.31283,-10.67162 -2.7035,-15.77404c3.60933,-5.10243 10.67162,-6.31283 15.77404,-2.7035c5.10243,3.60933 6.31283,10.67162 2.7035,15.77404c-3.60933,5.10243 -10.67162,6.31283 -15.77404,2.7035z" data-paper-data="{&quot;index&quot;:null}" fill="url(#color-4)" stroke-width="0"/><path d="M80.40235,28.33055c-2.60792,-1.84477 -3.22656,-5.45437 -1.38179,-8.06229c1.84477,-2.60792 5.45437,-3.22656 8.06229,-1.38179c2.60792,1.84477 3.22656,5.45437 1.38179,8.06229c-1.84477,2.60792 -5.45438,3.22656 -8.06229,1.38179z" data-paper-data="{&quot;index&quot;:null}" fill="url(#color-5)" stroke-width="0"/><path d="M90.51791,4.59812c1.17361,-0.45134 1.62494,0.72226 1.62494,0.72226l0.40383,1.18091c0.55929,6.2513 -2.88935,11.57623 -6.38038,16.51142c0,0 -0.72614,1.02653 -1.75267,0.30039c-1.02653,-0.72614 -0.30039,-1.75267 -0.30039,-1.75267c3.10025,-4.38276 6.47269,-9.25671 5.9295,-14.82567l-0.24709,-0.51169c0,0 -0.45134,-1.17361 0.72227,-1.62494z" data-paper-data="{&quot;index&quot;:null}" fill="#13ae37" stroke-width="0.5"/><path d="M132.45313,45.3125c0,-36.72693 29.77307,-66.5 66.5,-66.5c36.72693,0 66.5,29.77307 66.5,66.5c0,36.72693 -29.77307,66.5 -66.5,66.5c-36.72693,0 -66.5,-29.77307 -66.5,-66.5z" fill="url(#color-6)" stroke-width="0"/><path d="M201.49411,9.35951c0.01898,-0.41516 0.24555,-2.8925 2.94944,-2.8925c2.95118,0 2.95118,2.95118 2.95118,2.95118l-0.44859,2.35111c-3.43101,5.48922 -6.54545,11.09211 -9.2629,16.97765c-0.79709,1.72638 -2.29582,7.44329 -5.26409,7.96384c-2.60131,0.45618 -7.17464,-4.04757 -8.37064,-5.36847c-1.98441,-2.19166 -3.11483,-5.03813 -4.4071,-7.69732c-2.70236,-5.56085 -4.11049,-10.83782 -4.11946,-16.98124c0,0 0,-2.95118 2.95118,-2.95118c2.95118,0 2.95118,2.95118 2.95118,2.95118c-0.01214,7.33191 2.80113,13.04606 6.34997,19.3653c0.29689,0.52865 0.4544,1.15326 0.86311,1.60111c0.48718,0.53385 1.51094,1.2349 2.2176,1.86858c0.40783,-1.09641 0.97232,-2.14416 1.46128,-3.20813c0.8357,-1.81848 1.7884,-3.58088 2.68348,-5.37088c2.00288,-4.00539 4.14955,-7.77173 6.49434,-11.56023z" fill="#13ae37" stroke-width="0.5"/><path d="M164.11245,36.90389c0.01898,-0.41516 0.24555,-2.8925 2.94944,-2.8925c2.95118,0 2.95118,2.95118 2.95118,2.95118l-0.44859,2.35111c-3.43101,5.48922 -6.54545,11.09211 -9.2629,16.97765c-0.7971,1.72638 -2.29582,7.44329 -5.2641,7.96384c-2.6013,0.45618 -7.17465,-4.04757 -8.37064,-5.36848c-1.98441,-2.19167 -3.11484,-5.03813 -4.40709,-7.69732c-2.70236,-5.56085 -4.11048,-10.83782 -4.11946,-16.98124c0,0 0,-2.95118 2.95118,-2.95118c2.95118,0 2.95118,2.95118 2.95118,2.95118c-0.01214,7.33191 2.80112,13.04606 6.34997,19.3653c0.29689,0.52865 0.45441,1.15326 0.86311,1.60111c0.48718,0.53385 1.51094,1.2349 2.2176,1.86858c0.40784,-1.09641 0.97231,-2.14416 1.46128,-3.20813c0.8357,-1.81848 1.7884,-3.58088 2.68348,-5.37089c2.00289,-4.00539 4.14954,-7.77173 6.49434,-11.56023z" fill="#13ae37" stroke-width="0.5"/><path d="M230.61246,41.62579c0.01898,-0.41516 0.24555,-2.8925 2.94944,-2.8925c2.95118,0 2.95118,2.95118 2.95118,2.95118l-0.44859,2.35111c-3.43101,5.48921 -6.54545,11.09211 -9.2629,16.97765c-0.7971,1.72638 -2.29582,7.44329 -5.26409,7.96384c-2.6013,0.45618 -7.17464,-4.04757 -8.37064,-5.36848c-1.98441,-2.19167 -3.11483,-5.03813 -4.4071,-7.69732c-2.70236,-5.56085 -4.11049,-10.83782 -4.11946,-16.98124c0,0 0,-2.95118 2.95118,-2.95118c2.95118,0 2.95118,2.95118 2.95118,2.95118c-0.01214,7.33191 2.80113,13.04606 6.34997,19.36531c0.29689,0.52865 0.4544,1.15326 0.86311,1.60111c0.48718,0.53384 1.51094,1.23489 2.2176,1.86857c0.40784,-1.09641 0.97232,-2.14416 1.46128,-3.20813c0.8357,-1.81848 1.7884,-3.58088 2.68348,-5.37088c2.00289,-4.00539 4.14955,-7.77173 6.49434,-11.56023z" fill="#13ae37" stroke-width="0.5"/><path d="M193.23081,65.62874c0.01898,-0.41516 0.24555,-2.8925 2.94944,-2.8925c2.95118,0 2.95118,2.95118 2.95118,2.95118l-0.44859,2.35111c-3.43101,5.48921 -6.54545,11.09211 -9.2629,16.97765c-0.7971,1.72638 -2.29582,7.44329 -5.26409,7.96384c-2.6013,0.45618 -7.17465,-4.04757 -8.37064,-5.36848c-1.98441,-2.19167 -3.11483,-5.03813 -4.40709,-7.69732c-2.70236,-5.56085 -4.11049,-10.83782 -4.11946,-16.98124c0,0 0,-2.95118 2.95118,-2.95118c2.95118,0 2.95118,2.95118 2.95118,2.95118c-0.01214,7.33191 2.80113,13.04606 6.34997,19.36531c0.29689,0.52865 0.4544,1.15326 0.86311,1.60111c0.48718,0.53384 1.51094,1.23489 2.2176,1.86857c0.40784,-1.09641 0.97232,-2.14416 1.46128,-3.20813c0.8357,-1.81848 1.7884,-3.58088 2.68348,-5.37088c2.00289,-4.00539 4.14954,-7.77173 6.49434,-11.56023z" fill="#13ae37" stroke-width="0.5"/><path d="M203.23052,18.8145c1.70474,-4.58288 6.80187,-6.91608 11.38476,-5.21134c4.58288,1.70474 6.91608,6.80187 5.21134,11.38476c-1.70474,4.58288 -6.80187,6.91608 -11.38476,5.21134c-4.58288,-1.70474 -6.91608,-6.80187 -5.21134,-11.38476z" fill="url(#color-7)" stroke-width="0"/><path d="M208.45344,17.18874c0.87131,-2.34237 3.47651,-3.53489 5.81888,-2.66357c2.34237,0.87131 3.53489,3.47651 2.66357,5.81888c-0.87131,2.34237 -3.47651,3.53489 -5.81888,2.66357c-2.34237,-0.87131 -3.53489,-3.47651 -2.66357,-5.81888z" fill="url(#color-8)" stroke-width="0"/><path d="M221.9893,6.00283c0.22607,0.9574 -0.73133,1.18347 -0.73133,1.18347l-0.43962,0.06606c-3.83792,2.10558 -5.49953,6.43461 -6.96383,10.3711c0,0 -0.34297,0.92201 -1.26497,0.57904c-0.92201,-0.34297 -0.57904,-1.26497 -0.57904,-1.26497c1.64887,-4.43267 3.56826,-9.00987 7.85417,-11.40604l0.94116,-0.25998c0,0 0.9574,-0.22607 1.18347,0.73133z" fill="#13ae37" stroke-width="0.5"/><path d="M222.37728,25.61402c-2.82377,-3.9919 -1.87681,-9.5171 2.11509,-12.34087c3.9919,-2.82377 9.5171,-1.87681 12.34087,2.11509c2.82377,3.9919 1.87681,9.5171 -2.11509,12.34087c-3.9919,2.82377 -9.5171,1.87681 -12.34087,-2.11509z" fill="url(#color-9)" stroke-width="0"/><path d="M223.97943,20.38381c-1.44326,-2.04031 -0.95926,-4.86429 1.08105,-6.30756c2.04031,-1.44326 4.86429,-0.95926 6.30756,1.08105c1.44326,2.04031 0.95926,4.86429 -1.08105,6.30756c-2.04031,1.44326 -4.86429,0.95926 -6.30756,-1.08105z" fill="url(#color-10)" stroke-width="0"/><path d="M222.37303,2.89772c0.91817,0.3531 0.56507,1.27128 0.56507,1.27128l-0.19331,0.40032c-0.42496,4.35689 2.21348,8.17005 4.63897,11.59891c0,0 0.5681,0.80311 -0.23501,1.37121c-0.80311,0.5681 -1.37121,-0.23501 -1.37121,-0.23501c-2.73122,-3.86106 -5.42927,-8.02703 -4.99171,-12.91776l0.31594,-0.92388c0,0 0.3531,-0.91817 1.27128,-0.56507z" fill="#13ae37" stroke-width="0.5"/></g></g></svg>