<svg version="1.1" xmlns="http://www.w3.org/2000/svg" xmlns:xlink="http://www.w3.org/1999/xlink" width="609.04838" height="71.50002" viewBox="0,0,609.04838,71.50002"><defs><linearGradient x1="239.36135" y1="296.74998" x2="239.36135" y2="336.04138" gradientUnits="userSpaceOnUse" id="color-1"><stop offset="0" stop-color="#17ff22"/><stop offset="1" stop-color="#02d10c"/></linearGradient></defs><g transform="translate(65.36013,-295.24999)"><g data-paper-data="{&quot;isPaintingLayer&quot;:true}" fill-rule="nonzero" stroke-linejoin="miter" stroke-miterlimit="10" stroke-dasharray="" stroke-dashoffset="0" style="mix-blend-mode: normal"><path d="M-65.36012,366.75002v-47h605.78v47z" fill="#98763d" stroke="none" stroke-width="0" stroke-linecap="butt"/><path d="M-63.46556,323.64326v-26.89326h605.65382v26.89326l-33.79132,1.75726l-55.02005,10.64086l-53.50635,-11.9986l-50.93251,10.37815l-50.96312,-10.67969l-54.29591,8.22474l-50.53859,-9.40523l-71.98714,12.49333l-53.41917,-13.2091l-70.34648,10.7627z" fill="url(#color-1)" stroke="#08a310" stroke-width="3" stroke-linecap="butt"/><path d="M226.67146,337.8697l13.44729,-0.36671l8.55152,5.47299l-12.92175,4.42356l-9.55,-2.24411z" data-paper-data="{&quot;index&quot;:null}" fill="#774b00" stroke="#703100" stroke-width="2" stroke-linecap="round"/><path d="M43.98286,349.55485l-15.69895,-2.68858l1.36512,-7.05753l23.18219,-1.23195l6.16802,4.25661z" data-paper-data="{&quot;index&quot;:null}" fill="#774b00" stroke="#703100" stroke-width="2" stroke-linecap="round"/><path d="M125.26027,352.1574l-0.98032,-5.76051l15.74529,-0.9763l12.62052,7.45245l-6.48829,2.91164z" data-paper-data="{&quot;index&quot;:null}" fill="#774b00" stroke="#703100" stroke-width="2" stroke-linecap="round"/><path d="M415.48396,342.3902l17.9078,-1.89717l13.20366,6.44201l-15.91256,7.27995l-13.51465,-2.00971z" data-paper-data="{&quot;index&quot;:null}" fill="#774b00" stroke="#703100" stroke-width="2" stroke-linecap="round"/><path d="M324.421,346.96693l12.41613,-1.31538l9.15458,4.46648l-11.03276,5.04745l-9.3702,-1.39341z" data-paper-data="{&quot;index&quot;:null}" fill="#774b00" stroke="#703100" stroke-width="2" stroke-linecap="round"/></g></g></svg>