<svg version="1.1" xmlns="http://www.w3.org/2000/svg" xmlns:xlink="http://www.w3.org/1999/xlink" width="520.95312" height="388" viewBox="0,0,520.95312,388"><defs><linearGradient x1="185.40625" y1="74.81251" x2="185.40625" y2="301.81251" gradientUnits="userSpaceOnUse" id="color-1"><stop offset="0" stop-color="#ffaf26"/><stop offset="1" stop-color="#ffe1a0"/></linearGradient><linearGradient x1="232.92969" y1="290.81251" x2="232.92969" y2="382.81251" gradientUnits="userSpaceOnUse" id="color-2"><stop offset="0" stop-color="#ffaf26"/><stop offset="1" stop-color="#ffe1a0"/></linearGradient><linearGradient x1="366.95312" y1="174.15534" x2="366.95312" y2="208.15534" gradientUnits="userSpaceOnUse" id="color-3"><stop offset="0" stop-color="#ffaf26"/><stop offset="1" stop-color="#ffe1a0"/></linearGradient><linearGradient x1="438.40625" y1="-1.18749" x2="438.40625" y2="208.81251" gradientUnits="userSpaceOnUse" id="color-4"><stop offset="0" stop-color="#ffaf26"/><stop offset="1" stop-color="#ffe1a0"/></linearGradient></defs><g transform="translate(27.54687,3.18749)"><g data-paper-data="{&quot;isPaintingLayer&quot;:true}" fill-rule="nonzero" stroke="#c38600" stroke-width="4" stroke-linejoin="miter" stroke-miterlimit="10" stroke-dasharray="" stroke-dashoffset="0" style="mix-blend-mode: normal"><path d="M164.40625,301.81251v-227h42v227z" fill="url(#color-1)" stroke-linecap="butt"/><path d="M-25.54687,382.81251v-92h516.95312v92z" fill="url(#color-2)" stroke-linecap="butt"/><path d="M66.40625,331.10871l-44,1" fill="none" stroke-linecap="round"/><path d="M115.90625,315.10871l44,-1" fill="none" stroke-linecap="round"/><path d="M192.40625,335.10871l44,-1" fill="none" stroke-linecap="round"/><path d="M315.90625,339.10871l-44,1" fill="none" stroke-linecap="round"/><path d="M318.40625,316.10871l44,-1" fill="none" stroke-linecap="round"/><path d="M393.40625,330.10871l44,-1" fill="none" stroke-linecap="round"/><path d="M445.45313,310.60871l44,-1" fill="none" stroke-linecap="round"/><path d="M291.95313,208.15534v-34h150v34z" fill="url(#color-3)" stroke-linecap="butt"/><path d="M417.40625,208.81251v-210h42v210z" fill="url(#color-4)" stroke-linecap="butt"/><path d="M305.90625,187.42121h28" fill="none" stroke-linecap="round"/><path d="M350.90625,190.42121h51" fill="none" stroke-linecap="round"/></g></g></svg>