<svg version="1.1" xmlns="http://www.w3.org/2000/svg" xmlns:xlink="http://www.w3.org/1999/xlink" width="90.24885" height="155.2141" viewBox="0,0,90.24885,155.2141"><defs><linearGradient x1="246.523" y1="220.40935" x2="269.13583" y2="248.39538" gradientUnits="userSpaceOnUse" id="color-1"><stop offset="0" stop-color="#364ec7"/><stop offset="1" stop-color="#001371"/></linearGradient><linearGradient x1="272.25808" y1="238.65362" x2="272.25808" y2="256.20823" gradientUnits="userSpaceOnUse" id="color-2"><stop offset="0" stop-color="#a6680a"/><stop offset="1" stop-color="#6c4205"/></linearGradient><linearGradient x1="246.01489" y1="175.16173" x2="274.95013" y2="166.25976" gradientUnits="userSpaceOnUse" id="color-3"><stop offset="0" stop-color="#20de16"/><stop offset="1" stop-color="#158e0e"/></linearGradient><linearGradient x1="240.04316" y1="166.50126" x2="240.04316" y2="225.48718" gradientUnits="userSpaceOnUse" id="color-4"><stop offset="0" stop-color="#364ec7"/><stop offset="1" stop-color="#001371"/></linearGradient><linearGradient x1="241.48345" y1="170.72417" x2="241.48345" y2="191.57969" gradientUnits="userSpaceOnUse" id="color-5"><stop offset="0" stop-color="#20de16"/><stop offset="1" stop-color="#158e0e"/></linearGradient><linearGradient x1="233.73738" y1="218.88183" x2="211.45893" y2="246.77276" gradientUnits="userSpaceOnUse" id="color-6"><stop offset="0" stop-color="#364ec7"/><stop offset="1" stop-color="#001371"/></linearGradient><linearGradient x1="209.78332" y1="239.68446" x2="209.78332" y2="256.98204" gradientUnits="userSpaceOnUse" id="color-7"><stop offset="0" stop-color="#a6680a"/><stop offset="1" stop-color="#6c4205"/></linearGradient><linearGradient x1="218.0528" y1="172.64546" x2="218.0528" y2="201.23514" gradientUnits="userSpaceOnUse" id="color-8"><stop offset="0" stop-color="#20de16"/><stop offset="1" stop-color="#158e0e"/></linearGradient><linearGradient x1="231.70799" y1="122.81871" x2="245.04942" y2="174.00076" gradientUnits="userSpaceOnUse" id="color-9"><stop offset="0" stop-color="#ffefc0"/><stop offset="1" stop-color="#e0ce98"/></linearGradient><linearGradient x1="226.45948" y1="106.82391" x2="234.60582" y2="138.07589" gradientUnits="userSpaceOnUse" id="color-10"><stop offset="0" stop-color="#20de16"/><stop offset="1" stop-color="#158e0e"/></linearGradient><linearGradient x1="244.79774" y1="121.82107" x2="246.79809" y2="129.49504" gradientUnits="userSpaceOnUse" id="color-11"><stop offset="0" stop-color="#20de16"/><stop offset="1" stop-color="#158e0e"/></linearGradient><linearGradient x1="260.29946" y1="139.50719" x2="264.72635" y2="156.49018" gradientUnits="userSpaceOnUse" id="color-12"><stop offset="0" stop-color="#ffefc0"/><stop offset="1" stop-color="#e0ce98"/></linearGradient></defs><g transform="translate(-194.76927,-102.51795)"><g data-paper-data="{&quot;isPaintingLayer&quot;:true}" fill-rule="nonzero" stroke-linejoin="miter" stroke-miterlimit="10" stroke-dasharray="" stroke-dashoffset="0" style="mix-blend-mode: normal"><path d="M262.11754,228.12865c2.48104,2.52898 5.87894,7.76006 7.83757,10.71272c2.81682,4.24636 2.17914,5.80565 -0.59606,8.83383c-2.78756,3.04169 -3.31878,4.29312 -7.45361,1.44903c-2.84399,-1.9562 -6.26481,-8.72554 -8.72995,-11.23829c-7.27948,-7.42012 -13.29227,-11.37443 -10.78541,-14.10983c0,0 4.41711,-3.95872 6.38636,-3.387c0,0 0.78791,-3.18266 3.43838,-1.53294c2.66882,1.66115 2.62324,1.85238 9.90272,9.2725z" data-paper-data="{&quot;origPos&quot;:null,&quot;origRot&quot;:0}" fill="url(#color-1)" stroke="#001371" stroke-width="1.5" stroke-linecap="butt"/><path d="M275.92573,238.67309c5.30552,-0.33645 6.22848,3.76472 5.50025,6.32551c-0.8818,3.10094 -6.84755,9.06543 -11.32247,10.6198c-4.4749,1.55437 -3.9497,-0.3201 -5.20301,-1.5246c-2.78655,-2.67803 -3.07846,-6.85055 1.52901,-11.53885c4.60746,-4.6883 4.1907,-3.54544 9.49622,-3.88189z" data-paper-data="{&quot;origPos&quot;:null,&quot;origRot&quot;:0}" fill="url(#color-2)" stroke="#6c4306" stroke-width="1.5" stroke-linecap="butt"/><path d="M249.07388,183.5431c-2.72905,-1.94861 0.16644,-9.27354 6.46724,-16.36066c6.30081,-7.08713 13.62095,-11.2527 16.35001,-9.30408c2.72906,1.94862 -0.16642,9.27354 -6.46724,16.36066c-6.30081,7.08713 -13.62096,11.25271 -16.35001,9.30407z" data-paper-data="{&quot;origRot&quot;:0,&quot;origPos&quot;:null,&quot;index&quot;:null}" fill="url(#color-3)" stroke="#158e0e" stroke-width="1.5" stroke-linecap="butt"/><path d="M257.16179,196.09154c0,9.41437 2.57396,18.53496 -2.43939,25.72942c-3.21333,4.61132 -9.69716,3.56404 -14.67924,3.56404c-4.98207,0 -11.4659,0.74966 -14.67924,-3.86164c-5.01335,-7.19445 -2.43939,-16.01745 -2.43939,-25.4318c0,-16.17833 7.66426,-29.54752 17.11863,-29.54752c0,0 9.72842,-0.91541 12.88897,5.72261c3.14566,6.60674 4.22966,7.64657 4.22966,23.8249z" data-paper-data="{&quot;origPos&quot;:null}" fill="url(#color-4)" stroke="#001371" stroke-width="1.5" stroke-linecap="butt"/><path d="M263.43707,156.36752c-1.1624,-5.4881 2.55849,-10.9386 8.31081,-12.17401c5.75235,-1.23542 11.35783,2.21206 12.52025,7.70018c1.16239,5.48809 -2.55849,10.9386 -8.31081,12.17401c-5.75235,1.23542 -11.35785,-2.21207 -12.52025,-7.70018z" data-paper-data="{&quot;origPos&quot;:null,&quot;index&quot;:null,&quot;origRot&quot;:0}" fill="#ffffff" stroke="#bfbfbf" stroke-width="1.5" stroke-linecap="butt"/><path d="M248.17658,179.50247c0,2.73229 1.18698,7.24255 -0.31003,9.12432c-1.61709,2.03268 -3.32827,2.96733 -5.5586,2.95273c-2.46992,-0.01618 -4.1733,-1.01847 -6.23486,-2.81865c-2.11879,-1.85016 -1.69451,-5.89918 -1.69451,-9.25839c0,-4.84812 3.0888,-8.7783 6.89902,-8.7783c3.8102,0 6.899,3.93019 6.899,8.7783z" data-paper-data="{&quot;origPos&quot;:null}" fill="url(#color-5)" stroke="none" stroke-width="0" stroke-linecap="butt"/><path d="M234.91447,187.79063c0,2.26997 -1.7773,4.11017 -3.96972,4.11017c-2.19242,0 -3.96972,-1.84019 -3.96972,-4.11017c0,-2.26997 1.7773,-4.11016 3.96972,-4.11016c2.19242,0 3.96972,1.84019 3.96972,4.11016z" data-paper-data="{&quot;origPos&quot;:null}" fill="#faff66" stroke="none" stroke-width="1.5" stroke-linecap="butt"/><path d="M256.20745,187.22689c0,2.21407 -1.73351,4.00892 -3.87193,4.00892c-2.13841,0 -3.87194,-1.79484 -3.87194,-4.00892c0,-2.21407 1.73353,-4.00892 3.87194,-4.00892c2.13841,0 3.87193,1.79484 3.87193,4.00892z" data-paper-data="{&quot;origPos&quot;:null}" fill="#faff66" stroke="none" stroke-width="1.5" stroke-linecap="butt"/><path d="M228.95391,237.22502c-2.18688,2.73782 -6.91619,6.61594 -9.58077,8.84681c-3.83209,3.20835 -5.43769,2.66537 -8.73825,0.02899c-3.31528,-2.64814 -4.6062,-3.10395 -2.30643,-7.56703c1.58183,-3.06975 7.8177,-7.08336 9.99056,-9.80362c6.41641,-8.03286 9.58261,-14.50977 12.56405,-12.12827c0,0 4.40846,4.25883 4.08124,6.32747c-0.94347,5.96461 0.40601,6.26278 -6.0104,14.29565z" data-paper-data="{&quot;origPos&quot;:null,&quot;origRot&quot;:0}" fill="url(#color-6)" stroke="#001371" stroke-width="1.5" stroke-linecap="butt"/><path d="M218.4771,250.95423c0.71683,5.02435 -3.15228,6.36636 -5.66499,5.95965c-3.04271,-0.49249 -9.2121,-5.51357 -11.03662,-9.60837c-1.82452,-4.09479 0.01417,-3.80456 1.07761,-5.13591c2.3644,-2.96004 6.34882,-3.70801 11.19212,0.16068c4.8433,3.86868 3.71507,3.5996 4.43189,8.62395z" data-paper-data="{&quot;origPos&quot;:null,&quot;origRot&quot;:0}" fill="url(#color-7)" stroke="#6c4306" stroke-width="1.5" stroke-linecap="butt"/><path d="M223.00255,191.20028c-6.27817,7.53389 -13.58371,11.73407 -16.31737,9.38135c-2.73368,-2.35271 0.13972,-10.36739 6.41787,-17.90131c6.27817,-7.53389 13.58371,-11.73407 16.31737,-9.38135c2.73368,2.35271 -0.13972,10.36739 -6.41787,17.90131z" data-paper-data="{&quot;origRot&quot;:0,&quot;origPos&quot;:null}" fill="url(#color-8)" stroke="#158e0e" stroke-width="1.5" stroke-linecap="butt"/><path d="M215.96615,203.6661c-0.09648,5.92272 -4.75153,10.64704 -10.39737,10.55205c-5.64583,-0.09497 -10.14446,-4.97329 -10.04798,-10.89602c0.09648,-5.92272 4.75153,-10.64704 10.39737,-10.55205c5.64583,0.09497 10.14446,4.97329 10.04798,10.89602z" data-paper-data="{&quot;origPos&quot;:null,&quot;origRot&quot;:0}" fill="#ffffff" stroke="#bfbfbf" stroke-width="1.5" stroke-linecap="butt"/><path d="M262.8088,142.93245c2.48257,9.52394 -1.47654,14.75022 -6.75405,21.36027c-3.67727,4.60578 -4.20296,7.93488 -9.53005,9.32348c-6.19043,1.61363 -9.52588,-1.07013 -15.86712,-3.66027c-7.71247,-3.15024 -13.87156,-5.18358 -16.31639,-14.56275c-1.26386,-4.84858 -3.89399,-17.20913 -2.94263,-21.82049c2.19244,-10.62698 13.4967,-6.66182 22.12689,-8.91142c0,0 12.98686,-7.73824 20.07351,-0.02072c3.36293,3.66229 5.71787,4.89555 9.20984,18.29188z" data-paper-data="{&quot;origPos&quot;:null,&quot;origRot&quot;:0}" fill="url(#color-9)" stroke="#e0ce98" stroke-width="1" stroke-linecap="butt"/><path d="M255.58617,114.85473c11.12104,13.34114 -22.91064,18.33642 -24.73214,20.93925c-1.78895,2.55633 1.34588,8.12832 -1.43093,8.85213c-3.89193,1.01449 -7.98252,2.89596 -7.8266,7.87764c0.09025,2.88304 4.389,7.41734 2.3979,8.7042c-1.96146,1.2677 -3.1293,4.12807 -5.30167,4.86902c-1.76182,0.60092 -2.90406,-1.69267 -4.71214,-1.25733c-5.14911,1.23978 -2.63723,-12.97176 -2.68962,-13.66905c-0.01747,-0.23243 -2.30554,-4.47737 -2.87954,-6.67944c-3.11324,-11.94342 4.75881,-20.77805 11.01311,-22.40834c6.25429,-1.63028 25.04058,-20.56924 36.16162,-7.22811z" data-paper-data="{&quot;origPos&quot;:null,&quot;origRot&quot;:0}" fill="#c27231" stroke="#985926" stroke-width="1.5" stroke-linecap="butt"/><path d="M265.75845,155.7465c0.24451,0.93801 -0.36284,2.78807 -0.2195,3.74621c0.30442,2.03484 -0.77557,3.43065 -2.65003,4.01407c-2.06882,0.64393 -6.43219,-0.92327 -6.43219,-0.92327c0,0 -2.48442,1.87784 -4.25296,2.81143c-1.48239,0.78253 -3.98736,1.17589 -5.62313,0.78981c-1.14995,-0.27143 -3.3039,-2.10769 -4.1854,-2.93626c-2.79064,-2.62304 -9.07304,-5.91701 -5.03484,-8.18952c1.98685,-1.11812 9.87671,3.2421 12.07634,2.66873c0,0 3.68073,-0.97757 5.53716,-1.35612c4.2093,-0.85836 9.62729,-5.0647 10.78455,-0.62508z" data-paper-data="{&quot;origPos&quot;:null,&quot;origRot&quot;:0}" fill="#160b02" stroke="none" stroke-width="0" stroke-linecap="butt"/><path d="M258.51545,118.61526c2.49346,9.56573 -9.71868,6.4608 -24.49634,10.31284c-3.57763,0.93257 -6.25651,10.05531 -9.84304,10.953c-5.08464,1.27266 -10.83995,5.36757 -15.65861,3.29504c-3.40165,-1.46306 -2.58142,-7.02376 -3.5166,-10.61145c-2.11275,-8.10521 6.27681,-10.41716 12.66293,-15.81601c4.64204,-3.92438 3.6677,-7.95881 9.54756,-9.49149c0,0 11.5784,-4.89509 19.24853,-4.165c8.68366,0.82656 9.56213,5.95731 12.05559,15.52304z" data-paper-data="{&quot;origPos&quot;:null,&quot;origRot&quot;:0}" fill="url(#color-10)" stroke="#158e0e" stroke-width="1" stroke-linecap="butt"/><path d="M270.1584,121.72436c0.8781,3.36868 -10.03137,2.91781 -23.15958,6.33989c-13.1282,3.42208 -23.50377,9.42123 -24.38187,6.05255c-0.8781,-3.36868 9.05257,-8.87366 22.18078,-12.29573c13.1282,-3.42208 24.48256,-3.46537 25.36066,-0.09671z" data-paper-data="{&quot;origPos&quot;:null,&quot;origRot&quot;:0}" fill="url(#color-11)" stroke="#158e0e" stroke-width="1" stroke-linecap="butt"/><path d="M252.80511,112.83662c0.54112,2.07589 1.21731,3.4292 0.04458,5.14463c-1.01224,1.48065 -8.53244,3.12199 -10.00798,2.52902c-2.10189,-0.8447 -1.70138,-2.20621 -2.29373,-4.47863c-0.8841,-3.39168 1.14306,-6.85643 4.52777,-7.73871c3.38472,-0.88228 6.84527,1.15201 7.72937,4.54369z" data-paper-data="{&quot;origPos&quot;:null,&quot;origRot&quot;:0}" fill="#ffffff" stroke="#a4a4a4" stroke-width="1" stroke-linecap="butt"/><path d="M251.69113,139.25369c1.04408,4.00544 -0.16452,7.78816 -2.69949,8.44894c-2.53497,0.66078 -5.43636,-2.0506 -6.48044,-6.05604c-1.04408,-4.00544 0.16452,-7.78817 2.69949,-8.44895c2.53497,-0.66078 5.43636,2.0506 6.48045,6.05605z" data-paper-data="{&quot;origPos&quot;:null,&quot;origRot&quot;:0}" fill="#ffffff" stroke="none" stroke-width="0" stroke-linecap="butt"/><path d="M241.38794,133.42954c0,0 3.3146,-1.47125 4.04719,-1.53162c1.31008,-0.10796 3.88347,0.88318 3.88347,0.88318" data-paper-data="{&quot;origPos&quot;:null,&quot;origRot&quot;:0}" fill="none" stroke="#351c06" stroke-width="1.5" stroke-linecap="round"/><path d="M251.63797,138.93476c0.69291,2.65823 -0.10918,5.16865 -1.79153,5.60718c-1.68234,0.43853 -3.60787,-1.3609 -4.30078,-4.01912c-0.69291,-2.65823 0.10919,-5.16865 1.79153,-5.60718c1.68234,-0.43853 3.60787,1.3609 4.30078,4.01912z" data-paper-data="{&quot;origPos&quot;:null,&quot;origRot&quot;:0}" fill="#1121d4" stroke="none" stroke-width="0" stroke-linecap="butt"/><path d="M251.66783,138.7777c0.35831,1.37458 -0.05646,2.67271 -0.92641,2.89948c-0.86995,0.22677 -1.86564,-0.70372 -2.22394,-2.07829c-0.35831,-1.37458 0.05647,-2.67271 0.92641,-2.89948c0.86995,-0.22677 1.86564,0.70372 2.22394,2.07829z" data-paper-data="{&quot;origPos&quot;:null,&quot;origRot&quot;:0}" fill="#000000" stroke="none" stroke-width="0" stroke-linecap="butt"/><path d="M255.8263,129.75963c2.10197,-0.54791 4.50778,1.70032 5.37352,5.02159c0.86574,3.32127 -0.13642,6.45784 -2.2384,7.00576c-2.10197,0.54791 -4.50778,-1.70032 -5.37352,-5.02159c-0.86574,-3.32127 0.13642,-6.45784 2.2384,-7.00576z" data-paper-data="{&quot;origPos&quot;:null,&quot;index&quot;:null,&quot;origRot&quot;:0}" fill="#ffffff" stroke="none" stroke-width="0" stroke-linecap="butt"/><path d="M252.48807,130.02027c0,0 1.46112,-1.75893 2.45288,-2.21109c0.55459,-0.25286 3.54883,-0.52982 3.54883,-0.52982" data-paper-data="{&quot;origPos&quot;:null,&quot;origRot&quot;:0,&quot;index&quot;:null}" fill="none" stroke="#351c06" stroke-width="1.5" stroke-linecap="round"/><path d="M257.71566,131.27692c1.39498,-0.36362 2.99162,1.12844 3.56616,3.33259c0.57455,2.20417 -0.09054,4.28577 -1.48553,4.64939c-1.39498,0.36362 -2.99161,-1.12844 -3.56615,-3.33259c-0.57455,-2.20417 0.09054,-4.28577 1.48552,-4.64939z" data-paper-data="{&quot;origPos&quot;:null,&quot;index&quot;:null,&quot;origRot&quot;:0}" fill="#1121d4" stroke="none" stroke-width="0" stroke-linecap="butt"/><path d="M265.69104,139.95993c0.74546,0 1.34976,0.95486 1.34976,2.13272c0,1.17788 -0.60431,2.13272 -1.34976,2.13272c-0.74546,0 -1.34975,-0.95486 -1.34975,-2.13272c0,-1.17788 0.60431,-2.13272 1.34975,-2.13272z" data-paper-data="{&quot;origPos&quot;:null,&quot;index&quot;:null}" fill="#000000" stroke="none" stroke-width="0" stroke-linecap="butt"/><path d="M274.29221,144.79455c1.20443,4.62059 -2.79597,9.93095 -9.31952,11.63142c-6.52354,1.70046 -13.0999,-0.85289 -14.30433,-5.47348c-1.20443,-4.62059 3.10756,-9.74483 9.6311,-11.4453c6.52354,-1.70046 12.78831,0.66676 13.99274,5.28736z" data-paper-data="{&quot;origPos&quot;:null,&quot;origRot&quot;:0}" fill="url(#color-12)" stroke="#e0ce98" stroke-width="1.5" stroke-linecap="butt"/><path d="M226.71955,150.61963c-0.15512,3.05652 -3.64379,5.25276 -7.79218,4.90543c-4.14841,-0.34734 -7.38558,-3.10669 -7.23048,-6.16322c0.15512,-3.05652 3.64379,-5.25276 7.79218,-4.90543c4.14841,0.34734 7.38558,3.10669 7.23048,6.16322z" data-paper-data="{&quot;origRot&quot;:0,&quot;origPos&quot;:null}" fill="#ffefc0" stroke="#e0ce98" stroke-width="1.5" stroke-linecap="butt"/><path d="M250.12601,116.43504l-4.44462,0.92417l-1.39873,-5.63656" data-paper-data="{&quot;origPos&quot;:null,&quot;origRot&quot;:0}" fill="none" stroke="#158e0e" stroke-width="1" stroke-linecap="round"/></g></g></svg>