<svg version="1.1" xmlns="http://www.w3.org/2000/svg" xmlns:xlink="http://www.w3.org/1999/xlink" width="351.19118" height="341.50004" viewBox="0,0,351.19118,341.50004"><defs><linearGradient x1="140.72623" y1="232.09374" x2="140.72623" y2="271.38516" gradientUnits="userSpaceOnUse" id="color-1"><stop offset="0" stop-color="#17ff22"/><stop offset="1" stop-color="#02d10c"/></linearGradient><linearGradient x1="374.72623" y1="135.09374" x2="374.72623" y2="174.38516" gradientUnits="userSpaceOnUse" id="color-2"><stop offset="0" stop-color="#17ff22"/><stop offset="1" stop-color="#02d10c"/></linearGradient></defs><g transform="translate(-82.13064,-133.59376)"><g data-paper-data="{&quot;isPaintingLayer&quot;:true}" fill-rule="nonzero" stroke-linejoin="miter" stroke-miterlimit="10" stroke-dasharray="" stroke-dashoffset="0" style="mix-blend-mode: normal"><path d="M83.27344,475.0938v-220h114.21496v220z" fill="#98763d" stroke="none" stroke-width="0" stroke-linecap="butt"/><path d="M83.63064,258.98702v-26.89326h114.19118v26.89326l-6.37108,1.75726l-10.37359,10.64086l-10.08819,-11.9986l-9.60292,10.37815l-9.60869,-10.67969l-10.23706,8.22474l-9.52865,-9.40523l-13.5726,12.49333l-10.07175,-13.2091l-13.26327,10.7627z" fill="url(#color-1)" stroke="#08a310" stroke-width="3" stroke-linecap="butt"/><path d="M118.67385,303.43998l-8.87184,-13.22785l6.05447,-3.87501l16.87004,15.94784l1.16689,7.40281z" data-paper-data="{&quot;index&quot;:null}" fill="#774b00" stroke="#703100" stroke-width="2" stroke-linecap="round"/><path d="M160.67385,361.43998l-8.87184,-13.22785l6.05447,-3.87501l16.87004,15.94784l1.16689,7.40281z" data-paper-data="{&quot;index&quot;:null}" fill="#774b00" stroke="#703100" stroke-width="2" stroke-linecap="round"/><path d="M117.67385,408.43998l-8.87184,-13.22785l6.05447,-3.87501l16.87004,15.94784l1.16689,7.40281z" data-paper-data="{&quot;index&quot;:null}" fill="#774b00" stroke="#703100" stroke-width="2" stroke-linecap="round"/><path d="M317.27344,406.0938v-248h114.21496v248z" fill="#98763d" stroke="none" stroke-width="0" stroke-linecap="butt"/><path d="M317.63064,161.98702v-26.89326h114.19118v26.89326l-6.37108,1.75726l-10.37359,10.64086l-10.08819,-11.9986l-9.60292,10.37815l-9.60869,-10.67969l-10.23706,8.22474l-9.52865,-9.40523l-13.5726,12.49333l-10.07175,-13.2091l-13.26327,10.7627z" fill="url(#color-2)" stroke="#08a310" stroke-width="3" stroke-linecap="butt"/><path d="M352.67385,206.43998l-8.87184,-13.22785l6.05447,-3.87501l16.87004,15.94784l1.16689,7.40281z" data-paper-data="{&quot;index&quot;:null}" fill="#774b00" stroke="#703100" stroke-width="2" stroke-linecap="round"/><path d="M394.67385,264.43998l-8.87184,-13.22785l6.05447,-3.87501l16.87004,15.94784l1.16689,7.40281z" data-paper-data="{&quot;index&quot;:null}" fill="#774b00" stroke="#703100" stroke-width="2" stroke-linecap="round"/><path d="M351.67385,311.43998l-8.87184,-13.22785l6.05447,-3.87501l16.87004,15.94784l1.16689,7.40281z" data-paper-data="{&quot;index&quot;:null}" fill="#774b00" stroke="#703100" stroke-width="2" stroke-linecap="round"/></g></g></svg>