<svg version="1.1" xmlns="http://www.w3.org/2000/svg" xmlns:xlink="http://www.w3.org/1999/xlink" width="475.46443" height="143.82393" viewBox="0,0,475.46443,143.82393"><defs><radialGradient cx="50.45314" cy="178.8125" r="56" gradientUnits="userSpaceOnUse" id="color-1"><stop offset="0" stop-color="#00ff4c"/><stop offset="1" stop-color="#48983d"/></radialGradient><radialGradient cx="74.46127" cy="154.06398" r="7.45562" gradientUnits="userSpaceOnUse" id="color-2"><stop offset="0" stop-color="#ff5858"/><stop offset="1" stop-color="#f73434"/></radialGradient><radialGradient cx="74.46127" cy="151.24741" r="3.81065" gradientUnits="userSpaceOnUse" id="color-3"><stop offset="0" stop-color="#f78934"/><stop offset="1" stop-color="#f78934" stop-opacity="0"/></radialGradient></defs><g transform="translate(5.54686,-90.98857)"><g data-paper-data="{&quot;isPaintingLayer&quot;:true}" fill-rule="nonzero" stroke="none" stroke-linecap="butt" stroke-linejoin="miter" stroke-miterlimit="10" stroke-dasharray="" stroke-dashoffset="0" style="mix-blend-mode: normal"><path d="M-5.54686,178.8125c0,-30.92795 25.07205,-56 56,-56c30.92795,0 56,25.07205 56,56c0,30.92795 -25.07205,56 -56,56c-30.92795,0 -56,-25.07205 -56,-56z" fill="url(#color-1)" stroke-width="0"/><path d="M58.5574,146.54813c0.01598,-0.34961 0.20678,-2.43579 2.48374,-2.43579c2.48521,0 2.48521,2.48521 2.48521,2.48521l-0.37776,1.97988c-2.88928,4.6225 -5.51196,9.34073 -7.80034,14.29697c-0.67124,1.45379 -1.93332,6.26804 -4.43292,6.70639c-2.19057,0.38415 -6.0418,-3.40848 -7.04896,-4.52082c-1.67108,-1.84561 -2.62301,-4.24263 -3.71124,-6.48195c-2.27567,-4.68282 -3.46146,-9.12658 -3.46902,-14.29999c0,0 0,-2.48521 2.48521,-2.48521c2.48521,0 2.48521,2.48521 2.48521,2.48521c-0.01022,6.17424 2.35885,10.98616 5.34734,16.30762c0.25001,0.44518 0.38266,0.97117 0.72683,1.3483c0.41026,0.44956 1.27237,1.03992 1.86745,1.57354c0.34344,-0.92329 0.81879,-1.80561 1.23055,-2.70159c0.70375,-1.53135 1.50602,-3.01548 2.25978,-4.52284c1.68663,-3.37296 3.49436,-6.54462 5.46892,-9.73493z" fill="#13ae37" stroke-width="0.5"/><path d="M27.07811,169.7434c0.01598,-0.34961 0.20678,-2.43579 2.48374,-2.43579c2.48521,0 2.48521,2.48521 2.48521,2.48521l-0.37776,1.97988c-2.88928,4.6225 -5.51196,9.34073 -7.80034,14.29697c-0.67124,1.45379 -1.93332,6.26803 -4.43293,6.70639c-2.19057,0.38415 -6.04181,-3.40848 -7.04896,-4.52082c-1.67108,-1.84561 -2.62302,-4.24263 -3.71124,-6.48195c-2.27567,-4.68282 -3.46146,-9.12659 -3.46902,-14.29999c0,0 0,-2.48521 2.48521,-2.48521c2.48521,0 2.48521,2.48521 2.48521,2.48521c-0.01022,6.17424 2.35884,10.98616 5.34734,16.30762c0.25001,0.44518 0.38266,0.97117 0.72683,1.3483c0.41026,0.44956 1.27237,1.03992 1.86745,1.57354c0.34344,-0.92329 0.81879,-1.80561 1.23055,-2.70159c0.70375,-1.53135 1.50602,-3.01548 2.25978,-4.52285c1.68664,-3.37296 3.49435,-6.54461 5.46892,-9.73493z" fill="#13ae37" stroke-width="0.5"/><path d="M83.07812,173.71973c0.01598,-0.34961 0.20678,-2.43579 2.48374,-2.43579c2.48521,0 2.48521,2.48521 2.48521,2.48521l-0.37776,1.97988c-2.88927,4.62249 -5.51196,9.34073 -7.80034,14.29697c-0.67124,1.45379 -1.93332,6.26803 -4.43292,6.70639c-2.19057,0.38415 -6.0418,-3.40848 -7.04896,-4.52082c-1.67108,-1.84561 -2.62301,-4.24263 -3.71124,-6.48195c-2.27567,-4.68282 -3.46146,-9.12659 -3.46902,-14.29999c0,0 0,-2.48521 2.48521,-2.48521c2.48521,0 2.48521,2.48521 2.48521,2.48521c-0.01022,6.17424 2.35885,10.98616 5.34734,16.30763c0.25001,0.44518 0.38266,0.97117 0.72683,1.3483c0.41026,0.44955 1.27237,1.03991 1.86745,1.57353c0.34344,-0.92329 0.81879,-1.80561 1.23055,-2.70159c0.70375,-1.53135 1.50602,-3.01548 2.25978,-4.52284c1.68664,-3.37296 3.49436,-6.54462 5.46892,-9.73493z" fill="#13ae37" stroke-width="0.5"/><path d="M51.59883,193.93275c0.01598,-0.34961 0.20678,-2.43579 2.48374,-2.43579c2.48521,0 2.48521,2.48521 2.48521,2.48521l-0.37776,1.97988c-2.88928,4.62249 -5.51196,9.34073 -7.80034,14.29697c-0.67124,1.45379 -1.93332,6.26803 -4.43292,6.70639c-2.19057,0.38415 -6.04181,-3.40848 -7.04896,-4.52082c-1.67108,-1.84561 -2.62301,-4.24263 -3.71124,-6.48195c-2.27567,-4.68282 -3.46146,-9.12659 -3.46902,-14.29999c0,0 0,-2.48521 2.48521,-2.48521c2.48521,0 2.48521,2.48521 2.48521,2.48521c-0.01022,6.17424 2.35885,10.98616 5.34734,16.30763c0.25001,0.44518 0.38266,0.97117 0.72683,1.3483c0.41026,0.44955 1.27237,1.03991 1.86745,1.57353c0.34344,-0.92329 0.81879,-1.80561 1.23055,-2.70159c0.70375,-1.53135 1.50602,-3.01548 2.25978,-4.52284c1.68664,-3.37296 3.49435,-6.54462 5.46892,-9.73493z" fill="#13ae37" stroke-width="0.5"/><path d="M67.00565,154.06398c0,-4.11762 3.338,-7.45562 7.45562,-7.45562c4.11762,0 7.45562,3.338 7.45562,7.45562c0,4.11762 -3.338,7.45562 -7.45562,7.45562c-4.11762,0 -7.45562,-3.338 -7.45562,-7.45562z" fill="url(#color-2)" stroke-width="0"/><path d="M70.65062,151.24741c0,-2.10457 1.70608,-3.81065 3.81065,-3.81065c2.10457,0 3.81065,1.70608 3.81065,3.81065c0,2.10457 -1.70608,3.81065 -3.81065,3.81065c-2.10457,0 -3.81065,-1.70608 -3.81065,-3.81065z" fill="url(#color-3)" stroke-width="0"/><path d="M78.04995,138.4447c0.45952,0.68927 -0.22976,1.14879 -0.22976,1.14879l-0.32758,0.18121c-2.41097,2.78865 -2.45145,6.69326 -2.45145,10.23011c0,0 0,0.8284 -0.8284,0.8284c-0.8284,0 -0.8284,-0.8284 -0.8284,-0.8284c0,-3.98266 0.17108,-8.15882 2.85032,-11.30835l0.6665,-0.48151c0,0 0.68927,-0.45952 1.14879,0.22976z" fill="#13ae37" stroke-width="0.5"/><path d="M469.91757,160.95854c0,38.64335 -19.18569,45.86546 -42.85242,45.86546c-23.66673,0 -42.8524,-7.22212 -42.8524,-45.86546c0,-38.64335 19.18568,-69.96997 42.8524,-69.96997c23.66673,0 42.85242,31.32663 42.85242,69.96997z" fill="#99a6ff" stroke-width="0"/><path d="M427.23255,191.59131c0,-14.79171 15.0041,-24.77405 29.79581,-24.77405c7.47963,0 12.07177,9.34902 12.07177,9.34902c0,0 0.50925,9.33478 -7.74043,20.56168c-7.92347,10.78296 -26.09878,9.74348 -26.09878,9.74348c0,0 -8.02837,-5.82352 -8.02837,-14.88014z" fill="#0021ff" stroke-width="0"/><path d="M388.59159,132.30909c0,0 4.53282,-1.31377 7.00381,-1.31377c10.63154,0 19.25011,8.61856 19.25011,19.2501c0,10.63154 -8.61857,19.25012 -19.25011,19.25012c-4.44451,0 -10.79116,-3.3665 -10.79116,-3.3665c0,0 -2.0085,-6.78721 -1.0458,-17.90761c1.06394,-12.28984 4.83315,-15.91233 4.83315,-15.91233z" fill="#0021ff" stroke-width="0"/><path d="M425.89341,115.93002c0,-9.81851 16.16393,-19.97733 16.16393,-19.97733c0,0 7.60343,2.78396 13.35701,10.89323c5.57999,7.86464 8.88497,18.76849 8.88497,18.76849c0,0 -10.20971,10.73747 -17.98405,10.73747c-11.27868,0 -20.42186,-9.14318 -20.42186,-20.42186z" fill="#0021ff" stroke-width="0"/><path d="M422.40246,174.68289c0,25.66395 -12.74166,30.46034 -28.45931,30.46034c-15.71763,0 -28.4593,-4.79638 -28.4593,-30.46034c0,-25.66395 12.74166,-46.46871 28.4593,-46.46871c15.71763,0 28.45931,20.80475 28.45931,46.46871z" fill="#ff9898" stroke-width="0"/><path d="M394.05433,195.02684c0,-9.82352 9.96458,-16.45303 19.7881,-16.45303c4.9674,0 8.01715,6.20891 8.01715,6.20891c0,0 -0.77803,5.08321 -6.25685,12.53926c-5.26217,7.16122 -16.21657,7.58712 -16.21657,7.58712c0,0 -5.33183,-3.86754 -5.33183,-9.88225z" fill="#ff0000" stroke-width="0"/><path d="M368.39196,155.65612c0,0 3.01036,-0.87251 4.6514,-0.87251c7.06066,0 12.78445,5.72379 12.78445,12.78445c0,7.06066 -5.72379,12.78446 -12.78445,12.78446c-2.95171,0 -7.16666,-2.23577 -7.16666,-2.23577c0,0 -1.33389,-4.50755 -0.69454,-11.89287c0.70659,-8.16197 3.20981,-10.56775 3.20981,-10.56775z" fill="#ff0000" stroke-width="0"/><path d="M393.16498,144.77839c0,-6.52071 10.73485,-13.26742 10.73485,-13.26742c0,0 5.04961,1.8489 8.8707,7.23445c3.70581,5.2231 5.90072,12.4646 5.90072,12.4646c0,0 -6.78051,7.13101 -11.94363,7.13101c-7.49043,0 -13.56263,-6.0722 -13.56263,-13.56263z" fill="#ff0000" stroke-width="0"/></g></g></svg>