<svg version="1.1" xmlns="http://www.w3.org/2000/svg" xmlns:xlink="http://www.w3.org/1999/xlink" width="55.16768" height="94.71962" viewBox="0,0,55.16768,94.71962"><defs><linearGradient x1="229.9959" y1="171.06622" x2="229.9959" y2="177.49479" gradientUnits="userSpaceOnUse" id="color-1"><stop offset="0" stop-color="#f8dba3"/><stop offset="1" stop-color="#c1a680"/></linearGradient><linearGradient x1="250.78463" y1="164.18682" x2="250.78463" y2="173.89963" gradientUnits="userSpaceOnUse" id="color-2"><stop offset="0" stop-color="#ffd008"/><stop offset="1" stop-color="#e5bc07"/></linearGradient><linearGradient x1="247.78979" y1="218.92467" x2="247.31001" y2="226.30444" gradientUnits="userSpaceOnUse" id="color-3"><stop offset="0" stop-color="#6fba2a"/><stop offset="1" stop-color="#5a9522"/></linearGradient><linearGradient x1="231.20624" y1="218.38935" x2="230.75892" y2="225.27016" gradientUnits="userSpaceOnUse" id="color-4"><stop offset="0" stop-color="#6fba2a"/><stop offset="1" stop-color="#5a9522"/></linearGradient><linearGradient x1="239.12959" y1="219.18605" x2="238.6268" y2="226.91973" gradientUnits="userSpaceOnUse" id="color-5"><stop offset="0" stop-color="#6fba2a"/><stop offset="1" stop-color="#5a9522"/></linearGradient><linearGradient x1="238.97915" y1="179.89344" x2="236.35764" y2="220.21672" gradientUnits="userSpaceOnUse" id="color-6"><stop offset="0" stop-color="#ffffff"/><stop offset="1" stop-color="#cccccc"/></linearGradient><linearGradient x1="242.58575" y1="175.27611" x2="242.00997" y2="184.13242" gradientUnits="userSpaceOnUse" id="color-7"><stop offset="0" stop-color="#6fba2a"/><stop offset="1" stop-color="#5a9522"/></linearGradient><linearGradient x1="248.0092" y1="205.14518" x2="247.39857" y2="214.53772" gradientUnits="userSpaceOnUse" id="color-8"><stop offset="0" stop-color="#fb7329"/><stop offset="1" stop-color="#b9672c"/></linearGradient><linearGradient x1="232.91508" y1="133.07606" x2="232.91508" y2="145.18096" gradientUnits="userSpaceOnUse" id="color-9"><stop offset="0" stop-color="#ef4013"/><stop offset="1" stop-color="#a82c0d"/></linearGradient><linearGradient x1="242.69285" y1="142.79132" x2="242.69285" y2="154.19953" gradientUnits="userSpaceOnUse" id="color-10"><stop offset="0" stop-color="#6fba2a"/><stop offset="1" stop-color="#5a9522"/></linearGradient><linearGradient x1="245.4983" y1="146.73209" x2="245.4983" y2="169.79955" gradientUnits="userSpaceOnUse" id="color-11"><stop offset="0" stop-color="#f8dba3"/><stop offset="1" stop-color="#c1a680"/></linearGradient><linearGradient x1="246.49876" y1="160.9977" x2="246.49876" y2="166.82379" gradientUnits="userSpaceOnUse" id="color-12"><stop offset="0" stop-color="#ed3341"/><stop offset="1" stop-color="#99151c"/></linearGradient><linearGradient x1="245.06608" y1="158.60181" x2="245.06608" y2="161.14728" gradientUnits="userSpaceOnUse" id="color-13"><stop offset="0" stop-color="#ffffff"/><stop offset="1" stop-color="#cacaca"/></linearGradient><linearGradient x1="238.71917" y1="143.86451" x2="238.71917" y2="148.29554" gradientUnits="userSpaceOnUse" id="color-14"><stop offset="0" stop-color="#ef4013"/><stop offset="1" stop-color="#a82c0d"/></linearGradient><linearGradient x1="249.88259" y1="141.16706" x2="249.88259" y2="146.24567" gradientUnits="userSpaceOnUse" id="color-15"><stop offset="0" stop-color="#ef4013"/><stop offset="1" stop-color="#a82c0d"/></linearGradient><linearGradient x1="240.00893" y1="140.98981" x2="240.00893" y2="144.63655" gradientUnits="userSpaceOnUse" id="color-16"><stop offset="0" stop-color="#837d7d"/><stop offset="1" stop-color="#4f4c50"/></linearGradient><linearGradient x1="224.3529" y1="162.7865" x2="224.3529" y2="177.35225" gradientUnits="userSpaceOnUse" id="color-17"><stop offset="0" stop-color="#139241"/><stop offset="1" stop-color="#0d672e"/></linearGradient><linearGradient x1="228.29615" y1="162.9741" x2="228.29615" y2="177.42865" gradientUnits="userSpaceOnUse" id="color-18"><stop offset="0" stop-color="#ffffff"/><stop offset="1" stop-color="#cacaca"/></linearGradient><linearGradient x1="235.94858" y1="170.85615" x2="235.94858" y2="177.61976" gradientUnits="userSpaceOnUse" id="color-19"><stop offset="0" stop-color="#837d7d"/><stop offset="1" stop-color="#4f4c50"/></linearGradient><linearGradient x1="240.78883" y1="173.54876" x2="240.78883" y2="181.62021" gradientUnits="userSpaceOnUse" id="color-20"><stop offset="0" stop-color="#ffd008"/><stop offset="1" stop-color="#e5bc07"/></linearGradient><linearGradient x1="232.49296" y1="164.85348" x2="232.49296" y2="174.56629" gradientUnits="userSpaceOnUse" id="color-21"><stop offset="0" stop-color="#ffd008"/><stop offset="1" stop-color="#e5bc07"/></linearGradient><linearGradient x1="254.24023" y1="170.18949" x2="254.24023" y2="176.9531" gradientUnits="userSpaceOnUse" id="color-22"><stop offset="0" stop-color="#837d7d"/><stop offset="1" stop-color="#4f4c50"/></linearGradient></defs><g transform="translate(-212.43214,-132.7043)"><g data-paper-data="{&quot;isPaintingLayer&quot;:true}" fill-rule="nonzero" stroke-linejoin="miter" stroke-miterlimit="10" stroke-dasharray="" stroke-dashoffset="0" style="mix-blend-mode: normal"><path d="M229.17447,177.49479l-0.42857,-6.42857l2.5,4.42857v2z" data-paper-data="{&quot;origPos&quot;:null,&quot;index&quot;:null}" fill="url(#color-1)" stroke="#a78f6e" stroke-width="0.5" stroke-linecap="butt"/><g data-paper-data="{&quot;origPos&quot;:null,&quot;index&quot;:null}" stroke="#7e7e7e" stroke-width="0.5"><path d="M223.50104,151.28933c0,0 4.00597,-0.17987 6.09855,1.33396c2.09258,1.51383 0.78163,5.13382 0.78163,5.13382c0,0 -3.86654,-0.09398 -4.40382,-0.94822c-1.36928,-2.17705 -2.47636,-5.51955 -2.47636,-5.51955z" data-paper-data="{&quot;origPos&quot;:null,&quot;origRot&quot;:0}" fill="#ffffff" stroke-linecap="butt"/><path d="M219.47167,155.1955c0,0 2.62314,-0.34235 5.20588,-0.34235c2.58274,0 5.35647,1.82563 5.35647,3.23883c0,0.2599 -1.85505,0.9656 -1.80716,1.22105c0.14366,0.76632 -0.04505,1.2083 0.32473,1.93053c0.43723,0.85396 0.10655,0.72762 -0.71045,1.23056c-0.85937,0.52902 -2.98757,-0.88612 -3.92358,-1.26332c-2.38545,-0.9613 -4.44588,-6.01529 -4.44588,-6.01529z" data-paper-data="{&quot;origPos&quot;:null}" fill="#ffffff" stroke-linecap="butt"/><path d="M228.37286,161.77315c0,0 -1.71682,-0.73589 -2.58525,-1.43732c-0.38146,-0.30809 -1.48751,-1.42937 -1.54891,-1.91585c-0.05523,-0.43754 1.05416,-0.32684 1.05416,-0.32684" data-paper-data="{&quot;origPos&quot;:null}" fill="none" stroke-linecap="round"/><path d="M230.53167,157.89315l0.82,2.12c0,0 -0.35306,1.98196 -1.46,1.88c-1.10694,-0.10196 -1.58,-1.23216 -1.58,-2.16c0,-0.92784 2.22,-1.84 2.22,-1.84z" data-paper-data="{&quot;origPos&quot;:null}" fill="#ffffff" stroke-linecap="butt"/><path d="M232.1427,165.96096c-1.81024,-1.8294 -1.90902,-4.06645 -1.28876,-4.68022c0.29803,-0.29491 0.27265,-1.11647 0.66829,-0.97768c1.18691,0.41637 2.54917,2.20696 3.67842,3.34817c1.14625,1.15838 3.56991,3.22949 3.56991,3.22949c0,0 2.77519,2.63223 6.87447,3.0368c4.09928,0.40457 5.71679,-1.33306 5.75371,-1.34389c0.11077,-0.03249 1.24526,-1.41372 1.38087,0.73056c0.11184,1.76845 2.92628,1.64205 3.12368,3.403c0.15679,1.39864 -3.05731,4.58467 -3.05731,4.58467l-5.88168,0.51588c0,0 -1.12612,-2.58335 -2.15412,-3.36636c-1.25889,-0.95887 -4.17632,-0.50875 -4.17632,-0.50875c0,0 -0.89252,-1.73505 -2.21194,-2.41957c-1.31943,-0.68453 -2.57957,-0.20277 -2.57957,-0.20277c0,0 -1.8894,-3.51992 -3.69964,-5.34932z" data-paper-data="{&quot;origRot&quot;:0,&quot;origPos&quot;:null}" fill="#ffffff" stroke-linecap="butt"/></g><g data-paper-data="{&quot;origPos&quot;:null,&quot;index&quot;:null}" stroke="#7e7e7e"><path d="M243.3177,171.31361c-0.94055,-0.70824 -3.91774,-0.68404 -4.93424,-1.27815c-0.6078,-0.35525 -2.44202,-0.43663 -2.92116,-0.95243c-0.6873,-0.73988 -0.08439,-2.22751 -0.08439,-2.22751c0,0 1.4201,0.63009 1.74101,0.46617c2.09796,-1.07164 3.49286,1.55066 5.82318,1.89632c2.27092,0.33685 5.96163,-0.57464 5.96163,-0.57464c0.09471,0 1.56464,-1.08257 1.65931,-1.07982c0.28401,0.00824 3.75736,2.05772 3.75736,5.28815c0,0.91332 -0.06162,2.70088 -0.68599,3.36745c-0.65155,0.69558 -4.23068,0.15338 -4.23068,0.15338c0,0 1.25,-1.63318 1.25,-4.1875c0,-2.55432 -6.45027,-0.20443 -7.33603,-0.87142z" data-paper-data="{&quot;origPos&quot;:null}" fill="#d76974" stroke-width="0.5" stroke-linecap="butt"/><path d="M249.31206,176.19753l-2.65833,-4.72083" data-paper-data="{&quot;origPos&quot;:null}" fill="none" stroke-width="1" stroke-linecap="round"/><path d="M241.90399,170.92794l1.09493,0.34198l-0.07774,1.5722l-1.39493,-0.44198z" data-paper-data="{&quot;origPos&quot;:null,&quot;origRot&quot;:0}" fill="#d76974" stroke-width="0.5" stroke-linecap="butt"/><path d="M246.63758,172.21003l0.975,2.05l-0.875,2.65l-0.925,-1.6z" data-paper-data="{&quot;origPos&quot;:null}" fill="#d76974" stroke-width="0.5" stroke-linecap="butt"/></g><path d="M247.18049,169.62477c0,0 0.05095,-1.81543 0.40402,-2.80831c0.35308,-0.99288 1.41291,-2.50104 1.41291,-2.50104c1.58239,-0.80461 3.86216,2.35389 4.82769,4.25276c0.33446,0.65778 0.56365,1.33605 0.56365,1.33605c0,0 -1.76126,0.79 -2.44486,1.13759c-0.92571,0.4707 -2.30894,2.8578 -2.30894,2.8578l-2.45446,-4.27484z" data-paper-data="{&quot;origPos&quot;:null,&quot;origRot&quot;:0,&quot;index&quot;:null}" fill="url(#color-2)" stroke="#d5af06" stroke-width="0.5" stroke-linecap="butt"/><g data-paper-data="{&quot;origPos&quot;:null,&quot;origRot&quot;:0,&quot;index&quot;:null}"><path d="M239.4092,221.27602c0.32482,-1.9755 4.23285,-2.97769 8.72883,-2.23844c4.49599,0.73925 7.87738,2.94 7.55255,4.9155c-0.32482,1.97551 -4.23284,2.97769 -8.72882,2.23844c-4.49598,-0.73925 -7.87737,-2.94 -7.55255,-4.9155z" data-paper-data="{&quot;origPos&quot;:null,&quot;origRot&quot;:0}" fill="url(#color-3)" stroke="#4f831e" stroke-width="1" stroke-linecap="butt"/><path d="M230.8467,218.45014c4.55189,-0.12081 8.30277,1.29437 8.37781,3.16088c0.07504,1.86651 -3.55416,3.47754 -8.10606,3.59835c-4.5519,0.12081 -8.30277,-1.29436 -8.37781,-3.16087c-0.07505,-1.86651 3.55416,-3.47755 8.10605,-3.59836z" data-paper-data="{&quot;origPos&quot;:null,&quot;origRot&quot;:0,&quot;index&quot;:null}" fill="url(#color-4)" stroke="#4f831e" stroke-width="1" stroke-linecap="butt"/><path d="M236.13398,222.87449c0.13884,-2.1356 1.48002,-3.78696 2.9956,-3.68843c1.51558,0.09853 2.63166,1.90964 2.49282,4.04524c-0.13884,2.1356 -1.48002,3.78696 -2.9956,3.68843c-1.51558,-0.09853 -2.63166,-1.90964 -2.49282,-4.04524z" data-paper-data="{&quot;origPos&quot;:null}" fill="url(#color-5)" stroke="#4f831e" stroke-width="1" stroke-linecap="butt"/><path d="M213.18214,196.61916c0.73012,-11.23057 5.33258,-13.76608 5.33258,-13.76608c0,0 13.97916,2.37412 21.43359,2.19312c11.29563,-0.27427 23.20911,-2.41175 23.20911,-2.41175c0,0 4.03938,10.09444 3.66832,15.80202c-0.73013,11.23057 -13.28716,21.56108 -27.88687,20.61192c-14.59971,-0.94916 -26.48685,-11.19867 -25.75673,-22.42924z" data-paper-data="{&quot;origPos&quot;:null}" fill="url(#color-6)" stroke="#7e7e7e" stroke-width="1.5" stroke-linecap="butt"/><path d="M258.56493,187.28806c1.52476,0.09913 2.65918,1.74319 2.53377,3.67212c-0.1254,1.92893 -1.46313,3.41227 -2.9879,3.31314c-1.52477,-0.09913 -2.65919,-1.74319 -2.53378,-3.67212c0.12541,-1.92893 1.46314,-3.41227 2.98791,-3.31314z" data-paper-data="{&quot;origPos&quot;:null}" fill="#000000" stroke="none" stroke-width="0" stroke-linecap="butt"/><path d="M241.52403,189.42036c1.6901,0.10987 2.96435,1.6733 2.84611,3.492c-0.11824,1.81871 -1.58417,3.20398 -3.27428,3.0941c-1.69011,-0.10988 -2.96437,-1.6733 -2.84613,-3.492c0.11824,-1.8187 1.58419,-3.20398 3.2743,-3.0941z" data-paper-data="{&quot;origPos&quot;:null}" fill="#000000" stroke="none" stroke-width="0" stroke-linecap="butt"/><path d="M262.57125,177.40104c1.04238,1.1711 0.58067,5.26784 0.58067,5.26784c0,0 -13.74324,2.93797 -22.48668,3.0463c-8.74344,0.10832 -23.37277,-2.49742 -23.37277,-2.49742c0,0 0.2862,-5.93166 0.65291,-6.05496c0.12225,-0.04111 22.65219,1.89971 22.70476,1.89943c7.72487,-0.04214 21.27023,-2.39247 21.92112,-1.6612z" data-paper-data="{&quot;origPos&quot;:null}" fill="url(#color-7)" stroke="#4f831e" stroke-width="1.5" stroke-linecap="butt"/><g data-paper-data="{&quot;origPos&quot;:null}" stroke="#8a3f16" stroke-width="1"><path d="M248.23681,213.5901c-0.10055,-0.00654 -5.96354,-0.59371 -8.19362,-2.24321c-1.96968,-1.45687 -3.01452,-4.89693 -1.90238,-6.10064c1.11214,-1.20371 4.02087,-1.21101 4.02087,-1.21101c3.08587,0.05158 8.5629,2.11724 8.5629,2.11724c4.30609,0.27996 6.3447,-3.38371 9.45942,-2.33302c1.03823,0.35022 1.18107,1.09841 0.98936,2.17723c-0.52544,2.95684 -0.46234,4.11005 -3.72607,5.82208c-3.26374,1.71204 -5.0594,2.0412 -9.21047,1.77133z" data-paper-data="{&quot;origPos&quot;:null}" fill="url(#color-8)" stroke-linecap="butt"/><path d="M258.19999,207.44595c0,0 -4.73509,2.89081 -7.66819,2.86022c-2.4407,-0.02545 -7.62311,-1.83085 -7.62311,-1.83085" data-paper-data="{&quot;origPos&quot;:null}" fill="none" stroke-linecap="round"/></g><path d="M245.16466,193.12307c-0.10983,-0.44693 0.45331,-0.96952 1.25781,-1.16721c0.80449,-0.19769 1.54569,0.00438 1.65552,0.45131c0.10982,0.44693 -0.45332,0.96951 -1.25781,1.1672c-0.80449,0.19768 -1.5457,-0.00438 -1.65553,-0.45131z" data-paper-data="{&quot;origRot&quot;:0,&quot;origPos&quot;:null}" fill="#e3330c" stroke="none" stroke-width="0" stroke-linecap="butt"/><path d="M234.05911,192.71669c0.02737,-0.42098 0.73213,-0.7179 1.57412,-0.66316c0.84199,0.05474 1.50237,0.4404 1.475,0.8614c-0.02738,0.42098 -0.73213,0.7179 -1.57412,0.66316c-0.84199,-0.05474 -1.50238,-0.4404 -1.47501,-0.8614z" data-paper-data="{&quot;origPos&quot;:null}" fill="#e3330c" stroke="none" stroke-width="0" stroke-linecap="butt"/><path d="M252.01696,192.28252c-0.10983,-0.44695 0.45331,-0.96952 1.2578,-1.16721c0.80449,-0.1977 1.5457,0.00437 1.65553,0.4513c0.10982,0.44693 -0.45333,0.96951 -1.25782,1.1672c-0.8045,0.19769 -1.54569,-0.00438 -1.65552,-0.45131z" data-paper-data="{&quot;origRot&quot;:0,&quot;origPos&quot;:null}" fill="#e3330c" stroke="none" stroke-width="0" stroke-linecap="butt"/><path d="M261.34486,190.82198c-0.09407,-0.38284 0.38828,-0.83046 1.07739,-0.99979c0.68911,-0.16933 1.324,0.00374 1.41807,0.38657c0.09406,0.38284 -0.38829,0.83046 -1.0774,0.99979c-0.68911,0.16933 -1.324,-0.00374 -1.41807,-0.38657z" data-paper-data="{&quot;origRot&quot;:0,&quot;origPos&quot;:null}" fill="#e3330c" stroke="none" stroke-width="0" stroke-linecap="butt"/></g><path d="M243.66435,182.15403l0.06527,-1.28409c0,0 0.25839,0.20105 0.45659,0.24768c0.25426,0.05981 0.70279,0.02505 0.70279,0.02505z" data-paper-data="{&quot;origPos&quot;:null,&quot;index&quot;:null}" fill="#ffffff" stroke="#7e7e7e" stroke-width="0.25" stroke-linecap="butt"/><path d="M240.5105,182.48736l0.06526,-1.13024c0,0 0.2584,0.0472 0.4566,0.09383c0.25426,0.05981 0.49766,0.15326 0.49766,0.15326z" data-paper-data="{&quot;origPos&quot;:null,&quot;index&quot;:null}" fill="#ffffff" stroke="#7e7e7e" stroke-width="0.25" stroke-linecap="butt"/><path d="M237.91754,182.48737l0.06527,-1.13024c0,0 0.18148,0.20104 0.37968,0.24767c0.25426,0.05981 0.57458,-0.00059 0.57458,-0.00059z" data-paper-data="{&quot;origPos&quot;:null,&quot;index&quot;:null}" fill="#ffffff" stroke="#7e7e7e" stroke-width="0.25" stroke-linecap="butt"/><path d="M227.92015,137.25c2.62835,-1.33688 7.96242,-1.34514 7.96242,-1.34514l-2.41894,-2.82878c0,0 5.24036,0.95333 6.42348,1.91041c1.06723,0.86333 2.5113,1.02123 2.5113,2.39393c0,1.22369 0.74491,2.90688 -0.20956,3.67265c-1.39665,1.12053 -3.36941,2.93604 -5.16001,2.93604c-0.95724,0 -0.66121,0.91039 -3.14929,1.13417c-2.48808,0.22378 -6.39517,-0.27575 -6.39517,-0.27575l3.33434,-2.09857l-7.66371,-0.2621c0,0 2.13678,-3.90001 4.76513,-5.23688z" data-paper-data="{&quot;origPos&quot;:null,&quot;index&quot;:null}" fill="url(#color-9)" stroke="#8a250b" stroke-width="0.5" stroke-linecap="butt"/><path d="M233.87705,151.36449c0,-1.17723 0.38651,-2.56412 1.52516,-3.84593c1.51754,-1.70833 4.86958,-3.70669 4.86958,-3.70669c1.81828,-1.16499 4.45123,-1.22257 6.28522,-0.72128c2.18571,0.59743 4.95162,1.32383 4.95162,3.58971c0,3.49424 -3.97699,5.67833 -7.21188,6.99937c-3.04064,1.24172 -5.31949,-0.13095 -8.60391,-0.13095c-1.17724,0 -1.81579,-1.00697 -1.81579,-2.18421z" data-paper-data="{&quot;origPos&quot;:null,&quot;index&quot;:null}" fill="url(#color-10)" stroke="#62871c" stroke-width="0.5" stroke-linecap="butt"/><path d="M261.95602,181.48737l0.06526,-1.28409c0,0 0.25839,0.20105 0.4566,0.24768c0.25426,0.05981 0.70279,0.02505 0.70279,0.02505z" data-paper-data="{&quot;origPos&quot;:null,&quot;index&quot;:null}" fill="#ffffff" stroke="#7e7e7e" stroke-width="0.25" stroke-linecap="butt"/><path d="M258.80218,181.82071l0.06527,-1.13025c0,0 0.25838,0.0472 0.45659,0.09383c0.25426,0.05981 0.49766,0.15326 0.49766,0.15326z" data-paper-data="{&quot;origPos&quot;:null,&quot;index&quot;:null}" fill="#ffffff" stroke="#7e7e7e" stroke-width="0.25" stroke-linecap="butt"/><path d="M248.42033,146.54347l1.94099,0.23678l-1.02474,1.57568" data-paper-data="{&quot;origPos&quot;:null,&quot;index&quot;:null,&quot;origRot&quot;:0}" fill="none" stroke="#000000" stroke-width="0.5" stroke-linecap="round"/><path d="M256.20923,181.82071l0.06527,-1.13025c0,0 0.18146,0.20105 0.37967,0.24768c0.25426,0.05981 0.57458,-0.00059 0.57458,-0.00059z" data-paper-data="{&quot;origPos&quot;:null,&quot;index&quot;:null}" fill="#ffffff" stroke="#7e7e7e" stroke-width="0.25" stroke-linecap="butt"/><path d="M253.17547,176.45903c0,-0.70097 5.26572,-3.57692 6.11539,-3.57692c0.84967,0 3.15944,0.31433 4.03846,0.92308c0.87902,0.60875 1.45482,1.95927 1.62187,2.99687c0.16704,1.03759 -0.23915,2.4604 -1.01306,3.05607c-0.68812,0.52964 -1.31075,0.42167 -2.01128,-0.09144c-0.20314,-0.1488 -1.81127,1.33608 -1.99869,1.16791c-0.33119,-0.29717 -0.32815,-0.54917 -1.08095,-0.55288c-0.7528,-0.00371 -1.37301,0.54475 -1.76881,0.53884c-0.39581,-0.00592 -0.29764,0.28729 -0.75677,-0.77003c-0.45913,-1.05733 0.32877,-2.46075 -0.64616,-2.46075c-0.66775,0 -1.50833,0.38577 -2.11632,0.10967c-0.44471,-0.20195 -0.38368,-0.85201 -0.38368,-1.34044z" data-paper-data="{&quot;origPos&quot;:null,&quot;index&quot;:null}" fill="#ffd008" stroke="#d5af06" stroke-width="0.5" stroke-linecap="butt"/><path d="M261.52161,176.22824c0,0 1.0484,1.12724 1.17786,1.99643c0.09687,0.65037 -0.38935,1.42995 -0.4409,1.51136c-0.01719,0.02714 -0.1985,0.1076 -0.1985,0.1076" data-paper-data="{&quot;origPos&quot;:null,&quot;index&quot;:null}" fill="none" stroke="#d5af06" stroke-width="0.5" stroke-linecap="round"/><path d="M258.56007,176.61286c0,0 1.0484,1.12723 1.17786,1.99642c0.09687,0.65038 -0.38935,1.42996 -0.4409,1.51137c-0.01719,0.02714 -0.1985,0.10759 -0.1985,0.10759" data-paper-data="{&quot;origPos&quot;:null,&quot;index&quot;:null}" fill="none" stroke="#d5af06" stroke-width="0.5" stroke-linecap="round"/><path d="M238.10901,164.34553v-10h16.43478v10z" data-paper-data="{&quot;origPos&quot;:null,&quot;index&quot;:null}" fill="#581325" stroke="none" stroke-width="0" stroke-linecap="butt"/><path d="M243.54984,153.23208c0,0 2.49026,-3.39774 4.20666,-4.63274c2.32989,-1.67644 6.57111,-1.86726 6.57111,-1.86726c3.74327,0 5.33334,2.8339 5.33334,6.05556c0,2.14839 -0.61523,3.62035 -2.24851,5.01605c-2.1905,1.87187 -4.31456,2.48395 -7.19593,2.48395c-2.07539,0 -3.24573,-0.08991 -5.09817,-1.02568c-1.29882,-0.6561 -3.1911,-2.65837 -3.1911,-2.65837l1.78086,-1.40821c0,0 -2.22329,0.23061 -3.49966,0.79669c-1.02478,0.45449 -2.24765,1.96028 -2.24765,1.96028l1.3018,-0.28352c0,0 0.23384,1.75395 0.69078,2.84031c0.60233,1.43205 1.24028,2.29909 2.19942,3.52123c0.96234,1.22621 1.39413,1.72961 2.90652,2.48541c1.51239,0.7558 2.27098,1.25208 4.94559,-0.51757c1.52074,-1.00619 2.4368,-1.47119 3.32657,-3.06284c0.56594,-1.01238 0.62292,-2.1654 1.40151,-3.02505c0.7411,-0.81827 1.94685,-1.20216 1.94685,-1.20216c0,0 -1.35771,4.27692 -2.52052,6.11529c-1.1366,1.79693 -2.15608,2.56633 -3.7204,4.00635c-0.54284,0.49972 -2.93827,0.87155 -3.67093,0.95875c-0.72329,0.08608 -3.22107,-0.3255 -5.57368,-1.4912c-2.35262,-1.1657 -3.78377,-2.48706 -5.43203,-3.96202c-1.64826,-1.47496 -3.31019,-3.75021 -3.72161,-4.27425c-0.9855,-1.25526 -0.84598,-4.39118 -0.1458,-5.82529c0.48414,-0.9916 1.33491,-1.5216 2.22131,-2.17882c1.27901,-0.94832 2.74081,-1.03476 4.32145,-0.84306c2.05117,0.24877 5.11222,2.01817 5.11222,2.01817z" data-paper-data="{&quot;origPos&quot;:null,&quot;index&quot;:null}" fill="url(#color-11)" stroke="#a78f6e" stroke-width="0.5" stroke-linecap="butt"/><path d="M247.58727,160.9977c1.84895,0 4.21739,3.26087 4.21739,3.26087c0,0 -2.41192,2.56522 -4.26087,2.56522c-1.66816,0 -2.78109,-0.7614 -3.98932,-1.91161c-1.11318,-1.05972 -2.36161,-3.28249 -2.36161,-3.28249c0,0 4.54546,-0.63199 6.39441,-0.63199z" data-paper-data="{&quot;origPos&quot;:null,&quot;index&quot;:null}" fill="url(#color-12)" stroke="#7d1218" stroke-width="0.5" stroke-linecap="butt"/><path d="M244.42923,161.14728l-0.19332,-2.54547l1.66035,1.04836z" data-paper-data="{&quot;origRot&quot;:0,&quot;origPos&quot;:null,&quot;index&quot;:null}" fill="url(#color-13)" stroke="#787878" stroke-width="0.4" stroke-linecap="butt"/><path d="M239.94314,145.90051c1.15835,0.627 3.24969,1.22716 3.24969,1.22716c0,0 -2.8609,0.79399 -4.62164,1.10834c-0.91671,0.16366 -2.06633,-0.01698 -2.88689,-0.45727c-0.75122,-0.40308 -1.43884,-1.80896 -1.43884,-1.80896l2.73685,-0.05264l0.1579,-2.05263c0,0 1.64457,1.409 2.80293,2.036z" data-paper-data="{&quot;origPos&quot;:null,&quot;index&quot;:null}" fill="url(#color-14)" stroke="#8a250b" stroke-width="0.5" stroke-linecap="butt"/><path d="M248.42941,143.44849c0.39891,-1.0239 0.73802,-2.28143 0.73802,-2.28143l1.41832,0.95792l1.45428,-0.91661c0,0 0.63661,0.7393 0.376,1.40107c-0.28466,0.72285 -0.91882,1.45798 -1.59049,1.84836c-1.29008,0.7498 -3.53903,1.78786 -3.53903,1.78786c0,0 0.74397,-1.77328 1.14288,-2.79718z" data-paper-data="{&quot;origPos&quot;:null,&quot;index&quot;:null,&quot;origRot&quot;:0}" fill="url(#color-15)" stroke="#8a250b" stroke-width="0.5" stroke-linecap="butt"/><path d="M238.60957,144.63655c0,0 -1.07697,-1.69149 -0.78566,-2.30205c0.26263,-0.55043 1.90288,-1.20057 1.90288,-1.20057c0.67578,-0.24952 1.7164,-0.18962 1.89522,0.29469c0.17882,0.48431 0.62192,1.58958 0.62192,1.58958l-3.63435,1.61835z" data-paper-data="{&quot;origPos&quot;:null,&quot;origRot&quot;:0,&quot;index&quot;:null}" fill="url(#color-16)" stroke="#040300" stroke-width="0.5" stroke-linecap="butt"/><path d="M255.24429,149.18108c0,0 0.21989,-0.61459 0.51343,-0.72273c0.27685,-0.10199 0.87915,-0.05711 0.87915,-0.05711" data-paper-data="{&quot;origPos&quot;:null,&quot;index&quot;:null}" fill="none" stroke="#000000" stroke-width="0.5" stroke-linecap="round"/><path d="M252.00292,148.884c0,0 0.6023,-0.04488 0.87914,0.05711c0.29354,0.10814 0.51343,0.72273 0.51343,0.72273" data-paper-data="{&quot;origPos&quot;:null,&quot;index&quot;:null}" fill="none" stroke="#000000" stroke-width="0.5" stroke-linecap="round"/><path d="M226.75216,163.04931c2.07146,-1.38668 -1.23333,3.01167 -1.23333,6.23333c0,2.8882 0.23337,8.06961 0.23337,8.06961l-3.27147,-0.03628c0,0 -1.20952,-2.75453 -1.20952,-5.97619c0,-3.22165 3.40949,-6.90379 5.48095,-8.29047z" data-paper-data="{&quot;origPos&quot;:null,&quot;index&quot;:null}" fill="url(#color-17)" stroke="#0a4f23" stroke-width="0.5" stroke-linecap="butt"/><path d="M226.16064,177.42865c0,0 -0.5388,-5.73953 -0.10396,-9.07332c0.23176,-1.77683 1.7585,-5.38123 1.7585,-5.38123c0,0 1.01472,-1.03852 1.46541,-1.02853c0.48295,0.01069 0.90578,0.24262 0.90578,0.24262l-0.04603,0.80274l0.56486,1.51939c0,0 -1.61777,0.96419 -2.19547,4.54378c-0.5777,3.57959 0.28,8.31637 0.28,8.31637z" data-paper-data="{&quot;origPos&quot;:null,&quot;index&quot;:null}" fill="url(#color-18)" stroke="#7e7e7e" stroke-width="0.5" stroke-linecap="butt"/><path d="M240.47981,173.3842c0,0 -2.00682,0.53631 -3.21744,1.34731c-0.77193,0.51712 -1.44293,0.67521 -2.08636,1.34549c-0.47558,0.49543 -0.86446,1.54278 -0.86446,1.54278l-2.89423,-0.17308c0,0 0.03312,-2.86665 1.08029,-4.14925c1.63374,-2.00104 4.7226,-2.43248 4.7226,-2.43248c0,0 1.34954,-0.10041 1.96714,0.37691c0.65451,0.50584 1.29248,2.14231 1.29248,2.14231z" data-paper-data="{&quot;origPos&quot;:null,&quot;index&quot;:null}" fill="url(#color-19)" stroke="#040300" stroke-width="0.5" stroke-linecap="butt"/><path d="M234.88379,177.12569c0,-0.70097 5.26572,-3.57692 6.11539,-3.57692c0.84967,0 3.15944,0.31433 4.03846,0.92308c0.87902,0.60875 1.45482,1.95927 1.62187,2.99687c0.16704,1.03759 -0.23915,2.4604 -1.01306,3.05607c-0.68812,0.52964 -1.31075,0.42167 -2.01128,-0.09144c-0.20314,-0.14879 -1.81127,1.33609 -1.99869,1.16792c-0.33119,-0.29717 -0.32816,-0.54917 -1.08096,-0.55288c-0.75279,-0.00371 -1.373,0.54475 -1.7688,0.53884c-0.3958,-0.00592 -0.29764,0.28729 -0.75677,-0.77003c-0.45913,-1.05733 0.32878,-2.46075 -0.64616,-2.46075c-0.66774,0 -1.50833,0.38577 -2.11632,0.10967c-0.44472,-0.20195 -0.38368,-0.85201 -0.38368,-1.34044z" data-paper-data="{&quot;origPos&quot;:null,&quot;index&quot;:null}" fill="url(#color-20)" stroke="#d5af06" stroke-width="0.5" stroke-linecap="butt"/><path d="M243.22996,176.89491c0,0 1.0484,1.12723 1.17786,1.99642c0.09686,0.65038 -0.38935,1.42996 -0.4409,1.51137c-0.01719,0.02714 -0.1985,0.10759 -0.1985,0.10759" data-paper-data="{&quot;origPos&quot;:null,&quot;index&quot;:null}" fill="none" stroke="#d5af06" stroke-width="0.5" stroke-linecap="round"/><path d="M240.2684,177.27952c0,0 1.04841,1.12723 1.17787,1.99642c0.09686,0.65038 -0.38935,1.42996 -0.4409,1.51137c-0.01718,0.02714 -0.1985,0.1076 -0.1985,0.1076" data-paper-data="{&quot;origPos&quot;:null,&quot;index&quot;:null}" fill="none" stroke="#d5af06" stroke-width="0.5" stroke-linecap="round"/><path d="M228.88884,170.29144c0,0 0.05095,-1.81542 0.40402,-2.8083c0.35307,-0.99289 1.41291,-2.50105 1.41291,-2.50105c1.58239,-0.80461 3.86216,2.35389 4.82769,4.25276c0.33447,0.65778 0.56365,1.33605 0.56365,1.33605c0,0 -1.76126,0.79 -2.44486,1.13759c-0.92572,0.4707 -2.30894,2.8578 -2.30894,2.8578l-2.45447,-4.27484z" data-paper-data="{&quot;origPos&quot;:null,&quot;origRot&quot;:0,&quot;index&quot;:null}" fill="url(#color-21)" stroke="#d5af06" stroke-width="0.5" stroke-linecap="butt"/><path d="M223.90198,162.46296c0,0 -1.07372,0.91113 -1.52624,1.43164c-0.15084,0.17351 -1.21409,1.72045 -1.21409,1.72045l-0.21753,-3.36525z" data-paper-data="{&quot;origPos&quot;:null,&quot;origRot&quot;:0,&quot;index&quot;:null}" fill="#f6dfb3" stroke="#cbb894" stroke-width="0.5" stroke-linecap="butt"/><path d="M224.66825,162.47197c1.3054,0 1.36363,0.5957 1.36363,0.5957l-3.99521,4.75359c0,0 -0.57416,-0.47087 -0.57416,-1.70096c0,-1.23009 3.20574,-3.64833 3.20574,-3.64833z" data-paper-data="{&quot;origPos&quot;:null,&quot;index&quot;:null}" fill="#7d4d41" stroke="#452a24" stroke-width="0.5" stroke-linecap="butt"/><path d="M219.32552,170.04009c0,0 -0.33314,1.36823 -0.3933,2.05532c-0.02005,0.22903 0.07661,1.96264 0.07661,1.96264l-2.2016,-2.30901z" data-paper-data="{&quot;origPos&quot;:null,&quot;origRot&quot;:0,&quot;index&quot;:null}" fill="#f6dfb3" stroke="#cbb894" stroke-width="0.5" stroke-linecap="butt"/><path d="M219.5016,174.43282c-0.72301,-0.99518 0.44917,-4.83584 0.44917,-4.83584c1.05611,-0.76728 1.45335,-0.31957 1.45335,-0.31957c0,0 -0.40143,1.93408 -0.38406,3.17199c0.01603,1.14224 0.46964,2.92684 0.46964,2.92684c0,0 -1.26509,0.05177 -1.9881,-0.94341z" data-paper-data="{&quot;origPos&quot;:null,&quot;origRot&quot;:0,&quot;index&quot;:null}" fill="#7d4d41" stroke="#452a24" stroke-width="0.5" stroke-linecap="butt"/><path d="M258.77147,172.71753c0,0 -2.00683,0.53631 -3.21745,1.34731c-0.77192,0.51711 -1.44292,0.67521 -2.08635,1.34549c-0.47558,0.49543 -0.86446,1.66778 -0.86446,1.66778l-2.89423,0.20192c0,0 0.0331,-3.36665 1.08028,-4.64925c1.63374,-2.00104 4.7226,-2.43248 4.7226,-2.43248c0,0 1.34954,-0.10041 1.96714,0.37691c0.65451,0.50584 1.29248,2.14231 1.29248,2.14231z" data-paper-data="{&quot;origPos&quot;:null,&quot;index&quot;:null}" fill="url(#color-22)" stroke="#040300" stroke-width="0.5" stroke-linecap="butt"/><path d="M243.91361,150.42928l-1.76471,-0.64706l1.41176,-1.35294" data-paper-data="{&quot;origPos&quot;:null,&quot;index&quot;:null}" fill="none" stroke="#000000" stroke-width="0.5" stroke-linecap="round"/></g></g></svg>