<svg version="1.1" xmlns="http://www.w3.org/2000/svg" xmlns:xlink="http://www.w3.org/1999/xlink" width="43.19608" height="37.23462" viewBox="0,0,43.19608,37.23462"><defs><linearGradient x1="240" y1="162.26536" x2="240" y2="197.73464" gradientUnits="userSpaceOnUse" id="color-1"><stop offset="0" stop-color="#ff3333"/><stop offset="1" stop-color="#c72828"/></linearGradient></defs><g transform="translate(-218.38659,-161.54754)"><g data-paper-data="{&quot;isPaintingLayer&quot;:true}" fill-rule="nonzero" stroke-linejoin="miter" stroke-miterlimit="10" stroke-dasharray="" stroke-dashoffset="0" style="mix-blend-mode: normal"><path d="M240.85067,197.73464l-18.49038,-17.67081c0,0 -4.37739,-6.86763 -2.9304,-10.64538c1.44699,-3.77775 6.48973,-7.20234 10.99803,-6.76696c4.50831,0.43537 9.79041,10.27393 9.79041,10.27393c0,0 3.50337,-10.14463 9.95699,-10.63c6.45363,-0.48537 10.15807,5.00887 10.65735,9.07964c0.4534,3.69673 -4.26072,10.71626 -4.26072,10.71626z" fill="url(#color-1)" stroke="#a02020" stroke-width="1.5" stroke-linecap="butt"/><path d="M235.08794,180.39882l-0.03725,-5.36446" fill="none" stroke="#2b0909" stroke-width="3" stroke-linecap="round"/><path d="M245.19787,180.33005l-0.03724,-5.36446" fill="none" stroke="#2b0909" stroke-width="3" stroke-linecap="round"/><path d="M235.28997,175.0229c0,0.36084 -0.27713,0.65337 -0.61898,0.65337c-0.34185,0 -0.61898,-0.29253 -0.61898,-0.65337c0,-0.36084 0.27713,-0.65336 0.61898,-0.65336c0.34185,0 0.61898,0.29252 0.61898,0.65336z" fill="#ffffff" stroke="none" stroke-width="0" stroke-linecap="butt"/><path d="M245.33113,175.0229c0,0.36084 -0.27713,0.65336 -0.61898,0.65336c-0.34185,0 -0.61897,-0.29252 -0.61897,-0.65336c0,-0.36084 0.27712,-0.65336 0.61897,-0.65336c0.34185,0 0.61898,0.29252 0.61898,0.65336z" fill="#ffffff" stroke="none" stroke-width="0" stroke-linecap="butt"/></g></g></svg>