<svg version="1.1" xmlns="http://www.w3.org/2000/svg" xmlns:xlink="http://www.w3.org/1999/xlink" width="448.65479" height="228.8913" viewBox="0,0,448.65479,228.8913"><g transform="translate(-57.90312,-168.2962)"><g data-paper-data="{&quot;isPaintingLayer&quot;:true}" fill-rule="nonzero" stroke-linecap="butt" stroke-linejoin="miter" stroke-miterlimit="10" stroke-dasharray="" stroke-dashoffset="0" style="mix-blend-mode: normal"><path d="M59.44896,395.6875v-127.1875h135.60894v127.1875z" fill="#6b6b6b" stroke="#211502" stroke-width="3"/><path d="M96.47165,313.0424l4.3713,5.76313l-13.311,2.49491l-4.37129,-5.76313z" data-paper-data="{&quot;index&quot;:null}" fill="#3c3c3c" stroke="none" stroke-width="0"/><path d="M176.07367,291.00748l-7.7057,7.29805l-13.84748,-8.36469l7.70571,-7.29805z" data-paper-data="{&quot;index&quot;:null}" fill="#3c3c3c" stroke="none" stroke-width="0"/><path d="M59.40312,266.7962v-13h32.2622v13z" fill="#444444" stroke="#000000" stroke-width="3"/><path d="M93.62062,266.7962v-13h32.2622v13z" fill="#444444" stroke="#000000" stroke-width="3"/><path d="M128.32695,266.7962v-13h32.2622v13z" fill="#444444" stroke="#000000" stroke-width="3"/><path d="M163.03323,266.7962v-13h32.2622v13z" fill="#444444" stroke="#000000" stroke-width="3"/><path d="M165.07367,342.00748l-7.7057,7.29805l-13.84748,-8.36469l7.70571,-7.29805z" data-paper-data="{&quot;index&quot;:null}" fill="#3c3c3c" stroke="none" stroke-width="0"/><path d="M196.44897,394.6875v-165.1875h135.60894v165.1875z" fill="#6b6b6b" stroke="#211502" stroke-width="3"/><path d="M236.47165,267.0424l4.3713,5.76313l-13.311,2.49491l-4.37129,-5.76313z" data-paper-data="{&quot;index&quot;:null}" fill="#3c3c3c" stroke="none" stroke-width="0"/><path d="M315.07367,334.00748l-7.7057,7.29805l-13.84748,-8.36469l7.70571,-7.29805z" data-paper-data="{&quot;index&quot;:null}" fill="#3c3c3c" stroke="none" stroke-width="0"/><path d="M196.40313,227.7962v-13h32.2622v13z" fill="#444444" stroke="#000000" stroke-width="3"/><path d="M230.62063,227.7962v-13h32.2622v13z" fill="#444444" stroke="#000000" stroke-width="3"/><path d="M265.32694,227.7962v-13h32.2622v13z" fill="#444444" stroke="#000000" stroke-width="3"/><path d="M300.03324,227.7962v-13h32.2622v13z" fill="#444444" stroke="#000000" stroke-width="3"/><path d="M271.07367,306.00748l-7.7057,7.29805l-13.84748,-8.36469l7.70571,-7.29805z" data-paper-data="{&quot;index&quot;:null}" fill="#3c3c3c" stroke="none" stroke-width="0"/><path d="M334.44897,392.6875v-208.1875h170.60894v208.1875z" fill="#6b6b6b" stroke="#211502" stroke-width="3"/><path d="M378.47166,246.0424l4.3713,5.76313l-13.311,2.49491l-4.37129,-5.76313z" data-paper-data="{&quot;index&quot;:null}" fill="#3c3c3c" stroke="none" stroke-width="0"/><path d="M412.07367,210.00748l-7.7057,7.29805l-13.84748,-8.36469l7.70571,-7.29805z" data-paper-data="{&quot;index&quot;:null}" fill="#3c3c3c" stroke="none" stroke-width="0"/><path d="M334.40313,182.7962v-13h32.2622v13z" fill="#444444" stroke="#000000" stroke-width="3"/><path d="M368.62062,182.7962v-13h32.2622v13z" fill="#444444" stroke="#000000" stroke-width="3"/><path d="M403.32695,182.7962v-13h32.2622v13z" fill="#444444" stroke="#000000" stroke-width="3"/><path d="M438.03324,182.7962v-13h32.2622v13z" fill="#444444" stroke="#000000" stroke-width="3"/><path d="M440.07368,258.00748l-7.7057,7.29805l-13.84748,-8.36469l7.70571,-7.29805z" data-paper-data="{&quot;index&quot;:null}" fill="#3c3c3c" stroke="none" stroke-width="0"/><path d="M404.07368,307.00748l-7.7057,7.29805l-13.84748,-8.36469l7.70571,-7.29805z" data-paper-data="{&quot;index&quot;:null}" fill="#3c3c3c" stroke="none" stroke-width="0"/><path d="M472.40314,182.7962v-13h32.2622v13z" fill="#444444" stroke="#000000" stroke-width="3"/></g></g></svg>