<svg version="1.1" xmlns="http://www.w3.org/2000/svg" xmlns:xlink="http://www.w3.org/1999/xlink" width="177.62734" height="146.10158" viewBox="0,0,177.62734,146.10158"><g transform="translate(-92.95313,-157.21092)"><g data-paper-data="{&quot;isPaintingLayer&quot;:true}" fill-rule="nonzero" stroke-linejoin="miter" stroke-miterlimit="10" stroke-dasharray="" stroke-dashoffset="0" style="mix-blend-mode: normal"><path d="" data-paper-data="{&quot;origPos&quot;:null}" fill="none" stroke="#5c4a25" stroke-width="7.5" stroke-linecap="round"/><path d="M257.60812,164.17223c0,0 -0.22164,8.85571 0.27956,13.21631c0.43227,3.7608 2.55154,11.41515 2.55154,11.41515c0,0 -5.43599,-5.76974 -8.76621,-8.28366c-3.30373,-2.49391 -11.13632,-6.74031 -11.13632,-6.74031c0,0 8.50081,12.45959 13.37112,17.81622c5.13072,5.64305 16.67267,15.2276 16.67267,15.2276c0,0 -2.84419,-14.36266 -4.86717,-21.01394c-2.27214,-7.47046 -8.10518,-21.63737 -8.10518,-21.63737z" fill="#90ff96" stroke="none" stroke-width="0" stroke-linecap="butt"/><path d="M242.03497,157.21092c0,0 -0.29141,11.64361 0.36758,17.377c0.56834,4.94475 3.3548,15.00881 3.3548,15.00881c0,0 -7.14732,-7.58614 -11.52596,-10.89148c-4.3438,-3.27903 -14.6422,-8.86225 -14.6422,-8.86225c0,0 11.17699,16.38205 17.58054,23.42503c6.74594,7.41957 21.92148,20.02146 21.92148,20.02146c0,0 -3.73958,-18.88423 -6.39943,-27.62943c-2.98743,-9.82227 -10.65682,-28.44915 -10.65682,-28.44915z" fill="#80ff87" stroke="none" stroke-width="0" stroke-linecap="butt"/><path d="M92.95313,243.31251c0,0 6.25258,10.48725 8.59828,16.06382c2.02304,4.80951 4.65172,15.43618 4.65172,15.43618c0,0 2.62918,-10.60502 4.92993,-15.87582c2.28244,-5.22886 8.82007,-15.62418 8.82007,-15.62418c0,0 -1.78825,20.71235 -4.01722,30.43876c-2.34815,10.24648 -9.73278,29.56124 -9.73278,29.56124c0,0 -6.29268,-19.17442 -8.35896,-28.53115c-2.32076,-10.50912 -4.89104,-31.46885 -4.89104,-31.46885z" fill="#90ff96" stroke="none" stroke-width="0" stroke-linecap="butt"/><path d="M106.95313,224.42362c0,0 8.22098,13.78879 11.30514,21.12095c2.65993,6.32361 6.11615,20.29572 6.11615,20.29572c0,0 3.45689,-13.94364 6.48194,-20.87377c3.00099,-6.87499 11.59677,-20.5429 11.59677,-20.5429c0,0 -2.35121,27.2329 -5.2819,40.02134c-3.08738,13.47222 -12.79681,38.86755 -12.79681,38.86755c0,0 -8.27371,-25.2108 -10.99048,-37.51317c-3.05138,-13.81755 -6.43081,-41.37572 -6.43081,-41.37572z" fill="#80ff87" stroke="none" stroke-width="0" stroke-linecap="butt"/></g></g></svg>