<svg version="1.1" xmlns="http://www.w3.org/2000/svg" xmlns:xlink="http://www.w3.org/1999/xlink" width="483.0015" height="71.50003" viewBox="0,0,483.0015,71.50003"><defs><linearGradient x1="237.5015" y1="295.00005" x2="237.5015" y2="334.29145" gradientUnits="userSpaceOnUse" id="color-1"><stop offset="0" stop-color="#17ff22"/><stop offset="1" stop-color="#02d10c"/></linearGradient></defs><g transform="translate(4,-293.50006)"><g data-paper-data="{&quot;isPaintingLayer&quot;:true}" fill-rule="nonzero" stroke-linejoin="miter" stroke-miterlimit="10" stroke-dasharray="" stroke-dashoffset="0" style="mix-blend-mode: normal"><path d="M-4,365.00009v-47h480.1v47z" fill="#98763d" stroke="none" stroke-width="0" stroke-linecap="butt"/><path d="M231.17221,336.11977l13.44729,-0.36671l8.55152,5.47299l-12.92175,4.42356l-9.55,-2.24411z" data-paper-data="{&quot;index&quot;:null}" fill="#774b00" stroke="#703100" stroke-width="2" stroke-linecap="round"/><path d="M48.48361,347.80492l-15.69895,-2.68858l1.36512,-7.05753l23.18219,-1.23195l6.16802,4.25661z" data-paper-data="{&quot;index&quot;:null}" fill="#774b00" stroke="#703100" stroke-width="2" stroke-linecap="round"/><path d="M129.76102,350.40747l-0.98032,-5.76051l15.74529,-0.9763l12.62052,7.45245l-6.48829,2.91164z" data-paper-data="{&quot;index&quot;:null}" fill="#774b00" stroke="#703100" stroke-width="2" stroke-linecap="round"/><path d="M419.98471,340.64027l17.9078,-1.89717l13.20366,6.44201l-15.91256,7.27995l-13.51465,-2.00971z" data-paper-data="{&quot;index&quot;:null}" fill="#774b00" stroke="#703100" stroke-width="2" stroke-linecap="round"/><path d="M328.92176,345.217l12.41613,-1.31538l9.15458,4.46648l-11.03276,5.04745l-9.3702,-1.39341z" data-paper-data="{&quot;index&quot;:null}" fill="#774b00" stroke="#703100" stroke-width="2" stroke-linecap="round"/><path d="M-2.4985,321.89333v-26.89326h480v26.89326l-26.7807,1.75726l-43.60514,10.64086l-42.40549,-11.9986l-40.36564,10.37815l-40.3899,-10.67969l-43.03124,8.22474l-40.05345,-9.40523l-57.05211,12.49333l-42.3364,-13.2091l-55.75184,10.7627z" fill="url(#color-1)" stroke="#08a310" stroke-width="3" stroke-linecap="butt"/></g></g></svg>