<svg version="1.1" xmlns="http://www.w3.org/2000/svg" xmlns:xlink="http://www.w3.org/1999/xlink" width="413.73198" height="204.0724" viewBox="0,0,413.73198,204.0724"><g transform="translate(-57.41939,-61.31359)"><g data-paper-data="{&quot;isPaintingLayer&quot;:true}" fill-rule="nonzero" stroke-linecap="butt" stroke-linejoin="miter" stroke-miterlimit="10" stroke-dasharray="" stroke-dashoffset="0" style="mix-blend-mode: normal"><path d="M204.2075,260.4202l-39.43746,-52.11194l-1.98686,-50.88883l28.15845,14.51926l23.71336,83.92662z" data-paper-data="{&quot;index&quot;:null}" fill="#dada1f" stroke="#f5ff42" stroke-width="3"/><path d="M180.65265,206.5981l-18.04577,-48.49952l27.49209,13.91241z" data-paper-data="{&quot;index&quot;:null}" fill="#ffff66" stroke="none" stroke-width="0"/><path d="M203.69462,258.78877l-23.1847,-52.27975l32.68232,48.0868z" data-paper-data="{&quot;index&quot;:null}" fill="#9e9e00" stroke="none" stroke-width="0"/><path d="M164.95335,207.36197l15.49094,-1.0252l-3.20241,17.28791z" data-paper-data="{&quot;index&quot;:null}" fill="#9e9e00" stroke="none" stroke-width="0"/><path d="M394.802,171.29774l13.25704,-73.91269l48.42763,-33.69759l12.98645,38.68303l-60.01467,77.10524z" data-paper-data="{&quot;index&quot;:null}" fill="#ff4b4b" stroke="#ff0000" stroke-width="3"/><path d="M425.08349,113.79374l30.46302,-49.13233l12.93964,37.60413z" data-paper-data="{&quot;index&quot;:null}" fill="#ff8787" stroke="none" stroke-width="0"/><path d="M395.82134,170.48212l29.21165,-56.89406l-15.83611,64.29613z" data-paper-data="{&quot;index&quot;:null}" fill="#8f2525" stroke="none" stroke-width="0"/><path d="M409.07669,97.7284l16.06298,15.68354l-20.21843,7.36276z" data-paper-data="{&quot;index&quot;:null}" fill="#8f2525" stroke="none" stroke-width="0"/><path d="M75.44063,261.49156l-16.3242,-25.33649l5.05113,-11.52897l13.95483,11.68184l2.04569,23.07301z" fill="#426dff" stroke="#003cff" stroke-width="3"/><path d="M75.39871,261.09105l-3.10189,-20.1891l7.41451,18.28175z" fill="#3559ce" stroke="none" stroke-width="0"/><path d="M59.25662,236.2312l5.00716,-11.19876l8.01189,15.93132z" fill="#86a2ff" stroke="none" stroke-width="0"/><path d="M78.27894,243.66169l-6.01006,-2.81678l5.36549,-4.37808z" fill="#3c64e7" stroke="none" stroke-width="0"/><path d="M77.11643,259.67654l3.69766,-41.70532l25.22389,-21.11536l9.13011,20.83904l-29.5066,45.79666z" data-paper-data="{&quot;index&quot;:null}" fill="#426dff" stroke="#003cff" stroke-width="3"/><path d="M77.94203,259.32001l13.402,-33.04495l-5.60677,36.49255z" data-paper-data="{&quot;index&quot;:null}" fill="#3559ce" stroke="none" stroke-width="0"/><path d="M91.38227,226.38678l14.4818,-28.79646l9.05062,20.24218z" data-paper-data="{&quot;index&quot;:null}" fill="#86a2ff" stroke="none" stroke-width="0"/><path d="M81.69621,218.25841l9.69833,7.91354l-10.86341,5.09144z" data-paper-data="{&quot;index&quot;:null}" fill="#3c64e7" stroke="none" stroke-width="0"/></g></g></svg>