<svg version="1.1" xmlns="http://www.w3.org/2000/svg" xmlns:xlink="http://www.w3.org/1999/xlink" width="123.55664" height="109" viewBox="0,0,123.55664,109"><defs><linearGradient x1="240.26465" y1="126.5" x2="240.26465" y2="231.5" gradientUnits="userSpaceOnUse" id="color-1"><stop offset="0" stop-color="#f0ffff"/><stop offset="1" stop-color="#dddddd"/></linearGradient><linearGradient x1="202.81005" y1="168.5408" x2="202.81005" y2="190.60526" gradientUnits="userSpaceOnUse" id="color-2"><stop offset="0" stop-color="#f0ffff"/><stop offset="1" stop-color="#dddddd"/></linearGradient><linearGradient x1="220.90936" y1="185.85542" x2="229.19502" y2="185.85542" gradientUnits="userSpaceOnUse" id="color-3"><stop offset="0" stop-color="#e6e9e9"/><stop offset="1" stop-color="#e5ebeb"/></linearGradient></defs><g transform="translate(-178.27167,-125.5)"><g data-paper-data="{&quot;isPaintingLayer&quot;:true}" fill-rule="nonzero" stroke-linejoin="miter" stroke-miterlimit="10" stroke-dasharray="" stroke-dashoffset="0" style="mix-blend-mode: normal"><path d="M249.45923,126.5c28.37037,0 51.36909,23.50505 51.36909,52.5c0,28.99495 -22.99872,54.5 -51.36909,54.5c-24.59992,0 -62.60028,-28.55957 -69.57474,-48.46188c-2.32482,-6.6341 18.20565,1.00863 18.20565,-6.03812c0,-28.99495 22.99872,-52.5 51.36909,-52.5z" data-paper-data="{&quot;index&quot;:null}" fill="url(#color-1)" stroke="#6d6d6d" stroke-width="2" stroke-linecap="butt"/><path d="M247.43651,163.71536c1.79493,0 3.25,3.58172 3.25,8c0,4.41828 -1.45507,8 -3.25,8c-1.79492,0 -3.25,-3.58172 -3.25,-8c0,-4.41828 1.45507,-8 3.25,-8z" data-paper-data="{&quot;origPos&quot;:null,&quot;index&quot;:null}" fill="#000000" stroke="#000000" stroke-width="2" stroke-linecap="butt"/><path d="M260.9503,223.0487c-15.33708,0 -21.75359,-29.88657 -21.75359,-29.88657l43.83709,0.85629c0,0 -6.28501,29.03027 -22.0835,29.03027z" data-paper-data="{&quot;origPos&quot;:null}" fill="#000000" stroke="#6d6d6d" stroke-width="2" stroke-linecap="butt"/><path d="M261.181,209.04869c6.37069,0 11.53516,2.68629 11.53516,6c0,3.31371 -5.16446,8 -11.53516,8c-6.37069,0 -11.53516,-4.68629 -11.53516,-8c0,-3.31371 5.16446,-6 11.53516,-6z" data-paper-data="{&quot;origPos&quot;:null}" fill="#ff007b" stroke="#6d6d6d" stroke-width="2" stroke-linecap="butt"/><path d="M270.87053,194.0487l10.0799,0.12534c0,0 -0.29301,1.30249 -0.66069,2.00835c-0.86593,1.66239 -4.60796,7.86631 -4.60796,7.86631z" fill="#ffffff" stroke="#000000" stroke-width="2" stroke-linecap="butt"/><path d="M241.1199,193.25703l10.37157,0.34858l-5.12028,8.94308c0,0 -3.98053,-6.30787 -4.79193,-7.83317c-0.33478,-0.62933 -0.45936,-1.45849 -0.45936,-1.45849z" data-paper-data="{&quot;origPos&quot;:null}" fill="#ffffff" stroke="#000000" stroke-width="2" stroke-linecap="butt"/><path d="M259.79677,193.54869l11.99657,0.30299l-5.85198,13.03035z" data-paper-data="{&quot;origPos&quot;:null}" fill="#ffffff" stroke="#000000" stroke-width="1.5" stroke-linecap="butt"/><path d="M249.93442,193.38203l10.38943,0.03137l-5.48613,13.96863z" data-paper-data="{&quot;origPos&quot;:null}" fill="#ffffff" stroke="#000000" stroke-width="1.5" stroke-linecap="butt"/><path d="M260.87829,207.15083c7.15363,0 13.54155,4.73503 13.54155,5.26357c0,0.3955 -1.12357,2.07434 -1.47617,1.97226c-1.05781,-0.30623 -2.5338,-3.88629 -11.77101,-4.20529c-8.25108,-0.28495 -8.55872,2.83839 -11.41161,3.6393c-0.95096,0.26697 -1.83556,-0.34175 -1.83556,-1.40627c0,0 5.79917,-5.26357 12.9528,-5.26357z" fill="#000000" stroke="none" stroke-width="0" stroke-linecap="butt"/><g data-paper-data="{&quot;origPos&quot;:null}" fill="none" stroke="#000000" stroke-width="2" stroke-linecap="round"><path d="M261.81166,150.08333c0,0 -0.74103,13.36568 -13.5,14c-15.08578,0.75 -18.75,-10.41666 -18.75,-10.41666" data-paper-data="{&quot;origPos&quot;:null}"/><path d="M291.72772,155c0,0 -1.33089,9.83333 -16.41667,9.08333c-12.75897,-0.63432 -13.5,-14 -13.5,-14" data-paper-data="{&quot;origPos&quot;:null,&quot;index&quot;:null}"/></g><path d="M273.93651,163.71536c1.79493,0 3.25,3.58172 3.25,8c0,4.41828 -1.45507,8 -3.25,8c-1.79493,0 -3.25,-3.58172 -3.25,-8c0,-4.41828 1.45507,-8 3.25,-8z" data-paper-data="{&quot;origPos&quot;:null}" fill="#000000" stroke="#000000" stroke-width="2" stroke-linecap="butt"/><path d="M201.68167,170.39137c0.91679,0.30197 14.83453,2.83514 21.06676,7.87051c5.49245,4.43767 3.60133,11.41427 1.5038,12.13132c-2.44448,0.83566 -11.7119,-0.86094 -20.58282,-3.99006c-10.23623,-3.61072 -13.10112,-3.81784 -20.05501,-8.79735c-6.95389,-4.97951 -3.81797,-4.53795 -2.37561,-7.26467c1.44236,-2.72672 14.02116,-2.06495 20.44289,0.05025z" data-paper-data="{&quot;origPos&quot;:null,&quot;index&quot;:null,&quot;origRot&quot;:0}" fill="url(#color-2)" stroke="#6d6d6d" stroke-width="2" stroke-linecap="butt"/><path d="M249.59323,167.16667c0,0.64433 -0.29847,1.16667 -0.66666,1.16667c-0.36819,0 -0.66666,-0.52234 -0.66666,-1.16667c0,-0.64433 0.29847,-1.16666 0.66666,-1.16666c0.36819,0 0.66666,0.52233 0.66666,1.16666z" fill="#ffffff" stroke="none" stroke-width="0" stroke-linecap="butt"/><path d="M276.59323,167.16667c0,0.64433 -0.29847,1.16667 -0.66667,1.16667c-0.36819,0 -0.66667,-0.52234 -0.66667,-1.16667c0,-0.64433 0.29847,-1.16666 0.66667,-1.16666c0.36819,0 0.66667,0.52233 0.66667,1.16666z" fill="#ffffff" stroke="none" stroke-width="0" stroke-linecap="butt"/><path d="M227.88337,187.0248c0,0 -0.90171,2.40294 -1.68758,3.37409c-0.70782,0.87471 -2.81802,1.89382 -2.81802,1.89382l-2.33194,-0.34447c0,0 -0.32459,-5.21741 0.34078,-8.89322c0.42912,-2.37065 1.49182,-6.2279 1.49182,-6.2279l3.21377,2.05999c0,0 0.85514,2.52217 1.14472,3.83778c0.30651,1.39257 0.64644,4.29991 0.64644,4.29991z" fill="url(#color-3)" stroke="none" stroke-width="0" stroke-linecap="butt"/></g></g></svg>