<svg version="1.1" xmlns="http://www.w3.org/2000/svg" xmlns:xlink="http://www.w3.org/1999/xlink" width="484.00002" height="85.7038" viewBox="0,0,484.00002,85.7038"><g transform="translate(-0.90312,-307.2962)"><g data-paper-data="{&quot;isPaintingLayer&quot;:true}" fill-rule="nonzero" stroke-linejoin="miter" stroke-miterlimit="10" stroke-dasharray="" stroke-dashoffset="0" style="mix-blend-mode: normal"><path d="M2.44896,391.5v-68h480.60894v68z" fill="#6b6b6b" stroke="#211502" stroke-width="3" stroke-linecap="butt"/><path d="M71.47163,370.0424l4.3713,5.76313l-13.311,2.49491l-4.37129,-5.76313z" data-paper-data="{&quot;index&quot;:null}" fill="#3c3c3c" stroke="none" stroke-width="0" stroke-linecap="butt"/><path d="M397.18459,370.50417l-6.9389,5.90381l-13.10682,0.49198l-6.16792,-7.87174l7.7099,-6.39579l16.42802,3.21682z" data-paper-data="{&quot;index&quot;:null}" fill="#3c3c3c" stroke="none" stroke-width="0" stroke-linecap="round"/><path d="M161.07365,346.00748l-7.7057,7.29805l-13.84748,-8.36469l7.70571,-7.29805z" data-paper-data="{&quot;index&quot;:null}" fill="#3c3c3c" stroke="none" stroke-width="0" stroke-linecap="butt"/><path d="M251.13443,375.54256l-10.38455,6.53209l-11.60169,-10.5221l10.38457,-6.53209z" data-paper-data="{&quot;index&quot;:null}" fill="#3c3c3c" stroke="none" stroke-width="0" stroke-linecap="butt"/><path d="M302.02438,341.16229l11.00577,1.05024l-4.74549,9.33988l-11.00578,-1.05025z" data-paper-data="{&quot;index&quot;:null}" fill="#3c3c3c" stroke="none" stroke-width="0" stroke-linecap="butt"/><path d="M2.40312,321.7962v-13h32.2622v13z" fill="#444444" stroke="#000000" stroke-width="3" stroke-linecap="butt"/><path d="M36.62061,321.7962v-13h32.2622v13z" fill="#444444" stroke="#000000" stroke-width="3" stroke-linecap="butt"/><path d="M71.32692,321.7962v-13h32.2622v13z" fill="#444444" stroke="#000000" stroke-width="3" stroke-linecap="butt"/><path d="M106.03322,321.7962v-13h32.2622v13z" fill="#444444" stroke="#000000" stroke-width="3" stroke-linecap="butt"/><path d="M140.25069,321.7962v-13h32.2622v13z" fill="#444444" stroke="#000000" stroke-width="3" stroke-linecap="butt"/><path d="M174.95699,321.7962v-13h32.2622v13z" fill="#444444" stroke="#000000" stroke-width="3" stroke-linecap="butt"/><path d="M209.6633,321.7962v-13h32.2622v13z" fill="#444444" stroke="#000000" stroke-width="3" stroke-linecap="butt"/><path d="M243.88078,321.7962v-13h32.2622v13z" fill="#444444" stroke="#000000" stroke-width="3" stroke-linecap="butt"/><path d="M278.58709,321.7962v-13h32.2622v13z" fill="#444444" stroke="#000000" stroke-width="3" stroke-linecap="butt"/><path d="M313.29338,321.7962v-13h32.2622v13z" fill="#444444" stroke="#000000" stroke-width="3" stroke-linecap="butt"/><path d="M347.51087,321.7962v-13h32.2622v13z" fill="#444444" stroke="#000000" stroke-width="3" stroke-linecap="butt"/><path d="M382.21716,321.7962v-13h32.2622v13z" fill="#444444" stroke="#000000" stroke-width="3" stroke-linecap="butt"/><path d="M416.92347,321.7962v-13h32.2622v13z" fill="#444444" stroke="#000000" stroke-width="3" stroke-linecap="butt"/><path d="M451.14095,321.7962v-13h32.2622v13z" fill="#444444" stroke="#000000" stroke-width="3" stroke-linecap="butt"/></g></g></svg>