<svg version="1.1" xmlns="http://www.w3.org/2000/svg" xmlns:xlink="http://www.w3.org/1999/xlink" width="49.08924" height="56.93144" viewBox="0,0,49.08924,56.93144"><defs><linearGradient x1="240" y1="156.35294" x2="240" y2="203.64706" gradientUnits="userSpaceOnUse" id="color-1"><stop offset="0" stop-color="#ffffff"/><stop offset="1" stop-color="#b7b7b7"/></linearGradient></defs><g transform="translate(-217.47068,-154.01978)"><g data-paper-data="{&quot;isPaintingLayer&quot;:true}" fill-rule="nonzero" stroke-width="4.5" stroke-linecap="round" stroke-linejoin="miter" stroke-miterlimit="10" stroke-dasharray="" stroke-dashoffset="0" style="mix-blend-mode: normal"><path d="M252.18871,175.73036l11.72894,7.56706l0.37835,15.89082l-3.78353,6.81035l-21.94447,2.64847l-12.864,-5.29694l5.67529,-9.83718l5.29694,1.89176l9.83718,0.37835l2.64847,-3.02682l-2.64847,-3.02682h-13.62071l-6.81035,-9.08047l0.37835,-18.16094l35.56518,-1.13506l-1.51341,11.72894h-19.67435v4.54024z" data-paper-data="{&quot;origPos&quot;:null}" fill="#000000" stroke="#000000"/><path d="M247.18871,170.73036l11.72894,7.56706l0.37835,15.89082l-3.78353,6.81035l-21.94447,2.64847l-12.864,-5.29694l5.67529,-9.83718l5.29694,1.89176l9.83718,0.37835l2.64847,-3.02682l-2.64847,-3.02682h-13.62071l-6.81035,-9.08047l0.37835,-18.16094l35.56518,-1.13506l-1.51341,11.72894h-19.67435v4.54024z" data-paper-data="{&quot;origPos&quot;:null}" fill="url(#color-1)" stroke="#9d9d9d"/></g></g></svg>