<svg version="1.1" xmlns="http://www.w3.org/2000/svg" xmlns:xlink="http://www.w3.org/1999/xlink" width="75.40194" height="151.34139" viewBox="0,0,75.40194,151.34139"><defs><linearGradient x1="259.92578" y1="171.14916" x2="256.42847" y2="200.4418" gradientUnits="userSpaceOnUse" id="color-1"><stop offset="0" stop-color="#20de16"/><stop offset="1" stop-color="#158e0e"/></linearGradient><linearGradient x1="252.61824" y1="215.03991" x2="244.07303" y2="249.0858" gradientUnits="userSpaceOnUse" id="color-2"><stop offset="0" stop-color="#364ec7"/><stop offset="1" stop-color="#001371"/></linearGradient><linearGradient x1="249.04405" y1="243.71951" x2="245.81603" y2="256.58061" gradientUnits="userSpaceOnUse" id="color-3"><stop offset="0" stop-color="#a6680a"/><stop offset="1" stop-color="#6c4205"/></linearGradient><linearGradient x1="241.0723" y1="165.03962" x2="241.0723" y2="222.49885" gradientUnits="userSpaceOnUse" id="color-4"><stop offset="0" stop-color="#364ec7"/><stop offset="1" stop-color="#001371"/></linearGradient><linearGradient x1="242.51259" y1="169.15323" x2="242.51259" y2="189.46896" gradientUnits="userSpaceOnUse" id="color-5"><stop offset="0" stop-color="#20de16"/><stop offset="1" stop-color="#158e0e"/></linearGradient><linearGradient x1="230.62943" y1="214.60807" x2="241.46645" y2="247.73942" gradientUnits="userSpaceOnUse" id="color-6"><stop offset="0" stop-color="#364ec7"/><stop offset="1" stop-color="#001371"/></linearGradient><linearGradient x1="239.99819" y1="242.99619" x2="244.00794" y2="255.25494" gradientUnits="userSpaceOnUse" id="color-7"><stop offset="0" stop-color="#a6680a"/><stop offset="1" stop-color="#6c4205"/></linearGradient><linearGradient x1="218.9839" y1="170.94346" x2="227.08531" y2="197.65165" gradientUnits="userSpaceOnUse" id="color-8"><stop offset="0" stop-color="#20de16"/><stop offset="1" stop-color="#158e0e"/></linearGradient><linearGradient x1="242.3245" y1="122.87547" x2="242.3245" y2="174.39879" gradientUnits="userSpaceOnUse" id="color-9"><stop offset="0" stop-color="#ffefc0"/><stop offset="1" stop-color="#e0ce98"/></linearGradient><linearGradient x1="241.28019" y1="106.50884" x2="241.28019" y2="137.96921" gradientUnits="userSpaceOnUse" id="color-10"><stop offset="0" stop-color="#20de16"/><stop offset="1" stop-color="#158e0e"/></linearGradient><linearGradient x1="255.24264" y1="125.15134" x2="255.24264" y2="132.87648" gradientUnits="userSpaceOnUse" id="color-11"><stop offset="0" stop-color="#20de16"/><stop offset="1" stop-color="#158e0e"/></linearGradient><linearGradient x1="265.78201" y1="145.63153" x2="265.78201" y2="162.72777" gradientUnits="userSpaceOnUse" id="color-12"><stop offset="0" stop-color="#ffefc0"/><stop offset="1" stop-color="#e0ce98"/></linearGradient></defs><g transform="translate(-204.90572,-106.00884)"><g data-paper-data="{&quot;isPaintingLayer&quot;:true}" fill-rule="nonzero" stroke-linejoin="miter" stroke-miterlimit="10" stroke-dasharray="" stroke-dashoffset="0" style="mix-blend-mode: normal"><path d="M251.02205,170.59077c2.88224,-1.66956 8.42221,3.78438 12.37385,12.1817c3.95164,8.39732 4.81856,16.55814 1.93631,18.2277c-2.88225,1.66955 -8.42222,-3.78437 -12.37384,-12.18169c-3.95165,-8.39732 -4.81856,-16.55817 -1.9363,-18.2277z" data-paper-data="{&quot;origRot&quot;:0,&quot;origPos&quot;:null,&quot;index&quot;:null}" fill="url(#color-1)" stroke="#158e0e" stroke-width="1.5" stroke-linecap="butt"/><path d="M270.11801,194.05383c5.49179,1.11524 8.98364,6.57027 7.79928,12.18417c-1.18438,5.61391 -6.59647,9.2608 -12.08827,8.14557c-5.49177,-1.11524 -8.98364,-6.57027 -7.79927,-12.18417c1.18438,-5.61391 6.59648,-9.2608 12.08827,-8.14557z" data-paper-data="{&quot;origPos&quot;:null,&quot;index&quot;:null,&quot;origRot&quot;:0}" fill="#ffffff" stroke="#bfbfbf" stroke-width="1.5" stroke-linecap="butt"/><path d="M255.93461,231.67933c-0.50686,3.41558 -2.60665,9.1373 -3.76717,12.39842c-1.66901,4.69 -3.29563,5.11695 -7.38635,4.75561c-4.10896,-0.36295 -5.42622,-0.03534 -5.67146,-4.91814c-0.16868,-3.35846 3.14047,-10.00644 3.64408,-13.40012c1.48716,-10.02146 0.98618,-17.01473 4.68139,-16.68834c0,0 5.82621,1.08366 6.56553,2.94679c0,0 3.00867,-1.26935 3.30375,1.75819c0.29711,3.0485 0.1174,3.12613 -1.36976,13.14759z" data-paper-data="{&quot;origPos&quot;:null,&quot;origRot&quot;:0}" fill="url(#color-2)" stroke="#001371" stroke-width="1.5" stroke-linecap="butt"/><path d="M255.92126,248.60353c3.48431,3.91122 0.78251,7.04837 -1.69544,7.99669c-3.00061,1.14836 -11.36082,0.04967 -15.31007,-2.49881c-3.94924,-2.54847 -2.14016,-3.24869 -1.94219,-4.93095c0.44017,-3.74028 3.58131,-6.43075 10.10313,-5.63052c6.52181,0.80022 5.36029,1.15235 8.84459,5.06358z" data-paper-data="{&quot;origPos&quot;:null,&quot;origRot&quot;:0}" fill="url(#color-3)" stroke="#6c4306" stroke-width="1.5" stroke-linecap="butt"/><path d="M258.19093,193.86403c0,9.1707 2.57396,18.05523 -2.43939,25.06348c-3.21333,4.49197 -9.69716,3.47179 -14.67924,3.47179c-4.98207,0 -11.4659,0.73026 -14.67924,-3.76169c-5.01335,-7.00824 -2.43939,-15.60288 -2.43939,-24.77357c0,-15.7596 7.66426,-28.78276 17.11863,-28.78276c0,0 9.72842,-0.89172 12.88897,5.5745c3.14566,6.43574 4.22966,7.44866 4.22966,23.20826z" data-paper-data="{&quot;origPos&quot;:null}" fill="url(#color-4)" stroke="#001371" stroke-width="1.5" stroke-linecap="butt"/><path d="M249.20572,177.70433c0,2.66157 1.18698,7.0551 -0.31003,8.88816c-1.61709,1.98007 -3.32827,2.89053 -5.5586,2.87631c-2.46992,-0.01576 -4.1733,-0.99211 -6.23486,-2.7457c-2.11879,-1.80227 -1.69451,-5.7465 -1.69451,-9.01876c0,-4.72264 3.0888,-8.5511 6.89902,-8.5511c3.8102,0 6.899,3.82847 6.899,8.5511z" data-paper-data="{&quot;origPos&quot;:null}" fill="url(#color-5)" stroke="none" stroke-width="0" stroke-linecap="butt"/><path d="M235.94361,185.77797c0,2.21122 -1.7773,4.00379 -3.96972,4.00379c-2.19242,0 -3.96972,-1.79256 -3.96972,-4.00379c0,-2.21122 1.7773,-4.00378 3.96972,-4.00378c2.19242,0 3.96972,1.79256 3.96972,4.00378z" data-paper-data="{&quot;origPos&quot;:null}" fill="#faff66" stroke="none" stroke-width="1.5" stroke-linecap="butt"/><path d="M257.23659,185.22882c0,2.15676 -1.73351,3.90516 -3.87193,3.90516c-2.13841,0 -3.87194,-1.74839 -3.87194,-3.90516c0,-2.15676 1.73353,-3.90516 3.87194,-3.90516c2.13841,0 3.87193,1.74839 3.87193,3.90516z" data-paper-data="{&quot;origPos&quot;:null}" fill="#faff66" stroke="none" stroke-width="1.5" stroke-linecap="butt"/><path d="M243.2336,228.40102c1.06378,3.25222 1.66512,9.18112 2.04207,12.54636c0.54213,4.83976 -0.80064,5.84728 -4.82551,7.09652c-4.04282,1.25481 -5.13842,2.05446 -7.57473,-2.22196c-1.6757,-2.94139 -1.55362,-10.16433 -2.61057,-13.3957c-3.12117,-9.54215 -6.75183,-15.60938 -3.1161,-16.73784c0,0 5.98938,-1.26987 7.5286,0.11364c4.4381,3.98913 5.43508,3.05681 8.55625,12.59897z" data-paper-data="{&quot;origPos&quot;:null,&quot;origRot&quot;:0}" fill="url(#color-6)" stroke="#001371" stroke-width="1.5" stroke-linecap="butt"/><path d="M248.83984,244.31301c4.57737,2.13542 3.54643,5.99618 1.81359,7.81242c-2.09835,2.19933 -9.69912,4.48406 -14.118,3.74877c-4.41887,-0.73528 -3.15699,-2.06832 -3.67429,-3.64981c-1.15012,-3.5162 0.43899,-7.14926 6.34516,-8.98242c5.90617,-1.83315 5.05618,-1.0644 9.63355,1.07103z" data-paper-data="{&quot;origPos&quot;:null,&quot;origRot&quot;:0}" fill="url(#color-7)" stroke="#6c4306" stroke-width="1.5" stroke-linecap="butt"/><path d="M228.98862,186.91089c-3.88597,8.77107 -9.70187,14.71141 -12.99017,13.26811c-3.28832,-1.44329 -2.80379,-9.72368 1.08215,-18.49477c3.88597,-8.77107 9.70186,-14.71142 12.99016,-13.26812c3.28832,1.44329 2.8038,9.72368 -1.08214,18.49477z" data-paper-data="{&quot;origRot&quot;:0,&quot;origPos&quot;:null}" fill="url(#color-8)" stroke="#158e0e" stroke-width="1.5" stroke-linecap="butt"/><path d="M225.77305,200.49861c1.58578,5.55957 -1.53974,11.25794 -6.98108,12.72765c-5.44133,1.46972 -11.13792,-1.84578 -12.72371,-7.40537c-1.58578,-5.55957 1.53974,-11.25794 6.98108,-12.72765c5.44133,-1.46972 11.13792,1.84578 12.72371,7.40537z" data-paper-data="{&quot;origPos&quot;:null,&quot;origRot&quot;:0}" fill="#ffffff" stroke="#bfbfbf" stroke-width="1.5" stroke-linecap="butt"/><path d="M267.34623,149.47683c0,9.58744 -5.14936,13.54105 -11.92352,18.47509c-4.72012,3.43796 -6.06853,6.44688 -11.57363,6.44688c-6.39728,0 -8.94794,-3.34932 -14.4308,-7.34894c-6.66848,-4.8645 -12.11553,-8.29451 -12.11553,-17.73622c0,-4.88091 0.57271,-17.17846 2.65647,-21.29146c4.80207,-9.4785 14.74065,-2.96331 23.65922,-2.96331c0,0 14.51881,-4.10323 19.42967,4.91271c2.33042,4.27845 4.29814,6.01957 4.29814,19.50524z" data-paper-data="{&quot;origPos&quot;:null}" fill="url(#color-9)" stroke="#e0ce98" stroke-width="1" stroke-linecap="butt"/><path d="M267.4394,121.23554c7.39631,15.30816 -26.79497,11.65492 -29.2141,13.66084c-2.37591,1.97008 -0.74791,7.99261 -3.6175,7.99261c-4.02198,0 -8.45488,0.76841 -9.56057,5.50256c-0.63988,2.73978 2.37615,8.07015 0.12484,8.79394c-2.2178,0.71302 -4.06937,3.1223 -6.35839,3.28697c-1.85643,0.13354 -2.3832,-2.3091 -4.24263,-2.343c-5.29533,-0.09654 0.72001,-12.87543 0.8452,-13.54558c0.04172,-0.22338 -1.10163,-4.78695 -1.10163,-7.0037c0,-12.02306 9.84594,-18.41652 16.30923,-18.41652c6.46328,0 29.41924,-13.23627 36.81555,2.07188z" data-paper-data="{&quot;origPos&quot;:null}" fill="#c27231" stroke="#985926" stroke-width="1.5" stroke-linecap="butt"/><path d="M266.96832,162.28036c0,0.94426 -1.05436,2.53894 -1.15734,3.47732c-0.21869,1.99288 -1.61583,3.04323 -3.57684,3.13261c-2.16435,0.09865 -5.99132,-2.45074 -5.99132,-2.45074c0,0 -2.87775,1.15965 -4.82459,1.60512c-1.63184,0.37339 -4.15503,0.12869 -5.64053,-0.63716c-1.0443,-0.5384 -2.66543,-2.79855 -3.30943,-3.79617c-2.03878,-3.15822 -7.28717,-7.80682 -2.80634,-8.95671c2.20464,-0.56578 8.73957,5.48286 11.0127,5.48286c0,0 3.80829,-0.01709 5.70018,0.08223c4.2897,0.22516 10.5935,-2.40857 10.5935,2.06065z" data-paper-data="{&quot;origPos&quot;:null}" fill="#160b02" stroke="none" stroke-width="0" stroke-linecap="butt"/><path d="M269.32542,125.50004c0,9.62951 -11.03409,3.70211 -26.30554,3.70211c-3.69718,0 -8.59054,7.94106 -12.28753,7.90599c-5.24124,-0.04971 -11.84335,2.39611 -15.98343,-0.74149c-2.92262,-2.21493 -0.72629,-7.25501 -0.72629,-10.86662c0,-8.15926 8.70145,-8.27716 16.24287,-11.79709c5.48182,-2.55861 5.55662,-6.60094 11.63295,-6.60094c0,0 12.43874,-1.76929 19.6767,0.80353c8.19439,2.91279 7.75028,7.96498 7.75028,17.59449z" data-paper-data="{&quot;origPos&quot;:null}" fill="url(#color-10)" stroke="#158e0e" stroke-width="1" stroke-linecap="butt"/><path d="M279.80766,131.29152c0,3.39114 -10.44299,0.28559 -24.00988,0.28559c-13.56688,0 -25.12017,3.10555 -25.12017,-0.28559c0,-3.39114 10.99813,-6.14019 24.56502,-6.14019c13.56688,0 24.56502,2.74906 24.56502,6.14019z" data-paper-data="{&quot;origPos&quot;:null}" fill="url(#color-11)" stroke="#158e0e" stroke-width="1" stroke-linecap="butt"/><path d="M265.25731,118.6499c0,2.08974 0.31298,3.53154 -1.25453,4.86038c-1.35299,1.14697 -9.04403,0.84635 -10.32229,-0.07514c-1.82086,-1.31268 -1.08988,-2.49767 -1.08988,-4.78524c0,-3.41429 2.83555,-6.18215 6.33336,-6.18215c3.49782,0 6.33335,2.76785 6.33335,6.18215z" data-paper-data="{&quot;origPos&quot;:null}" fill="#ffffff" stroke="#a4a4a4" stroke-width="1" stroke-linecap="butt"/><path d="M257.51597,143.27744c0,4.03215 -2.12367,7.30085 -4.74334,7.30085c-2.61968,0 -4.74334,-3.2687 -4.74334,-7.30085c0,-4.03215 2.12367,-7.30086 4.74334,-7.30086c2.61968,0 4.74334,3.2687 4.74334,7.30086z" data-paper-data="{&quot;origPos&quot;:null}" fill="#ffffff" stroke="none" stroke-width="0" stroke-linecap="butt"/><path d="M249.015,135.25589c0,0 3.57853,-0.5724 4.30266,-0.4493c1.29495,0.22013 3.53513,1.78671 3.53513,1.78671" data-paper-data="{&quot;origPos&quot;:null,&quot;origRot&quot;:0}" fill="none" stroke="#351c06" stroke-width="1.5" stroke-linecap="round"/><path d="M257.54498,142.96375c0,2.67596 -1.40938,4.84524 -3.14794,4.84524c-1.73856,0 -3.14794,-2.1693 -3.14794,-4.84524c0,-2.67596 1.40939,-4.84524 3.14794,-4.84524c1.73856,0 3.14794,2.1693 3.14794,4.84524z" data-paper-data="{&quot;origPos&quot;:null}" fill="#1121d4" stroke="none" stroke-width="0" stroke-linecap="butt"/><path d="M257.61349,142.82304c0,1.38374 -0.72879,2.50548 -1.62781,2.50548c-0.89902,0 -1.62781,-1.12175 -1.62781,-2.50548c0,-1.38374 0.7288,-2.50548 1.62781,-2.50548c0.89902,0 1.62781,1.12175 1.62781,2.50548z" data-paper-data="{&quot;origPos&quot;:null}" fill="#000000" stroke="none" stroke-width="0" stroke-linecap="butt"/><path d="M263.91219,135.3442c2.17221,0 3.93314,2.71036 3.93314,6.05377c0,3.34342 -1.76092,6.05377 -3.93314,6.05377c-2.17221,0 -3.93314,-2.71036 -3.93314,-6.05377c0,-3.34342 1.76092,-6.05377 3.93314,-6.05377z" data-paper-data="{&quot;origPos&quot;:null,&quot;index&quot;:null}" fill="#ffffff" stroke="none" stroke-width="0" stroke-linecap="butt"/><path d="M260.61616,134.76965c0,0 1.85754,-1.299 2.93129,-1.48153c0.60044,-0.10208 3.56772,0.37256 3.56772,0.37256" data-paper-data="{&quot;origPos&quot;:null,&quot;origRot&quot;:0,&quot;index&quot;:null}" fill="none" stroke="#351c06" stroke-width="1.5" stroke-linecap="round"/><path d="M265.35774,137.23866c1.44159,0 2.61025,1.79876 2.61025,4.0176c0,2.21886 -1.16864,4.0176 -2.61025,4.0176c-1.44159,0 -2.61024,-1.79876 -2.61024,-4.0176c0,-2.21886 1.16864,-4.0176 2.61024,-4.0176z" data-paper-data="{&quot;origPos&quot;:null,&quot;index&quot;:null}" fill="#1121d4" stroke="none" stroke-width="0" stroke-linecap="butt"/><path d="M266.72018,139.18524c0.74546,0 1.34976,0.93015 1.34976,2.07752c0,1.14739 -0.60431,2.07752 -1.34976,2.07752c-0.74546,0 -1.34975,-0.93015 -1.34975,-2.07752c0,-1.14739 0.60431,-2.07752 1.34975,-2.07752z" data-paper-data="{&quot;origPos&quot;:null,&quot;index&quot;:null}" fill="#000000" stroke="none" stroke-width="0" stroke-linecap="butt"/><path d="M277.98864,154.05365c0,4.6514 -5.21052,8.67412 -11.95206,8.67412c-6.74152,0 -12.46119,-4.02272 -12.46119,-8.67412c0,-4.6514 5.46509,-8.42211 12.20662,-8.42211c6.74152,0 12.20662,3.7707 12.20662,8.42211z" data-paper-data="{&quot;origPos&quot;:null}" fill="url(#color-12)" stroke="#e0ce98" stroke-width="1.5" stroke-linecap="butt"/><path d="M230.48492,147.85546c-0.92107,2.84302 -4.85091,4.05604 -8.77756,2.70934c-3.92666,-1.34671 -6.36315,-4.74313 -5.44209,-7.58617c0.92107,-2.84302 4.85091,-4.05604 8.77756,-2.70934c3.92666,1.34671 6.36315,4.74313 5.44209,7.58617z" data-paper-data="{&quot;origRot&quot;:0,&quot;origPos&quot;:null}" fill="#ffefc0" stroke="#e0ce98" stroke-width="1.5" stroke-linecap="butt"/><path d="M261.75718,121.38357l-4.53402,-0.22094l0.06825,-5.65682" data-paper-data="{&quot;origPos&quot;:null}" fill="none" stroke="#158e0e" stroke-width="1" stroke-linecap="round"/><path d="" data-paper-data="{&quot;origPos&quot;:null}" fill="#c1770b" stroke="#6c4306" stroke-width="1.5" stroke-linecap="butt"/></g></g></svg>