<svg version="1.1" xmlns="http://www.w3.org/2000/svg" xmlns:xlink="http://www.w3.org/1999/xlink" width="104.05584" height="152.04731" viewBox="0,0,104.05584,152.04731"><defs><linearGradient x1="264.8291" y1="172.8324" x2="264.8291" y2="196.62405" gradientUnits="userSpaceOnUse" id="color-1"><stop offset="0" stop-color="#d21515"/><stop offset="1" stop-color="#940000"/></linearGradient><linearGradient x1="253.77043" y1="215.70211" x2="253.77043" y2="251.38096" gradientUnits="userSpaceOnUse" id="color-2"><stop offset="0" stop-color="#364ec7"/><stop offset="1" stop-color="#001371"/></linearGradient><linearGradient x1="261.49836" y1="243.1571" x2="261.49836" y2="258.36779" gradientUnits="userSpaceOnUse" id="color-3"><stop offset="0" stop-color="#a6680a"/><stop offset="1" stop-color="#6c4306"/></linearGradient><linearGradient x1="240.57517" y1="164.08105" x2="240.57517" y2="223.28101" gradientUnits="userSpaceOnUse" id="color-4"><stop offset="0" stop-color="#364ec7"/><stop offset="1" stop-color="#001371"/></linearGradient><linearGradient x1="242.16483" y1="169.39431" x2="242.16483" y2="189.9161" gradientUnits="userSpaceOnUse" id="color-5"><stop offset="0" stop-color="#d21515"/><stop offset="1" stop-color="#940000"/></linearGradient><linearGradient x1="240.51095" y1="126.59665" x2="240.51095" y2="177.2091" gradientUnits="userSpaceOnUse" id="color-6"><stop offset="0" stop-color="#ffefc0"/><stop offset="1" stop-color="#e0ce98"/></linearGradient><linearGradient x1="240.63481" y1="107.66052" x2="240.63481" y2="141.57001" gradientUnits="userSpaceOnUse" id="color-7"><stop offset="0" stop-color="#d21515"/><stop offset="1" stop-color="#940000"/></linearGradient><linearGradient x1="258.2489" y1="128.05436" x2="258.2489" y2="135.71789" gradientUnits="userSpaceOnUse" id="color-8"><stop offset="0" stop-color="#d21515"/><stop offset="1" stop-color="#940000"/></linearGradient><linearGradient x1="266.99924" y1="149.17124" x2="266.99924" y2="165.88114" gradientUnits="userSpaceOnUse" id="color-9"><stop offset="0" stop-color="#ffefc0"/><stop offset="1" stop-color="#e0ce98"/></linearGradient><linearGradient x1="217.75291" y1="141.50648" x2="217.75291" y2="152.81043" gradientUnits="userSpaceOnUse" id="color-10"><stop offset="0" stop-color="#ffefc0"/><stop offset="1" stop-color="#e0ce98"/></linearGradient><linearGradient x1="225.21568" y1="213.28997" x2="225.21568" y2="248.94938" gradientUnits="userSpaceOnUse" id="color-11"><stop offset="0" stop-color="#364ec7"/><stop offset="1" stop-color="#001371"/></linearGradient><linearGradient x1="223.10835" y1="242.3962" x2="223.10835" y2="258.6467" gradientUnits="userSpaceOnUse" id="color-12"><stop offset="0" stop-color="#a6680a"/><stop offset="1" stop-color="#6c4306"/></linearGradient><linearGradient x1="213.82906" y1="173.97253" x2="213.82906" y2="196.64207" gradientUnits="userSpaceOnUse" id="color-13"><stop offset="0" stop-color="#d21515"/><stop offset="1" stop-color="#940000"/></linearGradient></defs><g transform="translate(-186.69819,-107.16052)"><g data-paper-data="{&quot;isPaintingLayer&quot;:true}" fill-rule="nonzero" stroke-linejoin="miter" stroke-miterlimit="10" stroke-dasharray="" stroke-dashoffset="0" style="mix-blend-mode: normal"><g data-paper-data="{&quot;origPos&quot;:null,&quot;origRot&quot;:0}" stroke-width="1.5" stroke-linecap="butt"><path d="M251.05762,173.9739c2.19016,-2.80464 10.13136,-0.26336 17.73713,5.67609c7.60578,5.93945 11.99599,13.02792 9.80582,15.83256c-2.19018,2.80464 -10.13137,0.26338 -17.73713,-5.67608c-7.60578,-5.93945 -11.996,-13.02794 -9.80581,-15.83257z" data-paper-data="{&quot;origRot&quot;:0,&quot;origPos&quot;:null,&quot;index&quot;:null}" fill="url(#color-1)" stroke="#940000"/><path d="M277.79124,187.85187c5.47188,-1.23327 10.93974,2.3459 12.21279,7.99429c1.27305,5.64839 -2.13077,11.22708 -7.60266,12.46035c-5.47186,1.23326 -10.93974,-2.3459 -12.21279,-7.99429c-1.27305,-5.64839 2.13078,-11.22708 7.60266,-12.46035z" data-paper-data="{&quot;origPos&quot;:null,&quot;index&quot;:null}" fill="#ffffff" stroke="#bfbfbf"/></g><g data-paper-data="{&quot;origPos&quot;:null,&quot;origRot&quot;:0}" stroke-width="1.5" stroke-linecap="butt"><path d="M263.20544,229.43505c1.06728,3.32968 1.39999,9.47997 1.63181,12.96876c0.33339,5.01742 -1.35201,6.14916 -6.28676,7.69383c-4.95675,1.55157 -6.33043,2.4516 -8.98456,-1.86449c-1.82554,-2.96867 -1.20054,-10.51256 -2.26097,-13.82089c-3.13142,-9.76943 -7.10693,-15.88252 -2.6493,-17.27786c0,0 7.30438,-1.68394 9.06842,-0.33261c0,0 2.88472,-2.52832 4.69678,0.08237c1.82459,2.62877 1.65317,2.78144 4.78458,12.55087z" data-paper-data="{&quot;origPos&quot;:null,&quot;origRot&quot;:0}" fill="url(#color-2)" stroke="#001371"/><path d="M269.52908,245.32268c5.46423,2.21424 4.10277,6.45523 1.95512,8.48222c-2.60064,2.45454 -11.84969,5.14286 -17.16468,4.45305c-5.31498,-0.68981 -3.75072,-2.17726 -4.32786,-3.89051c-1.28321,-3.80914 0.74557,-7.81582 7.93427,-9.96787c7.1887,-2.15206 6.13894,-1.29113 11.60316,0.92311z" data-paper-data="{&quot;origPos&quot;:null,&quot;origRot&quot;:0}" fill="url(#color-3)" stroke="#6c4306"/></g><path d="" data-paper-data="{&quot;origPos&quot;:null}" fill="#c1770b" stroke="#6c4306" stroke-width="1.5" stroke-linecap="butt"/><g data-paper-data="{&quot;origPos&quot;:null}" stroke-linecap="butt"><path d="M259.4692,194.35576c0,9.26372 2.84091,18.23837 -2.69239,25.3177c-3.54659,4.53753 -10.70286,3.50701 -16.20164,3.50701c-5.49877,0 -12.65505,0.73766 -16.20165,-3.79985c-5.5333,-7.07933 -2.69238,-15.76114 -2.69238,-25.02485c0,-15.91945 8.45914,-28.82471 18.89403,-28.82471c0,0 11.73737,-4.40076 15.22571,2.13104c3.4719,6.50102 3.66832,10.77421 3.66832,26.69366z" data-paper-data="{&quot;origPos&quot;:null}" fill="url(#color-4)" stroke="#001371" stroke-width="1.5"/><path d="M249.55212,178.03214c0,2.68857 1.31009,7.12666 -0.34219,8.97831c-1.7848,2.00015 -3.67346,2.91985 -6.1351,2.90548c-2.72608,-0.01592 -4.60612,-1.00217 -6.88148,-2.77355c-2.33853,-1.82055 -1.87025,-5.80478 -1.87025,-9.11024c0,-4.77054 3.40914,-8.63783 7.61452,-8.63783c4.20537,0 7.61451,3.8673 7.61451,8.63783z" data-paper-data="{&quot;origPos&quot;:null}" fill="url(#color-5)" stroke="none" stroke-width="0"/><path d="M234.91458,186.18768c0,2.23365 -1.96162,4.0444 -4.38142,4.0444c-2.4198,0 -4.38143,-1.81074 -4.38143,-4.0444c0,-2.23365 1.96163,-4.04439 4.38143,-4.04439c2.4198,0 4.38142,1.81074 4.38142,4.04439z" data-paper-data="{&quot;origPos&quot;:null}" fill="#faff66" stroke="none" stroke-width="1.5"/><path d="M258.41589,185.63296c0,2.17864 -1.9133,3.94477 -4.2735,3.94477c-2.36019,0 -4.2735,-1.76612 -4.2735,-3.94477c0,-2.17864 1.91331,-3.94477 4.2735,-3.94477c2.36019,0 4.2735,1.76612 4.2735,3.94477z" data-paper-data="{&quot;origPos&quot;:null}" fill="#faff66" stroke="none" stroke-width="1.5"/></g><g data-paper-data="{&quot;origPos&quot;:null}"><path d="M270.6324,152.98587c0,13.37811 -13.73475,24.22323 -28.56379,24.22323c-14.82904,0 -31.67913,-11.007 -31.67913,-24.38512c0,-4.84199 0.68944,-17.04147 3.19789,-21.12167c5.78078,-9.40291 17.74496,-2.93967 28.48124,-2.93967c0,0 17.47791,-4.07051 23.38966,4.87354c2.80538,4.24433 5.17415,5.97157 5.17415,19.34969z" data-paper-data="{&quot;origPos&quot;:null}" fill="url(#color-6)" stroke="#e0ce98" stroke-width="1" stroke-linecap="butt"/><path d="M268.50909,125.8602c8.09723,14.22755 -29.33424,10.83219 -31.98263,12.69652c-2.60107,1.83102 -0.81879,7.42841 -3.96033,7.42841c-4.40313,0 -9.25612,0.71417 -10.46658,5.11413c-0.70052,2.54638 2.60132,7.50047 0.13667,8.17316c-2.42796,0.66268 -4.70501,2.65189 -7.21096,2.80494c-2.03236,0.12412 -2.35905,-1.8961 -4.39469,-1.9276c-5.79716,-0.08972 0.78824,-11.96655 0.9253,-12.58939c0.04568,-0.20761 -1.20602,-4.44904 -1.20602,-6.50931c0,-11.17434 10.77902,-17.11649 17.8548,-17.11649c7.07578,0 32.2072,-12.30192 40.30444,1.92563z" data-paper-data="{&quot;origPos&quot;:null}" fill="#5a3413" stroke="#351c06" stroke-width="1" stroke-linecap="butt"/><path d="M267.91427,165.43729c0,0.93673 -1.03545,2.26869 -1.13658,3.19959c-0.21477,1.97699 -1.58685,3.01897 -3.51269,3.10762c-2.12553,0.09786 -3.01604,-2.04326 -5.14035,-2.16621c-1.47465,-0.08537 -1.53991,1.74597 -3.01688,1.74597c-1.60871,0 -1.59206,-1.47457 -3.17663,-1.76096c-2.16384,-0.39108 -2.86624,1.73159 -4.82742,0.71024c-1.02557,-0.53411 -2.61762,-2.77623 -3.25007,-3.76589c-2.00221,-3.13303 -6.90647,-7.24457 -2.50601,-8.38529c2.1651,-0.56126 8.33282,5.18914 10.56518,5.18914c0,0 3.73999,-0.01695 5.59794,0.08157c4.21276,0.22336 10.4035,-2.38936 10.4035,2.04422z" data-paper-data="{&quot;origPos&quot;:null}" fill="#5a3413" stroke="#351c06" stroke-width="1" stroke-linecap="butt"/><path d="M271.87853,128.32832c0,10.22611 -12.29169,3.93148 -29.30368,3.93148c-4.11857,0 -9.56963,8.43304 -13.688,8.3958c-5.83861,-0.05278 -13.19319,2.54455 -17.80513,-0.78743c-3.25572,-2.35216 -0.80907,-7.7045 -0.80907,-11.53986c0,-8.66476 9.69318,-8.78997 18.09413,-12.52798c6.1066,-2.71713 5.93994,-7.5099 12.70881,-7.5099c0,0 13.85643,-1.8789 21.91934,0.85332c9.12834,3.09325 8.8836,8.95845 8.8836,19.18456z" data-paper-data="{&quot;origPos&quot;:null}" fill="url(#color-7)" stroke="#940000" stroke-width="1" stroke-linecap="butt"/><path d="M282.37333,134.14558c0,3.36409 -10.25569,0.28331 -23.57925,0.28331c-13.32355,0 -24.66962,3.08078 -24.66962,-0.28331c0,-3.36409 10.80087,-6.09122 24.12443,-6.09122c13.32355,0 24.12443,2.72713 24.12443,6.09122z" data-paper-data="{&quot;origPos&quot;:null}" fill="url(#color-8)" stroke="#940000" stroke-width="1" stroke-linecap="butt"/><path d="M266.48394,122.00477c0,2.07307 0.30737,3.50338 -1.23203,4.82162c-1.32872,1.13783 -8.88182,0.83961 -10.13715,-0.07455c-1.7882,-1.30221 -1.07033,-2.47775 -1.07033,-4.74707c0,-3.38707 2.78469,-6.13285 6.21977,-6.13285c3.43508,0 6.21976,2.74578 6.21976,6.13285z" data-paper-data="{&quot;origPos&quot;:null}" fill="#ffffff" stroke="#a4a4a4" stroke-width="1" stroke-linecap="butt"/><path d="M258.88145,146.83591c0,3.99999 -2.08558,7.24263 -4.65827,7.24263c-2.57269,0 -4.65827,-3.24264 -4.65827,-7.24263c0,-3.99999 2.08558,-7.24264 4.65827,-7.24264c2.57269,0 4.65827,3.24264 4.65827,7.24264z" data-paper-data="{&quot;origPos&quot;:null}" fill="#ffffff" stroke="none" stroke-width="0" stroke-linecap="butt"/><path d="M256.59388,124.89745l1.71344,-5.34246l2.02498,3.56164l1.55767,-3.72353l2.3365,5.01868" data-paper-data="{&quot;origPos&quot;:null}" fill="none" stroke="#ba0000" stroke-width="1" stroke-linecap="round"/><path d="M250.53295,138.87833c0,0 3.51435,-0.56784 4.22549,-0.44572c1.27172,0.21838 3.47173,1.77246 3.47173,1.77246" data-paper-data="{&quot;origPos&quot;:null,&quot;origRot&quot;:0}" fill="none" stroke="#351c06" stroke-width="1.5" stroke-linecap="round"/><path d="M258.90994,146.52473c0,2.65462 -1.3841,4.8066 -3.09148,4.8066c-1.70738,0 -3.09148,-2.152 -3.09148,-4.8066c0,-2.65462 1.38411,-4.8066 3.09148,-4.8066c1.70738,0 3.09148,2.152 3.09148,4.8066z" data-paper-data="{&quot;origPos&quot;:null}" fill="#1121d4" stroke="none" stroke-width="0" stroke-linecap="butt"/><path d="M258.97722,146.38514c0,1.37271 -0.71572,2.4855 -1.59861,2.4855c-0.8829,0 -1.59861,-1.1128 -1.59861,-2.4855c0,-1.37271 0.71573,-2.4855 1.59861,-2.4855c0.8829,0 1.59861,1.1128 1.59861,2.4855z" data-paper-data="{&quot;origPos&quot;:null}" fill="#000000" stroke="none" stroke-width="0" stroke-linecap="butt"/><path d="M265.16295,138.96594c2.13325,0 3.8626,2.68875 3.8626,6.0055c0,3.31675 -1.72934,6.0055 -3.8626,6.0055c-2.13325,0 -3.8626,-2.68875 -3.8626,-6.0055c0,-3.31675 1.72934,-6.0055 3.8626,-6.0055z" data-paper-data="{&quot;origPos&quot;:null,&quot;index&quot;:null}" fill="#ffffff" stroke="none" stroke-width="0" stroke-linecap="butt"/><path d="M262.17604,139.37996c0,0 1.82422,-1.28863 2.87872,-1.46971c0.58967,-0.10126 3.50373,0.36959 3.50373,0.36959" data-paper-data="{&quot;origPos&quot;:null,&quot;origRot&quot;:0,&quot;index&quot;:null}" fill="none" stroke="#351c06" stroke-width="1.5" stroke-linecap="round"/><path d="M266.58257,140.84529c1.41573,0 2.56343,1.78441 2.56343,3.98557c0,2.20117 -1.14768,3.98557 -2.56343,3.98557c-1.41573,0 -2.56342,-1.78441 -2.56342,-3.98557c0,-2.20117 1.14768,-3.98557 2.56342,-3.98557z" data-paper-data="{&quot;origPos&quot;:null,&quot;index&quot;:null}" fill="#1121d4" stroke="none" stroke-width="0" stroke-linecap="butt"/><path d="M267.92058,142.77634c0.73209,0 1.32555,0.92272 1.32555,2.06095c0,1.13824 -0.59347,2.06095 -1.32555,2.06095c-0.73209,0 -1.32554,-0.92272 -1.32554,-2.06095c0,-1.13824 0.59347,-2.06095 1.32554,-2.06095z" data-paper-data="{&quot;origPos&quot;:null,&quot;index&quot;:null}" fill="#000000" stroke="none" stroke-width="0" stroke-linecap="butt"/><path d="M278.98693,157.52619c0,4.61431 -5.36707,8.35495 -11.98769,8.35495c-6.62061,0 -11.98769,-3.74063 -11.98769,-8.35495c0,-4.61431 5.36707,-8.35495 11.98769,-8.35495c6.62061,0 11.98769,3.74063 11.98769,8.35495z" data-paper-data="{&quot;origPos&quot;:null}" fill="url(#color-9)" stroke="#e0ce98" stroke-width="1.5" stroke-linecap="butt"/><path d="M224.73522,149.57742c-0.90455,2.82035 -4.76391,4.0237 -8.62013,2.68774c-3.85623,-1.33596 -6.24902,-4.70531 -5.34448,-7.52567c0.90455,-2.82035 4.76391,-4.0237 8.62013,-2.68774c3.85623,1.33596 6.24902,4.70531 5.34448,7.52567z" data-paper-data="{&quot;origRot&quot;:0,&quot;origPos&quot;:null}" fill="url(#color-10)" stroke="#e0ce98" stroke-width="1.5" stroke-linecap="butt"/></g><g data-paper-data="{&quot;origPos&quot;:null,&quot;origRot&quot;:0}" stroke-width="1.5" stroke-linecap="butt"><path d="M235.35337,233.14581c-0.77977,3.35861 -3.63454,8.73838 -5.21674,11.81173c-2.27544,4.41997 -4.30841,4.53168 -9.3571,3.35952c-5.0712,-1.17738 -6.71672,-1.10531 -6.80277,-6.09783c-0.05917,-3.43392 4.33421,-9.51322 5.10898,-12.85029c2.28788,-9.8543 1.97926,-17.03422 6.53982,-15.97539c0,0 7.16525,2.24564 7.99758,4.27793c2.39992,5.85977 4.0181,5.62002 1.73022,15.47433z" data-paper-data="{&quot;origPos&quot;:null}" fill="url(#color-11)" stroke="#001371"/><path d="M233.94412,249.76511c3.62333,4.8205 0.08948,7.96212 -2.92515,8.69272c-3.6505,0.8847 -13.3169,-1.44281 -17.64494,-4.80515c-4.32803,-3.36233 -2.12622,-3.90452 -1.69679,-5.75413c0.95477,-4.11236 4.95093,-6.69798 12.49837,-4.94568c7.54744,1.7523 6.14518,1.99175 9.76851,6.81226z" data-paper-data="{&quot;origPos&quot;:null}" fill="url(#color-12)" stroke="#6c4306"/></g><g data-paper-data="{&quot;origPos&quot;:null,&quot;origRot&quot;:0}" stroke-width="1.5" stroke-linecap="butt"><path d="M217.51555,190.64407c-7.99299,5.52132 -16.12309,7.60791 -18.15907,4.6605c-2.03601,-2.9474 2.79311,-9.81267 10.78609,-15.33404c7.99299,-5.52132 16.12309,-7.60791 18.15907,-4.6605c2.03601,2.9474 -2.79311,9.81267 -10.78609,15.33404z" data-paper-data="{&quot;origRot&quot;:0,&quot;origPos&quot;:null}" fill="url(#color-13)" stroke="#940000"/><path d="M207.52598,200.65318c-1.61174,5.60148 -7.3173,8.87664 -12.74375,7.31526c-5.42644,-1.56137 -8.51886,-7.36801 -6.90712,-12.96949c1.61174,-5.60148 7.3173,-8.87664 12.74375,-7.31526c5.42644,1.56137 8.51886,7.36801 6.90712,12.96949z" data-paper-data="{&quot;origPos&quot;:null,&quot;origRot&quot;:0}" fill="#ffffff" stroke="#bfbfbf"/></g></g></g></svg>