<svg version="1.1" xmlns="http://www.w3.org/2000/svg" xmlns:xlink="http://www.w3.org/1999/xlink" width="251.22902" height="151.48889" viewBox="0,0,251.22902,151.48889"><defs><linearGradient x1="320.88213" y1="212.13436" x2="320.88213" y2="248.22633" gradientUnits="userSpaceOnUse" id="color-1"><stop offset="0" stop-color="#364ec7"/><stop offset="1" stop-color="#001371"/></linearGradient><linearGradient x1="315.59512" y1="241.1571" x2="315.59512" y2="257.8045" gradientUnits="userSpaceOnUse" id="color-2"><stop offset="0" stop-color="#a6680a"/><stop offset="1" stop-color="#6c4306"/></linearGradient><linearGradient x1="330.07516" y1="166.08105" x2="330.07516" y2="225.28101" gradientUnits="userSpaceOnUse" id="color-3"><stop offset="0" stop-color="#364ec7"/><stop offset="1" stop-color="#001371"/></linearGradient><linearGradient x1="331.66483" y1="171.39431" x2="331.66483" y2="191.9161" gradientUnits="userSpaceOnUse" id="color-4"><stop offset="0" stop-color="#d21515"/><stop offset="1" stop-color="#940000"/></linearGradient><linearGradient x1="330.51095" y1="131.09665" x2="330.51095" y2="181.7091" gradientUnits="userSpaceOnUse" id="color-5"><stop offset="0" stop-color="#ffefc0"/><stop offset="1" stop-color="#e0ce98"/></linearGradient><linearGradient x1="330.63481" y1="112.16052" x2="330.63481" y2="146.07001" gradientUnits="userSpaceOnUse" id="color-6"><stop offset="0" stop-color="#d21515"/><stop offset="1" stop-color="#940000"/></linearGradient><linearGradient x1="348.2489" y1="132.55436" x2="348.2489" y2="140.21789" gradientUnits="userSpaceOnUse" id="color-7"><stop offset="0" stop-color="#d21515"/><stop offset="1" stop-color="#940000"/></linearGradient><linearGradient x1="356.99924" y1="153.67124" x2="356.99924" y2="170.38114" gradientUnits="userSpaceOnUse" id="color-8"><stop offset="0" stop-color="#ffefc0"/><stop offset="1" stop-color="#e0ce98"/></linearGradient><linearGradient x1="307.75291" y1="146.00648" x2="307.75291" y2="157.31043" gradientUnits="userSpaceOnUse" id="color-9"><stop offset="0" stop-color="#ffefc0"/><stop offset="1" stop-color="#e0ce98"/></linearGradient><linearGradient x1="340.58046" y1="216.41445" x2="340.58046" y2="250.04136" gradientUnits="userSpaceOnUse" id="color-10"><stop offset="0" stop-color="#364ec7"/><stop offset="1" stop-color="#001371"/></linearGradient><linearGradient x1="353.05829" y1="238.46061" x2="353.05829" y2="256.59479" gradientUnits="userSpaceOnUse" id="color-11"><stop offset="0" stop-color="#a6680a"/><stop offset="1" stop-color="#6c4306"/></linearGradient><linearGradient x1="323.54099" y1="174.62425" x2="323.54099" y2="206.36369" gradientUnits="userSpaceOnUse" id="color-12"><stop offset="0" stop-color="#d21515"/><stop offset="1" stop-color="#940000"/></linearGradient><linearGradient x1="155.0877" y1="173.24601" x2="148.22143" y2="201.59856" gradientUnits="userSpaceOnUse" id="color-13"><stop offset="0" stop-color="#20de16"/><stop offset="1" stop-color="#158e0e"/></linearGradient><linearGradient x1="151.44905" y1="218.84833" x2="133.71752" y2="248.95355" gradientUnits="userSpaceOnUse" id="color-14"><stop offset="0" stop-color="#364ec7"/><stop offset="1" stop-color="#001371"/></linearGradient><linearGradient x1="139.99978" y1="245.15652" x2="133.30157" y2="256.52898" gradientUnits="userSpaceOnUse" id="color-15"><stop offset="0" stop-color="#a6680a"/><stop offset="1" stop-color="#6c4205"/></linearGradient><linearGradient x1="151.0723" y1="166.28761" x2="151.0723" y2="223.0086" gradientUnits="userSpaceOnUse" id="color-16"><stop offset="0" stop-color="#364ec7"/><stop offset="1" stop-color="#001371"/></linearGradient><linearGradient x1="152.51259" y1="170.34838" x2="152.51259" y2="190.40308" gradientUnits="userSpaceOnUse" id="color-17"><stop offset="0" stop-color="#20de16"/><stop offset="1" stop-color="#158e0e"/></linearGradient><linearGradient x1="153.36304" y1="217.61352" x2="170.33306" y2="247.81229" gradientUnits="userSpaceOnUse" id="color-18"><stop offset="0" stop-color="#364ec7"/><stop offset="1" stop-color="#001371"/></linearGradient><linearGradient x1="167.98532" y1="243.47403" x2="174.26431" y2="254.64772" gradientUnits="userSpaceOnUse" id="color-19"><stop offset="0" stop-color="#a6680a"/><stop offset="1" stop-color="#6c4205"/></linearGradient><linearGradient x1="130.22508" y1="179.46734" x2="157.05252" y2="188.9701" gradientUnits="userSpaceOnUse" id="color-20"><stop offset="0" stop-color="#20de16"/><stop offset="1" stop-color="#158e0e"/></linearGradient><linearGradient x1="152.3245" y1="124.66518" x2="152.3245" y2="175.52654" gradientUnits="userSpaceOnUse" id="color-21"><stop offset="0" stop-color="#ffefc0"/><stop offset="1" stop-color="#e0ce98"/></linearGradient><linearGradient x1="151.28019" y1="108.50883" x2="151.28019" y2="139.565" gradientUnits="userSpaceOnUse" id="color-22"><stop offset="0" stop-color="#20de16"/><stop offset="1" stop-color="#158e0e"/></linearGradient><linearGradient x1="165.24264" y1="126.91181" x2="165.24264" y2="134.5377" gradientUnits="userSpaceOnUse" id="color-23"><stop offset="0" stop-color="#20de16"/><stop offset="1" stop-color="#158e0e"/></linearGradient><linearGradient x1="175.78201" y1="147.12889" x2="175.78201" y2="164.00546" gradientUnits="userSpaceOnUse" id="color-24"><stop offset="0" stop-color="#ffefc0"/><stop offset="1" stop-color="#e0ce98"/></linearGradient></defs><g transform="translate(-121.64431,-108.00883)"><g data-paper-data="{&quot;isPaintingLayer&quot;:true}" fill-rule="nonzero" stroke-linejoin="miter" stroke-miterlimit="10" stroke-dasharray="" stroke-dashoffset="0" style="mix-blend-mode: normal"><g data-paper-data="{&quot;origPos&quot;:null,&quot;origRot&quot;:0}" stroke-width="1.5" stroke-linecap="butt"><path d="M332.38131,178.27232c2.94927,1.99114 0.96277,10.08895 -4.43696,18.08693c-5.39973,7.998 -12.1679,12.8675 -15.11718,10.87636c-2.94927,-1.99116 -0.96279,-10.08896 4.43694,-18.08694c5.39973,-7.998 12.16793,-12.86751 15.11718,-10.87635z" data-paper-data="{&quot;origRot&quot;:0,&quot;origPos&quot;:null,&quot;index&quot;:null}" fill="#d21515" stroke="#940000"/><path d="M320.3837,205.90096c1.60841,5.37359 -1.5844,11.07568 -7.13132,12.73598c-5.54693,1.66029 -11.34747,-1.34993 -12.95589,-6.72353c-1.6084,-5.37358 1.5844,-11.07568 7.13132,-12.73598c5.54693,-1.66029 11.34747,1.34994 12.95589,6.72353z" data-paper-data="{&quot;origPos&quot;:null,&quot;index&quot;:null}" fill="#ffffff" stroke="#bfbfbf"/></g><g data-paper-data="{&quot;origPos&quot;:null,&quot;origRot&quot;:0}" stroke-width="1.5" stroke-linecap="butt"><path d="M330.2112,233.13115c-1.07425,3.32744 -4.38982,8.51817 -6.2356,11.48777c-2.65451,4.27074 -4.68365,4.20755 -9.59346,2.58533c-4.9317,-1.62943 -6.57249,-1.69913 -6.21235,-6.75317c0.24771,-3.47624 5.1539,-9.24081 6.22127,-12.54691c3.1519,-9.76285 3.48622,-17.04726 7.92132,-15.5819c0,0 6.9162,2.89066 7.56149,5.01706c0,0 3.81779,-0.3722 3.76783,2.80534c-0.05031,3.19953 -0.27859,3.22362 -3.4305,12.98647z" data-paper-data="{&quot;origPos&quot;:null,&quot;origRot&quot;:0}" fill="url(#color-1)" stroke="#001371"/><path d="M326.08563,249.72588c3.14837,4.98482 -0.43042,7.63659 -3.35708,8.03123c-3.54398,0.47789 -12.62568,-2.73061 -16.54161,-6.3899c-3.91592,-3.65929 -1.7778,-3.95573 -1.2478,-5.68414c1.17836,-3.84287 5.16269,-5.91519 12.25783,-3.4723c7.09514,2.4429 5.74031,2.5303 8.88868,7.51511z" data-paper-data="{&quot;origPos&quot;:null,&quot;origRot&quot;:0}" fill="url(#color-2)" stroke="#6c4306"/></g><path d="" data-paper-data="{&quot;origPos&quot;:null}" fill="#c1770b" stroke="#6c4306" stroke-width="1.5" stroke-linecap="butt"/><g data-paper-data="{&quot;origPos&quot;:null}" stroke-linecap="butt"><path d="M348.9692,196.35576c0,9.26372 2.84091,18.23837 -2.69239,25.3177c-3.54659,4.53753 -10.70286,3.50701 -16.20164,3.50701c-5.49877,0 -12.65505,0.73766 -16.20165,-3.79985c-5.5333,-7.07933 -2.69238,-15.76114 -2.69238,-25.02485c0,-15.91945 8.45914,-28.82471 18.89403,-28.82471c0,0 11.73737,-4.40076 15.22571,2.13104c3.4719,6.50102 3.66832,10.77421 3.66832,26.69366z" data-paper-data="{&quot;origPos&quot;:null}" fill="url(#color-3)" stroke="#001371" stroke-width="1.5"/><path d="M339.05212,180.03214c0,2.68857 1.31009,7.12666 -0.34219,8.97831c-1.7848,2.00015 -3.67346,2.91985 -6.1351,2.90548c-2.72608,-0.01592 -4.60612,-1.00217 -6.88148,-2.77355c-2.33853,-1.82055 -1.87025,-5.80478 -1.87025,-9.11024c0,-4.77054 3.40914,-8.63783 7.61452,-8.63783c4.20537,0 7.61451,3.8673 7.61451,8.63783z" data-paper-data="{&quot;origPos&quot;:null}" fill="url(#color-4)" stroke="none" stroke-width="0"/><path d="M324.41458,188.18768c0,2.23365 -1.96162,4.0444 -4.38142,4.0444c-2.4198,0 -4.38143,-1.81074 -4.38143,-4.0444c0,-2.23365 1.96163,-4.04439 4.38143,-4.04439c2.4198,0 4.38142,1.81074 4.38142,4.04439z" data-paper-data="{&quot;origPos&quot;:null}" fill="#faff66" stroke="none" stroke-width="1.5"/><path d="M347.91589,187.63296c0,2.17864 -1.9133,3.94477 -4.2735,3.94477c-2.36019,0 -4.2735,-1.76612 -4.2735,-3.94477c0,-2.17864 1.91331,-3.94477 4.2735,-3.94477c2.36019,0 4.2735,1.76612 4.2735,3.94477z" data-paper-data="{&quot;origPos&quot;:null}" fill="#faff66" stroke="none" stroke-width="1.5"/></g><g data-paper-data="{&quot;origPos&quot;:null}"><path d="M360.6324,157.48587c0,13.37811 -13.73475,24.22323 -28.56379,24.22323c-14.82904,0 -31.67913,-11.007 -31.67913,-24.38512c0,-4.84199 0.68944,-17.04147 3.19789,-21.12167c5.78078,-9.40291 17.74496,-2.93967 28.48124,-2.93967c0,0 17.47791,-4.07051 23.38966,4.87354c2.80538,4.24433 5.17415,5.97157 5.17415,19.34969z" data-paper-data="{&quot;origPos&quot;:null}" fill="url(#color-5)" stroke="#e0ce98" stroke-width="1" stroke-linecap="butt"/><path d="M358.50909,130.3602c8.09723,14.22755 -29.33424,10.83219 -31.98263,12.69652c-2.60107,1.83102 -0.81879,7.42841 -3.96033,7.42841c-4.40313,0 -9.25612,0.71417 -10.46658,5.11413c-0.70052,2.54638 2.60132,7.50047 0.13667,8.17316c-2.42796,0.66268 -4.70501,2.65189 -7.21096,2.80494c-2.03236,0.12412 -2.35905,-1.8961 -4.39469,-1.9276c-5.79716,-0.08972 0.78824,-11.96655 0.9253,-12.58939c0.04568,-0.20761 -1.20602,-4.44904 -1.20602,-6.50931c0,-11.17434 10.77902,-17.11649 17.8548,-17.11649c7.07578,0 32.2072,-12.30192 40.30444,1.92563z" data-paper-data="{&quot;origPos&quot;:null}" fill="#5a3413" stroke="#351c06" stroke-width="1" stroke-linecap="butt"/><path d="M357.91427,169.93729c0,0.93673 -1.03545,2.26869 -1.13658,3.19959c-0.21477,1.97699 -1.58685,3.01897 -3.51269,3.10762c-2.12553,0.09786 -3.01604,-2.04326 -5.14035,-2.16621c-1.47465,-0.08537 -1.53991,1.74597 -3.01688,1.74597c-1.60871,0 -1.59206,-1.47457 -3.17663,-1.76096c-2.16384,-0.39108 -2.86624,1.73159 -4.82742,0.71024c-1.02557,-0.53411 -2.61762,-2.77623 -3.25007,-3.76589c-2.00221,-3.13303 -6.90647,-7.24457 -2.50601,-8.38529c2.1651,-0.56126 8.33282,5.18914 10.56518,5.18914c0,0 3.73999,-0.01695 5.59794,0.08157c4.21276,0.22336 10.4035,-2.38936 10.4035,2.04422z" data-paper-data="{&quot;origPos&quot;:null}" fill="#5a3413" stroke="#351c06" stroke-width="1" stroke-linecap="butt"/><path d="M361.87853,132.82832c0,10.22611 -12.29169,3.93148 -29.30368,3.93148c-4.11857,0 -9.56963,8.43304 -13.688,8.3958c-5.83861,-0.05278 -13.19319,2.54455 -17.80513,-0.78743c-3.25572,-2.35216 -0.80907,-7.7045 -0.80907,-11.53986c0,-8.66476 9.69318,-8.78997 18.09413,-12.52798c6.1066,-2.71713 5.93994,-7.5099 12.70881,-7.5099c0,0 13.85643,-1.8789 21.91934,0.85332c9.12834,3.09325 8.8836,8.95845 8.8836,19.18456z" data-paper-data="{&quot;origPos&quot;:null}" fill="url(#color-6)" stroke="#940000" stroke-width="1" stroke-linecap="butt"/><path d="M372.37333,138.64558c0,3.36409 -10.25569,0.28331 -23.57925,0.28331c-13.32355,0 -24.66962,3.08078 -24.66962,-0.28331c0,-3.36409 10.80087,-6.09122 24.12443,-6.09122c13.32355,0 24.12443,2.72713 24.12443,6.09122z" data-paper-data="{&quot;origPos&quot;:null}" fill="url(#color-7)" stroke="#940000" stroke-width="1" stroke-linecap="butt"/><path d="M356.48394,126.50477c0,2.07307 0.30737,3.50338 -1.23203,4.82162c-1.32872,1.13783 -8.88182,0.83961 -10.13715,-0.07455c-1.7882,-1.30221 -1.07033,-2.47775 -1.07033,-4.74707c0,-3.38707 2.78469,-6.13285 6.21977,-6.13285c3.43508,0 6.21976,2.74578 6.21976,6.13285z" data-paper-data="{&quot;origPos&quot;:null}" fill="#ffffff" stroke="#a4a4a4" stroke-width="1" stroke-linecap="butt"/><path d="M348.88145,151.33591c0,3.99999 -2.08558,7.24263 -4.65827,7.24263c-2.57269,0 -4.65827,-3.24264 -4.65827,-7.24263c0,-3.99999 2.08558,-7.24264 4.65827,-7.24264c2.57269,0 4.65827,3.24264 4.65827,7.24264z" data-paper-data="{&quot;origPos&quot;:null}" fill="#ffffff" stroke="none" stroke-width="0" stroke-linecap="butt"/><path d="M346.59388,129.39745l1.71344,-5.34246l2.02498,3.56164l1.55767,-3.72353l2.3365,5.01868" data-paper-data="{&quot;origPos&quot;:null}" fill="none" stroke="#ba0000" stroke-width="1" stroke-linecap="round"/><path d="M340.53295,143.37833c0,0 3.51435,-0.56784 4.22549,-0.44572c1.27172,0.21838 3.47173,1.77246 3.47173,1.77246" data-paper-data="{&quot;origPos&quot;:null,&quot;origRot&quot;:0}" fill="none" stroke="#351c06" stroke-width="1.5" stroke-linecap="round"/><path d="M348.90994,151.02473c0,2.65462 -1.3841,4.8066 -3.09148,4.8066c-1.70738,0 -3.09148,-2.152 -3.09148,-4.8066c0,-2.65462 1.38411,-4.8066 3.09148,-4.8066c1.70738,0 3.09148,2.152 3.09148,4.8066z" data-paper-data="{&quot;origPos&quot;:null}" fill="#1121d4" stroke="none" stroke-width="0" stroke-linecap="butt"/><path d="M348.97722,150.88514c0,1.37271 -0.71572,2.4855 -1.59861,2.4855c-0.8829,0 -1.59861,-1.1128 -1.59861,-2.4855c0,-1.37271 0.71573,-2.4855 1.59861,-2.4855c0.8829,0 1.59861,1.1128 1.59861,2.4855z" data-paper-data="{&quot;origPos&quot;:null}" fill="#000000" stroke="none" stroke-width="0" stroke-linecap="butt"/><path d="M355.16295,143.46594c2.13325,0 3.8626,2.68875 3.8626,6.0055c0,3.31675 -1.72934,6.0055 -3.8626,6.0055c-2.13325,0 -3.8626,-2.68875 -3.8626,-6.0055c0,-3.31675 1.72934,-6.0055 3.8626,-6.0055z" data-paper-data="{&quot;origPos&quot;:null,&quot;index&quot;:null}" fill="#ffffff" stroke="none" stroke-width="0" stroke-linecap="butt"/><path d="M352.17604,143.87996c0,0 1.82422,-1.28863 2.87872,-1.46971c0.58967,-0.10126 3.50373,0.36959 3.50373,0.36959" data-paper-data="{&quot;origPos&quot;:null,&quot;origRot&quot;:0,&quot;index&quot;:null}" fill="none" stroke="#351c06" stroke-width="1.5" stroke-linecap="round"/><path d="M356.58257,145.34529c1.41573,0 2.56343,1.78441 2.56343,3.98557c0,2.20117 -1.14768,3.98557 -2.56343,3.98557c-1.41573,0 -2.56342,-1.78441 -2.56342,-3.98557c0,-2.20117 1.14768,-3.98557 2.56342,-3.98557z" data-paper-data="{&quot;origPos&quot;:null,&quot;index&quot;:null}" fill="#1121d4" stroke="none" stroke-width="0" stroke-linecap="butt"/><path d="M357.92058,147.27634c0.73209,0 1.32555,0.92272 1.32555,2.06095c0,1.13824 -0.59347,2.06095 -1.32555,2.06095c-0.73209,0 -1.32554,-0.92272 -1.32554,-2.06095c0,-1.13824 0.59347,-2.06095 1.32554,-2.06095z" data-paper-data="{&quot;origPos&quot;:null,&quot;index&quot;:null}" fill="#000000" stroke="none" stroke-width="0" stroke-linecap="butt"/><path d="M368.98693,162.02619c0,4.61431 -5.36707,8.35495 -11.98769,8.35495c-6.62061,0 -11.98769,-3.74063 -11.98769,-8.35495c0,-4.61431 5.36707,-8.35495 11.98769,-8.35495c6.62061,0 11.98769,3.74063 11.98769,8.35495z" data-paper-data="{&quot;origPos&quot;:null}" fill="url(#color-8)" stroke="#e0ce98" stroke-width="1.5" stroke-linecap="butt"/><path d="M314.73522,154.07742c-0.90455,2.82035 -4.76391,4.0237 -8.62013,2.68774c-3.85623,-1.33596 -6.24902,-4.70531 -5.34448,-7.52567c0.90455,-2.82035 4.76391,-4.0237 8.62013,-2.68774c3.85623,1.33596 6.24902,4.70531 5.34448,7.52567z" data-paper-data="{&quot;origRot&quot;:0,&quot;origPos&quot;:null}" fill="url(#color-9)" stroke="#e0ce98" stroke-width="1.5" stroke-linecap="butt"/></g><g data-paper-data="{&quot;origPos&quot;:null,&quot;origRot&quot;:0}" stroke-width="1.5" stroke-linecap="butt"><path d="M349.14231,226.45826c1.77987,2.95302 3.47868,8.80158 4.4841,12.10886c1.44596,4.75636 0.06506,6.25254 -4.37395,8.92806c-4.4588,2.68745 -5.58931,3.88532 -9.1285,0.363c-2.43429,-2.42271 -3.51634,-9.8449 -5.28481,-12.77899c-5.22221,-8.66429 -10.4447,-13.60111 -6.43487,-16.01795c0,0 6.70541,-3.37951 8.71819,-2.50104c5.80352,2.53293 6.79762,1.23377 12.01984,9.89809z" data-paper-data="{&quot;origPos&quot;:null}" fill="url(#color-10)" stroke="#001371"/><path d="M359.707,239.36463c5.95747,0.93507 5.61007,5.6507 3.95588,8.27472c-2.0031,3.17748 -10.56019,8.24038 -16.00765,8.84243c-5.44745,0.60205 -4.24524,-1.32062 -5.22542,-2.94687c-2.17932,-3.61575 -1.11293,-8.25445 5.52308,-12.25417c6.63602,-3.99971 5.79665,-2.85118 11.75411,-1.9161z" data-paper-data="{&quot;origPos&quot;:null}" fill="url(#color-11)" stroke="#6c4306"/></g><g data-paper-data="{&quot;origPos&quot;:null,&quot;origRot&quot;:0}" stroke-width="1.5" stroke-linecap="butt"><path d="M329.28548,187.48196c4.51114,8.60364 5.59626,16.92679 2.42367,18.59027c-3.17258,1.6635 -9.40147,-3.96262 -13.91265,-12.56625c-4.51114,-8.60364 -5.59626,-16.92679 -2.42367,-18.59027c3.17258,-1.6635 9.40147,3.96262 13.91265,12.56625z" data-paper-data="{&quot;origRot&quot;:0,&quot;origPos&quot;:null}" fill="url(#color-12)" stroke="#940000"/><path d="M338.00911,198.61174c5.36465,2.27922 7.92363,8.33989 5.71563,13.5369c-2.20799,5.19701 -8.34683,7.56234 -13.71147,5.28312c-5.36465,-2.27922 -7.92363,-8.33989 -5.71563,-13.5369c2.20799,-5.19701 8.34683,-7.56234 13.71147,-5.28312z" data-paper-data="{&quot;origPos&quot;:null,&quot;origRot&quot;:0}" fill="#ffffff" stroke="#bfbfbf"/></g><path d="M163.66167,175.61942c2.13388,2.48745 -1.51207,9.78828 -8.14342,16.30684c-6.63133,6.51856 -13.73694,9.78639 -15.87081,7.29892c-2.13386,-2.48748 1.51208,-9.78828 8.14343,-16.30683c6.63134,-6.51855 13.73696,-9.78639 15.87081,-7.29893z" data-paper-data="{&quot;origRot&quot;:0,&quot;origPos&quot;:null,&quot;index&quot;:null}" fill="url(#color-13)" stroke="#158e0e" stroke-width="1.5" stroke-linecap="butt"/><path d="M146.10479,202.71146c-0.83202,5.60073 -6.01031,9.53487 -11.566,8.78717c-5.55571,-0.74772 -9.38501,-5.89414 -8.553,-11.49489c0.83202,-5.60073 6.01029,-9.53488 11.566,-8.78717c5.5557,0.74772 9.38501,5.89414 8.553,11.49489z" data-paper-data="{&quot;origPos&quot;:null,&quot;index&quot;:null,&quot;origRot&quot;:0}" fill="#ffffff" stroke="#bfbfbf" stroke-width="1.5" stroke-linecap="butt"/><path d="M149.99312,235.52201c-1.44168,3.11192 -5.06027,7.99774 -7.08782,10.79193c-2.91592,4.01847 -4.60042,3.9985 -8.43592,2.58508c-3.8526,-1.41973 -5.21167,-1.45314 -4.08395,-6.15556c0.77566,-3.23438 5.8167,-8.6837 7.24913,-11.77566c4.22994,-9.13049 5.70101,-15.90457 9.16567,-14.62783c0,0 5.3038,2.5536 5.49487,4.51685c0,0 3.2497,-0.41866 2.68809,2.53444c-0.56551,2.97354 -0.76012,3.00028 -4.99007,12.13077z" data-paper-data="{&quot;origPos&quot;:null,&quot;origRot&quot;:0}" fill="url(#color-14)" stroke="#001371" stroke-width="1.5" stroke-linecap="butt"/><path d="M145.25354,251.59509c2.26052,4.62688 -1.21554,6.90009 -3.86487,7.15264c-3.20815,0.30584 -10.94617,-2.92496 -14.03469,-6.37898c-3.08852,-3.454 -1.15211,-3.64589 -0.49177,-5.1921c1.46819,-3.4378 5.24226,-5.17176 11.29458,-2.7054c6.05232,2.46634 4.83626,2.49696 7.09678,7.12385z" data-paper-data="{&quot;origPos&quot;:null,&quot;origRot&quot;:0}" fill="url(#color-15)" stroke="#6c4306" stroke-width="1.5" stroke-linecap="butt"/><path d="M168.19093,194.74169c0,9.05288 2.57396,17.82326 -2.43939,24.74147c-3.21333,4.43426 -9.69716,3.42719 -14.67924,3.42719c-4.98207,0 -11.4659,0.72087 -14.67924,-3.71336c-5.01335,-6.9182 -2.43939,-15.40242 -2.43939,-24.45528c0,-15.55712 7.66426,-28.41296 17.11863,-28.41296c0,0 9.72842,-0.88026 12.88897,5.50287c3.14566,6.35306 4.22966,7.35296 4.22966,22.91008z" data-paper-data="{&quot;origPos&quot;:null}" fill="url(#color-16)" stroke="#001371" stroke-width="1.5" stroke-linecap="butt"/><path d="M159.20572,178.7896c0,2.62738 1.18698,6.96445 -0.31003,8.77397c-1.61709,1.95463 -3.32827,2.85339 -5.5586,2.83935c-2.46992,-0.01556 -4.1733,-0.97936 -6.23486,-2.71042c-2.11879,-1.77912 -1.69451,-5.67266 -1.69451,-8.90289c0,-4.66196 3.0888,-8.44123 6.89902,-8.44123c3.8102,0 6.899,3.77928 6.899,8.44123z" data-paper-data="{&quot;origPos&quot;:null}" fill="url(#color-17)" stroke="none" stroke-width="0" stroke-linecap="butt"/><path d="M145.94361,186.75951c0,2.18281 -1.7773,3.95235 -3.96972,3.95235c-2.19242,0 -3.96972,-1.76953 -3.96972,-3.95235c0,-2.18281 1.7773,-3.95234 3.96972,-3.95234c2.19242,0 3.96972,1.76953 3.96972,3.95234z" data-paper-data="{&quot;origPos&quot;:null}" fill="#faff66" stroke="none" stroke-width="1.5" stroke-linecap="butt"/><path d="M167.23659,186.21742c0,2.12905 -1.73351,3.85499 -3.87193,3.85499c-2.13841,0 -3.87194,-1.72592 -3.87194,-3.85499c0,-2.12905 1.73353,-3.85499 3.87194,-3.85499c2.13841,0 3.87193,1.72592 3.87193,3.85499z" data-paper-data="{&quot;origPos&quot;:null}" fill="#faff66" stroke="none" stroke-width="1.5" stroke-linecap="butt"/><path d="M168.37941,228.73916c1.6658,2.96435 3.38797,8.60761 4.40048,11.80435c1.45616,4.59742 0.32904,5.81467 -3.38733,7.74575c-3.73294,1.9397 -4.65687,2.91114 -7.8667,-0.80131c-2.20775,-2.55349 -3.46602,-9.5812 -5.12114,-12.52655c-4.88753,-8.69754 -9.61263,-13.93351 -6.25557,-15.6779c0,0 5.6427,-2.30223 7.41909,-1.23541c5.12193,3.07601 5.92364,1.99351 10.81117,10.69105z" data-paper-data="{&quot;origPos&quot;:null,&quot;origRot&quot;:0}" fill="url(#color-18)" stroke="#001371" stroke-width="1.5" stroke-linecap="butt"/><path d="M176.92416,243.17096c4.90507,1.2531 4.62877,5.18212 3.27269,7.25351c-1.64212,2.5083 -8.67449,6.08289 -13.15667,6.15951c-4.48217,0.07663 -3.49664,-1.44189 -4.30668,-2.8834c-1.80101,-3.20497 -0.93283,-7.01289 4.52063,-9.8466c5.45346,-2.83372 4.76497,-1.93614 9.67004,-0.68302z" data-paper-data="{&quot;origPos&quot;:null,&quot;origRot&quot;:0}" fill="url(#color-19)" stroke="#6c4306" stroke-width="1.5" stroke-linecap="butt"/><path d="M149.34712,181.16836c4.89942,8.16913 6.31549,16.15722 3.16288,17.84187c-3.15261,1.68468 -9.68006,-3.57203 -14.57951,-11.74115c-4.89942,-8.16913 -6.31549,-16.15722 -3.16288,-17.84187c3.15261,-1.68468 9.68006,3.57203 14.57951,11.74115z" data-paper-data="{&quot;origRot&quot;:0,&quot;origPos&quot;:null}" fill="url(#color-20)" stroke="#158e0e" stroke-width="1.5" stroke-linecap="butt"/><path d="M158.61238,191.66096c5.5243,2.05567 8.34837,7.82636 6.30771,12.88919c-2.04064,5.06284 -8.17324,7.5006 -13.69755,5.44493c-5.5243,-2.05567 -8.34837,-7.82636 -6.30771,-12.88919c2.04064,-5.06284 8.17324,-7.5006 13.69755,-5.44493z" data-paper-data="{&quot;origPos&quot;:null,&quot;origRot&quot;:0}" fill="#ffffff" stroke="#bfbfbf" stroke-width="1.5" stroke-linecap="butt"/><path d="M177.34623,150.92477c0,9.46426 -5.14936,13.36708 -11.92352,18.23772c-4.72012,3.39379 -6.06853,6.36405 -11.57363,6.36405c-6.39728,0 -8.94794,-3.30629 -14.4308,-7.25452c-6.66848,-4.802 -12.11553,-8.18795 -12.11553,-17.50834c0,-4.8182 0.57271,-16.95775 2.65647,-21.0179c4.80207,-9.35672 14.74065,-2.92523 23.65922,-2.92523c0,0 14.51881,-4.05051 19.42967,4.84959c2.33042,4.22348 4.29814,5.94223 4.29814,19.25463z" data-paper-data="{&quot;origPos&quot;:null}" fill="url(#color-21)" stroke="#e0ce98" stroke-width="1" stroke-linecap="butt"/><path d="M177.4394,123.04633c7.39631,15.11148 -26.79497,11.50518 -29.2141,13.48533c-2.37591,1.94477 -0.74791,7.88992 -3.6175,7.88992c-4.02198,0 -8.45488,0.75854 -9.56057,5.43186c-0.63988,2.70458 2.37615,7.96646 0.12484,8.68095c-2.2178,0.70385 -4.06937,3.08219 -6.35839,3.24473c-1.85643,0.13183 -2.3832,-2.27943 -4.24263,-2.31289c-5.29533,-0.0953 0.72001,-12.71001 0.8452,-13.37155c0.04172,-0.22051 -1.10163,-4.72545 -1.10163,-6.91372c0,-11.86858 9.84594,-18.17991 16.30923,-18.17991c6.46328,0 29.41924,-13.06621 36.81555,2.04526z" data-paper-data="{&quot;origPos&quot;:null}" fill="#c27231" stroke="#985926" stroke-width="1.5" stroke-linecap="butt"/><path d="M176.96832,163.5638c0,0.93213 -1.05436,2.50632 -1.15734,3.43264c-0.21869,1.96727 -1.61583,3.00413 -3.57684,3.09236c-2.16435,0.09738 -5.99132,-2.41926 -5.99132,-2.41926c0,0 -2.87775,1.14475 -4.82459,1.5845c-1.63184,0.36859 -4.15503,0.12704 -5.64053,-0.62897c-1.0443,-0.53149 -2.66543,-2.7626 -3.30943,-3.74739c-2.03878,-3.11764 -7.28717,-7.70652 -2.80634,-8.84163c2.20464,-0.55851 8.73957,5.41242 11.0127,5.41242c0,0 3.80829,-0.01687 5.70018,0.08117c4.2897,0.22226 10.5935,-2.37763 10.5935,2.03417z" data-paper-data="{&quot;origPos&quot;:null}" fill="#160b02" stroke="none" stroke-width="0" stroke-linecap="butt"/><path d="M179.32542,127.25604c0,9.50579 -11.03409,3.65455 -26.30554,3.65455c-3.69718,0 -8.59054,7.83903 -12.28753,7.80441c-5.24124,-0.04907 -11.84335,2.36532 -15.98343,-0.73196c-2.92262,-2.18647 -0.72629,-7.1618 -0.72629,-10.72701c0,-8.05443 8.70145,-8.17081 16.24287,-11.64552c5.48182,-2.52573 5.55662,-6.51613 11.63295,-6.51613c0,0 12.43874,-1.74656 19.6767,0.79321c8.19439,2.87536 7.75028,7.86265 7.75028,17.36844z" data-paper-data="{&quot;origPos&quot;:null}" fill="url(#color-22)" stroke="#158e0e" stroke-width="1" stroke-linecap="butt"/><path d="M189.80766,132.97311c0,3.34757 -10.44299,0.28192 -24.00988,0.28192c-13.56688,0 -25.12017,3.06565 -25.12017,-0.28192c0,-3.34757 10.99813,-6.0613 24.56502,-6.0613c13.56688,0 24.56502,2.71374 24.56502,6.0613z" data-paper-data="{&quot;origPos&quot;:null}" fill="url(#color-23)" stroke="#158e0e" stroke-width="1" stroke-linecap="butt"/><path d="M175.25731,120.49391c0,2.06289 0.31298,3.48616 -1.25453,4.79793c-1.35299,1.13224 -9.04403,0.83548 -10.32229,-0.07418c-1.82086,-1.29582 -1.08988,-2.46558 -1.08988,-4.72376c0,-3.37043 2.83555,-6.10272 6.33336,-6.10272c3.49782,0 6.33335,2.73229 6.33335,6.10272z" data-paper-data="{&quot;origPos&quot;:null}" fill="#ffffff" stroke="#a4a4a4" stroke-width="1" stroke-linecap="butt"/><path d="M167.51597,144.80503c0,3.98034 -2.12367,7.20705 -4.74334,7.20705c-2.61968,0 -4.74334,-3.2267 -4.74334,-7.20705c0,-3.98034 2.12367,-7.20705 4.74334,-7.20705c2.61968,0 4.74334,3.2267 4.74334,7.20705z" data-paper-data="{&quot;origPos&quot;:null}" fill="#ffffff" stroke="none" stroke-width="0" stroke-linecap="butt"/><path d="M159.015,136.88654c0,0 3.57853,-0.56505 4.30266,-0.44353c1.29495,0.2173 3.53513,1.76375 3.53513,1.76375" data-paper-data="{&quot;origPos&quot;:null,&quot;origRot&quot;:0}" fill="none" stroke="#351c06" stroke-width="1.5" stroke-linecap="round"/><path d="M167.54498,144.49537c0,2.64158 -1.40938,4.78299 -3.14794,4.78299c-1.73856,0 -3.14794,-2.14143 -3.14794,-4.78299c0,-2.64158 1.40939,-4.78299 3.14794,-4.78299c1.73856,0 3.14794,2.14143 3.14794,4.78299z" data-paper-data="{&quot;origPos&quot;:null}" fill="#1121d4" stroke="none" stroke-width="0" stroke-linecap="butt"/><path d="M167.61349,144.35646c0,1.36597 -0.72879,2.47329 -1.62781,2.47329c-0.89902,0 -1.62781,-1.10733 -1.62781,-2.47329c0,-1.36597 0.7288,-2.47329 1.62781,-2.47329c0.89902,0 1.62781,1.10733 1.62781,2.47329z" data-paper-data="{&quot;origPos&quot;:null}" fill="#000000" stroke="none" stroke-width="0" stroke-linecap="butt"/><path d="M173.91219,136.97372c2.17221,0 3.93314,2.67553 3.93314,5.97599c0,3.30046 -1.76092,5.97599 -3.93314,5.97599c-2.17221,0 -3.93314,-2.67553 -3.93314,-5.97599c0,-3.30046 1.76092,-5.97599 3.93314,-5.97599z" data-paper-data="{&quot;origPos&quot;:null,&quot;index&quot;:null}" fill="#ffffff" stroke="none" stroke-width="0" stroke-linecap="butt"/><path d="M170.61616,136.40655c0,0 1.85754,-1.28231 2.93129,-1.46249c0.60044,-0.10077 3.56772,0.36777 3.56772,0.36777" data-paper-data="{&quot;origPos&quot;:null,&quot;origRot&quot;:0,&quot;index&quot;:null}" fill="none" stroke="#351c06" stroke-width="1.5" stroke-linecap="round"/><path d="M175.35774,138.84384c1.44159,0 2.61025,1.77565 2.61025,3.96598c0,2.19036 -1.16864,3.96598 -2.61025,3.96598c-1.44159,0 -2.61024,-1.77565 -2.61024,-3.96598c0,-2.19036 1.16864,-3.96598 2.61024,-3.96598z" data-paper-data="{&quot;origPos&quot;:null,&quot;index&quot;:null}" fill="#1121d4" stroke="none" stroke-width="0" stroke-linecap="butt"/><path d="M176.72018,140.7654c0.74546,0 1.34976,0.9182 1.34976,2.05083c0,1.13265 -0.60431,2.05083 -1.34976,2.05083c-0.74546,0 -1.34975,-0.9182 -1.34975,-2.05083c0,-1.13265 0.60431,-2.05083 1.34975,-2.05083z" data-paper-data="{&quot;origPos&quot;:null,&quot;index&quot;:null}" fill="#000000" stroke="none" stroke-width="0" stroke-linecap="butt"/><path d="M187.98864,155.44278c0,4.59164 -5.21052,8.56267 -11.95206,8.56267c-6.74152,0 -12.46119,-3.97103 -12.46119,-8.56267c0,-4.59164 5.46509,-8.31391 12.20662,-8.31391c6.74152,0 12.20662,3.72226 12.20662,8.31391z" data-paper-data="{&quot;origPos&quot;:null}" fill="url(#color-24)" stroke="#e0ce98" stroke-width="1.5" stroke-linecap="butt"/><path d="M140.48492,149.32423c-0.92107,2.80649 -4.85091,4.00393 -8.77756,2.67453c-3.92666,-1.32941 -6.36315,-4.6822 -5.44209,-7.4887c0.92107,-2.80649 4.85091,-4.00393 8.77756,-2.67453c3.92666,1.32941 6.36315,4.6822 5.44209,7.4887z" data-paper-data="{&quot;origRot&quot;:0,&quot;origPos&quot;:null}" fill="#ffefc0" stroke="#e0ce98" stroke-width="1.5" stroke-linecap="butt"/><path d="M171.75718,123.19245l-4.53402,-0.2181l0.06825,-5.58414" data-paper-data="{&quot;origPos&quot;:null}" fill="none" stroke="#158e0e" stroke-width="1" stroke-linecap="round"/></g></g></svg>