<svg version="1.1" xmlns="http://www.w3.org/2000/svg" xmlns:xlink="http://www.w3.org/1999/xlink" width="472.04688" height="170" viewBox="0,0,472.04688,170"><defs><linearGradient x1="79.90625" y1="323.12501" x2="79.90625" y2="383.12501" gradientUnits="userSpaceOnUse" id="color-1"><stop offset="0" stop-color="#ffaf26"/><stop offset="1" stop-color="#ffe1a0"/></linearGradient><linearGradient x1="165.40625" y1="299.12501" x2="165.40625" y2="383.12501" gradientUnits="userSpaceOnUse" id="color-2"><stop offset="0" stop-color="#ffaf26"/><stop offset="1" stop-color="#ffe1a0"/></linearGradient><linearGradient x1="209.40625" y1="275.12501" x2="209.40625" y2="383.12501" gradientUnits="userSpaceOnUse" id="color-3"><stop offset="0" stop-color="#ffaf26"/><stop offset="1" stop-color="#ffe1a0"/></linearGradient><linearGradient x1="389.42969" y1="217.12501" x2="389.42969" y2="381.12501" gradientUnits="userSpaceOnUse" id="color-4"><stop offset="0" stop-color="#ffaf26"/><stop offset="1" stop-color="#ffe1a0"/></linearGradient></defs><g transform="translate(-16.40625,-215.12501)"><g data-paper-data="{&quot;isPaintingLayer&quot;:true}" fill-rule="nonzero" stroke="#c38600" stroke-width="4" stroke-linejoin="miter" stroke-miterlimit="10" stroke-dasharray="" stroke-dashoffset="0" style="mix-blend-mode: normal"><path d="M18.40625,383.12501v-60h123v60z" fill="url(#color-1)" stroke-linecap="butt"/><path d="M145.40625,383.12501v-84h40v84z" fill="url(#color-2)" stroke-linecap="butt"/><path d="M189.40625,383.12501v-108h40v108z" fill="url(#color-3)" stroke-linecap="butt"/><path d="M292.40625,381.12501v-164h194.04688v164z" fill="url(#color-4)" stroke-linecap="butt"/><path d="M26.90625,333.42121l45,-1" fill="none" stroke-linecap="round"/><path d="M47.90625,344.42121l56,-2" fill="none" stroke-linecap="round"/><path d="M95.90625,329.42121h29" fill="none" stroke-linecap="round"/><path d="M302.90625,226.42121h47" fill="none" stroke-linecap="round"/><path d="M310.90625,253.42121h45" fill="none" stroke-linecap="round"/><path d="M362.90625,236.42121l53,-1" fill="none" stroke-linecap="round"/><path d="M388.90625,264.42121h47" fill="none" stroke-linecap="round"/><path d="M420.90626,246.42121h39" fill="none" stroke-linecap="round"/><path d="M314.90626,313.42121h51" fill="none" stroke-linecap="round"/><path d="M395.90626,331.42121h64" fill="none" stroke-linecap="round"/><path d="M421.90626,303.42121l37,-2" fill="none" stroke-linecap="round"/></g></g></svg>