<svg version="1.1" xmlns="http://www.w3.org/2000/svg" xmlns:xlink="http://www.w3.org/1999/xlink" width="457" height="221" viewBox="0,0,457,221"><defs><linearGradient x1="38.40625" y1="311.12501" x2="38.40625" y2="383.12501" gradientUnits="userSpaceOnUse" id="color-1"><stop offset="0" stop-color="#ffaf26"/><stop offset="1" stop-color="#ffe1a0"/></linearGradient><linearGradient x1="105.90625" y1="283.12501" x2="105.90625" y2="383.12501" gradientUnits="userSpaceOnUse" id="color-2"><stop offset="0" stop-color="#ffaf26"/><stop offset="1" stop-color="#ffe1a0"/></linearGradient><linearGradient x1="280.40625" y1="166.12501" x2="280.40625" y2="381.12501" gradientUnits="userSpaceOnUse" id="color-3"><stop offset="0" stop-color="#ffaf26"/><stop offset="1" stop-color="#ffe1a0"/></linearGradient><linearGradient x1="348.90625" y1="186.12501" x2="348.90625" y2="219.12501" gradientUnits="userSpaceOnUse" id="color-4"><stop offset="0" stop-color="#ffaf26"/><stop offset="1" stop-color="#ffe1a0"/></linearGradient><linearGradient x1="386.90625" y1="329.12501" x2="386.90625" y2="362.12501" gradientUnits="userSpaceOnUse" id="color-5"><stop offset="0" stop-color="#ffaf26"/><stop offset="1" stop-color="#ffe1a0"/></linearGradient></defs><g transform="translate(-16.40625,-164.12501)"><g data-paper-data="{&quot;isPaintingLayer&quot;:true}" fill-rule="nonzero" stroke="#c38600" stroke-width="4" stroke-linejoin="miter" stroke-miterlimit="10" stroke-dasharray="" stroke-dashoffset="0" style="mix-blend-mode: normal"><path d="M18.40625,383.12501v-72h40v72z" fill="url(#color-1)" stroke-linecap="butt"/><path d="M59.40625,383.12501v-100h93v100z" fill="url(#color-2)" stroke-linecap="butt"/><path d="M260.40625,381.12501v-215h40v215z" fill="url(#color-3)" stroke-linecap="butt"/><path d="M302.40625,219.12501v-33h93v33z" fill="url(#color-4)" stroke-linecap="butt"/><path d="M302.40625,362.12501v-33h169v33z" fill="url(#color-5)" stroke-linecap="butt"/><path d="M80.90625,304.42121l33,-2" fill="none" stroke-linecap="round"/><path d="M102.90625,326.42121l37,1" fill="none" stroke-linecap="round"/><path d="M72.90625,348.42121h15" fill="none" stroke-linecap="round"/><path d="M92.90625,371.42121l51,-12" fill="none" stroke-linecap="round"/><path d="M26.90625,337.42121l19,1" fill="none" stroke-linecap="round"/><path d="M37.90625,361.42121l16,1" fill="none" stroke-linecap="round"/><path d="M317.90625,200.42121h30" fill="none" stroke-linecap="round"/><path d="M349.90625,206.42121h30" fill="none" stroke-linecap="round"/><path d="M313.90625,343.42121l73,8" fill="none" stroke-linecap="round"/><path d="M375.90625,341.42121h60" fill="none" stroke-linecap="round"/><path d="M425.90625,357.42121l30,-3" fill="none" stroke-linecap="round"/></g></g></svg>