<svg version="1.1" xmlns="http://www.w3.org/2000/svg" xmlns:xlink="http://www.w3.org/1999/xlink" width="353.23953" height="226.53758" viewBox="0,0,353.23953,226.53758"><defs><radialGradient cx="136.95314" cy="199.3125" r="60" gradientUnits="userSpaceOnUse" id="color-1"><stop offset="0" stop-color="#00ff4c"/><stop offset="1" stop-color="#48983d"/></radialGradient><radialGradient cx="170.13176" cy="175.99149" r="7.98817" gradientUnits="userSpaceOnUse" id="color-2"><stop offset="0" stop-color="#ff5858"/><stop offset="1" stop-color="#f73434"/></radialGradient><radialGradient cx="170.13176" cy="172.97374" r="4.08284" gradientUnits="userSpaceOnUse" id="color-3"><stop offset="0" stop-color="#f78934"/><stop offset="1" stop-color="#f78934" stop-opacity="0"/></radialGradient></defs><g transform="translate(-76.95313,-32.77492)"><g data-paper-data="{&quot;isPaintingLayer&quot;:true}" fill-rule="nonzero" stroke="none" stroke-linecap="butt" stroke-linejoin="miter" stroke-miterlimit="10" stroke-dasharray="" stroke-dashoffset="0" style="mix-blend-mode: normal"><path d="M76.95314,199.3125c0,-33.13709 26.86292,-60 60,-60c33.13708,0 60,26.86291 60,60c0,33.13709 -26.86292,60 -60,60c-33.13708,0 -60,-26.86291 -60,-60z" fill="url(#color-1)" stroke-width="0"/><path d="M153.0919,167.93881c0.01712,-0.37458 0.22154,-2.60978 2.66115,-2.60978c2.66272,0 2.66272,2.66272 2.66272,2.66272l-0.40474,2.12131c-3.09565,4.95267 -5.90567,10.00792 -8.35751,15.31819c-0.71919,1.55764 -2.07141,6.71576 -4.74955,7.18542c-2.34705,0.4116 -6.47336,-3.65195 -7.55246,-4.84374c-1.79045,-1.97744 -2.81037,-4.54567 -3.97634,-6.94494c-2.43822,-5.0173 -3.70871,-9.77848 -3.7168,-15.32142c0,0 0,-2.66272 2.66272,-2.66272c2.66272,0 2.66272,2.66272 2.66272,2.66272c-0.01095,6.61526 2.52734,11.77088 5.7293,17.47245c0.26787,0.47698 0.40999,1.04053 0.77875,1.4446c0.43956,0.48167 1.36325,1.1142 2.00084,1.68594c0.36796,-0.98924 0.87728,-1.93459 1.31845,-2.89456c0.75402,-1.64074 1.61359,-3.23087 2.42118,-4.84591c1.80711,-3.61389 3.74396,-7.01209 5.85956,-10.43028z" fill="#13ae37" stroke-width="0.5"/><path d="M119.36408,192.79088c0.01712,-0.37458 0.22155,-2.60978 2.66115,-2.60978c2.66272,0 2.66272,2.66273 2.66272,2.66273l-0.40474,2.1213c-3.09565,4.95267 -5.90566,10.00792 -8.3575,15.31819c-0.71919,1.55764 -2.07141,6.71574 -4.74956,7.18542c-2.34704,0.4116 -6.47337,-3.65194 -7.55246,-4.84374c-1.79045,-1.97744 -2.81038,-4.54568 -3.97633,-6.94495c-2.43821,-5.0173 -3.7087,-9.77849 -3.7168,-15.32143c0,0 0,-2.66272 2.66272,-2.66272c2.66272,0 2.66273,2.66272 2.66273,2.66272c-0.01095,6.61526 2.52732,11.77089 5.72929,17.47246c0.26787,0.47698 0.41,1.04053 0.77875,1.44461c0.43956,0.48167 1.36325,1.11419 2.00084,1.68594c0.36798,-0.98924 0.87727,-1.93458 1.31845,-2.89455c0.75402,-1.64074 1.61359,-3.23087 2.42119,-4.84591c1.80711,-3.61389 3.74395,-7.01209 5.85956,-10.43028z" fill="#13ae37" stroke-width="0.5"/><path d="M179.3641,197.05123c0.01712,-0.37458 0.22155,-2.60978 2.66116,-2.60978c2.66272,0 2.66272,2.66273 2.66272,2.66273l-0.40474,2.1213c-3.09564,4.95267 -5.90567,10.00792 -8.35751,15.31819c-0.71919,1.55764 -2.07141,6.71574 -4.74955,7.18542c-2.34704,0.4116 -6.47336,-3.65194 -7.55246,-4.84374c-1.79045,-1.97744 -2.81037,-4.54568 -3.97633,-6.94495c-2.43822,-5.0173 -3.70871,-9.77849 -3.7168,-15.32143c0,0 0,-2.66272 2.66272,-2.66272c2.66272,0 2.66272,2.66272 2.66272,2.66272c-0.01095,6.61526 2.52733,11.77089 5.7293,17.47247c0.26787,0.47698 0.40999,1.04053 0.77875,1.44461c0.43956,0.48166 1.36326,1.11419 2.00084,1.68593c0.36798,-0.98924 0.87728,-1.93458 1.31844,-2.89455c0.75402,-1.64074 1.6136,-3.23087 2.42119,-4.84591c1.80712,-3.61389 3.74395,-7.01209 5.85956,-10.43029z" fill="#13ae37" stroke-width="0.5"/><path d="M145.63628,218.70804c0.01712,-0.37458 0.22155,-2.60977 2.66116,-2.60977c2.66272,0 2.66272,2.66272 2.66272,2.66272l-0.40474,2.1213c-3.09565,4.95267 -5.90567,10.00792 -8.35751,15.31819c-0.71919,1.55764 -2.07141,6.71574 -4.74955,7.18542c-2.34704,0.4116 -6.47337,-3.65194 -7.55246,-4.84374c-1.79045,-1.97744 -2.81037,-4.54568 -3.97633,-6.94495c-2.43821,-5.0173 -3.70871,-9.77849 -3.7168,-15.32142c0,0 0,-2.66272 2.66272,-2.66272c2.66272,0 2.66273,2.66272 2.66273,2.66272c-0.01095,6.61526 2.52733,11.77089 5.72929,17.47247c0.26787,0.47698 0.40999,1.04053 0.77875,1.4446c0.43956,0.48166 1.36325,1.11419 2.00084,1.68593c0.36798,-0.98924 0.87728,-1.93458 1.31844,-2.89455c0.75402,-1.64074 1.6136,-3.23087 2.42119,-4.8459c1.80712,-3.61389 3.74395,-7.0121 5.85956,-10.43029z" fill="#13ae37" stroke-width="0.5"/><path d="M162.14359,175.99149c0,-4.41174 3.57643,-7.98817 7.98817,-7.98817c4.41174,0 7.98817,3.57643 7.98817,7.98817c0,4.41174 -3.57643,7.98817 -7.98817,7.98817c-4.41174,0 -7.98817,-3.57643 -7.98817,-7.98817z" fill="url(#color-2)" stroke-width="0"/><path d="M166.04892,172.97374c0,-2.25489 1.82795,-4.08284 4.08284,-4.08284c2.25489,0 4.08284,1.82795 4.08284,4.08284c0,2.25489 -1.82796,4.08284 -4.08284,4.08284c-2.25489,0 -4.08284,-1.82795 -4.08284,-4.08284z" fill="url(#color-3)" stroke-width="0"/><path d="M173.97677,159.25655c0.49234,0.73851 -0.24617,1.23084 -0.24617,1.23084l-0.35098,0.19415c-2.58318,2.98784 -2.62656,7.17135 -2.62656,10.96084c0,0 0,0.88757 -0.88757,0.88757c-0.88757,0 -0.88757,-0.88757 -0.88757,-0.88757c0,-4.26713 0.1833,-8.7416 3.05391,-12.11609l0.71411,-0.5159c0,0 0.7385,-0.49234 1.23084,0.24617z" fill="#13ae37" stroke-width="0.5"/><path d="M430.19266,95.62538c0,34.71133 -17.23351,41.19862 -38.49213,41.19862c-21.25862,0 -38.49214,-6.48729 -38.49214,-41.19862c0,-34.71133 17.23352,-62.85046 38.49214,-62.85046c21.25862,0 38.49213,28.1391 38.49213,62.85046z" fill="#fff6bc" stroke-width="0"/><path d="M391.85085,123.14125c0,-13.28665 13.47743,-22.25328 26.76406,-22.25328c6.71856,0 10.84346,8.39776 10.84346,8.39776c0,0 -1.05231,6.8752 -8.46259,16.95975c-7.11725,9.68579 -21.93345,10.26184 -21.93345,10.26184c0,0 -7.21148,-5.23098 -7.21148,-13.36607z" fill="#ffdd00" stroke-width="0"/><path d="M357.14167,69.89106c0,0 4.0716,-1.18009 6.29117,-1.18009c9.54977,0 17.29139,7.74162 17.29139,17.29139c0,9.54977 -7.74162,17.29139 -17.29139,17.29139c-3.99228,0 -9.69316,-3.02397 -9.69316,-3.02397c0,0 -1.80414,-6.09659 -0.93938,-16.08549c0.95569,-11.03934 4.34137,-14.29323 4.34137,-14.29323z" fill="#ffdd00" stroke-width="0"/><path d="M390.64797,55.17856c0,-8.81947 14.51924,-17.94462 14.51924,-17.94462c0,0 6.82979,2.50067 11.99792,9.78482c5.01223,7.0644 7.98091,16.85879 7.98091,16.85879c0,0 -9.17089,9.64491 -16.15415,9.64491c-10.13108,0 -18.34391,-8.21285 -18.34391,-18.34391z" fill="#ffdd00" stroke-width="0"/><path d="M368.34837,113.98455c0,24.29829 -12.06363,28.83945 -26.94488,28.83945c-14.88125,0 -26.94489,-4.54117 -26.94489,-28.83945c0,-24.29829 12.06364,-43.99596 26.94489,-43.99596c14.88125,0 26.94488,19.69766 26.94488,43.99596z" fill="#8f9eff" stroke-width="0"/><path d="M341.50871,133.24593c0,-9.30079 9.43434,-15.57752 18.73512,-15.57752c4.70306,0 7.59053,5.87852 7.59053,5.87852c0,0 -0.73663,4.81271 -5.9239,11.872c-4.98215,6.78015 -15.35364,7.18339 -15.35364,7.18339c0,0 -5.04811,-3.66174 -5.04811,-9.35639z" fill="#0022ff" stroke-width="0"/><path d="M317.21193,95.97026c0,0 2.85016,-0.82607 4.40389,-0.82607c6.68494,0 12.10415,5.41921 12.10415,12.10415c0,6.68494 -5.41921,12.10415 -12.10415,12.10415c-2.79463,0 -6.78531,-2.11681 -6.78531,-2.11681c0,0 -1.26291,-4.26767 -0.65758,-11.26001c0.66899,-7.72765 3.039,-10.00541 3.039,-10.00541z" fill="#0022ff" stroke-width="0"/><path d="M340.66668,85.67136c0,-6.17372 10.16362,-12.56142 10.16362,-12.56142c0,0 4.78093,1.7505 8.39867,6.84947c3.50861,4.94515 5.58672,11.80133 5.58672,11.80133c0,0 -6.41972,6.75153 -11.30807,6.75153c-7.09186,0 -12.84092,-5.74908 -12.84092,-12.84092z" fill="#0022ff" stroke-width="0"/></g></g></svg>