<svg version="1.1" xmlns="http://www.w3.org/2000/svg" xmlns:xlink="http://www.w3.org/1999/xlink" width="44.81453" height="58.07559" viewBox="0,0,44.81453,58.07559"><defs><linearGradient x1="245.00001" y1="190.82527" x2="245.00001" y2="196.46263" gradientUnits="userSpaceOnUse" id="color-1"><stop offset="0" stop-color="#ffffff"/><stop offset="1" stop-color="#b7b7b7"/></linearGradient><linearGradient x1="240" y1="155.75934" x2="240" y2="204.24066" gradientUnits="userSpaceOnUse" id="color-2"><stop offset="0" stop-color="#ffffff"/><stop offset="1" stop-color="#b7b7b7"/></linearGradient><linearGradient x1="240.00001" y1="185.82527" x2="240.00001" y2="191.46263" gradientUnits="userSpaceOnUse" id="color-3"><stop offset="0" stop-color="#ffffff"/><stop offset="1" stop-color="#b7b7b7"/></linearGradient></defs><g transform="translate(-220.54263,-153.46156)"><g data-paper-data="{&quot;isPaintingLayer&quot;:true}" fill-rule="nonzero" stroke-width="4.5" stroke-linecap="round" stroke-linejoin="miter" stroke-miterlimit="10" stroke-dasharray="" stroke-dashoffset="0" style="mix-blend-mode: normal"><path d="M261.72418,188.57033l-0.75165,11.65055l-8.26813,9.01978l-16.16044,-0.75165l-8.64396,-7.51648l3.00659,-29.31429l8.26813,-9.01978l11.27473,-1.87912l11.65055,3.00659l-6.01319,12.02637l-9.77143,-3.75824l-5.26154,4.88571l-0.37582,3.75824l13.52967,0.37582z" fill="#000000" stroke="#000000"/><path d="M248.94616,192.70439l-1.87912,3.38242l-6.01319,0.37582v-3.00659l3.75824,-2.63077z" fill="url(#color-1)" stroke="#9d9d9d"/><path d="M256.72418,183.57033l-0.75165,11.65055l-8.26813,9.01978l-16.16044,-0.75165l-8.64396,-7.51648l3.00659,-29.31429l8.26813,-9.01978l11.27473,-1.87912l11.65055,3.00659l-6.01319,12.02637l-9.77143,-3.75824l-5.26154,4.88571l-0.37582,3.75824l13.52967,0.37582z" fill="url(#color-2)" stroke="#9d9d9d"/><path d="M243.94616,187.70439l-1.87912,3.38242l-6.01319,0.37582v-3.00659l3.75824,-2.63077z" fill="url(#color-3)" stroke="#9d9d9d"/></g></g></svg>