<svg version="1.1" xmlns="http://www.w3.org/2000/svg" xmlns:xlink="http://www.w3.org/1999/xlink" width="488.59525" height="269.50004" viewBox="0,0,488.59525,269.50004"><defs><linearGradient x1="239.3071" y1="291.00005" x2="239.3071" y2="330.29147" gradientUnits="userSpaceOnUse" id="color-1"><stop offset="0" stop-color="#17ff22"/><stop offset="1" stop-color="#02d10c"/></linearGradient><linearGradient x1="423.2224" y1="110.00005" x2="423.2224" y2="149.29147" gradientUnits="userSpaceOnUse" id="color-2"><stop offset="0" stop-color="#17ff22"/><stop offset="1" stop-color="#02d10c"/></linearGradient></defs><g transform="translate(5.00001,-108.50007)"><g data-paper-data="{&quot;isPaintingLayer&quot;:true}" fill-rule="nonzero" stroke-linejoin="miter" stroke-miterlimit="10" stroke-dasharray="" stroke-dashoffset="0" style="mix-blend-mode: normal"><path d="M367,299.00011v-166h111.76898v166z" fill="#98763d" stroke="none" stroke-width="0" stroke-linecap="butt"/><path d="M-5,378.00011v-64h485.67749v64z" fill="#98763d" stroke="none" stroke-width="0" stroke-linecap="butt"/><path d="M-3.48105,317.89333v-26.89326h485.5763v26.89326l-27.09183,1.75726l-44.11172,10.64086l-42.89812,-11.9986l-40.83458,10.37815l-40.85912,-10.67969l-43.53113,8.22474l-40.51877,-9.40523l-57.71491,12.49333l-42.82822,-13.2091l-56.39951,10.7627z" fill="url(#color-1)" stroke="#08a310" stroke-width="3" stroke-linecap="butt"/><path d="M49.16689,352.58434l-5.14528,-4.7255l6.92285,-13.31861l12.2179,-2.81752l-0.82062,7.88273z" data-paper-data="{&quot;index&quot;:null}" fill="#774b00" stroke="#703100" stroke-width="2" stroke-linecap="round"/><path d="M117.03049,338.18349l9.00381,-2.7239l11.56951,11.43564l-4.48265,12.01226l-8.95923,-3.84512z" data-paper-data="{&quot;index&quot;:null}" fill="#774b00" stroke="#703100" stroke-width="2" stroke-linecap="round"/><path d="M215.25057,348.76577l2.1848,-8.97088l8.76071,-0.89681l3.15977,12.05066l-4.787,4.26061z" data-paper-data="{&quot;index&quot;:null}" fill="#774b00" stroke="#703100" stroke-width="2" stroke-linecap="round"/><path d="M311.08412,336.48922l2.82436,8.63162l-10.78711,11.41504l-11.69166,-4.06634l3.51717,-8.731z" data-paper-data="{&quot;index&quot;:null}" fill="#774b00" stroke="#703100" stroke-width="2" stroke-linecap="round"/><path d="M398.56274,332.26998l4.62251,8.6798l-9.37649,14.18752l-13.22897,-2.15643l2.12292,-9.96865z" data-paper-data="{&quot;index&quot;:null}" fill="#774b00" stroke="#703100" stroke-width="2" stroke-linecap="round"/><path d="M367.34955,136.89333v-26.89326h111.74569v26.89326l-6.23464,1.75726l-10.15143,10.64086l-9.87215,-11.9986l-9.39726,10.37815l-9.40291,-10.67969l-10.01782,8.22474l-9.32458,-9.40523l-13.28194,12.49333l-9.85606,-13.2091l-12.97922,10.7627z" fill="url(#color-2)" stroke="#08a310" stroke-width="3" stroke-linecap="butt"/><path d="M401.03049,168.18349l9.00381,-2.7239l11.56951,11.43564l-4.48265,12.01226l-8.95923,-3.84512z" data-paper-data="{&quot;index&quot;:null}" fill="#774b00" stroke="#703100" stroke-width="2" stroke-linecap="round"/><path d="M414.49955,273.14989l-9.01996,5.72599l-16.92699,-15.50645l0.68311,-19.16349l11.31768,4.33778z" data-paper-data="{&quot;index&quot;:null}" fill="#774b00" stroke="#703100" stroke-width="2" stroke-linecap="round"/><path d="M453.45449,246.77978l-8.34203,-3.74267l3.09472,-19.39997l14.00888,-8.54671l2.2376,10.12828z" data-paper-data="{&quot;index&quot;:null}" fill="#774b00" stroke="#703100" stroke-width="2" stroke-linecap="round"/></g></g></svg>