<svg version="1.1" xmlns="http://www.w3.org/2000/svg" xmlns:xlink="http://www.w3.org/1999/xlink" width="25.18508" height="26.66402"><defs><linearGradient x1="240" y1="167.16799" x2="240" y2="192.83201" gradientUnits="userSpaceOnUse" id="color-1"><stop offset="0" stop-color="#fffd3f"/><stop offset="1" stop-color="#ccc933"/></linearGradient></defs><g transform="translate(-227.40746,-166.66799)"><g data-paper-data="{&quot;isPaintingLayer&quot;:true}" fill-rule="nonzero" stroke="#a3b100" stroke-width="1" stroke-linecap="butt" stroke-linejoin="miter" stroke-miterlimit="10" stroke-dasharray="" stroke-dashoffset="0" style="mix-blend-mode: normal"><path d="M252.09254,180c0,7.08692 -5.41401,12.83201 -12.09254,12.83201c-6.67853,0 -12.09254,-5.74508 -12.09254,-12.83201c0,-7.08692 5.41401,-12.83201 12.09254,-12.83201c6.67853,0 12.09254,5.74508 12.09254,12.83201z" data-paper-data="{&quot;origPos&quot;:null}" fill="url(#color-1)"/><path d="M249.58917,180c0,5.6198 -4.29322,10.17555 -9.58917,10.17555c-5.29595,0 -9.58917,-4.55575 -9.58917,-10.17555c0,-5.6198 4.29322,-10.17555 9.58917,-10.17555c5.29595,0 9.58917,4.55575 9.58917,10.17555z" data-paper-data="{&quot;origPos&quot;:null}" fill="none"/><path d="M238.66569,186.81981v-13.63963h2.66862v13.63963z" data-paper-data="{&quot;origPos&quot;:null}" fill="none"/></g></g></svg>