<svg version="1.1" xmlns="http://www.w3.org/2000/svg" xmlns:xlink="http://www.w3.org/1999/xlink" width="36.00768" height="34.22071" viewBox="0,0,36.00768,34.22071"><defs><linearGradient x1="240" y1="163.88965" x2="240" y2="196.11036" gradientUnits="userSpaceOnUse" id="color-1"><stop offset="0" stop-color="#97643c"/><stop offset="1" stop-color="#533822"/></linearGradient></defs><g transform="translate(-221.99616,-162.88965)"><g data-paper-data="{&quot;isPaintingLayer&quot;:true}" fill-rule="nonzero" stroke-linecap="butt" stroke-linejoin="miter" stroke-miterlimit="10" stroke-dasharray="" stroke-dashoffset="0" style="mix-blend-mode: normal"><path d="M222.99616,196.11036v-32.22071h34.00768v32.22071z" fill="url(#color-1)" stroke="#2d1e12" stroke-width="2"/><path d="M229.15315,167.82822c0,0.8896 -0.72116,1.61076 -1.61076,1.61076c-0.8896,0 -1.61076,-0.72116 -1.61076,-1.61076c0,-0.8896 0.72116,-1.61076 1.61076,-1.61076c0.8896,0 1.61076,0.72116 1.61076,1.61076z" fill="#2d1e12" stroke="none" stroke-width="0"/><path d="M228.97069,192.29745c0,0.8896 -0.72117,1.61077 -1.61077,1.61077c-0.8896,0 -1.61076,-0.72117 -1.61076,-1.61077c0,-0.8896 0.72116,-1.61076 1.61076,-1.61076c0.8896,0 1.61077,0.72116 1.61077,1.61076z" fill="#2d1e12" stroke="none" stroke-width="0"/><path d="M254.04259,167.78582c0,0.8896 -0.72116,1.61076 -1.61076,1.61076c-0.8896,0 -1.61076,-0.72116 -1.61076,-1.61076c0,-0.8896 0.72116,-1.61076 1.61076,-1.61076c0.8896,0 1.61076,0.72116 1.61076,1.61076z" fill="#2d1e12" stroke="none" stroke-width="0"/><path d="M254.14026,192.25506c0,0.8896 -0.72117,1.61077 -1.61077,1.61077c-0.8896,0 -1.61076,-0.72117 -1.61076,-1.61077c0,-0.8896 0.72116,-1.61076 1.61076,-1.61076c0.8896,0 1.61077,0.72116 1.61077,1.61076z" fill="#2d1e12" stroke="none" stroke-width="0"/></g></g></svg>