<svg version="1.1" xmlns="http://www.w3.org/2000/svg" xmlns:xlink="http://www.w3.org/1999/xlink" width="81.42586" height="149.0025" viewBox="0,0,81.42586,149.0025"><defs><linearGradient x1="260.61039" y1="174.90801" x2="260.61039" y2="206.14354" gradientUnits="userSpaceOnUse" id="color-1"><stop offset="0" stop-color="#d21515"/><stop offset="1" stop-color="#940000"/></linearGradient><linearGradient x1="246.831" y1="214.08723" x2="246.831" y2="249.73803" gradientUnits="userSpaceOnUse" id="color-2"><stop offset="0" stop-color="#364ec7"/><stop offset="1" stop-color="#001371"/></linearGradient><linearGradient x1="244.54124" y1="243.7023" x2="244.54124" y2="258.68518" gradientUnits="userSpaceOnUse" id="color-3"><stop offset="0" stop-color="#a6680a"/><stop offset="1" stop-color="#6c4306"/></linearGradient><linearGradient x1="240.07517" y1="163.86223" x2="240.07517" y2="222.27298" gradientUnits="userSpaceOnUse" id="color-4"><stop offset="0" stop-color="#364ec7"/><stop offset="1" stop-color="#001371"/></linearGradient><linearGradient x1="241.66483" y1="169.10466" x2="241.66483" y2="189.35287" gradientUnits="userSpaceOnUse" id="color-5"><stop offset="0" stop-color="#d21515"/><stop offset="1" stop-color="#940000"/></linearGradient><linearGradient x1="240.51095" y1="129.34421" x2="240.51095" y2="179.28194" gradientUnits="userSpaceOnUse" id="color-6"><stop offset="0" stop-color="#ffefc0"/><stop offset="1" stop-color="#e0ce98"/></linearGradient><linearGradient x1="240.63481" y1="110.66052" x2="240.63481" y2="144.11796" gradientUnits="userSpaceOnUse" id="color-7"><stop offset="0" stop-color="#d21515"/><stop offset="1" stop-color="#940000"/></linearGradient><linearGradient x1="258.24889" y1="130.78249" x2="258.24889" y2="138.34385" gradientUnits="userSpaceOnUse" id="color-8"><stop offset="0" stop-color="#d21515"/><stop offset="1" stop-color="#940000"/></linearGradient><linearGradient x1="266.99924" y1="151.61785" x2="266.99924" y2="168.10499" gradientUnits="userSpaceOnUse" id="color-9"><stop offset="0" stop-color="#ffefc0"/><stop offset="1" stop-color="#e0ce98"/></linearGradient><linearGradient x1="217.75291" y1="144.05527" x2="217.75291" y2="155.20853" gradientUnits="userSpaceOnUse" id="color-10"><stop offset="0" stop-color="#ffefc0"/><stop offset="1" stop-color="#e0ce98"/></linearGradient><linearGradient x1="230.98411" y1="214.51774" x2="230.98411" y2="248.86691" gradientUnits="userSpaceOnUse" id="color-11"><stop offset="0" stop-color="#364ec7"/><stop offset="1" stop-color="#001371"/></linearGradient><linearGradient x1="238.20274" y1="240.64336" x2="238.20274" y2="256.138" gradientUnits="userSpaceOnUse" id="color-12"><stop offset="0" stop-color="#a6680a"/><stop offset="1" stop-color="#6c4306"/></linearGradient><linearGradient x1="219.87409" y1="174.88286" x2="219.87409" y2="206.70127" gradientUnits="userSpaceOnUse" id="color-13"><stop offset="0" stop-color="#d21515"/><stop offset="1" stop-color="#940000"/></linearGradient></defs><g transform="translate(-201.44747,-110.16052)"><g data-paper-data="{&quot;isPaintingLayer&quot;:true}" fill-rule="nonzero" stroke-linejoin="miter" stroke-miterlimit="10" stroke-dasharray="" stroke-dashoffset="0" style="mix-blend-mode: normal"><path d="" data-paper-data="{&quot;origPos&quot;:null}" fill="#c1770b" stroke="#6c4306" stroke-width="1.5" stroke-linecap="butt"/><g data-paper-data="{&quot;origPos&quot;:null,&quot;origRot&quot;:0}" stroke-width="1.5" stroke-linecap="butt"><path d="M252.64286,175.18228c3.16699,-1.60101 9.30155,3.97065 13.70189,12.44463c4.40035,8.47399 5.40018,16.64134 2.23318,18.24236c-3.16701,1.601 -9.30157,-3.97064 -13.7019,-12.44462c-4.40035,-8.47399 -5.40018,-16.64137 -2.23317,-18.24236z" data-paper-data="{&quot;origRot&quot;:0,&quot;origPos&quot;:null,&quot;index&quot;:null}" fill="url(#color-1)" stroke="#940000"/><path d="M271.05468,198.7033c5.48281,1.16798 8.93691,6.64173 7.71497,12.22594c-1.22195,5.58422 -6.65722,9.16428 -12.14004,7.9963c-5.48279,-1.16798 -8.93691,-6.64173 -7.71497,-12.22594c1.22195,-5.58422 6.65723,-9.16428 12.14004,-7.9963z" data-paper-data="{&quot;origPos&quot;:null,&quot;index&quot;:null}" fill="#ffffff" stroke="#bfbfbf"/></g><g data-paper-data="{&quot;origPos&quot;:null,&quot;origRot&quot;:0}" stroke-width="1.5" stroke-linecap="butt"><path d="M256.36709,233.28675c-0.56668,3.40433 -3.07216,8.95597 -4.45506,12.12455c-1.98882,4.5569 -4.00474,4.79343 -9.1014,3.93222c-5.11938,-0.86504 -6.75225,-0.69192 -7.14888,-5.67589c-0.2728,-3.42804 3.72009,-9.77331 4.28314,-13.15581c1.66266,-9.98844 0.90831,-17.14471 5.5122,-16.36677c0,0 7.26959,1.80395 8.22439,3.78377c0,0 3.71977,-0.92418 4.14363,2.18337c0.42679,3.12906 0.20464,3.18611 -1.45803,13.17456z" data-paper-data="{&quot;origPos&quot;:null,&quot;origRot&quot;:0}" fill="url(#color-2)" stroke="#001371"/><path d="M254.75915,250.0839c3.85569,4.40084 0.71178,7.514 -2.12346,8.32911c-3.43327,0.98706 -12.89155,-0.80875 -17.30882,-3.80353c-4.41726,-2.99478 -2.34714,-3.5982 -2.08048,-5.36244c0.59286,-3.92251 4.2241,-6.52992 11.60394,-5.18914c7.37985,1.34078 6.05315,1.62515 9.90884,6.02599z" data-paper-data="{&quot;origPos&quot;:null,&quot;origRot&quot;:0}" fill="url(#color-3)" stroke="#6c4306"/></g><g data-paper-data="{&quot;origPos&quot;:null}" stroke-linecap="butt"><path d="M258.9692,193.73334c0,9.14022 2.84091,17.99523 -2.69239,24.98019c-3.54659,4.47704 -10.70286,3.46026 -16.20164,3.46026c-5.49877,0 -12.65505,0.72783 -16.20165,-3.74919c-5.5333,-6.98495 -2.69238,-15.55103 -2.69238,-24.69124c0,-15.70723 8.45914,-28.44044 18.89403,-28.44044c0,0 11.73737,-4.34209 15.22571,2.10263c3.4719,6.41435 3.66832,10.63058 3.66832,26.3378z" data-paper-data="{&quot;origPos&quot;:null}" fill="url(#color-4)" stroke="#001371" stroke-width="1.5"/><path d="M249.05212,177.62733c0,2.65273 1.31009,7.03165 -0.34219,8.85862c-1.7848,1.97349 -3.67346,2.88093 -6.1351,2.86675c-2.72608,-0.01571 -4.60612,-0.98881 -6.88148,-2.73658c-2.33853,-1.79628 -1.87025,-5.7274 -1.87025,-8.98879c0,-4.70694 3.40914,-8.52268 7.61452,-8.52268c4.20537,0 7.61451,3.81574 7.61451,8.52268z" data-paper-data="{&quot;origPos&quot;:null}" fill="url(#color-5)" stroke="none" stroke-width="0"/><path d="M234.41458,185.67415c0,2.20387 -1.96162,3.99048 -4.38142,3.99048c-2.4198,0 -4.38143,-1.7866 -4.38143,-3.99048c0,-2.20387 1.96163,-3.99047 4.38143,-3.99047c2.4198,0 4.38142,1.7866 4.38142,3.99047z" data-paper-data="{&quot;origPos&quot;:null}" fill="#faff66" stroke="none" stroke-width="1.5"/><path d="M257.91589,185.12683c0,2.1496 -1.9133,3.89218 -4.2735,3.89218c-2.36019,0 -4.2735,-1.74258 -4.2735,-3.89218c0,-2.1496 1.91331,-3.89218 4.2735,-3.89218c2.36019,0 4.2735,1.74258 4.2735,3.89218z" data-paper-data="{&quot;origPos&quot;:null}" fill="#faff66" stroke="none" stroke-width="1.5"/></g><g data-paper-data="{&quot;origPos&quot;:null}"><path d="M270.6324,155.38163c0,13.19976 -13.73475,23.90031 -28.56379,23.90031c-14.82904,0 -31.67913,-10.86026 -31.67913,-24.06004c0,-4.77744 0.68944,-16.81429 3.19789,-20.84009c5.78078,-9.27756 17.74496,-2.90048 28.48124,-2.90048c0,0 17.47791,-4.01625 23.38966,4.80857c2.80538,4.18775 5.17415,5.89196 5.17415,19.09174z" data-paper-data="{&quot;origPos&quot;:null}" fill="url(#color-6)" stroke="#e0ce98" stroke-width="1" stroke-linecap="butt"/><path d="M268.50909,128.61758c8.09723,14.03788 -29.33424,10.68778 -31.98263,12.52726c-2.60107,1.80661 -0.81879,7.32938 -3.96033,7.32938c-4.40313,0 -9.25612,0.70465 -10.46658,5.04595c-0.70052,2.51243 2.60132,7.40048 0.13667,8.0642c-2.42796,0.65385 -4.70501,2.61654 -7.21096,2.76755c-2.03236,0.12247 -2.35905,-1.87082 -4.39469,-1.9019c-5.79716,-0.08852 0.78824,-11.80702 0.9253,-12.42156c0.04568,-0.20484 -1.20602,-4.38973 -1.20602,-6.42253c0,-11.02537 10.77902,-16.88831 17.8548,-16.88831c7.07578,0 32.2072,-12.13792 40.30444,1.89996z" data-paper-data="{&quot;origPos&quot;:null}" fill="#5a3413" stroke="#351c06" stroke-width="1" stroke-linecap="butt"/><path d="M267.91427,167.66706c0,0.92424 -1.03545,2.23845 -1.13658,3.15694c-0.21477,1.95063 -1.58685,2.97872 -3.51269,3.06619c-2.12553,0.09656 -3.01604,-2.01602 -5.14035,-2.13733c-1.47465,-0.08423 -1.53991,1.72269 -3.01688,1.72269c-1.60871,0 -1.59206,-1.45491 -3.17663,-1.73748c-2.16384,-0.38587 -2.86624,1.70851 -4.82742,0.70077c-1.02557,-0.52699 -2.61762,-2.73922 -3.25007,-3.71569c-2.00221,-3.09126 -6.90647,-7.14799 -2.50601,-8.2735c2.1651,-0.55378 8.33282,5.11996 10.56518,5.11996c0,0 3.73999,-0.01672 5.59794,0.08048c4.21276,0.22038 10.4035,-2.35751 10.4035,2.01697z" data-paper-data="{&quot;origPos&quot;:null}" fill="#5a3413" stroke="#351c06" stroke-width="1" stroke-linecap="butt"/><path d="M271.87853,131.05279c0,10.08978 -12.29169,3.87907 -29.30368,3.87907c-4.11857,0 -9.56963,8.32062 -13.688,8.28387c-5.83861,-0.05208 -13.19319,2.51063 -17.80513,-0.77693c-3.25572,-2.3208 -0.80907,-7.60179 -0.80907,-11.38602c0,-8.54925 9.69318,-8.67279 18.09413,-12.36097c6.1066,-2.68091 5.93994,-7.40978 12.70881,-7.40978c0,0 13.85643,-1.85385 21.91934,0.84194c9.12834,3.05201 8.8836,8.83902 8.8836,18.92881z" data-paper-data="{&quot;origPos&quot;:null}" fill="url(#color-7)" stroke="#940000" stroke-width="1" stroke-linecap="butt"/><path d="M282.37333,136.7925c0,3.31924 -10.25569,0.27953 -23.57925,0.27953c-13.32355,0 -24.66962,3.03971 -24.66962,-0.27953c0,-3.31924 10.80087,-6.01002 24.12443,-6.01002c13.32355,0 24.12443,2.69077 24.12443,6.01002z" data-paper-data="{&quot;origPos&quot;:null}" fill="url(#color-8)" stroke="#940000" stroke-width="1" stroke-linecap="butt"/><path d="M266.48394,124.81354c0,2.04543 0.30737,3.45668 -1.23203,4.75734c-1.32872,1.12266 -8.88182,0.82842 -10.13715,-0.07356c-1.7882,-1.28485 -1.07033,-2.44472 -1.07033,-4.68379c0,-3.34192 2.78469,-6.05109 6.21977,-6.05109c3.43508,0 6.21976,2.70918 6.21976,6.05109z" data-paper-data="{&quot;origPos&quot;:null}" fill="#ffffff" stroke="#a4a4a4" stroke-width="1" stroke-linecap="butt"/><path d="M258.88145,149.31366c0,3.94667 -2.08558,7.14608 -4.65827,7.14608c-2.57269,0 -4.65827,-3.19941 -4.65827,-7.14608c0,-3.94667 2.08558,-7.14609 4.65827,-7.14609c2.57269,0 4.65827,3.19941 4.65827,7.14609z" data-paper-data="{&quot;origPos&quot;:null}" fill="#ffffff" stroke="none" stroke-width="0" stroke-linecap="butt"/><path d="M256.59388,127.66766l1.71344,-5.27124l2.02498,3.51416l1.55767,-3.67389l2.3365,4.95178" data-paper-data="{&quot;origPos&quot;:null}" fill="none" stroke="#ba0000" stroke-width="1" stroke-linecap="round"/><path d="M250.53295,141.46216c0,0 3.51435,-0.56027 4.22549,-0.43978c1.27172,0.21547 3.47173,1.74883 3.47173,1.74883" data-paper-data="{&quot;origPos&quot;:null,&quot;origRot&quot;:0}" fill="none" stroke="#351c06" stroke-width="1.5" stroke-linecap="round"/><path d="M258.90994,149.00663c0,2.61923 -1.3841,4.74252 -3.09148,4.74252c-1.70738,0 -3.09148,-2.12331 -3.09148,-4.74252c0,-2.61923 1.38411,-4.74252 3.09148,-4.74252c1.70738,0 3.09148,2.12331 3.09148,4.74252z" data-paper-data="{&quot;origPos&quot;:null}" fill="#1121d4" stroke="none" stroke-width="0" stroke-linecap="butt"/><path d="M258.97722,148.8689c0,1.35441 -0.71572,2.45237 -1.59861,2.45237c-0.8829,0 -1.59861,-1.09797 -1.59861,-2.45237c0,-1.35441 0.71573,-2.45237 1.59861,-2.45237c0.8829,0 1.59861,1.09797 1.59861,2.45237z" data-paper-data="{&quot;origPos&quot;:null}" fill="#000000" stroke="none" stroke-width="0" stroke-linecap="butt"/><path d="M265.16295,141.5486c2.13325,0 3.8626,2.65291 3.8626,5.92544c0,3.27253 -1.72934,5.92544 -3.8626,5.92544c-2.13325,0 -3.8626,-2.65291 -3.8626,-5.92544c0,-3.27253 1.72934,-5.92544 3.8626,-5.92544z" data-paper-data="{&quot;origPos&quot;:null,&quot;index&quot;:null}" fill="#ffffff" stroke="none" stroke-width="0" stroke-linecap="butt"/><path d="M262.17604,141.9571c0,0 1.82422,-1.27145 2.87872,-1.45012c0.58967,-0.09991 3.50373,0.36466 3.50373,0.36466" data-paper-data="{&quot;origPos&quot;:null,&quot;origRot&quot;:0,&quot;index&quot;:null}" fill="none" stroke="#351c06" stroke-width="1.5" stroke-linecap="round"/><path d="M266.58257,143.4029c1.41573,0 2.56343,1.76062 2.56343,3.93244c0,2.17183 -1.14768,3.93244 -2.56343,3.93244c-1.41573,0 -2.56342,-1.76062 -2.56342,-3.93244c0,-2.17183 1.14768,-3.93244 2.56342,-3.93244z" data-paper-data="{&quot;origPos&quot;:null,&quot;index&quot;:null}" fill="#1121d4" stroke="none" stroke-width="0" stroke-linecap="butt"/><path d="M267.92058,145.30821c0.73209,0 1.32555,0.91042 1.32555,2.03348c0,1.12307 -0.59347,2.03348 -1.32555,2.03348c-0.73209,0 -1.32554,-0.91042 -1.32554,-2.03348c0,-1.12307 0.59347,-2.03348 1.32554,-2.03348z" data-paper-data="{&quot;origPos&quot;:null,&quot;index&quot;:null}" fill="#000000" stroke="none" stroke-width="0" stroke-linecap="butt"/><path d="M278.98693,159.86142c0,4.5528 -5.36707,8.24357 -11.98769,8.24357c-6.62061,0 -11.98769,-3.69076 -11.98769,-8.24357c0,-4.5528 5.36707,-8.24357 11.98769,-8.24357c6.62061,0 11.98769,3.69076 11.98769,8.24357z" data-paper-data="{&quot;origPos&quot;:null}" fill="url(#color-9)" stroke="#e0ce98" stroke-width="1.5" stroke-linecap="butt"/><path d="M224.73522,152.01862c-0.90455,2.78275 -4.76391,3.97006 -8.62013,2.65191c-3.85623,-1.31815 -6.24902,-4.64258 -5.34448,-7.42534c0.90455,-2.78275 4.76391,-3.97006 8.62013,-2.65191c3.85623,1.31815 6.24902,4.64258 5.34448,7.42534z" data-paper-data="{&quot;origRot&quot;:0,&quot;origPos&quot;:null}" fill="url(#color-10)" stroke="#e0ce98" stroke-width="1.5" stroke-linecap="butt"/></g><g data-paper-data="{&quot;origPos&quot;:null,&quot;origRot&quot;:0}" stroke-width="1.5" stroke-linecap="butt"><path d="M240.53657,228.00314c0.83611,3.30044 0.74598,9.30888 0.73781,12.7195c-0.01173,4.90501 -1.77053,5.91703 -6.79881,7.15712c-5.05069,1.24562 -6.48266,2.04865 -8.83394,-2.29764c-1.61723,-2.98944 -0.47617,-10.30396 -1.30692,-13.58323c-2.45317,-9.68361 -5.99919,-15.85106 -1.45707,-16.97126c0,0 7.40148,-1.24872 9.06835,0.16209c4.80616,4.06783 6.1374,3.1298 8.59057,12.81343z" data-paper-data="{&quot;origPos&quot;:null}" fill="url(#color-11)" stroke="#001371"/><path d="M246.85413,243.23354c5.42171,2.60504 3.70733,6.95297 1.35665,8.94988c-2.8465,2.4181 -12.51175,4.71929 -17.89641,3.71175c-5.38465,-1.00753 -3.67167,-2.47355 -4.13212,-4.29112c-1.02375,-4.04113 1.35548,-8.10854 8.87241,-9.9624c7.51693,-1.85384 6.37777,-1.01315 11.79947,1.5919z" data-paper-data="{&quot;origPos&quot;:null}" fill="url(#color-12)" stroke="#6c4306"/></g><g data-paper-data="{&quot;origPos&quot;:null,&quot;origRot&quot;:0}" stroke-width="1.5" stroke-linecap="butt"><path d="M225.72912,193.54592c-4.18024,8.65228 -10.19037,14.43341 -13.424,12.9125c-3.23364,-1.52089 -2.46626,-9.7679 1.71395,-18.42021c4.18024,-8.65228 10.19037,-14.43341 13.424,-12.9125c3.23364,1.52089 2.46626,9.7679 -1.71395,18.42021z" data-paper-data="{&quot;origRot&quot;:0,&quot;origPos&quot;:null}" fill="url(#color-13)" stroke="#940000"/><path d="M222.05323,207.01899c1.39283,5.58444 -1.92292,11.19076 -7.40595,12.52207c-5.48302,1.33132 -11.05699,-2.11652 -12.44981,-7.70095c-1.39283,-5.58444 1.92292,-11.19076 7.40595,-12.52207c5.48302,-1.33132 11.05699,2.11652 12.44981,7.70095z" data-paper-data="{&quot;origPos&quot;:null,&quot;origRot&quot;:0}" fill="#ffffff" stroke="#bfbfbf"/></g></g></g></svg>