<svg version="1.1" xmlns="http://www.w3.org/2000/svg" xmlns:xlink="http://www.w3.org/1999/xlink" width="459" height="253" viewBox="0,0,459,253"><defs><linearGradient x1="81.44025" y1="264.12501" x2="81.44025" y2="386.12501" gradientUnits="userSpaceOnUse" id="color-1"><stop offset="0" stop-color="#ffaf26"/><stop offset="1" stop-color="#ffe1a0"/></linearGradient><linearGradient x1="172.37225" y1="215.12501" x2="172.37225" y2="386.12501" gradientUnits="userSpaceOnUse" id="color-2"><stop offset="0" stop-color="#ffaf26"/><stop offset="1" stop-color="#ffe1a0"/></linearGradient><linearGradient x1="430.90625" y1="137.12501" x2="430.90625" y2="386.12501" gradientUnits="userSpaceOnUse" id="color-3"><stop offset="0" stop-color="#ffaf26"/><stop offset="1" stop-color="#ffe1a0"/></linearGradient></defs><g transform="translate(-35.40625,-135.12501)"><g data-paper-data="{&quot;isPaintingLayer&quot;:true}" fill-rule="nonzero" stroke="#c38600" stroke-width="4" stroke-linejoin="miter" stroke-miterlimit="10" stroke-dasharray="" stroke-dashoffset="0" style="mix-blend-mode: normal"><path d="M37.40625,386.12501v-122h88.068v122z" fill="url(#color-1)" stroke-linecap="butt"/><path d="M128.33825,386.12501v-171h88.068v171z" fill="url(#color-2)" stroke-linecap="butt"/><path d="M369.40625,386.12501v-249h123v249z" fill="url(#color-3)" stroke-linecap="butt"/><path d="M50.85937,287.43751l38,-3" fill="none" stroke-linecap="round"/><path d="M81.85937,320.43751h30" fill="none" stroke-linecap="round"/><path d="M58.85937,344.43751h20" fill="none" stroke-linecap="round"/><path d="M154.85937,241.43751h25" fill="none" stroke-linecap="round"/><path d="M144.85937,277.43751l67,1" fill="none" stroke-linecap="round"/><path d="M156.85937,317.43751h24" fill="none" stroke-linecap="round"/><path d="M177.85937,334.43751h29" fill="none" stroke-linecap="round"/><path d="M386.85938,157.43751h44" fill="none" stroke-linecap="round"/><path d="M405.85938,222.43751h51" fill="none" stroke-linecap="round"/><path d="M387.85938,278.43751h32" fill="none" stroke-linecap="round"/><path d="M401.85938,315.43751h72" fill="none" stroke-linecap="round"/><path d="M396.85938,180.43751h53" fill="none" stroke-linecap="round"/></g></g></svg>