<svg version="1.1" xmlns="http://www.w3.org/2000/svg" xmlns:xlink="http://www.w3.org/1999/xlink" width="11.1501" height="26.66402"><defs><linearGradient x1="240" y1="167.16799" x2="240" y2="192.83201" gradientUnits="userSpaceOnUse" id="color-1"><stop offset="0" stop-color="#fffd3f"/><stop offset="1" stop-color="#ccc933"/></linearGradient></defs><g transform="translate(-234.42495,-166.66799)"><g data-paper-data="{&quot;isPaintingLayer&quot;:true}" fill-rule="nonzero" stroke="#a3b100" stroke-width="1" stroke-linecap="butt" stroke-linejoin="miter" stroke-miterlimit="10" stroke-dasharray="" stroke-dashoffset="0" style="mix-blend-mode: normal"><path d="M245.07505,180c0,7.08692 -2.27217,12.83201 -5.07505,12.83201c-2.80287,0 -5.07505,-5.74508 -5.07505,-12.83201c0,-7.08692 2.27217,-12.83201 5.07505,-12.83201c2.80287,0 5.07505,5.74508 5.07505,12.83201z" data-paper-data="{&quot;origPos&quot;:null}" fill="url(#color-1)"/><path d="M244.02442,180c0,5.6198 -1.8018,10.17555 -4.02442,10.17555c-2.22263,0 -4.02442,-4.55575 -4.02442,-10.17555c0,-5.6198 1.8018,-10.17555 4.02442,-10.17555c2.22263,0 4.02442,4.55575 4.02442,10.17555z" data-paper-data="{&quot;origPos&quot;:null}" fill="none"/><path d="M239.44001,186.81981v-13.63963h1.11998v13.63963z" data-paper-data="{&quot;origPos&quot;:null}" fill="none"/></g></g></svg>