<svg version="1.1" xmlns="http://www.w3.org/2000/svg" xmlns:xlink="http://www.w3.org/1999/xlink" width="409.65479" height="317.0788" viewBox="0,0,409.65479,317.0788"><g transform="translate(-6.90312,-84.2962)"><g data-paper-data="{&quot;isPaintingLayer&quot;:true}" fill-rule="nonzero" stroke-linecap="butt" stroke-linejoin="miter" stroke-miterlimit="10" stroke-dasharray="" stroke-dashoffset="0" style="mix-blend-mode: normal"><path d="M8.44896,394.6875v-127.1875h135.60894v127.1875z" fill="#6b6b6b" stroke="#211502" stroke-width="3"/><path d="M45.47163,312.0424l4.3713,5.76313l-13.311,2.49491l-4.37129,-5.76313z" data-paper-data="{&quot;index&quot;:null}" fill="#3c3c3c" stroke="none" stroke-width="0"/><path d="M125.07365,290.00748l-7.7057,7.29805l-13.84748,-8.36469l7.70571,-7.29805z" data-paper-data="{&quot;index&quot;:null}" fill="#3c3c3c" stroke="none" stroke-width="0"/><path d="M8.40312,265.7962v-13h32.2622v13z" fill="#444444" stroke="#000000" stroke-width="3"/><path d="M42.62061,265.7962v-13h32.2622v13z" fill="#444444" stroke="#000000" stroke-width="3"/><path d="M77.32692,265.7962v-13h32.2622v13z" fill="#444444" stroke="#000000" stroke-width="3"/><path d="M112.03322,265.7962v-13h32.2622v13z" fill="#444444" stroke="#000000" stroke-width="3"/><path d="M114.07366,341.00748l-7.7057,7.29805l-13.84748,-8.36469l7.70571,-7.29805z" data-paper-data="{&quot;index&quot;:null}" fill="#3c3c3c" stroke="none" stroke-width="0"/><path d="M244.44897,399.875v-299.375h170.60894v299.375z" fill="#6b6b6b" stroke="#211502" stroke-width="3"/><path d="M281.47164,145.0424l4.3713,5.76313l-13.311,2.49491l-4.37129,-5.76313z" data-paper-data="{&quot;index&quot;:null}" fill="#3c3c3c" stroke="none" stroke-width="0"/><path d="M244.40313,98.7962v-13h32.2622v13z" fill="#444444" stroke="#000000" stroke-width="3"/><path d="M278.62062,98.7962v-13h32.2622v13z" fill="#444444" stroke="#000000" stroke-width="3"/><path d="M322.07367,182.00748l-7.7057,7.29805l-13.84748,-8.36469l7.70571,-7.29805z" data-paper-data="{&quot;index&quot;:null}" fill="#3c3c3c" stroke="none" stroke-width="0"/><path d="M290.69127,242.23151l-3.8048,-9.90772l13.01639,-9.60699l3.80479,9.90773z" data-paper-data="{&quot;index&quot;:null}" fill="#3c3c3c" stroke="none" stroke-width="0"/><path d="M313.40314,98.7962v-13h32.2622v13z" fill="#444444" stroke="#000000" stroke-width="3"/><path d="M347.62063,98.7962v-13h32.2622v13z" fill="#444444" stroke="#000000" stroke-width="3"/><path d="M382.40314,98.7962v-13h32.2622v13z" fill="#444444" stroke="#000000" stroke-width="3"/><path d="M376.07368,158.00748l-7.7057,7.29805l-13.84748,-8.36469l7.70571,-7.29805z" data-paper-data="{&quot;index&quot;:null}" fill="#3c3c3c" stroke="none" stroke-width="0"/><path d="M375.07368,213.00748l-7.7057,7.29805l-13.84748,-8.36469l7.70571,-7.29805z" data-paper-data="{&quot;index&quot;:null}" fill="#3c3c3c" stroke="none" stroke-width="0"/><path d="M290.07367,284.00748l-7.7057,7.29805l-13.84748,-8.36469l7.70571,-7.29805z" data-paper-data="{&quot;index&quot;:null}" fill="#3c3c3c" stroke="none" stroke-width="0"/><path d="M355.07368,301.00748l-7.7057,7.29805l-13.84748,-8.36469l7.70571,-7.29805z" data-paper-data="{&quot;index&quot;:null}" fill="#3c3c3c" stroke="none" stroke-width="0"/></g></g></svg>