<svg version="1.1" xmlns="http://www.w3.org/2000/svg" xmlns:xlink="http://www.w3.org/1999/xlink" width="311.06363" height="139.36519" viewBox="0,0,311.06363,139.36519"><defs><linearGradient x1="86.15626" y1="226.31253" x2="86.15626" y2="301.31253" gradientUnits="userSpaceOnUse" id="color-1"><stop offset="0" stop-color="#9f8040"/><stop offset="1" stop-color="#7f6633"/></linearGradient><linearGradient x1="77.94979" y1="178.60532" x2="92.08476" y2="239.99915" gradientUnits="userSpaceOnUse" id="color-2"><stop offset="0" stop-color="#9f8040"/><stop offset="1" stop-color="#7f6633"/></linearGradient></defs><g transform="translate(-28.43158,-163.94732)"><g data-paper-data="{&quot;isPaintingLayer&quot;:true}" fill-rule="nonzero" stroke-linejoin="miter" stroke-miterlimit="10" stroke-dasharray="" stroke-dashoffset="0" style="mix-blend-mode: normal"><path d="M76.15626,301.31253v-75h20v75z" fill="url(#color-1)" stroke="#3e3119" stroke-width="2" stroke-linecap="butt"/><path d="" data-paper-data="{&quot;origPos&quot;:null}" fill="none" stroke="#5c4a25" stroke-width="7.5" stroke-linecap="round"/><path d="M43.84674,251.10519l-14.13495,-61.39384l18.28785,1.4334l14.70713,-9.51879l16.39192,1.99039l14.88325,-11.18832l15.4905,5.0783l15.7794,-11.84387l15.07094,63.23066l-19.0309,-2.41821l-14.13262,9.76855l-17.39289,-1.83516l-15.23717,8.99774l-16.2122,-0.7632z" fill="url(#color-2)" stroke="#3e3119" stroke-width="2" stroke-linecap="butt"/><path d="M108.85888,201.50925l-56.76716,19.59064" fill="none" stroke="#3e3119" stroke-width="7.5" stroke-linecap="round"/><path d="M85.56695,188.01069l31.39991,11.03591l-21.78856,29.11991" fill="none" stroke="#3e3119" stroke-width="7.5" stroke-linecap="round"/><path d="M219.46621,296.81251v-47.54774h5.1093v47.54774z" fill="#90ff96" stroke="none" stroke-width="0" stroke-linecap="butt"/><path d="M227.23443,262.40297c0,11.40232 -10.42714,11.40232 -10.42714,0c0,-11.40232 5.21357,-20.64573 5.21357,-20.64573c0,0 5.21357,9.24341 5.21357,20.64573z" fill="#ff8cf5" stroke="none" stroke-width="0" stroke-linecap="butt"/><path d="M222.02086,243.00999c0,0 -5.21357,-9.24341 -5.21357,-20.64573c0,-11.40232 10.42714,-11.40232 10.42714,0c0,11.40232 -5.21357,20.64573 -5.21357,20.64573z" data-paper-data="{&quot;index&quot;:null}" fill="#ff8cf5" stroke="none" stroke-width="0" stroke-linecap="butt"/><path d="M222.87059,242.44796c0,0 8.98667,-5.64462 20.37625,-6.18353c11.38958,-0.53891 11.8824,9.87657 0.49282,10.41548c-11.38958,0.53891 -20.86907,-4.23196 -20.86907,-4.23196z" data-paper-data="{&quot;index&quot;:null}" fill="#ff8cf5" stroke="none" stroke-width="0" stroke-linecap="butt"/><path d="M200.72314,247.09701c-11.38958,-0.53891 -10.89676,-10.95439 0.49282,-10.41548c11.38958,0.53891 20.37625,6.18353 20.37625,6.18353c0,0 -9.47949,4.77087 -20.86907,4.23196z" data-paper-data="{&quot;index&quot;:null}" fill="#ff8cf5" stroke="none" stroke-width="0" stroke-linecap="butt"/><path d="M222.47533,242.9966c0,0 3.15285,-10.13318 11.45216,-17.95203c8.29931,-7.81885 15.44945,-0.22934 7.15014,7.58951c-8.29931,7.81885 -18.6023,10.36253 -18.6023,10.36253z" data-paper-data="{&quot;index&quot;:null}" fill="#ff8cf5" stroke="none" stroke-width="0" stroke-linecap="butt"/><path d="M203.22654,232.63409c-8.29931,-7.81885 -1.14917,-15.40836 7.15014,-7.58951c8.29931,7.81885 11.45216,17.95204 11.45216,17.95204c0,0 -10.30299,-2.54367 -18.6023,-10.36252z" data-paper-data="{&quot;index&quot;:null}" fill="#ff8cf5" stroke="none" stroke-width="0" stroke-linecap="butt"/><path d="M241.49469,253.39166c8.29931,7.81885 1.14917,15.40836 -7.15014,7.58951c-8.29931,-7.81885 -11.45215,-17.95204 -11.45215,-17.95204c0,0 10.30299,2.54367 18.6023,10.36252z" data-paper-data="{&quot;index&quot;:null}" fill="#ff8cf5" stroke="none" stroke-width="0" stroke-linecap="butt"/><path d="M221.82884,243.02915c0,0 -3.15285,10.13318 -11.45215,17.95203c-8.29931,7.81885 -15.44945,0.22934 -7.15014,-7.58951c8.29931,-7.81885 18.6023,-10.36252 18.6023,-10.36252z" data-paper-data="{&quot;index&quot;:null}" fill="#ff8cf5" stroke="none" stroke-width="0" stroke-linecap="butt"/><path d="M217.64147,243.0085c0,-2.53385 2.05409,-4.58794 4.58794,-4.58794c2.53385,0 4.58794,2.05409 4.58794,4.58794c0,2.53385 -2.05409,4.58794 -4.58794,4.58794c-2.53385,0 -4.58794,-2.05409 -4.58794,-4.58794z" fill="#fffa5b" stroke="none" stroke-width="0" stroke-linecap="butt"/><path d="M222.85783,278.54796c0,0 3.92257,-5.84413 10.67826,-9.24282c6.75569,-3.39868 9.8637,2.77923 3.10801,6.17791c-6.75569,3.39868 -13.78627,3.0649 -13.78627,3.0649z" data-paper-data="{&quot;index&quot;:null}" fill="#90ff96" stroke="none" stroke-width="0" stroke-linecap="butt"/><path d="M220.81317,278.13088c0,0 -7.03058,0.33378 -13.78627,-3.0649c-6.75569,-3.39868 -3.64768,-9.57659 3.10801,-6.17791c6.75569,3.39869 10.67826,9.24282 10.67826,9.24282z" data-paper-data="{&quot;index&quot;:null}" fill="#90ff96" stroke="none" stroke-width="0" stroke-linecap="butt"/><path d="M251.46622,297.31253v-63.54774h5.1093v63.54774z" fill="#90ff96" stroke="none" stroke-width="0" stroke-linecap="butt"/><path d="M259.23444,246.90298c0,11.40232 -10.42714,11.40232 -10.42714,0c0,-11.40232 5.21357,-20.64573 5.21357,-20.64573c0,0 5.21357,9.24341 5.21357,20.64573z" fill="#bb8cff" stroke="none" stroke-width="0" stroke-linecap="butt"/><path d="M254.02087,227.50999c0,0 -5.21357,-9.24341 -5.21357,-20.64573c0,-11.40232 10.42714,-11.40232 10.42714,0c0,11.40232 -5.21357,20.64573 -5.21357,20.64573z" data-paper-data="{&quot;index&quot;:null}" fill="#bb8cff" stroke="none" stroke-width="0" stroke-linecap="butt"/><path d="M254.8706,226.94797c0,0 8.98667,-5.64462 20.37625,-6.18353c11.38958,-0.53891 11.8824,9.87657 0.49282,10.41548c-11.38958,0.53891 -20.86907,-4.23196 -20.86907,-4.23196z" data-paper-data="{&quot;index&quot;:null}" fill="#bb8cff" stroke="none" stroke-width="0" stroke-linecap="butt"/><path d="M232.72315,231.59702c-11.38958,-0.53891 -10.89676,-10.95439 0.49282,-10.41548c11.38958,0.53891 20.37625,6.18353 20.37625,6.18353c0,0 -9.47949,4.77087 -20.86907,4.23196z" data-paper-data="{&quot;index&quot;:null}" fill="#bb8cff" stroke="none" stroke-width="0" stroke-linecap="butt"/><path d="M254.47534,227.49663c0,0 3.15285,-10.13318 11.45216,-17.95203c8.29931,-7.81885 15.44945,-0.22934 7.15014,7.58951c-8.29931,7.81885 -18.6023,10.36253 -18.6023,10.36253z" data-paper-data="{&quot;index&quot;:null}" fill="#bb8cff" stroke="none" stroke-width="0" stroke-linecap="butt"/><path d="M235.22655,217.1341c-8.29931,-7.81885 -1.14917,-15.40836 7.15014,-7.58951c8.29931,7.81885 11.45216,17.95204 11.45216,17.95204c0,0 -10.30299,-2.54367 -18.6023,-10.36252z" data-paper-data="{&quot;index&quot;:null}" fill="#bb8cff" stroke="none" stroke-width="0" stroke-linecap="butt"/><path d="M273.49472,237.89167c8.29931,7.81885 1.14917,15.40836 -7.15014,7.58951c-8.29931,-7.81885 -11.45215,-17.95204 -11.45215,-17.95204c0,0 10.30299,2.54367 18.6023,10.36252z" data-paper-data="{&quot;index&quot;:null}" fill="#bb8cff" stroke="none" stroke-width="0" stroke-linecap="butt"/><path d="M253.82885,227.52915c0,0 -3.15285,10.13318 -11.45215,17.95203c-8.29931,7.81885 -15.44945,0.22934 -7.15014,-7.58951c8.29931,-7.81885 18.6023,-10.36252 18.6023,-10.36252z" data-paper-data="{&quot;index&quot;:null}" fill="#bb8cff" stroke="none" stroke-width="0" stroke-linecap="butt"/><path d="M249.64148,227.50851c0,-2.53385 2.05409,-4.58794 4.58794,-4.58794c2.53385,0 4.58794,2.05409 4.58794,4.58794c0,2.53385 -2.05409,4.58794 -4.58794,4.58794c-2.53385,0 -4.58794,-2.05409 -4.58794,-4.58794z" fill="#fffa5b" stroke="none" stroke-width="0" stroke-linecap="butt"/><path d="M254.85784,263.04798c0,0 3.92257,-5.84413 10.67826,-9.24282c6.75569,-3.39868 9.8637,2.77923 3.10801,6.17791c-6.75569,3.39868 -13.78627,3.0649 -13.78627,3.0649z" data-paper-data="{&quot;index&quot;:null}" fill="#90ff96" stroke="none" stroke-width="0" stroke-linecap="butt"/><path d="M252.81318,262.6309c0,0 -7.03058,0.33378 -13.78627,-3.0649c-6.75569,-3.39868 -3.64768,-9.57659 3.10801,-6.17791c6.75569,3.39869 10.67826,9.24282 10.67826,9.24282z" data-paper-data="{&quot;index&quot;:null}" fill="#90ff96" stroke="none" stroke-width="0" stroke-linecap="butt"/><path d="M146.95313,243.31251c0,0 6.25258,10.48725 8.59828,16.06382c2.02304,4.80951 4.65172,15.43618 4.65172,15.43618c0,0 2.62918,-10.60502 4.92992,-15.87582c2.28244,-5.22886 8.82008,-15.62418 8.82008,-15.62418c0,0 -1.78825,20.71235 -4.01722,30.43876c-2.34815,10.24648 -9.73278,29.56124 -9.73278,29.56124c0,0 -6.29268,-19.17442 -8.35896,-28.53115c-2.32076,-10.50912 -4.89104,-31.46885 -4.89104,-31.46885z" fill="#90ff96" stroke="none" stroke-width="0" stroke-linecap="butt"/><path d="M160.95313,224.42362c0,0 8.22098,13.78879 11.30514,21.12095c2.65993,6.32361 6.11615,20.29572 6.11615,20.29572c0,0 3.45689,-13.94364 6.48194,-20.87377c3.00099,-6.87499 11.59677,-20.5429 11.59677,-20.5429c0,0 -2.35121,27.2329 -5.2819,40.02134c-3.08738,13.47223 -12.79681,38.86755 -12.79681,38.86755c0,0 -8.27371,-25.2108 -10.99048,-37.51317c-3.05138,-13.81754 -6.43081,-41.37572 -6.43081,-41.37572z" fill="#80ff87" stroke="none" stroke-width="0" stroke-linecap="butt"/><path d="M98.95313,242.31251c0,0 6.25258,10.48725 8.59828,16.06382c2.02304,4.80951 4.65172,15.43618 4.65172,15.43618c0,0 2.62918,-10.60502 4.92993,-15.87582c2.28244,-5.22886 8.82007,-15.62418 8.82007,-15.62418c0,0 -1.78825,20.71235 -4.01722,30.43876c-2.34815,10.24648 -9.73278,29.56124 -9.73278,29.56124c0,0 -6.29268,-19.17442 -8.35896,-28.53115c-2.32076,-10.50912 -4.89104,-31.46885 -4.89104,-31.46885z" fill="#90ff96" stroke="none" stroke-width="0" stroke-linecap="butt"/><path d="M112.95313,223.42362c0,0 8.22098,13.78879 11.30514,21.12095c2.65993,6.32361 6.11615,20.29572 6.11615,20.29572c0,0 3.45689,-13.94364 6.48194,-20.87377c3.00099,-6.87499 11.59677,-20.5429 11.59677,-20.5429c0,0 -2.35121,27.2329 -5.2819,40.02134c-3.08738,13.47222 -12.79681,38.86755 -12.79681,38.86755c0,0 -8.27371,-25.2108 -10.99048,-37.51317c-3.05138,-13.81755 -6.43081,-41.37572 -6.43081,-41.37572z" fill="#80ff87" stroke="none" stroke-width="0" stroke-linecap="butt"/><path d="M310.9943,302.19972l8.45651,-36.91568l2.96806,0.67991l-8.45651,36.91568z" fill="#90ff96" stroke="none" stroke-width="0" stroke-linecap="butt"/><path d="M322.21513,273.94993c-1.51734,6.62375 -7.5746,5.23618 -6.05726,-1.38757c1.51734,-6.62375 5.77602,-11.29958 5.77602,-11.29958c0,0 1.79858,6.0634 0.28123,12.68715z" fill="#bb8cff" stroke="none" stroke-width="0" stroke-linecap="butt"/><path d="M321.76719,261.99051c0,0 -1.79858,-6.0634 -0.28123,-12.68715c1.51734,-6.62375 7.5746,-5.23618 6.05726,1.38757c-1.51734,6.62375 -5.77602,11.29958 -5.77602,11.29958z" data-paper-data="{&quot;index&quot;:null}" fill="#bb8cff" stroke="none" stroke-width="0" stroke-linecap="butt"/><path d="M322.33559,261.77711c0,0 5.97162,-2.08314 12.65968,-0.88055c6.68806,1.20259 5.58833,7.31865 -1.09974,6.11606c-6.68806,-1.20259 -11.55994,-5.23551 -11.55994,-5.23551z" data-paper-data="{&quot;index&quot;:null}" fill="#bb8cff" stroke="none" stroke-width="0" stroke-linecap="butt"/><path d="M308.8512,261.53056c-6.54463,-1.82871 -4.87233,-7.81361 1.67231,-5.9849c6.54463,1.82871 11.01396,6.30363 11.01396,6.30363c0,0 -6.14163,1.50999 -12.68626,-0.31872z" data-paper-data="{&quot;index&quot;:null}" fill="#bb8cff" stroke="none" stroke-width="0" stroke-linecap="butt"/><path d="M322.03297,262.04323c0,0 3.17999,-5.46693 9.04164,-8.90458c5.86165,-3.43765 9.0053,1.92268 3.14364,5.36033c-5.86165,3.43765 -12.18528,3.54425 -12.18528,3.54425z" data-paper-data="{&quot;index&quot;:null}" fill="#bb8cff" stroke="none" stroke-width="0" stroke-linecap="butt"/><path d="M312.23009,253.462c-3.78069,-5.64648 1.38287,-9.10383 5.16357,-3.45735c3.78069,5.64648 4.26377,11.95254 4.26377,11.95254c0,0 -5.64664,-2.8487 -9.42733,-8.49519z" data-paper-data="{&quot;index&quot;:null}" fill="#bb8cff" stroke="none" stroke-width="0" stroke-linecap="butt"/><path d="M331.69827,270.61281c3.78069,5.64648 -1.38287,9.10383 -5.16357,3.45735c-3.78069,-5.64648 -4.26376,-11.95254 -4.26376,-11.95254c0,0 5.64664,2.8487 9.42733,8.49519z" data-paper-data="{&quot;index&quot;:null}" fill="#bb8cff" stroke="none" stroke-width="0" stroke-linecap="butt"/><path d="M321.65309,261.97609c0,0 -3.17999,5.46693 -9.04163,8.90458c-5.86165,3.43765 -9.0053,-1.92268 -3.14364,-5.36033c5.86165,-3.43765 12.18528,-3.54425 12.18528,-3.54425z" data-paper-data="{&quot;index&quot;:null}" fill="#bb8cff" stroke="none" stroke-width="0" stroke-linecap="butt"/><path d="M319.22334,261.40687c0.33719,-1.47195 1.80378,-2.39185 3.27572,-2.05466c1.47195,0.33719 2.39185,1.80378 2.05466,3.27572c-0.33719,1.47195 -1.80378,2.39185 -3.27572,2.05466c-1.47195,-0.33719 -2.39185,-1.80378 -2.05466,-3.27572z" fill="#fffa5b" stroke="none" stroke-width="0" stroke-linecap="butt"/><path d="M317.52423,282.74635c0,0 3.05637,-2.87294 7.43311,-3.94828c4.37674,-1.07533 5.36011,2.92708 0.98337,4.00242c-4.37674,1.07533 -8.41647,-0.05415 -8.41647,-0.05415z" data-paper-data="{&quot;index&quot;:null}" fill="#90ff96" stroke="none" stroke-width="0" stroke-linecap="butt"/><path d="M316.39197,282.23197c0,0 -4.12857,-0.74169 -7.60076,-3.61502c-3.47219,-2.87334 -0.84459,-6.04857 2.6276,-3.17523c3.47219,2.87334 4.97316,6.79026 4.97316,6.79026z" data-paper-data="{&quot;index&quot;:null}" fill="#90ff96" stroke="none" stroke-width="0" stroke-linecap="butt"/></g></g></svg>