<svg version="1.1" xmlns="http://www.w3.org/2000/svg" xmlns:xlink="http://www.w3.org/1999/xlink" width="423.35161" height="293.50004" viewBox="0,0,423.35161,293.50004"><defs><linearGradient x1="144.46166" y1="89.09374" x2="144.46166" y2="128.38516" gradientUnits="userSpaceOnUse" id="color-1"><stop offset="0" stop-color="#17ff22"/><stop offset="1" stop-color="#02d10c"/></linearGradient><linearGradient x1="375.95313" y1="235.8125" x2="375.95313" y2="366.8125" gradientUnits="userSpaceOnUse" id="color-2"><stop offset="0" stop-color="#63ba4a"/><stop offset="1" stop-color="#4b8e39"/></linearGradient><linearGradient x1="375.95313" y1="222.8125" x2="375.95313" y2="250.8125" gradientUnits="userSpaceOnUse" id="color-3"><stop offset="0" stop-color="#63ba4a"/><stop offset="1" stop-color="#4b8e39"/></linearGradient></defs><g transform="translate(-10.60151,-87.59376)"><g data-paper-data="{&quot;isPaintingLayer&quot;:true}" fill-rule="nonzero" stroke-linejoin="miter" stroke-miterlimit="10" stroke-dasharray="" stroke-dashoffset="0" style="mix-blend-mode: normal"><path d="M11.27344,381.0938v-269h264.77544v269z" fill="#98763d" stroke="none" stroke-width="0" stroke-linecap="butt"/><path d="M12.10151,115.98702v-26.89326h264.72031v26.89326l-14.76957,1.75726l-24.04827,10.64086l-23.38665,-11.9986l-22.26168,10.37815l-22.27506,-10.67969l-23.73176,8.22474l-22.08951,-9.40523l-31.46428,12.49333l-23.34854,-13.2091l-30.74718,10.7627z" fill="url(#color-1)" stroke="#08a310" stroke-width="3" stroke-linecap="butt"/><path d="M58.67385,175.43998l-8.87184,-13.22785l6.05447,-3.87501l16.87004,15.94784l1.16689,7.40281z" data-paper-data="{&quot;index&quot;:null}" fill="#774b00" stroke="#703100" stroke-width="2" stroke-linecap="round"/><path d="M149.67385,237.43998l-8.87184,-13.22785l6.05447,-3.87501l16.87004,15.94784l1.16689,7.40281z" data-paper-data="{&quot;index&quot;:null}" fill="#774b00" stroke="#703100" stroke-width="2" stroke-linecap="round"/><path d="M46.67385,296.43998l-8.87184,-13.22785l6.05447,-3.87501l16.87004,15.94784l1.16689,7.40281z" data-paper-data="{&quot;index&quot;:null}" fill="#774b00" stroke="#703100" stroke-width="2" stroke-linecap="round"/><path d="M339.95313,366.8125v-131h72v131z" fill="url(#color-2)" stroke="#4b8e39" stroke-width="4" stroke-linecap="butt"/><path d="M319.95312,250.8125v-28h112v28z" fill="url(#color-3)" stroke="#4b8e39" stroke-width="4" stroke-linecap="butt"/><path d="M206.67385,197.43998l-8.87184,-13.22785l6.05447,-3.87501l16.87004,15.94784l1.16689,7.40281z" data-paper-data="{&quot;index&quot;:null}" fill="#774b00" stroke="#703100" stroke-width="2" stroke-linecap="round"/><path d="M159.67385,315.17242l-8.87184,-13.79434l6.05447,-4.04096l16.87004,16.63081l1.16689,7.71984z" data-paper-data="{&quot;index&quot;:null}" fill="#774b00" stroke="#703100" stroke-width="2" stroke-linecap="round"/></g></g></svg>