<svg version="1.1" xmlns="http://www.w3.org/2000/svg" xmlns:xlink="http://www.w3.org/1999/xlink" width="412.8923" height="193.1338" viewBox="0,0,412.8923,193.1338"><defs><linearGradient x1="366.35625" y1="181.9837" x2="366.35625" y2="268.9837" gradientUnits="userSpaceOnUse" id="color-1"><stop offset="0" stop-color="#63ba4a"/><stop offset="1" stop-color="#4b8e39"/></linearGradient><linearGradient x1="365.85625" y1="178.5537" x2="365.85625" y2="198.9837" gradientUnits="userSpaceOnUse" id="color-2"><stop offset="0" stop-color="#63ba4a"/><stop offset="1" stop-color="#4b8e39"/></linearGradient></defs><g transform="translate(-36.90312,-177.0537)"><g data-paper-data="{&quot;isPaintingLayer&quot;:true}" fill-rule="nonzero" stroke-linecap="butt" stroke-linejoin="miter" stroke-miterlimit="10" stroke-dasharray="" stroke-dashoffset="0" style="mix-blend-mode: normal"><path d="M38.64064,368.6875v-82.1875h409.60894v82.1875z" data-paper-data="{&quot;index&quot;:null}" fill="#6b6b6b" stroke="#211502" stroke-width="3"/><path d="M184.5379,321.53731l-4.37129,5.76313l-13.311,-2.49491l4.3713,-5.76313z" data-paper-data="{&quot;index&quot;:null}" fill="#3c3c3c" stroke="none" stroke-width="0"/><path d="M81.47237,312.64279l7.70571,7.29805l-13.84748,8.36469l-7.7057,-7.29805z" data-paper-data="{&quot;index&quot;:null}" fill="#3c3c3c" stroke="none" stroke-width="0"/><path d="M142.03321,284.7962v-13h32.2622v13z" data-paper-data="{&quot;index&quot;:null}" fill="#444444" stroke="#000000" stroke-width="3"/><path d="M107.81573,284.7962v-13h32.2622v13z" data-paper-data="{&quot;index&quot;:null}" fill="#444444" stroke="#000000" stroke-width="3"/><path d="M73.10941,284.7962v-13h32.2622v13z" data-paper-data="{&quot;index&quot;:null}" fill="#444444" stroke="#000000" stroke-width="3"/><path d="M38.40312,284.7962v-13h32.2622v13z" data-paper-data="{&quot;index&quot;:null}" fill="#444444" stroke="#000000" stroke-width="3"/><path d="M138.47236,343.64279l7.70571,7.29805l-13.84748,8.36469l-7.7057,-7.29805z" data-paper-data="{&quot;index&quot;:null}" fill="#3c3c3c" stroke="none" stroke-width="0"/><path d="M267.47236,335.64279l7.70571,7.29805l-13.84748,8.36469l-7.7057,-7.29805z" data-paper-data="{&quot;index&quot;:null}" fill="#3c3c3c" stroke="none" stroke-width="0"/><path d="M279.03323,284.7962v-13h32.2622v13z" data-paper-data="{&quot;index&quot;:null}" fill="#444444" stroke="#000000" stroke-width="3"/><path d="M244.81573,284.7962v-13h32.2622v13z" data-paper-data="{&quot;index&quot;:null}" fill="#444444" stroke="#000000" stroke-width="3"/><path d="M210.10942,284.7962v-13h32.2622v13z" data-paper-data="{&quot;index&quot;:null}" fill="#444444" stroke="#000000" stroke-width="3"/><path d="M175.40313,284.7962v-13h32.2622v13z" data-paper-data="{&quot;index&quot;:null}" fill="#444444" stroke="#000000" stroke-width="3"/><path d="M416.03323,284.7962v-13h32.2622v13z" data-paper-data="{&quot;index&quot;:null}" fill="#444444" stroke="#000000" stroke-width="3"/><path d="M381.81574,284.7962v-13h32.2622v13z" data-paper-data="{&quot;index&quot;:null}" fill="#444444" stroke="#000000" stroke-width="3"/><path d="M347.10942,284.7962v-13h32.2622v13z" data-paper-data="{&quot;index&quot;:null}" fill="#444444" stroke="#000000" stroke-width="3"/><path d="M312.40313,284.7962v-13h32.2622v13z" data-paper-data="{&quot;index&quot;:null}" fill="#444444" stroke="#000000" stroke-width="3"/><path d="M383.47236,310.64279l7.70571,7.29805l-13.84748,8.36469l-7.7057,-7.29805z" data-paper-data="{&quot;index&quot;:null}" fill="#3c3c3c" stroke="none" stroke-width="0"/><path d="M337.35625,268.9837v-87h58v87z" fill="url(#color-1)" stroke="#4b8e39" stroke-width="3"/><path d="M324.35625,198.9837v-20.43h83v20.43z" fill="url(#color-2)" stroke="#4b8e39" stroke-width="3"/></g></g></svg>