<svg version="1.1" xmlns="http://www.w3.org/2000/svg" xmlns:xlink="http://www.w3.org/1999/xlink" width="483.0015" height="365.50003" viewBox="0,0,483.0015,365.50003"><defs><linearGradient x1="241.5015" y1="-0.99994" x2="241.5015" y2="38.29145" gradientUnits="userSpaceOnUse" id="color-1"><stop offset="0" stop-color="#17ff22"/><stop offset="1" stop-color="#02d10c"/></linearGradient></defs><g transform="translate(0,2.49993)"><g data-paper-data="{&quot;isPaintingLayer&quot;:true}" fill-rule="nonzero" stroke-linejoin="miter" stroke-miterlimit="10" stroke-dasharray="" stroke-dashoffset="0" style="mix-blend-mode: normal"><path d="M0,363.0001v-341h480.1v341z" data-paper-data="{&quot;origPos&quot;:null}" fill="#98763d" stroke="none" stroke-width="0" stroke-linecap="butt"/><path d="M198.80969,116.03761l64.40461,-3.06426l40.95672,45.73231l-61.88756,36.96323l-45.73888,-18.7518z" data-paper-data="{&quot;index&quot;:null}" fill="#774b00" stroke="#703100" stroke-width="2" stroke-linecap="round"/><path d="M1.5015,25.89333v-26.89326h480v26.89326l-26.7807,1.75726l-43.60514,10.64086l-42.40549,-11.9986l-40.36564,10.37815l-40.3899,-10.67969l-43.03124,8.22474l-40.05345,-9.40523l-57.05211,12.49333l-42.3364,-13.2091l-55.75184,10.7627z" fill="url(#color-1)" stroke="#08a310" stroke-width="3" stroke-linecap="butt"/><path d="M94.60526,158l-54.25358,-16.21052l4.7177,-42.55263l80.11471,-7.42794l21.31591,25.66477z" data-paper-data="{&quot;index&quot;:null}" fill="#774b00" stroke="#703100" stroke-width="2" stroke-linecap="round"/><path d="M64.54045,280.53699l-3.5656,-36.55464l57.26852,-6.1953l45.90314,47.29119l-23.59911,18.47649z" data-paper-data="{&quot;index&quot;:null}" fill="#774b00" stroke="#703100" stroke-width="2" stroke-linecap="round"/><path d="M377.20141,141.58332l50.82045,-9.3933l37.47059,31.89581l-45.15819,36.04462l-38.35316,-9.95052z" data-paper-data="{&quot;index&quot;:null}" fill="#774b00" stroke="#703100" stroke-width="2" stroke-linecap="round"/><path d="M311.20141,269.58331l50.82045,-9.3933l37.4706,31.89581l-45.1582,36.04462l-38.35316,-9.95052z" data-paper-data="{&quot;index&quot;:null}" fill="#774b00" stroke="#703100" stroke-width="2" stroke-linecap="round"/></g></g></svg>