<svg version="1.1" xmlns="http://www.w3.org/2000/svg" xmlns:xlink="http://www.w3.org/1999/xlink" width="229.38921" height="169" viewBox="0,0,229.38921,169"><defs><radialGradient cx="148.95313" cy="239.3125" r="84.5" gradientUnits="userSpaceOnUse" id="color-1"><stop offset="0" stop-color="#00ff4c"/><stop offset="1" stop-color="#48983d"/></radialGradient><radialGradient cx="185.17969" cy="201.96875" r="11.25" gradientUnits="userSpaceOnUse" id="color-2"><stop offset="0" stop-color="#ff5858"/><stop offset="1" stop-color="#f73434"/></radialGradient><radialGradient cx="185.17969" cy="197.71875" r="5.75" gradientUnits="userSpaceOnUse" id="color-3"><stop offset="0" stop-color="#f78934"/><stop offset="1" stop-color="#f78934" stop-opacity="0"/></radialGradient></defs><g transform="translate(-64.45313,-154.8125)"><g data-paper-data="{&quot;isPaintingLayer&quot;:true}" fill-rule="nonzero" stroke="none" stroke-linecap="butt" stroke-linejoin="miter" stroke-miterlimit="10" stroke-dasharray="" stroke-dashoffset="0" style="mix-blend-mode: normal"><path d="M293.84234,263.79668c0,25.29912 -12.56054,30.02731 -28.05473,30.02731c-15.49419,0 -28.05472,-4.7282 -28.05472,-30.02731c0,-25.29912 12.56053,-45.80812 28.05472,-45.80812c15.49419,0 28.05473,20.509 28.05473,45.80812z" fill="#99a6ff" stroke-width="0"/><path d="M265.89721,283.85142c0,-9.68387 9.82292,-16.21914 19.5068,-16.21914c4.89679,0 7.90318,6.12064 7.90318,6.12064c0,0 0.3334,6.11132 -5.06753,13.46137c-5.18736,7.05942 -17.08641,6.37889 -17.08641,6.37889c0,0 -5.25604,-3.81256 -5.25604,-9.74176z" fill="#0021ff" stroke-width="0"/><path d="M240.59965,245.04039c0,0 2.96756,-0.8601 4.58527,-0.8601c6.96028,0 12.60271,5.64242 12.60271,12.6027c0,6.96028 -5.64243,12.60272 -12.60271,12.60272c-2.90974,0 -7.06479,-2.20399 -7.06479,-2.20399c0,0 -1.31493,-4.44347 -0.68467,-11.7238c0.69654,-8.04594 3.16418,-10.41752 3.16418,-10.41752z" fill="#0021ff" stroke-width="0"/><path d="M265.0205,234.3173c0,-6.42801 10.58224,-13.07881 10.58224,-13.07881c0,0 4.97783,1.82261 8.7446,7.13161c3.65312,5.14884 5.81683,12.2874 5.81683,12.2874c0,0 -6.68412,7.02963 -11.77384,7.02963c-7.38396,0 -13.36983,-5.98588 -13.36983,-13.36983z" fill="#0021ff" stroke-width="0"/><path d="M262.73503,272.78177c0,16.80174 -8.34174,19.94185 -18.63181,19.94185c-10.29006,0 -18.6318,-3.14011 -18.6318,-19.94185c0,-16.80174 8.34174,-30.42225 18.6318,-30.42225c10.29006,0 18.63181,13.62051 18.63181,30.42225z" fill="#ff9898" stroke-width="0"/><path d="M244.17601,286.1006c0,-6.43129 6.52364,-10.77151 12.95492,-10.77151c3.25207,0 5.24869,4.06486 5.24869,4.06486c0,0 -0.50936,3.32789 -4.09625,8.20923c-3.44505,4.68832 -10.61671,4.96715 -10.61671,4.96715c0,0 -3.49066,-2.53201 -3.49066,-6.46973z" fill="#ff0000" stroke-width="0"/><path d="M227.37531,260.32528c0,0 1.97083,-0.57122 3.04519,-0.57122c4.62249,0 8.36975,3.74727 8.36975,8.36975c0,4.62249 -3.74727,8.36976 -8.36975,8.36976c-1.93243,0 -4.69189,-1.46372 -4.69189,-1.46372c0,0 -0.87328,-2.95101 -0.4547,-7.78605c0.46259,-5.3435 2.10141,-6.91852 2.10141,-6.91852z" fill="#ff0000" stroke-width="0"/><path d="M243.59376,253.20382c0,-4.26899 7.02792,-8.68595 7.02792,-8.68595c0,0 3.30589,1.21044 5.80749,4.73627c2.42613,3.41947 3.8631,8.16035 3.8631,8.16035c0,0 -4.43908,4.66855 -7.81929,4.66855c-4.90386,0 -8.87922,-3.97536 -8.87922,-8.87922z" fill="#ff0000" stroke-width="0"/><path d="M64.45313,239.3125c0,-46.66806 37.83194,-84.5 84.5,-84.5c46.66806,0 84.5,37.83194 84.5,84.5c0,46.66806 -37.83194,84.5 -84.5,84.5c-46.66806,0 -84.5,-37.83194 -84.5,-84.5z" fill="url(#color-1)" stroke-width="0"/><path d="M161.1819,190.62788c0.02412,-0.52753 0.31201,-3.67543 3.74779,-3.67543c3.75,0 3.75,3.75 3.75,3.75l-0.57001,2.9875c-4.35971,6.97502 -8.31715,14.09449 -11.77015,21.57311c-1.01285,2.19367 -2.91724,9.45802 -6.68896,10.11946c-3.30542,0.57966 -9.11665,-5.14315 -10.63638,-6.82159c-2.52154,-2.78489 -3.95794,-6.40183 -5.6,-9.7808c-3.43383,-7.06604 -5.2231,-13.77136 -5.2345,-21.57766c0,0 0,-3.75 3.75,-3.75c3.75,0 3.75,3.75 3.75,3.75c-0.01542,9.31649 3.55933,16.57733 8.06876,24.60704c0.37725,0.67174 0.5774,1.46542 1.09674,2.03449c0.61905,0.67835 1.91992,1.56916 2.81785,2.37436c0.51822,-1.39318 1.2355,-2.72454 1.85681,-4.0765c1.06191,-2.3107 2.27248,-4.55014 3.40984,-6.82465c2.54501,-5.08956 5.27274,-9.87536 8.25221,-14.68932z" fill="#13ae37" stroke-width="0.5"/><path d="M113.6819,225.62788c0.02412,-0.52754 0.31202,-3.67543 3.74779,-3.67543c3.75,0 3.75,3.75 3.75,3.75l-0.57001,2.9875c-4.35971,6.97502 -8.31715,14.09449 -11.77015,21.57311c-1.01286,2.19367 -2.91724,9.45801 -6.68897,10.11946c-3.30541,0.57966 -9.11666,-5.14315 -10.63638,-6.8216c-2.52154,-2.7849 -3.95795,-6.40183 -5.59999,-9.7808c-3.43382,-7.06604 -5.22309,-13.77137 -5.2345,-21.57767c0,0 0,-3.75 3.75,-3.75c3.75,0 3.75,3.75 3.75,3.75c-0.01542,9.31649 3.55932,16.57733 8.06876,24.60704c0.37725,0.67174 0.57741,1.46542 1.09674,2.03449c0.61905,0.67835 1.91992,1.56916 2.81785,2.37436c0.51823,-1.39318 1.23549,-2.72454 1.85681,-4.0765c1.06191,-2.3107 2.27248,-4.55014 3.40984,-6.82466c2.54502,-5.08956 5.27273,-9.87535 8.25221,-14.68931z" fill="#13ae37" stroke-width="0.5"/><path d="M198.1819,231.62788c0.02412,-0.52754 0.31202,-3.67543 3.74779,-3.67543c3.75,0 3.75,3.75 3.75,3.75l-0.57001,2.9875c-4.3597,6.97501 -8.31715,14.09449 -11.77015,21.57311c-1.01286,2.19367 -2.91724,9.45801 -6.68896,10.11946c-3.30541,0.57966 -9.11665,-5.14315 -10.63638,-6.8216c-2.52154,-2.7849 -3.95794,-6.40183 -5.6,-9.7808c-3.43382,-7.06604 -5.2231,-13.77137 -5.2345,-21.57767c0,0 0,-3.75 3.75,-3.75c3.75,0 3.75,3.75 3.75,3.75c-0.01542,9.31649 3.55933,16.57733 8.06876,24.60705c0.37725,0.67174 0.5774,1.46542 1.09674,2.03449c0.61905,0.67834 1.91992,1.56915 2.81785,2.37435c0.51823,-1.39318 1.2355,-2.72454 1.85681,-4.0765c1.06191,-2.3107 2.27248,-4.55014 3.40984,-6.82465c2.54502,-5.08956 5.27274,-9.87536 8.25221,-14.68932z" fill="#13ae37" stroke-width="0.5"/><path d="M150.68191,262.12788c0.02412,-0.52754 0.31202,-3.67543 3.74779,-3.67543c3.75,0 3.75,3.75 3.75,3.75l-0.57001,2.9875c-4.35971,6.97501 -8.31715,14.09449 -11.77015,21.57311c-1.01286,2.19367 -2.91724,9.45801 -6.68896,10.11946c-3.30541,0.57966 -9.11666,-5.14315 -10.63638,-6.8216c-2.52154,-2.7849 -3.95794,-6.40183 -5.59999,-9.7808c-3.43382,-7.06604 -5.2231,-13.77137 -5.2345,-21.57767c0,0 0,-3.75 3.75,-3.75c3.75,0 3.75,3.75 3.75,3.75c-0.01542,9.31649 3.55933,16.57733 8.06876,24.60705c0.37725,0.67174 0.5774,1.46542 1.09674,2.03449c0.61905,0.67834 1.91991,1.56915 2.81785,2.37435c0.51823,-1.39318 1.2355,-2.72454 1.85681,-4.0765c1.06191,-2.3107 2.27248,-4.55014 3.40984,-6.82465c2.54502,-5.08956 5.27273,-9.87536 8.25221,-14.68932z" fill="#13ae37" stroke-width="0.5"/><path d="M173.92969,201.96875c0,-6.2132 5.0368,-11.25 11.25,-11.25c6.2132,0 11.25,5.0368 11.25,11.25c0,6.2132 -5.0368,11.25 -11.25,11.25c-6.2132,0 -11.25,-5.0368 -11.25,-11.25z" fill="url(#color-2)" stroke-width="0"/><path d="M179.42969,197.71875c0,-3.17564 2.57436,-5.75 5.75,-5.75c3.17564,0 5.75,2.57436 5.75,5.75c0,3.17564 -2.57436,5.75 -5.75,5.75c-3.17564,0 -5.75,-2.57436 -5.75,-5.75z" fill="url(#color-3)" stroke-width="0"/><path d="M190.59475,178.40037c0.69338,1.04006 -0.34669,1.73344 -0.34669,1.73344l-0.4943,0.27343c-3.63798,4.20788 -3.69907,10.09965 -3.69907,15.43651c0,0 0,1.25 -1.25,1.25c-1.25,0 -1.25,-1.25 -1.25,-1.25c0,-6.00955 0.25815,-12.31108 4.30093,-17.06349l1.0057,-0.72657c0,0 1.04006,-0.69338 1.73344,0.34669z" fill="#13ae37" stroke-width="0.5"/><path d="M236.7163,272.99597c0,14.17823 -7.03922,16.82803 -15.72254,16.82803c-8.68332,0 -15.72254,-2.6498 -15.72254,-16.82803c0,-14.17823 7.03922,-25.67197 15.72254,-25.67197c8.68332,0 15.72254,11.49373 15.72254,25.67197z" fill="#fff6bc" stroke-width="0"/><path d="M221.05517,284.23513c0,-5.42708 5.50501,-9.0896 10.93208,-9.0896c2.74427,0 4.42913,3.43016 4.42913,3.43016c0,0 -0.42983,2.80825 -3.45664,6.9274c-2.90712,3.95627 -8.95896,4.19156 -8.95896,4.19156c0,0 -2.94561,-2.13665 -2.94561,-5.45952z" fill="#ffdd00" stroke-width="0"/><path d="M206.87781,262.4845c0,0 1.66309,-0.48202 2.5697,-0.48202c3.90071,0 7.06286,3.16215 7.06286,7.06286c0,3.90071 -3.16215,7.06286 -7.06286,7.06286c-1.63069,0 -3.95928,-1.23517 -3.95928,-1.23517c0,0 -0.73692,-2.49022 -0.3837,-6.5703c0.39036,-4.50914 1.77328,-5.83823 1.77328,-5.83823z" fill="#ffdd00" stroke-width="0"/><path d="M220.56384,256.47502c0,-3.60241 5.93055,-7.32968 5.93055,-7.32968c0,0 2.7897,1.02143 4.90068,3.99672c2.0473,2.88553 3.25989,6.88616 3.25989,6.88616c0,0 -3.74595,3.93957 -6.59834,3.93957c-4.13815,0 -7.49277,-3.35463 -7.49277,-7.49277z" fill="#ffdd00" stroke-width="0"/></g></g></svg>