<svg version="1.1" xmlns="http://www.w3.org/2000/svg" xmlns:xlink="http://www.w3.org/1999/xlink" width="487.04838" height="371.50004" viewBox="0,0,487.04838,371.50004"><defs><linearGradient x1="239.80469" y1="-0.90626" x2="239.80469" y2="38.38516" gradientUnits="userSpaceOnUse" id="color-1"><stop offset="0" stop-color="#17ff22"/><stop offset="1" stop-color="#02d10c"/></linearGradient></defs><g transform="translate(3.72656,2.40624)"><g data-paper-data="{&quot;isPaintingLayer&quot;:true}" fill-rule="nonzero" stroke-linejoin="miter" stroke-miterlimit="10" stroke-dasharray="" stroke-dashoffset="0" style="mix-blend-mode: normal"><path d="M-3.72656,369.0938v-347h484.1351v347z" fill="#98763d" stroke="none" stroke-width="0" stroke-linecap="butt"/><path d="M-2.21244,25.98702v-26.89326h484.03426v26.89326l-27.00578,1.75726l-43.97163,10.64086l-42.7619,-11.9986l-40.7049,10.37815l-40.72936,-10.67969l-43.3929,8.22474l-40.39009,-9.40523l-57.53162,12.49333l-42.69222,-13.2091l-56.22042,10.7627z" fill="url(#color-1)" stroke="#08a310" stroke-width="3" stroke-linecap="butt"/><path d="M256.9899,193.23188l11.83901,18.01465l-0.24675,16.26774l-16.92389,-13.87762l-4.99504,-14.90558z" data-paper-data="{&quot;index&quot;:null}" fill="#774b00" stroke="#703100" stroke-width="2" stroke-linecap="round"/><path d="M45.67385,68.43998l-8.87184,-13.22785l6.05447,-3.87501l16.87004,15.94784l1.16689,7.40281z" data-paper-data="{&quot;index&quot;:null}" fill="#774b00" stroke="#703100" stroke-width="2" stroke-linecap="round"/><path d="M101.18556,136.03908l-4.82531,-3.22167l6.49233,-9.08013l11.4581,-1.92088l-0.76959,5.37415z" data-paper-data="{&quot;index&quot;:null}" fill="#774b00" stroke="#703100" stroke-width="2" stroke-linecap="round"/><path d="M385.25815,164.73398l32.29784,-1.89717l23.81362,6.44201l-28.69929,7.27995l-24.37452,-2.00971z" data-paper-data="{&quot;index&quot;:null}" fill="#774b00" stroke="#703100" stroke-width="2" stroke-linecap="round"/><path d="M307.45523,89.45875l11.22505,10.0917l-2.46597,9.05432l-17.63868,-7.81609l-3.75631,-8.32422z" data-paper-data="{&quot;index&quot;:null}" fill="#774b00" stroke="#703100" stroke-width="2" stroke-linecap="round"/><path d="M65.25815,266.94611l32.29784,-4.1093l23.81362,13.95349l-28.69929,15.76847l-24.37452,-4.35306z" data-paper-data="{&quot;index&quot;:null}" fill="#774b00" stroke="#703100" stroke-width="2" stroke-linecap="round"/><path d="M346.9899,252.23188l11.83901,18.01465l-0.24675,16.26774l-16.92389,-13.87762l-4.99504,-14.90558z" data-paper-data="{&quot;index&quot;:null}" fill="#774b00" stroke="#703100" stroke-width="2" stroke-linecap="round"/></g></g></svg>