<svg version="1.1" xmlns="http://www.w3.org/2000/svg" xmlns:xlink="http://www.w3.org/1999/xlink" width="416.27982" height="253.4585" viewBox="0,0,416.27982,253.4585"><defs><linearGradient x1="322.88662" y1="151.11198" x2="322.88662" y2="185.88912" gradientUnits="userSpaceOnUse" id="color-1"><stop offset="0" stop-color="#00a515"/><stop offset="1" stop-color="#00bf06"/></linearGradient><linearGradient x1="354.1224" y1="147.29125" x2="354.1224" y2="185.46459" gradientUnits="userSpaceOnUse" id="color-2"><stop offset="0" stop-color="#00a515"/><stop offset="1" stop-color="#00bf06"/></linearGradient><linearGradient x1="70.07493" y1="66.15625" x2="70.07493" y2="289.15625" gradientUnits="userSpaceOnUse" id="color-3"><stop offset="0" stop-color="#f9dea4"/><stop offset="1" stop-color="#ffce71"/></linearGradient><linearGradient x1="68.6218" y1="31.34699" x2="68.6218" y2="108.98654" gradientUnits="userSpaceOnUse" id="color-4"><stop offset="0" stop-color="#00a515"/><stop offset="1" stop-color="#00bf06"/></linearGradient><linearGradient x1="233.88662" y1="254.11198" x2="233.88662" y2="288.88912" gradientUnits="userSpaceOnUse" id="color-5"><stop offset="0" stop-color="#00a515"/><stop offset="1" stop-color="#00bf06"/></linearGradient><linearGradient x1="265.1224" y1="250.29125" x2="265.1224" y2="288.46459" gradientUnits="userSpaceOnUse" id="color-6"><stop offset="0" stop-color="#00a515"/><stop offset="1" stop-color="#00bf06"/></linearGradient></defs><g transform="translate(35.46769,-43.82275)"><g data-paper-data="{&quot;isPaintingLayer&quot;:true}" fill-rule="nonzero" stroke-linejoin="miter" stroke-miterlimit="10" stroke-dasharray="" stroke-dashoffset="0" style="mix-blend-mode: normal"><path d="M305.49805,168.50055c0,-9.60344 7.78512,-17.38857 17.38857,-17.38857c9.60344,0 17.38855,7.78512 17.38855,17.38857c0,9.60344 -7.78512,17.38857 -17.38855,17.38857c-9.60344,0 -17.38857,-7.78512 -17.38857,-17.38857z" fill="url(#color-1)" stroke="#008a05" stroke-width="3" stroke-linecap="butt"/><path d="M333.41485,161.04831l9.3153,-6.83122" fill="none" stroke="#008a05" stroke-width="3" stroke-linecap="round"/><path d="M321.61546,145.52281l2.48409,14.28346" fill="none" stroke="#008a05" stroke-width="3" stroke-linecap="round"/><path d="M321.61546,170.98463l1.86306,-6.21021" fill="none" stroke="#008a05" stroke-width="3" stroke-linecap="round"/><path d="M314.78424,162.29034l-10.55734,-13.04142" fill="none" stroke="#008a05" stroke-width="3" stroke-linecap="round"/><path d="M301.12179,174.71076l11.79939,-1.86306" fill="none" stroke="#008a05" stroke-width="3" stroke-linecap="round"/><path d="M322.23648,192.09931l-1.86306,-12.42041" fill="none" stroke="#008a05" stroke-width="3" stroke-linecap="round"/><path d="M324.09954,174.71076l13.66245,5.58918" fill="none" stroke="#008a05" stroke-width="3" stroke-linecap="round"/><path d="M345.83526,164.77443l-14.28347,3.72612" fill="none" stroke="#008a05" stroke-width="3" stroke-linecap="round"/><path d="M335.03573,166.37791c0,-10.54128 8.54539,-19.08666 19.08668,-19.08666c10.54128,0 19.08666,8.54538 19.08666,19.08666c0,10.54128 -8.54538,19.08668 -19.08666,19.08668c-10.54128,0 -19.08668,-8.54539 -19.08668,-19.08668z" fill="url(#color-2)" stroke="#008a05" stroke-width="3" stroke-linecap="butt"/><path d="M365.67878,158.19791l10.225,-7.49832" fill="none" stroke="#008a05" stroke-width="3" stroke-linecap="round"/><path d="M352.72712,141.15625l2.72666,15.67834" fill="none" stroke="#008a05" stroke-width="3" stroke-linecap="round"/><path d="M354.77212,162.28791l-2.045,6.81668" fill="none" stroke="#008a05" stroke-width="3" stroke-linecap="round"/><path d="M333.64046,145.24625l11.58832,14.315" fill="none" stroke="#008a05" stroke-width="3" stroke-linecap="round"/><path d="M330.23212,173.19459l12.95166,-2.045" fill="none" stroke="#008a05" stroke-width="3" stroke-linecap="round"/><path d="M353.40878,192.28125l-2.045,-13.63334" fill="none" stroke="#008a05" stroke-width="3" stroke-linecap="round"/><path d="M370.45045,179.32959l-14.99668,-6.135" fill="none" stroke="#008a05" stroke-width="3" stroke-linecap="round"/><path d="M363.63378,166.37791l15.67834,-4.09" fill="none" stroke="#008a05" stroke-width="3" stroke-linecap="round"/><path d="M58.57493,289.15625v-223h23v223z" fill="url(#color-3)" stroke="#c38600" stroke-width="4" stroke-linecap="butt"/><path d="M165.6218,70.16677l-32.00489,-4.78053c0,0 25.36485,12.27634 25.94705,15.14929c1.65533,8.16847 -22.29355,13.52127 -41.22636,13.44027c-26.12816,-0.11177 -49.71579,-25.65759 -49.71579,-25.65759c0,0 -11.35577,21.62334 -46.36338,22.17788c-8.69718,0.13777 -43.99052,-4.92153 -43.99052,-4.92153c0,0 5.80907,-8.78275 14.46528,-12.48224c6.69281,-2.86037 22.60001,-8.34864 22.60001,-8.34864c0,0 -13.08675,-3.04736 -19.87847,-2.18502c-7.39416,0.93884 -22.83294,7.6081 -22.83294,7.6081c0,0 18.24937,-23.13279 48.02164,-23.88729c30.1489,-0.76405 47.97837,20.80635 47.97837,20.80635c0,0 22.90942,-22.31243 51.18088,-20.76307c26.95949,1.47746 45.81912,23.84401 45.81912,23.84401z" fill="url(#color-4)" stroke="#008a05" stroke-width="5" stroke-linecap="butt"/><path d="M216.49805,271.50055c0,-9.60344 7.78512,-17.38857 17.38857,-17.38857c9.60344,0 17.38855,7.78512 17.38855,17.38857c0,9.60344 -7.78512,17.38857 -17.38855,17.38857c-9.60344,0 -17.38857,-7.78512 -17.38857,-17.38857z" fill="url(#color-5)" stroke="#008a05" stroke-width="4" stroke-linecap="butt"/><path d="M253.73015,257.21709l-9.3153,6.83122" fill="none" stroke="#008a05" stroke-width="4" stroke-linecap="round"/><path d="M232.61546,248.52281l2.48409,14.28346" fill="none" stroke="#008a05" stroke-width="4" stroke-linecap="round"/><path d="M232.61546,273.98463l1.86306,-6.21021" fill="none" stroke="#008a05" stroke-width="4" stroke-linecap="round"/><path d="M215.2269,252.24892l10.55734,13.04142" fill="none" stroke="#008a05" stroke-width="4" stroke-linecap="round"/><path d="M223.92118,275.8477l-11.79939,1.86306" fill="none" stroke="#008a05" stroke-width="4" stroke-linecap="round"/><path d="M233.23648,295.09931l-1.86306,-12.42041" fill="none" stroke="#008a05" stroke-width="4" stroke-linecap="round"/><path d="M235.09954,277.71076l13.66245,5.58918" fill="none" stroke="#008a05" stroke-width="4" stroke-linecap="round"/><path d="M242.55179,271.50055l14.28347,-3.72612" fill="none" stroke="#008a05" stroke-width="4" stroke-linecap="round"/><path d="M246.03573,269.37791c0,-10.54128 8.54539,-19.08666 19.08668,-19.08666c10.54128,0 19.08666,8.54538 19.08666,19.08666c0,10.54128 -8.54538,19.08668 -19.08666,19.08668c-10.54128,0 -19.08668,-8.54539 -19.08668,-19.08668z" fill="url(#color-6)" stroke="#008a05" stroke-width="4" stroke-linecap="butt"/><path d="M276.67878,261.19791l10.225,-7.49832" fill="none" stroke="#008a05" stroke-width="4" stroke-linecap="round"/><path d="M263.72712,244.15625l2.72666,15.67834" fill="none" stroke="#008a05" stroke-width="4" stroke-linecap="round"/><path d="M265.77212,265.28791l-2.045,6.81668" fill="none" stroke="#008a05" stroke-width="4" stroke-linecap="round"/><path d="M244.64046,248.24625l11.58832,14.315" fill="none" stroke="#008a05" stroke-width="4" stroke-linecap="round"/><path d="M241.23212,276.19459l12.95166,-2.045" fill="none" stroke="#008a05" stroke-width="4" stroke-linecap="round"/><path d="M262.36378,281.64791l2.045,13.63334" fill="none" stroke="#008a05" stroke-width="4" stroke-linecap="round"/><path d="M266.45377,276.19459l14.99668,6.135" fill="none" stroke="#008a05" stroke-width="4" stroke-linecap="round"/><path d="M274.63378,269.37791l15.67834,-4.09" fill="none" stroke="#008a05" stroke-width="4" stroke-linecap="round"/></g></g></svg>