<svg version="1.1" xmlns="http://www.w3.org/2000/svg" xmlns:xlink="http://www.w3.org/1999/xlink" width="81.42586" height="150.99882" viewBox="0,0,81.42586,150.99882"><defs><linearGradient x1="260.61039" y1="173.77607" x2="260.61039" y2="205.43364" gradientUnits="userSpaceOnUse" id="color-1"><stop offset="0" stop-color="#d21515"/><stop offset="1" stop-color="#940000"/></linearGradient><linearGradient x1="246.831" y1="213.48466" x2="246.831" y2="249.61714" gradientUnits="userSpaceOnUse" id="color-2"><stop offset="0" stop-color="#364ec7"/><stop offset="1" stop-color="#001371"/></linearGradient><linearGradient x1="244.54124" y1="243.49986" x2="244.54124" y2="258.68518" gradientUnits="userSpaceOnUse" id="color-3"><stop offset="0" stop-color="#a6680a"/><stop offset="1" stop-color="#6c4306"/></linearGradient><linearGradient x1="240.07517" y1="162.58105" x2="240.07517" y2="221.78101" gradientUnits="userSpaceOnUse" id="color-4"><stop offset="0" stop-color="#364ec7"/><stop offset="1" stop-color="#001371"/></linearGradient><linearGradient x1="241.66483" y1="167.89431" x2="241.66483" y2="188.4161" gradientUnits="userSpaceOnUse" id="color-5"><stop offset="0" stop-color="#d21515"/><stop offset="1" stop-color="#940000"/></linearGradient><linearGradient x1="240.51095" y1="127.59665" x2="240.51095" y2="178.2091" gradientUnits="userSpaceOnUse" id="color-6"><stop offset="0" stop-color="#ffefc0"/><stop offset="1" stop-color="#e0ce98"/></linearGradient><linearGradient x1="240.63481" y1="108.66052" x2="240.63481" y2="142.57001" gradientUnits="userSpaceOnUse" id="color-7"><stop offset="0" stop-color="#d21515"/><stop offset="1" stop-color="#940000"/></linearGradient><linearGradient x1="258.24889" y1="129.05436" x2="258.24889" y2="136.71789" gradientUnits="userSpaceOnUse" id="color-8"><stop offset="0" stop-color="#d21515"/><stop offset="1" stop-color="#940000"/></linearGradient><linearGradient x1="266.99924" y1="150.17124" x2="266.99924" y2="166.88114" gradientUnits="userSpaceOnUse" id="color-9"><stop offset="0" stop-color="#ffefc0"/><stop offset="1" stop-color="#e0ce98"/></linearGradient><linearGradient x1="217.75291" y1="142.50648" x2="217.75291" y2="153.81043" gradientUnits="userSpaceOnUse" id="color-10"><stop offset="0" stop-color="#ffefc0"/><stop offset="1" stop-color="#e0ce98"/></linearGradient><linearGradient x1="230.98411" y1="213.92098" x2="230.98411" y2="248.73425" gradientUnits="userSpaceOnUse" id="color-11"><stop offset="0" stop-color="#364ec7"/><stop offset="1" stop-color="#001371"/></linearGradient><linearGradient x1="238.20274" y1="240.39959" x2="238.20274" y2="256.10358" gradientUnits="userSpaceOnUse" id="color-12"><stop offset="0" stop-color="#a6680a"/><stop offset="1" stop-color="#6c4306"/></linearGradient><linearGradient x1="219.87409" y1="173.75059" x2="219.87409" y2="205.9989" gradientUnits="userSpaceOnUse" id="color-13"><stop offset="0" stop-color="#d21515"/><stop offset="1" stop-color="#940000"/></linearGradient></defs><g transform="translate(-201.44747,-108.16052)"><g data-paper-data="{&quot;isPaintingLayer&quot;:true}" fill-rule="nonzero" stroke-linejoin="miter" stroke-miterlimit="10" stroke-dasharray="" stroke-dashoffset="0" style="mix-blend-mode: normal"><g data-paper-data="{&quot;origPos&quot;:null,&quot;origRot&quot;:0}" stroke-width="1.5" stroke-linecap="butt"><path d="M252.64286,174.05405c3.16699,-1.62264 9.30155,4.0243 13.70189,12.61277c4.40035,8.58848 5.40018,16.86619 2.23318,18.48884c-3.16701,1.62263 -9.30157,-4.02429 -13.7019,-12.61276c-4.40035,-8.58848 -5.40018,-16.86622 -2.23317,-18.48884z" data-paper-data="{&quot;origRot&quot;:0,&quot;origPos&quot;:null,&quot;index&quot;:null}" fill="url(#color-1)" stroke="#940000"/><path d="M271.05468,197.89287c5.48281,1.18376 8.93691,6.73147 7.71497,12.39113c-1.22195,5.65967 -6.65722,9.2881 -12.14004,8.10434c-5.48279,-1.18376 -8.93691,-6.73147 -7.71497,-12.39113c1.22195,-5.65967 6.65723,-9.2881 12.14004,-8.10434z" data-paper-data="{&quot;origPos&quot;:null,&quot;index&quot;:null}" fill="#ffffff" stroke="#bfbfbf"/></g><g data-paper-data="{&quot;origPos&quot;:null,&quot;origRot&quot;:0}" stroke-width="1.5" stroke-linecap="butt"><path d="M256.36709,232.94359c-0.56668,3.45033 -3.07216,9.07698 -4.45506,12.28837c-1.98882,4.61847 -4.00474,4.8582 -9.1014,3.98535c-5.11938,-0.87673 -6.75225,-0.70127 -7.14888,-5.75258c-0.2728,-3.47436 3.72009,-9.90536 4.28314,-13.33356c1.66266,-10.1234 0.90831,-17.37636 5.5122,-16.58791c0,0 7.26959,1.82832 8.22439,3.83489c0,0 3.71977,-0.93667 4.14363,2.21287c0.42679,3.17134 0.20464,3.22916 -1.45803,13.35256z" data-paper-data="{&quot;origPos&quot;:null,&quot;origRot&quot;:0}" fill="url(#color-2)" stroke="#001371"/><path d="M254.75915,249.96769c3.85569,4.4603 0.71178,7.61552 -2.12346,8.44165c-3.43327,1.0004 -12.89155,-0.81968 -17.30882,-3.85492c-4.41726,-3.03524 -2.34714,-3.64682 -2.08048,-5.43489c0.59286,-3.97551 4.2241,-6.61815 11.60394,-5.25925c7.37985,1.3589 6.05315,1.64711 9.90884,6.10741z" data-paper-data="{&quot;origPos&quot;:null,&quot;origRot&quot;:0}" fill="url(#color-3)" stroke="#6c4306"/></g><path d="" data-paper-data="{&quot;origPos&quot;:null}" fill="#c1770b" stroke="#6c4306" stroke-width="1.5" stroke-linecap="butt"/><g data-paper-data="{&quot;origPos&quot;:null}" stroke-linecap="butt"><path d="M258.9692,192.85576c0,9.26372 2.84091,18.23837 -2.69239,25.3177c-3.54659,4.53753 -10.70286,3.50701 -16.20164,3.50701c-5.49877,0 -12.65505,0.73766 -16.20165,-3.79985c-5.5333,-7.07933 -2.69238,-15.76114 -2.69238,-25.02485c0,-15.91945 8.45914,-28.82471 18.89403,-28.82471c0,0 11.73737,-4.40076 15.22571,2.13104c3.4719,6.50102 3.66832,10.77421 3.66832,26.69366z" data-paper-data="{&quot;origPos&quot;:null}" fill="url(#color-4)" stroke="#001371" stroke-width="1.5"/><path d="M249.05212,176.53214c0,2.68857 1.31009,7.12666 -0.34219,8.97831c-1.7848,2.00015 -3.67346,2.91985 -6.1351,2.90548c-2.72608,-0.01592 -4.60612,-1.00217 -6.88148,-2.77355c-2.33853,-1.82055 -1.87025,-5.80478 -1.87025,-9.11024c0,-4.77054 3.40914,-8.63783 7.61452,-8.63783c4.20537,0 7.61451,3.8673 7.61451,8.63783z" data-paper-data="{&quot;origPos&quot;:null}" fill="url(#color-5)" stroke="none" stroke-width="0"/><path d="M234.41458,184.68768c0,2.23365 -1.96162,4.0444 -4.38142,4.0444c-2.4198,0 -4.38143,-1.81074 -4.38143,-4.0444c0,-2.23365 1.96163,-4.04439 4.38143,-4.04439c2.4198,0 4.38142,1.81074 4.38142,4.04439z" data-paper-data="{&quot;origPos&quot;:null}" fill="#faff66" stroke="none" stroke-width="1.5"/><path d="M257.91589,184.13296c0,2.17864 -1.9133,3.94477 -4.2735,3.94477c-2.36019,0 -4.2735,-1.76612 -4.2735,-3.94477c0,-2.17864 1.91331,-3.94477 4.2735,-3.94477c2.36019,0 4.2735,1.76612 4.2735,3.94477z" data-paper-data="{&quot;origPos&quot;:null}" fill="#faff66" stroke="none" stroke-width="1.5"/></g><g data-paper-data="{&quot;origPos&quot;:null}"><path d="M270.6324,153.98587c0,13.37811 -13.73475,24.22323 -28.56379,24.22323c-14.82904,0 -31.67913,-11.007 -31.67913,-24.38512c0,-4.84199 0.68944,-17.04147 3.19789,-21.12167c5.78078,-9.40291 17.74496,-2.93967 28.48124,-2.93967c0,0 17.47791,-4.07051 23.38966,4.87354c2.80538,4.24433 5.17415,5.97157 5.17415,19.34969z" data-paper-data="{&quot;origPos&quot;:null}" fill="url(#color-6)" stroke="#e0ce98" stroke-width="1" stroke-linecap="butt"/><path d="M268.50909,126.8602c8.09723,14.22755 -29.33424,10.83219 -31.98263,12.69652c-2.60107,1.83102 -0.81879,7.42841 -3.96033,7.42841c-4.40313,0 -9.25612,0.71417 -10.46658,5.11413c-0.70052,2.54638 2.60132,7.50047 0.13667,8.17316c-2.42796,0.66268 -4.70501,2.65189 -7.21096,2.80494c-2.03236,0.12412 -2.35905,-1.8961 -4.39469,-1.9276c-5.79716,-0.08972 0.78824,-11.96655 0.9253,-12.58939c0.04568,-0.20761 -1.20602,-4.44904 -1.20602,-6.50931c0,-11.17434 10.77902,-17.11649 17.8548,-17.11649c7.07578,0 32.2072,-12.30192 40.30444,1.92563z" data-paper-data="{&quot;origPos&quot;:null}" fill="#5a3413" stroke="#351c06" stroke-width="1" stroke-linecap="butt"/><path d="M267.91427,166.43729c0,0.93673 -1.03545,2.26869 -1.13658,3.19959c-0.21477,1.97699 -1.58685,3.01897 -3.51269,3.10762c-2.12553,0.09786 -3.01604,-2.04326 -5.14035,-2.16621c-1.47465,-0.08537 -1.53991,1.74597 -3.01688,1.74597c-1.60871,0 -1.59206,-1.47457 -3.17663,-1.76096c-2.16384,-0.39108 -2.86624,1.73159 -4.82742,0.71024c-1.02557,-0.53411 -2.61762,-2.77623 -3.25007,-3.76589c-2.00221,-3.13303 -6.90647,-7.24457 -2.50601,-8.38529c2.1651,-0.56126 8.33282,5.18914 10.56518,5.18914c0,0 3.73999,-0.01695 5.59794,0.08157c4.21276,0.22336 10.4035,-2.38936 10.4035,2.04422z" data-paper-data="{&quot;origPos&quot;:null}" fill="#5a3413" stroke="#351c06" stroke-width="1" stroke-linecap="butt"/><path d="M271.87853,129.32832c0,10.22611 -12.29169,3.93148 -29.30368,3.93148c-4.11857,0 -9.56963,8.43304 -13.688,8.3958c-5.83861,-0.05278 -13.19319,2.54455 -17.80513,-0.78743c-3.25572,-2.35216 -0.80907,-7.7045 -0.80907,-11.53986c0,-8.66476 9.69318,-8.78997 18.09413,-12.52798c6.1066,-2.71713 5.93994,-7.5099 12.70881,-7.5099c0,0 13.85643,-1.8789 21.91934,0.85332c9.12834,3.09325 8.8836,8.95845 8.8836,19.18456z" data-paper-data="{&quot;origPos&quot;:null}" fill="url(#color-7)" stroke="#940000" stroke-width="1" stroke-linecap="butt"/><path d="M282.37333,135.14558c0,3.36409 -10.25569,0.28331 -23.57925,0.28331c-13.32355,0 -24.66962,3.08078 -24.66962,-0.28331c0,-3.36409 10.80087,-6.09122 24.12443,-6.09122c13.32355,0 24.12443,2.72713 24.12443,6.09122z" data-paper-data="{&quot;origPos&quot;:null}" fill="url(#color-8)" stroke="#940000" stroke-width="1" stroke-linecap="butt"/><path d="M266.48394,123.00477c0,2.07307 0.30737,3.50338 -1.23203,4.82162c-1.32872,1.13783 -8.88182,0.83961 -10.13715,-0.07455c-1.7882,-1.30221 -1.07033,-2.47775 -1.07033,-4.74707c0,-3.38707 2.78469,-6.13285 6.21977,-6.13285c3.43508,0 6.21976,2.74578 6.21976,6.13285z" data-paper-data="{&quot;origPos&quot;:null}" fill="#ffffff" stroke="#a4a4a4" stroke-width="1" stroke-linecap="butt"/><path d="M258.88145,147.83591c0,3.99999 -2.08558,7.24263 -4.65827,7.24263c-2.57269,0 -4.65827,-3.24264 -4.65827,-7.24263c0,-3.99999 2.08558,-7.24264 4.65827,-7.24264c2.57269,0 4.65827,3.24264 4.65827,7.24264z" data-paper-data="{&quot;origPos&quot;:null}" fill="#ffffff" stroke="none" stroke-width="0" stroke-linecap="butt"/><path d="M256.59388,125.89745l1.71344,-5.34246l2.02498,3.56164l1.55767,-3.72353l2.3365,5.01868" data-paper-data="{&quot;origPos&quot;:null}" fill="none" stroke="#ba0000" stroke-width="1" stroke-linecap="round"/><path d="M250.53295,139.87833c0,0 3.51435,-0.56784 4.22549,-0.44572c1.27172,0.21838 3.47173,1.77246 3.47173,1.77246" data-paper-data="{&quot;origPos&quot;:null,&quot;origRot&quot;:0}" fill="none" stroke="#351c06" stroke-width="1.5" stroke-linecap="round"/><path d="M258.90994,147.52473c0,2.65462 -1.3841,4.8066 -3.09148,4.8066c-1.70738,0 -3.09148,-2.152 -3.09148,-4.8066c0,-2.65462 1.38411,-4.8066 3.09148,-4.8066c1.70738,0 3.09148,2.152 3.09148,4.8066z" data-paper-data="{&quot;origPos&quot;:null}" fill="#1121d4" stroke="none" stroke-width="0" stroke-linecap="butt"/><path d="M258.97722,147.38514c0,1.37271 -0.71572,2.4855 -1.59861,2.4855c-0.8829,0 -1.59861,-1.1128 -1.59861,-2.4855c0,-1.37271 0.71573,-2.4855 1.59861,-2.4855c0.8829,0 1.59861,1.1128 1.59861,2.4855z" data-paper-data="{&quot;origPos&quot;:null}" fill="#000000" stroke="none" stroke-width="0" stroke-linecap="butt"/><path d="M265.16295,139.96594c2.13325,0 3.8626,2.68875 3.8626,6.0055c0,3.31675 -1.72934,6.0055 -3.8626,6.0055c-2.13325,0 -3.8626,-2.68875 -3.8626,-6.0055c0,-3.31675 1.72934,-6.0055 3.8626,-6.0055z" data-paper-data="{&quot;origPos&quot;:null,&quot;index&quot;:null}" fill="#ffffff" stroke="none" stroke-width="0" stroke-linecap="butt"/><path d="M262.17604,140.37996c0,0 1.82422,-1.28863 2.87872,-1.46971c0.58967,-0.10126 3.50373,0.36959 3.50373,0.36959" data-paper-data="{&quot;origPos&quot;:null,&quot;origRot&quot;:0,&quot;index&quot;:null}" fill="none" stroke="#351c06" stroke-width="1.5" stroke-linecap="round"/><path d="M266.58257,141.84529c1.41573,0 2.56343,1.78441 2.56343,3.98557c0,2.20117 -1.14768,3.98557 -2.56343,3.98557c-1.41573,0 -2.56342,-1.78441 -2.56342,-3.98557c0,-2.20117 1.14768,-3.98557 2.56342,-3.98557z" data-paper-data="{&quot;origPos&quot;:null,&quot;index&quot;:null}" fill="#1121d4" stroke="none" stroke-width="0" stroke-linecap="butt"/><path d="M267.92058,143.77634c0.73209,0 1.32555,0.92272 1.32555,2.06095c0,1.13824 -0.59347,2.06095 -1.32555,2.06095c-0.73209,0 -1.32554,-0.92272 -1.32554,-2.06095c0,-1.13824 0.59347,-2.06095 1.32554,-2.06095z" data-paper-data="{&quot;origPos&quot;:null,&quot;index&quot;:null}" fill="#000000" stroke="none" stroke-width="0" stroke-linecap="butt"/><path d="M278.98693,158.52619c0,4.61431 -5.36707,8.35495 -11.98769,8.35495c-6.62061,0 -11.98769,-3.74063 -11.98769,-8.35495c0,-4.61431 5.36707,-8.35495 11.98769,-8.35495c6.62061,0 11.98769,3.74063 11.98769,8.35495z" data-paper-data="{&quot;origPos&quot;:null}" fill="url(#color-9)" stroke="#e0ce98" stroke-width="1.5" stroke-linecap="butt"/><path d="M224.73522,150.57742c-0.90455,2.82035 -4.76391,4.0237 -8.62013,2.68774c-3.85623,-1.33596 -6.24902,-4.70531 -5.34448,-7.52567c0.90455,-2.82035 4.76391,-4.0237 8.62013,-2.68774c3.85623,1.33596 6.24902,4.70531 5.34448,7.52567z" data-paper-data="{&quot;origRot&quot;:0,&quot;origPos&quot;:null}" fill="url(#color-10)" stroke="#e0ce98" stroke-width="1.5" stroke-linecap="butt"/></g><g data-paper-data="{&quot;origPos&quot;:null,&quot;origRot&quot;:0}" stroke-width="1.5" stroke-linecap="butt"><path d="M240.53657,227.58859c0.83611,3.34503 0.74598,9.43465 0.73781,12.89136c-0.01173,4.97128 -1.77053,5.99698 -6.79881,7.25382c-5.05069,1.26245 -6.48266,2.07633 -8.83394,-2.32868c-1.61723,-3.02983 -0.47617,-10.44318 -1.30692,-13.76676c-2.45317,-9.81445 -5.99919,-16.06523 -1.45707,-17.20056c0,0 7.40148,-1.26559 9.06835,0.16428c4.80616,4.12279 6.1374,3.17209 8.59057,12.98656z" data-paper-data="{&quot;origPos&quot;:null}" fill="url(#color-11)" stroke="#001371"/><path d="M246.85413,243.02477c5.42171,2.64024 3.70733,7.04691 1.35665,9.0708c-2.8465,2.45077 -12.51175,4.78305 -17.89641,3.7619c-5.38465,-1.02114 -3.67167,-2.50697 -4.13212,-4.3491c-1.02375,-4.09573 1.35548,-8.2181 8.87241,-10.097c7.51693,-1.87889 6.37777,-1.02684 11.79947,1.61341z" data-paper-data="{&quot;origPos&quot;:null}" fill="url(#color-12)" stroke="#6c4306"/></g><g data-paper-data="{&quot;origPos&quot;:null,&quot;origRot&quot;:0}" stroke-width="1.5" stroke-linecap="butt"><path d="M225.72912,192.66581c-4.18024,8.76918 -10.19037,14.62842 -13.424,13.08696c-3.23364,-1.54144 -2.46626,-9.89988 1.71395,-18.66909c4.18024,-8.76918 10.19037,-14.62842 13.424,-13.08696c3.23364,1.54144 2.46626,9.89988 -1.71395,18.66909z" data-paper-data="{&quot;origRot&quot;:0,&quot;origPos&quot;:null}" fill="url(#color-13)" stroke="#940000"/><path d="M222.05323,206.32091c1.39283,5.65989 -1.92292,11.34196 -7.40595,12.69126c-5.48302,1.34931 -11.05699,-2.14512 -12.44981,-7.805c-1.39283,-5.65989 1.92292,-11.34196 7.40595,-12.69126c5.48302,-1.34931 11.05699,2.14512 12.44981,7.805z" data-paper-data="{&quot;origPos&quot;:null,&quot;origRot&quot;:0}" fill="#ffffff" stroke="#bfbfbf"/></g></g></g></svg>