<svg version="1.1" xmlns="http://www.w3.org/2000/svg" xmlns:xlink="http://www.w3.org/1999/xlink" width="313.61608" height="133.45463" viewBox="0,0,313.61608,133.45463"><defs><linearGradient x1="201.15626" y1="222.31251" x2="201.15626" y2="297.31251" gradientUnits="userSpaceOnUse" id="color-1"><stop offset="0" stop-color="#9f8040"/><stop offset="1" stop-color="#7f6633"/></linearGradient><linearGradient x1="203.20313" y1="170.40626" x2="203.20313" y2="233.40626" gradientUnits="userSpaceOnUse" id="color-2"><stop offset="0" stop-color="#9f8040"/><stop offset="1" stop-color="#7f6633"/></linearGradient></defs><g transform="translate(-5.42336,-166.85787)"><g data-paper-data="{&quot;isPaintingLayer&quot;:true}" fill-rule="nonzero" stroke-linejoin="miter" stroke-miterlimit="10" stroke-dasharray="" stroke-dashoffset="0" style="mix-blend-mode: normal"><path d="M191.15626,297.31251v-75h20v75z" fill="url(#color-1)" stroke="#3e3119" stroke-width="2" stroke-linecap="butt"/><path d="" data-paper-data="{&quot;origPos&quot;:null}" fill="none" stroke="#5c4a25" stroke-width="7.5" stroke-linecap="round"/><path d="M153.70313,233.40626v-63l17.5,5.5l16.46785,-5.97636l15.52745,5.6174l17.01406,-7.56381l13.95618,8.42435l18.03446,-8.00158l0.5,65l-18.00315,-6.62641l-15.96403,6.34865l-16.53771,-5.69072l-16.86748,5.34966l-15.62764,-4.38118z" fill="url(#color-2)" stroke="#3e3119" stroke-width="2" stroke-linecap="butt"/><path d="M227.22968,199.23812l-60.02655,1.76549" fill="none" stroke="#3e3119" stroke-width="7.5" stroke-linecap="round"/><path d="M207.02467,180.40626l26.67847,19.89987l-29.4829,21.29482" fill="none" stroke="#3e3119" stroke-width="7.5" stroke-linecap="round"/><path d="M254.4662,299.8125v-47.54774h5.1093v47.54774z" fill="#90ff96" stroke="none" stroke-width="0" stroke-linecap="butt"/><path d="M262.23442,265.40295c0,11.40232 -10.42714,11.40232 -10.42714,0c0,-11.40232 5.21357,-20.64573 5.21357,-20.64573c0,0 5.21357,9.24341 5.21357,20.64573z" fill="#ff8cf5" stroke="none" stroke-width="0" stroke-linecap="butt"/><path d="M257.02085,246.00997c0,0 -5.21357,-9.24341 -5.21357,-20.64573c0,-11.40232 10.42714,-11.40232 10.42714,0c0,11.40232 -5.21357,20.64573 -5.21357,20.64573z" data-paper-data="{&quot;index&quot;:null}" fill="#ff8cf5" stroke="none" stroke-width="0" stroke-linecap="butt"/><path d="M257.87059,245.44795c0,0 8.98667,-5.64462 20.37625,-6.18353c11.38958,-0.53891 11.8824,9.87657 0.49282,10.41548c-11.38958,0.53891 -20.86907,-4.23196 -20.86907,-4.23196z" data-paper-data="{&quot;index&quot;:null}" fill="#ff8cf5" stroke="none" stroke-width="0" stroke-linecap="butt"/><path d="M235.72313,250.097c-11.38958,-0.53891 -10.89676,-10.95439 0.49282,-10.41548c11.38958,0.53891 20.37625,6.18353 20.37625,6.18353c0,0 -9.47949,4.77087 -20.86907,4.23196z" data-paper-data="{&quot;index&quot;:null}" fill="#ff8cf5" stroke="none" stroke-width="0" stroke-linecap="butt"/><path d="M257.47532,245.9966c0,0 3.15285,-10.13318 11.45216,-17.95203c8.29931,-7.81885 15.44945,-0.22934 7.15014,7.58951c-8.29931,7.81885 -18.6023,10.36253 -18.6023,10.36253z" data-paper-data="{&quot;index&quot;:null}" fill="#ff8cf5" stroke="none" stroke-width="0" stroke-linecap="butt"/><path d="M238.22653,235.63408c-8.29931,-7.81885 -1.14917,-15.40836 7.15014,-7.58951c8.29931,7.81885 11.45216,17.95204 11.45216,17.95204c0,0 -10.30299,-2.54367 -18.6023,-10.36252z" data-paper-data="{&quot;index&quot;:null}" fill="#ff8cf5" stroke="none" stroke-width="0" stroke-linecap="butt"/><path d="M276.4947,256.39166c8.29931,7.81885 1.14917,15.40836 -7.15014,7.58951c-8.29931,-7.81885 -11.45215,-17.95204 -11.45215,-17.95204c0,0 10.30299,2.54367 18.6023,10.36252z" data-paper-data="{&quot;index&quot;:null}" fill="#ff8cf5" stroke="none" stroke-width="0" stroke-linecap="butt"/><path d="M256.82883,246.02914c0,0 -3.15285,10.13318 -11.45215,17.95203c-8.29931,7.81885 -15.44945,0.22934 -7.15014,-7.58951c8.29931,-7.81885 18.6023,-10.36252 18.6023,-10.36252z" data-paper-data="{&quot;index&quot;:null}" fill="#ff8cf5" stroke="none" stroke-width="0" stroke-linecap="butt"/><path d="M252.64146,246.00848c0,-2.53385 2.05409,-4.58794 4.58794,-4.58794c2.53385,0 4.58794,2.05409 4.58794,4.58794c0,2.53385 -2.05409,4.58794 -4.58794,4.58794c-2.53385,0 -4.58794,-2.05409 -4.58794,-4.58794z" fill="#fffa5b" stroke="none" stroke-width="0" stroke-linecap="butt"/><path d="M257.85782,281.54795c0,0 3.92257,-5.84413 10.67826,-9.24282c6.75569,-3.39868 9.8637,2.77923 3.10801,6.17791c-6.75569,3.39868 -13.78627,3.0649 -13.78627,3.0649z" data-paper-data="{&quot;index&quot;:null}" fill="#90ff96" stroke="none" stroke-width="0" stroke-linecap="butt"/><path d="M255.81316,281.13087c0,0 -7.03058,0.33378 -13.78627,-3.0649c-6.75569,-3.39868 -3.64768,-9.57659 3.10801,-6.17791c6.75569,3.39869 10.67826,9.24282 10.67826,9.24282z" data-paper-data="{&quot;index&quot;:null}" fill="#90ff96" stroke="none" stroke-width="0" stroke-linecap="butt"/><path d="M41.76535,300.3125v-63.89784h6.86621v63.89784z" fill="#90ff96" stroke="none" stroke-width="0" stroke-linecap="butt"/><path d="M52.2048,254.07065c0,15.32321 -14.01268,15.32321 -14.01268,0c0,-15.32321 7.00634,-27.74511 7.00634,-27.74511c0,0 7.00634,12.42191 7.00634,27.74511z" fill="#ffd359" stroke="none" stroke-width="0" stroke-linecap="butt"/><path d="M45.19845,228.00906c0,0 -7.00634,-12.42191 -7.00634,-27.74511c0,-15.32321 14.01268,-15.32321 14.01268,0c0,15.32321 -7.00634,27.74511 -7.00634,27.74511z" data-paper-data="{&quot;index&quot;:null}" fill="#ffd359" stroke="none" stroke-width="0" stroke-linecap="butt"/><path d="M46.3404,227.25378c0,0 12.07689,-7.58561 27.38296,-8.30984c15.30607,-0.72422 15.96837,13.2728 0.66228,13.99702c-15.30607,0.72422 -28.04525,-5.68718 -28.04525,-5.68718z" data-paper-data="{&quot;index&quot;:null}" fill="#ffd359" stroke="none" stroke-width="0" stroke-linecap="butt"/><path d="M16.57714,233.50147c-15.30608,-0.72422 -14.64379,-14.72124 0.66228,-13.99702c15.30608,0.72422 27.38297,8.30984 27.38297,8.30984c0,0 -12.73918,6.41141 -28.04525,5.68718z" data-paper-data="{&quot;index&quot;:null}" fill="#ffd359" stroke="none" stroke-width="0" stroke-linecap="butt"/><path d="M45.80919,227.9911c0,0 4.23701,-13.61765 15.39018,-24.12515c11.15317,-10.50749 20.76201,-0.3082 9.60884,10.19929c-11.15317,10.50749 -24.99902,13.92586 -24.99902,13.92586z" data-paper-data="{&quot;index&quot;:null}" fill="#ffd359" stroke="none" stroke-width="0" stroke-linecap="butt"/><path d="M19.94139,214.06524c-11.15317,-10.50749 -1.54433,-20.70679 9.60884,-10.19929c11.15317,10.50749 15.39017,24.12515 15.39017,24.12515c0,0 -13.84584,-3.41836 -24.99901,-13.92586z" data-paper-data="{&quot;index&quot;:null}" fill="#ffd359" stroke="none" stroke-width="0" stroke-linecap="butt"/><path d="M71.36872,241.96067c11.15317,10.50749 1.54433,20.70679 -9.60884,10.19929c-11.15317,-10.50749 -15.39017,-24.12515 -15.39017,-24.12515c0,0 13.84585,3.41836 24.99902,13.92586z" data-paper-data="{&quot;index&quot;:null}" fill="#ffd359" stroke="none" stroke-width="0" stroke-linecap="butt"/><path d="M44.9404,228.03481c0,0 -4.237,13.61765 -15.39017,24.12515c-11.15317,10.50749 -20.76201,0.3082 -9.60884,-10.19929c11.15317,-10.50749 24.99902,-13.92586 24.99902,-13.92586z" data-paper-data="{&quot;index&quot;:null}" fill="#ffd359" stroke="none" stroke-width="0" stroke-linecap="butt"/><path d="M39.31313,228.00705c0,-3.40516 2.76042,-6.16558 6.16558,-6.16558c3.40516,0 6.16558,2.76042 6.16558,6.16558c0,3.40516 -2.76042,6.16558 -6.16558,6.16558c-3.40516,0 -6.16558,-2.76042 -6.16558,-6.16558z" fill="#fffa5b" stroke="none" stroke-width="0" stroke-linecap="butt"/><path d="M46.32322,275.76738c0,0 5.27141,-7.85373 14.35016,-12.42111c9.07876,-4.56738 13.25551,3.73491 4.17675,8.30229c-9.07876,4.56738 -18.52691,4.11882 -18.52691,4.11882z" data-paper-data="{&quot;index&quot;:null}" fill="#90ff96" stroke="none" stroke-width="0" stroke-linecap="butt"/><path d="M43.57547,275.20687c0,0 -9.44816,0.44856 -18.52691,-4.11882c-9.07876,-4.56738 -4.902,-12.86967 4.17675,-8.30229c9.07875,4.56738 14.35015,12.42111 14.35015,12.42111z" data-paper-data="{&quot;index&quot;:null}" fill="#90ff96" stroke="none" stroke-width="0" stroke-linecap="butt"/><path d="M286.46621,300.31251v-63.54774h5.1093v63.54774z" fill="#90ff96" stroke="none" stroke-width="0" stroke-linecap="butt"/><path d="M294.23443,249.90296c0,11.40232 -10.42714,11.40232 -10.42714,0c0,-11.40232 5.21357,-20.64573 5.21357,-20.64573c0,0 5.21357,9.24341 5.21357,20.64573z" fill="#bb8cff" stroke="none" stroke-width="0" stroke-linecap="butt"/><path d="M289.02086,230.50998c0,0 -5.21357,-9.24341 -5.21357,-20.64573c0,-11.40232 10.42714,-11.40232 10.42714,0c0,11.40232 -5.21357,20.64573 -5.21357,20.64573z" data-paper-data="{&quot;index&quot;:null}" fill="#bb8cff" stroke="none" stroke-width="0" stroke-linecap="butt"/><path d="M289.87059,229.94796c0,0 8.98667,-5.64462 20.37625,-6.18353c11.38958,-0.53891 11.8824,9.87657 0.49282,10.41548c-11.38958,0.53891 -20.86907,-4.23196 -20.86907,-4.23196z" data-paper-data="{&quot;index&quot;:null}" fill="#bb8cff" stroke="none" stroke-width="0" stroke-linecap="butt"/><path d="M267.72314,234.59701c-11.38958,-0.53891 -10.89676,-10.95439 0.49282,-10.41548c11.38958,0.53891 20.37625,6.18353 20.37625,6.18353c0,0 -9.47949,4.77087 -20.86907,4.23196z" data-paper-data="{&quot;index&quot;:null}" fill="#bb8cff" stroke="none" stroke-width="0" stroke-linecap="butt"/><path d="M289.47533,230.49661c0,0 3.15285,-10.13318 11.45216,-17.95203c8.29931,-7.81885 15.44945,-0.22934 7.15014,7.58951c-8.29931,7.81885 -18.6023,10.36253 -18.6023,10.36253z" data-paper-data="{&quot;index&quot;:null}" fill="#bb8cff" stroke="none" stroke-width="0" stroke-linecap="butt"/><path d="M270.22654,220.13408c-8.29931,-7.81885 -1.14917,-15.40836 7.15014,-7.58951c8.29931,7.81885 11.45216,17.95204 11.45216,17.95204c0,0 -10.30299,-2.54367 -18.6023,-10.36252z" data-paper-data="{&quot;index&quot;:null}" fill="#bb8cff" stroke="none" stroke-width="0" stroke-linecap="butt"/><path d="M308.49471,240.89166c8.29931,7.81885 1.14917,15.40836 -7.15014,7.58951c-8.29931,-7.81885 -11.45215,-17.95204 -11.45215,-17.95204c0,0 10.30299,2.54367 18.6023,10.36252z" data-paper-data="{&quot;index&quot;:null}" fill="#bb8cff" stroke="none" stroke-width="0" stroke-linecap="butt"/><path d="M288.82884,230.52914c0,0 -3.15285,10.13318 -11.45215,17.95203c-8.29931,7.81885 -15.44945,0.22934 -7.15014,-7.58951c8.29931,-7.81885 18.6023,-10.36252 18.6023,-10.36252z" data-paper-data="{&quot;index&quot;:null}" fill="#bb8cff" stroke="none" stroke-width="0" stroke-linecap="butt"/><path d="M284.64147,230.50849c0,-2.53385 2.05409,-4.58794 4.58794,-4.58794c2.53385,0 4.58794,2.05409 4.58794,4.58794c0,2.53385 -2.05409,4.58794 -4.58794,4.58794c-2.53385,0 -4.58794,-2.05409 -4.58794,-4.58794z" fill="#fffa5b" stroke="none" stroke-width="0" stroke-linecap="butt"/><path d="M289.85783,266.04796c0,0 3.92257,-5.84413 10.67826,-9.24282c6.75569,-3.39868 9.8637,2.77923 3.10801,6.17791c-6.75569,3.39868 -13.78627,3.0649 -13.78627,3.0649z" data-paper-data="{&quot;index&quot;:null}" fill="#90ff96" stroke="none" stroke-width="0" stroke-linecap="butt"/><path d="M287.81317,265.63088c0,0 -7.03058,0.33378 -13.78627,-3.0649c-6.75569,-3.39868 -3.64768,-9.57659 3.10801,-6.17791c6.75569,3.39869 10.67826,9.24282 10.67826,9.24282z" data-paper-data="{&quot;index&quot;:null}" fill="#90ff96" stroke="none" stroke-width="0" stroke-linecap="butt"/></g></g></svg>