<svg version="1.1" xmlns="http://www.w3.org/2000/svg" xmlns:xlink="http://www.w3.org/1999/xlink" width="488.5015" height="376.63438" viewBox="0,0,488.5015,376.63438"><defs><linearGradient x1="239.9752" y1="102.28754" x2="239.9752" y2="260.6232" gradientUnits="userSpaceOnUse" id="color-1"><stop offset="0" stop-color="#000000"/><stop offset="1" stop-color="#5a82ff"/></linearGradient><linearGradient x1="287.44726" y1="168.16715" x2="296.02287" y2="239.05348" gradientUnits="userSpaceOnUse" id="color-2"><stop offset="0" stop-color="#bb6b24"/><stop offset="1" stop-color="#7c5226"/></linearGradient><radialGradient cx="259.83053" cy="185.61243" r="18.16584" gradientUnits="userSpaceOnUse" id="color-3"><stop offset="0" stop-color="#398f3b"/><stop offset="1" stop-color="#1a421b"/></radialGradient><radialGradient cx="317.98459" cy="184.82557" r="18.16584" gradientUnits="userSpaceOnUse" id="color-4"><stop offset="0" stop-color="#398f3b"/><stop offset="1" stop-color="#1a421b"/></radialGradient><radialGradient cx="287.07048" cy="161.73206" r="26.94931" gradientUnits="userSpaceOnUse" id="color-5"><stop offset="0" stop-color="#398f3b"/><stop offset="1" stop-color="#1a421b"/></radialGradient><linearGradient x1="187.18648" y1="161.49139" x2="179.87934" y2="234.68935" gradientUnits="userSpaceOnUse" id="color-6"><stop offset="0" stop-color="#bb6b24"/><stop offset="1" stop-color="#7c5226"/></linearGradient><radialGradient cx="152.90703" cy="173.57664" r="19.3387" gradientUnits="userSpaceOnUse" id="color-7"><stop offset="0" stop-color="#66ff68"/><stop offset="1" stop-color="#398f3b"/></radialGradient><radialGradient cx="218.4876" cy="181.27887" r="19.3387" gradientUnits="userSpaceOnUse" id="color-8"><stop offset="0" stop-color="#66ff68"/><stop offset="1" stop-color="#398f3b"/></radialGradient><radialGradient cx="190.12734" cy="152.7273" r="27.77367" gradientUnits="userSpaceOnUse" id="color-9"><stop offset="0" stop-color="#66ff68"/><stop offset="1" stop-color="#398f3b"/></radialGradient><linearGradient x1="240.25545" y1="227.63173" x2="240.25545" y2="242.74808" gradientUnits="userSpaceOnUse" id="color-10"><stop offset="0" stop-color="#17ff22"/><stop offset="1" stop-color="#02d10c"/></linearGradient><linearGradient x1="186.59419" y1="52.67377" x2="186.59419" y2="77.44273" gradientUnits="userSpaceOnUse" id="color-11"><stop offset="0" stop-color="#ffffff"/><stop offset="1" stop-color="#e7e7e7"/></linearGradient><linearGradient x1="200.10454" y1="54.0248" x2="200.10454" y2="79.24411" gradientUnits="userSpaceOnUse" id="color-12"><stop offset="0" stop-color="#ffffff"/><stop offset="1" stop-color="#e7e7e7"/></linearGradient><linearGradient x1="223.07212" y1="53.34928" x2="223.07212" y2="78.56859" gradientUnits="userSpaceOnUse" id="color-13"><stop offset="0" stop-color="#ffffff"/><stop offset="1" stop-color="#e7e7e7"/></linearGradient><linearGradient x1="244.54969" y1="54.13738" x2="244.54969" y2="81.38325" gradientUnits="userSpaceOnUse" id="color-14"><stop offset="0" stop-color="#ffffff"/><stop offset="1" stop-color="#e7e7e7"/></linearGradient><linearGradient x1="272.0329" y1="54.876" x2="272.0329" y2="86.70036" gradientUnits="userSpaceOnUse" id="color-15"><stop offset="0" stop-color="#ffffff"/><stop offset="1" stop-color="#e7e7e7"/></linearGradient><linearGradient x1="291.30812" y1="53.87467" x2="291.30812" y2="78.64365" gradientUnits="userSpaceOnUse" id="color-16"><stop offset="0" stop-color="#ffffff"/><stop offset="1" stop-color="#e7e7e7"/></linearGradient><linearGradient x1="306.19125" y1="53.35357" x2="306.19125" y2="92.36916" gradientUnits="userSpaceOnUse" id="color-17"><stop offset="0" stop-color="#ffffff"/><stop offset="1" stop-color="#e7e7e7"/></linearGradient><linearGradient x1="308.39908" y1="60.03004" x2="308.39908" y2="78.95625" gradientUnits="userSpaceOnUse" id="color-18"><stop offset="0" stop-color="#ffffff"/><stop offset="1" stop-color="#e7e7e7"/></linearGradient><linearGradient x1="337.8791" y1="54.44553" x2="337.8791" y2="79.86713" gradientUnits="userSpaceOnUse" id="color-19"><stop offset="0" stop-color="#ffffff"/><stop offset="1" stop-color="#e7e7e7"/></linearGradient><linearGradient x1="358.05851" y1="55.11774" x2="358.05851" y2="86.94211" gradientUnits="userSpaceOnUse" id="color-20"><stop offset="0" stop-color="#ffffff"/><stop offset="1" stop-color="#e7e7e7"/></linearGradient><linearGradient x1="289.80169" y1="22.30437" x2="289.80169" y2="46.48952" gradientUnits="userSpaceOnUse" id="color-21"><stop offset="0" stop-color="#ffffff"/><stop offset="1" stop-color="#e7e7e7"/></linearGradient><linearGradient x1="261.82278" y1="19.06119" x2="261.82278" y2="62.10774" gradientUnits="userSpaceOnUse" id="color-22"><stop offset="0" stop-color="#ffffff"/><stop offset="1" stop-color="#e7e7e7"/></linearGradient><linearGradient x1="264.25871" y1="26.42745" x2="264.25871" y2="47.30904" gradientUnits="userSpaceOnUse" id="color-23"><stop offset="0" stop-color="#ffffff"/><stop offset="1" stop-color="#e7e7e7"/></linearGradient><linearGradient x1="96.33664" y1="21.13613" x2="96.33664" y2="43.34939" gradientUnits="userSpaceOnUse" id="color-24"><stop offset="0" stop-color="#ffffff"/><stop offset="1" stop-color="#e7e7e7"/></linearGradient><linearGradient x1="120.25796" y1="19.24789" x2="120.25796" y2="58.78476" gradientUnits="userSpaceOnUse" id="color-25"><stop offset="0" stop-color="#ffffff"/><stop offset="1" stop-color="#e7e7e7"/></linearGradient><linearGradient x1="122.49529" y1="26.01357" x2="122.49529" y2="45.19262" gradientUnits="userSpaceOnUse" id="color-26"><stop offset="0" stop-color="#ffffff"/><stop offset="1" stop-color="#e7e7e7"/></linearGradient><linearGradient x1="144.45243" y1="22.28211" x2="144.45243" y2="43.92577" gradientUnits="userSpaceOnUse" id="color-27"><stop offset="0" stop-color="#ffffff"/><stop offset="1" stop-color="#e7e7e7"/></linearGradient><linearGradient x1="150.0225" y1="25.94244" x2="150.0225" y2="31.1942" gradientUnits="userSpaceOnUse" id="color-28"><stop offset="0" stop-color="#ffffff"/><stop offset="1" stop-color="#e7e7e7"/></linearGradient><linearGradient x1="174.13371" y1="21.15624" x2="174.13371" y2="43.90154" gradientUnits="userSpaceOnUse" id="color-29"><stop offset="0" stop-color="#ffffff"/><stop offset="1" stop-color="#e7e7e7"/></linearGradient><linearGradient x1="196.66492" y1="20.94479" x2="196.66492" y2="53.19436" gradientUnits="userSpaceOnUse" id="color-30"><stop offset="0" stop-color="#ffffff"/><stop offset="1" stop-color="#e7e7e7"/></linearGradient><linearGradient x1="226.04795" y1="19.89133" x2="226.04795" y2="32.0335" gradientUnits="userSpaceOnUse" id="color-31"><stop offset="0" stop-color="#ffffff"/><stop offset="1" stop-color="#e7e7e7"/></linearGradient></defs><g transform="translate(4.25075,6.12969)"><g data-paper-data="{&quot;isPaintingLayer&quot;:true}" fill-rule="nonzero" stroke-linecap="butt" stroke-linejoin="miter" stroke-miterlimit="10" stroke-dasharray="" stroke-dashoffset="0" style="mix-blend-mode: normal"><path d="M-4.25075,370.50469v-376.63438h488.5015v376.63438z" fill="#000000" stroke="none" stroke-width="0"/><path d="M128.57259,260.6232v-158.33565h222.80522v158.33565z" fill="url(#color-1)" stroke="none" stroke-width="0"/><path d="M288.68217,239.80655l-5.08244,-38.691l-25.30344,-4.92069l1.09376,-9.24248l23.19194,2.42988l-2.47543,-20.46203l14.68139,-1.50612l3.09429,25.57755l17.28005,-9.91113l5.30684,7.90983l-21.17236,13.69389l4.06679,33.6162z" fill="url(#color-2)" stroke="#69421a" stroke-width="3.5"/><path d="M241.77638,187.46455c-1.1108,-9.18196 6.07183,-17.45463 16.04286,-18.47752c9.97104,-1.0229 18.95463,5.59132 20.06544,14.77328c1.1108,9.18196 -6.07183,17.45463 -16.04286,18.47752c-9.97104,1.0229 -18.95463,-5.59132 -20.06544,-14.77328z" fill="url(#color-3)" stroke="#1a411b" stroke-width="5"/><path d="M299.93044,186.67769c-1.1108,-9.18196 6.07183,-17.45463 16.04286,-18.47752c9.97104,-1.0229 18.95463,5.59132 20.06544,14.77328c1.1108,9.18196 -6.07183,17.45463 -16.04286,18.47752c-9.97104,1.0229 -18.95463,-5.59132 -20.06544,-14.77328z" fill="url(#color-4)" stroke="#1a411b" stroke-width="5"/><path d="M260.28686,164.47971c-1.64789,-13.62158 9.00766,-25.89423 23.79985,-27.41172c14.79219,-1.51749 28.11951,8.29482 29.76741,21.91641c1.64789,13.62158 -9.00766,25.89423 -23.79985,27.41172c-14.79219,1.51749 -28.11951,-8.29482 -29.76741,-21.91641z" fill="url(#color-5)" stroke="#1a411b" stroke-width="5"/><path d="M172.29926,234.04768l3.58282,-40.02945l-24.4358,-9.7998l3.18565,-9.12148l22.86519,6.88206l2.10928,-21.12931l15.16016,1.28334l-2.6366,26.41164l19.67641,-6.70529l3.57593,8.9985l-24.45764,9.78069l-3.46524,34.71244z" fill="url(#color-6)" stroke="#69421a" stroke-width="3.5"/><path d="M133.64953,171.94646c0.9777,-9.79396 10.39217,-17.00367 21.02779,-16.10334c10.63563,0.90033 18.46491,9.56976 17.48722,19.36372c-0.9777,9.79396 -10.39216,17.00367 -21.02778,16.10334c-10.63563,-0.90033 -18.46493,-9.56976 -17.48722,-19.36372z" fill="url(#color-7)" stroke="#29672b" stroke-width="5"/><path d="M199.23009,179.64868c0.9777,-9.79396 10.39217,-17.00367 21.02779,-16.10334c10.63563,0.90033 18.46491,9.56976 17.48722,19.36371c-0.9777,9.79396 -10.39216,17.00367 -21.02778,16.10334c-10.63563,-0.90033 -18.46493,-9.56976 -17.48722,-19.36372z" fill="url(#color-8)" stroke="#29672b" stroke-width="5"/><path d="M162.47029,150.38607c1.40414,-14.06579 14.92491,-24.42016 30.19949,-23.12714c15.27457,1.29302 26.51877,13.7438 25.11462,27.8096c-1.40414,14.06579 -14.92491,24.42016 -30.19949,23.12714c-15.27457,-1.29302 -26.51877,-13.7438 -25.11462,-27.8096z" fill="url(#color-9)" stroke="#29672b" stroke-width="5"/><path d="M129.74506,259.33596v-29.15331h221.44501v29.15331z" fill="#98763d" stroke="none" stroke-width="0"/><path d="M129.74506,236.58956v-8.95784h221.02079l0.48381,15.06075l-26.87747,-9.43263l-23.64042,8.87587l-26.11402,-7.88562l-28.12764,6.77977l-25.53853,-6.55782l-26.3112,6.95657l-27.14415,-6.0793l-22.47911,5.43421z" fill="url(#color-10)" stroke="#08a310" stroke-width="3"/><path d="M127.51342,260.58258v-162.16517h224.97316v162.16517z" fill="none" stroke="#ffffff" stroke-width="2.5"/><path d="M183.10403,77.44273l0.1939,-24.76896l6.78644,2.02655l-2.52068,22.74241z" fill="url(#color-11)" stroke="#303030" stroke-width="2"/><path d="M197.51505,79.24411v-25.2193l7.43069,2.25173l-1.74694,15.29131l12.21943,-0.626l0.11061,6.27571z" fill="url(#color-12)" stroke="#303030" stroke-width="2"/><path d="M220.48264,78.56859v-25.2193l7.43069,2.25173l-1.74694,15.29131l12.21943,-0.626l0.11061,6.27571z" fill="url(#color-13)" stroke="#303030" stroke-width="2"/><path d="M243.41773,73.50221l-0.19267,-18.28399l5.73208,0.81062l0.52156,15.43979l4.95955,-3.46589l0.17196,-11.81057l5.91768,-1.15349l-0.92743,18.47369l-3.07056,4.11077l-9.47156,0.09957z" fill="url(#color-14)" stroke="#303030" stroke-width="2"/><path d="M269.40589,55.0261l5.85447,-0.15011l7.50574,3.60276l-0.90718,3.41099l-7.43959,-2.04409l-0.30544,4.02613l7.96314,5.56255l0.68301,4.73532l-4.61127,4.4492l-5.44034,0.27552l-4.68487,-3.10252l2.16648,-3.46428l4.53292,2.08216l1.26183,-3.22247l-9.2787,-8.12203z" fill="url(#color-15)" stroke="#303030" stroke-width="2"/><path d="M287.81795,78.64365l0.1939,-24.76896l6.78644,2.02655l-2.52068,22.74241z" fill="url(#color-16)" stroke="#303030" stroke-width="2"/><path d="M303.38149,74.70779l-4.13282,-8.19911l5.25673,-11.38898l8.8307,0.64224l8.99213,7.82516l-3.05441,9.47543l-7.85365,5.10654z" fill="url(#color-17)" stroke="#303030" stroke-width="2"/><path d="M307.03609,70.38883l-2.0048,-3.97732l2.55,-5.52472l4.2837,0.31155l4.36201,3.79594l-1.48168,4.59647l-3.80976,2.47715z" fill="url(#color-18)" stroke="#303030" stroke-width="2"/><path d="M326.23868,79.46573l1.60557,-24.61881l3.6111,-0.87501l12.02773,18.00552l-0.88415,-16.65174l5.44882,1.12682l-0.1338,24.48501l-4.33722,-0.51519l-11.57335,-15.82263l-1.08103,16.0306z" fill="url(#color-19)" stroke="#303030" stroke-width="2"/><path d="M355.4315,55.26786l5.85447,-0.15011l7.50574,3.60276l-0.90718,3.41099l-7.43959,-2.04409l-0.30544,4.02613l7.96314,5.56255l0.68301,4.73532l-4.61127,4.4492l-5.44034,0.27552l-4.68487,-3.10252l2.16648,-3.46428l4.53292,2.08216l1.26183,-3.22247l-9.2787,-8.12203z" fill="url(#color-20)" stroke="#303030" stroke-width="2"/><path d="M287.73006,46.48952v-24.18515l16.47673,-0.1927l0.66038,4.52269l-10.69582,-0.10339l-1.63401,4.62577l8.84627,-0.56799l0.76093,2.99993l-9.96432,1.73598l-0.30689,11.16484z" fill="url(#color-21)" stroke="#303030" stroke-width="2"/><path d="M258.72272,42.62165l-4.55981,-9.04621l5.79983,-12.56565l9.74306,0.70859l9.92117,8.63363l-3.36998,10.4544l-8.66506,5.63413z" fill="url(#color-22)" stroke="#303030" stroke-width="2"/><path d="M262.7549,37.85646l-2.21193,-4.38825l2.81346,-6.09552l4.72628,0.34373l4.81268,4.18812l-1.63476,5.07136l-4.20337,2.73308z" fill="url(#color-23)" stroke="#303030" stroke-width="2"/><path d="M94.43391,43.34939v-22.21327l15.13334,-0.17699l0.60654,4.15394l-9.82376,-0.09496l-1.50079,4.24862l8.12502,-0.52168l0.69889,2.75534l-9.1519,1.59444l-0.28187,10.25454z" fill="url(#color-24)" stroke="#303030" stroke-width="2"/><path d="M117.41066,40.88742l-4.18803,-8.30865l5.32696,-11.54114l8.94868,0.65082l9.11227,7.92971l-3.09521,9.60203l-7.95858,5.17476z" fill="url(#color-25)" stroke="#303030" stroke-width="2"/><path d="M121.11409,36.51075l-2.03159,-4.03046l2.58407,-5.59853l4.34094,0.31571l4.42029,3.84665l-1.50147,4.65788l-3.86066,2.51024z" fill="url(#color-26)" stroke="#303030" stroke-width="2"/><path d="M142.62227,43.92577v-21.64366l7.79809,-1.27316l8.45458,3.7214l-1.84058,5.38262l-4.19166,4.0519l6.76407,7.92381l-3.99695,2.49916l-7.41409,-7.8715l-0.16254,7.20944z" fill="url(#color-27)" stroke="#303030" stroke-width="2"/><path d="M147.07832,31.1942v-4.45605l5.57006,-0.63657l0.15914,3.02375z" fill="url(#color-28)" stroke="#303030" stroke-width="2"/><path d="M167.68921,43.90154v-22.74531l15.92172,2.02181l-0.86379,5.41815l-8.20859,-2.21159l-2.70351,4.32942l7.90764,0.93904l0.17371,3.17827l-7.98687,0.49085l0.66149,5.19208l8.66367,-1.93478l-0.67648,5.32206z" fill="url(#color-29)" stroke="#303030" stroke-width="2"/><path d="M194.00281,21.09692l5.93269,-0.15212l7.60602,3.65089l-0.9193,3.45656l-7.53899,-2.0714l-0.30952,4.07992l8.06953,5.63687l0.69214,4.79859l-4.67288,4.50865l-5.51302,0.2792l-4.74746,-3.14397l2.19543,-3.51056l4.59348,2.10998l1.27869,-3.26552l-9.40267,-8.23055z" fill="url(#color-30)" stroke="#303030" stroke-width="2"/><path d="M215.30973,28.60878l-1.92737,-7.16077l25.60653,0.93401l-0.55068,7.78344l-9.16657,-1.30346l-0.7735,18.71132l-5.21369,-1.64893l0.00778,-17.2713z" fill="url(#color-31)" stroke="#303030" stroke-width="2"/></g></g></svg>