<svg version="1.1" xmlns="http://www.w3.org/2000/svg" xmlns:xlink="http://www.w3.org/1999/xlink" width="329.91613" height="211.60101" viewBox="0,0,329.91613,211.60101"><g transform="translate(-32.79398,-77.97581)"><g data-paper-data="{&quot;isPaintingLayer&quot;:true}" fill-rule="nonzero" stroke-linecap="butt" stroke-linejoin="miter" stroke-miterlimit="10" stroke-dasharray="" stroke-dashoffset="0" style="mix-blend-mode: normal"><path d="M76.25464,283.47315l7.98848,-70.7194l36.62334,-41.64818l11.32376,32.58979l-44.27296,84.02413z" data-paper-data="{&quot;index&quot;:null}" fill="#dada1f" stroke="#f5ff42" stroke-width="3"/><path d="M98.05974,223.32386l22.15789,-51.81469l11.25336,31.61082z" data-paper-data="{&quot;index&quot;:null}" fill="#ffff66" stroke="none" stroke-width="0"/><path d="M77.07427,281.80086l20.93969,-58.6544l-10.29825,62.47349z" data-paper-data="{&quot;index&quot;:null}" fill="#9e9e00" stroke="none" stroke-width="0"/><path d="M85.09794,212.14459l12.99351,10.81669l-15.50135,11.23878z" data-paper-data="{&quot;index&quot;:null}" fill="#9e9e00" stroke="none" stroke-width="0"/><path d="M288.08705,286.41309l-19,-162l52,-44l40,90l-45,117z" fill="#426dff" stroke="#003cff" stroke-width="3"/><path d="M288.83705,284.36689l33,-105.5l-7.5,106.5z" fill="#3559ce" stroke="none" stroke-width="0"/><path d="M269.58705,125.11689l51,-42.5l1,96.5z" fill="#86a2ff" stroke="none" stroke-width="0"/><path d="M70.47618,285.58707l-36.15295,-39.97286l2.12217,-42.29212l27.66717,9.60578l17.44116,67.92618z" data-paper-data="{&quot;index&quot;:null}" fill="#ff4b4b" stroke="#ff0000" stroke-width="3"/><path d="M51.11417,243.14941l-14.52838,-38.86592l27.03396,9.15876z" data-paper-data="{&quot;index&quot;:null}" fill="#ff8787" stroke="none" stroke-width="0"/><path d="M70.46047,284.6502l-19.48527,-41.5624l29.55995,37.21614z" data-paper-data="{&quot;index&quot;:null}" fill="#8f2525" stroke="none" stroke-width="0"/><path d="M34.96492,245.18703l15.9571,-2.23712l-4.69404,14.71325z" data-paper-data="{&quot;index&quot;:null}" fill="#8f2525" stroke="none" stroke-width="0"/><path d="M344.33704,206.52314l-22.5,-28l36.5,-8.5z" fill="#3c64e7" stroke="none" stroke-width="0"/></g></g></svg>