<svg version="1.1" xmlns="http://www.w3.org/2000/svg" xmlns:xlink="http://www.w3.org/1999/xlink" width="106.15171" height="154.16832" viewBox="0,0,106.15171,154.16832"><defs><linearGradient x1="251.53494" y1="217.41494" x2="266.01066" y2="249.82473" gradientUnits="userSpaceOnUse" id="color-1"><stop offset="0" stop-color="#364ec7"/><stop offset="1" stop-color="#001371"/></linearGradient><linearGradient x1="266.60567" y1="242.54741" x2="272.07398" y2="254.79045" gradientUnits="userSpaceOnUse" id="color-2"><stop offset="0" stop-color="#a6680a"/><stop offset="1" stop-color="#6c4205"/></linearGradient><linearGradient x1="253.26865" y1="169.48353" x2="272.22811" y2="192.70552" gradientUnits="userSpaceOnUse" id="color-3"><stop offset="0" stop-color="#20de16"/><stop offset="1" stop-color="#158e0e"/></linearGradient><linearGradient x1="241.0723" y1="164.12852" x2="241.0723" y2="222.16588" gradientUnits="userSpaceOnUse" id="color-4"><stop offset="0" stop-color="#364ec7"/><stop offset="1" stop-color="#001371"/></linearGradient><linearGradient x1="242.51259" y1="168.28354" x2="242.51259" y2="188.80367" gradientUnits="userSpaceOnUse" id="color-5"><stop offset="0" stop-color="#20de16"/><stop offset="1" stop-color="#158e0e"/></linearGradient><linearGradient x1="232.7456" y1="216.07632" x2="219.77176" y2="248.79679" gradientUnits="userSpaceOnUse" id="color-6"><stop offset="0" stop-color="#364ec7"/><stop offset="1" stop-color="#001371"/></linearGradient><linearGradient x1="221.69385" y1="244.16391" x2="216.89347" y2="256.27065" gradientUnits="userSpaceOnUse" id="color-7"><stop offset="0" stop-color="#a6680a"/><stop offset="1" stop-color="#6c4205"/></linearGradient><linearGradient x1="223.67167" y1="167.04135" x2="211.1544" y2="192.33184" gradientUnits="userSpaceOnUse" id="color-8"><stop offset="0" stop-color="#20de16"/><stop offset="1" stop-color="#158e0e"/></linearGradient><linearGradient x1="242.3245" y1="121.54015" x2="242.3245" y2="173.58187" gradientUnits="userSpaceOnUse" id="color-9"><stop offset="0" stop-color="#ffefc0"/><stop offset="1" stop-color="#e0ce98"/></linearGradient><linearGradient x1="241.28019" y1="105.00884" x2="241.28019" y2="136.78575" gradientUnits="userSpaceOnUse" id="color-10"><stop offset="0" stop-color="#20de16"/><stop offset="1" stop-color="#158e0e"/></linearGradient><linearGradient x1="255.24264" y1="123.83891" x2="255.24264" y2="131.64178" gradientUnits="userSpaceOnUse" id="color-11"><stop offset="0" stop-color="#20de16"/><stop offset="1" stop-color="#158e0e"/></linearGradient><linearGradient x1="265.78201" y1="144.52517" x2="265.78201" y2="161.79342" gradientUnits="userSpaceOnUse" id="color-12"><stop offset="0" stop-color="#ffefc0"/><stop offset="1" stop-color="#e0ce98"/></linearGradient></defs><g transform="translate(-188.01997,-104.50885)"><g data-paper-data="{&quot;isPaintingLayer&quot;:true}" fill-rule="nonzero" stroke-linejoin="miter" stroke-miterlimit="10" stroke-dasharray="" stroke-dashoffset="0" style="mix-blend-mode: normal"><path d="M264.55706,228.77063c1.73039,3.04173 3.63637,8.88568 4.75147,12.19478c1.60369,4.75897 0.57916,6.07475 -2.89347,8.2332c-3.4881,2.16809 -4.32912,3.21906 -7.57264,-0.54888c-2.23093,-2.59165 -3.75534,-9.90198 -5.47463,-12.9242c-5.07703,-8.92456 -9.84133,-14.2315 -6.70447,-16.18127c0,0 5.3012,-2.61797 7.05138,-1.56668c0,0 1.59554,-2.81827 3.72017,-0.56757c2.13933,2.26628 2.04516,2.43607 7.12219,11.36064z" data-paper-data="{&quot;origPos&quot;:null,&quot;origRot&quot;:0}" fill="url(#color-1)" stroke="#001371" stroke-width="1.5" stroke-linecap="butt"/><path d="M275.11405,242.34732c5.20786,1.05053 5.02217,5.18263 3.64743,7.42589c-1.66469,2.71643 -8.98662,6.83886 -13.71263,7.15915c-4.72598,0.32029 -3.72726,-1.32379 -4.62053,-2.79099c-1.98607,-3.26214 -1.17274,-7.29904 4.50362,-10.56054c5.67634,-3.26151 4.97426,-2.28405 10.18212,-1.23353z" data-paper-data="{&quot;origPos&quot;:null,&quot;origRot&quot;:0}" fill="url(#color-2)" stroke="#6c4306" stroke-width="1.5" stroke-linecap="butt"/><path d="M246.60968,175.32631c0.80289,-3.20344 8.67932,-3.21781 17.59248,-0.03212c8.91316,3.18569 15.48782,8.36509 14.68492,11.56854c-0.80291,3.20345 -8.67933,3.21783 -17.59247,0.03213c-8.91316,-3.18569 -15.48784,-8.36512 -14.68491,-11.56855z" data-paper-data="{&quot;origRot&quot;:0,&quot;origPos&quot;:null,&quot;index&quot;:null}" fill="url(#color-3)" stroke="#158e0e" stroke-width="1.5" stroke-linecap="butt"/><path d="M258.19093,193.24295c0,9.26298 2.57396,18.23689 -2.43939,25.31566c-3.21333,4.53716 -9.69716,3.50672 -14.67924,3.50672c-4.98207,0 -11.4659,0.7376 -14.67924,-3.79954c-5.01335,-7.07876 -2.43939,-15.75986 -2.43939,-25.02282c0,-15.91816 7.66426,-29.07236 17.11863,-29.07236c0,0 9.72842,-0.90069 12.88897,5.63058c3.14566,6.5005 4.22966,7.5236 4.22966,23.44177z" data-paper-data="{&quot;origPos&quot;:null}" fill="url(#color-4)" stroke="#001371" stroke-width="1.5" stroke-linecap="butt"/><path d="M277.1687,178.58371c4.67075,-3.05721 11.11013,-1.63573 14.38276,3.17496c3.27263,4.81071 2.13923,11.18891 -2.53152,14.24613c-4.67073,3.0572 -11.11013,1.63573 -14.38276,-3.17496c-3.27263,-4.81071 -2.13922,-11.18892 2.53152,-14.24613z" data-paper-data="{&quot;origPos&quot;:null,&quot;index&quot;:null,&quot;origRot&quot;:0}" fill="#ffffff" stroke="#bfbfbf" stroke-width="1.5" stroke-linecap="butt"/><path d="M249.20572,176.92066c0,2.68835 1.18698,7.12608 -0.31003,8.97758c-1.61709,1.99999 -3.32827,2.91961 -5.5586,2.90525c-2.46992,-0.01592 -4.1733,-1.00209 -6.23486,-2.77332c-2.11879,-1.8204 -1.69451,-5.80431 -1.69451,-9.1095c0,-4.77015 3.0888,-8.63713 6.89902,-8.63713c3.8102,0 6.899,3.86699 6.899,8.63713z" data-paper-data="{&quot;origPos&quot;:null}" fill="url(#color-5)" stroke="none" stroke-width="0" stroke-linecap="butt"/><path d="M235.94361,185.07553c0,2.23346 -1.7773,4.04408 -3.96972,4.04408c-2.19242,0 -3.96972,-1.81059 -3.96972,-4.04408c0,-2.23346 1.7773,-4.04407 3.96972,-4.04407c2.19242,0 3.96972,1.81059 3.96972,4.04407z" data-paper-data="{&quot;origPos&quot;:null}" fill="#faff66" stroke="none" stroke-width="1.5" stroke-linecap="butt"/><path d="M257.23659,184.52086c0,2.17846 -1.73351,3.94445 -3.87193,3.94445c-2.13841,0 -3.87194,-1.76598 -3.87194,-3.94445c0,-2.17846 1.73353,-3.94445 3.87194,-3.94445c2.13841,0 3.87193,1.76598 3.87193,3.94445z" data-paper-data="{&quot;origPos&quot;:null}" fill="#faff66" stroke="none" stroke-width="1.5" stroke-linecap="butt"/><path d="M233.63487,234.70758c-1.27353,3.21189 -4.63522,8.23906 -6.51561,11.11455c-2.7043,4.1354 -4.39875,4.09525 -8.33411,2.58464c-3.95291,-1.51735 -5.32098,-1.56771 -4.45285,-6.43333c0.59713,-3.34663 5.35688,-8.94199 6.62225,-12.13329c3.73659,-9.42382 4.8329,-16.43476 8.38778,-15.0702c0,0 5.47571,2.71045 5.77863,4.74947c0.87342,5.87918 2.25051,5.76433 -1.48608,15.18815z" data-paper-data="{&quot;origPos&quot;:null,&quot;origRot&quot;:0}" fill="url(#color-6)" stroke="#001371" stroke-width="1.5" stroke-linecap="butt"/><path d="M227.71605,250.67081c2.17888,4.50999 -1.11591,6.90303 -3.63586,7.25636c-3.05148,0.42786 -10.43516,-2.48326 -13.3951,-5.79587c-2.95994,-3.3126 -1.11815,-3.57808 -0.49885,-5.13998c1.3769,-3.4726 4.9585,-5.34134 10.73332,-3.12465c5.77482,2.21669 4.61763,2.29412 6.7965,6.80413z" data-paper-data="{&quot;origPos&quot;:null,&quot;origRot&quot;:0}" fill="url(#color-7)" stroke="#6c4306" stroke-width="1.5" stroke-linecap="butt"/><path d="M219.99804,185.58725c-8.94298,3.95996 -17.35004,4.52834 -18.77769,1.2695c-1.42767,-3.25884 4.66472,-9.11083 13.60769,-13.07082c8.94298,-3.95996 17.35004,-4.52834 18.77769,-1.2695c1.42767,3.25884 -4.66472,9.11083 -13.60769,13.07082z" data-paper-data="{&quot;origRot&quot;:0,&quot;origPos&quot;:null}" fill="url(#color-8)" stroke="#158e0e" stroke-width="1.5" stroke-linecap="butt"/><path d="M208.21405,193.58338c-2.67985,5.19769 -8.93345,7.3715 -13.96781,4.85535c-5.03436,-2.51615 -6.94305,-8.76945 -4.26319,-13.96714c2.67985,-5.19769 8.93345,-7.3715 13.96781,-4.85535c5.03436,2.51615 6.94305,8.76945 4.26319,13.96714z" data-paper-data="{&quot;origPos&quot;:null,&quot;origRot&quot;:0}" fill="#ffffff" stroke="#bfbfbf" stroke-width="1.5" stroke-linecap="butt"/><path d="M267.34623,148.40916c0,9.68391 -5.14936,13.67729 -11.92352,18.66098c-4.72012,3.47255 -6.06853,6.51174 -11.57363,6.51174c-6.39728,0 -8.94794,-3.38301 -14.4308,-7.42288c-6.66848,-4.91344 -12.11553,-8.37797 -12.11553,-17.91467c0,-4.93002 0.57271,-17.3513 2.65647,-21.50568c4.80207,-9.57386 14.74065,-2.99312 23.65922,-2.99312c0,0 14.51881,-4.14451 19.42967,4.96214c2.33042,4.32149 4.29814,6.08014 4.29814,19.70148z" data-paper-data="{&quot;origPos&quot;:null}" fill="url(#color-9)" stroke="#e0ce98" stroke-width="1" stroke-linecap="butt"/><path d="M267.4394,119.88372c7.39631,15.46218 -26.79497,11.77218 -29.2141,13.79829c-2.37591,1.98991 -0.74791,8.07303 -3.6175,8.07303c-4.02198,0 -8.45488,0.77615 -9.56057,5.55792c-0.63988,2.76735 2.37615,8.15134 0.12484,8.88241c-2.2178,0.72019 -4.06937,3.15372 -6.35839,3.32004c-1.85643,0.13488 -2.3832,-2.33233 -4.24263,-2.36657c-5.29533,-0.09752 0.72001,-13.00497 0.8452,-13.68187c0.04172,-0.22563 -1.10163,-4.83511 -1.10163,-7.07417c0,-12.14403 9.84594,-18.60182 16.30923,-18.60182c6.46328,0 29.41924,-13.36945 36.81555,2.09272z" data-paper-data="{&quot;origPos&quot;:null}" fill="#c27231" stroke="#985926" stroke-width="1.5" stroke-linecap="butt"/><path d="M266.96832,161.34151c0,0.95376 -1.05436,2.56448 -1.15734,3.5123c-0.21869,2.01293 -1.61583,3.07385 -3.57684,3.16412c-2.16435,0.09964 -5.99132,-2.47541 -5.99132,-2.47541c0,0 -2.87775,1.17132 -4.82459,1.62127c-1.63184,0.37714 -4.15503,0.12999 -5.64053,-0.64357c-1.0443,-0.54382 -2.66543,-2.82671 -3.30943,-3.83437c-2.03878,-3.18999 -7.28717,-7.88537 -2.80634,-9.04683c2.20464,-0.57147 8.73957,5.53802 11.0127,5.53802c0,0 3.80829,-0.01726 5.70018,0.08306c4.2897,0.22742 10.5935,-2.43281 10.5935,2.08138z" data-paper-data="{&quot;origPos&quot;:null}" fill="#160b02" stroke="none" stroke-width="0" stroke-linecap="butt"/><path d="M269.32542,124.19113c0,9.72641 -11.03409,3.73936 -26.30554,3.73936c-3.69718,0 -8.59054,8.02096 -12.28753,7.98553c-5.24124,-0.05021 -11.84335,2.42022 -15.98343,-0.74895c-2.92262,-2.23721 -0.72629,-7.32801 -0.72629,-10.97595c0,-8.24135 8.70145,-8.36044 16.24287,-11.91578c5.48182,-2.58435 5.55662,-6.66736 11.63295,-6.66736c0,0 12.43874,-1.78709 19.6767,0.81161c8.19439,2.9421 7.75028,8.04512 7.75028,17.77152z" data-paper-data="{&quot;origPos&quot;:null}" fill="url(#color-10)" stroke="#158e0e" stroke-width="1" stroke-linecap="butt"/><path d="M279.80766,130.04088c0,3.42526 -10.44299,0.28846 -24.00988,0.28846c-13.56688,0 -25.12017,3.13679 -25.12017,-0.28846c0,-3.42526 10.99813,-6.20196 24.56502,-6.20196c13.56688,0 24.56502,2.77672 24.56502,6.20196z" data-paper-data="{&quot;origPos&quot;:null}" fill="url(#color-11)" stroke="#158e0e" stroke-width="1" stroke-linecap="butt"/><path d="M265.25731,117.27206c0,2.11076 0.31298,3.56707 -1.25453,4.90928c-1.35299,1.15852 -9.04403,0.85487 -10.32229,-0.0759c-1.82086,-1.32589 -1.08988,-2.5228 -1.08988,-4.83338c0,-3.44864 2.83555,-6.24435 6.33336,-6.24435c3.49782,0 6.33335,2.79569 6.33335,6.24435z" data-paper-data="{&quot;origPos&quot;:null}" fill="#ffffff" stroke="#a4a4a4" stroke-width="1" stroke-linecap="butt"/><path d="M257.51597,142.14739c0,4.07271 -2.12367,7.3743 -4.74334,7.3743c-2.61968,0 -4.74334,-3.30159 -4.74334,-7.3743c0,-4.07271 2.12367,-7.37431 4.74334,-7.37431c2.61968,0 4.74334,3.30159 4.74334,7.37431z" data-paper-data="{&quot;origPos&quot;:null}" fill="#ffffff" stroke="none" stroke-width="0" stroke-linecap="butt"/><path d="M249.015,134.04513c0,0 3.57853,-0.57816 4.30266,-0.45382c1.29495,0.22235 3.53513,1.80469 3.53513,1.80469" data-paper-data="{&quot;origPos&quot;:null,&quot;origRot&quot;:0}" fill="none" stroke="#351c06" stroke-width="1.5" stroke-linecap="round"/><path d="M257.54498,141.83055c0,2.70288 -1.40938,4.89399 -3.14794,4.89399c-1.73856,0 -3.14794,-2.19113 -3.14794,-4.89399c0,-2.70288 1.40939,-4.89399 3.14794,-4.89399c1.73856,0 3.14794,2.19113 3.14794,4.89399z" data-paper-data="{&quot;origPos&quot;:null}" fill="#1121d4" stroke="none" stroke-width="0" stroke-linecap="butt"/><path d="M257.61349,141.68842c0,1.39766 -0.72879,2.53069 -1.62781,2.53069c-0.89902,0 -1.62781,-1.13303 -1.62781,-2.53069c0,-1.39766 0.7288,-2.53069 1.62781,-2.53069c0.89902,0 1.62781,1.13303 1.62781,2.53069z" data-paper-data="{&quot;origPos&quot;:null}" fill="#000000" stroke="none" stroke-width="0" stroke-linecap="butt"/><path d="M263.91219,134.13433c2.17221,0 3.93314,2.73763 3.93314,6.11468c0,3.37706 -1.76092,6.11468 -3.93314,6.11468c-2.17221,0 -3.93314,-2.73763 -3.93314,-6.11468c0,-3.37706 1.76092,-6.11468 3.93314,-6.11468z" data-paper-data="{&quot;origPos&quot;:null,&quot;index&quot;:null}" fill="#ffffff" stroke="none" stroke-width="0" stroke-linecap="butt"/><path d="M260.61616,133.554c0,0 1.85754,-1.31207 2.93129,-1.49644c0.60044,-0.10311 3.56772,0.37631 3.56772,0.37631" data-paper-data="{&quot;origPos&quot;:null,&quot;origRot&quot;:0,&quot;index&quot;:null}" fill="none" stroke="#351c06" stroke-width="1.5" stroke-linecap="round"/><path d="M265.35774,136.04785c1.44159,0 2.61025,1.81686 2.61025,4.05803c0,2.24119 -1.16864,4.05803 -2.61025,4.05803c-1.44159,0 -2.61024,-1.81686 -2.61024,-4.05803c0,-2.24119 1.16864,-4.05803 2.61024,-4.05803z" data-paper-data="{&quot;origPos&quot;:null,&quot;index&quot;:null}" fill="#1121d4" stroke="none" stroke-width="0" stroke-linecap="butt"/><path d="M266.72018,138.01402c0.74546,0 1.34976,0.9395 1.34976,2.09843c0,1.15893 -0.60431,2.09843 -1.34976,2.09843c-0.74546,0 -1.34975,-0.9395 -1.34975,-2.09843c0,-1.15893 0.60431,-2.09843 1.34975,-2.09843z" data-paper-data="{&quot;origPos&quot;:null,&quot;index&quot;:null}" fill="#000000" stroke="none" stroke-width="0" stroke-linecap="butt"/><path d="M277.98864,153.03203c0,4.6982 -5.21052,8.7614 -11.95206,8.7614c-6.74152,0 -12.46119,-4.06319 -12.46119,-8.7614c0,-4.6982 5.46509,-8.50685 12.20662,-8.50685c6.74152,0 12.20662,3.80864 12.20662,8.50685z" data-paper-data="{&quot;origPos&quot;:null}" fill="url(#color-12)" stroke="#e0ce98" stroke-width="1.5" stroke-linecap="butt"/><path d="M230.48492,146.77147c-0.92107,2.87163 -4.85091,4.09685 -8.77756,2.7366c-3.92666,-1.36026 -6.36315,-4.79086 -5.44209,-7.66249c0.92107,-2.87163 4.85091,-4.09685 8.77756,-2.7366c3.92666,1.36026 6.36315,4.79086 5.44209,7.66249z" data-paper-data="{&quot;origRot&quot;:0,&quot;origPos&quot;:null}" fill="#ffefc0" stroke="#e0ce98" stroke-width="1.5" stroke-linecap="butt"/><path d="M261.75718,120.03323l-4.53402,-0.22316l0.06825,-5.71374" data-paper-data="{&quot;origPos&quot;:null}" fill="none" stroke="#158e0e" stroke-width="1" stroke-linecap="round"/><path d="" data-paper-data="{&quot;origPos&quot;:null}" fill="#c1770b" stroke="#6c4306" stroke-width="1.5" stroke-linecap="butt"/><path d="" data-paper-data="{&quot;origPos&quot;:null}" fill="#c1770b" stroke="#6c4306" stroke-width="1.5" stroke-linecap="butt"/></g></g></svg>