<svg version="1.1" xmlns="http://www.w3.org/2000/svg" xmlns:xlink="http://www.w3.org/1999/xlink" width="126.81935" height="160.10381" viewBox="0,0,126.81935,160.10381"><defs><radialGradient cx="273.34493" cy="201.36831" r="11.15763" gradientUnits="userSpaceOnUse" id="color-1"><stop offset="0" stop-color="#b6d6d4"/><stop offset="1" stop-color="#839a99"/></radialGradient><radialGradient cx="285.72891" cy="210.22166" r="5.68075" gradientUnits="userSpaceOnUse" id="color-2"><stop offset="0" stop-color="#b6d6d6"/><stop offset="1" stop-color="#89a19f"/></radialGradient><radialGradient cx="279.12611" cy="212.82265" r="5.57885" gradientUnits="userSpaceOnUse" id="color-3"><stop offset="0" stop-color="#b6d6d6"/><stop offset="1" stop-color="#89a19f"/></radialGradient><radialGradient cx="291.10877" cy="204.77239" r="5.28347" gradientUnits="userSpaceOnUse" id="color-4"><stop offset="0" stop-color="#b6d6d6"/><stop offset="1" stop-color="#89a19f"/></radialGradient><radialGradient cx="291.04556" cy="200.1593" r="3.24716" gradientUnits="userSpaceOnUse" id="color-5"><stop offset="0" stop-color="#b6d6d6"/><stop offset="1" stop-color="#89a19f"/></radialGradient><radialGradient cx="265.95658" cy="195.7263" r="3.61811" gradientUnits="userSpaceOnUse" id="color-6"><stop offset="0" stop-color="#d2d3db"/><stop offset="1" stop-color="#a3a5ab"/></radialGradient><radialGradient cx="266.62825" cy="193.57696" r="6.99881" gradientUnits="userSpaceOnUse" id="color-7"><stop offset="0" stop-color="#d2d3db"/><stop offset="1" stop-color="#a3a5ab"/></radialGradient><linearGradient x1="195.31351" y1="206.80051" x2="176.50019" y2="206.80051" gradientUnits="userSpaceOnUse" id="color-8"><stop offset="0" stop-color="#e9eaf3"/><stop offset="1" stop-color="#9ca4ab"/></linearGradient><linearGradient x1="215.15959" y1="212.30094" x2="190.36889" y2="212.30094" gradientUnits="userSpaceOnUse" id="color-9"><stop offset="0" stop-color="#e9eaf3"/><stop offset="1" stop-color="#9ca4ab"/></linearGradient><radialGradient cx="235.16973" cy="249.83922" r="14.56944" gradientUnits="userSpaceOnUse" id="color-10"><stop offset="0" stop-color="#accac8"/><stop offset="1" stop-color="#839a99"/></radialGradient><linearGradient x1="226.63045" y1="236.96385" x2="226.05712" y2="242.56195" gradientUnits="userSpaceOnUse" id="color-11"><stop offset="0" stop-color="#d2d3db"/><stop offset="1" stop-color="#a3a5ab"/></linearGradient><linearGradient x1="225.32095" y1="227.53802" x2="224.29148" y2="237.58987" gradientUnits="userSpaceOnUse" id="color-12"><stop offset="0" stop-color="#d2d3db"/><stop offset="1" stop-color="#a3a5ab"/></linearGradient><radialGradient cx="252.77989" cy="185.42143" r="12.46491" gradientUnits="userSpaceOnUse" id="color-13"><stop offset="0" stop-color="#645d46"/><stop offset="1" stop-color="#978d69"/></radialGradient><radialGradient cx="262.94203" cy="190.93802" r="14.40414" gradientUnits="userSpaceOnUse" id="color-14"><stop offset="0" stop-color="#645d46"/><stop offset="1" stop-color="#978d69"/></radialGradient><radialGradient cx="253.94128" cy="206.3264" r="18.36514" gradientUnits="userSpaceOnUse" id="color-15"><stop offset="0" stop-color="#645d46"/><stop offset="1" stop-color="#978d69"/></radialGradient><radialGradient cx="256.26406" cy="221.42444" r="18.81118" gradientUnits="userSpaceOnUse" id="color-16"><stop offset="0" stop-color="#645d46"/><stop offset="1" stop-color="#978d69"/></radialGradient><radialGradient cx="235.06874" cy="227.52172" r="16.1122" gradientUnits="userSpaceOnUse" id="color-17"><stop offset="0" stop-color="#645d46"/><stop offset="1" stop-color="#978d69"/></radialGradient><linearGradient x1="247.92101" y1="195.17147" x2="209.29066" y2="195.17147" gradientUnits="userSpaceOnUse" id="color-18"><stop offset="0" stop-color="#9299a0"/><stop offset="1" stop-color="#e5f0fb"/></linearGradient><radialGradient cx="213.39389" cy="183.06931" r="10.30069" gradientUnits="userSpaceOnUse" id="color-19"><stop offset="0" stop-color="#a6a7ad"/><stop offset="1" stop-color="#74757a"/></radialGradient><radialGradient cx="226.02796" cy="165.62695" r="9.21465" gradientUnits="userSpaceOnUse" id="color-20"><stop offset="0" stop-color="#a6a7ad"/><stop offset="1" stop-color="#74757a"/></radialGradient><radialGradient cx="228.02554" cy="173.30564" r="2.96811" gradientUnits="userSpaceOnUse" id="color-21"><stop offset="0" stop-color="#a6a7ad"/><stop offset="1" stop-color="#74757a"/></radialGradient><radialGradient cx="206.75099" cy="199.882" r="13.1884" gradientUnits="userSpaceOnUse" id="color-22"><stop offset="0" stop-color="#a6a7ad"/><stop offset="1" stop-color="#74757a"/></radialGradient><radialGradient cx="214.811" cy="197.35986" r="2.13332" gradientUnits="userSpaceOnUse" id="color-23"><stop offset="0" stop-color="#a6a7ad"/><stop offset="1" stop-color="#74757a"/></radialGradient><radialGradient cx="270.77299" cy="235.27742" r="16.61441" gradientUnits="userSpaceOnUse" id="color-24"><stop offset="0" stop-color="#accac8"/><stop offset="1" stop-color="#839a99"/></radialGradient><linearGradient x1="256.10689" y1="229.93682" x2="260.13337" y2="235.37173" gradientUnits="userSpaceOnUse" id="color-25"><stop offset="0" stop-color="#d2d3db"/><stop offset="1" stop-color="#a3a5ab"/></linearGradient><linearGradient x1="248.93992" y1="223.02697" x2="255.40086" y2="231.74792" gradientUnits="userSpaceOnUse" id="color-26"><stop offset="0" stop-color="#d2d3db"/><stop offset="1" stop-color="#a3a5ab"/></linearGradient><linearGradient x1="266.04656" y1="153.39281" x2="260.40583" y2="177.63537" gradientUnits="userSpaceOnUse" id="color-27"><stop offset="0" stop-color="#9da5ac"/><stop offset="1" stop-color="#838a90"/></linearGradient><linearGradient x1="263.14451" y1="99.81232" x2="253.69551" y2="140.42198" gradientUnits="userSpaceOnUse" id="color-28"><stop offset="0" stop-color="#d2d3db"/><stop offset="1" stop-color="#bdc0c7"/></linearGradient><radialGradient cx="270.80956" cy="118.0742" r="5.1506" gradientUnits="userSpaceOnUse" id="color-29"><stop offset="0" stop-color="#d5e20f"/><stop offset="1" stop-color="#d5e20f" stop-opacity="0"/></radialGradient><radialGradient cx="260.83546" cy="118.88929" r="6.53642" gradientUnits="userSpaceOnUse" id="color-30"><stop offset="0" stop-color="#d5e20f"/><stop offset="1" stop-color="#d5e20f" stop-opacity="0"/></radialGradient><linearGradient x1="273.58124" y1="117.7118" x2="262.04372" y2="167.29741" gradientUnits="userSpaceOnUse" id="color-31"><stop offset="0" stop-color="#e9eaf3"/><stop offset="1" stop-color="#9ca4ab"/></linearGradient><linearGradient x1="278.44497" y1="155.33459" x2="276.00789" y2="163.03185" gradientUnits="userSpaceOnUse" id="color-32"><stop offset="0" stop-color="#000000"/><stop offset="1" stop-color="#000000" stop-opacity="0"/></linearGradient><radialGradient cx="233.09453" cy="197.46763" r="4.28242" gradientUnits="userSpaceOnUse" id="color-33"><stop offset="0" stop-color="#d2d3db"/><stop offset="1" stop-color="#a3a5ab"/></radialGradient><radialGradient cx="231.07953" cy="192.63162" r="9.15743" gradientUnits="userSpaceOnUse" id="color-34"><stop offset="0" stop-color="#d2d3db"/><stop offset="1" stop-color="#a3a5ab"/></radialGradient><radialGradient cx="241.17776" cy="204.3155" r="12.54263" gradientUnits="userSpaceOnUse" id="color-35"><stop offset="0" stop-color="#b6d6d4"/><stop offset="1" stop-color="#839a99"/></radialGradient><radialGradient cx="255.09898" cy="214.26783" r="6.38591" gradientUnits="userSpaceOnUse" id="color-36"><stop offset="0" stop-color="#b6d6d6"/><stop offset="1" stop-color="#89a19f"/></radialGradient><radialGradient cx="247.67656" cy="217.19168" r="6.27135" gradientUnits="userSpaceOnUse" id="color-37"><stop offset="0" stop-color="#b6d6d6"/><stop offset="1" stop-color="#89a19f"/></radialGradient><radialGradient cx="261.14664" cy="208.14213" r="5.9393" gradientUnits="userSpaceOnUse" id="color-38"><stop offset="0" stop-color="#b6d6d6"/><stop offset="1" stop-color="#89a19f"/></radialGradient><radialGradient cx="261.07558" cy="202.95642" r="3.65023" gradientUnits="userSpaceOnUse" id="color-39"><stop offset="0" stop-color="#b6d6d6"/><stop offset="1" stop-color="#89a19f"/></radialGradient></defs><g transform="translate(-176.12518,-99.14295)"><g data-paper-data="{&quot;isPaintingLayer&quot;:true}" fill-rule="nonzero" stroke-linecap="butt" stroke-linejoin="miter" stroke-miterlimit="10" stroke-dasharray="" stroke-dashoffset="0" style="mix-blend-mode: normal"><g data-paper-data="{&quot;index&quot;:null}" stroke-width="0.75"><path d="M264.25947,203.91465c-0.39524,-1.44671 -0.2972,-3.14646 -0.3012,-3.25482c-0.03963,-1.07434 1.42539,-3.42609 2.96789,-4.93839c1.09039,-1.06905 2.63065,-1.58703 3.31692,-1.85817c1.755,-0.6934 4.34954,1.71035 4.34954,1.71035c0,0 1.89813,-0.5602 3.91586,-0.41311c2.20242,0.16055 7.73839,1.85258 7.645,2.19758c-0.05607,0.20715 -3.92474,1.35203 -2.96649,3.43206c0.68113,1.4785 3.07854,3.31302 3.07854,3.31302c0,0 -6.79416,-2.9586 -7.00697,-1.93818c-0.46987,2.25297 2.13219,5.03985 2.13219,5.03985l-1.00819,0.08357c0,0 -4.60515,-3.5607 -4.914,-2.97449c-1.47523,2.79999 0.73617,5.74477 0.73617,5.74477c0,0 -3.56003,0.2582 -5.92578,-0.60429c-2.10032,-0.76572 -3.18491,-2.12996 -3.18491,-2.12996c0,0 -0.79429,-0.42589 -1.45117,-1.07528c-0.64663,-0.63925 -1.15418,-1.49541 -1.38342,-2.33451z" fill="url(#color-1)" stroke="#4a5957"/><path d="M283.12473,210.51821c-0.78472,-1.98611 -5.47198,-7.83862 -4.04949,-8.40065c0.78087,-0.30853 4.15606,0.23013 6.34588,1.83917c1.79933,1.3221 1.85898,3.99637 2.21293,4.89222c0.78472,1.9861 0.90965,3.68578 -0.51284,4.24781c-0.84994,0.33581 -2.43436,0.52203 -3.25366,-0.17899c-0.55193,-0.47224 -0.42699,-1.60012 -0.74283,-2.39955z" fill="url(#color-2)" stroke="#4a5957"/><path d="M276.45517,213.08543c-0.07284,-0.60791 0.66411,-1.15683 0.40575,-2.1877c-0.28662,-1.14361 -1.26019,-2.18242 -1.65339,-3.36032c-0.54609,-1.63588 -0.32406,-3.30042 0.34675,-3.38078c0.8724,-0.10451 5.12998,3.27916 5.12998,3.27916c0,0 0.98699,2.48057 0.92514,3.75283c-0.01738,0.35757 -0.22652,3.5422 -1.81574,3.73258c-0.94955,0.11375 -1.78201,0.85897 -2.42472,-0.0685c-0.43297,-0.6248 -0.80679,-0.87416 -0.91378,-1.76727z" fill="url(#color-3)" stroke="#4a5957"/><path d="M288.28862,206.09021c-0.33404,-0.84546 -1.81901,-1.68296 -3.03858,-2.80202c-1.6217,-1.48802 -2.32794,-3.34978 -2.32794,-3.34978c0,0 1.33749,-3.04349 3.50921,-1.44776c0.62191,0.45696 1.82795,0.30209 2.82152,0.99338c0.81563,0.56748 1.40873,1.97136 2.0944,2.48282c0.87572,0.65322 1.44058,1.10462 1.56884,1.42925c0.77823,1.96969 0.90214,3.65531 -0.5086,4.21269c-0.84291,0.33304 -2.41424,0.51771 -3.22677,-0.17751c-0.54737,-0.46834 -0.57887,-0.54826 -0.8921,-1.34108z" fill="url(#color-4)" stroke="#4a5957"/><path d="M289.44673,199.74961c-1.42209,-0.88948 -4.21854,-1.85269 -4.21854,-1.85269l1.09769,-0.47506c0,0 1.03977,0.55191 1.58551,0.6999c1.06582,0.28903 2.40974,0.19488 3.0573,0.5999c1.4221,0.88947 0.39548,3.11199 0.39548,3.11199c0,0 -0.38201,-0.41332 -0.9214,-1.09023c-0.24067,-0.30202 -0.55728,-0.71938 -0.99603,-0.99381z" fill="url(#color-5)" stroke="#4a5957"/><path d="M263.94676,201.73303c0,0 -0.91876,-1.34787 -1.00522,-2.65269c-0.04001,-0.60388 0.49666,-1.25988 0.63765,-1.73803c0.44563,-1.51128 2.02819,-2.21862 2.79997,-2.68448c0.65568,-0.39578 1.61542,0.06258 1.61542,0.06258c0,0 -2.45442,2.4758 -2.49647,2.54865c-0.70393,1.2195 -1.55136,4.46397 -1.55136,4.46397z" data-paper-data="{&quot;index&quot;:null}" fill="url(#color-6)" stroke="#747474"/><path d="M266.19785,191.56812c0.1542,0.17501 0.37027,1.10129 0.82262,1.56222c0.61227,0.62389 1.10705,1.15637 1.11062,1.45594c0.00185,0.15493 -1.56426,-0.19551 -2.31554,0.36103c-0.37557,0.27821 -0.9655,0.51803 -1.40138,1.0288c-0.46946,0.55012 -0.94096,1.17543 -1.17422,1.82838c-0.41656,1.16604 -0.37785,2.2882 -0.37785,2.2882c0,0 -1.27802,-0.00007 -1.7639,-0.46099c-0.32404,-0.3074 -1.02193,-1.25438 -1.26063,-2.25171c-0.25608,-1.06994 -0.04269,-2.21509 -0.07877,-3.21945c-0.00296,-0.08264 -0.59011,-1.15974 -0.58868,-1.23543c0.01148,-0.60828 -1.36812,-2.75034 -1.07175,-4.30034c0.18659,-0.97584 1.90129,-1.40896 2.33321,-2.04423c0.41522,-0.6107 2.64139,-0.47192 2.64139,-0.47192c0,0 0.64247,0.56385 1.20257,1.03835c0.26162,0.22164 0.50529,0.4238 0.6571,0.53988c0.3616,0.2765 0.6559,1.28532 0.9294,1.86456c0.43289,0.91681 0.11422,1.76525 0.3358,2.01672z" data-paper-data="{&quot;index&quot;:null}" fill="url(#color-7)" stroke="#747474"/></g><g data-paper-data="{&quot;index&quot;:null}" stroke="#747474" stroke-width="0.75"><path d="M180.73817,206.5819c0,-1.73998 -2.4774,-3.02732 -3.256,-4.35536c-1.52658,-2.60384 -1.49721,-4.53505 1.7013,-4.53505c2.29762,0 3.4083,0.80762 6.99803,2.57142c3.95629,1.94391 9.40067,3.9186 9.40067,3.9186c0,0 -2.99758,2.75241 -3.74311,4.69088c-0.83723,2.17691 -1.30582,6.93243 -1.30582,6.93243c0,0 -2.49174,0.1047 -3.18757,0.1047c-2.36056,0 -2.42003,-1.76756 -3.85095,-3.2822c-1.49685,-1.5844 -2.75655,-3.41168 -2.75655,-6.04543z" fill="url(#color-8)"/><path d="M192.00977,209.17643c0,-1.80412 3.49995,-5.19189 3.49995,-5.19189c0,0 3.48868,-0.93621 4.92002,-0.95178c1.53994,-0.01675 4.01766,0.85455 4.01766,0.85455c0,0 0.38924,5.18423 2.79411,8.77943c2.35589,3.52198 7.91809,5.83606 7.91809,5.83606l-5.38691,2.35225c0,0 -4.82381,-0.64702 -5.51964,-0.64702c-2.36056,0 -6.50112,2.39856 -7.93204,0.82808c-0.9656,-1.05977 -5.94768,-5.67323 -5.94768,-5.67323c0,0 -0.07664,-2.23404 0.40775,-4.04991c0.25584,-0.95911 1.22868,-1.80156 1.22868,-2.13654z" fill="url(#color-9)"/></g><g data-paper-data="{&quot;index&quot;:null}" stroke-width="0.75"><path d="M226.35817,246.43386c-3.65201,-0.37403 -9.85778,-3.25119 -9.85778,-3.25119c0,0 -1.48982,-4.57358 1.45295,-4.64318c0.40226,-0.00952 3.90871,0.22596 3.90871,0.22596l-0.17199,1.84991c0,0 3.38965,1.78052 3.94158,1.83705c2.65382,0.27178 4.95226,-0.4525 4.95226,-0.4525c0,0 1.51522,0.38942 1.98626,0.85151c0.5502,0.53972 1.11455,2.19021 1.11455,2.19021c0,0 -3.12459,1.82258 -7.32652,1.39224z" fill="#627372" stroke="#222828"/><path d="M212.65469,253.23574c0,0 -1.48632,-1.34924 -1.49262,-3.13258c-0.00461,-1.30284 1.39494,-3.00645 1.6934,-3.74604c0.44022,-1.09086 3.21915,-3.08163 3.21915,-3.08163l8.2781,2.44283c0,0 2.38194,0.68421 4.44361,-0.1189c1.91808,-0.74719 3.74606,-0.67475 3.9676,-0.65206c3.03887,0.31123 5.78281,1.0965 6.59397,3.20667c0.4452,1.15816 0.96734,2.65577 0.86841,4.02254c-0.16789,2.3196 -1.25842,4.35106 -1.25842,4.35106c0,0 -7.7284,0.40248 -15.26572,-0.36946c-7.5373,-0.77193 -11.04744,-2.92241 -11.04744,-2.92241z" fill="url(#color-10)" stroke="#4a5957"/><path d="M212.64674,253.23241c0,0 1.6866,1.64069 6.1248,2.14679c0.094,0.01072 9.28466,1.17771 9.37341,1.1868c3.78138,0.38728 10.64088,-0.00442 10.64088,-0.00442l-0.33446,1.84028c0,0 -4.05329,0.89058 -10.60471,0.21962c-6.55142,-0.67095 -15.42772,-3.26101 -15.42772,-3.26101z" fill="#a06025" stroke="#3f260f"/><path d="M222.39744,237.35015c0,0 3.2329,-0.48872 4.16292,-0.39347c0.79012,0.08091 4.37695,1.37142 4.29115,3.10466c-0.03434,0.6937 -1.07274,0.58419 -0.74083,0.99036c0.35433,0.43359 0.45142,0.92583 0.45142,0.92583c0,0 -2.82588,0.75638 -4.90436,0.54352c-2.07848,-0.21287 -3.93373,-1.97157 -3.93373,-1.97157z" fill="url(#color-11)" stroke="#747474"/><path d="M222.17041,237.37261c0,0 -0.68283,-1.90021 -0.70353,-2.72484c-0.00975,-0.38804 0.19111,-1.40671 -0.12917,-2.5179c-0.46917,-1.62779 -1.21183,-2.1611 -1.56887,-2.87775c-0.09447,-0.18962 -0.31039,-1.64711 -0.31039,-1.64711c0,0 5.17016,-0.1379 6.10018,-0.04265c0.33434,0.03423 0.85295,1.49845 1.83489,2.60566c1.33851,1.50925 3.16381,2.88879 3.1022,4.00694c-0.04275,0.77582 -1.21021,3.63662 -1.21021,3.63662c0,0 -1.78112,-0.72028 -3.8596,-0.93314c-0.69272,-0.07094 -1.31066,0.20767 -1.79291,0.28086c-0.96473,0.14643 -1.46259,0.21334 -1.46259,0.21334z" fill="url(#color-12)" stroke="#747474"/></g><g data-paper-data="{&quot;index&quot;:null}"><path d="M204.86643,194.6968c-2.66178,-12.89085 4.64395,-25.29504 16.31783,-27.70554c11.67388,-2.4105 18.41158,-11.79637 21.07337,1.09448c2.66179,12.89085 -16.5049,46.9748 -28.17878,49.3853c-11.67387,2.4105 -6.55062,-9.88339 -9.21241,-22.77424z" fill="#000000" stroke="#000000" stroke-width="0.5"/><path d="M244.92745,178.25701l2.75199,-5.55027l7.27393,-0.3809c0,0 10.62022,2.39442 12.84001,8.38924c0.04083,0.11027 2.73176,12.12937 0.22839,21.93033c-3.44178,13.47496 -12.91559,26.00092 -18.19397,27.09083c-2.70735,0.55903 -9.72383,2.53843 -15.97123,1.46468c-6.12227,-1.05225 -11.49637,-5.10216 -12.28214,-9.9366c-1.11274,-6.84615 14.19563,-26.4059 14.19563,-26.4059z" fill="#000000" stroke="none" stroke-width="0"/><path d="M255.17836,188.39452c-2.72539,-0.8542 -6.25364,-2.60699 -8.5856,-4.21836c-1.92457,-1.32986 -2.92804,-2.63425 -2.92804,-2.63425c0,0 0.83823,-1.8065 1.27158,-2.62554c0.45319,-0.85654 1.3907,-2.40624 1.3907,-2.40624c0,0 7.40687,5.68617 11.09661,5.87515c3.68974,0.18898 10.41248,-0.61154 10.41248,-0.61154c0,0 0.55781,1.51329 0.67793,2.32309c0.13164,0.88745 0.08051,2.79001 0.08051,2.79001c0,0 -8.44152,3.06686 -13.41618,1.50768z" fill="url(#color-13)" stroke="none" stroke-width="NaN"/><path d="M268.53085,191.99315c0,0 -10.42498,3.49194 -14.15231,2.15765c-3.28342,-1.17538 -7.35684,-3.13133 -8.52693,-3.61715c-3.26315,-1.35484 -6.12904,-4.94294 -6.12904,-4.94294l3.35402,-4.4049c0,0 7.40829,6.39275 12.6592,6.6617c3.68974,0.18898 12.97737,-1.1705 12.97737,-1.1705c0,0 0.25577,2.26157 0.2229,3.22017c-0.02652,0.77338 -0.40521,2.09599 -0.40521,2.09599z" fill="url(#color-14)" stroke="none" stroke-width="NaN"/><path d="M250.2241,209.88237c-8.4838,-0.60794 -18.47985,-5.28662 -18.47985,-5.28662l3.51527,-7.05295c0,0 4.47126,2.04148 9.72217,2.31043c3.68974,0.18897 10.23607,2.36507 13.98421,1.2349c3.74814,-1.13017 9.50864,-1.87591 9.50864,-1.87591c0,0 -0.7691,8.50621 -2.42309,10.1769c-2.13945,2.16107 -7.34356,1.1012 -15.82735,0.49326z" fill="url(#color-15)" stroke="none" stroke-width="NaN"/><path d="M256.67557,224.60829c0,0 -11.52784,-0.27693 -17.35331,-2.09059c-5.82547,-1.81366 -13.59685,-7.71617 -13.59685,-7.71617l4.28822,-7.13529c0,0 7.67451,5.88466 14.76086,7.22359c6.03013,1.13936 18.57327,-0.2371 18.57327,-0.2371c0,0 -1.57229,3.9382 -2.71708,5.64633c-1.07487,1.60382 -3.95512,4.30924 -3.95512,4.30924z" fill="url(#color-16)" stroke="none" stroke-width="NaN"/><path d="M243.32427,231.12387c-3.90539,0.89414 -11.36498,-0.09606 -11.36498,-0.09606c-4.97466,-1.55918 -10.0432,-10.3135 -10.0432,-10.3135l1.95065,-4.2201c0,0 3.1837,6.67659 10.85255,9.23515c0.10227,0.03412 5.32241,1.06663 10.57154,1.43123c4.31434,0.29967 8.84967,-0.05326 8.84967,-0.05326l-3.9478,2.68161c0,0 -4.38433,0.76618 -6.86843,1.33492z" fill="url(#color-17)" stroke="none" stroke-width="NaN"/><path d="M229.81373,179.43472c0,0 3.69062,-6.89814 3.96092,-7.30912c1.16435,-1.77033 6.19941,-7.77135 6.19941,-7.77135c0,0 1.03805,2.50389 3.62959,5.12008c1.90996,1.92813 4.31736,2.28298 4.31736,2.28298c0,0 -5.2861,10.62623 -11.16859,21.44719c-3.02874,5.57145 -5.47629,11.79705 -8.54791,16.95472c-5.31003,8.91625 -10.4446,15.37985 -12.4178,15.78729c-1.79865,0.3714 -8.35297,-1.65713 -5.98752,-8.17562c4.64613,-12.80335 20.01454,-38.33615 20.01454,-38.33615z" fill="url(#color-18)" stroke="#747474" stroke-width="1"/><path d="M211.54737,179.67617l2.58266,0.24695l-0.9806,-4.31294l2.68536,-3.30997c0,0 5.0259,-0.3262 6.68027,1.76573c1.34277,1.69792 2.29549,4.12648 2.46734,4.95875c0.76679,3.71349 -4.22483,13.2527 -6.99019,13.82371c-1.6242,0.33537 -5.19551,-1.80049 -6.32,-4.47794c-0.79007,-1.88118 -2.14039,-6.15543 -2.14039,-6.15543z" fill="url(#color-19)" stroke="#343434" stroke-width="0.75"/><path d="M228.448,170.61089c0,0 -3.13087,-1.12 -4.54483,-1.44801c-2.01249,-0.46687 -4.05276,0.03192 -4.0127,-1.14724c0.0682,-2.00763 5.70144,-6.38924 8.39741,-6.29765c0.60422,0.02052 4.92142,-2.33173 6.27328,-1.59415c1.66557,0.90874 3.75803,2.07521 3.75803,2.07521c0,0 -0.32301,3.27147 -1.3613,4.22305c-0.43065,0.39468 -4.33631,2.39518 -4.33631,2.39518l-3.18725,0.69984z" data-paper-data="{&quot;index&quot;:null}" fill="url(#color-20)" stroke="#343434" stroke-width="0.75"/><path d="M227.89099,177.04953l-1.99044,-4.69448c0,0 0.89445,-0.77071 1.8384,-0.99658c0.73061,-0.17482 3.35104,-0.24516 3.35104,-0.24516z" fill="url(#color-21)" stroke="#343434" stroke-width="0.75"/><path d="M213.54364,204.55073c0,0 -1.82152,3.62948 -2.45712,5.33956c-0.90465,2.43394 -0.79918,5.28931 -2.03138,4.76672c-2.09794,-0.88976 -5.54969,-9.97215 -4.89937,-13.4457c0.14575,-0.77849 -1.44164,-7.33784 -0.38795,-8.80365c1.2982,-1.80598 2.95525,-4.06493 2.95525,-4.06493c0,0 3.37508,1.72572 4.16276,3.45718c0.3267,0.71817 1.62861,6.60133 1.62861,6.60133l0.08128,4.42893z" data-paper-data="{&quot;index&quot;:null}" fill="url(#color-22)" stroke="#343434" stroke-width="0.75"/><path d="M215.32435,200.53887l-1.43063,-3.37416c0,0 0.6429,-0.55395 1.32136,-0.71629c0.52513,-0.12565 2.40856,-0.1762 2.40856,-0.1762z" fill="url(#color-23)" stroke="#343434" stroke-width="0.75"/></g><g data-paper-data="{&quot;index&quot;:null}" stroke-width="0.75"><path d="M263.62104,238.50382c-3.64737,2.70218 -10.35705,4.40319 -10.35705,4.40319c0,0 -4.82152,-3.07276 -2.56381,-5.29746c0.30862,-0.30409 3.25342,-2.66975 3.25342,-2.66975l1.3443,1.78315c0,0 4.08866,-0.89611 4.56775,-1.25104c2.30359,-1.70663 3.53118,-4.04418 3.53118,-4.04418c0,0 1.50259,-0.76461 2.24244,-0.6969c0.86417,0.07908 2.62783,1.14257 2.62783,1.14257c0,0 -0.99866,3.92824 -4.64605,6.63043z" fill="#627372" stroke="#222828"/><path d="M257.68461,254.94818c0,0 -2.32372,-0.04078 -3.75134,-1.6077c-1.04298,-1.14473 -1.22693,-3.72762 -1.56627,-4.61008c-0.5005,-1.3016 0.24438,-5.20338 0.24438,-5.20338l8.89698,-4.24307c0,0 2.54512,-1.23739 3.63516,-3.5382c1.0141,-2.14055 2.60629,-3.48911 2.81036,-3.64029c2.79906,-2.0737 5.72865,-3.50168 8.09253,-2.26858c1.29741,0.67679 2.93013,1.5933 3.93717,2.87438c1.70909,2.17417 2.4139,4.80725 2.4139,4.80725c0,0 -6.16626,6.32615 -13.10878,11.46954c-6.94252,5.14338 -11.60408,5.96015 -11.60408,5.96015z" fill="url(#color-24)" stroke="#4a5957"/><path d="M257.67526,254.9514c0,0 2.7243,0.14291 6.85338,-2.84023c0.08748,-0.06319 8.7329,-6.13587 8.81465,-6.19643c3.48297,-2.58036 8.92847,-8.22563 8.92847,-8.22563l1.18699,1.8804c0,0 -2.69207,3.91674 -8.7265,8.38737c-6.03443,4.47063 -15.55096,9.04615 -15.55096,9.04615z" fill="#a06025" stroke="#3f260f"/><path d="M253.25979,233.26609c0,0 2.02032,-2.71674 2.78916,-3.28634c0.65317,-0.48391 4.35277,-1.851 5.66776,-0.23289c0.52631,0.6476 -0.33462,1.28073 0.23585,1.41193c0.609,0.14005 1.07297,0.51403 1.07297,0.51403c0,0 -1.5041,2.67055 -3.22233,3.94352c-1.71823,1.27295 -4.49995,0.99942 -4.49995,0.99942z" fill="url(#color-25)" stroke="#747474"/><path d="M253.89475,232.86373c0,0 -1.78083,-1.11466 -2.37789,-1.76611c-0.28095,-0.30654 -0.8742,-1.24909 -1.86518,-1.94899c-1.45169,-1.02532 -2.30279,-1.00285 -3.03785,-1.36268c-0.19448,-0.0952 -1.36414,-1.13748 -1.36414,-1.13748c0,0 3.19865,-3.25728 3.85904,-3.74654c0.23741,-0.17588 1.6048,0.68762 3.01482,0.98167c1.92201,0.40084 4.06257,0.401 4.81499,1.3389c0.52207,0.65074 1.80333,3.6649 1.80333,3.6649c0,0 -1.64558,0.50387 -3.12145,1.59728c-0.4919,0.36443 -0.68859,0.9648 -0.94423,1.31722c-0.51141,0.70498 -0.78145,1.06183 -0.78145,1.06183z" fill="url(#color-26)" stroke="#747474"/></g><g data-paper-data="{&quot;index&quot;:null}"><path d="M245.92774,152.60727c0.92507,-3.97574 11.46329,-4.92119 23.53777,-2.11171c6.50861,1.51442 14.41847,3.35836 18.07773,5.7763c3.12924,2.06772 2.53648,4.67676 2.11006,6.50942c-0.92507,3.97574 -11.46328,4.92119 -23.53776,2.11171c-6.45981,-1.50306 -13.78103,0.03682 -17.44207,-2.36114c-3.18207,-2.08425 -3.17588,-8.07584 -2.74572,-9.92458z" fill="#000000" stroke="none" stroke-width="0"/><path d="M242.44943,156.97507l5.56444,5.73932c0,0 1.96686,-12.43819 2.97557,-12.79185c0.73448,-0.25751 3.19139,4.14043 5.69761,6.62618c1.86264,1.84743 4.26154,3.40746 4.26154,3.40746l2.97535,2.33719l2.7394,-6.32793c0,0 10.36581,0.28558 13.79607,1.27739c3.25276,0.94048 10.49176,2.1347 10.49176,2.1347c0,0 -0.48742,5.09116 -3.41752,8.11022c-5.61735,5.78791 -18.4066,12.17687 -27.04351,10.16725c-5.65734,-1.31635 -11.66361,-4.30016 -15.01025,-7.52597c-4.42762,-4.26776 -7.2184,-10.78544 -7.2184,-10.78544z" fill="url(#color-27)" stroke="none" stroke-width="0"/><path d="M241.96832,115.02672c1.34145,-5.76525 6.25527,-11.99068 10.26653,-14.29611c2.69929,-1.55139 3.41433,-1.11725 5.72346,-0.67344c2.30913,0.44382 4.19307,2.40775 4.19307,2.40775c0,0 4.04463,-3.59098 7.70606,-0.43994c3.66143,3.15104 3.10347,6.27207 4.39354,10.85291c1.3794,4.89801 1.30212,9.40118 1.30212,9.40118c0,0 -6.98567,3.52226 -11.31271,6.18351c-2.20762,1.35774 -13.36446,8.59155 -15.47866,8.09962c-2.87152,-0.66814 -10.45582,0.27895 -10.45582,0.27895c0,0 2.44799,-16.59513 3.66242,-21.81445z" fill="url(#color-28)" stroke="#747474" stroke-width="1"/><path d="M273.95633,122.98287l-4.37316,1.58221c0,0 -1.29525,-6.24028 -1.50815,-9.55233c-0.07833,-1.21855 -0.63197,-2.91451 -0.62755,-4.38334c0.00699,-2.32424 0.60934,-4.26639 0.60934,-4.26639c0,0 1.44703,1.33531 3.33355,3.63822c1.19721,1.46145 1.25125,3.90324 1.6552,5.10298c0.84261,2.50254 0.91078,7.87865 0.91078,7.87865z" fill="#000000" stroke="none" stroke-width="0"/><path d="M270.18396,112.68842c1.2333,-0.09085 2.40903,2.22388 2.62607,5.1701c0.21705,2.94621 -0.6068,5.40824 -1.8401,5.49909c-1.2333,0.09086 -2.40903,-2.22386 -2.62607,-5.17008c-0.21704,-2.94622 0.6068,-5.40826 1.8401,-5.49911z" fill="url(#color-29)" stroke="none" stroke-width="0"/><path d="M250.69548,116.65711c0.62322,-2.67846 0.92069,-8.27811 2.19742,-9.94013c1.49572,-1.94711 3.93518,-2.26406 5.54385,-1.88975c2.9818,0.69381 6.62292,15.92668 5.26958,21.74305c-1.35335,5.81637 -6.63435,5.48268 -9.61615,4.78888c-2.98181,-0.6938 -4.74804,-8.88566 -3.3947,-14.70203z" fill="#000000" stroke="none" stroke-width="0"/><path d="M257.70633,119.03311c-0.27544,-3.73892 0.77006,-6.86338 2.33519,-6.97868c1.56513,-0.1153 3.0572,2.82224 3.33264,6.56116c0.27545,3.73893 -0.77006,6.86338 -2.33519,6.97868c-1.56513,0.1153 -3.05719,-2.82223 -3.33263,-6.56115z" fill="url(#color-30)" stroke="none" stroke-width="0"/><path d="M231.26885,153.08178c0.49407,-2.12339 0.35318,-5.32766 1.22267,-8.40515c0.64762,-2.2922 2.1024,-4.4984 3.47861,-6.21907c2.70849,-3.3864 11.1945,-3.07002 13.46606,-2.66021c2.27156,0.40982 13.64257,-8.03449 20.30696,-11.01239c9.61762,-4.2975 7.95661,-4.48759 15.02053,-4.29544c7.09042,0.19289 14.79588,9.94097 17.02698,14.61437c0.90676,1.89935 1.14556,8.79574 -1.11173,14.98972c-2.58199,7.08492 -7.77845,13.43128 -7.77845,13.43128c0,0 -2.39433,-5.73932 -12.55768,-8.37018c-1.07461,-0.27817 -11.77617,-0.83306 -11.77617,-0.83306c0,0 -3.47864,8.42248 -5.22096,8.26133c-1.87262,-0.1732 -5.65208,-9.26699 -5.65208,-9.26699l-2.65911,1.23716c0,0 -2.30151,-3.95961 -3.63862,-4.38945c-0.51556,-0.16574 -2.14561,12.63426 -2.77547,12.46764c-1.73794,-0.45975 -5.24678,-5.11947 -5.24678,-5.11947l-3.83602,3.96511c0,0 -2.04886,0.63049 -3.65233,-0.57799c-2.5825,-1.94634 -4.90916,-6.55897 -4.6164,-7.81717z" fill="url(#color-31)" stroke="#747474" stroke-width="1"/><path d="M270.36492,115.47085c0.74181,-0.05464 1.449,1.33764 1.57955,3.10976c0.13055,1.77212 -0.36499,3.25301 -1.1068,3.30765c-0.74181,0.05464 -1.449,-1.33764 -1.57955,-3.10976c-0.13055,-1.77212 0.36498,-3.253 1.1068,-3.30765z" fill="#d5e20f" stroke="none" stroke-width="0"/><path d="M259.18428,118.94688c-0.1417,-1.92341 0.39614,-3.53073 1.20129,-3.59005c0.80516,-0.05932 1.57272,1.45184 1.71441,3.37525c0.14169,1.92341 -0.39615,3.53073 -1.2013,3.59004c-0.80515,0.05931 -1.57272,-1.45184 -1.71441,-3.37525z" fill="#d5e20f" stroke="none" stroke-width="0"/><path d="M286.17367,126.61507c2.85481,0.66425 3.96112,4.26533 3.96112,4.26533c0,0 -2.21598,0.10358 -5.07079,-0.56067c-2.85481,-0.66425 -3.7512,-0.90965 -3.40398,-2.40194c0.34722,-1.49229 1.65884,-1.96697 4.51365,-1.30272z" fill="#000000" stroke="#73797e" stroke-width="1"/><path d="M268.86808,154.87509c0,0 4.20056,0.22089 8.94342,0.53659c1.67808,0.11171 3.28449,0.355 4.65987,0.62277c2.51194,0.48907 3.58384,1.43171 3.58384,1.43171c0,0 1.45766,0.69241 2.04422,1.01869c0.51608,0.28707 1.81149,1.95217 1.81149,1.95217c0,0 -9.82395,-1.45005 -12.57783,-1.63335c-2.34907,-0.15637 -10.14532,-0.13281 -10.14532,-0.13281z" fill="url(#color-32)" stroke="none" stroke-width="0"/></g><g data-paper-data="{&quot;index&quot;:null}" stroke-width="0.75"><path d="M230.02075,203.79184c0,0 -0.83485,-1.97351 -0.60886,-3.6764c0.10459,-0.78811 0.9654,-1.49427 1.27061,-2.07364c0.96466,-1.83123 3.18579,-2.3331 4.30024,-2.73356c0.94681,-0.34022 2.0644,0.49824 2.0644,0.49824c0,0 -3.80125,2.55416 -3.87423,2.6371c-1.22189,1.38866 -3.15216,5.34827 -3.15216,5.34827z" data-paper-data="{&quot;index&quot;:null}" fill="url(#color-33)" stroke="#747474"/><path d="M235.54806,191.28199c0.15336,0.26527 0.19217,1.51413 0.6556,2.22473c0.62727,0.96183 1.12686,1.77557 1.05401,2.16231c-0.03768,0.20002 -1.96415,-0.65623 -3.07565,-0.13366c-0.55563,0.26123 -1.37745,0.41757 -2.07088,0.96272c-0.74686,0.58717 -1.51578,1.27063 -1.98503,2.05129c-0.83797,1.39409 -1.07823,2.84938 -1.07823,2.84938c0,0 -1.646,-0.3305 -2.15263,-1.04976c-0.33787,-0.47969 -0.99188,-1.87978 -1.04147,-3.22601c-0.0532,-1.44423 0.51769,-2.86396 0.73089,-4.16684c0.01755,-0.1072 -0.46019,-1.64625 -0.43878,-1.74337c0.17205,-0.78047 -1.051,-3.89599 -0.26856,-5.81569c0.4926,-1.20859 2.81302,-1.32313 3.53355,-2.02964c0.69267,-0.6792 3.52398,0.07509 3.52398,0.07509c0,0 0.68169,0.89231 1.28039,1.64825c0.27966,0.35311 0.54122,0.67647 0.70673,0.86523c0.39424,0.4496 0.51247,1.825 0.71497,2.64173c0.32051,1.29271 -0.30927,2.30308 -0.08891,2.68425z" data-paper-data="{&quot;index&quot;:null}" fill="url(#color-34)" stroke="#747474"/><path d="M230.96451,207.17793c-0.4443,-1.62629 -0.3341,-3.53703 -0.33859,-3.65884c-0.04455,-1.2077 1.60232,-3.85137 3.33629,-5.5514c1.22574,-1.20175 2.9572,-1.78402 3.72866,-2.08882c1.97285,-0.77947 4.88945,1.92265 4.88945,1.92265c0,0 2.13375,-0.62974 4.40194,-0.46439c2.47581,0.18048 8.69896,2.08255 8.59398,2.47037c-0.06303,0.23287 -4.41192,1.51986 -3.33472,3.85808c0.76568,1.66202 3.46068,3.72427 3.46068,3.72427c0,0 -7.63752,-3.32586 -7.87675,-2.17877c-0.5282,2.53264 2.39686,5.66545 2.39686,5.66545l-1.13334,0.09395c0,0 -5.17679,-4.00269 -5.52398,-3.34372c-1.65835,3.14756 0.82755,6.45787 0.82755,6.45787c0,0 -4.00194,0.29025 -6.66135,-0.6793c-2.36103,-0.86077 -3.58025,-2.39435 -3.58025,-2.39435c0,0 -0.89288,-0.47876 -1.6313,-1.20876c-0.7269,-0.7186 -1.29745,-1.68103 -1.55515,-2.62429z" fill="url(#color-35)" stroke="#4a5957"/><path d="M247.61937,205.15777c0.8778,-0.34683 4.67196,0.25871 7.1336,2.06747c2.02267,1.48621 2.08973,4.49244 2.48762,5.49949c0.88213,2.23264 1.02256,4.1433 -0.5765,4.77509c-0.95544,0.37749 -2.73654,0.58683 -3.65754,-0.20121c-0.62044,-0.53087 -0.47998,-1.79875 -0.83503,-2.69741c-0.88213,-2.23264 -6.15121,-8.81164 -4.55215,-9.44343z" fill="url(#color-36)" stroke="#4a5957"/><path d="M244.67409,217.48706c-0.08187,-0.68337 0.74656,-1.30042 0.45612,-2.45926c-0.32219,-1.28556 -1.41661,-2.45332 -1.85862,-3.77743c-0.61388,-1.83894 -0.36429,-3.7101 0.38979,-3.80044c0.98068,-0.11747 5.76676,3.68621 5.76676,3.68621c0,0 1.10949,2.78849 1.03997,4.21867c-0.01953,0.40196 -0.25463,3.98189 -2.04113,4.19591c-1.06742,0.12787 -2.00322,0.96559 -2.72571,-0.077c-0.48671,-0.70236 -0.90693,-0.98267 -1.0272,-1.98665z" fill="url(#color-37)" stroke="#4a5957"/><path d="M257.97643,209.62355c-0.37551,-0.95041 -2.0448,-1.89186 -3.41576,-3.14983c-1.823,-1.67274 -2.61691,-3.7656 -2.61691,-3.7656c0,0 1.50352,-3.42128 3.94481,-1.62747c0.69909,0.51368 2.05484,0.33957 3.17175,1.11668c0.91688,0.63792 1.58361,2.21608 2.35438,2.79102c0.98443,0.7343 1.6194,1.24174 1.76358,1.60666c0.87483,2.21419 1.01412,4.10904 -0.57173,4.73561c-0.94754,0.37437 -2.71392,0.58197 -3.62731,-0.19955c-0.61531,-0.52647 -0.65073,-0.61632 -1.00284,-1.50755z" fill="url(#color-38)" stroke="#4a5957"/><path d="M259.27829,202.49587c-1.59862,-0.99989 -4.74219,-2.08266 -4.74219,-2.08266l1.23395,-0.53403c0,0 1.16884,0.62042 1.78232,0.78678c1.19812,0.32491 2.70886,0.21907 3.4368,0.67437c1.59863,0.99988 0.44458,3.49828 0.44458,3.49828c0,0 -0.42943,-0.46463 -1.03578,-1.22556c-0.27054,-0.33951 -0.62646,-0.80868 -1.11967,-1.11717z" fill="url(#color-39)" stroke="#4a5957"/></g></g></g></svg>