<svg version="1.1" xmlns="http://www.w3.org/2000/svg" xmlns:xlink="http://www.w3.org/1999/xlink" width="303.7878" height="208.92086" viewBox="0,0,303.7878,208.92086"><g transform="translate(-184.08352,-49.2347)"><g data-paper-data="{&quot;isPaintingLayer&quot;:true}" fill-rule="nonzero" stroke="none" stroke-width="0" stroke-linecap="butt" stroke-linejoin="miter" stroke-miterlimit="10" stroke-dasharray="" stroke-dashoffset="0" style="mix-blend-mode: normal"><path d="M238.10998,247.56929c-6.28891,12.70716 -13.77312,11.9597 -21.55549,8.10812c-7.78237,-3.85158 -12.91589,-9.34878 -6.62697,-22.05593c6.28891,-12.70716 17.69595,-19.88603 25.47832,-16.03444c7.78237,3.85158 8.99306,17.2751 2.70415,29.98226z" fill="#fff6bc"/><path d="M219.08852,250.69565c2.40724,-4.86399 8.96563,-5.70469 13.82961,-3.29745c2.45954,1.21725 2.4481,5.03885 2.4481,5.03885c0,0 -1.63086,2.32622 -6.17072,4.67541c-4.36034,2.2563 -9.88863,-0.21719 -9.88863,-0.21719c0,0 -1.69225,-3.22152 -0.21835,-6.19962z" fill="#ffdd00"/><path d="M216.02988,224.91326c0,0 1.70434,0.30567 2.51688,0.70781c3.49599,1.7302 4.92744,5.96687 3.19724,9.46286c-1.7302,3.49599 -5.96687,4.92744 -9.46286,3.19724c-1.4615,-0.72331 -3.00061,-2.8632 -3.00061,-2.8632c0,0 0.4441,-2.55871 2.57044,-6.05879c2.34994,-3.86814 4.1789,-4.44592 4.1789,-4.44592z" fill="#ffdd00"/><path d="M230.96148,225.59789c1.59789,-3.22864 8.56638,-3.93862 8.56638,-3.93862c0,0 2.04719,2.15285 2.61942,5.75579c0.55497,3.49424 -0.13278,7.61764 -0.13278,7.61764c0,0 -5.10473,1.86926 -7.66116,0.60405c-3.70879,-1.83552 -5.22737,-6.33007 -3.39185,-10.03885z" fill="#ffdd00"/><path d="M208.21233,206.58379c0,0 2.80932,0.24463 4.18643,0.77713c5.92509,2.29108 8.87105,8.9516 6.57997,14.87669c-2.29108,5.92509 -8.9516,8.87105 -14.8767,6.57998c-2.47698,-0.95778 -5.28858,-4.20167 -5.28858,-4.20167c0,0 0.34327,-4.21543 3.27622,-10.20551c3.24138,-6.62001 6.12265,-7.82661 6.12265,-7.82661z" fill="#0021ff"/><path d="M217.92409,237.48542c-5.53053,14.30285 -13.66524,14.23014 -22.42488,10.84301c-8.75964,-3.38712 -14.82712,-8.80601 -9.29659,-23.10886c5.53053,-14.30285 17.115,-23.15181 25.87465,-19.76468c8.75964,3.38712 11.37735,17.72768 5.84682,32.03053z" fill="#ff9898"/><path d="M197.74124,242.7144c2.11695,-5.47477 9.09899,-7.02214 14.57376,-4.90519c2.7684,1.07046 3.13005,5.18798 3.13005,5.18798c0,0 -1.52903,2.66528 -6.18921,5.63995c-4.4759,2.85705 -10.67271,0.73376 -10.67271,0.73376c0,0 -2.13805,-3.30443 -0.84189,-6.6565z" fill="#ff0000"/><path d="M191.92358,215.2424c0,0 1.86574,0.16247 2.78031,0.51611c3.93499,1.52156 5.89147,5.94497 4.36991,9.87996c-1.52156,3.93499 -5.94497,5.89148 -9.87996,4.36992c-1.64502,-0.63609 -3.51227,-2.79043 -3.51227,-2.79043c0,0 0.22797,-2.79956 2.17581,-6.77772c2.15268,-4.3965 4.0662,-5.19784 4.0662,-5.19784z" fill="#ff0000"/><path d="M208.07403,214.51864c1.4052,-3.63407 8.84177,-5.08076 8.84177,-5.08076c0,0 2.41578,2.1186 3.38474,5.94347c0.93973,3.70949 0.60245,8.21827 0.60245,8.21827c0,0 -5.31559,2.51301 -8.19306,1.40037c-4.17451,-1.61417 -6.25008,-6.30684 -4.63591,-10.48135z" fill="#ff0000"/><path d="M487.78429,115.89727c-1.44267,35.92207 -19.54693,41.91935 -41.54706,41.0358c-22.00012,-0.88355 -39.56513,-8.31335 -38.12244,-44.23543c1.44267,-35.92207 20.44682,-64.32642 42.44695,-63.44287c22.00012,0.88355 38.66523,30.72043 37.22256,66.6425z" fill="#ffa46a"/><path d="M446.96154,142.77932c0.55222,-13.75008 14.87241,-22.46932 28.62248,-21.91709c6.95291,0.27924 10.87264,9.14134 10.87264,9.14134c0,0 -1.37477,7.07128 -9.46266,17.19959c-7.76806,9.72782 -23.12498,9.70816 -23.12498,9.70816c0,0 -7.24561,-5.71316 -6.9075,-14.132z" fill="#ff6300"/><path d="M413.25486,86.22916c0,0 4.26268,-1.05202 6.55966,-0.95978c9.88287,0.39691 17.57275,8.73031 17.17584,18.61318c-0.39691,9.88287 -8.7303,17.57277 -18.61317,17.17586c-4.13153,-0.16592 -9.90557,-3.53231 -9.90557,-3.53231c0,0 -1.61367,-6.38424 -0.3036,-16.6856c1.44784,-11.38466 5.08686,-14.61134 5.08686,-14.61134z" fill="#ff6300"/><path d="M448.54137,72.3961c0.36656,-9.1271 15.77149,-17.96708 15.77149,-17.96708c0,0 6.96405,2.87178 12.00971,10.62479c4.89343,7.51913 7.55861,17.77852 7.55861,17.77852c0,0 -9.89161,9.60017 -17.11847,9.30993c-10.48443,-0.42107 -18.64241,-9.26172 -18.22133,-19.74615z" fill="#ff6300"/></g></g></svg>