<svg version="1.1" xmlns="http://www.w3.org/2000/svg" xmlns:xlink="http://www.w3.org/1999/xlink" width="101.87622" height="151.96344" viewBox="0,0,101.87622,151.96344"><defs><linearGradient x1="230.74526" y1="213.51574" x2="212.62602" y2="244.27165" gradientUnits="userSpaceOnUse" id="color-1"><stop offset="0" stop-color="#364ec7"/><stop offset="1" stop-color="#001371"/></linearGradient><linearGradient x1="214.12675" y1="239.25373" x2="207.42255" y2="250.63355" gradientUnits="userSpaceOnUse" id="color-2"><stop offset="0" stop-color="#a6680a"/><stop offset="1" stop-color="#6c4205"/></linearGradient><linearGradient x1="252.00869" y1="215.88746" x2="270.20068" y2="246.92952" gradientUnits="userSpaceOnUse" id="color-3"><stop offset="0" stop-color="#364ec7"/><stop offset="1" stop-color="#001371"/></linearGradient><linearGradient x1="268.49744" y1="240.3568" x2="275.3696" y2="252.08316" gradientUnits="userSpaceOnUse" id="color-4"><stop offset="0" stop-color="#a6680a"/><stop offset="1" stop-color="#6c4205"/></linearGradient><linearGradient x1="241.07231" y1="162.59478" x2="241.07231" y2="221.5807" gradientUnits="userSpaceOnUse" id="color-5"><stop offset="0" stop-color="#364ec7"/><stop offset="1" stop-color="#001371"/></linearGradient><linearGradient x1="242.5126" y1="166.8177" x2="242.5126" y2="187.67321" gradientUnits="userSpaceOnUse" id="color-6"><stop offset="0" stop-color="#20de16"/><stop offset="1" stop-color="#158e0e"/></linearGradient><linearGradient x1="242.32451" y1="122.56033" x2="242.32451" y2="172.20263" gradientUnits="userSpaceOnUse" id="color-7"><stop offset="0" stop-color="#ffefc0"/><stop offset="1" stop-color="#e0ce98"/></linearGradient><linearGradient x1="241.2802" y1="103.75884" x2="241.2802" y2="136.05511" gradientUnits="userSpaceOnUse" id="color-8"><stop offset="0" stop-color="#20de16"/><stop offset="1" stop-color="#158e0e"/></linearGradient><linearGradient x1="242.04265" y1="121.24667" x2="242.04265" y2="129.17707" gradientUnits="userSpaceOnUse" id="color-9"><stop offset="0" stop-color="#20de16"/><stop offset="1" stop-color="#158e0e"/></linearGradient><linearGradient x1="243.38202" y1="140.27103" x2="243.38202" y2="157.82151" gradientUnits="userSpaceOnUse" id="color-10"><stop offset="0" stop-color="#ffefc0"/><stop offset="1" stop-color="#e0ce98"/></linearGradient><linearGradient x1="220.96722" y1="179.17956" x2="214.64901" y2="151.29677" gradientUnits="userSpaceOnUse" id="color-11"><stop offset="0" stop-color="#20de16"/><stop offset="1" stop-color="#158e0e"/></linearGradient><linearGradient x1="262.80695" y1="180.4725" x2="270.24337" y2="151.12641" gradientUnits="userSpaceOnUse" id="color-12"><stop offset="0" stop-color="#20de16"/><stop offset="1" stop-color="#158e0e"/></linearGradient></defs><g transform="translate(-191.4629,-103.25883)"><g data-paper-data="{&quot;isPaintingLayer&quot;:true}" fill-rule="nonzero" stroke-linejoin="miter" stroke-miterlimit="10" stroke-dasharray="" stroke-dashoffset="0" style="mix-blend-mode: normal"><path d="M228.59843,232.35042c-1.77861,3.01904 -5.91327,7.5258 -8.23634,10.11039c-3.34094,3.71706 -5.00711,3.40611 -8.6467,1.26192c-3.65583,-2.15376 -4.99815,-2.42281 -3.35126,-7.16578c1.13277,-3.26227 6.73978,-8.11577 8.50699,-11.11545c5.21852,-8.858 7.43894,-15.71693 10.72665,-13.78004c0,0 4.96538,3.59403 4.93339,5.68816c-0.09224,6.03806 1.28581,6.1428 -3.93271,15.00081z" fill="url(#color-1)" stroke="#001371" stroke-width="1.5" stroke-linecap="butt"/><path d="M218.09477,246.20172c0.99421,4.62279 -2.39573,6.64532 -4.68602,6.74733c-2.77338,0.12353 -8.67602,-3.43836 -10.60288,-6.96528c-1.92686,-3.52691 -0.25144,-3.60856 0.61346,-5.07666c1.92298,-3.2641 5.458,-4.74598 10.0868,-2.01901c4.6288,2.72697 3.59444,2.69082 4.58865,7.31362z" fill="url(#color-2)" stroke="#6c4306" stroke-width="1.5" stroke-linecap="butt"/><path d="M266.27945,225.84349c2.07667,2.87032 4.65748,8.54917 6.15446,11.76063c2.15289,4.61856 1.29007,6.06547 -1.90522,8.6465c-3.20953,2.59254 -3.92123,3.75088 -7.5863,0.32263c-2.52088,-2.358 -4.89524,-9.56136 -6.95859,-12.41327c-6.09303,-8.42163 -11.44975,-13.22744 -8.56341,-15.55893c0,0 4.95749,-3.25662 6.81961,-2.39796c0,0 1.25319,-3.02979 3.62836,-1.00368c2.39161,2.04015 2.31806,2.22246 8.41109,10.64409z" data-paper-data="{&quot;origRot&quot;:0}" fill="url(#color-3)" stroke="#001371" stroke-width="1.5" stroke-linecap="butt"/><path d="M275.84704,239.80151c4.7023,0.80578 5.25877,4.84941 4.45523,7.09851c-0.973,2.72352 -6.61169,7.05954 -10.65772,7.57225c-4.04601,0.5127 -3.46476,-1.13527 -4.49483,-2.53051c-2.29023,-3.1021 -2.28544,-7.07929 2.07458,-10.50485c4.36002,-3.42556 3.92044,-2.4412 8.62274,-1.63543z" data-paper-data="{&quot;origRot&quot;:0}" fill="url(#color-4)" stroke="#6c4306" stroke-width="1.5" stroke-linecap="butt"/><path d="M258.19094,192.18506c0,9.41437 2.57396,18.53496 -2.43939,25.72942c-3.21333,4.61132 -9.69716,3.56404 -14.67924,3.56404c-4.98207,0 -11.4659,0.74966 -14.67924,-3.86164c-5.01335,-7.19445 -2.43939,-16.01745 -2.43939,-25.4318c0,-16.17833 7.66426,-29.54752 17.11863,-29.54752c0,0 9.72842,-0.91541 12.88897,5.72261c3.14566,6.60674 4.22966,7.64657 4.22966,23.8249z" data-paper-data="{&quot;origPos&quot;:null}" fill="url(#color-5)" stroke="#001371" stroke-width="1.5" stroke-linecap="butt"/><path d="M249.20573,175.59599c0,2.73229 1.18698,7.24255 -0.31003,9.12432c-1.61709,2.03268 -3.32827,2.96733 -5.5586,2.95273c-2.46992,-0.01618 -4.1733,-1.01847 -6.23486,-2.81865c-2.11879,-1.85016 -1.69451,-5.89918 -1.69451,-9.25839c0,-4.84812 3.0888,-8.7783 6.89902,-8.7783c3.8102,0 6.899,3.93019 6.899,8.7783z" data-paper-data="{&quot;origPos&quot;:null}" fill="url(#color-6)" stroke="none" stroke-width="0" stroke-linecap="butt"/><path d="M235.94362,183.88415c0,2.26997 -1.7773,4.11017 -3.96972,4.11017c-2.19242,0 -3.96972,-1.84019 -3.96972,-4.11017c0,-2.26997 1.7773,-4.11016 3.96972,-4.11016c2.19242,0 3.96972,1.84019 3.96972,4.11016z" data-paper-data="{&quot;origPos&quot;:null}" fill="#faff66" stroke="none" stroke-width="1.5" stroke-linecap="butt"/><path d="M257.2366,183.32041c0,2.21407 -1.73351,4.00892 -3.87193,4.00892c-2.13841,0 -3.87194,-1.79484 -3.87194,-4.00892c0,-2.21407 1.73353,-4.00892 3.87194,-4.00892c2.13841,0 3.87193,1.79484 3.87193,4.00892z" data-paper-data="{&quot;origPos&quot;:null}" fill="#faff66" stroke="none" stroke-width="1.5" stroke-linecap="butt"/><path d="M267.34623,148.19052c0,9.23742 -5.14936,13.04669 -11.92352,17.80059c-4.72012,3.31245 -6.06853,6.21151 -11.57363,6.21151c-6.39728,0 -8.94794,-3.22704 -14.4308,-7.08064c-6.66848,-4.68691 -12.11553,-7.9917 -12.11553,-17.0887c0,-4.70272 0.57271,-16.5513 2.65647,-20.51414c4.80207,-9.13245 14.74065,-2.85512 23.65922,-2.85512c0,0 14.51881,-3.95343 19.42967,4.73335c2.33042,4.12225 4.29814,5.79981 4.29814,18.79313z" data-paper-data="{&quot;origPos&quot;:null}" fill="url(#color-7)" stroke="#e0ce98" stroke-width="1" stroke-linecap="butt"/><path d="M266.15742,122.48909c4.00627,16.71215 -25.08437,7.40635 -27.49927,9.0406c-2.37176,1.60506 -21.51796,1.04064 -21.1688,-1.20378c1.89371,-12.17314 11.44355,-17.03179 17.05142,-15.97189c5.60786,1.0599 27.61039,-8.57709 31.61666,8.13505z" data-paper-data="{&quot;origPos&quot;:null,&quot;origRot&quot;:0}" fill="#c27231" stroke="#985926" stroke-width="1.5" stroke-linecap="butt"/><path d="M255.16833,158.56221c0,0.96935 -1.05436,2.6064 -1.15734,3.56971c-0.21869,2.04583 -1.61583,3.12409 -3.57684,3.21584c-2.16435,0.10127 -5.99132,-2.51586 -5.99132,-2.51586c0,0 -2.87775,1.19046 -4.82459,1.64777c-1.63184,0.38331 -4.15503,0.13211 -5.64053,-0.65409c-1.0443,-0.55271 -2.66543,-2.87291 -3.30943,-3.89703c-2.03878,-3.24213 -7.28717,-8.01425 -2.80634,-9.19469c2.20464,-0.58081 8.73957,5.62854 11.0127,5.62854c0,0 3.80829,-0.01754 5.70018,0.08441c4.2897,0.23114 10.5935,-2.47257 10.5935,2.1154z" data-paper-data="{&quot;origPos&quot;:null}" fill="#160b02" stroke="none" stroke-width="0" stroke-linecap="butt"/><path d="M269.32543,123.25464c0,9.88537 -11.03409,3.80048 -26.30554,3.80048c-3.69718,0 -21.53088,4.57582 -25.67096,1.35486c-2.92262,-2.27378 -2.32629,-4.64778 -2.32629,-8.35535c0,-7.42474 9.66934,-13.62739 9.84287,-13.71054c5.48182,-2.62659 10.95662,-1.97633 17.03295,-1.97633c0,0 12.43874,-1.8163 19.6767,0.82488c8.19439,2.99018 7.75028,8.17661 7.75028,18.06198z" data-paper-data="{&quot;origPos&quot;:null}" fill="url(#color-8)" stroke="#158e0e" stroke-width="1" stroke-linecap="butt"/><path d="M269.00766,127.55c0,3.48124 -11.46327,0.29318 -26.35564,0.29318c-14.89236,0 -27.57441,3.18806 -27.57441,-0.29318c0,-3.48124 12.07265,-6.30333 26.96502,-6.30333c14.89236,0 26.96502,2.8221 26.96502,6.30333z" data-paper-data="{&quot;origPos&quot;:null}" fill="url(#color-9)" stroke="#158e0e" stroke-width="1" stroke-linecap="butt"/><path d="M250.85732,115.87249c0,2.14526 0.31298,3.62537 -1.25453,4.98952c-1.35299,1.17745 -9.04403,0.86884 -10.32229,-0.07714c-1.82086,-1.34756 -1.08988,-2.56403 -1.08988,-4.91238c0,-3.50501 2.83555,-6.34641 6.33336,-6.34641c3.49782,0 6.33335,2.84139 6.33335,6.34641z" data-paper-data="{&quot;origPos&quot;:null}" fill="#ffffff" stroke="#a4a4a4" stroke-width="1" stroke-linecap="butt"/><path d="M232.41501,136.0197c0,0 3.57853,-0.58761 4.30266,-0.46124c1.29495,0.22598 3.53513,1.83418 3.53513,1.83418" data-paper-data="{&quot;origPos&quot;:null,&quot;origRot&quot;:0}" fill="none" stroke="#351c06" stroke-width="2" stroke-linecap="round"/><path d="M247.61617,136.92054c0,0 1.85754,-1.33351 2.93129,-1.52089c0.60044,-0.10479 3.56772,0.38246 3.56772,0.38246" data-paper-data="{&quot;origPos&quot;:null,&quot;origRot&quot;:0,&quot;index&quot;:null}" fill="none" stroke="#351c06" stroke-width="2" stroke-linecap="round"/><path d="M247.75719,119.22879l-4.53402,-0.22681l0.06825,-5.80712" data-paper-data="{&quot;origPos&quot;:null}" fill="none" stroke="#158e0e" stroke-width="1" stroke-linecap="round"/><path d="M231.90206,158.76221c0,-4.58797 6.3038,-1.88426 10.5935,-2.1154c1.89189,-0.10195 5.70018,-0.08441 5.70018,-0.08441c2.27313,0 8.80806,-6.20935 11.0127,-5.62854c4.48083,1.18044 -0.76756,5.95256 -2.80634,9.19469c-0.644,1.02412 -2.26513,3.34432 -3.30943,3.89703c-1.4855,0.7862 -4.00869,1.0374 -5.64053,0.65409c-1.94684,-0.45731 -4.82459,-1.64777 -4.82459,-1.64777c0,0 -3.82697,2.61713 -5.99132,2.51586c-1.96101,-0.09175 -3.35815,-1.17001 -3.57684,-3.21584c-0.10298,-0.96331 -1.15734,-2.60036 -1.15734,-3.56971z" data-paper-data="{&quot;origPos&quot;:null,&quot;index&quot;:null}" fill="#160b02" stroke="none" stroke-width="0" stroke-linecap="butt"/><path d="M255.58865,148.91692c0,4.77499 -5.21052,8.90459 -11.95206,8.90459c-6.74152,0 -12.46119,-4.1296 -12.46119,-8.90459c0,-4.77499 5.46509,-8.64589 12.20662,-8.64589c6.74152,0 12.20662,3.87089 12.20662,8.64589z" data-paper-data="{&quot;origPos&quot;:null}" fill="url(#color-10)" stroke="#e0ce98" stroke-width="1.5" stroke-linecap="butt"/><path d="M231.90935,176.03001c-2.14613,2.89868 -10.19926,0.41684 -17.98716,-5.54332c-7.78789,-5.9602 -12.36145,-13.1417 -10.21531,-16.04037c2.14613,-2.89868 10.19926,-0.41684 17.98716,5.54332c7.78789,5.9602 12.36145,13.1417 10.21531,16.04037z" data-paper-data="{&quot;origRot&quot;:0,&quot;index&quot;:null}" fill="url(#color-11)" stroke="#158e0e" stroke-width="1.5" stroke-linecap="butt"/><path d="M204.68516,162.23423c-5.48525,1.34035 -11.06926,-2.23841 -12.47225,-7.99337c-1.40299,-5.75497 1.90632,-11.50685 7.39156,-12.84718c5.48525,-1.34035 11.06926,2.23841 12.47225,7.99337c1.40299,5.75497 -1.90632,11.50685 -7.39156,12.84718z" data-paper-data="{&quot;origRot&quot;:0,&quot;index&quot;:null}" fill="#ffffff" stroke="#bfbfbf" stroke-width="1.5" stroke-linecap="butt"/><path d="M254.28242,177.83862c-2.08335,-2.62765 1.70906,-10.14793 8.47055,-16.79698c6.76147,-6.64905 13.9316,-9.90902 16.01493,-7.28135c2.08333,2.62768 -1.70907,10.14793 -8.47056,16.79697c-6.76148,6.64905 -13.93162,9.90903 -16.01493,7.28136z" data-paper-data="{&quot;origRot&quot;:0,&quot;index&quot;:null}" fill="url(#color-12)" stroke="#158e0e" stroke-width="1.5" stroke-linecap="butt"/><path d="M272.38203,150.01032c0.94474,-5.80715 6.20135,-9.79727 11.74093,-8.91218c5.5396,0.88511 9.26446,6.31024 8.31972,12.11741c-0.94474,5.80715 -6.20133,9.79727 -11.74093,8.91218c-5.53959,-0.8851 -9.26446,-6.31024 -8.31972,-12.11741z" data-paper-data="{&quot;index&quot;:null}" fill="#ffffff" stroke="#bfbfbf" stroke-width="1.5" stroke-linecap="butt"/></g></g></svg>