<svg version="1.1" xmlns="http://www.w3.org/2000/svg" xmlns:xlink="http://www.w3.org/1999/xlink" width="111.01049" height="144.49658" viewBox="0,0,111.01049,144.49658"><defs><linearGradient x1="250.03546" y1="217.95847" x2="272.03908" y2="244.99387" gradientUnits="userSpaceOnUse" id="color-1"><stop offset="0" stop-color="#364ec7"/><stop offset="1" stop-color="#001371"/></linearGradient><linearGradient x1="275.2017" y1="235.8938" x2="275.2017" y2="252.37788" gradientUnits="userSpaceOnUse" id="color-2"><stop offset="0" stop-color="#a6680a"/><stop offset="1" stop-color="#6c4205"/></linearGradient><linearGradient x1="250.8156" y1="171.33348" x2="275.88132" y2="187.45598" gradientUnits="userSpaceOnUse" id="color-3"><stop offset="0" stop-color="#20de16"/><stop offset="1" stop-color="#158e0e"/></linearGradient><linearGradient x1="241.0723" y1="167.28502" x2="241.0723" y2="223.30357" gradientUnits="userSpaceOnUse" id="color-4"><stop offset="0" stop-color="#364ec7"/><stop offset="1" stop-color="#001371"/></linearGradient><linearGradient x1="242.51259" y1="171.29549" x2="242.51259" y2="191.10184" gradientUnits="userSpaceOnUse" id="color-5"><stop offset="0" stop-color="#20de16"/><stop offset="1" stop-color="#158e0e"/></linearGradient><linearGradient x1="233.29957" y1="217.29029" x2="211.01316" y2="243.77207" gradientUnits="userSpaceOnUse" id="color-6"><stop offset="0" stop-color="#364ec7"/><stop offset="1" stop-color="#001371"/></linearGradient><linearGradient x1="209.33708" y1="237.03935" x2="209.33708" y2="253.46836" gradientUnits="userSpaceOnUse" id="color-7"><stop offset="0" stop-color="#a6680a"/><stop offset="1" stop-color="#6c4205"/></linearGradient><linearGradient x1="225.8391" y1="169.19542" x2="206.73351" y2="189.39392" gradientUnits="userSpaceOnUse" id="color-8"><stop offset="0" stop-color="#20de16"/><stop offset="1" stop-color="#158e0e"/></linearGradient><linearGradient x1="242.3245" y1="126.17806" x2="242.3245" y2="176.40953" gradientUnits="userSpaceOnUse" id="color-9"><stop offset="0" stop-color="#ffefc0"/><stop offset="1" stop-color="#e0ce98"/></linearGradient><linearGradient x1="241.28019" y1="110.22179" x2="241.28019" y2="140.89335" gradientUnits="userSpaceOnUse" id="color-10"><stop offset="0" stop-color="#20de16"/><stop offset="1" stop-color="#158e0e"/></linearGradient><linearGradient x1="255.24264" y1="128.39686" x2="255.24264" y2="135.92831" gradientUnits="userSpaceOnUse" id="color-11"><stop offset="0" stop-color="#20de16"/><stop offset="1" stop-color="#158e0e"/></linearGradient><linearGradient x1="265.78201" y1="148.36355" x2="265.78201" y2="165.03114" gradientUnits="userSpaceOnUse" id="color-12"><stop offset="0" stop-color="#ffefc0"/><stop offset="1" stop-color="#e0ce98"/></linearGradient></defs><g transform="translate(-184.86027,-109.72178)"><g data-paper-data="{&quot;isPaintingLayer&quot;:true}" fill-rule="nonzero" stroke-linejoin="miter" stroke-miterlimit="10" stroke-dasharray="" stroke-dashoffset="0" style="mix-blend-mode: normal"><path d="M265.45979,225.60733c2.42589,2.45204 5.71011,7.48846 7.60456,10.33206c2.72452,4.08953 2.05335,5.55696 -0.78655,8.37526c-2.85255,2.83087 -3.41066,4.00817 -7.48315,1.22305c-2.80111,-1.91565 -6.07506,-8.41306 -8.48539,-10.84937c-7.11766,-7.19438 -13.04371,-11.07212 -10.47841,-13.61793c0,0 4.50151,-3.66817 6.45795,-3.08498c0,0 0.85642,-3.00569 3.47067,-1.385c2.63235,1.63192 2.58265,1.81255 9.70031,9.00693z" data-paper-data="{&quot;origPos&quot;:null,&quot;origRot&quot;:0}" fill="url(#color-1)" stroke="#001371" stroke-width="1.5" stroke-linecap="butt"/><path d="M279.03722,235.90198c5.31155,-0.21072 6.14578,3.70215 5.36246,6.11862c-0.94852,2.92619 -7.04158,8.46703 -11.54901,9.85116c-4.50741,1.38412 -3.94187,-0.38487 -5.16889,-1.55419c-2.72811,-2.59983 -2.92992,-6.5675 1.77766,-10.92449c4.70756,-4.35699 4.26623,-3.28041 9.57778,-3.49112z" data-paper-data="{&quot;origPos&quot;:null,&quot;origRot&quot;:0}" fill="url(#color-2)" stroke="#6c4306" stroke-width="1.5" stroke-linecap="butt"/><path d="M246.19916,178.58441c-0.19085,-3.17947 7.33246,-5.39416 16.80376,-4.94663c9.4713,0.44752 17.30399,3.38778 17.49484,6.56727c0.19083,3.17949 -7.33246,5.39417 -16.80375,4.94664c-9.4713,-0.44752 -17.30402,-3.38779 -17.49483,-6.56728z" data-paper-data="{&quot;origRot&quot;:0,&quot;origPos&quot;:null,&quot;index&quot;:null}" fill="url(#color-3)" stroke="#158e0e" stroke-width="1.5" stroke-linecap="butt"/><path d="M258.19093,195.38672c0,8.94077 2.57396,17.60253 -2.43939,24.43506c-3.21333,4.37934 -9.69716,3.38475 -14.67924,3.38475c-4.98207,0 -11.4659,0.71195 -14.67924,-3.66737c-5.01335,-6.83252 -2.43939,-15.21167 -2.43939,-24.15242c0,-15.36446 7.66426,-28.06109 17.11863,-28.06109c0,0 9.72842,-0.86936 12.88897,5.43473c3.14566,6.27438 4.22966,7.2619 4.22966,22.62635z" data-paper-data="{&quot;origPos&quot;:null}" fill="url(#color-4)" stroke="#001371" stroke-width="1.5" stroke-linecap="butt"/><path d="M276.37914,173.04819c3.54946,-4.12563 10.12884,-4.61412 14.69545,-1.09109c4.56663,3.52305 5.3912,9.72351 1.84175,13.84916c-3.54944,4.12562 -10.12884,4.61412 -14.69545,1.09109c-4.56663,-3.52305 -5.3912,-9.72352 -1.84175,-13.84916z" data-paper-data="{&quot;origPos&quot;:null,&quot;index&quot;:null,&quot;origRot&quot;:0}" fill="#ffffff" stroke="#bfbfbf" stroke-width="1.5" stroke-linecap="butt"/><path d="M249.20572,179.63218c0,2.59484 1.18698,6.8782 -0.31003,8.66531c-1.61709,1.93042 -3.32827,2.81805 -5.5586,2.80419c-2.46992,-0.01537 -4.1733,-0.96723 -6.23486,-2.67685c-2.11879,-1.75709 -1.69451,-5.60241 -1.69451,-8.79263c0,-4.60423 3.0888,-8.33669 6.89902,-8.33669c3.8102,0 6.899,3.73248 6.899,8.33669z" data-paper-data="{&quot;origPos&quot;:null}" fill="url(#color-5)" stroke="none" stroke-width="0" stroke-linecap="butt"/><path d="M235.94361,187.5034c0,2.15578 -1.7773,3.9034 -3.96972,3.9034c-2.19242,0 -3.96972,-1.74762 -3.96972,-3.9034c0,-2.15578 1.7773,-3.90339 3.96972,-3.90339c2.19242,0 3.96972,1.74762 3.96972,3.90339z" data-paper-data="{&quot;origPos&quot;:null}" fill="#faff66" stroke="none" stroke-width="1.5" stroke-linecap="butt"/><path d="M257.23659,186.96802c0,2.10269 -1.73351,3.80725 -3.87193,3.80725c-2.13841,0 -3.87194,-1.70455 -3.87194,-3.80725c0,-2.10269 1.73353,-3.80725 3.87194,-3.80725c2.13841,0 3.87193,1.70455 3.87193,3.80725z" data-paper-data="{&quot;origPos&quot;:null}" fill="#faff66" stroke="none" stroke-width="1.5" stroke-linecap="butt"/><path d="M228.51087,234.7094c-2.18767,2.59949 -6.91809,6.28124 -9.5833,8.39917c-3.833,3.04591 -5.43845,2.52981 -8.73825,0.02516c-3.31452,-2.51582 -4.60531,-2.94904 -2.30427,-7.18698c1.58271,-2.91489 7.81973,-6.7249 9.99336,-9.30773c6.4187,-7.62701 9.58675,-13.77723 12.56752,-11.51473c0,0 4.40724,4.04577 4.07943,6.01027c-0.94517,5.6643 0.40423,5.94784 -6.01448,13.57485z" data-paper-data="{&quot;origPos&quot;:null,&quot;origRot&quot;:0}" fill="url(#color-6)" stroke="#001371" stroke-width="1.5" stroke-linecap="butt"/><path d="M218.03013,247.7451c0.71539,4.77178 -3.1541,6.04523 -5.66669,5.6583c-3.04257,-0.46854 -9.21053,-5.2387 -11.03389,-9.128c-1.82335,-3.88929 0.01526,-3.61317 1.07908,-4.87725c2.36524,-2.81049 6.34987,-3.51974 11.19207,0.15563c4.8422,3.67538 3.71405,3.41952 4.42943,8.19131z" data-paper-data="{&quot;origPos&quot;:null,&quot;origRot&quot;:0}" fill="url(#color-7)" stroke="#6c4306" stroke-width="1.5" stroke-linecap="butt"/><path d="M217.12171,185.4457c-9.70512,1.33822 -17.94671,-0.33084 -18.40808,-3.72795c-0.4614,-3.39711 7.03214,-7.23584 16.73727,-8.5741c9.70512,-1.33822 17.94671,0.33084 18.40808,3.72795c0.4614,3.39711 -7.03214,7.23585 -16.73727,8.5741z" data-paper-data="{&quot;origRot&quot;:0,&quot;origPos&quot;:null}" fill="url(#color-8)" stroke="#158e0e" stroke-width="1.5" stroke-linecap="butt"/><path d="M203.55668,189.7871c-4.02974,4.12314 -10.64985,4.50652 -14.78642,0.85628c-4.13658,-3.65022 -4.22317,-9.9518 -0.19342,-14.07495c4.02974,-4.12314 10.64985,-4.50652 14.78642,-0.85628c4.13658,3.65022 4.22317,9.9518 0.19342,14.07495z" data-paper-data="{&quot;origPos&quot;:null,&quot;origRot&quot;:0}" fill="#ffffff" stroke="#bfbfbf" stroke-width="1.5" stroke-linecap="butt"/><path d="M267.34623,152.11244c0,9.34705 -5.14936,13.20154 -11.92352,18.01186c-4.72012,3.35176 -6.06853,6.28523 -11.57363,6.28523c-6.39728,0 -8.94794,-3.26534 -14.4308,-7.16468c-6.66848,-4.74253 -12.11553,-8.08655 -12.11553,-17.29152c0,-4.75853 0.57271,-16.74774 2.65647,-20.75761c4.80207,-9.24084 14.74065,-2.88901 23.65922,-2.88901c0,0 14.51881,-4.00035 19.42967,4.78953c2.33042,4.17118 4.29814,5.86864 4.29814,19.01618z" data-paper-data="{&quot;origPos&quot;:null}" fill="url(#color-9)" stroke="#e0ce98" stroke-width="1" stroke-linecap="butt"/><path d="M267.4394,124.57925c7.39631,14.92434 -26.79497,11.36269 -29.2141,13.31832c-2.37591,1.92069 -0.74791,7.79221 -3.6175,7.79221c-4.02198,0 -8.45488,0.74915 -9.56057,5.36459c-0.63988,2.67109 2.37615,7.8678 0.12484,8.57344c-2.2178,0.69514 -4.06937,3.04401 -6.35839,3.20455c-1.85643,0.13019 -2.3832,-2.2512 -4.24263,-2.28425c-5.29533,-0.09412 0.72001,-12.5526 0.8452,-13.20595c0.04172,-0.21778 -1.10163,-4.66693 -1.10163,-6.8281c0,-11.7216 9.84594,-17.95476 16.30923,-17.95476c6.46328,0 29.41924,-12.9044 36.81555,2.01993z" data-paper-data="{&quot;origPos&quot;:null}" fill="#c27231" stroke="#985926" stroke-width="1.5" stroke-linecap="butt"/><path d="M266.96832,164.59495c0,0.92059 -1.05436,2.47528 -1.15734,3.39013c-0.21869,1.94291 -1.61583,2.96693 -3.57684,3.05406c-2.16435,0.09618 -5.99132,-2.3893 -5.99132,-2.3893c0,0 -2.87775,1.13057 -4.82459,1.56488c-1.63184,0.36403 -4.15503,0.12546 -5.64053,-0.62119c-1.0443,-0.52491 -2.66543,-2.72838 -3.30943,-3.70098c-2.03878,-3.07903 -7.28717,-7.61108 -2.80634,-8.73214c2.20464,-0.55159 8.73957,5.34539 11.0127,5.34539c0,0 3.80829,-0.01666 5.70018,0.08016c4.2897,0.21951 10.5935,-2.34818 10.5935,2.00898z" data-paper-data="{&quot;origPos&quot;:null}" fill="#160b02" stroke="none" stroke-width="0" stroke-linecap="butt"/><path d="M269.32542,128.73683c0,9.38807 -11.03409,3.60929 -26.30554,3.60929c-3.69718,0 -8.59054,7.74195 -12.28753,7.70776c-5.24124,-0.04846 -11.84335,2.33603 -15.98343,-0.7229c-2.92262,-2.15939 -0.72629,-7.07311 -0.72629,-10.59416c0,-7.95468 8.70145,-8.06962 16.24287,-11.5013c5.48182,-2.49446 5.55662,-6.43544 11.63295,-6.43544c0,0 12.43874,-1.72493 19.6767,0.78338c8.19439,2.83975 7.75028,7.76527 7.75028,17.15335z" data-paper-data="{&quot;origPos&quot;:null}" fill="url(#color-10)" stroke="#158e0e" stroke-width="1" stroke-linecap="butt"/><path d="M279.80766,134.3831c0,3.30611 -10.44299,0.27843 -24.00988,0.27843c-13.56688,0 -25.12017,3.02768 -25.12017,-0.27843c0,-3.30611 10.99813,-5.98623 24.56502,-5.98623c13.56688,0 24.56502,2.68013 24.56502,5.98623z" data-paper-data="{&quot;origPos&quot;:null}" fill="url(#color-11)" stroke="#158e0e" stroke-width="1" stroke-linecap="butt"/><path d="M265.2573,122.05844c0,2.03734 0.31298,3.44299 -1.25453,4.73851c-1.35299,1.11822 -9.04403,0.82513 -10.32229,-0.07326c-1.82086,-1.27977 -1.08988,-2.43504 -1.08988,-4.66526c0,-3.32869 2.83555,-6.02714 6.33336,-6.02714c3.49782,0 6.33335,2.69845 6.33335,6.02714z" data-paper-data="{&quot;origPos&quot;:null}" fill="#ffffff" stroke="#a4a4a4" stroke-width="1" stroke-linecap="butt"/><path d="M257.51597,146.06849c0,3.93105 -2.12367,7.11779 -4.74334,7.11779c-2.61968,0 -4.74334,-3.18674 -4.74334,-7.11779c0,-3.93105 2.12367,-7.1178 4.74334,-7.1178c2.61968,0 4.74334,3.18674 4.74334,7.1178z" data-paper-data="{&quot;origPos&quot;:null}" fill="#ffffff" stroke="none" stroke-width="0" stroke-linecap="butt"/><path d="M249.015,138.24806c0,0 3.57853,-0.55805 4.30266,-0.43804c1.29495,0.21461 3.53513,1.74191 3.53513,1.74191" data-paper-data="{&quot;origPos&quot;:null,&quot;origRot&quot;:0}" fill="none" stroke="#351c06" stroke-width="1.5" stroke-linecap="round"/><path d="M257.54498,145.76267c0,2.60887 -1.40938,4.72376 -3.14794,4.72376c-1.73856,0 -3.14794,-2.11491 -3.14794,-4.72376c0,-2.60887 1.40939,-4.72376 3.14794,-4.72376c1.73856,0 3.14794,2.11491 3.14794,4.72376z" data-paper-data="{&quot;origPos&quot;:null}" fill="#1121d4" stroke="none" stroke-width="0" stroke-linecap="butt"/><path d="M257.61349,145.62548c0,1.34905 -0.72879,2.44266 -1.62781,2.44266c-0.89902,0 -1.62781,-1.09362 -1.62781,-2.44266c0,-1.34905 0.7288,-2.44266 1.62781,-2.44266c0.89902,0 1.62781,1.09362 1.62781,2.44266z" data-paper-data="{&quot;origPos&quot;:null}" fill="#000000" stroke="none" stroke-width="0" stroke-linecap="butt"/><path d="M263.91219,138.33416c2.17221,0 3.93314,2.6424 3.93314,5.90198c0,3.25959 -1.76092,5.90198 -3.93314,5.90198c-2.17221,0 -3.93314,-2.6424 -3.93314,-5.90198c0,-3.25959 1.76092,-5.90198 3.93314,-5.90198z" data-paper-data="{&quot;origPos&quot;:null,&quot;index&quot;:null}" fill="#ffffff" stroke="none" stroke-width="0" stroke-linecap="butt"/><path d="M260.61616,137.77401c0,0 1.85754,-1.26643 2.93129,-1.44438c0.60044,-0.09952 3.56772,0.36322 3.56772,0.36322" data-paper-data="{&quot;origPos&quot;:null,&quot;origRot&quot;:0,&quot;index&quot;:null}" fill="none" stroke="#351c06" stroke-width="1.5" stroke-linecap="round"/><path d="M265.35774,140.18112c1.44159,0 2.61025,1.75366 2.61025,3.91687c0,2.16323 -1.16864,3.91687 -2.61025,3.91687c-1.44159,0 -2.61024,-1.75366 -2.61024,-3.91687c0,-2.16323 1.16864,-3.91687 2.61024,-3.91687z" data-paper-data="{&quot;origPos&quot;:null,&quot;index&quot;:null}" fill="#1121d4" stroke="none" stroke-width="0" stroke-linecap="butt"/><path d="M266.72018,142.07889c0.74546,0 1.34976,0.90682 1.34976,2.02543c0,1.11863 -0.60431,2.02543 -1.34976,2.02543c-0.74546,0 -1.34975,-0.90682 -1.34975,-2.02543c0,-1.11863 0.60431,-2.02543 1.34975,-2.02543z" data-paper-data="{&quot;origPos&quot;:null,&quot;index&quot;:null}" fill="#000000" stroke="none" stroke-width="0" stroke-linecap="butt"/><path d="M277.98864,156.57451c0,4.53478 -5.21052,8.45663 -11.95206,8.45663c-6.74152,0 -12.46119,-3.92185 -12.46119,-8.45663c0,-4.53478 5.46509,-8.21095 12.20662,-8.21095c6.74152,0 12.20662,3.67616 12.20662,8.21095z" data-paper-data="{&quot;origPos&quot;:null}" fill="url(#color-12)" stroke="#e0ce98" stroke-width="1.5" stroke-linecap="butt"/><path d="M230.48492,150.53172c-0.92107,2.77174 -4.85091,3.95434 -8.77756,2.64141c-3.92666,-1.31294 -6.36315,-4.62421 -5.44209,-7.39596c0.92107,-2.77174 4.85091,-3.95434 8.77756,-2.64141c3.92666,1.31294 6.36315,4.62421 5.44209,7.39596z" data-paper-data="{&quot;origRot&quot;:0,&quot;origPos&quot;:null}" fill="#ffefc0" stroke="#e0ce98" stroke-width="1.5" stroke-linecap="butt"/><path d="M261.75718,124.72356l-4.53402,-0.2154l0.06825,-5.51498" data-paper-data="{&quot;origPos&quot;:null}" fill="none" stroke="#158e0e" stroke-width="1" stroke-linecap="round"/></g></g></svg>