<svg version="1.1" xmlns="http://www.w3.org/2000/svg" xmlns:xlink="http://www.w3.org/1999/xlink" width="373.94033" height="196.875" viewBox="0,0,373.94033,196.875"><defs><linearGradient x1="348.88662" y1="285.11198" x2="348.88662" y2="319.88912" gradientUnits="userSpaceOnUse" id="color-1"><stop offset="0" stop-color="#00a515"/><stop offset="1" stop-color="#00bf06"/></linearGradient><linearGradient x1="380.1224" y1="281.29125" x2="380.1224" y2="319.46459" gradientUnits="userSpaceOnUse" id="color-2"><stop offset="0" stop-color="#00a515"/><stop offset="1" stop-color="#00bf06"/></linearGradient><linearGradient x1="166.88662" y1="282.11198" x2="166.88662" y2="316.88912" gradientUnits="userSpaceOnUse" id="color-3"><stop offset="0" stop-color="#00a515"/><stop offset="1" stop-color="#00bf06"/></linearGradient><linearGradient x1="198.1224" y1="278.29125" x2="198.1224" y2="316.46459" gradientUnits="userSpaceOnUse" id="color-4"><stop offset="0" stop-color="#00a515"/><stop offset="1" stop-color="#00bf06"/></linearGradient><linearGradient x1="47.52083" y1="138.82785" x2="47.52083" y2="158.63977" gradientUnits="userSpaceOnUse" id="color-5"><stop offset="0" stop-color="#00a515"/><stop offset="1" stop-color="#00bf06"/></linearGradient><linearGradient x1="65.3153" y1="136.65125" x2="65.3153" y2="158.39792" gradientUnits="userSpaceOnUse" id="color-6"><stop offset="0" stop-color="#00a515"/><stop offset="1" stop-color="#00bf06"/></linearGradient></defs><g transform="translate(-33.87179,-131.90625)"><g data-paper-data="{&quot;isPaintingLayer&quot;:true}" fill-rule="nonzero" stroke-linejoin="miter" stroke-miterlimit="10" stroke-dasharray="" stroke-dashoffset="0" style="mix-blend-mode: normal"><path d="M331.49805,302.50055c0,-9.60344 7.78512,-17.38857 17.38857,-17.38857c9.60344,0 17.38855,7.78512 17.38855,17.38857c0,9.60344 -7.78512,17.38857 -17.38855,17.38857c-9.60344,0 -17.38857,-7.78512 -17.38857,-17.38857z" fill="url(#color-1)" stroke="#008a05" stroke-width="5" stroke-linecap="butt"/><path d="M359.41485,295.04831l9.3153,-6.83122" fill="none" stroke="#008a05" stroke-width="5" stroke-linecap="round"/><path d="M347.61546,279.52281l2.48409,14.28346" fill="none" stroke="#008a05" stroke-width="5" stroke-linecap="round"/><path d="M347.61546,304.98463l1.86306,-6.21021" fill="none" stroke="#008a05" stroke-width="5" stroke-linecap="round"/><path d="M340.78424,296.29034l-10.55734,-13.04142" fill="none" stroke="#008a05" stroke-width="5" stroke-linecap="round"/><path d="M327.12179,308.71076l11.79939,-1.86306" fill="none" stroke="#008a05" stroke-width="5" stroke-linecap="round"/><path d="M348.23648,326.09931l-1.86306,-12.42041" fill="none" stroke="#008a05" stroke-width="5" stroke-linecap="round"/><path d="M350.09954,308.71076l13.66245,5.58918" fill="none" stroke="#008a05" stroke-width="5" stroke-linecap="round"/><path d="M371.83526,298.77443l-14.28347,3.72612" fill="none" stroke="#008a05" stroke-width="5" stroke-linecap="round"/><path d="M361.03573,300.37791c0,-10.54128 8.54539,-19.08666 19.08668,-19.08666c10.54128,0 19.08666,8.54538 19.08666,19.08666c0,10.54128 -8.54538,19.08668 -19.08666,19.08668c-10.54128,0 -19.08668,-8.54539 -19.08668,-19.08668z" fill="url(#color-2)" stroke="#008a05" stroke-width="5" stroke-linecap="butt"/><path d="M391.67878,292.19791l10.225,-7.49832" fill="none" stroke="#008a05" stroke-width="5" stroke-linecap="round"/><path d="M378.72712,275.15625l2.72666,15.67834" fill="none" stroke="#008a05" stroke-width="5" stroke-linecap="round"/><path d="M380.77212,296.28791l-2.045,6.81668" fill="none" stroke="#008a05" stroke-width="5" stroke-linecap="round"/><path d="M359.64046,279.24625l11.58832,14.315" fill="none" stroke="#008a05" stroke-width="5" stroke-linecap="round"/><path d="M356.23212,307.19459l12.95166,-2.045" fill="none" stroke="#008a05" stroke-width="5" stroke-linecap="round"/><path d="M379.40878,326.28125l-2.045,-13.63334" fill="none" stroke="#008a05" stroke-width="5" stroke-linecap="round"/><path d="M396.45045,313.32959l-14.99668,-6.135" fill="none" stroke="#008a05" stroke-width="5" stroke-linecap="round"/><path d="M389.63378,300.37791l15.67834,-4.09" fill="none" stroke="#008a05" stroke-width="5" stroke-linecap="round"/><path d="M149.49805,299.50055c0,-9.60344 7.78512,-17.38857 17.38857,-17.38857c9.60344,0 17.38855,7.78512 17.38855,17.38857c0,9.60344 -7.78512,17.38857 -17.38855,17.38857c-9.60344,0 -17.38857,-7.78512 -17.38857,-17.38857z" fill="url(#color-3)" stroke="#008a05" stroke-width="5" stroke-linecap="butt"/><path d="M186.73015,285.21709l-9.3153,6.83122" fill="none" stroke="#008a05" stroke-width="5" stroke-linecap="round"/><path d="M165.61546,276.52281l2.48409,14.28346" fill="none" stroke="#008a05" stroke-width="5" stroke-linecap="round"/><path d="M165.61546,301.98463l1.86306,-6.21021" fill="none" stroke="#008a05" stroke-width="5" stroke-linecap="round"/><path d="M148.2269,280.24892l10.55734,13.04142" fill="none" stroke="#008a05" stroke-width="5" stroke-linecap="round"/><path d="M156.92118,303.8477l-11.79939,1.86306" fill="none" stroke="#008a05" stroke-width="5" stroke-linecap="round"/><path d="M166.23648,323.09931l-1.86306,-12.42041" fill="none" stroke="#008a05" stroke-width="5" stroke-linecap="round"/><path d="M168.09954,305.71076l13.66245,5.58918" fill="none" stroke="#008a05" stroke-width="5" stroke-linecap="round"/><path d="M175.55179,299.50055l14.28347,-3.72612" fill="none" stroke="#008a05" stroke-width="5" stroke-linecap="round"/><path d="M179.03573,297.37791c0,-10.54128 8.54539,-19.08666 19.08668,-19.08666c10.54128,0 19.08666,8.54538 19.08666,19.08666c0,10.54128 -8.54538,19.08668 -19.08666,19.08668c-10.54128,0 -19.08668,-8.54539 -19.08668,-19.08668z" fill="url(#color-4)" stroke="#008a05" stroke-width="5" stroke-linecap="butt"/><path d="M209.67878,289.19791l10.225,-7.49832" fill="none" stroke="#008a05" stroke-width="5" stroke-linecap="round"/><path d="M196.72712,272.15625l2.72666,15.67834" fill="none" stroke="#008a05" stroke-width="5" stroke-linecap="round"/><path d="M198.77212,293.28791l-2.045,6.81668" fill="none" stroke="#008a05" stroke-width="5" stroke-linecap="round"/><path d="M177.64046,276.24625l11.58832,14.315" fill="none" stroke="#008a05" stroke-width="5" stroke-linecap="round"/><path d="M174.23212,304.19459l12.95166,-2.045" fill="none" stroke="#008a05" stroke-width="5" stroke-linecap="round"/><path d="M195.36378,309.64791l2.045,13.63334" fill="none" stroke="#008a05" stroke-width="5" stroke-linecap="round"/><path d="M199.45377,304.19459l14.99668,6.135" fill="none" stroke="#008a05" stroke-width="5" stroke-linecap="round"/><path d="M207.63378,297.37791l15.67834,-4.09" fill="none" stroke="#008a05" stroke-width="5" stroke-linecap="round"/><path d="M37.61487,148.73381c0,-5.47091 4.43504,-9.90596 9.90596,-9.90596c5.47091,0 9.90595,4.43504 9.90595,9.90596c0,5.47091 -4.43504,9.90596 -9.90595,9.90596c-5.47091,0 -9.90596,-4.43504 -9.90596,-9.90596z" fill="url(#color-5)" stroke="#008a05" stroke-width="2.5" stroke-linecap="butt"/><path d="M58.82534,140.59678l-5.30676,3.89162" fill="none" stroke="#008a05" stroke-width="2.5" stroke-linecap="round"/><path d="M46.79667,135.6438l1.41514,8.13703" fill="none" stroke="#008a05" stroke-width="2.5" stroke-linecap="round"/><path d="M46.79667,150.14895l1.06135,-3.53785" fill="none" stroke="#008a05" stroke-width="2.5" stroke-linecap="round"/><path d="M36.89072,137.7665l6.01433,7.42946" fill="none" stroke="#008a05" stroke-width="2.5" stroke-linecap="round"/><path d="M41.8437,151.2103l-6.7219,1.06135" fill="none" stroke="#008a05" stroke-width="2.5" stroke-linecap="round"/><path d="M47.15046,162.1776l-1.06135,-7.07569" fill="none" stroke="#008a05" stroke-width="2.5" stroke-linecap="round"/><path d="M48.21181,152.27166l7.78325,3.18406" fill="none" stroke="#008a05" stroke-width="2.5" stroke-linecap="round"/><path d="M52.45722,148.73381l8.13704,-2.1227" fill="none" stroke="#008a05" stroke-width="2.5" stroke-linecap="round"/><path d="M54.44196,147.52458c0,-6.00518 4.86816,-10.87333 10.87334,-10.87333c6.00518,0 10.87333,4.86815 10.87333,10.87333c0,6.00518 -4.86815,10.87334 -10.87333,10.87334c-6.00518,0 -10.87334,-4.86816 -10.87334,-10.87334z" fill="url(#color-6)" stroke="#008a05" stroke-width="2.5" stroke-linecap="butt"/><path d="M71.89876,142.86458l5.825,-4.27166" fill="none" stroke="#008a05" stroke-width="2.5" stroke-linecap="round"/><path d="M64.52043,133.15625l1.55333,8.93167" fill="none" stroke="#008a05" stroke-width="2.5" stroke-linecap="round"/><path d="M65.68543,145.19458l-1.165,3.88334" fill="none" stroke="#008a05" stroke-width="2.5" stroke-linecap="round"/><path d="M53.6471,135.48625l6.60166,8.155" fill="none" stroke="#008a05" stroke-width="2.5" stroke-linecap="round"/><path d="M51.70543,151.40792l7.37833,-1.165" fill="none" stroke="#008a05" stroke-width="2.5" stroke-linecap="round"/><path d="M63.74376,154.51458l1.165,7.76667" fill="none" stroke="#008a05" stroke-width="2.5" stroke-linecap="round"/><path d="M66.07375,151.40792l8.54334,3.495" fill="none" stroke="#008a05" stroke-width="2.5" stroke-linecap="round"/><path d="M70.73376,147.52458l8.93167,-2.33" fill="none" stroke="#008a05" stroke-width="2.5" stroke-linecap="round"/></g></g></svg>