<svg version="1.1" xmlns="http://www.w3.org/2000/svg" xmlns:xlink="http://www.w3.org/1999/xlink" width="386.5007" height="247.3335" viewBox="0,0,386.5007,247.3335"><defs><linearGradient x1="313.2237" y1="159.60678" x2="313.2237" y2="182.13965" gradientUnits="userSpaceOnUse" id="color-1"><stop offset="0" stop-color="#00a515"/><stop offset="1" stop-color="#00bf06"/></linearGradient><linearGradient x1="333.46204" y1="157.13125" x2="333.46204" y2="181.86459" gradientUnits="userSpaceOnUse" id="color-2"><stop offset="0" stop-color="#00a515"/><stop offset="1" stop-color="#00bf06"/></linearGradient><linearGradient x1="70.07493" y1="115.15625" x2="70.07493" y2="338.15625" gradientUnits="userSpaceOnUse" id="color-3"><stop offset="0" stop-color="#f9dea4"/><stop offset="1" stop-color="#ffce71"/></linearGradient><linearGradient x1="68.6218" y1="80.34699" x2="68.6218" y2="157.98654" gradientUnits="userSpaceOnUse" id="color-4"><stop offset="0" stop-color="#00a515"/><stop offset="1" stop-color="#00bf06"/></linearGradient><linearGradient x1="228.88662" y1="254.11198" x2="228.88662" y2="288.88912" gradientUnits="userSpaceOnUse" id="color-5"><stop offset="0" stop-color="#00a515"/><stop offset="1" stop-color="#00bf06"/></linearGradient><linearGradient x1="260.1224" y1="250.29125" x2="260.1224" y2="288.46459" gradientUnits="userSpaceOnUse" id="color-6"><stop offset="0" stop-color="#00a515"/><stop offset="1" stop-color="#00bf06"/></linearGradient></defs><g transform="translate(35.46769,-92.82275)"><g data-paper-data="{&quot;isPaintingLayer&quot;:true}" fill-rule="nonzero" stroke-linejoin="miter" stroke-miterlimit="10" stroke-dasharray="" stroke-dashoffset="0" style="mix-blend-mode: normal"><path d="M301.95727,170.87322c0,-6.22228 5.04415,-11.26643 11.26643,-11.26643c6.22228,0 11.26642,5.04415 11.26642,11.26643c0,6.22228 -5.04415,11.26643 -11.26642,11.26643c-6.22228,0 -11.26643,-5.04415 -11.26643,-11.26643z" fill="url(#color-1)" stroke="#008a05" stroke-width="2.5" stroke-linecap="butt"/><path d="M320.04517,166.04475l6.03559,-4.4261" fill="none" stroke="#008a05" stroke-width="2.5" stroke-linecap="round"/><path d="M312.40009,155.98544l1.6095,9.25456" fill="none" stroke="#008a05" stroke-width="2.5" stroke-linecap="round"/><path d="M312.40009,172.48271l1.20712,-4.02373" fill="none" stroke="#008a05" stroke-width="2.5" stroke-linecap="round"/><path d="M307.97399,166.84949l-6.84033,-8.44982" fill="none" stroke="#008a05" stroke-width="2.5" stroke-linecap="round"/><path d="M299.12179,174.89695l7.64508,-1.20712" fill="none" stroke="#008a05" stroke-width="2.5" stroke-linecap="round"/><path d="M312.80246,186.16337l-1.20712,-8.04745" fill="none" stroke="#008a05" stroke-width="2.5" stroke-linecap="round"/><path d="M314.00958,174.89695l8.8522,3.62135" fill="none" stroke="#008a05" stroke-width="2.5" stroke-linecap="round"/><path d="M328.09262,168.45898l-9.25457,2.41423" fill="none" stroke="#008a05" stroke-width="2.5" stroke-linecap="round"/><path d="M321.09537,169.49791c0,-6.82992 5.53674,-12.36666 12.36668,-12.36666c6.82992,0 12.36666,5.53674 12.36666,12.36666c0,6.82992 -5.53674,12.36668 -12.36666,12.36668c-6.82992,0 -12.36668,-5.53674 -12.36668,-12.36668z" fill="url(#color-2)" stroke="#008a05" stroke-width="2.5" stroke-linecap="butt"/><path d="M340.94967,164.19791l6.625,-4.85832" fill="none" stroke="#008a05" stroke-width="2.5" stroke-linecap="round"/><path d="M332.55801,153.15625l1.76666,10.15834" fill="none" stroke="#008a05" stroke-width="2.5" stroke-linecap="round"/><path d="M333.88301,166.84791l-1.325,4.41668" fill="none" stroke="#008a05" stroke-width="2.5" stroke-linecap="round"/><path d="M320.19135,155.80625l7.50832,9.275" fill="none" stroke="#008a05" stroke-width="2.5" stroke-linecap="round"/><path d="M317.98301,173.91459l8.39166,-1.325" fill="none" stroke="#008a05" stroke-width="2.5" stroke-linecap="round"/><path d="M332.99967,186.28125l-1.325,-8.83334" fill="none" stroke="#008a05" stroke-width="2.5" stroke-linecap="round"/><path d="M344.04134,177.88959l-9.71668,-3.975" fill="none" stroke="#008a05" stroke-width="2.5" stroke-linecap="round"/><path d="M339.62467,169.49791l10.15834,-2.65" fill="none" stroke="#008a05" stroke-width="2.5" stroke-linecap="round"/><path d="M58.57493,338.15625v-223h23v223z" fill="url(#color-3)" stroke="#c38600" stroke-width="4" stroke-linecap="butt"/><path d="M165.6218,119.16677l-32.00489,-4.78053c0,0 25.36485,12.27634 25.94705,15.14929c1.65533,8.16847 -22.29355,13.52127 -41.22636,13.44027c-26.12816,-0.11177 -49.71579,-25.65759 -49.71579,-25.65759c0,0 -11.35577,21.62334 -46.36338,22.17788c-8.69718,0.13777 -43.99052,-4.92153 -43.99052,-4.92153c0,0 5.80907,-8.78275 14.46528,-12.48224c6.69281,-2.86037 22.60001,-8.34864 22.60001,-8.34864c0,0 -13.08675,-3.04736 -19.87847,-2.18502c-7.39416,0.93884 -22.83294,7.6081 -22.83294,7.6081c0,0 18.24937,-23.13279 48.02164,-23.88729c30.1489,-0.76405 47.97837,20.80635 47.97837,20.80635c0,0 22.90942,-22.31243 51.18088,-20.76307c26.95949,1.47746 45.81912,23.84401 45.81912,23.84401z" fill="url(#color-4)" stroke="#008a05" stroke-width="5" stroke-linecap="butt"/><path d="M211.49805,271.50055c0,-9.60344 7.78512,-17.38857 17.38857,-17.38857c9.60344,0 17.38855,7.78512 17.38855,17.38857c0,9.60344 -7.78512,17.38857 -17.38855,17.38857c-9.60344,0 -17.38857,-7.78512 -17.38857,-17.38857z" fill="url(#color-5)" stroke="#008a05" stroke-width="5" stroke-linecap="butt"/><path d="M248.73015,257.21709l-9.3153,6.83122" fill="none" stroke="#008a05" stroke-width="5" stroke-linecap="round"/><path d="M227.61546,248.52281l2.48409,14.28346" fill="none" stroke="#008a05" stroke-width="5" stroke-linecap="round"/><path d="M227.61546,273.98463l1.86306,-6.21021" fill="none" stroke="#008a05" stroke-width="5" stroke-linecap="round"/><path d="M210.2269,252.24892l10.55734,13.04142" fill="none" stroke="#008a05" stroke-width="5" stroke-linecap="round"/><path d="M218.92118,275.8477l-11.79939,1.86306" fill="none" stroke="#008a05" stroke-width="5" stroke-linecap="round"/><path d="M228.23648,295.09931l-1.86306,-12.42041" fill="none" stroke="#008a05" stroke-width="5" stroke-linecap="round"/><path d="M230.09954,277.71076l13.66245,5.58918" fill="none" stroke="#008a05" stroke-width="5" stroke-linecap="round"/><path d="M237.55179,271.50055l14.28347,-3.72612" fill="none" stroke="#008a05" stroke-width="5" stroke-linecap="round"/><path d="M241.03573,269.37791c0,-10.54128 8.54539,-19.08666 19.08668,-19.08666c10.54128,0 19.08666,8.54538 19.08666,19.08666c0,10.54128 -8.54538,19.08668 -19.08666,19.08668c-10.54128,0 -19.08668,-8.54539 -19.08668,-19.08668z" fill="url(#color-6)" stroke="#008a05" stroke-width="5" stroke-linecap="butt"/><path d="M271.67878,261.19791l10.225,-7.49832" fill="none" stroke="#008a05" stroke-width="5" stroke-linecap="round"/><path d="M258.72712,244.15625l2.72666,15.67834" fill="none" stroke="#008a05" stroke-width="5" stroke-linecap="round"/><path d="M260.77212,265.28791l-2.045,6.81668" fill="none" stroke="#008a05" stroke-width="5" stroke-linecap="round"/><path d="M239.64046,248.24625l11.58832,14.315" fill="none" stroke="#008a05" stroke-width="5" stroke-linecap="round"/><path d="M236.23212,276.19459l12.95166,-2.045" fill="none" stroke="#008a05" stroke-width="5" stroke-linecap="round"/><path d="M257.36378,281.64791l2.045,13.63334" fill="none" stroke="#008a05" stroke-width="5" stroke-linecap="round"/><path d="M261.45377,276.19459l14.99668,6.135" fill="none" stroke="#008a05" stroke-width="5" stroke-linecap="round"/><path d="M269.63378,269.37791l15.67834,-4.09" fill="none" stroke="#008a05" stroke-width="5" stroke-linecap="round"/></g></g></svg>