<svg version="1.1" xmlns="http://www.w3.org/2000/svg" xmlns:xlink="http://www.w3.org/1999/xlink" width="489.48949" height="373.87387" viewBox="0,0,489.48949,373.87387"><defs><linearGradient x1="239.26843" y1="99.10458" x2="239.26843" y2="241.22003" gradientUnits="userSpaceOnUse" id="color-1"><stop offset="0" stop-color="#ffca47"/><stop offset="1" stop-color="#ffecc3"/></linearGradient><linearGradient x1="260.14824" y1="172.17788" x2="260.14824" y2="229.56211" gradientUnits="userSpaceOnUse" id="color-2"><stop offset="0" stop-color="#c38600"/><stop offset="1" stop-color="#ffae00"/></linearGradient><linearGradient x1="202.97617" y1="155.54735" x2="202.97617" y2="212.93157" gradientUnits="userSpaceOnUse" id="color-3"><stop offset="0" stop-color="#c38600"/><stop offset="1" stop-color="#c38600" stop-opacity="0"/></linearGradient><linearGradient x1="202.97617" y1="155.54735" x2="202.97617" y2="212.93157" gradientUnits="userSpaceOnUse" id="color-4"><stop offset="0" stop-color="#c38600"/><stop offset="1" stop-color="#c38600" stop-opacity="0"/></linearGradient><linearGradient x1="205.689" y1="156.23657" x2="205.689" y2="205.75023" gradientUnits="userSpaceOnUse" id="color-5"><stop offset="0" stop-color="#c38600"/><stop offset="1" stop-color="#c38600" stop-opacity="0"/></linearGradient><linearGradient x1="215.77819" y1="177.59172" x2="215.77819" y2="179.10356" gradientUnits="userSpaceOnUse" id="color-6"><stop offset="0" stop-color="#c38600"/><stop offset="1" stop-color="#c38600" stop-opacity="0"/></linearGradient><linearGradient x1="189.08381" y1="186.8519" x2="189.08381" y2="189.87564" gradientUnits="userSpaceOnUse" id="color-7"><stop offset="0" stop-color="#c38600"/><stop offset="1" stop-color="#c38600" stop-opacity="0"/></linearGradient><linearGradient x1="239.14881" y1="224.15247" x2="239.14881" y2="258.54742" gradientUnits="userSpaceOnUse" id="color-8"><stop offset="0" stop-color="#ffaf26"/><stop offset="1" stop-color="#ffe1a0"/></linearGradient><linearGradient x1="184.65014" y1="179.67054" x2="184.65014" y2="223.89262" gradientUnits="userSpaceOnUse" id="color-9"><stop offset="0" stop-color="#f9dea4"/><stop offset="1" stop-color="#ffce71"/></linearGradient><linearGradient x1="184.03922" y1="166.51377" x2="184.03922" y2="195.85893" gradientUnits="userSpaceOnUse" id="color-10"><stop offset="0" stop-color="#00a515"/><stop offset="1" stop-color="#00bf06"/></linearGradient><linearGradient x1="276.29358" y1="160.39421" x2="276.29358" y2="223.89262" gradientUnits="userSpaceOnUse" id="color-11"><stop offset="0" stop-color="#f9dea4"/><stop offset="1" stop-color="#ffce71"/></linearGradient><linearGradient x1="275.68272" y1="147.23747" x2="275.68272" y2="176.58266" gradientUnits="userSpaceOnUse" id="color-12"><stop offset="0" stop-color="#00a515"/><stop offset="1" stop-color="#00bf06"/></linearGradient><linearGradient x1="113.86871" y1="48.94037" x2="113.86871" y2="71.78175" gradientUnits="userSpaceOnUse" id="color-13"><stop offset="0" stop-color="#ffffff"/><stop offset="1" stop-color="#e7e7e7"/></linearGradient><linearGradient x1="130.99974" y1="50.13237" x2="130.99974" y2="72.44665" gradientUnits="userSpaceOnUse" id="color-14"><stop offset="0" stop-color="#ffffff"/><stop offset="1" stop-color="#e7e7e7"/></linearGradient><linearGradient x1="153.16453" y1="49.11608" x2="153.16453" y2="72.48456" gradientUnits="userSpaceOnUse" id="color-15"><stop offset="0" stop-color="#ffffff"/><stop offset="1" stop-color="#e7e7e7"/></linearGradient><linearGradient x1="170.79645" y1="51.04881" x2="170.79645" y2="73.8902" gradientUnits="userSpaceOnUse" id="color-16"><stop offset="0" stop-color="#ffffff"/><stop offset="1" stop-color="#e7e7e7"/></linearGradient><linearGradient x1="188.45463" y1="51.7137" x2="188.45463" y2="74.02797" gradientUnits="userSpaceOnUse" id="color-17"><stop offset="0" stop-color="#ffffff"/><stop offset="1" stop-color="#e7e7e7"/></linearGradient><linearGradient x1="246.91008" y1="50.32914" x2="246.91008" y2="76.42101" gradientUnits="userSpaceOnUse" id="color-18"><stop offset="0" stop-color="#ffffff"/><stop offset="1" stop-color="#e7e7e7"/></linearGradient><linearGradient x1="205.58565" y1="51.57591" x2="205.58565" y2="74.41731" gradientUnits="userSpaceOnUse" id="color-19"><stop offset="0" stop-color="#ffffff"/><stop offset="1" stop-color="#e7e7e7"/></linearGradient><linearGradient x1="223.65389" y1="53.29502" x2="223.65389" y2="59.79603" gradientUnits="userSpaceOnUse" id="color-20"><stop offset="0" stop-color="#ffffff"/><stop offset="1" stop-color="#e7e7e7"/></linearGradient><linearGradient x1="294.29012" y1="63.79755" x2="275.57302" y2="65.1133" gradientUnits="userSpaceOnUse" id="color-21"><stop offset="0" stop-color="#ffffff"/><stop offset="1" stop-color="#e7e7e7"/></linearGradient><linearGradient x1="294.93518" y1="63.8729" x2="323.82106" y2="63.8729" gradientUnits="userSpaceOnUse" id="color-22"><stop offset="0" stop-color="#ffffff"/><stop offset="1" stop-color="#e7e7e7"/></linearGradient><linearGradient x1="303.22014" y1="64.24136" x2="317.27135" y2="64.24136" gradientUnits="userSpaceOnUse" id="color-23"><stop offset="0" stop-color="#ffffff"/><stop offset="1" stop-color="#e7e7e7"/></linearGradient><linearGradient x1="338.71095" y1="52.88759" x2="338.71095" y2="75.20186" gradientUnits="userSpaceOnUse" id="color-24"><stop offset="0" stop-color="#ffffff"/><stop offset="1" stop-color="#e7e7e7"/></linearGradient><linearGradient x1="351.00771" y1="65.93977" x2="372.69907" y2="65.93977" gradientUnits="userSpaceOnUse" id="color-25"><stop offset="0" stop-color="#ffffff"/><stop offset="1" stop-color="#e7e7e7"/></linearGradient></defs><g transform="translate(4.74474,6.93694)"><g data-paper-data="{&quot;isPaintingLayer&quot;:true}" fill-rule="nonzero" stroke-linejoin="miter" stroke-miterlimit="10" stroke-dasharray="" stroke-dashoffset="0" style="mix-blend-mode: normal"><path d="M-4.74474,366.93694v-373.87387h489.48949v373.87387z" fill="#000000" stroke="none" stroke-width="0" stroke-linecap="butt"/><path d="M135.3448,262.74026v-165.48048h209.31045v165.48048z" fill="none" stroke="#ffffff" stroke-width="7.5" stroke-linecap="butt"/><path d="M136.06436,241.22003v-142.11546h206.40806v142.11546z" fill="url(#color-1)" stroke="none" stroke-width="0" stroke-linecap="butt"/><path d="M204.02712,229.56211l58.32196,-57.38423l53.92031,57.38423z" fill="url(#color-2)" stroke="#c38600" stroke-width="4" stroke-linecap="butt"/><path d="M146.85503,212.93157l58.32196,-57.38423l53.92031,57.38423z" fill="url(#color-3)" stroke="url(#color-4)" stroke-width="4" stroke-linecap="butt"/><path d="M205.47886,156.23659l0.42037,49.51363" fill="none" stroke="url(#color-5)" stroke-width="4" stroke-linecap="round"/><path d="M206.73995,178.91459l18.07647,-1.1339" fill="none" stroke="url(#color-6)" stroke-width="4" stroke-linecap="round"/><path d="M204.63805,189.87564l-31.10834,-3.02373" fill="none" stroke="url(#color-7)" stroke-width="4" stroke-linecap="round"/><path d="M135.73459,258.54742v-34.39496h206.82844v34.39496z" fill="url(#color-8)" stroke="#c38600" stroke-width="4" stroke-linecap="butt"/><path d="M180.06529,240.51698h-30.68796" fill="none" stroke="#c38600" stroke-width="4" stroke-linecap="round"/><path d="M216.21837,242.78479h-21.85993" fill="none" stroke="#c38600" stroke-width="4" stroke-linecap="round"/><path d="M190.99525,230.3119h31.10834" fill="none" stroke="#c38600" stroke-width="4" stroke-linecap="round"/><path d="M221.26287,240.13902h28.16565" fill="none" stroke="#c38600" stroke-width="4" stroke-linecap="round"/><path d="M255.73427,245.05261l36.15293,0.37797" fill="none" stroke="#c38600" stroke-width="4" stroke-linecap="round"/><path d="M283.05913,230.68987h-29.42681" fill="none" stroke="#c38600" stroke-width="4" stroke-linecap="round"/><path d="M179.8157,223.89262v-44.2221h9.66881v44.2221z" fill="url(#color-9)" stroke="#c38600" stroke-width="4" stroke-linecap="butt"/><path d="M224.81642,181.18638l-13.45431,-1.80689c0,0 10.66295,4.64005 10.9077,5.72592c0.69587,3.08741 -9.37183,5.11059 -17.33086,5.07997c-10.98383,-0.04225 -20.89967,-9.69771 -20.89967,-9.69771c0,0 -4.77377,8.1729 -19.49038,8.3825c-3.65615,0.05208 -18.49286,-1.86017 -18.49286,-1.86017c0,0 2.44204,-3.31959 6.08095,-4.71787c2.81355,-1.08112 9.50066,-3.1555 9.50066,-3.1555c0,0 -5.50145,-1.1518 -8.35657,-0.82586c-3.10838,0.35485 -9.59858,2.8756 -9.59858,2.8756c0,0 7.67173,-8.74343 20.18748,-9.0286c12.6741,-0.28879 20.16929,7.86411 20.16929,7.86411c0,0 9.63072,-8.43335 21.51558,-7.84775c11.33331,0.55843 19.26159,9.01224 19.26159,9.01224z" fill="url(#color-10)" stroke="#008a05" stroke-width="5" stroke-linecap="butt"/><path d="M322.15475,236.73733h-23.54145" fill="none" stroke="#c38600" stroke-width="4" stroke-linecap="round"/><path d="M311.64522,248.45429h24.8026" fill="none" stroke="#c38600" stroke-width="4" stroke-linecap="round"/><path d="M262.65085,172.86713l0.42037,49.51363" fill="none" stroke="#c38600" stroke-width="4" stroke-linecap="round"/><path d="M263.91204,195.54512l18.07647,-1.1339" fill="none" stroke="#c38600" stroke-width="4" stroke-linecap="round"/><path d="M230.70181,203.48242l31.10834,3.02373" fill="none" stroke="#c38600" stroke-width="4" stroke-linecap="round"/><path d="M263.54033,214.56157h21.01914" fill="none" stroke="#c38600" stroke-width="4" stroke-linecap="round"/><path d="M296.33018,215.31749l5.46498,-0.37797" fill="none" stroke="#c38600" stroke-width="4" stroke-linecap="round"/><path d="M271.45919,223.89262v-63.4984h9.66881v63.4984z" fill="url(#color-11)" stroke="#c38600" stroke-width="4" stroke-linecap="butt"/><path d="M316.45984,161.91006l-13.45431,-1.80689c0,0 10.66295,4.64005 10.9077,5.72592c0.69587,3.08741 -9.37183,5.11059 -17.33086,5.07997c-10.98383,-0.04225 -20.89967,-9.69771 -20.89967,-9.69771c0,0 -4.77377,8.1729 -19.49038,8.3825c-3.65615,0.05208 -18.49286,-1.86017 -18.49286,-1.86017c0,0 2.44204,-3.31959 6.08095,-4.71787c2.81355,-1.08112 9.50066,-3.1555 9.50066,-3.1555c0,0 -5.50145,-1.1518 -8.35657,-0.82586c-3.10838,0.35485 -9.59858,2.8756 -9.59858,2.8756c0,0 7.67173,-8.74343 20.18748,-9.0286c12.6741,-0.28879 20.16929,7.86411 20.16929,7.86411c0,0 9.63072,-8.43335 21.51558,-7.84775c11.33331,0.55843 19.26159,9.01224 19.26159,9.01224z" fill="url(#color-12)" stroke="#008a05" stroke-width="5" stroke-linecap="butt"/><path d="M109.73968,71.95746l1.22992,-23.01708l6.32531,1.40562l-3.33836,21.43576z" fill="url(#color-13)" stroke="#303030" stroke-width="2" stroke-linecap="butt"/><path d="M120.63324,71.56814l1.58133,-21.43576l4.56827,-0.70281l7.40563,12.69476l1.36024,-12.00095l4.41185,2.64455l-1.75702,20.03013l-4.26005,-0.8344l-6.65511,-11.55569l-1.72711,12.55973z" fill="url(#color-14)" stroke="#303030" stroke-width="2" stroke-linecap="butt"/><path d="M146.39995,72.48456l-0.35141,-22.48997l16.34038,1.40562l-0.17571,5.09538l-10.36648,-2.10844l-1.05874,4.31455l6.70191,-0.17695l1.20923,3.59332l-8.25259,1.88l0.34385,8.45602z" fill="url(#color-15)" stroke="#303030" stroke-width="2" stroke-linecap="butt"/><path d="M166.66742,74.06589l1.22992,-23.01708l6.32531,1.40562l-3.33836,21.43576z" fill="url(#color-16)" stroke="#303030" stroke-width="2" stroke-linecap="butt"/><path d="M178.08809,73.14947l1.58133,-21.43576l4.56827,-0.70281l7.40563,12.69476l1.36024,-12.00095l4.41185,2.64455l-1.75702,20.03013l-4.26005,-0.8344l-6.65511,-11.55569l-1.72711,12.55973z" fill="url(#color-17)" stroke="#303030" stroke-width="2" stroke-linecap="butt"/><path d="M244.14276,76.42101l0.31792,-12.36847l-8.48811,-8.45233l4.45264,-3.33859l6.08793,6.5616l6.32692,-6.64922l5.27109,2.89909l-8.85543,9.01356l0.68524,12.5979z" fill="url(#color-18)" stroke="#303030" stroke-width="2" stroke-linecap="butt"/><path d="M201.45661,74.593l1.22992,-23.01708l6.32531,1.40562l-3.33836,21.43576z" fill="url(#color-19)" stroke="#303030" stroke-width="2" stroke-linecap="butt"/><path d="M214.25378,59.79603l-1.58133,-6.32531l20.73844,-0.66987v6.501l-6.82147,0.59511l2.59911,16.59083l-7.90663,0.17571l-0.87852,-16.86748z" fill="url(#color-20)" stroke="#303030" stroke-width="2" stroke-linecap="butt"/><path d="M275.88131,52.66029l18.04557,0.62775l0.77839,5.42347l-10.34212,9.6077l10.12258,0.91958l-2.03582,5.43372l-16.87382,-0.92082l0.52377,-5.1454l9.4177,-8.6427l-10.60645,-1.32553z" fill="url(#color-21)" stroke="#303030" stroke-width="2" stroke-linecap="butt"/><path d="M302.99635,72.94172l-5.00932,-4.21643l5.51315,-15.60062l11.07885,-0.39028l9.24203,7.61175l-3.69471,11.42l-7.87578,4.59671z" fill="url(#color-22)" stroke="#303030" stroke-width="2" stroke-linecap="butt"/><path d="M307.14141,68.65279l-2.43674,-2.05103l2.68181,-7.58875l5.38918,-0.18985l4.49568,3.70264l-1.79725,5.55513l-3.83109,2.23601z" fill="url(#color-23)" stroke="#303030" stroke-width="2" stroke-linecap="butt"/><path d="M328.34442,74.32336l1.58133,-21.43576l4.56827,-0.70281l7.40563,12.69476l1.36024,-12.00095l4.41185,2.64455l-1.75702,20.03013l-4.26005,-0.8344l-6.65511,-11.55569l-1.72711,12.55973z" fill="url(#color-24)" stroke="#303030" stroke-width="2" stroke-linecap="butt"/><path d="M353.19366,77.79434l2.35411,-24.71806l17.48761,2.18595l-0.07393,5.21161l-11.81342,-1.68211l-1.15626,5.41309l8.376,-0.35497l0.70046,5.13291l-10.07546,0.71057l0.93043,4.23598l9.81473,-0.82976l1.1115,4.86292z" fill="url(#color-25)" stroke="#303030" stroke-width="2" stroke-linecap="butt"/></g></g></svg>