<svg version="1.1" xmlns="http://www.w3.org/2000/svg" xmlns:xlink="http://www.w3.org/1999/xlink" width="36.69049" height="38.79322" viewBox="0,0,36.69049,38.79322"><defs><linearGradient x1="239.75002" y1="160.83546" x2="239.75002" y2="186.03735" gradientUnits="userSpaceOnUse" id="color-1"><stop offset="0" stop-color="#aa5825"/><stop offset="1" stop-color="#89471e"/></linearGradient></defs><g transform="translate(-221.40477,-159.76411)"><g data-paper-data="{&quot;isPaintingLayer&quot;:true}" fill-rule="nonzero" stroke-linejoin="miter" stroke-miterlimit="10" stroke-dasharray="" stroke-dashoffset="0" style="mix-blend-mode: normal"><g><path d="M248.25252,185.38511c0,2.76176 0.4326,3.34756 -1.2135,4.49501c-1.81427,1.26467 -4.73825,2.48194 -7.45524,2.48194c-2.71699,0 -5.75066,-1.51126 -7.7429,-3.17044c-1.08839,-0.90643 -0.81866,-2.47342 -0.81866,-3.80649c0,-2.76176 3.5932,-5.0006 8.02562,-5.0006c4.43243,0 9.20467,2.23884 9.20467,5.0006z" fill="#f1c2a4" stroke="#b8947d" stroke-width="1" stroke-linecap="butt"/><path d="M257.59524,178.00317c0,5.0824 -2.95587,7.19594 -8.51833,7.78919c-2.64438,0.28203 -6.89309,-0.419 -9.55569,-0.419c-3.31831,0 -6.45848,1.05743 -9.72014,0.50343c-5.17143,-0.87838 -7.89631,-3.61834 -7.89631,-8.39264c0,-4.39769 2.82083,-6.10502 5.76991,-9.59472c1.81567,-2.14852 1.07235,-4.08539 3.49589,-5.66468c2.39926,-1.56347 6.08924,-1.41586 9.0423,-1.35576c2.74335,0.05583 5.656,-0.09462 8.54006,1.54757c2.88406,1.64219 2.06547,3.09067 3.69012,5.41629c2.54179,3.6385 5.15221,3.86401 5.15221,10.17032z" fill="url(#color-1)" stroke="#89471e" stroke-width="1" stroke-linecap="butt"/><path d="M237.94803,171.34304c0,2.63245 -1.4834,4.76649 -3.31329,4.76649c-1.82988,0 -3.31329,-2.13402 -3.31329,-4.76649c0,-2.63245 1.48341,-4.76648 3.31329,-4.76648c1.82988,0 3.31329,2.13402 3.31329,4.76648z" fill="#e0e0e0" stroke="none" stroke-width="0" stroke-linecap="butt"/><path d="M248.29478,171.45929c0,2.63245 -1.4834,4.76649 -3.31328,4.76649c-1.82988,0 -3.31329,-2.13402 -3.31329,-4.76649c0,-2.63245 1.48341,-4.76648 3.31329,-4.76648c1.82988,0 3.31328,2.13402 3.31328,4.76648z" fill="#e0e0e0" stroke="none" stroke-width="0" stroke-linecap="butt"/><path d="M229.34001,182.73608c0,0 6.49484,-1.48586 10.46573,-1.54101c4.19775,-0.0583 10.46539,1.2503 10.46539,1.2503" fill="none" stroke="#000000" stroke-width="1" stroke-linecap="round"/><path d="M229.65858,161.14392c0,0 3.57992,-1.00465 4.93016,0.25397c1.35024,1.25862 0.30722,4.50546 0.94954,5.47462c0.56239,0.84855 3.60001,1.45709 3.60001,1.45709" fill="none" stroke="#000000" stroke-width="2" stroke-linecap="round"/><path d="M236.98925,170.81089c0,0.97858 -0.38196,1.77188 -0.85313,1.77188c-0.47117,0 -0.85313,-0.79329 -0.85313,-1.77188c0,-0.97858 0.38196,-1.77188 0.85313,-1.77188c0.47117,0 0.85313,0.79329 0.85313,1.77188z" fill="#000000" stroke="#000000" stroke-width="2" stroke-linecap="butt"/><path d="M244.49283,170.719c0,0.97008 -0.37865,1.7565 -0.84572,1.7565c-0.46707,0 -0.84571,-0.7864 -0.84571,-1.7565c0,-0.97008 0.37863,-1.75651 0.84571,-1.75651c0.46707,0 0.84572,0.78642 0.84572,1.75651z" fill="#000000" stroke="#000000" stroke-width="2" stroke-linecap="butt"/><path d="M239.5618,168.38778c0,0 4.14302,-0.84125 4.70541,-1.6898c0.71771,-1.0829 1.38026,-4.57266 2.41497,-5.35826c1.37991,-1.04771 4.41704,0.00544 4.41704,0.00544" data-paper-data="{&quot;index&quot;:null}" fill="none" stroke="#000000" stroke-width="2" stroke-linecap="round"/><path d="M228.906,182.20043l1.3077,-3.99539l2.59376,3.3398z" fill="#ffffff" stroke="none" stroke-width="0" stroke-linecap="butt"/><path d="M237.31667,169.63269c0,0.31296 -0.11939,0.56667 -0.26667,0.56667c-0.14728,0 -0.26667,-0.25371 -0.26667,-0.56667c0,-0.31296 0.11939,-0.56667 0.26667,-0.56667c0.14728,0 0.26667,0.25371 0.26667,0.56667z" fill="#e0e0e0" stroke="none" stroke-width="0" stroke-linecap="butt"/><path d="M246.57414,181.44008l2.46649,-3.43488l1.45685,3.94346z" data-paper-data="{&quot;index&quot;:null}" fill="#ffffff" stroke="none" stroke-width="0" stroke-linecap="butt"/><path d="M242.78334,169.69935c0,0.31296 -0.11939,0.56667 -0.26666,0.56667c-0.14728,0 -0.26667,-0.2537 -0.26667,-0.56667c0,-0.31296 0.11939,-0.56667 0.26667,-0.56667c0.14728,0 0.26666,0.2537 0.26666,0.56667z" fill="#e0e0e0" stroke="none" stroke-width="0" stroke-linecap="butt"/></g><path d="M236.48948,191.6494c0,2.02204 -2.68054,3.66123 -5.98717,3.66123c-3.30662,0 -5.98717,-1.63917 -5.98717,-3.66123c0,-2.02204 2.68054,-3.66123 5.98717,-3.66123c3.30662,0 5.98717,1.63918 5.98717,3.66123z" fill="#5a2f14" stroke="#43230f" stroke-width="1" stroke-linecap="butt"/><path d="M254.67301,194.3961c0,2.02204 -2.68055,3.66123 -5.98717,3.66123c-3.30662,0 -5.98716,-1.63918 -5.98716,-3.66123c0,-2.02204 2.68054,-3.66123 5.98716,-3.66123c3.30662,0 5.98717,1.63918 5.98717,3.66123z" fill="#5a2f14" stroke="#43230f" stroke-width="1" stroke-linecap="butt"/></g></g></svg>