<svg version="1.1" xmlns="http://www.w3.org/2000/svg" xmlns:xlink="http://www.w3.org/1999/xlink" width="122.95876" height="180.28097" viewBox="0,0,122.95876,180.28097"><defs><radialGradient cx="275.50477" cy="202.49791" r="11.15763" gradientUnits="userSpaceOnUse" id="color-1"><stop offset="0" stop-color="#b6d6d4"/><stop offset="1" stop-color="#839a99"/></radialGradient><radialGradient cx="287.88875" cy="211.35126" r="5.68075" gradientUnits="userSpaceOnUse" id="color-2"><stop offset="0" stop-color="#b6d6d6"/><stop offset="1" stop-color="#89a19f"/></radialGradient><radialGradient cx="281.28595" cy="213.95225" r="5.57885" gradientUnits="userSpaceOnUse" id="color-3"><stop offset="0" stop-color="#b6d6d6"/><stop offset="1" stop-color="#89a19f"/></radialGradient><radialGradient cx="293.26861" cy="205.90199" r="5.28347" gradientUnits="userSpaceOnUse" id="color-4"><stop offset="0" stop-color="#b6d6d6"/><stop offset="1" stop-color="#89a19f"/></radialGradient><radialGradient cx="293.2054" cy="201.2889" r="3.24716" gradientUnits="userSpaceOnUse" id="color-5"><stop offset="0" stop-color="#b6d6d6"/><stop offset="1" stop-color="#89a19f"/></radialGradient><radialGradient cx="268.11642" cy="196.8559" r="3.61811" gradientUnits="userSpaceOnUse" id="color-6"><stop offset="0" stop-color="#d2d3db"/><stop offset="1" stop-color="#a3a5ab"/></radialGradient><radialGradient cx="268.78809" cy="194.70656" r="6.99881" gradientUnits="userSpaceOnUse" id="color-7"><stop offset="0" stop-color="#d2d3db"/><stop offset="1" stop-color="#a3a5ab"/></radialGradient><linearGradient x1="199.51423" y1="205.20895" x2="180.70091" y2="205.20895" gradientUnits="userSpaceOnUse" id="color-8"><stop offset="0" stop-color="#e9eaf3"/><stop offset="1" stop-color="#9ca4ab"/></linearGradient><linearGradient x1="219.36031" y1="210.70938" x2="194.56961" y2="210.70938" gradientUnits="userSpaceOnUse" id="color-9"><stop offset="0" stop-color="#e9eaf3"/><stop offset="1" stop-color="#9ca4ab"/></linearGradient><radialGradient cx="269.19408" cy="244.2553" r="14.56944" gradientUnits="userSpaceOnUse" id="color-10"><stop offset="0" stop-color="#accac8"/><stop offset="1" stop-color="#839a99"/></radialGradient><linearGradient x1="257.88745" y1="233.72655" x2="258.63554" y2="239.30399" gradientUnits="userSpaceOnUse" id="color-11"><stop offset="0" stop-color="#d2d3db"/><stop offset="1" stop-color="#a3a5ab"/></linearGradient><linearGradient x1="254.41574" y1="224.86606" x2="255.75899" y2="234.88081" gradientUnits="userSpaceOnUse" id="color-12"><stop offset="0" stop-color="#d2d3db"/><stop offset="1" stop-color="#a3a5ab"/></linearGradient><radialGradient cx="251.53828" cy="185.19045" r="12.46491" gradientUnits="userSpaceOnUse" id="color-13"><stop offset="0" stop-color="#645d46"/><stop offset="1" stop-color="#978d69"/></radialGradient><radialGradient cx="261.70042" cy="190.70704" r="14.40414" gradientUnits="userSpaceOnUse" id="color-14"><stop offset="0" stop-color="#645d46"/><stop offset="1" stop-color="#978d69"/></radialGradient><radialGradient cx="252.69967" cy="206.09542" r="18.36514" gradientUnits="userSpaceOnUse" id="color-15"><stop offset="0" stop-color="#645d46"/><stop offset="1" stop-color="#978d69"/></radialGradient><radialGradient cx="255.02245" cy="221.19346" r="18.81118" gradientUnits="userSpaceOnUse" id="color-16"><stop offset="0" stop-color="#645d46"/><stop offset="1" stop-color="#978d69"/></radialGradient><radialGradient cx="233.82713" cy="227.29074" r="16.1122" gradientUnits="userSpaceOnUse" id="color-17"><stop offset="0" stop-color="#645d46"/><stop offset="1" stop-color="#978d69"/></radialGradient><linearGradient x1="246.6794" y1="194.94049" x2="208.04905" y2="194.94049" gradientUnits="userSpaceOnUse" id="color-18"><stop offset="0" stop-color="#9299a0"/><stop offset="1" stop-color="#e5f0fb"/></linearGradient><radialGradient cx="212.15228" cy="182.83833" r="10.30069" gradientUnits="userSpaceOnUse" id="color-19"><stop offset="0" stop-color="#a6a7ad"/><stop offset="1" stop-color="#74757a"/></radialGradient><radialGradient cx="224.78635" cy="165.39597" r="9.21465" gradientUnits="userSpaceOnUse" id="color-20"><stop offset="0" stop-color="#a6a7ad"/><stop offset="1" stop-color="#74757a"/></radialGradient><radialGradient cx="226.78393" cy="173.07466" r="2.96811" gradientUnits="userSpaceOnUse" id="color-21"><stop offset="0" stop-color="#a6a7ad"/><stop offset="1" stop-color="#74757a"/></radialGradient><radialGradient cx="205.50938" cy="199.65102" r="13.1884" gradientUnits="userSpaceOnUse" id="color-22"><stop offset="0" stop-color="#a6a7ad"/><stop offset="1" stop-color="#74757a"/></radialGradient><radialGradient cx="213.56939" cy="197.12888" r="2.13332" gradientUnits="userSpaceOnUse" id="color-23"><stop offset="0" stop-color="#a6a7ad"/><stop offset="1" stop-color="#74757a"/></radialGradient><radialGradient cx="218.46468" cy="246.11944" r="16.61441" gradientUnits="userSpaceOnUse" id="color-24"><stop offset="0" stop-color="#accac8"/><stop offset="1" stop-color="#839a99"/></radialGradient><linearGradient x1="227.118" y1="233.12958" x2="220.88588" y2="235.75855" gradientUnits="userSpaceOnUse" id="color-25"><stop offset="0" stop-color="#d2d3db"/><stop offset="1" stop-color="#a3a5ab"/></linearGradient><linearGradient x1="235.52504" y1="227.79731" x2="225.52488" y2="232.01578" gradientUnits="userSpaceOnUse" id="color-26"><stop offset="0" stop-color="#d2d3db"/><stop offset="1" stop-color="#a3a5ab"/></linearGradient><linearGradient x1="266.38669" y1="153.02241" x2="260.74596" y2="177.26497" gradientUnits="userSpaceOnUse" id="color-27"><stop offset="0" stop-color="#9da5ac"/><stop offset="1" stop-color="#838a90"/></linearGradient><linearGradient x1="263.48464" y1="99.44192" x2="254.03564" y2="140.05158" gradientUnits="userSpaceOnUse" id="color-28"><stop offset="0" stop-color="#d2d3db"/><stop offset="1" stop-color="#bdc0c7"/></linearGradient><radialGradient cx="271.14969" cy="117.7038" r="5.1506" gradientUnits="userSpaceOnUse" id="color-29"><stop offset="0" stop-color="#d5e20f"/><stop offset="1" stop-color="#d5e20f" stop-opacity="0"/></radialGradient><radialGradient cx="261.17559" cy="118.51889" r="6.53642" gradientUnits="userSpaceOnUse" id="color-30"><stop offset="0" stop-color="#d5e20f"/><stop offset="1" stop-color="#d5e20f" stop-opacity="0"/></radialGradient><linearGradient x1="273.92137" y1="117.3414" x2="262.38385" y2="166.92701" gradientUnits="userSpaceOnUse" id="color-31"><stop offset="0" stop-color="#e9eaf3"/><stop offset="1" stop-color="#9ca4ab"/></linearGradient><linearGradient x1="278.7851" y1="154.96419" x2="276.34802" y2="162.66145" gradientUnits="userSpaceOnUse" id="color-32"><stop offset="0" stop-color="#000000"/><stop offset="1" stop-color="#000000" stop-opacity="0"/></linearGradient><radialGradient cx="235.25437" cy="198.59723" r="4.28242" gradientUnits="userSpaceOnUse" id="color-33"><stop offset="0" stop-color="#d2d3db"/><stop offset="1" stop-color="#a3a5ab"/></radialGradient><radialGradient cx="233.23937" cy="193.76122" r="9.15743" gradientUnits="userSpaceOnUse" id="color-34"><stop offset="0" stop-color="#d2d3db"/><stop offset="1" stop-color="#a3a5ab"/></radialGradient><radialGradient cx="243.3376" cy="205.4451" r="12.54263" gradientUnits="userSpaceOnUse" id="color-35"><stop offset="0" stop-color="#b6d6d4"/><stop offset="1" stop-color="#839a99"/></radialGradient><radialGradient cx="257.25882" cy="215.39743" r="6.38591" gradientUnits="userSpaceOnUse" id="color-36"><stop offset="0" stop-color="#b6d6d6"/><stop offset="1" stop-color="#89a19f"/></radialGradient><radialGradient cx="249.8364" cy="218.32128" r="6.27135" gradientUnits="userSpaceOnUse" id="color-37"><stop offset="0" stop-color="#b6d6d6"/><stop offset="1" stop-color="#89a19f"/></radialGradient><radialGradient cx="263.30648" cy="209.27173" r="5.9393" gradientUnits="userSpaceOnUse" id="color-38"><stop offset="0" stop-color="#b6d6d6"/><stop offset="1" stop-color="#89a19f"/></radialGradient><radialGradient cx="263.23542" cy="204.08602" r="3.65023" gradientUnits="userSpaceOnUse" id="color-39"><stop offset="0" stop-color="#b6d6d6"/><stop offset="1" stop-color="#89a19f"/></radialGradient><linearGradient x1="242.60119" y1="80.85534" x2="251.95513" y2="106.88429" gradientUnits="userSpaceOnUse" id="color-40"><stop offset="0" stop-color="#6b40c0"/><stop offset="1" stop-color="#252972"/></linearGradient><linearGradient x1="250.15994" y1="97.01637" x2="253.96883" y2="107.61524" gradientUnits="userSpaceOnUse" id="color-41"><stop offset="0" stop-color="#d62d2d"/><stop offset="1" stop-color="#8e1e1e"/></linearGradient></defs><g transform="translate(-180.3259,-77.58589)"><g data-paper-data="{&quot;isPaintingLayer&quot;:true}" fill-rule="nonzero" stroke-linejoin="miter" stroke-miterlimit="10" stroke-dasharray="" stroke-dashoffset="0" style="mix-blend-mode: normal"><g data-paper-data="{&quot;index&quot;:null}" stroke-width="0.75" stroke-linecap="butt"><path d="M266.41931,205.04425c-0.39524,-1.44671 -0.2972,-3.14646 -0.3012,-3.25482c-0.03963,-1.07434 1.42539,-3.42609 2.96789,-4.93839c1.09039,-1.06905 2.63065,-1.58703 3.31692,-1.85817c1.755,-0.6934 4.34954,1.71035 4.34954,1.71035c0,0 1.89813,-0.5602 3.91586,-0.41311c2.20242,0.16055 7.73839,1.85258 7.645,2.19758c-0.05607,0.20715 -3.92474,1.35203 -2.96649,3.43206c0.68113,1.4785 3.07854,3.31302 3.07854,3.31302c0,0 -6.79416,-2.9586 -7.00697,-1.93818c-0.46987,2.25297 2.13219,5.03985 2.13219,5.03985l-1.00819,0.08357c0,0 -4.60515,-3.5607 -4.914,-2.97449c-1.47523,2.79999 0.73617,5.74477 0.73617,5.74477c0,0 -3.56003,0.2582 -5.92578,-0.60429c-2.10032,-0.76572 -3.18491,-2.12996 -3.18491,-2.12996c0,0 -0.79429,-0.42589 -1.45117,-1.07528c-0.64663,-0.63925 -1.15418,-1.49541 -1.38342,-2.33451z" fill="url(#color-1)" stroke="#4a5957"/><path d="M285.28457,211.64781c-0.78472,-1.98611 -5.47198,-7.83862 -4.04949,-8.40065c0.78087,-0.30853 4.15606,0.23013 6.34588,1.83917c1.79933,1.3221 1.85898,3.99637 2.21293,4.89222c0.78472,1.9861 0.90965,3.68578 -0.51284,4.24781c-0.84994,0.33581 -2.43436,0.52203 -3.25366,-0.17899c-0.55193,-0.47224 -0.42699,-1.60012 -0.74283,-2.39955z" fill="url(#color-2)" stroke="#4a5957"/><path d="M278.61501,214.21503c-0.07284,-0.60791 0.66411,-1.15683 0.40575,-2.1877c-0.28662,-1.14361 -1.26019,-2.18242 -1.65339,-3.36032c-0.54609,-1.63588 -0.32406,-3.30042 0.34675,-3.38078c0.8724,-0.10451 5.12998,3.27916 5.12998,3.27916c0,0 0.98699,2.48057 0.92514,3.75283c-0.01738,0.35757 -0.22652,3.5422 -1.81574,3.73258c-0.94955,0.11375 -1.78201,0.85897 -2.42472,-0.0685c-0.43297,-0.6248 -0.80679,-0.87416 -0.91378,-1.76727z" fill="url(#color-3)" stroke="#4a5957"/><path d="M290.44846,207.21981c-0.33404,-0.84546 -1.81901,-1.68296 -3.03858,-2.80202c-1.6217,-1.48802 -2.32794,-3.34978 -2.32794,-3.34978c0,0 1.33749,-3.04349 3.50921,-1.44776c0.62191,0.45696 1.82795,0.30209 2.82152,0.99338c0.81563,0.56748 1.40873,1.97136 2.0944,2.48282c0.87572,0.65322 1.44058,1.10462 1.56884,1.42925c0.77823,1.96969 0.90214,3.65531 -0.5086,4.21269c-0.84291,0.33304 -2.41424,0.51771 -3.22677,-0.17751c-0.54737,-0.46834 -0.57887,-0.54826 -0.8921,-1.34108z" fill="url(#color-4)" stroke="#4a5957"/><path d="M291.60657,200.87921c-1.42209,-0.88948 -4.21854,-1.85269 -4.21854,-1.85269l1.09769,-0.47506c0,0 1.03977,0.55191 1.58551,0.6999c1.06582,0.28903 2.40974,0.19488 3.0573,0.5999c1.4221,0.88947 0.39548,3.11199 0.39548,3.11199c0,0 -0.38201,-0.41332 -0.9214,-1.09023c-0.24067,-0.30202 -0.55728,-0.71938 -0.99603,-0.99381z" fill="url(#color-5)" stroke="#4a5957"/><path d="M266.1066,202.86263c0,0 -0.91876,-1.34787 -1.00522,-2.65269c-0.04001,-0.60388 0.49666,-1.25988 0.63765,-1.73803c0.44563,-1.51128 2.02819,-2.21862 2.79997,-2.68448c0.65568,-0.39578 1.61542,0.06258 1.61542,0.06258c0,0 -2.45442,2.4758 -2.49647,2.54865c-0.70393,1.2195 -1.55136,4.46397 -1.55136,4.46397z" data-paper-data="{&quot;index&quot;:null}" fill="url(#color-6)" stroke="#747474"/><path d="M268.35769,192.69772c0.1542,0.17501 0.37027,1.10129 0.82262,1.56222c0.61227,0.62389 1.10705,1.15637 1.11062,1.45594c0.00185,0.15493 -1.56426,-0.19551 -2.31554,0.36103c-0.37557,0.27821 -0.9655,0.51803 -1.40138,1.0288c-0.46946,0.55012 -0.94096,1.17543 -1.17422,1.82838c-0.41656,1.16604 -0.37785,2.2882 -0.37785,2.2882c0,0 -1.27802,-0.00007 -1.7639,-0.46099c-0.32404,-0.3074 -1.02193,-1.25438 -1.26063,-2.25171c-0.25608,-1.06994 -0.04269,-2.21509 -0.07877,-3.21945c-0.00296,-0.08264 -0.59011,-1.15974 -0.58868,-1.23543c0.01148,-0.60828 -1.36812,-2.75034 -1.07175,-4.30034c0.18659,-0.97584 1.90129,-1.40896 2.33321,-2.04423c0.41522,-0.6107 2.64139,-0.47192 2.64139,-0.47192c0,0 0.64247,0.56385 1.20257,1.03835c0.26162,0.22164 0.50529,0.4238 0.6571,0.53988c0.3616,0.2765 0.6559,1.28532 0.9294,1.86456c0.43289,0.91681 0.11422,1.76525 0.3358,2.01672z" data-paper-data="{&quot;index&quot;:null}" fill="url(#color-7)" stroke="#747474"/></g><g data-paper-data="{&quot;index&quot;:null}" stroke="#747474" stroke-width="0.75" stroke-linecap="butt"><path d="M184.93889,204.99034c0,-1.73998 -2.4774,-3.02732 -3.256,-4.35536c-1.52658,-2.60384 -1.49721,-4.53505 1.7013,-4.53505c2.29762,0 3.4083,0.80762 6.99803,2.57142c3.95629,1.94391 9.40067,3.9186 9.40067,3.9186c0,0 -2.99758,2.75241 -3.74311,4.69088c-0.83723,2.17691 -1.30582,6.93243 -1.30582,6.93243c0,0 -2.49174,0.1047 -3.18757,0.1047c-2.36056,0 -2.42003,-1.76756 -3.85095,-3.2822c-1.49685,-1.5844 -2.75655,-3.41168 -2.75655,-6.04543z" fill="url(#color-8)"/><path d="M196.21049,207.58487c0,-1.80412 3.49995,-5.19189 3.49995,-5.19189c0,0 3.48868,-0.93621 4.92002,-0.95178c1.53994,-0.01675 4.01766,0.85455 4.01766,0.85455c0,0 0.38924,5.18423 2.79411,8.77943c2.35589,3.52198 7.91809,5.83606 7.91809,5.83606l-5.38691,2.35225c0,0 -4.82381,-0.64702 -5.51964,-0.64702c-2.36056,0 -6.50112,2.39856 -7.93204,0.82808c-0.9656,-1.05977 -5.94768,-5.67323 -5.94768,-5.67323c0,0 -0.07664,-2.23404 0.40775,-4.04991c0.25584,-0.95911 1.22868,-1.80156 1.22868,-2.13654z" fill="url(#color-9)"/></g><g data-paper-data="{&quot;index&quot;:null}" stroke-width="0.75" stroke-linecap="butt"><path d="M259.83131,242.99891c-3.63853,0.48802 -10.34419,-0.86247 -10.34419,-0.86247c0,0 -2.51541,-4.1 0.32998,-4.854c0.38895,-0.10307 3.85362,-0.69187 3.85362,-0.69187l0.2642,1.83901c0,0 3.71144,0.94087 4.26133,0.86712c2.64402,-0.35464 4.71016,-1.595 4.71016,-1.595c0,0 1.56426,0.0253 2.13008,0.36479c0.6609,0.39652 1.59462,1.86987 1.59462,1.86987c0,0 -2.61336,2.50104 -6.79978,3.06256z" fill="#627372" stroke="#222828"/><path d="M248.09209,252.80919c0,0 -1.76001,-0.96539 -2.18205,-2.69808c-0.30833,-1.26584 0.6553,-3.24888 0.77304,-4.03768c0.17367,-1.16345 2.41167,-3.74743 2.41167,-3.74743l8.61954,0.44482c0,0 2.47583,0.10981 4.29334,-1.15198c1.69092,-1.17392 3.48539,-1.52981 3.70611,-1.55941c3.02765,-0.40609 5.87907,-0.28243 7.16,1.58037c0.70303,1.02239 1.56005,2.35693 1.78261,3.70908c0.37772,2.29479 -0.20895,4.52457 -0.20895,4.52457c0,0 -7.42141,2.19382 -14.93091,3.20105c-7.50948,1.00723 -11.42436,-0.2653 -11.42436,-0.2653z" fill="url(#color-10)" stroke="#4a5957"/><path d="M248.08358,252.80782c0,0 2.02274,1.20209 6.45658,0.65914c0.09391,-0.0115 9.30329,-1.02017 9.39171,-1.03203c3.76743,-0.50531 10.34641,-2.486 10.34641,-2.486l0.10396,1.86753c0,0 -3.73381,1.81134 -10.26105,2.68683c-6.52724,0.87549 -15.76282,0.42702 -15.76282,0.42702z" fill="#a06025" stroke="#3f260f"/><path d="M253.86127,235.08943c0,0 3.02976,-1.22923 3.95635,-1.35351c0.7872,-0.10559 4.57609,0.3128 4.89689,2.01825c0.1284,0.68258 -0.90691,0.81827 -0.48942,1.13583c0.44569,0.339 0.6549,0.79502 0.6549,0.79502c0,0 -2.57154,1.39458 -4.64235,1.67234c-2.07081,0.27775 -4.28507,-0.99976 -4.28507,-0.99976z" fill="url(#color-11)" stroke="#747474"/><path d="M253.64575,235.16422c0,0 -1.10718,-1.68856 -1.31963,-2.48562c-0.09998,-0.37507 -0.14224,-1.41249 -0.71284,-2.41834c-0.83587,-1.47347 -1.68243,-1.81887 -2.19676,-2.43249c-0.13609,-0.16236 -0.68598,-1.5293 -0.68598,-1.5293c0,0 4.99542,-1.3399 5.92201,-1.46418c0.3331,-0.04468 1.1789,1.25821 2.39199,2.10587c1.65359,1.15546 3.75029,2.07126 3.95116,3.17294c0.13937,0.76439 -0.32869,3.81858 -0.32869,3.81858c0,0 -1.89999,-0.28502 -3.9708,-0.00726c-0.69016,0.09257 -1.22608,0.50762 -1.67796,0.69126c-0.90397,0.36739 -1.3725,0.54857 -1.3725,0.54857z" fill="url(#color-12)" stroke="#747474"/></g><g data-paper-data="{&quot;index&quot;:null}" stroke-linecap="butt"><path d="M203.62482,194.46582c-2.66178,-12.89085 4.64395,-25.29504 16.31783,-27.70554c11.67388,-2.4105 18.41158,-11.79637 21.07337,1.09448c2.66179,12.89085 -16.5049,46.9748 -28.17878,49.3853c-11.67387,2.4105 -6.55062,-9.88339 -9.21241,-22.77424z" fill="#000000" stroke="#000000" stroke-width="0.5"/><path d="M243.68584,178.02603l2.75199,-5.55027l7.27393,-0.3809c0,0 10.62022,2.39442 12.84001,8.38924c0.04083,0.11027 2.73176,12.12937 0.22839,21.93033c-3.44178,13.47496 -12.91559,26.00092 -18.19397,27.09083c-2.70735,0.55903 -9.72383,2.53843 -15.97123,1.46468c-6.12227,-1.05225 -11.49637,-5.10216 -12.28214,-9.9366c-1.11274,-6.84615 14.19563,-26.4059 14.19563,-26.4059z" fill="#000000" stroke="none" stroke-width="0"/><path d="M253.93675,188.16354c-2.72539,-0.8542 -6.25364,-2.60699 -8.5856,-4.21836c-1.92457,-1.32986 -2.92804,-2.63425 -2.92804,-2.63425c0,0 0.83823,-1.8065 1.27158,-2.62554c0.45319,-0.85654 1.3907,-2.40624 1.3907,-2.40624c0,0 7.40687,5.68617 11.09661,5.87515c3.68974,0.18898 10.41248,-0.61154 10.41248,-0.61154c0,0 0.55781,1.51329 0.67793,2.32309c0.13164,0.88745 0.08051,2.79001 0.08051,2.79001c0,0 -8.44152,3.06686 -13.41618,1.50768z" fill="url(#color-13)" stroke="none" stroke-width="NaN"/><path d="M267.28924,191.76217c0,0 -10.42498,3.49194 -14.15231,2.15765c-3.28342,-1.17538 -7.35684,-3.13133 -8.52693,-3.61715c-3.26315,-1.35484 -6.12904,-4.94294 -6.12904,-4.94294l3.35402,-4.4049c0,0 7.40829,6.39275 12.6592,6.6617c3.68974,0.18898 12.97737,-1.1705 12.97737,-1.1705c0,0 0.25577,2.26157 0.2229,3.22017c-0.02652,0.77338 -0.40521,2.09599 -0.40521,2.09599z" fill="url(#color-14)" stroke="none" stroke-width="NaN"/><path d="M248.98249,209.65139c-8.4838,-0.60794 -18.47985,-5.28662 -18.47985,-5.28662l3.51527,-7.05295c0,0 4.47126,2.04148 9.72217,2.31043c3.68974,0.18897 10.23607,2.36507 13.98421,1.2349c3.74814,-1.13017 9.50864,-1.87591 9.50864,-1.87591c0,0 -0.7691,8.50621 -2.42309,10.1769c-2.13945,2.16107 -7.34356,1.1012 -15.82735,0.49326z" fill="url(#color-15)" stroke="none" stroke-width="NaN"/><path d="M255.43396,224.37731c0,0 -11.52784,-0.27693 -17.35331,-2.09059c-5.82547,-1.81366 -13.59685,-7.71617 -13.59685,-7.71617l4.28822,-7.13529c0,0 7.67451,5.88466 14.76086,7.22359c6.03013,1.13936 18.57327,-0.2371 18.57327,-0.2371c0,0 -1.57229,3.9382 -2.71708,5.64633c-1.07487,1.60382 -3.95512,4.30924 -3.95512,4.30924z" fill="url(#color-16)" stroke="none" stroke-width="NaN"/><path d="M242.08266,230.89289c-3.90539,0.89414 -11.36498,-0.09606 -11.36498,-0.09606c-4.97466,-1.55918 -10.0432,-10.3135 -10.0432,-10.3135l1.95065,-4.2201c0,0 3.1837,6.67659 10.85255,9.23515c0.10227,0.03412 5.32241,1.06663 10.57154,1.43123c4.31434,0.29967 8.84967,-0.05326 8.84967,-0.05326l-3.9478,2.68161c0,0 -4.38433,0.76618 -6.86843,1.33492z" fill="url(#color-17)" stroke="none" stroke-width="NaN"/><path d="M228.57212,179.20374c0,0 3.69062,-6.89814 3.96092,-7.30912c1.16435,-1.77033 6.19941,-7.77135 6.19941,-7.77135c0,0 1.03805,2.50389 3.62959,5.12008c1.90996,1.92813 4.31736,2.28298 4.31736,2.28298c0,0 -5.2861,10.62623 -11.16859,21.44719c-3.02874,5.57145 -5.47629,11.79705 -8.54791,16.95472c-5.31003,8.91625 -10.4446,15.37985 -12.4178,15.78729c-1.79865,0.3714 -8.35297,-1.65713 -5.98752,-8.17562c4.64613,-12.80335 20.01454,-38.33615 20.01454,-38.33615z" fill="url(#color-18)" stroke="#747474" stroke-width="1"/><path d="M210.30576,179.44519l2.58266,0.24695l-0.9806,-4.31294l2.68536,-3.30997c0,0 5.0259,-0.3262 6.68027,1.76573c1.34277,1.69792 2.29549,4.12648 2.46734,4.95875c0.76679,3.71349 -4.22483,13.2527 -6.99019,13.82371c-1.6242,0.33537 -5.19551,-1.80049 -6.32,-4.47794c-0.79007,-1.88118 -2.14039,-6.15543 -2.14039,-6.15543z" fill="url(#color-19)" stroke="#343434" stroke-width="0.75"/><path d="M227.20639,170.37991c0,0 -3.13087,-1.12 -4.54483,-1.44801c-2.01249,-0.46687 -4.05276,0.03192 -4.0127,-1.14724c0.0682,-2.00763 5.70144,-6.38924 8.39741,-6.29765c0.60422,0.02052 4.92142,-2.33173 6.27328,-1.59415c1.66557,0.90874 3.75803,2.07521 3.75803,2.07521c0,0 -0.32301,3.27147 -1.3613,4.22305c-0.43065,0.39468 -4.33631,2.39518 -4.33631,2.39518l-3.18725,0.69984z" data-paper-data="{&quot;index&quot;:null}" fill="url(#color-20)" stroke="#343434" stroke-width="0.75"/><path d="M226.64938,176.81855l-1.99044,-4.69448c0,0 0.89445,-0.77071 1.8384,-0.99658c0.73061,-0.17482 3.35104,-0.24516 3.35104,-0.24516z" fill="url(#color-21)" stroke="#343434" stroke-width="0.75"/><path d="M212.30203,204.31975c0,0 -1.82152,3.62948 -2.45712,5.33956c-0.90465,2.43394 -0.79918,5.28931 -2.03138,4.76672c-2.09794,-0.88976 -5.54969,-9.97215 -4.89937,-13.4457c0.14575,-0.77849 -1.44164,-7.33784 -0.38795,-8.80365c1.2982,-1.80598 2.95525,-4.06493 2.95525,-4.06493c0,0 3.37508,1.72572 4.16276,3.45718c0.3267,0.71817 1.62861,6.60133 1.62861,6.60133l0.08128,4.42893z" data-paper-data="{&quot;index&quot;:null}" fill="url(#color-22)" stroke="#343434" stroke-width="0.75"/><path d="M214.08274,200.30789l-1.43063,-3.37416c0,0 0.6429,-0.55395 1.32136,-0.71629c0.52513,-0.12565 2.40856,-0.1762 2.40856,-0.1762z" fill="url(#color-23)" stroke="#343434" stroke-width="0.75"/></g><g data-paper-data="{&quot;index&quot;:null}" stroke-width="0.75" stroke-linecap="butt"><path d="M217.01868,238.40781c-1.7643,-4.18238 -1.83252,-11.10398 -1.83252,-11.10398c0,0 4.12457,-3.9594 5.75311,-1.24014c0.2226,0.37171 1.82584,3.79192 1.82584,3.79192l-2.0502,0.88513c0,0 -0.09489,4.18464 0.13685,4.734c1.11429,2.64149 3.09578,4.38643 3.09578,4.38643c0,0 0.3881,1.64066 0.14757,2.34359c-0.28094,0.82105 -1.73088,2.28364 -1.73088,2.28364c0,0 -3.58125,-1.89817 -5.34556,-6.08057z" fill="#627372" stroke="#222828"/><path d="M202.44159,228.75554c0,0 0.58844,-2.24835 2.4482,-3.26551c1.35868,-0.74311 3.91194,-0.31184 4.84958,-0.43316c1.38299,-0.17893 4.99846,1.46639 4.99846,1.46639l2.02177,9.6474c0,0 0.60128,2.76536 2.57956,4.36796c1.84048,1.49096 2.77485,3.35661 2.87356,3.59061c1.35396,3.20964 2.04964,6.3936 0.29313,8.39938c-0.96406,1.10086 -2.24025,2.47093 -3.72293,3.14692c-2.51631,1.14725 -5.24136,1.21025 -5.24136,1.21025c0,0 -4.69085,-7.48591 -8.04907,-15.44678c-3.35821,-7.96086 -3.05092,-12.68345 -3.05092,-12.68345z" fill="url(#color-24)" stroke="#4a5957"/><path d="M202.44066,228.7457c0,0 -0.78228,2.61348 1.14127,7.3303c0.04074,0.09993 3.89977,9.935 3.93931,10.02874c1.68477,3.99386 5.88423,10.61859 5.88423,10.61859l-2.10754,0.7093c0,0 -3.17013,-3.54095 -6.08909,-10.46053c-2.91896,-6.91958 -5.11745,-17.24752 -5.11745,-17.24752z" fill="#a06025" stroke="#3f260f"/><path d="M224.55534,229.57674c0,0 2.16273,2.60479 2.53463,3.48641c0.31596,0.74898 0.77061,4.66679 -1.11229,5.56242c-0.75358,0.35847 -1.16547,-0.62764 -1.42769,-0.10429c-0.27992,0.55869 -0.7529,0.92121 -0.7529,0.92121c0,0 -2.23977,-2.09227 -3.07092,-4.06254c-0.83113,-1.97027 0.09164,-4.60869 0.09164,-4.60869z" fill="url(#color-25)" stroke="#747474"/><path d="M224.79635,230.28875c0,0 1.50372,-1.46719 2.27775,-1.8935c0.36423,-0.20061 1.42022,-0.55447 2.33437,-1.35211c1.33917,-1.16847 1.51835,-2.0008 2.0416,-2.63008c0.13844,-0.16649 1.42748,-1.0569 1.42748,-1.0569c0,0 2.40968,3.87745 2.72913,4.63471c0.11483,0.27223 -1.04718,1.397 -1.66593,2.69768c-0.84343,1.77297 -1.34914,3.85294 -2.43821,4.36256c-0.75564,0.35361 -3.98713,0.88675 -3.98713,0.88675c0,0 -0.10097,-1.71803 -0.81488,-3.41039c-0.23794,-0.56405 -0.77488,-0.89697 -1.05695,-1.22861c-0.56425,-0.66344 -0.84723,-1.01012 -0.84723,-1.01012z" fill="url(#color-26)" stroke="#747474"/></g><g data-paper-data="{&quot;index&quot;:null}" stroke-linecap="butt"><path d="M246.26787,152.23687c0.92507,-3.97574 11.46329,-4.92119 23.53777,-2.11171c6.50861,1.51442 14.41847,3.35836 18.07773,5.7763c3.12924,2.06772 2.53648,4.67676 2.11006,6.50942c-0.92507,3.97574 -11.46328,4.92119 -23.53776,2.11171c-6.45981,-1.50306 -13.78103,0.03682 -17.44207,-2.36114c-3.18207,-2.08425 -3.17588,-8.07584 -2.74572,-9.92458z" fill="#000000" stroke="none" stroke-width="0"/><path d="M242.78956,156.60467l5.56444,5.73932c0,0 1.96686,-12.43819 2.97557,-12.79185c0.73448,-0.25751 3.19139,4.14043 5.69761,6.62618c1.86264,1.84743 4.26154,3.40746 4.26154,3.40746l2.97535,2.33719l2.7394,-6.32793c0,0 10.36581,0.28558 13.79607,1.27739c3.25276,0.94048 10.49176,2.1347 10.49176,2.1347c0,0 -0.48742,5.09116 -3.41752,8.11022c-5.61735,5.78791 -18.4066,12.17687 -27.04351,10.16725c-5.65734,-1.31635 -11.66361,-4.30016 -15.01025,-7.52597c-4.42762,-4.26776 -7.2184,-10.78544 -7.2184,-10.78544z" fill="url(#color-27)" stroke="none" stroke-width="0"/><path d="M242.30845,114.65632c1.34145,-5.76525 6.25527,-11.99068 10.26653,-14.29611c2.69929,-1.55139 3.41433,-1.11725 5.72346,-0.67344c2.30913,0.44382 4.19307,2.40775 4.19307,2.40775c0,0 4.04463,-3.59098 7.70606,-0.43994c3.66143,3.15104 3.10347,6.27207 4.39354,10.85291c1.3794,4.89801 1.30212,9.40118 1.30212,9.40118c0,0 -6.98567,3.52226 -11.31271,6.18351c-2.20762,1.35774 -13.36446,8.59155 -15.47866,8.09962c-2.87152,-0.66814 -10.45582,0.27895 -10.45582,0.27895c0,0 2.44799,-16.59513 3.66242,-21.81445z" fill="url(#color-28)" stroke="#747474" stroke-width="1"/><path d="M274.29646,122.61247l-4.37316,1.58221c0,0 -1.29525,-6.24028 -1.50815,-9.55233c-0.07833,-1.21855 -0.63197,-2.91451 -0.62755,-4.38334c0.00699,-2.32424 0.60934,-4.26639 0.60934,-4.26639c0,0 1.44703,1.33531 3.33355,3.63822c1.19721,1.46145 1.25125,3.90324 1.6552,5.10298c0.84261,2.50254 0.91078,7.87865 0.91078,7.87865z" fill="#000000" stroke="none" stroke-width="0"/><path d="M270.52409,112.31802c1.2333,-0.09085 2.40903,2.22388 2.62607,5.1701c0.21705,2.94621 -0.6068,5.40824 -1.8401,5.49909c-1.2333,0.09086 -2.40903,-2.22386 -2.62607,-5.17008c-0.21704,-2.94622 0.6068,-5.40826 1.8401,-5.49911z" fill="url(#color-29)" stroke="none" stroke-width="0"/><path d="M251.03561,116.28671c0.62322,-2.67846 0.92069,-8.27811 2.19742,-9.94013c1.49572,-1.94711 3.93518,-2.26406 5.54385,-1.88975c2.9818,0.69381 6.62292,15.92668 5.26958,21.74305c-1.35335,5.81637 -6.63435,5.48268 -9.61615,4.78888c-2.98181,-0.6938 -4.74804,-8.88566 -3.3947,-14.70203z" fill="#000000" stroke="none" stroke-width="0"/><path d="M258.04646,118.66271c-0.27544,-3.73892 0.77006,-6.86338 2.33519,-6.97868c1.56513,-0.1153 3.0572,2.82224 3.33264,6.56116c0.27545,3.73893 -0.77006,6.86338 -2.33519,6.97868c-1.56513,0.1153 -3.05719,-2.82223 -3.33263,-6.56115z" fill="url(#color-30)" stroke="none" stroke-width="0"/><path d="M231.60898,152.71138c0.49407,-2.12339 0.35318,-5.32766 1.22267,-8.40515c0.64762,-2.2922 2.1024,-4.4984 3.47861,-6.21907c2.70849,-3.3864 11.1945,-3.07002 13.46606,-2.66021c2.27156,0.40982 13.64257,-8.03449 20.30696,-11.01239c9.61762,-4.2975 7.95661,-4.48759 15.02053,-4.29544c7.09042,0.19289 14.79588,9.94097 17.02698,14.61437c0.90676,1.89935 1.14556,8.79574 -1.11173,14.98972c-2.58199,7.08492 -7.77845,13.43128 -7.77845,13.43128c0,0 -2.39433,-5.73932 -12.55768,-8.37018c-1.07461,-0.27817 -11.77617,-0.83306 -11.77617,-0.83306c0,0 -3.47864,8.42248 -5.22096,8.26133c-1.87262,-0.1732 -5.65208,-9.26699 -5.65208,-9.26699l-2.65911,1.23716c0,0 -2.30151,-3.95961 -3.63862,-4.38945c-0.51556,-0.16574 -2.14561,12.63426 -2.77547,12.46764c-1.73794,-0.45975 -5.24678,-5.11947 -5.24678,-5.11947l-3.83602,3.96511c0,0 -2.04886,0.63049 -3.65233,-0.57799c-2.5825,-1.94634 -4.90916,-6.55897 -4.6164,-7.81717z" fill="url(#color-31)" stroke="#747474" stroke-width="1"/><path d="M270.70505,115.10045c0.74181,-0.05464 1.449,1.33764 1.57955,3.10976c0.13055,1.77212 -0.36499,3.25301 -1.1068,3.30765c-0.74181,0.05464 -1.449,-1.33764 -1.57955,-3.10976c-0.13055,-1.77212 0.36498,-3.253 1.1068,-3.30765z" fill="#d5e20f" stroke="none" stroke-width="0"/><path d="M259.52441,118.57648c-0.1417,-1.92341 0.39614,-3.53073 1.20129,-3.59005c0.80516,-0.05932 1.57272,1.45184 1.71441,3.37525c0.14169,1.92341 -0.39615,3.53073 -1.2013,3.59004c-0.80515,0.05931 -1.57272,-1.45184 -1.71441,-3.37525z" fill="#d5e20f" stroke="none" stroke-width="0"/><path d="M286.5138,126.24467c2.85481,0.66425 3.96112,4.26533 3.96112,4.26533c0,0 -2.21598,0.10358 -5.07079,-0.56067c-2.85481,-0.66425 -3.7512,-0.90965 -3.40398,-2.40194c0.34722,-1.49229 1.65884,-1.96697 4.51365,-1.30272z" fill="#000000" stroke="#73797e" stroke-width="1"/><path d="M269.20821,154.50469c0,0 4.20056,0.22089 8.94342,0.53659c1.67808,0.11171 3.28449,0.355 4.65987,0.62277c2.51194,0.48907 3.58384,1.43171 3.58384,1.43171c0,0 1.45766,0.69241 2.04422,1.01869c0.51608,0.28707 1.81149,1.95217 1.81149,1.95217c0,0 -9.82395,-1.45005 -12.57783,-1.63335c-2.34907,-0.15637 -10.14532,-0.13281 -10.14532,-0.13281z" fill="url(#color-32)" stroke="none" stroke-width="0"/></g><g data-paper-data="{&quot;index&quot;:null}" stroke-width="0.75" stroke-linecap="butt"><path d="M232.18059,204.92144c0,0 -0.83485,-1.97351 -0.60886,-3.6764c0.10459,-0.78811 0.9654,-1.49427 1.27061,-2.07364c0.96466,-1.83123 3.18579,-2.3331 4.30024,-2.73356c0.94681,-0.34022 2.0644,0.49824 2.0644,0.49824c0,0 -3.80125,2.55416 -3.87423,2.6371c-1.22189,1.38866 -3.15216,5.34827 -3.15216,5.34827z" data-paper-data="{&quot;index&quot;:null}" fill="url(#color-33)" stroke="#747474"/><path d="M237.7079,192.41159c0.15336,0.26527 0.19217,1.51413 0.6556,2.22473c0.62727,0.96183 1.12686,1.77557 1.05401,2.16231c-0.03768,0.20002 -1.96415,-0.65623 -3.07565,-0.13366c-0.55563,0.26123 -1.37745,0.41757 -2.07088,0.96272c-0.74686,0.58717 -1.51578,1.27063 -1.98503,2.05129c-0.83797,1.39409 -1.07823,2.84938 -1.07823,2.84938c0,0 -1.646,-0.3305 -2.15263,-1.04976c-0.33787,-0.47969 -0.99188,-1.87978 -1.04147,-3.22601c-0.0532,-1.44423 0.51769,-2.86396 0.73089,-4.16684c0.01755,-0.1072 -0.46019,-1.64625 -0.43878,-1.74337c0.17205,-0.78047 -1.051,-3.89599 -0.26856,-5.81569c0.4926,-1.20859 2.81302,-1.32313 3.53355,-2.02964c0.69267,-0.6792 3.52398,0.07509 3.52398,0.07509c0,0 0.68169,0.89231 1.28039,1.64825c0.27966,0.35311 0.54122,0.67647 0.70673,0.86523c0.39424,0.4496 0.51247,1.825 0.71497,2.64173c0.32051,1.29271 -0.30927,2.30308 -0.08891,2.68425z" data-paper-data="{&quot;index&quot;:null}" fill="url(#color-34)" stroke="#747474"/><path d="M233.12435,208.30753c-0.4443,-1.62629 -0.3341,-3.53703 -0.33859,-3.65884c-0.04455,-1.2077 1.60232,-3.85137 3.33629,-5.5514c1.22574,-1.20175 2.9572,-1.78402 3.72866,-2.08882c1.97285,-0.77947 4.88945,1.92265 4.88945,1.92265c0,0 2.13375,-0.62974 4.40194,-0.46439c2.47581,0.18048 8.69896,2.08255 8.59398,2.47037c-0.06303,0.23287 -4.41192,1.51986 -3.33472,3.85808c0.76568,1.66202 3.46068,3.72427 3.46068,3.72427c0,0 -7.63752,-3.32586 -7.87675,-2.17877c-0.5282,2.53264 2.39686,5.66545 2.39686,5.66545l-1.13334,0.09395c0,0 -5.17679,-4.00269 -5.52398,-3.34372c-1.65835,3.14756 0.82755,6.45787 0.82755,6.45787c0,0 -4.00194,0.29025 -6.66135,-0.6793c-2.36103,-0.86077 -3.58025,-2.39435 -3.58025,-2.39435c0,0 -0.89288,-0.47876 -1.6313,-1.20876c-0.7269,-0.7186 -1.29745,-1.68103 -1.55515,-2.62429z" fill="url(#color-35)" stroke="#4a5957"/><path d="M249.77921,206.28737c0.8778,-0.34683 4.67196,0.25871 7.1336,2.06747c2.02267,1.48621 2.08973,4.49244 2.48762,5.49949c0.88213,2.23264 1.02256,4.1433 -0.5765,4.77509c-0.95544,0.37749 -2.73654,0.58683 -3.65754,-0.20121c-0.62044,-0.53087 -0.47998,-1.79875 -0.83503,-2.69741c-0.88213,-2.23264 -6.15121,-8.81164 -4.55215,-9.44343z" fill="url(#color-36)" stroke="#4a5957"/><path d="M246.83393,218.61666c-0.08187,-0.68337 0.74656,-1.30042 0.45612,-2.45926c-0.32219,-1.28556 -1.41661,-2.45332 -1.85862,-3.77743c-0.61388,-1.83894 -0.36429,-3.7101 0.38979,-3.80044c0.98068,-0.11747 5.76676,3.68621 5.76676,3.68621c0,0 1.10949,2.78849 1.03997,4.21867c-0.01953,0.40196 -0.25463,3.98189 -2.04113,4.19591c-1.06742,0.12787 -2.00322,0.96559 -2.72571,-0.077c-0.48671,-0.70236 -0.90693,-0.98267 -1.0272,-1.98665z" fill="url(#color-37)" stroke="#4a5957"/><path d="M260.13627,210.75315c-0.37551,-0.95041 -2.0448,-1.89186 -3.41576,-3.14983c-1.823,-1.67274 -2.61691,-3.7656 -2.61691,-3.7656c0,0 1.50352,-3.42128 3.94481,-1.62747c0.69909,0.51368 2.05484,0.33957 3.17175,1.11668c0.91688,0.63792 1.58361,2.21608 2.35438,2.79102c0.98443,0.7343 1.6194,1.24174 1.76358,1.60666c0.87483,2.21419 1.01412,4.10904 -0.57173,4.73561c-0.94754,0.37437 -2.71392,0.58197 -3.62731,-0.19955c-0.61531,-0.52647 -0.65073,-0.61632 -1.00284,-1.50755z" fill="url(#color-38)" stroke="#4a5957"/><path d="M261.43813,203.62547c-1.59862,-0.99989 -4.74219,-2.08266 -4.74219,-2.08266l1.23395,-0.53403c0,0 1.16884,0.62042 1.78232,0.78678c1.19812,0.32491 2.70886,0.21907 3.4368,0.67437c1.59863,0.99988 0.44458,3.49828 0.44458,3.49828c0,0 -0.42943,-0.46463 -1.03578,-1.22556c-0.27054,-0.33951 -0.62646,-0.80868 -1.11967,-1.11717z" fill="url(#color-39)" stroke="#4a5957"/></g><g><path d="M277.25587,91.09118c2.58345,7.18888 -5.31778,1.71506 -22.71704,7.96779c-17.39926,6.25272 -28.31889,22.4095 -30.90234,15.22062c-2.58345,-7.18888 1.43097,-27.1232 18.83024,-33.37592c17.39926,-6.25272 32.2057,2.99864 34.78914,10.18752z" fill="url(#color-40)" stroke="#9c9f00" stroke-width="2.5" stroke-linecap="butt"/><path d="M239.74185,87.4603c0.75352,-0.80035 2.62375,-1.47572 2.62375,-1.47572l-1.20522,-0.68742c0,0 1.95858,-0.32622 2.49429,-0.13962c0.48324,0.16832 1.00975,0.04166 1.18281,0.52322c0.15427,0.42929 0.62779,0.92586 0.38949,1.31484c-0.34869,0.56917 -0.81188,1.45479 -1.44005,1.68053c-0.33581,0.12068 -0.11719,0.40273 -0.96183,0.79491c-0.84464,0.39218 -2.27828,0.70951 -2.27828,0.70951l0.90516,-1.15657l-2.72158,0.87422c0,0 0.25793,-1.63757 1.01145,-2.43792z" data-paper-data="{&quot;index&quot;:null}" fill="#ececec" stroke="#000000" stroke-width="0.25" stroke-linecap="butt"/><path d="M243.61104,91.66088c-0.14842,-0.41299 -0.18767,-0.94826 0.05019,-1.54149c0.317,-0.79062 1.24101,-1.91427 1.24101,-1.91427c0.49101,-0.63793 1.40742,-0.99006 2.11401,-1.04542c0.84209,-0.06597 1.904,-0.15984 2.18966,0.63506c0.44052,1.22583 -0.67931,2.49342 -1.64761,3.36468c-0.91015,0.81895 -1.88266,0.6247 -3.03488,1.03876c-0.41299,0.14841 -0.76396,-0.12434 -0.91237,-0.53733z" data-paper-data="{&quot;index&quot;:null}" fill="#ececec" stroke="#000000" stroke-width="0.25" stroke-linecap="butt"/><path d="M248.16491,88.03252c0.14585,-0.15289 0.44205,-0.10707 0.66158,0.10236c0.21954,0.20942 0.27927,0.50314 0.13342,0.65602c-0.14585,0.15289 -0.44205,0.10707 -0.66158,-0.10236c-0.21954,-0.20942 -0.27927,-0.50314 -0.13342,-0.65602z" data-paper-data="{&quot;origRot&quot;:0,&quot;index&quot;:null}" fill="#090005" stroke="#000000" stroke-width="0.25" stroke-linecap="butt"/><path d="M246.7322,95.68128l-1.26071,-3.50814l5.76555,-2.07195l1.26071,3.50814z" data-paper-data="{&quot;index&quot;:null}" fill="#ececec" stroke="#000000" stroke-width="0.25" stroke-linecap="butt"/><path d="M247.23984,91.0966c0,0 0.44526,-1.50593 0.8917,-2.15557c0.60601,-0.88185 2.06983,-1.48348 2.06983,-1.48348c1.31319,-0.47192 2.22829,0.3218 2.63444,1.452c0.27085,0.75368 0.24059,1.34763 -0.15643,2.04317c-0.53247,0.93284 -1.20045,1.41534 -2.21128,1.7786c-0.72808,0.26165 -1.14998,0.37765 -1.91782,0.28291c-0.53836,-0.06642 -1.45462,-0.53029 -1.45462,-0.53029l0.44721,-0.71854c0,0 -0.75088,0.36119 -1.12729,0.7207c-0.30221,0.28864 -0.54137,0.97105 -0.54137,0.97105l0.42095,-0.26358c0,0 0.30316,0.58583 0.60042,0.90933c0.39185,0.42645 0.72495,0.65019 1.21551,0.95801c0.49219,0.30885 0.70714,0.43102 1.33299,0.50549c0.62585,0.07448 0.95454,0.15294 1.66973,-0.80507c0.40665,-0.54471 0.66939,-0.82333 0.78087,-1.49388c0.07091,-0.4265 -0.05447,-0.83818 0.1103,-1.23792c0.15683,-0.38049 0.53143,-0.66718 0.53143,-0.66718c0,0 0.06289,1.67157 -0.11328,2.46309c-0.17219,0.77368 -0.43285,1.17212 -0.80009,1.87452c-0.12744,0.24375 -0.92091,0.67618 -1.16694,0.79914c-0.24289,0.12138 -1.17103,0.29189 -2.14332,0.17954c-0.97229,-0.11235 -1.64095,-0.39547 -2.40513,-0.70511c-0.76418,-0.30964 -1.63405,-0.8983 -1.84445,-1.03028c-0.50398,-0.31612 -0.85038,-1.43384 -0.78555,-2.02521c0.04483,-0.4089 0.27648,-0.7021 0.50458,-1.04441c0.32914,-0.49393 0.83106,-0.70854 1.40974,-0.84057c0.75094,-0.17132 2.04787,0.0635 2.04787,0.0635z" data-paper-data="{&quot;index&quot;:null}" fill="#ececec" stroke="#000000" stroke-width="0.25" stroke-linecap="butt"/><path d="M249.63524,93.31188c0.64864,-0.2331 1.89062,0.61227 1.89062,0.61227c0,0 -0.52274,1.20399 -1.17137,1.43709c-0.58521,0.21031 -1.07164,0.08351 -1.64051,-0.16768c-0.52412,-0.23143 -1.24231,-0.85381 -1.24231,-0.85381c0,0 1.51494,-0.79476 2.16357,-1.02786z" data-paper-data="{&quot;index&quot;:null}" fill="#ececec" stroke="#000000" stroke-width="0.25" stroke-linecap="butt"/><path d="M248.54622,93.76249l-0.38872,-0.86861l0.71464,0.15845z" data-paper-data="{&quot;origRot&quot;:0,&quot;index&quot;:null}" fill="#ececec" stroke="#000000" stroke-width="0.25" stroke-linecap="butt"/><path d="M246.23686,89.45509c0.14585,-0.15289 0.44205,-0.10706 0.66159,0.10236c0.21954,0.20942 0.27927,0.50314 0.13342,0.65602c-0.14585,0.15289 -0.44205,0.10706 -0.66159,-0.10236c-0.21954,-0.20942 -0.27927,-0.50314 -0.13342,-0.65602z" data-paper-data="{&quot;origRot&quot;:0,&quot;index&quot;:null}" fill="#090005" stroke="#000000" stroke-width="0.25" stroke-linecap="butt"/><path d="M245.05026,88.97928c0.48541,0.07393 1.29475,0.02081 1.29475,0.02081c0,0 -0.90355,0.63922 -1.48161,0.97148c-0.30096,0.17298 -0.72704,0.25454 -1.07041,0.20353c-0.31435,-0.0467 -0.73282,-0.45321 -0.73282,-0.45321l0.95349,-0.3635l-0.20338,-0.74c0,0 0.75457,0.28696 1.23999,0.36089z" data-paper-data="{&quot;index&quot;:null}" fill="#ececec" stroke="#000000" stroke-width="0.25" stroke-linecap="butt"/><path d="M247.71823,87.0492c0.01086,-0.40949 -0.02872,-0.8934 -0.02872,-0.8934l0.61833,0.15724l0.39462,-0.50491c0,0 0.31654,0.1791 0.30854,0.44412c-0.00873,0.28947 -0.13853,0.62732 -0.32494,0.84894c-0.35805,0.42568 -1.01614,1.07338 -1.01614,1.07338c0,0 0.03743,-0.71589 0.04829,-1.12538z" data-paper-data="{&quot;index&quot;:null,&quot;origRot&quot;:0}" fill="#ececec" stroke="#000000" stroke-width="0.25" stroke-linecap="butt"/><path d="M244.42308,88.70399c0,0 -0.59106,-0.45762 -0.56584,-0.70854c0.02274,-0.22621 0.5162,-0.66108 0.5162,-0.66108c0.20561,-0.17273 0.57823,-0.28291 0.70202,-0.13555c0.12379,0.14736 0.41858,0.47924 0.41858,0.47924l-1.07095,1.02593z" data-paper-data="{&quot;origRot&quot;:0,&quot;index&quot;:null}" fill="#ececec" stroke="#000000" stroke-width="0.25" stroke-linecap="butt"/><path d="M250.8317,88.20112c0,0 -0.00034,-0.24333 0.089,-0.31827c0.08427,-0.07068 0.30122,-0.13087 0.30122,-0.13087" data-paper-data="{&quot;index&quot;:null}" fill="none" stroke="#000000" stroke-width="0.25" stroke-linecap="round"/><path d="M249.65713,88.50554c0,0 0.20564,-0.09167 0.31562,-0.0908c0.11661,0.00093 0.27123,0.18882 0.27123,0.18882" data-paper-data="{&quot;index&quot;:null}" fill="none" stroke="#000000" stroke-width="0.25" stroke-linecap="round"/><path d="M234.5582,112.65105l2.25663,-5.11043c0,0 9.42282,-6.94992 14.63479,-9.16918c2.25405,-0.95978 5.69235,-1.98416 8.8355,-2.6441c3.1508,-0.66155 5.98036,-1.02253 5.98036,-1.02253l6.26976,2.05123c0,0 -1.91326,2.31833 -7.36817,5.26385c-4.11212,2.22044 -12.2675,5.024 -14.26063,5.74026c-5.48518,1.97119 -16.34824,4.8909 -16.34824,4.8909z" fill="url(#color-41)" stroke="none" stroke-width="0" stroke-linecap="butt"/><path d="M236.88172,107.55025l-2.28666,5.08137c0,0 -3.69145,2.90866 -5.16878,3.73215c-1.16935,0.65182 -3.32937,1.23129 -3.32937,1.23129c0,0 -1.66409,0.02018 -2.76612,-0.73542c-1.07631,-0.73796 -1.02457,-2.45572 -1.02457,-2.45572z" fill="#312d7f" stroke="none" stroke-width="0" stroke-linecap="butt"/><path d="M278.74095,91.23443c0,0 0.71968,1.36709 0.35931,2.62135c-0.36899,1.28423 -1.47013,2.25779 -1.47013,2.25779c0,0 -1.78476,0.39751 -3.10153,0.63912c-1.66358,0.30525 -2.23902,0.03159 -2.23902,0.03159l-6.32225,-2.06105z" data-paper-data="{&quot;index&quot;:null}" fill="#372f86" stroke="none" stroke-width="0" stroke-linecap="butt"/></g></g></g></svg>