<svg version="1.1" xmlns="http://www.w3.org/2000/svg" xmlns:xlink="http://www.w3.org/1999/xlink" width="377.36481" height="253.69786" viewBox="0,0,377.36481,253.69786"><g transform="translate(-9.33291,-41.14022)"><g data-paper-data="{&quot;isPaintingLayer&quot;:true}" fill-rule="nonzero" stroke-linecap="butt" stroke-linejoin="miter" stroke-miterlimit="10" stroke-dasharray="" stroke-dashoffset="0" style="mix-blend-mode: normal"><path d="M307.24357,94.38617l-18.5864,-25.87231l-0.35142,-24.82237l13.54573,7.41657l10.53839,41.18513z" data-paper-data="{&quot;index&quot;:null}" fill="#dada1f" stroke="#f5ff42" stroke-width="3"/><path d="M296.41755,67.87299l-8.20594,-23.85269l13.22836,7.11277z" data-paper-data="{&quot;index&quot;:null}" fill="#ffff66" stroke="none" stroke-width="0"/><path d="M307.01341,93.58495l-10.66434,-25.7571l15.34338,23.82897z" data-paper-data="{&quot;index&quot;:null}" fill="#9e9e00" stroke="none" stroke-width="0"/><path d="M288.75797,68.05495l7.56121,-0.31183l-1.77008,8.38564z" data-paper-data="{&quot;index&quot;:null}" fill="#9e9e00" stroke="none" stroke-width="0"/><path d="M89.37596,292.94845l-78.34493,-123.86595l25.03142,-55.85458l67.38026,57.37261l9.00688,112.27758z" fill="#426dff" stroke="#003cff" stroke-width="3"/><path d="M89.18846,290.99922l-14.26026,-98.29744l35.30844,89.19859z" fill="#3559ce" stroke="none" stroke-width="0"/><path d="M11.70961,169.45841l24.80412,-54.25072l38.30907,77.79378z" fill="#86a2ff" stroke="none" stroke-width="0"/><path d="M103.90417,206.36506l-29.10956,-13.94177l26.26856,-21.07005z" fill="#3c64e7" stroke="none" stroke-width="0"/><path d="M349.096,89.97952l14.25105,-28.49102l21.8074,-11.86218l-0.26108,15.44099l-31.54997,28.49336z" data-paper-data="{&quot;index&quot;:null}" fill="#dada1f" stroke="#f5ff42" stroke-width="3"/><path d="M367.5256,68.05918l17.29399,-18.36317l-0.13986,15.0187z" data-paper-data="{&quot;index&quot;:null}" fill="#ffff66" stroke="none" stroke-width="0"/><path d="M349.69808,89.40296l17.83561,-21.42539l-13.95158,24.66967z" data-paper-data="{&quot;index&quot;:null}" fill="#9e9e00" stroke="none" stroke-width="0"/><path d="M363.80015,61.36417l3.79463,6.54751l-8.24606,2.33553z" data-paper-data="{&quot;index&quot;:null}" fill="#9e9e00" stroke="none" stroke-width="0"/></g></g></svg>