<svg version="1.1" xmlns="http://www.w3.org/2000/svg" xmlns:xlink="http://www.w3.org/1999/xlink" width="110.45019" height="150.46744" viewBox="0,0,110.45019,150.46744"><defs><linearGradient x1="266.27046" y1="170.11532" x2="266.27046" y2="189.0888" gradientUnits="userSpaceOnUse" id="color-1"><stop offset="0" stop-color="#d21515"/><stop offset="1" stop-color="#940000"/></linearGradient><linearGradient x1="260.45568" y1="209.13855" x2="260.45568" y2="241.59401" gradientUnits="userSpaceOnUse" id="color-2"><stop offset="0" stop-color="#364ec7"/><stop offset="1" stop-color="#001371"/></linearGradient><linearGradient x1="276.95914" y1="227.20186" x2="276.95914" y2="247.48038" gradientUnits="userSpaceOnUse" id="color-3"><stop offset="0" stop-color="#a6680a"/><stop offset="1" stop-color="#6c4306"/></linearGradient><linearGradient x1="240.07516" y1="161.58105" x2="240.07516" y2="220.78101" gradientUnits="userSpaceOnUse" id="color-4"><stop offset="0" stop-color="#364ec7"/><stop offset="1" stop-color="#001371"/></linearGradient><linearGradient x1="241.66482" y1="166.89431" x2="241.66482" y2="187.4161" gradientUnits="userSpaceOnUse" id="color-5"><stop offset="0" stop-color="#d21515"/><stop offset="1" stop-color="#940000"/></linearGradient><linearGradient x1="241.74267" y1="120.09491" x2="241.74267" y2="173.33915" gradientUnits="userSpaceOnUse" id="color-6"><stop offset="0" stop-color="#ffefc0"/><stop offset="1" stop-color="#e0ce98"/></linearGradient><linearGradient x1="245.01041" y1="99.54384" x2="245.01041" y2="129.99193" gradientUnits="userSpaceOnUse" id="color-7"><stop offset="0" stop-color="#d21515"/><stop offset="1" stop-color="#940000"/></linearGradient><linearGradient x1="261.69478" y1="120.77206" x2="261.69478" y2="132.37396" gradientUnits="userSpaceOnUse" id="color-8"><stop offset="0" stop-color="#d21515"/><stop offset="1" stop-color="#940000"/></linearGradient><linearGradient x1="266.99974" y1="148.67106" x2="266.99974" y2="165.56539" gradientUnits="userSpaceOnUse" id="color-9"><stop offset="0" stop-color="#ffefc0"/><stop offset="1" stop-color="#e0ce98"/></linearGradient><linearGradient x1="219.75" y1="133.89773" x2="219.75" y2="145.68889" gradientUnits="userSpaceOnUse" id="color-10"><stop offset="0" stop-color="#ffefc0"/><stop offset="1" stop-color="#e0ce98"/></linearGradient><linearGradient x1="218.33623" y1="205.0792" x2="218.33623" y2="237.92955" gradientUnits="userSpaceOnUse" id="color-11"><stop offset="0" stop-color="#364ec7"/><stop offset="1" stop-color="#001371"/></linearGradient><linearGradient x1="208.60003" y1="228.03767" x2="208.60003" y2="248.76128" gradientUnits="userSpaceOnUse" id="color-12"><stop offset="0" stop-color="#a6680a"/><stop offset="1" stop-color="#6c4306"/></linearGradient><linearGradient x1="213.87462" y1="171.61531" x2="213.87462" y2="190.58879" gradientUnits="userSpaceOnUse" id="color-13"><stop offset="0" stop-color="#d21515"/><stop offset="1" stop-color="#940000"/></linearGradient></defs><g transform="translate(-184.84745,-99.04384)"><g data-paper-data="{&quot;isPaintingLayer&quot;:true}" fill-rule="nonzero" stroke-linejoin="miter" stroke-miterlimit="10" stroke-dasharray="" stroke-dashoffset="0" style="mix-blend-mode: normal"><g data-paper-data="{&quot;origPos&quot;:null,&quot;origRot&quot;:0,&quot;index&quot;:null}" stroke-width="1.5" stroke-linecap="butt"><path d="M250.33497,172.15484c1.51665,-3.24534 9.88073,-2.54198 18.68165,1.57099c8.80093,4.11301 14.70602,10.07811 13.18934,13.32344c-1.51665,3.24534 -9.88073,2.54198 -18.68165,-1.57099c-8.80093,-4.11301 -14.70602,-10.07811 -13.18934,-13.32344z" data-paper-data="{&quot;origRot&quot;:0,&quot;origPos&quot;:null}" fill="url(#color-1)" stroke="#940000"/><path d="M279.69195,179.7451c5.09061,-2.44334 11.26196,-0.1642 13.78412,5.09061c2.52215,5.25481 0.44003,11.4954 -4.65057,13.93873c-5.09061,2.44334 -11.26196,0.1642 -13.78412,-5.09061c-2.52215,-5.25481 -0.44003,-11.4954 4.65057,-13.93873z" data-paper-data="{&quot;origPos&quot;:null,&quot;origRot&quot;:0}" fill="#ffffff" stroke="#bfbfbf"/></g><g data-paper-data="{&quot;origPos&quot;:null,&quot;origRot&quot;:0}" stroke-width="1.5" stroke-linecap="butt"><path d="M266.85002,217.38776c2.69218,2.23115 6.2841,7.23464 8.35794,10.0497c2.9825,4.04849 2.17165,5.90966 -1.15498,9.86836c-3.34146,3.97636 -4.01439,5.47442 -8.57489,3.26649c-3.13677,-1.51865 -6.67202,-8.21215 -9.34693,-10.42899c-7.89897,-6.54628 -14.54051,-9.557 -11.53553,-13.13296c0,0 5.24845,-5.35196 7.46256,-5.16306c0,0 1.06951,-3.68377 4.00216,-2.45951c2.95295,1.23274 2.8907,1.45369 10.78967,7.99998z" data-paper-data="{&quot;origPos&quot;:null,&quot;origRot&quot;:0}" fill="url(#color-2)" stroke="#001371"/><path d="M280.73324,227.37082c5.79675,-1.07628 6.933,3.23051 6.21466,6.09496c-0.86985,3.46864 -7.21621,10.71403 -12.06639,12.99454c-4.85017,2.28051 -4.33292,0.18483 -5.74173,-0.94811c-3.1323,-2.51891 -3.58007,-6.98756 1.31885,-12.67169c4.89891,-5.68414 4.47787,-4.39343 10.27462,-5.46971z" data-paper-data="{&quot;origPos&quot;:null,&quot;origRot&quot;:0}" fill="url(#color-3)" stroke="#6c4306"/></g><path d="" data-paper-data="{&quot;origPos&quot;:null}" fill="#c1770b" stroke="#6c4306" stroke-width="1.5" stroke-linecap="butt"/><g data-paper-data="{&quot;origPos&quot;:null}" stroke-linecap="butt"><path d="M258.9692,191.85576c0,9.26372 2.84091,18.23837 -2.69239,25.3177c-3.54659,4.53753 -10.70286,3.50701 -16.20164,3.50701c-5.49877,0 -12.65505,0.73766 -16.20165,-3.79985c-5.5333,-7.07933 -2.69238,-15.76114 -2.69238,-25.02485c0,-15.91945 8.45914,-28.82471 18.89403,-28.82471c0,0 11.73737,-4.40076 15.22571,2.13104c3.4719,6.50102 3.66832,10.77421 3.66832,26.69366z" data-paper-data="{&quot;origPos&quot;:null}" fill="url(#color-4)" stroke="#001371" stroke-width="1.5"/><path d="M249.05212,175.53214c0,2.68857 1.31009,7.12666 -0.34219,8.97831c-1.7848,2.00015 -3.67346,2.91985 -6.1351,2.90548c-2.72608,-0.01592 -4.60612,-1.00217 -6.88148,-2.77355c-2.33853,-1.82055 -1.87025,-5.80478 -1.87025,-9.11024c0,-4.77054 3.40914,-8.63783 7.61452,-8.63783c4.20537,0 7.61451,3.8673 7.61451,8.63783z" data-paper-data="{&quot;origPos&quot;:null}" fill="url(#color-5)" stroke="none" stroke-width="0"/><path d="M234.41458,183.68768c0,2.23365 -1.96162,4.0444 -4.38142,4.0444c-2.4198,0 -4.38143,-1.81074 -4.38143,-4.0444c0,-2.23365 1.96163,-4.04439 4.38143,-4.04439c2.4198,0 4.38142,1.81074 4.38142,4.04439z" data-paper-data="{&quot;origPos&quot;:null}" fill="#faff66" stroke="none" stroke-width="1.5"/><path d="M257.91589,183.13296c0,2.17864 -1.9133,3.94477 -4.2735,3.94477c-2.36019,0 -4.2735,-1.76612 -4.2735,-3.94477c0,-2.17864 1.91331,-3.94477 4.2735,-3.94477c2.36019,0 4.2735,1.76612 4.2735,3.94477z" data-paper-data="{&quot;origPos&quot;:null}" fill="#faff66" stroke="none" stroke-width="1.5"/></g><path d="M271.24664,153.14604c-1.9191,13.23975 -17.06753,22.00245 -31.7432,19.87521c-14.67567,-2.12723 -29.77253,-15.43755 -27.85343,-28.6773c0.69458,-4.79191 3.12691,-16.76632 6.19472,-20.44448c7.06984,-8.4764 17.98313,-0.36374 28.60837,1.17638c0,0 17.88106,-1.52119 22.44864,8.17839c2.16752,4.60287 4.26401,6.65204 2.34491,19.8918z" data-paper-data="{&quot;origPos&quot;:null}" fill="url(#color-6)" stroke="#e0ce98" stroke-width="1" stroke-linecap="butt"/><path d="M273.03648,125.99634c5.97254,15.24195 -30.58473,6.51215 -33.47317,7.97729c-2.83683,1.43896 -1.87593,7.23413 -4.98498,6.78347c-4.35759,-0.63163 -9.26284,-0.62101 -11.09196,3.5598c-1.05855,2.41955 1.49847,7.79605 -1.03719,8.10823c-2.49791,0.30753 -5.03676,1.94953 -7.53875,1.74152c-2.02915,-0.16871 -2.06266,-2.2149 -4.07272,-2.53809c-5.72433,-0.92039 2.4967,-11.72972 2.72168,-12.32645c0.07499,-0.19891 -0.55533,-4.57603 -0.25978,-6.61499c1.60297,-11.05877 13.12291,-15.39321 20.1255,-14.37819c7.0026,1.01502 33.63881,-7.55455 39.61136,7.6874z" data-paper-data="{&quot;origPos&quot;:null}" fill="#5a3413" stroke="#351c06" stroke-width="1" stroke-linecap="butt"/><path d="M266.77046,165.07877c-0.13438,0.92704 -1.35019,2.09669 -1.5838,3.00346c-0.49615,1.92573 -2.00351,2.76011 -3.92215,2.57158c-2.11758,-0.20806 -2.69175,-2.45478 -4.77644,-2.88119c-1.44715,-0.29603 -1.77445,1.50701 -3.23614,1.29514c-1.59207,-0.23077 -1.36407,-1.6877 -2.89116,-2.19843c-2.08536,-0.69744 -3.08499,1.30252 -4.87937,0.0104c-0.93834,-0.6757 -2.1923,-3.12302 -2.67624,-4.19316c-1.53207,-3.38784 -5.7958,-8.16038 -1.27722,-8.65805c2.22322,-0.24487 7.50226,6.33081 9.71153,6.65105c0,0 3.70374,0.51973 5.52834,0.88375c4.13715,0.82537 10.63866,-0.87226 10.00266,3.51547z" data-paper-data="{&quot;origPos&quot;:null}" fill="#5a3413" stroke="#351c06" stroke-width="1" stroke-linecap="butt"/><path d="M276.01701,123.92227c-1.46694,10.12035 -12.72853,2.12757 -29.56458,-0.31281c-4.07597,-0.59082 -10.68038,6.97305 -14.75081,6.34542c-5.77065,-0.88979 -13.42176,0.62566 -17.50802,-3.33344c-2.88463,-2.79486 0.30451,-7.74088 0.85469,-11.53657c1.24296,-8.57514 10.85385,-7.30857 19.70414,-9.8028c6.43322,-1.81304 6.95581,-6.58014 13.65467,-5.60915c0,0 13.98265,0.12825 21.57023,3.98884c8.5902,4.37072 7.50663,10.14015 6.03969,20.2605z" data-paper-data="{&quot;origPos&quot;:null}" fill="url(#color-7)" stroke="#940000" stroke-width="1" stroke-linecap="butt"/><path d="M285.56879,131.18485c-0.48258,3.3293 -10.19026,-1.1908 -23.37602,-3.10208c-13.18575,-1.91126 -24.85641,-0.48995 -24.37383,-3.81925c0.48258,-3.3293 11.56295,-4.47883 24.74872,-2.56757c13.18575,1.91126 23.48371,6.15959 23.00114,9.48888z" data-paper-data="{&quot;origPos&quot;:null}" fill="url(#color-8)" stroke="#940000" stroke-width="1" stroke-linecap="butt"/><path d="M271.58534,116.89027c-0.29738,2.05163 -0.19837,3.51123 -1.91095,4.59502c-1.4782,0.93546 -8.9104,-0.44317 -10.02161,-1.52795c-1.5829,-1.54525 -0.70382,-2.60567 -0.37829,-4.85152c0.48588,-3.35204 3.63565,-5.66996 7.0352,-5.17719c3.39955,0.49276 5.76155,3.60961 5.27568,6.96165z" data-paper-data="{&quot;origPos&quot;:null}" fill="#ffffff" stroke="#a4a4a4" stroke-width="1" stroke-linecap="butt"/><path d="M260.49944,145.37401c-0.5738,3.95862 -3.10297,6.86854 -5.64905,6.49949c-2.54608,-0.36905 -4.14494,-3.87734 -3.57113,-7.83595c0.5738,-3.95862 3.10296,-6.86855 5.64905,-6.4995c2.54608,0.36905 4.14494,3.87734 3.57114,7.83596z" data-paper-data="{&quot;origPos&quot;:null}" fill="#ffffff" stroke="none" stroke-width="0" stroke-linecap="butt"/><path d="M261.38261,118.33429l2.4621,-5.04141l1.49312,3.81528l2.0757,-3.46157l1.59241,5.30194" data-paper-data="{&quot;origPos&quot;:null}" fill="none" stroke="#ba0000" stroke-width="1" stroke-linecap="round"/><path d="M253.3788,136.30114c0,0 3.55946,-0.05783 4.24572,0.16504c1.22724,0.39855 3.18157,2.25215 3.18157,2.25215" data-paper-data="{&quot;origPos&quot;:null,&quot;origRot&quot;:0}" fill="none" stroke="#351c06" stroke-width="1.5" stroke-linecap="round"/><path d="M260.57228,145.07014c-0.38081,2.62717 -2.05929,4.55834 -3.74902,4.31341c-1.68972,-0.24492 -2.75081,-2.57322 -2.36999,-5.20036c0.38081,-2.62717 2.0593,-4.55834 3.74902,-4.31341c1.68972,0.24492 2.75081,2.57322 2.36999,5.20036z" data-paper-data="{&quot;origPos&quot;:null}" fill="#1121d4" stroke="none" stroke-width="0" stroke-linecap="butt"/><path d="M260.65888,144.94164c-0.19691,1.35851 -1.06486,2.35713 -1.93862,2.23047c-0.87377,-0.12665 -1.42244,-1.33061 -1.22554,-2.68911c0.19691,-1.35851 1.06487,-2.35712 1.93862,-2.23047c0.87377,0.12665 1.42244,1.33061 1.22554,2.68911z" data-paper-data="{&quot;origPos&quot;:null}" fill="#000000" stroke="none" stroke-width="0" stroke-linecap="butt"/><path d="M267.84492,138.48652c2.11118,0.30601 3.43694,3.21503 2.96116,6.49748c-0.47579,3.28245 -2.57294,5.69532 -4.68415,5.3893c-2.11118,-0.30601 -3.43694,-3.21503 -2.96116,-6.49748c0.47579,-3.28245 2.57294,-5.69532 4.68415,-5.3893z" data-paper-data="{&quot;origPos&quot;:null,&quot;index&quot;:null}" fill="#ffffff" stroke="none" stroke-width="0" stroke-linecap="butt"/><path d="M264.82951,138.46779c0,0 1.99021,-1.01362 3.05978,-1.04155c0.5981,-0.01562 3.41448,0.86838 3.41448,0.86838" data-paper-data="{&quot;origPos&quot;:null,&quot;origRot&quot;:0,&quot;index&quot;:null}" fill="none" stroke="#351c06" stroke-width="1.5" stroke-linecap="round"/><path d="M268.98027,140.55008c1.40109,0.20309 2.28094,2.13368 1.96519,4.31207c-0.31576,2.1784 -1.70754,3.77972 -3.10865,3.57663c-1.40109,-0.20309 -2.28093,-2.13368 -1.96518,-4.31207c0.31576,-2.1784 1.70754,-3.77972 3.10864,-3.57662z" data-paper-data="{&quot;origPos&quot;:null,&quot;index&quot;:null}" fill="#1121d4" stroke="none" stroke-width="0" stroke-linecap="butt"/><path d="M270.02743,142.65309c0.72452,0.10502 1.17948,1.10333 1.0162,2.22979c-0.16328,1.12647 -0.88298,1.9545 -1.60748,1.84949c-0.72452,-0.10502 -1.17947,-1.10332 -1.01619,-2.22978c0.16328,-1.12647 0.88298,-1.9545 1.60747,-1.84949z" data-paper-data="{&quot;origPos&quot;:null,&quot;index&quot;:null}" fill="#000000" stroke="none" stroke-width="0" stroke-linecap="butt"/><path d="M278.86345,158.83787c-0.66192,4.56659 -6.51008,7.49863 -13.06223,6.5489c-6.55214,-0.94973 -11.32712,-5.42158 -10.66519,-9.98818c0.66192,-4.56659 6.51008,-7.49863 13.06223,-6.5489c6.55214,0.94973 11.32712,5.42158 10.66519,9.98818z" data-paper-data="{&quot;origPos&quot;:null}" fill="url(#color-9)" stroke="#e0ce98" stroke-width="1.5" stroke-linecap="butt"/><path d="M226.31309,143.18888c-1.29977,2.66142 -5.29184,3.2987 -8.91653,1.42338c-3.6247,-1.87532 -5.50941,-5.55307 -4.20965,-8.21451c1.29977,-2.66142 5.29184,-3.2987 8.91653,-1.42338c3.6247,1.87532 5.50941,5.55307 4.20965,8.21451z" data-paper-data="{&quot;origRot&quot;:0,&quot;origPos&quot;:null}" fill="url(#color-10)" stroke="#e0ce98" stroke-width="1.5" stroke-linecap="butt"/><g data-paper-data="{&quot;origPos&quot;:null,&quot;origRot&quot;:0}" stroke-width="1.5" stroke-linecap="butt"><path d="M227.75728,227.8254c-2.1877,2.66501 -7.1313,6.22203 -9.91185,8.27566c-3.99887,2.95345 -5.87072,2.15247 -9.87679,-1.1361c-4.02392,-3.30323 -5.53091,-3.968 -3.3951,-8.48143c1.46905,-3.10438 8.10194,-6.60646 10.27561,-9.25438c6.4188,-7.81925 9.32467,-14.3921 12.94341,-11.42148c0,0 5.42752,5.18901 5.27279,7.37968c-0.44609,6.31645 1.11072,6.81881 -5.30808,14.63806z" data-paper-data="{&quot;origPos&quot;:null}" fill="url(#color-11)" stroke="#001371"/><path d="M219.12748,242.09824c1.11124,5.92713 -3.44902,7.17688 -6.47517,6.49554c-3.66444,-0.82505 -11.29769,-7.19609 -13.68696,-12.1285c-2.38927,-4.9324 -0.17525,-4.44245 1.02954,-5.91009c2.67867,-3.2631 7.40689,-3.80953 13.39568,1.10665c5.98879,4.91618 4.62567,4.50927 5.7369,10.43641z" data-paper-data="{&quot;origPos&quot;:null}" fill="url(#color-12)" stroke="#6c4306"/></g><g data-paper-data="{&quot;origPos&quot;:null,&quot;origRot&quot;:0}" stroke-width="1.5" stroke-linecap="butt"><path d="M216.62078,186.97827c-8.80092,4.11297 -17.165,4.81633 -18.68165,1.57099c-1.51668,-3.24533 4.38841,-9.21043 13.18934,-13.32344c8.80092,-4.11297 17.165,-4.81633 18.68165,-1.57099c1.51668,3.24533 -4.38841,9.21043 -13.18934,13.32344z" data-paper-data="{&quot;origRot&quot;:0,&quot;origPos&quot;:null}" fill="url(#color-13)" stroke="#940000"/><path d="M205.10371,195.18382c-2.52216,5.25481 -8.69351,7.53395 -13.78412,5.09061c-5.0906,-2.44333 -7.17272,-8.68392 -4.65057,-13.93873c2.52216,-5.25481 8.69351,-7.53395 13.78412,-5.09061c5.0906,2.44333 7.17272,8.68392 4.65057,13.93873z" data-paper-data="{&quot;origPos&quot;:null,&quot;origRot&quot;:0}" fill="#ffffff" stroke="#bfbfbf"/></g></g></g></svg>