<svg version="1.1" xmlns="http://www.w3.org/2000/svg" xmlns:xlink="http://www.w3.org/1999/xlink" width="503.60635" height="119.71517" viewBox="0,0,503.60635,119.71517"><defs><linearGradient x1="341.67056" y1="97.52794" x2="341.67056" y2="136.44969" gradientUnits="userSpaceOnUse" id="color-1"><stop offset="0" stop-color="#25142e"/><stop offset="1" stop-color="#181818"/></linearGradient><linearGradient x1="227.67922" y1="159.01502" x2="227.67922" y2="189.06229" gradientUnits="userSpaceOnUse" id="color-2"><stop offset="0" stop-color="#25142e"/><stop offset="1" stop-color="#181818"/></linearGradient><linearGradient x1="560.34297" y1="138.72792" x2="560.34297" y2="163.8779" gradientUnits="userSpaceOnUse" id="color-3"><stop offset="0" stop-color="#25142e"/><stop offset="1" stop-color="#181818"/></linearGradient><linearGradient x1="456.26506" y1="186.19586" x2="456.26506" y2="216.24313" gradientUnits="userSpaceOnUse" id="color-4"><stop offset="0" stop-color="#25142e"/><stop offset="1" stop-color="#181818"/></linearGradient></defs><g transform="translate(-134.66896,-97.02795)"><g data-paper-data="{&quot;isPaintingLayer&quot;:true}" fill-rule="nonzero" stroke="#000000" stroke-width="1" stroke-linecap="butt" stroke-linejoin="miter" stroke-miterlimit="10" stroke-dasharray="" stroke-dashoffset="0" style="mix-blend-mode: normal"><path d="M228.47257,116.22898c0,-3.91852 -21.52706,-10.4835 12.96861,-12.28571c16.52353,-0.86327 80.42728,1.79203 100.77178,1.79203c19.82139,0 82.11648,-8.97653 98.34323,-8.1541c35.19837,1.78399 15.39719,14.68101 15.39719,18.64778c0,5.7955 -50.92331,10.49369 -113.7404,10.49369c-15.30744,0 -62.07759,10.21469 -75.40773,9.70884c-41.37273,-1.57004 -38.33267,-15.81928 -38.33267,-20.20252z" data-paper-data="{&quot;index&quot;:null}" fill="url(#color-1)"/><path d="M315.06716,173.45206c0,3.38383 2.3469,14.38412 -29.59252,15.59619c-10.29076,0.39052 -46.39694,-7.49514 -58.21416,-7.49514c-48.49429,0 -87.80668,-3.62696 -87.80668,-8.10104c0,-3.06232 -15.28635,-13.01872 11.88651,-14.39594c12.52692,-0.63491 60.61823,6.29491 75.92018,6.29491c15.70579,0 65.03899,-2.04987 77.79502,-1.38344c26.63038,1.3913 10.01166,6.45941 10.01166,9.48448z" fill="url(#color-2)"/><path d="M487.19807,150.81193c0,-2.53202 -13.9101,-6.77411 8.3799,-7.93864c10.67697,-0.55782 51.96952,1.15796 65.11548,1.15796c12.80794,0 53.06103,-5.80035 63.54623,-5.26892c22.74405,1.15275 9.94917,9.4864 9.94917,12.0496c0,3.74487 -32.905,6.78068 -73.49539,6.78068c-9.89117,0 -40.11254,6.60041 -48.72605,6.27354c-26.73372,-1.01451 -24.76934,-10.22191 -24.76934,-13.05422z" data-paper-data="{&quot;index&quot;:null}" fill="url(#color-3)"/><path d="M368.87711,200.63291c0,-3.02507 -16.61872,-8.09318 10.01166,-9.48448c12.75603,-0.66643 62.08923,1.38344 77.79502,1.38344c15.30195,0 63.39326,-6.92982 75.92018,-6.29491c27.17286,1.37722 11.88651,11.33362 11.88651,14.39594c0,4.47408 -39.31239,8.10104 -87.80668,8.10104c-11.81722,0 -47.9234,7.88566 -58.21416,7.49514c-31.93942,-1.21206 -29.59252,-12.21236 -29.59252,-15.59619z" data-paper-data="{&quot;index&quot;:null}" fill="url(#color-4)"/></g></g></svg>