<svg version="1.1" xmlns="http://www.w3.org/2000/svg" xmlns:xlink="http://www.w3.org/1999/xlink" width="82.66912" height="129.41282" viewBox="0,0,82.66912,129.41282"><defs><linearGradient x1="256.48949" y1="179.99122" x2="256.48949" y2="193.07603" gradientUnits="userSpaceOnUse" id="color-1"><stop offset="0" stop-color="#d21515"/><stop offset="1" stop-color="#940000"/></linearGradient><linearGradient x1="259.3986" y1="212.74189" x2="259.3986" y2="235.97311" gradientUnits="userSpaceOnUse" id="color-2"><stop offset="0" stop-color="#364ec7"/><stop offset="1" stop-color="#001371"/></linearGradient><linearGradient x1="278.92421" y1="215.5234" x2="278.92421" y2="239.42395" gradientUnits="userSpaceOnUse" id="color-3"><stop offset="0" stop-color="#a6680a"/><stop offset="1" stop-color="#6c4306"/></linearGradient><linearGradient x1="239.89899" y1="171.01351" x2="239.89899" y2="230.21347" gradientUnits="userSpaceOnUse" id="color-4"><stop offset="0" stop-color="#364ec7"/><stop offset="1" stop-color="#001371"/></linearGradient><linearGradient x1="241.48866" y1="176.32677" x2="241.48866" y2="196.84856" gradientUnits="userSpaceOnUse" id="color-5"><stop offset="0" stop-color="#d21515"/><stop offset="1" stop-color="#940000"/></linearGradient><linearGradient x1="240.02885" y1="132.32031" x2="240.02885" y2="182.93276" gradientUnits="userSpaceOnUse" id="color-6"><stop offset="0" stop-color="#ffefc0"/><stop offset="1" stop-color="#e0ce98"/></linearGradient><linearGradient x1="239.93559" y1="118.74421" x2="239.93559" y2="145.26002" gradientUnits="userSpaceOnUse" id="color-7"><stop offset="0" stop-color="#d21515"/><stop offset="1" stop-color="#940000"/></linearGradient><linearGradient x1="241.25791" y1="136.35084" x2="241.25791" y2="144.01437" gradientUnits="userSpaceOnUse" id="color-8"><stop offset="0" stop-color="#d21515"/><stop offset="1" stop-color="#940000"/></linearGradient><linearGradient x1="242.46588" y1="156.81726" x2="242.46588" y2="173.52716" gradientUnits="userSpaceOnUse" id="color-9"><stop offset="0" stop-color="#ffefc0"/><stop offset="1" stop-color="#e0ce98"/></linearGradient><linearGradient x1="239.96363" y1="218.89174" x2="239.96363" y2="242.94682" gradientUnits="userSpaceOnUse" id="color-10"><stop offset="0" stop-color="#364ec7"/><stop offset="1" stop-color="#001371"/></linearGradient><linearGradient x1="259.21922" y1="222.57382" x2="259.21922" y2="246.90703" gradientUnits="userSpaceOnUse" id="color-11"><stop offset="0" stop-color="#a6680a"/><stop offset="1" stop-color="#6c4306"/></linearGradient><linearGradient x1="219.57845" y1="159.68466" x2="219.57845" y2="193.14787" gradientUnits="userSpaceOnUse" id="color-12"><stop offset="0" stop-color="#d21515"/><stop offset="1" stop-color="#940000"/></linearGradient></defs><g transform="translate(-205.02453,-118.24421)"><g data-paper-data="{&quot;isPaintingLayer&quot;:true}" fill-rule="nonzero" stroke-linejoin="miter" stroke-miterlimit="10" stroke-dasharray="" stroke-dashoffset="0" style="mix-blend-mode: normal"><g data-paper-data="{&quot;origPos&quot;:null,&quot;origRot&quot;:0}" stroke-width="1.5" stroke-linecap="butt"><path d="M239.05857,185.32002c0.24715,-3.54989 8.2516,-5.88431 17.87842,-5.21405c9.62683,0.67025 17.23054,4.09134 16.9834,7.64124c-0.24716,3.5499 -8.25159,5.88432 -17.87841,5.21406c-9.62683,-0.67025 -17.23056,-4.09136 -16.98339,-7.64125z" data-paper-data="{&quot;origRot&quot;:0,&quot;origPos&quot;:null,&quot;index&quot;:null}" fill="url(#color-1)" stroke="#940000"/><path d="M268.98196,181.87402c3.84647,-4.08254 10.38097,-4.17332 14.59519,-0.20278c4.21423,3.97056 4.51236,10.49885 0.66588,14.5814c-3.84646,4.08252 -10.38097,4.17332 -14.59519,0.20278c-4.21423,-3.97056 -4.51235,-10.49886 -0.66588,-14.5814z" data-paper-data="{&quot;origPos&quot;:null,&quot;index&quot;:null}" fill="#ffffff" stroke="#bfbfbf"/></g><g data-paper-data="{&quot;origPos&quot;:null,&quot;origRot&quot;:0}" stroke-width="1.5" stroke-linecap="butt"><path d="M261.22798,214.8514c3.42423,0.70748 8.94357,3.44126 12.09564,4.95449c4.53316,2.17626 4.69015,4.20031 3.60933,9.25695c-1.08562,5.07919 -0.97716,6.71787 -6.04048,6.90733c-3.48261,0.13031 -9.74472,-4.12256 -13.14699,-4.82552c-10.04683,-2.0758 -17.32459,-1.61907 -16.34829,-6.18681c0,0 2.12446,-7.18863 4.16844,-8.06046c0,0 -0.78357,-3.755 2.38069,-4.04955c3.18616,-0.29657 3.23483,-0.07224 13.28166,2.00356z" data-paper-data="{&quot;origPos&quot;:null,&quot;origRot&quot;:0}" fill="url(#color-2)" stroke="#001371"/><path d="M278.17195,217.15508c4.61444,-3.66982 7.63828,-0.39935 8.34762,2.46734c0.85898,3.47135 -1.34687,12.84718 -4.56044,17.13646c-3.21357,4.28927 -3.73987,2.19584 -5.51552,1.85619c-3.9479,-0.75515 -6.43964,-4.49155 -4.77969,-11.80956c1.65994,-7.31802 1.89359,-5.98062 6.50803,-9.65045z" data-paper-data="{&quot;origPos&quot;:null,&quot;origRot&quot;:0}" fill="url(#color-3)" stroke="#6c4306"/></g><path d="" data-paper-data="{&quot;origPos&quot;:null}" fill="#c1770b" stroke="#6c4306" stroke-width="1.5" stroke-linecap="butt"/><g data-paper-data="{&quot;origPos&quot;:null}" stroke-linecap="butt"><path d="M258.79303,201.28822c0,9.26372 2.84091,18.23837 -2.69239,25.3177c-3.54659,4.53753 -10.70286,3.50701 -16.20164,3.50701c-5.49877,0 -12.65505,0.73766 -16.20165,-3.79985c-5.5333,-7.07933 -2.69238,-15.76114 -2.69238,-25.02485c0,-15.91945 8.45914,-28.82471 18.89403,-28.82471c0,0 11.73737,-4.40076 15.22571,2.13104c3.4719,6.50102 3.66832,10.77421 3.66832,26.69366z" data-paper-data="{&quot;origPos&quot;:null}" fill="url(#color-4)" stroke="#001371" stroke-width="1.5"/><path d="M248.87595,184.9646c0,2.68857 1.31009,7.12666 -0.34219,8.97831c-1.7848,2.00015 -3.67346,2.91985 -6.1351,2.90548c-2.72608,-0.01592 -4.60612,-1.00217 -6.88148,-2.77355c-2.33853,-1.82055 -1.87025,-5.80478 -1.87025,-9.11024c0,-4.77054 3.40914,-8.63783 7.61452,-8.63783c4.20537,0 7.61451,3.8673 7.61451,8.63783z" data-paper-data="{&quot;origPos&quot;:null}" fill="url(#color-5)" stroke="none" stroke-width="0"/><path d="M234.23841,193.12014c0,2.23365 -1.96162,4.0444 -4.38142,4.0444c-2.4198,0 -4.38143,-1.81074 -4.38143,-4.0444c0,-2.23365 1.96163,-4.04439 4.38143,-4.04439c2.4198,0 4.38142,1.81074 4.38142,4.04439z" data-paper-data="{&quot;origPos&quot;:null}" fill="#faff66" stroke="none" stroke-width="1.5"/><path d="M257.73972,192.56542c0,2.17864 -1.9133,3.94477 -4.2735,3.94477c-2.36019,0 -4.2735,-1.76612 -4.2735,-3.94477c0,-2.17864 1.91331,-3.94477 4.2735,-3.94477c2.36019,0 4.2735,1.76612 4.2735,3.94477z" data-paper-data="{&quot;origPos&quot;:null}" fill="#faff66" stroke="none" stroke-width="1.5"/></g><path d="" data-paper-data="{&quot;origPos&quot;:null}" fill="#ffffff" stroke="#a4a4a4" stroke-width="1" stroke-linecap="butt"/><path d="" data-paper-data="{&quot;origPos&quot;:null}" fill="none" stroke="#ba0000" stroke-width="1" stroke-linecap="round"/><path d="M270.1503,158.70953c0,13.37811 -13.73475,24.22323 -28.56379,24.22323c-14.82904,0 -31.67913,-11.007 -31.67913,-24.38512c0,-4.84199 0.68944,-17.04147 3.19789,-21.12167c5.78078,-9.40291 17.74496,-2.93967 28.48124,-2.93967c0,0 17.47791,-4.07051 23.38966,4.87354c2.80538,4.24433 5.17415,5.97157 5.17415,19.34969z" data-paper-data="{&quot;origPos&quot;:null}" fill="url(#color-6)" stroke="#e0ce98" stroke-width="1" stroke-linecap="butt"/><path d="M269.5278,134.38196c5.03003,9.40432 -1.73673,11.55139 -11.88128,12.30628c-5.52152,0.41087 -15.57531,-2.18669 -20.10135,1.20349c-2.60107,1.9483 -26.17661,-1.6789 -26.17661,-3.87114c0,-11.89009 10.77902,-11.68761 17.8548,-11.68761c7.07578,0 32.2072,-13.0899 40.30444,2.04897z" data-paper-data="{&quot;origPos&quot;:null}" fill="#5a3413" stroke="#351c06" stroke-width="1" stroke-linecap="butt"/><path d="M248.02045,170.61512c0,0.93673 -1.03545,2.26869 -1.13658,3.19959c-0.21477,1.97699 -1.58685,3.01897 -3.51269,3.10762c-2.12553,0.09786 -3.01604,-2.04326 -5.14035,-2.16621c-1.47465,-0.08537 -1.53991,1.74597 -3.01688,1.74597c-1.60871,0 -1.59206,-1.47457 -3.17663,-1.76096c-2.16384,-0.39108 -2.86624,1.73159 -4.82742,0.71024c-1.02557,-0.53411 -2.61762,-2.77623 -3.25007,-3.76589c-2.00221,-3.13303 -6.90647,-7.24457 -2.50601,-8.38529c2.1651,-0.56126 8.33282,5.18914 10.56518,5.18914c0,0 3.73999,-0.01695 5.59794,0.08157c4.21276,0.22336 10.4035,-2.38936 10.4035,2.04422z" data-paper-data="{&quot;origPos&quot;:null}" fill="#5a3413" stroke="#351c06" stroke-width="1" stroke-linecap="butt"/><path d="M271.18203,139.41201c0,10.22611 -12.29169,3.93148 -29.30368,3.93148c-4.11857,0 -25.80918,2.79311 -30.42112,-0.53887c-3.25572,-2.35216 -2.73868,-4.48848 -2.73868,-8.32384c0,-8.66476 8.19237,-8.36117 16.59332,-12.09918c6.1066,-2.71713 8.29835,-3.00748 15.06722,-3.00748c0,0 13.85643,-1.8789 21.91934,0.85332c9.12834,3.09325 8.8836,8.95845 8.8836,19.18456z" data-paper-data="{&quot;origPos&quot;:null}" fill="url(#color-7)" stroke="#940000" stroke-width="1" stroke-linecap="butt"/><path d="M265.38234,142.44206c0,3.36409 -10.25569,0.28331 -23.57925,0.28331c-13.32355,0 -24.66962,3.08078 -24.66962,-0.28331c0,-3.36409 10.80087,-6.09122 24.12443,-6.09122c13.32355,0 24.12443,2.72713 24.12443,6.09122z" data-paper-data="{&quot;origPos&quot;:null}" fill="url(#color-8)" stroke="#940000" stroke-width="1" stroke-linecap="butt"/><path d="M248.20654,131.58765c0,2.07307 0.30737,3.50338 -1.23203,4.82162c-1.32872,1.13783 -8.88182,0.83961 -10.13715,-0.07455c-1.7882,-1.30221 -1.07033,-2.47775 -1.07033,-4.74707c0,-3.38707 2.78469,-6.13285 6.21977,-6.13285c3.43508,0 6.21976,2.74578 6.21976,6.13285z" data-paper-data="{&quot;origPos&quot;:null}" fill="#ffffff" stroke="#a4a4a4" stroke-width="1" stroke-linecap="butt"/><path d="M238.53088,134.69473l1.71344,-5.34246l2.02498,3.56164l1.55767,-3.72353l2.3365,5.01868" data-paper-data="{&quot;origPos&quot;:null}" fill="none" stroke="#ba0000" stroke-width="1" stroke-linecap="round"/><path d="M229.21926,151.86412c0,0 3.51435,-0.56784 4.22549,-0.44572c1.27172,0.21838 3.47173,1.77246 3.47173,1.77246" data-paper-data="{&quot;origPos&quot;:null,&quot;origRot&quot;:0}" fill="none" stroke="#351c06" stroke-width="2.5" stroke-linecap="round"/><path d="M249.52982,153.64169c0,0 1.82422,-1.28863 2.87872,-1.46971c0.58967,-0.10126 3.50373,0.36959 3.50373,0.36959" data-paper-data="{&quot;origPos&quot;:null,&quot;origRot&quot;:0,&quot;index&quot;:null}" fill="none" stroke="#351c06" stroke-width="2.5" stroke-linecap="round"/><path d="M237.56087,170.70266c0,-4.43358 6.19074,-1.82086 10.4035,-2.04422c1.85795,-0.09852 5.59794,-0.08157 5.59794,-0.08157c2.23236,0 8.40008,-5.7504 10.56518,-5.18914c4.40046,1.14072 -0.5038,5.25226 -2.50601,8.38529c-0.63245,0.98966 -2.2245,3.23178 -3.25007,3.76589c-1.96118,1.02135 -2.66358,-1.10132 -4.82742,-0.71024c-1.58457,0.28639 -1.56792,1.76096 -3.17663,1.76096c-1.47697,0 -1.54223,-1.83134 -3.01688,-1.74597c-2.12431,0.12295 -3.01482,2.26407 -5.14035,2.16621c-1.92584,-0.08865 -3.29792,-1.13063 -3.51269,-3.10762c-0.10113,-0.9309 -1.13658,-2.26286 -1.13658,-3.19959z" data-paper-data="{&quot;origPos&quot;:null,&quot;index&quot;:null}" fill="#5a3413" stroke="#351c06" stroke-width="1" stroke-linecap="butt"/><path d="M254.45357,165.17221c0,4.61431 -5.36707,8.35495 -11.98769,8.35495c-6.62061,0 -11.98769,-3.74063 -11.98769,-8.35495c0,-4.61431 5.36707,-8.35495 11.98769,-8.35495c6.62061,0 11.98769,3.74063 11.98769,8.35495z" data-paper-data="{&quot;origPos&quot;:null}" fill="url(#color-9)" stroke="#e0ce98" stroke-width="1.5" stroke-linecap="butt"/><path d="M249.07981,177.61116c0,0.2178 -1.25999,3.16019 -3.04906,3.87118c-1.78907,0.71098 -4.32608,0.92489 -6.90419,0.08427c-2.57811,-0.84061 -3.17686,-1.69128 -3.17686,-3.37128c0,-1.28117 5.01632,0.03915 6.44822,0.03915c1.4319,0 6.68189,-1.90449 6.68189,-0.62332z" data-paper-data="{&quot;origPos&quot;:null}" fill="#050201" stroke="#050201" stroke-width="0.5" stroke-linecap="butt"/><g data-paper-data="{&quot;origPos&quot;:null,&quot;origRot&quot;:0}" stroke-width="1.5" stroke-linecap="butt"><path d="M242.98811,220.73524c3.26734,1.10126 8.34547,4.46345 11.25121,6.33575c4.17892,2.69266 4.09329,4.72689 2.43786,9.63838c-1.66281,4.93339 -1.75038,6.57816 -6.72778,6.18047c-3.42352,-0.27355 -9.04893,-5.23485 -12.29532,-6.32905c-9.58651,-3.23115 -16.76258,-3.61908 -15.26721,-8.05571c0,0 2.92878,-6.91419 5.0321,-7.54586c6.06459,-1.82135 5.98263,-3.45514 15.56915,-0.22399z" data-paper-data="{&quot;origPos&quot;:null}" fill="url(#color-10)" stroke="#001371"/><path d="M259.39292,223.74682c5.14864,-3.13963 7.93338,0.68177 8.3687,3.75297c0.52713,3.719 -2.72527,13.11466 -6.49083,17.09686c-3.76554,3.98219 -4.09202,1.73823 -5.89137,1.13175c-4.00061,-1.34841 -6.1872,-5.57612 -3.71246,-12.91846c2.47475,-7.34235 2.57732,-5.92349 7.72597,-9.06312z" data-paper-data="{&quot;origPos&quot;:null}" fill="url(#color-11)" stroke="#6c4306"/></g><path d="M223.54106,193.06278c-3.43365,0.92378 -7.99131,-5.78025 -10.17981,-14.97386c-2.18847,-9.19365 -1.17908,-17.39542 2.25458,-18.31918c3.43365,-0.92378 7.99131,5.78025 10.17981,14.97386c2.18847,9.19365 1.17908,17.39542 -2.25458,18.31918z" data-paper-data="{&quot;origRot&quot;:0,&quot;origPos&quot;:null}" fill="url(#color-12)" stroke="#940000" stroke-width="1.5" stroke-linecap="butt"/><path d="M206.23958,155.685c0.61424,-1.98658 2.19881,-1.0327 2.96416,-2.9661c0.46859,-1.18372 0.61796,-9.26631 0.61796,-9.26631l2.55784,-0.4679l2.68298,8.23946c0,0 1.42219,0.5738 2.67804,0.54095c0.00584,-0.00015 3.18208,-8.28452 3.18208,-8.28452l2.14715,0.50495c0,0 0.27324,7.54109 0.6009,10.10549c0.12846,1.00537 2.03218,1.31049 2.13342,2.31896c0.48593,4.84022 0.08979,6.78345 -3.86871,9.61085c-4.71824,3.37006 -11.21679,2.55359 -14.51491,-1.82364c0,0 -2.70344,-3.58799 -1.18091,-8.51218z" data-paper-data="{&quot;origPos&quot;:null,&quot;origRot&quot;:0}" fill="#ffffff" stroke="#bfbfbf" stroke-width="1.5" stroke-linecap="butt"/><path d="M244.24974,181.27984c0,0.59061 -0.90804,1.06939 -2.02815,1.06939c-1.12012,0 -2.02815,-0.47878 -2.02815,-1.06939c0,-0.59061 0.90804,-1.06939 2.02815,-1.06939c1.12012,0 2.02815,0.47878 2.02815,1.06939z" data-paper-data="{&quot;origPos&quot;:null}" fill="#ff0000" stroke="none" stroke-width="0" stroke-linecap="butt"/></g></g></svg>