<svg version="1.1" xmlns="http://www.w3.org/2000/svg" xmlns:xlink="http://www.w3.org/1999/xlink" width="122.9179" height="155.98125" viewBox="0,0,122.9179,155.98125"><defs><linearGradient x1="197.85438" y1="207.80635" x2="179.04106" y2="207.80635" gradientUnits="userSpaceOnUse" id="color-1"><stop offset="0" stop-color="#e9eaf3"/><stop offset="1" stop-color="#9ca4ab"/></linearGradient><linearGradient x1="217.70046" y1="213.30678" x2="192.90976" y2="213.30678" gradientUnits="userSpaceOnUse" id="color-2"><stop offset="0" stop-color="#e9eaf3"/><stop offset="1" stop-color="#9ca4ab"/></linearGradient><radialGradient cx="269.60663" cy="245.8834" r="14.56944" gradientUnits="userSpaceOnUse" id="color-3"><stop offset="0" stop-color="#accac8"/><stop offset="1" stop-color="#839a99"/></radialGradient><linearGradient x1="259.80003" y1="233.94503" x2="259.80003" y2="239.57241" gradientUnits="userSpaceOnUse" id="color-4"><stop offset="0" stop-color="#d2d3db"/><stop offset="1" stop-color="#a3a5ab"/></linearGradient><linearGradient x1="257.53702" y1="224.70166" x2="257.53702" y2="234.80609" gradientUnits="userSpaceOnUse" id="color-5"><stop offset="0" stop-color="#d2d3db"/><stop offset="1" stop-color="#a3a5ab"/></linearGradient><radialGradient cx="275.8858" cy="203.05444" r="11.15763" gradientUnits="userSpaceOnUse" id="color-6"><stop offset="0" stop-color="#b6d6d4"/><stop offset="1" stop-color="#839a99"/></radialGradient><radialGradient cx="288.26978" cy="211.90779" r="5.68075" gradientUnits="userSpaceOnUse" id="color-7"><stop offset="0" stop-color="#b6d6d6"/><stop offset="1" stop-color="#89a19f"/></radialGradient><radialGradient cx="281.66698" cy="214.50878" r="5.57885" gradientUnits="userSpaceOnUse" id="color-8"><stop offset="0" stop-color="#b6d6d6"/><stop offset="1" stop-color="#89a19f"/></radialGradient><radialGradient cx="293.64964" cy="206.45852" r="5.28347" gradientUnits="userSpaceOnUse" id="color-9"><stop offset="0" stop-color="#b6d6d6"/><stop offset="1" stop-color="#89a19f"/></radialGradient><radialGradient cx="293.58643" cy="201.84543" r="3.24716" gradientUnits="userSpaceOnUse" id="color-10"><stop offset="0" stop-color="#b6d6d6"/><stop offset="1" stop-color="#89a19f"/></radialGradient><radialGradient cx="268.49745" cy="197.41243" r="3.61811" gradientUnits="userSpaceOnUse" id="color-11"><stop offset="0" stop-color="#d2d3db"/><stop offset="1" stop-color="#a3a5ab"/></radialGradient><radialGradient cx="269.16912" cy="195.26309" r="6.99881" gradientUnits="userSpaceOnUse" id="color-12"><stop offset="0" stop-color="#d2d3db"/><stop offset="1" stop-color="#a3a5ab"/></radialGradient><radialGradient cx="251.91931" cy="187.78786" r="12.46491" gradientUnits="userSpaceOnUse" id="color-13"><stop offset="0" stop-color="#645d46"/><stop offset="1" stop-color="#978d69"/></radialGradient><radialGradient cx="262.08145" cy="193.30445" r="14.40414" gradientUnits="userSpaceOnUse" id="color-14"><stop offset="0" stop-color="#645d46"/><stop offset="1" stop-color="#978d69"/></radialGradient><radialGradient cx="253.0807" cy="208.69283" r="18.36514" gradientUnits="userSpaceOnUse" id="color-15"><stop offset="0" stop-color="#645d46"/><stop offset="1" stop-color="#978d69"/></radialGradient><radialGradient cx="255.40348" cy="223.79087" r="18.81118" gradientUnits="userSpaceOnUse" id="color-16"><stop offset="0" stop-color="#645d46"/><stop offset="1" stop-color="#978d69"/></radialGradient><radialGradient cx="234.20816" cy="229.88815" r="16.1122" gradientUnits="userSpaceOnUse" id="color-17"><stop offset="0" stop-color="#645d46"/><stop offset="1" stop-color="#978d69"/></radialGradient><linearGradient x1="247.06043" y1="197.5379" x2="208.43008" y2="197.5379" gradientUnits="userSpaceOnUse" id="color-18"><stop offset="0" stop-color="#9299a0"/><stop offset="1" stop-color="#e5f0fb"/></linearGradient><radialGradient cx="212.53331" cy="185.43574" r="10.30069" gradientUnits="userSpaceOnUse" id="color-19"><stop offset="0" stop-color="#a6a7ad"/><stop offset="1" stop-color="#74757a"/></radialGradient><radialGradient cx="225.16738" cy="167.99338" r="9.21465" gradientUnits="userSpaceOnUse" id="color-20"><stop offset="0" stop-color="#a6a7ad"/><stop offset="1" stop-color="#74757a"/></radialGradient><radialGradient cx="227.16496" cy="175.67207" r="2.96811" gradientUnits="userSpaceOnUse" id="color-21"><stop offset="0" stop-color="#a6a7ad"/><stop offset="1" stop-color="#74757a"/></radialGradient><radialGradient cx="205.89041" cy="202.24843" r="13.1884" gradientUnits="userSpaceOnUse" id="color-22"><stop offset="0" stop-color="#a6a7ad"/><stop offset="1" stop-color="#74757a"/></radialGradient><radialGradient cx="213.95042" cy="199.72629" r="2.13332" gradientUnits="userSpaceOnUse" id="color-23"><stop offset="0" stop-color="#a6a7ad"/><stop offset="1" stop-color="#74757a"/></radialGradient><radialGradient cx="235.77406" cy="245.07061" r="16.61441" gradientUnits="userSpaceOnUse" id="color-24"><stop offset="0" stop-color="#accac8"/><stop offset="1" stop-color="#839a99"/></radialGradient><linearGradient x1="227.16884" y1="232.04884" x2="227.16884" y2="238.81277" gradientUnits="userSpaceOnUse" id="color-25"><stop offset="0" stop-color="#d2d3db"/><stop offset="1" stop-color="#a3a5ab"/></linearGradient><linearGradient x1="225.52342" y1="222.23029" x2="225.52342" y2="233.08379" gradientUnits="userSpaceOnUse" id="color-26"><stop offset="0" stop-color="#d2d3db"/><stop offset="1" stop-color="#a3a5ab"/></linearGradient><linearGradient x1="264.68598" y1="156.25924" x2="259.04525" y2="180.5018" gradientUnits="userSpaceOnUse" id="color-27"><stop offset="0" stop-color="#9da5ac"/><stop offset="1" stop-color="#838a90"/></linearGradient><linearGradient x1="261.78393" y1="102.67875" x2="252.33493" y2="143.28841" gradientUnits="userSpaceOnUse" id="color-28"><stop offset="0" stop-color="#d2d3db"/><stop offset="1" stop-color="#bdc0c7"/></linearGradient><radialGradient cx="269.44898" cy="120.94063" r="5.1506" gradientUnits="userSpaceOnUse" id="color-29"><stop offset="0" stop-color="#d5e20f"/><stop offset="1" stop-color="#d5e20f" stop-opacity="0"/></radialGradient><radialGradient cx="259.47488" cy="121.75572" r="6.53642" gradientUnits="userSpaceOnUse" id="color-30"><stop offset="0" stop-color="#d5e20f"/><stop offset="1" stop-color="#d5e20f" stop-opacity="0"/></radialGradient><linearGradient x1="272.22066" y1="120.57823" x2="260.68314" y2="170.16384" gradientUnits="userSpaceOnUse" id="color-31"><stop offset="0" stop-color="#e9eaf3"/><stop offset="1" stop-color="#9ca4ab"/></linearGradient><linearGradient x1="277.08439" y1="158.20102" x2="274.64731" y2="165.89828" gradientUnits="userSpaceOnUse" id="color-32"><stop offset="0" stop-color="#000000"/><stop offset="1" stop-color="#000000" stop-opacity="0"/></linearGradient><radialGradient cx="235.6354" cy="199.15376" r="4.28242" gradientUnits="userSpaceOnUse" id="color-33"><stop offset="0" stop-color="#d2d3db"/><stop offset="1" stop-color="#a3a5ab"/></radialGradient><radialGradient cx="233.6204" cy="194.31775" r="9.15743" gradientUnits="userSpaceOnUse" id="color-34"><stop offset="0" stop-color="#d2d3db"/><stop offset="1" stop-color="#a3a5ab"/></radialGradient><radialGradient cx="243.71863" cy="206.00163" r="12.54263" gradientUnits="userSpaceOnUse" id="color-35"><stop offset="0" stop-color="#b6d6d4"/><stop offset="1" stop-color="#839a99"/></radialGradient><radialGradient cx="257.63985" cy="215.95396" r="6.38591" gradientUnits="userSpaceOnUse" id="color-36"><stop offset="0" stop-color="#b6d6d6"/><stop offset="1" stop-color="#89a19f"/></radialGradient><radialGradient cx="250.21743" cy="218.87781" r="6.27135" gradientUnits="userSpaceOnUse" id="color-37"><stop offset="0" stop-color="#b6d6d6"/><stop offset="1" stop-color="#89a19f"/></radialGradient><radialGradient cx="263.68751" cy="209.82826" r="5.9393" gradientUnits="userSpaceOnUse" id="color-38"><stop offset="0" stop-color="#b6d6d6"/><stop offset="1" stop-color="#89a19f"/></radialGradient><radialGradient cx="263.61645" cy="204.64255" r="3.65023" gradientUnits="userSpaceOnUse" id="color-39"><stop offset="0" stop-color="#b6d6d6"/><stop offset="1" stop-color="#89a19f"/></radialGradient></defs><g transform="translate(-178.66605,-102.00937)"><g data-paper-data="{&quot;isPaintingLayer&quot;:true}" fill-rule="nonzero" stroke-linecap="butt" stroke-linejoin="miter" stroke-miterlimit="10" stroke-dasharray="" stroke-dashoffset="0" style="mix-blend-mode: normal"><g data-paper-data="{&quot;index&quot;:null}" stroke="#747474" stroke-width="0.75"><path d="M183.27904,207.58774c0,-1.73998 -2.4774,-3.02732 -3.256,-4.35536c-1.52658,-2.60384 -1.49721,-4.53505 1.7013,-4.53505c2.29762,0 3.4083,0.80762 6.99803,2.57142c3.95629,1.94391 9.40067,3.9186 9.40067,3.9186c0,0 -2.99758,2.75241 -3.74311,4.69088c-0.83723,2.17691 -1.30582,6.93243 -1.30582,6.93243c0,0 -2.49174,0.1047 -3.18757,0.1047c-2.36056,0 -2.42003,-1.76756 -3.85095,-3.2822c-1.49685,-1.5844 -2.75655,-3.41168 -2.75655,-6.04543z" fill="url(#color-1)"/><path d="M194.55064,210.18227c0,-1.80412 3.49995,-5.19189 3.49995,-5.19189c0,0 3.48868,-0.93621 4.92002,-0.95178c1.53994,-0.01675 4.01766,0.85455 4.01766,0.85455c0,0 0.38924,5.18423 2.79411,8.77943c2.35589,3.52198 7.91809,5.83606 7.91809,5.83606l-5.38691,2.35225c0,0 -4.82381,-0.64702 -5.51964,-0.64702c-2.36056,0 -6.50112,2.39856 -7.93204,0.82808c-0.9656,-1.05977 -5.94768,-5.67323 -5.94768,-5.67323c0,0 -0.07664,-2.23404 0.40775,-4.04991c0.25584,-0.95911 1.22868,-1.80156 1.22868,-2.13654z" fill="url(#color-2)"/></g><g data-paper-data="{&quot;index&quot;:null}" stroke-width="0.75"><path d="M250.35629,241.16357c0,0 -1.94804,-4.39801 0.97233,-4.76706c0.39919,-0.05045 3.91138,-0.17344 3.91138,-0.17344l0.01738,1.85781c0,0 3.55342,1.42591 4.10823,1.42591c2.6677,0 4.88039,-0.95468 4.88039,-0.95468c0,0 1.547,0.23302 2.06268,0.64471c0.60232,0.48085 1.33189,2.06526 1.33189,2.06526c0,0 -2.92265,2.13143 -7.14656,2.13143c-3.67111,0 -10.13772,-2.22994 -10.13772,-2.22994z" fill="#627372" stroke="#222828"/><path d="M247.55483,251.55613c0,0 -1.61605,-1.19079 -1.80401,-2.96421c-0.13732,-1.2956 1.08137,-3.13293 1.30293,-3.89908c0.3268,-1.13004 2.88844,-3.39357 2.88844,-3.39357l8.4839,1.58673c0,0 2.43925,0.43796 4.40837,-0.57102c1.83197,-0.93871 3.65782,-1.05288 3.88052,-1.05288c3.05476,0 5.86443,0.50162 6.88636,2.51817c0.56088,1.10677 1.23287,2.54339 1.27371,3.91313c0.06931,2.32464 -0.80858,4.45664 -0.80858,4.45664c0,0 -7.64719,1.18777 -15.22393,1.18777c-7.57673,0 -11.2877,-1.78167 -11.2877,-1.78167z" fill="url(#color-3)" stroke="#4a5957"/><path d="M247.54655,251.55364c0,0 1.84499,1.46033 6.31165,1.51162c0.09461,0.00108 9.35634,0.22563 9.44555,0.22563c3.80116,0 10.58506,-1.08851 10.58506,-1.08851l-0.14523,1.86477c0,0 -3.94147,1.29891 -10.52716,1.29891c-6.58569,0 -15.67967,-1.67224 -15.67967,-1.67224z" fill="#a06025" stroke="#3f260f"/><path d="M255.62842,234.76058c0,0 3.16627,-0.81555 4.10116,-0.81555c0.79424,0 4.49389,0.91836 4.58512,2.65132c0.03652,0.69358 -1.00763,0.69044 -0.63606,1.06068c0.39666,0.39524 0.54339,0.87503 0.54339,0.87503c0,0 -2.73411,1.04035 -4.82347,1.04035c-2.08936,0 -4.11413,-1.56053 -4.11413,-1.56053z" fill="url(#color-4)" stroke="#747474"/><path d="M255.40485,234.80607c0,0 -0.87288,-1.82076 -0.97748,-2.63899c-0.04922,-0.38503 0.04679,-1.41887 -0.38503,-2.49164c-0.63257,-1.57151 -1.4257,-2.02639 -1.85389,-2.70293c-0.1133,-0.17901 -0.47659,-1.60692 -0.47659,-1.60692c0,0 5.1292,-0.66393 6.06409,-0.66393c0.33609,0 1.00118,1.40376 2.09082,2.40516c1.48531,1.36502 3.44166,2.55144 3.49429,3.67004c0.03652,0.77613 -0.83341,3.74098 -0.83341,3.74098c0,0 -1.84523,-0.53506 -3.93459,-0.53506c-0.69634,0 -1.28267,0.34013 -1.75496,0.46207c-0.94479,0.24395 -1.43325,0.36124 -1.43325,0.36124z" fill="url(#color-5)" stroke="#747474"/></g><g data-paper-data="{&quot;index&quot;:null}" stroke-width="0.75"><path d="M266.80034,205.60078c-0.39524,-1.44671 -0.2972,-3.14646 -0.3012,-3.25482c-0.03963,-1.07434 1.42539,-3.42609 2.96789,-4.93839c1.09039,-1.06905 2.63065,-1.58703 3.31692,-1.85817c1.755,-0.6934 4.34954,1.71035 4.34954,1.71035c0,0 1.89813,-0.5602 3.91586,-0.41311c2.20242,0.16055 7.73839,1.85258 7.645,2.19758c-0.05607,0.20715 -3.92474,1.35203 -2.96649,3.43206c0.68113,1.4785 3.07854,3.31302 3.07854,3.31302c0,0 -6.79416,-2.9586 -7.00697,-1.93818c-0.46987,2.25297 2.13219,5.03985 2.13219,5.03985l-1.00819,0.08357c0,0 -4.60515,-3.5607 -4.914,-2.97449c-1.47523,2.79999 0.73617,5.74477 0.73617,5.74477c0,0 -3.56003,0.2582 -5.92578,-0.60429c-2.10032,-0.76572 -3.18491,-2.12996 -3.18491,-2.12996c0,0 -0.79429,-0.42589 -1.45117,-1.07528c-0.64663,-0.63925 -1.15418,-1.49541 -1.38342,-2.33451z" fill="url(#color-6)" stroke="#4a5957"/><path d="M285.6656,212.20434c-0.78472,-1.98611 -5.47198,-7.83862 -4.04949,-8.40065c0.78087,-0.30853 4.15606,0.23013 6.34588,1.83917c1.79933,1.3221 1.85898,3.99637 2.21293,4.89222c0.78472,1.9861 0.90965,3.68578 -0.51284,4.24781c-0.84994,0.33581 -2.43436,0.52203 -3.25366,-0.17899c-0.55193,-0.47224 -0.42699,-1.60012 -0.74283,-2.39955z" fill="url(#color-7)" stroke="#4a5957"/><path d="M278.99604,214.77156c-0.07284,-0.60791 0.66411,-1.15683 0.40575,-2.1877c-0.28662,-1.14361 -1.26019,-2.18242 -1.65339,-3.36032c-0.54609,-1.63588 -0.32406,-3.30042 0.34675,-3.38078c0.8724,-0.10451 5.12998,3.27916 5.12998,3.27916c0,0 0.98699,2.48057 0.92514,3.75283c-0.01738,0.35757 -0.22652,3.5422 -1.81574,3.73258c-0.94955,0.11375 -1.78201,0.85897 -2.42472,-0.0685c-0.43297,-0.6248 -0.80679,-0.87416 -0.91378,-1.76727z" fill="url(#color-8)" stroke="#4a5957"/><path d="M290.82949,207.77634c-0.33404,-0.84546 -1.81901,-1.68296 -3.03858,-2.80202c-1.6217,-1.48802 -2.32794,-3.34978 -2.32794,-3.34978c0,0 1.33749,-3.04349 3.50921,-1.44776c0.62191,0.45696 1.82795,0.30209 2.82152,0.99338c0.81563,0.56748 1.40873,1.97136 2.0944,2.48282c0.87572,0.65322 1.44058,1.10462 1.56884,1.42925c0.77823,1.96969 0.90214,3.65531 -0.5086,4.21269c-0.84291,0.33304 -2.41424,0.51771 -3.22677,-0.17751c-0.54737,-0.46834 -0.57887,-0.54826 -0.8921,-1.34108z" fill="url(#color-9)" stroke="#4a5957"/><path d="M291.9876,201.43574c-1.42209,-0.88948 -4.21854,-1.85269 -4.21854,-1.85269l1.09769,-0.47506c0,0 1.03977,0.55191 1.58551,0.6999c1.06582,0.28903 2.40974,0.19488 3.0573,0.5999c1.4221,0.88947 0.39548,3.11199 0.39548,3.11199c0,0 -0.38201,-0.41332 -0.9214,-1.09023c-0.24067,-0.30202 -0.55728,-0.71938 -0.99603,-0.99381z" fill="url(#color-10)" stroke="#4a5957"/><path d="M266.48763,203.41916c0,0 -0.91876,-1.34787 -1.00522,-2.65269c-0.04001,-0.60388 0.49666,-1.25988 0.63765,-1.73803c0.44563,-1.51128 2.02819,-2.21862 2.79997,-2.68448c0.65568,-0.39578 1.61542,0.06258 1.61542,0.06258c0,0 -2.45442,2.4758 -2.49647,2.54865c-0.70393,1.2195 -1.55136,4.46397 -1.55136,4.46397z" data-paper-data="{&quot;index&quot;:null}" fill="url(#color-11)" stroke="#747474"/><path d="M268.73872,193.25425c0.1542,0.17501 0.37027,1.10129 0.82262,1.56222c0.61227,0.62389 1.10705,1.15637 1.11062,1.45594c0.00185,0.15493 -1.56426,-0.19551 -2.31554,0.36103c-0.37557,0.27821 -0.9655,0.51803 -1.40138,1.0288c-0.46946,0.55012 -0.94096,1.17543 -1.17422,1.82838c-0.41656,1.16604 -0.37785,2.2882 -0.37785,2.2882c0,0 -1.27802,-0.00007 -1.7639,-0.46099c-0.32404,-0.3074 -1.02193,-1.25438 -1.26063,-2.25171c-0.25608,-1.06994 -0.04269,-2.21509 -0.07877,-3.21945c-0.00296,-0.08264 -0.59011,-1.15974 -0.58868,-1.23543c0.01148,-0.60828 -1.36812,-2.75034 -1.07175,-4.30034c0.18659,-0.97584 1.90129,-1.40896 2.33321,-2.04423c0.41522,-0.6107 2.64139,-0.47192 2.64139,-0.47192c0,0 0.64247,0.56385 1.20257,1.03835c0.26162,0.22164 0.50529,0.4238 0.6571,0.53988c0.3616,0.2765 0.6559,1.28532 0.9294,1.86456c0.43289,0.91681 0.11422,1.76525 0.3358,2.01672z" data-paper-data="{&quot;index&quot;:null}" fill="url(#color-12)" stroke="#747474"/></g><g data-paper-data="{&quot;index&quot;:null}"><path d="M204.00585,197.06323c-2.66178,-12.89085 4.64395,-25.29504 16.31783,-27.70554c11.67388,-2.4105 18.41158,-11.79637 21.07337,1.09448c2.66179,12.89085 -16.5049,46.9748 -28.17878,49.3853c-11.67387,2.4105 -6.55062,-9.88339 -9.21241,-22.77424z" fill="#000000" stroke="#000000" stroke-width="0.5"/><path d="M244.06687,180.62344l2.75199,-5.55027l7.27393,-0.3809c0,0 10.62022,2.39442 12.84001,8.38924c0.04083,0.11027 2.73176,12.12937 0.22839,21.93033c-3.44178,13.47496 -12.91559,26.00092 -18.19397,27.09083c-2.70735,0.55903 -9.72383,2.53843 -15.97123,1.46468c-6.12227,-1.05225 -11.49637,-5.10216 -12.28214,-9.9366c-1.11274,-6.84615 14.19563,-26.4059 14.19563,-26.4059z" fill="#000000" stroke="none" stroke-width="0"/><path d="M254.31778,190.76095c-2.72539,-0.8542 -6.25364,-2.60699 -8.5856,-4.21836c-1.92457,-1.32986 -2.92804,-2.63425 -2.92804,-2.63425c0,0 0.83823,-1.8065 1.27158,-2.62554c0.45319,-0.85654 1.3907,-2.40624 1.3907,-2.40624c0,0 7.40687,5.68617 11.09661,5.87515c3.68974,0.18898 10.41248,-0.61154 10.41248,-0.61154c0,0 0.55781,1.51329 0.67793,2.32309c0.13164,0.88745 0.08051,2.79001 0.08051,2.79001c0,0 -8.44152,3.06686 -13.41618,1.50768z" fill="url(#color-13)" stroke="none" stroke-width="NaN"/><path d="M267.67027,194.35958c0,0 -10.42498,3.49194 -14.15231,2.15765c-3.28342,-1.17538 -7.35684,-3.13133 -8.52693,-3.61715c-3.26315,-1.35484 -6.12904,-4.94294 -6.12904,-4.94294l3.35402,-4.4049c0,0 7.40829,6.39275 12.6592,6.6617c3.68974,0.18898 12.97737,-1.1705 12.97737,-1.1705c0,0 0.25577,2.26157 0.2229,3.22017c-0.02652,0.77338 -0.40521,2.09599 -0.40521,2.09599z" fill="url(#color-14)" stroke="none" stroke-width="NaN"/><path d="M249.36352,212.2488c-8.4838,-0.60794 -18.47985,-5.28662 -18.47985,-5.28662l3.51527,-7.05295c0,0 4.47126,2.04148 9.72217,2.31043c3.68974,0.18897 10.23607,2.36507 13.98421,1.2349c3.74814,-1.13017 9.50864,-1.87591 9.50864,-1.87591c0,0 -0.7691,8.50621 -2.42309,10.1769c-2.13945,2.16107 -7.34356,1.1012 -15.82735,0.49326z" fill="url(#color-15)" stroke="none" stroke-width="NaN"/><path d="M255.81499,226.97472c0,0 -11.52784,-0.27693 -17.35331,-2.09059c-5.82547,-1.81366 -13.59685,-7.71617 -13.59685,-7.71617l4.28822,-7.13529c0,0 7.67451,5.88466 14.76086,7.22359c6.03013,1.13936 18.57327,-0.2371 18.57327,-0.2371c0,0 -1.57229,3.9382 -2.71708,5.64633c-1.07487,1.60382 -3.95512,4.30924 -3.95512,4.30924z" fill="url(#color-16)" stroke="none" stroke-width="NaN"/><path d="M242.46369,233.4903c-3.90539,0.89414 -11.36498,-0.09606 -11.36498,-0.09606c-4.97466,-1.55918 -10.0432,-10.3135 -10.0432,-10.3135l1.95065,-4.2201c0,0 3.1837,6.67659 10.85255,9.23515c0.10227,0.03412 5.32241,1.06663 10.57154,1.43123c4.31434,0.29967 8.84967,-0.05326 8.84967,-0.05326l-3.9478,2.68161c0,0 -4.38433,0.76618 -6.86843,1.33492z" fill="url(#color-17)" stroke="none" stroke-width="NaN"/><path d="M228.95315,181.80115c0,0 3.69062,-6.89814 3.96092,-7.30912c1.16435,-1.77033 6.19941,-7.77135 6.19941,-7.77135c0,0 1.03805,2.50389 3.62959,5.12008c1.90996,1.92813 4.31736,2.28298 4.31736,2.28298c0,0 -5.2861,10.62623 -11.16859,21.44719c-3.02874,5.57145 -5.47629,11.79705 -8.54791,16.95472c-5.31003,8.91625 -10.4446,15.37985 -12.4178,15.78729c-1.79865,0.3714 -8.35297,-1.65713 -5.98752,-8.17562c4.64613,-12.80335 20.01454,-38.33615 20.01454,-38.33615z" fill="url(#color-18)" stroke="#747474" stroke-width="1"/><path d="M210.68679,182.0426l2.58266,0.24695l-0.9806,-4.31294l2.68536,-3.30997c0,0 5.0259,-0.3262 6.68027,1.76573c1.34277,1.69792 2.29549,4.12648 2.46734,4.95875c0.76679,3.71349 -4.22483,13.2527 -6.99019,13.82371c-1.6242,0.33537 -5.19551,-1.80049 -6.32,-4.47794c-0.79007,-1.88118 -2.14039,-6.15543 -2.14039,-6.15543z" fill="url(#color-19)" stroke="#343434" stroke-width="0.75"/><path d="M227.58742,172.97732c0,0 -3.13087,-1.12 -4.54483,-1.44801c-2.01249,-0.46687 -4.05276,0.03192 -4.0127,-1.14724c0.0682,-2.00763 5.70144,-6.38924 8.39741,-6.29765c0.60422,0.02052 4.92142,-2.33173 6.27328,-1.59415c1.66557,0.90874 3.75803,2.07521 3.75803,2.07521c0,0 -0.32301,3.27147 -1.3613,4.22305c-0.43065,0.39468 -4.33631,2.39518 -4.33631,2.39518l-3.18725,0.69984z" data-paper-data="{&quot;index&quot;:null}" fill="url(#color-20)" stroke="#343434" stroke-width="0.75"/><path d="M227.03041,179.41596l-1.99044,-4.69448c0,0 0.89445,-0.77071 1.8384,-0.99658c0.73061,-0.17482 3.35104,-0.24516 3.35104,-0.24516z" fill="url(#color-21)" stroke="#343434" stroke-width="0.75"/><path d="M212.68306,206.91716c0,0 -1.82152,3.62948 -2.45712,5.33956c-0.90465,2.43394 -0.79918,5.28931 -2.03138,4.76672c-2.09794,-0.88976 -5.54969,-9.97215 -4.89937,-13.4457c0.14575,-0.77849 -1.44164,-7.33784 -0.38795,-8.80365c1.2982,-1.80598 2.95525,-4.06493 2.95525,-4.06493c0,0 3.37508,1.72572 4.16276,3.45718c0.3267,0.71817 1.62861,6.60133 1.62861,6.60133l0.08128,4.42893z" data-paper-data="{&quot;index&quot;:null}" fill="url(#color-22)" stroke="#343434" stroke-width="0.75"/><path d="M214.46377,202.9053l-1.43063,-3.37416c0,0 0.6429,-0.55395 1.32136,-0.71629c0.52513,-0.12565 2.40856,-0.1762 2.40856,-0.1762z" fill="url(#color-23)" stroke="#343434" stroke-width="0.75"/></g><g data-paper-data="{&quot;index&quot;:null}" stroke-width="0.75"><path d="M217.16355,240.77824c0,0 -2.04498,-5.3392 1.09345,-5.78279c0.429,-0.06063 4.20344,-0.20846 4.20344,-0.20846l0.01868,2.23303c0,0 3.81873,1.71389 4.41497,1.71389c2.8669,0 5.2448,-1.14749 5.2448,-1.14749c0,0 1.66251,0.28009 2.21669,0.77492c0.6473,0.57797 1.43134,2.48238 1.43134,2.48238c0,0 -3.14087,2.56191 -7.68017,2.56191c-4.53929,0 -10.9432,-2.62739 -10.9432,-2.62739z" fill="#627372" stroke="#222828"/><path d="M213.54762,253.085c0,0 -1.84286,-1.41605 -2.05721,-3.52493c-0.1566,-1.54069 1.23314,-3.72557 1.4858,-4.63665c0.37267,-1.3438 3.29386,-4.03551 3.29386,-4.03551l9.67469,1.88688c0,0 2.78164,0.52082 5.02714,-0.67903c2.08909,-1.11628 4.17122,-1.25205 4.42518,-1.25205c3.48353,0 6.68755,0.59653 7.85292,2.99453c0.6396,1.31613 1.40592,3.0245 1.45249,4.65334c0.07903,2.76437 -0.92208,5.29966 -0.92208,5.29966c0,0 -8.72054,1.41246 -17.36074,1.41246c-8.64019,0 -12.87203,-2.11868 -12.87203,-2.11868z" fill="url(#color-24)" stroke="#4a5957"/><path d="M213.5382,253.08204c0,0 2.10395,1.73656 7.19754,1.79755c0.1079,0.00129 10.6696,0.26832 10.77133,0.26832c4.33467,0 12.07076,-1.29442 12.07076,-1.29442l-0.16562,2.21752c0,0 -4.49468,1.54461 -12.00473,1.54461c-7.51006,0 -17.88046,-1.98856 -17.88046,-1.98856z" fill="#a06025" stroke="#3f260f"/><path d="M222.89928,233.0291c0,0 3.2406,-0.98026 4.19744,-0.98026c0.8129,0 4.59939,1.10383 4.69277,3.1868c0.03738,0.83366 -1.03129,0.82988 -0.651,1.2749c0.40597,0.47506 0.55615,1.05176 0.55615,1.05176c0,0 -2.7983,1.25047 -4.93671,1.25047c-2.13839,0 -4.21071,-1.87571 -4.21071,-1.87571z" fill="url(#color-25)" stroke="#747474"/><path d="M222.78968,230.24917c-0.04326,-0.41357 0.04113,-1.52406 -0.33849,-2.67636c-0.5561,-1.68803 -1.25335,-2.17663 -1.62978,-2.90332c-0.0996,-0.19227 -0.41898,-1.72603 -0.41898,-1.72603c0,0 4.50917,-0.71317 5.33105,-0.71317c0.29546,0 0.88016,1.50782 1.83808,2.58346c1.30576,1.46622 3.02563,2.7406 3.07189,3.94212c0.03211,0.83366 -0.73266,4.0183 -0.73266,4.0183c0,0 -1.62219,-0.57472 -3.45897,-0.57472c-0.61218,0 -1.12762,0.36533 -1.54282,0.49632c-0.83059,0.26203 -1.26,0.38802 -1.26,0.38802c0,0 -0.76737,-1.95575 -0.85932,-2.83462z" fill="url(#color-26)" stroke="#747474"/></g><g data-paper-data="{&quot;index&quot;:null}"><path d="M244.56716,155.4737c0.92507,-3.97574 11.46329,-4.92119 23.53777,-2.11171c6.50861,1.51442 14.41847,3.35836 18.07773,5.7763c3.12924,2.06772 2.53648,4.67676 2.11006,6.50942c-0.92507,3.97574 -11.46328,4.92119 -23.53776,2.11171c-6.45981,-1.50306 -13.78103,0.03682 -17.44207,-2.36114c-3.18207,-2.08425 -3.17588,-8.07584 -2.74572,-9.92458z" fill="#000000" stroke="none" stroke-width="0"/><path d="M241.08885,159.8415l5.56444,5.73932c0,0 1.96686,-12.43819 2.97557,-12.79185c0.73448,-0.25751 3.19139,4.14043 5.69761,6.62618c1.86264,1.84743 4.26154,3.40746 4.26154,3.40746l2.97535,2.33719l2.7394,-6.32793c0,0 10.36581,0.28558 13.79607,1.27739c3.25276,0.94048 10.49176,2.1347 10.49176,2.1347c0,0 -0.48742,5.09116 -3.41752,8.11022c-5.61735,5.78791 -18.4066,12.17687 -27.04351,10.16725c-5.65734,-1.31635 -11.66361,-4.30016 -15.01025,-7.52597c-4.42762,-4.26776 -7.2184,-10.78544 -7.2184,-10.78544z" fill="url(#color-27)" stroke="none" stroke-width="0"/><path d="M240.60774,117.89315c1.34145,-5.76525 6.25527,-11.99068 10.26653,-14.29611c2.69929,-1.55139 3.41433,-1.11725 5.72346,-0.67344c2.30913,0.44382 4.19307,2.40775 4.19307,2.40775c0,0 4.04463,-3.59098 7.70606,-0.43994c3.66143,3.15104 3.10347,6.27207 4.39354,10.85291c1.3794,4.89801 1.30212,9.40118 1.30212,9.40118c0,0 -6.98567,3.52226 -11.31271,6.18351c-2.20762,1.35774 -13.36446,8.59155 -15.47866,8.09962c-2.87152,-0.66814 -10.45582,0.27895 -10.45582,0.27895c0,0 2.44799,-16.59513 3.66242,-21.81445z" fill="url(#color-28)" stroke="#747474" stroke-width="1"/><path d="M272.59575,125.8493l-4.37316,1.58221c0,0 -1.29525,-6.24028 -1.50815,-9.55233c-0.07833,-1.21855 -0.63197,-2.91451 -0.62755,-4.38334c0.00699,-2.32424 0.60934,-4.26639 0.60934,-4.26639c0,0 1.44703,1.33531 3.33355,3.63822c1.19721,1.46145 1.25125,3.90324 1.6552,5.10298c0.84261,2.50254 0.91078,7.87865 0.91078,7.87865z" fill="#000000" stroke="none" stroke-width="0"/><path d="M268.82338,115.55485c1.2333,-0.09085 2.40903,2.22388 2.62607,5.1701c0.21705,2.94621 -0.6068,5.40824 -1.8401,5.49909c-1.2333,0.09086 -2.40903,-2.22386 -2.62607,-5.17008c-0.21704,-2.94622 0.6068,-5.40826 1.8401,-5.49911z" fill="url(#color-29)" stroke="none" stroke-width="0"/><path d="M249.3349,119.52354c0.62322,-2.67846 0.92069,-8.27811 2.19742,-9.94013c1.49572,-1.94711 3.93518,-2.26406 5.54385,-1.88975c2.9818,0.69381 6.62292,15.92668 5.26958,21.74305c-1.35335,5.81637 -6.63435,5.48268 -9.61615,4.78888c-2.98181,-0.6938 -4.74804,-8.88566 -3.3947,-14.70203z" fill="#000000" stroke="none" stroke-width="0"/><path d="M256.34575,121.89954c-0.27544,-3.73892 0.77006,-6.86338 2.33519,-6.97868c1.56513,-0.1153 3.0572,2.82224 3.33264,6.56116c0.27545,3.73893 -0.77006,6.86338 -2.33519,6.97868c-1.56513,0.1153 -3.05719,-2.82223 -3.33263,-6.56115z" fill="url(#color-30)" stroke="none" stroke-width="0"/><path d="M229.90827,155.94821c0.49407,-2.12339 0.35318,-5.32766 1.22267,-8.40515c0.64762,-2.2922 2.1024,-4.4984 3.47861,-6.21907c2.70849,-3.3864 11.1945,-3.07002 13.46606,-2.66021c2.27156,0.40982 13.64257,-8.03449 20.30696,-11.01239c9.61762,-4.2975 7.95661,-4.48759 15.02053,-4.29544c7.09042,0.19289 14.79588,9.94097 17.02698,14.61437c0.90676,1.89935 1.14556,8.79574 -1.11173,14.98972c-2.58199,7.08492 -7.77845,13.43128 -7.77845,13.43128c0,0 -2.39433,-5.73932 -12.55768,-8.37018c-1.07461,-0.27817 -11.77617,-0.83306 -11.77617,-0.83306c0,0 -3.47864,8.42248 -5.22096,8.26133c-1.87262,-0.1732 -5.65208,-9.26699 -5.65208,-9.26699l-2.65911,1.23716c0,0 -2.30151,-3.95961 -3.63862,-4.38945c-0.51556,-0.16574 -2.14561,12.63426 -2.77547,12.46764c-1.73794,-0.45975 -5.24678,-5.11947 -5.24678,-5.11947l-3.83602,3.96511c0,0 -2.04886,0.63049 -3.65233,-0.57799c-2.5825,-1.94634 -4.90916,-6.55897 -4.6164,-7.81717z" fill="url(#color-31)" stroke="#747474" stroke-width="1"/><path d="M269.00434,118.33728c0.74181,-0.05464 1.449,1.33764 1.57955,3.10976c0.13055,1.77212 -0.36499,3.25301 -1.1068,3.30765c-0.74181,0.05464 -1.449,-1.33764 -1.57955,-3.10976c-0.13055,-1.77212 0.36498,-3.253 1.1068,-3.30765z" fill="#d5e20f" stroke="none" stroke-width="0"/><path d="M257.8237,121.81331c-0.1417,-1.92341 0.39614,-3.53073 1.20129,-3.59005c0.80516,-0.05932 1.57272,1.45184 1.71441,3.37525c0.14169,1.92341 -0.39615,3.53073 -1.2013,3.59004c-0.80515,0.05931 -1.57272,-1.45184 -1.71441,-3.37525z" fill="#d5e20f" stroke="none" stroke-width="0"/><path d="M284.81309,129.4815c2.85481,0.66425 3.96112,4.26533 3.96112,4.26533c0,0 -2.21598,0.10358 -5.07079,-0.56067c-2.85481,-0.66425 -3.7512,-0.90965 -3.40398,-2.40194c0.34722,-1.49229 1.65884,-1.96697 4.51365,-1.30272z" fill="#000000" stroke="#73797e" stroke-width="1"/><path d="M267.5075,157.74152c0,0 4.20056,0.22089 8.94342,0.53659c1.67808,0.11171 3.28449,0.355 4.65987,0.62277c2.51194,0.48907 3.58384,1.43171 3.58384,1.43171c0,0 1.45766,0.69241 2.04422,1.01869c0.51608,0.28707 1.81149,1.95217 1.81149,1.95217c0,0 -9.82395,-1.45005 -12.57783,-1.63335c-2.34907,-0.15637 -10.14532,-0.13281 -10.14532,-0.13281z" fill="url(#color-32)" stroke="none" stroke-width="0"/></g><g data-paper-data="{&quot;index&quot;:null}" stroke-width="0.75"><path d="M232.56162,205.47797c0,0 -0.83485,-1.97351 -0.60886,-3.6764c0.10459,-0.78811 0.9654,-1.49427 1.27061,-2.07364c0.96466,-1.83123 3.18579,-2.3331 4.30024,-2.73356c0.94681,-0.34022 2.0644,0.49824 2.0644,0.49824c0,0 -3.80125,2.55416 -3.87423,2.6371c-1.22189,1.38866 -3.15216,5.34827 -3.15216,5.34827z" data-paper-data="{&quot;index&quot;:null}" fill="url(#color-33)" stroke="#747474"/><path d="M238.08893,192.96812c0.15336,0.26527 0.19217,1.51413 0.6556,2.22473c0.62727,0.96183 1.12686,1.77557 1.05401,2.16231c-0.03768,0.20002 -1.96415,-0.65623 -3.07565,-0.13366c-0.55563,0.26123 -1.37745,0.41757 -2.07088,0.96272c-0.74686,0.58717 -1.51578,1.27063 -1.98503,2.05129c-0.83797,1.39409 -1.07823,2.84938 -1.07823,2.84938c0,0 -1.646,-0.3305 -2.15263,-1.04976c-0.33787,-0.47969 -0.99188,-1.87978 -1.04147,-3.22601c-0.0532,-1.44423 0.51769,-2.86396 0.73089,-4.16684c0.01755,-0.1072 -0.46019,-1.64625 -0.43878,-1.74337c0.17205,-0.78047 -1.051,-3.89599 -0.26856,-5.81569c0.4926,-1.20859 2.81302,-1.32313 3.53355,-2.02964c0.69267,-0.6792 3.52398,0.07509 3.52398,0.07509c0,0 0.68169,0.89231 1.28039,1.64825c0.27966,0.35311 0.54122,0.67647 0.70673,0.86523c0.39424,0.4496 0.51247,1.825 0.71497,2.64173c0.32051,1.29271 -0.30927,2.30308 -0.08891,2.68425z" data-paper-data="{&quot;index&quot;:null}" fill="url(#color-34)" stroke="#747474"/><path d="M233.50538,208.86406c-0.4443,-1.62629 -0.3341,-3.53703 -0.33859,-3.65884c-0.04455,-1.2077 1.60232,-3.85137 3.33629,-5.5514c1.22574,-1.20175 2.9572,-1.78402 3.72866,-2.08882c1.97285,-0.77947 4.88945,1.92265 4.88945,1.92265c0,0 2.13375,-0.62974 4.40194,-0.46439c2.47581,0.18048 8.69896,2.08255 8.59398,2.47037c-0.06303,0.23287 -4.41192,1.51986 -3.33472,3.85808c0.76568,1.66202 3.46068,3.72427 3.46068,3.72427c0,0 -7.63752,-3.32586 -7.87675,-2.17877c-0.5282,2.53264 2.39686,5.66545 2.39686,5.66545l-1.13334,0.09395c0,0 -5.17679,-4.00269 -5.52398,-3.34372c-1.65835,3.14756 0.82755,6.45787 0.82755,6.45787c0,0 -4.00194,0.29025 -6.66135,-0.6793c-2.36103,-0.86077 -3.58025,-2.39435 -3.58025,-2.39435c0,0 -0.89288,-0.47876 -1.6313,-1.20876c-0.7269,-0.7186 -1.29745,-1.68103 -1.55515,-2.62429z" fill="url(#color-35)" stroke="#4a5957"/><path d="M250.16024,206.8439c0.8778,-0.34683 4.67196,0.25871 7.1336,2.06747c2.02267,1.48621 2.08973,4.49244 2.48762,5.49949c0.88213,2.23264 1.02256,4.1433 -0.5765,4.77509c-0.95544,0.37749 -2.73654,0.58683 -3.65754,-0.20121c-0.62044,-0.53087 -0.47998,-1.79875 -0.83503,-2.69741c-0.88213,-2.23264 -6.15121,-8.81164 -4.55215,-9.44343z" fill="url(#color-36)" stroke="#4a5957"/><path d="M247.21496,219.17319c-0.08187,-0.68337 0.74656,-1.30042 0.45612,-2.45926c-0.32219,-1.28556 -1.41661,-2.45332 -1.85862,-3.77743c-0.61388,-1.83894 -0.36429,-3.7101 0.38979,-3.80044c0.98068,-0.11747 5.76676,3.68621 5.76676,3.68621c0,0 1.10949,2.78849 1.03997,4.21867c-0.01953,0.40196 -0.25463,3.98189 -2.04113,4.19591c-1.06742,0.12787 -2.00322,0.96559 -2.72571,-0.077c-0.48671,-0.70236 -0.90693,-0.98267 -1.0272,-1.98665z" fill="url(#color-37)" stroke="#4a5957"/><path d="M260.5173,211.30968c-0.37551,-0.95041 -2.0448,-1.89186 -3.41576,-3.14983c-1.823,-1.67274 -2.61691,-3.7656 -2.61691,-3.7656c0,0 1.50352,-3.42128 3.94481,-1.62747c0.69909,0.51368 2.05484,0.33957 3.17175,1.11668c0.91688,0.63792 1.58361,2.21608 2.35438,2.79102c0.98443,0.7343 1.6194,1.24174 1.76358,1.60666c0.87483,2.21419 1.01412,4.10904 -0.57173,4.73561c-0.94754,0.37437 -2.71392,0.58197 -3.62731,-0.19955c-0.61531,-0.52647 -0.65073,-0.61632 -1.00284,-1.50755z" fill="url(#color-38)" stroke="#4a5957"/><path d="M261.81916,204.182c-1.59862,-0.99989 -4.74219,-2.08266 -4.74219,-2.08266l1.23395,-0.53403c0,0 1.16884,0.62042 1.78232,0.78678c1.19812,0.32491 2.70886,0.21907 3.4368,0.67437c1.59863,0.99988 0.44458,3.49828 0.44458,3.49828c0,0 -0.42943,-0.46463 -1.03578,-1.22556c-0.27054,-0.33951 -0.62646,-0.80868 -1.11967,-1.11717z" fill="url(#color-39)" stroke="#4a5957"/></g></g></g></svg>