<svg version="1.1" xmlns="http://www.w3.org/2000/svg" xmlns:xlink="http://www.w3.org/1999/xlink" width="67.46364" height="68.59091" viewBox="0,0,67.46364,68.59091"><defs><linearGradient x1="240" y1="149" x2="240" y2="211" gradientUnits="userSpaceOnUse" id="color-1"><stop offset="0" stop-color="#aaffad"/><stop offset="1" stop-color="#4cde51"/></linearGradient></defs><g transform="translate(-207.5,-147.5)"><g data-paper-data="{&quot;isPaintingLayer&quot;:true}" fill-rule="nonzero" stroke-linejoin="miter" stroke-miterlimit="10" stroke-dasharray="" stroke-dashoffset="0" style="mix-blend-mode: normal"><path d="M211.46364,183.59091c0,-17.12083 13.87917,-31 31,-31c17.12083,0 31,13.87917 31,31c0,17.12083 -13.87917,31 -31,31c-17.12083,0 -31,-13.87917 -31,-31z" data-paper-data="{&quot;origPos&quot;:null}" fill="#000000" stroke="#000000" stroke-width="3" stroke-linecap="butt"/><path d="M209,180c0,-17.12083 13.87917,-31 31,-31c17.12083,0 31,13.87917 31,31c0,17.12083 -13.87917,31 -31,31c-17.12083,0 -31,-13.87917 -31,-31z" data-paper-data="{&quot;origPos&quot;:null}" fill="url(#color-1)" stroke="#239e00" stroke-width="3" stroke-linecap="butt"/><path d="M242.08884,163.55305l-1.23353,20.96988l14.80226,-1.23353l1.6447,13.56874l-28.78219,2.05586l-0.82235,-37.828z" data-paper-data="{&quot;origPos&quot;:null}" fill="#00dd07" stroke="#239e00" stroke-width="3.5" stroke-linecap="round"/></g></g></svg>