<svg version="1.1" xmlns="http://www.w3.org/2000/svg" xmlns:xlink="http://www.w3.org/1999/xlink" width="385.55949" height="249.3335" viewBox="0,0,385.55949,249.3335"><defs><linearGradient x1="70.07494" y1="115.15625" x2="70.07494" y2="338.15625" gradientUnits="userSpaceOnUse" id="color-1"><stop offset="0" stop-color="#f9dea4"/><stop offset="1" stop-color="#ffce71"/></linearGradient><linearGradient x1="68.6218" y1="80.34699" x2="68.6218" y2="157.98654" gradientUnits="userSpaceOnUse" id="color-2"><stop offset="0" stop-color="#00a515"/><stop offset="1" stop-color="#00bf06"/></linearGradient><linearGradient x1="112.07494" y1="170.15625" x2="112.07494" y2="340.15625" gradientUnits="userSpaceOnUse" id="color-3"><stop offset="0" stop-color="#f9dea4"/><stop offset="1" stop-color="#ffce71"/></linearGradient><linearGradient x1="112.62181" y1="130.34699" x2="112.62181" y2="207.98654" gradientUnits="userSpaceOnUse" id="color-4"><stop offset="0" stop-color="#00a515"/><stop offset="1" stop-color="#00bf06"/></linearGradient><linearGradient x1="310.07514" y1="185.99625" x2="310.07514" y2="209.88959" gradientUnits="userSpaceOnUse" id="color-5"><stop offset="0" stop-color="#00a515"/><stop offset="1" stop-color="#00bf06"/></linearGradient><linearGradient x1="331.53542" y1="183.37125" x2="331.53542" y2="209.59792" gradientUnits="userSpaceOnUse" id="color-6"><stop offset="0" stop-color="#00a515"/><stop offset="1" stop-color="#00bf06"/></linearGradient></defs><g transform="translate(35.46769,-92.82275)"><g data-paper-data="{&quot;isPaintingLayer&quot;:true}" fill-rule="nonzero" stroke-linejoin="miter" stroke-miterlimit="10" stroke-dasharray="" stroke-dashoffset="0" style="mix-blend-mode: normal"><path d="M58.57494,338.15625v-223h23v223z" fill="url(#color-1)" stroke="#c38600" stroke-width="4" stroke-linecap="butt"/><path d="M165.62181,119.16677l-32.00489,-4.78053c0,0 25.36485,12.27634 25.94705,15.14929c1.65533,8.16847 -22.29355,13.52127 -41.22636,13.44027c-26.12816,-0.11177 -49.71579,-25.65759 -49.71579,-25.65759c0,0 -11.35577,21.62334 -46.36338,22.17788c-8.69718,0.13777 -43.99052,-4.92153 -43.99052,-4.92153c0,0 5.80907,-8.78275 14.46528,-12.48224c6.69281,-2.86037 22.60001,-8.34864 22.60001,-8.34864c0,0 -13.08675,-3.04736 -19.87847,-2.18502c-7.39416,0.93884 -22.83294,7.6081 -22.83294,7.6081c0,0 18.24937,-23.13279 48.02164,-23.88729c30.1489,-0.76405 47.97837,20.80635 47.97837,20.80635c0,0 22.90942,-22.31243 51.18088,-20.76307c26.95949,1.47746 45.81912,23.84401 45.81912,23.84401z" fill="url(#color-2)" stroke="#008a05" stroke-width="5" stroke-linecap="butt"/><path d="M100.57494,340.15625v-170h23v170z" fill="url(#color-3)" stroke="#c38600" stroke-width="4" stroke-linecap="butt"/><path d="M209.62181,169.16677l-32.00489,-4.78053c0,0 25.36485,12.27634 25.94705,15.14929c1.65533,8.16847 -22.29355,13.52127 -41.22636,13.44027c-26.12816,-0.11177 -49.71579,-25.65759 -49.71579,-25.65759c0,0 -11.35577,21.62334 -46.36338,22.17788c-8.69718,0.13777 -43.99052,-4.92153 -43.99052,-4.92153c0,0 5.80907,-8.78275 14.46528,-12.48224c6.69281,-2.86037 22.60001,-8.34864 22.60001,-8.34864c0,0 -13.08675,-3.04736 -19.87847,-2.18502c-7.39416,0.93884 -22.83294,7.6081 -22.83294,7.6081c0,0 18.24937,-23.13279 48.02164,-23.88729c30.1489,-0.76405 47.97837,20.80635 47.97837,20.80635c0,0 22.90942,-22.31243 51.18088,-20.76307c26.95949,1.47746 45.81912,23.84401 45.81912,23.84401z" fill="url(#color-4)" stroke="#008a05" stroke-width="5" stroke-linecap="butt"/><path d="M298.12847,197.94292c0,-6.59796 5.3487,-11.94667 11.94667,-11.94667c6.59796,0 11.94666,5.3487 11.94666,11.94667c0,6.59796 -5.3487,11.94667 -11.94666,11.94667c-6.59796,0 -11.94667,-5.3487 -11.94667,-11.94667z" fill="url(#color-5)" stroke="#008a05" stroke-width="2.5" stroke-linecap="butt"/><path d="M323.70847,188.12959l-6.4,4.69333" fill="none" stroke="#008a05" stroke-width="2.5" stroke-linecap="round"/><path d="M309.2018,182.15626l1.70667,9.81333" fill="none" stroke="#008a05" stroke-width="2.5" stroke-linecap="round"/><path d="M309.2018,199.64959l1.28,-4.26667" fill="none" stroke="#008a05" stroke-width="2.5" stroke-linecap="round"/><path d="M297.25513,184.71625l7.25333,8.96" fill="none" stroke="#008a05" stroke-width="2.5" stroke-linecap="round"/><path d="M303.22847,200.92959l-8.10667,1.28" fill="none" stroke="#008a05" stroke-width="2.5" stroke-linecap="round"/><path d="M309.62846,214.15625l-1.28,-8.53334" fill="none" stroke="#008a05" stroke-width="2.5" stroke-linecap="round"/><path d="M310.90846,202.20959l9.38667,3.84" fill="none" stroke="#008a05" stroke-width="2.5" stroke-linecap="round"/><path d="M316.02847,197.94292l9.81334,-2.56" fill="none" stroke="#008a05" stroke-width="2.5" stroke-linecap="round"/><path d="M318.42208,196.48458c0,-7.2423 5.87104,-13.11333 13.11334,-13.11333c7.2423,0 13.11333,5.87103 13.11333,13.11333c0,7.2423 -5.87103,13.11334 -13.11333,13.11334c-7.2423,0 -13.11334,-5.87104 -13.11334,-13.11334z" fill="url(#color-6)" stroke="#008a05" stroke-width="2.5" stroke-linecap="butt"/><path d="M339.47513,190.86458l7.025,-5.15166" fill="none" stroke="#008a05" stroke-width="2.5" stroke-linecap="round"/><path d="M330.5768,179.15625l1.87333,10.77167" fill="none" stroke="#008a05" stroke-width="2.5" stroke-linecap="round"/><path d="M331.9818,193.67458l-1.405,4.68334" fill="none" stroke="#008a05" stroke-width="2.5" stroke-linecap="round"/><path d="M317.46347,181.96625l7.96166,9.835" fill="none" stroke="#008a05" stroke-width="2.5" stroke-linecap="round"/><path d="M315.1218,201.16792l8.89833,-1.405" fill="none" stroke="#008a05" stroke-width="2.5" stroke-linecap="round"/><path d="M329.64013,204.91458l1.405,9.36667" fill="none" stroke="#008a05" stroke-width="2.5" stroke-linecap="round"/><path d="M332.45012,201.16792l10.30334,4.215" fill="none" stroke="#008a05" stroke-width="2.5" stroke-linecap="round"/><path d="M338.07013,196.48458l10.77167,-2.81" fill="none" stroke="#008a05" stroke-width="2.5" stroke-linecap="round"/></g></g></svg>