<svg version="1.1" xmlns="http://www.w3.org/2000/svg" xmlns:xlink="http://www.w3.org/1999/xlink" width="514.73214" height="403.23376" viewBox="0,0,514.73214,403.23376"><defs><linearGradient x1="240" y1="2" x2="240" y2="358" gradientUnits="userSpaceOnUse" id="color-1"><stop offset="0" stop-color="#1f263d"/><stop offset="1" stop-color="#344ea9"/></linearGradient><linearGradient x1="237.90627" y1="241.12501" x2="237.90627" y2="326.12501" gradientUnits="userSpaceOnUse" id="color-2"><stop offset="0" stop-color="#ffffff" stop-opacity="0"/><stop offset="1" stop-color="#ffffff"/></linearGradient><linearGradient x1="335.45315" y1="54.71169" x2="335.45315" y2="101.8125" gradientUnits="userSpaceOnUse" id="color-3"><stop offset="0" stop-color="#7e7e7e"/><stop offset="1" stop-color="#7e7e7e" stop-opacity="0"/></linearGradient><linearGradient x1="335.45315" y1="54.71169" x2="335.45315" y2="101.8125" gradientUnits="userSpaceOnUse" id="color-4"><stop offset="0" stop-color="#000000"/><stop offset="1" stop-color="#000000" stop-opacity="0"/></linearGradient><linearGradient x1="136.45315" y1="134.71169" x2="136.45315" y2="181.81251" gradientUnits="userSpaceOnUse" id="color-5"><stop offset="0" stop-color="#7e7e7e"/><stop offset="1" stop-color="#7e7e7e" stop-opacity="0"/></linearGradient><linearGradient x1="136.45315" y1="134.71169" x2="136.45315" y2="181.81251" gradientUnits="userSpaceOnUse" id="color-6"><stop offset="0" stop-color="#000000"/><stop offset="1" stop-color="#000000" stop-opacity="0"/></linearGradient><linearGradient x1="351.95315" y1="179.71169" x2="351.95315" y2="226.81251" gradientUnits="userSpaceOnUse" id="color-7"><stop offset="0" stop-color="#7e7e7e"/><stop offset="1" stop-color="#7e7e7e" stop-opacity="0"/></linearGradient><linearGradient x1="351.95315" y1="179.71169" x2="351.95315" y2="226.81251" gradientUnits="userSpaceOnUse" id="color-8"><stop offset="0" stop-color="#000000"/><stop offset="1" stop-color="#000000" stop-opacity="0"/></linearGradient><linearGradient x1="240.40625" y1="-2.6875" x2="240.40625" y2="125.3125" gradientUnits="userSpaceOnUse" id="color-9"><stop offset="0" stop-color="#000000"/><stop offset="1" stop-color="#000000" stop-opacity="0"/></linearGradient><linearGradient x1="480.69468" y1="-11.39874" x2="410.52544" y2="174.81962" gradientUnits="userSpaceOnUse" id="color-10"><stop offset="0" stop-color="#f1ff80"/><stop offset="1" stop-color="#f1ff80" stop-opacity="0"/></linearGradient><linearGradient x1="240.40625" y1="-3.6875" x2="240.40625" y2="73.3125" gradientUnits="userSpaceOnUse" id="color-11"><stop offset="0" stop-color="#000000"/><stop offset="1" stop-color="#000000" stop-opacity="0"/></linearGradient></defs><g transform="translate(12.04685,13.92126)"><g data-paper-data="{&quot;isPaintingLayer&quot;:true}" fill-rule="nonzero" stroke-linecap="butt" stroke-linejoin="miter" stroke-miterlimit="10" stroke-dasharray="" stroke-dashoffset="0" style="mix-blend-mode: normal"><path d="M-5,358v-356h490v356z" fill="url(#color-1)" stroke="none" stroke-width="0"/><path d="M-11.09373,326.12501v-85h498v85z" fill="url(#color-2)" stroke="none" stroke-width="0"/><path d="M188.45315,101.8125v-47.10081h294v47.10082z" fill="url(#color-3)" stroke="url(#color-4)" stroke-width="3"/><path d="M188.45315,54.16401v-8.76295h31.24251v8.76295z" fill="#444444" stroke="#000000" stroke-width="3"/><path d="M221.29783,54.16401v-8.76295h31.24251v8.76295z" fill="#444444" stroke="#000000" stroke-width="3"/><path d="M254.14252,54.16401v-8.76295h31.24251v8.76295z" fill="#444444" stroke="#000000" stroke-width="3"/><path d="M286.98721,54.16401v-8.76295h31.2425v8.76295z" fill="#444444" stroke="#000000" stroke-width="3"/><path d="M319.83189,54.16401v-8.76295h31.2425v8.76295z" fill="#444444" stroke="#000000" stroke-width="3"/><path d="M352.67657,54.16401v-8.76295h31.24251v8.76295z" fill="#444444" stroke="#000000" stroke-width="3"/><path d="M385.52126,54.16401v-8.76295h31.24251v8.76295z" fill="#444444" stroke="#000000" stroke-width="3"/><path d="M418.36595,54.16401v-8.76295h31.2425v8.76295z" fill="#444444" stroke="#000000" stroke-width="3"/><path d="M451.21063,54.16401v-8.76295h31.24251v8.76295z" fill="#444444" stroke="#000000" stroke-width="3"/><path d="M-10.54685,181.81251v-47.10081h294v47.10081z" fill="url(#color-5)" stroke="url(#color-6)" stroke-width="3"/><path d="M-10.54685,134.16401v-8.76295h31.24251v8.76295z" fill="#444444" stroke="#000000" stroke-width="3"/><path d="M22.29783,134.16401v-8.76295h31.24251v8.76295z" fill="#444444" stroke="#000000" stroke-width="3"/><path d="M55.14252,134.16401v-8.76295h31.24251v8.76295z" fill="#444444" stroke="#000000" stroke-width="3"/><path d="M87.98721,134.16401v-8.76295h31.2425v8.76295z" fill="#444444" stroke="#000000" stroke-width="3"/><path d="M120.83189,134.16401v-8.76295h31.2425v8.76295z" fill="#444444" stroke="#000000" stroke-width="3"/><path d="M153.67657,134.16401v-8.76295h31.2425v8.76295z" fill="#444444" stroke="#000000" stroke-width="3"/><path d="M186.52126,134.16401v-8.76295h31.24251v8.76295z" fill="#444444" stroke="#000000" stroke-width="3"/><path d="M219.36594,134.16401v-8.76295h31.24251v8.76295z" fill="#444444" stroke="#000000" stroke-width="3"/><path d="M252.21063,134.16401v-8.76295h31.24251v8.76295z" fill="#444444" stroke="#000000" stroke-width="3"/><path d="M251.45315,226.81251v-47.10082h201v47.10082z" fill="url(#color-7)" stroke="url(#color-8)" stroke-width="3"/><path d="M251.45315,179.164v-8.76294h21.35967v8.76294z" fill="#444444" stroke="#000000" stroke-width="3"/><path d="M273.90819,179.164v-8.76294h21.35967v8.76294z" fill="#444444" stroke="#000000" stroke-width="3"/><path d="M296.36323,179.164v-8.76294h21.35967v8.76294z" fill="#444444" stroke="#000000" stroke-width="3"/><path d="M318.81827,179.164v-8.76294h21.35967v8.76294z" fill="#444444" stroke="#000000" stroke-width="3"/><path d="M341.2733,179.164v-8.76294h21.35967v8.76294z" fill="#444444" stroke="#000000" stroke-width="3"/><path d="M363.72834,179.164v-8.76294h21.35967v8.76294z" fill="#444444" stroke="#000000" stroke-width="3"/><path d="M386.18338,179.164v-8.76294h21.35967v8.76294z" fill="#444444" stroke="#000000" stroke-width="3"/><path d="M408.63843,179.164v-8.76294h21.35967v8.76294z" fill="#444444" stroke="#000000" stroke-width="3"/><path d="M431.09347,179.164v-8.76294h21.35967v8.76294z" fill="#444444" stroke="#000000" stroke-width="3"/><path d="M369.40626,319.10871l-45,-154.30435l40,-118.69565l52,58.02899l-19,213.65217z" data-paper-data="{&quot;index&quot;:null}" fill="#dada1f" stroke="#f5ff42" stroke-width="3"/><path d="M362.90626,176.28329l1,-127.26812l51,56.05072z" data-paper-data="{&quot;index&quot;:null}" fill="#ffff66" stroke="none" stroke-width="0"/><path d="M370.15626,316.4101l-7.5,-140.45652l33,139.13768z" data-paper-data="{&quot;index&quot;:null}" fill="#9e9e00" stroke="none" stroke-width="0"/><path d="M326.15626,164.29008l36.5,11.21014l-22.5,36.92754z" data-paper-data="{&quot;index&quot;:null}" fill="#9e9e00" stroke="none" stroke-width="0"/><path d="M103.40626,286.10871l-19,-162l52,-44l40,90l-45,117z" fill="#426dff" stroke="#003cff" stroke-width="3"/><path d="M85.90626,124.81251l51,-42.5l1,96.5z" fill="#86a2ff" stroke="none" stroke-width="0"/><path d="M92.36278,296.10871l-26.95652,-70.08695l23.96135,-53.91305l31.14976,26.35749l-11.38164,97.04348z" data-paper-data="{&quot;index&quot;:null}" fill="#ff4b4b" stroke="#ff0000" stroke-width="3"/><path d="M88.46906,231.23562l0.59904,-57.80677l30.55073,25.45894z" data-paper-data="{&quot;index&quot;:null}" fill="#ff8787" stroke="none" stroke-width="0"/><path d="M92.81205,294.88296l-4.49275,-63.7971l19.76811,63.19807z" data-paper-data="{&quot;index&quot;:null}" fill="#8f2525" stroke="none" stroke-width="0"/><path d="M66.45457,225.78816l21.86473,5.09179l-13.47826,16.77295z" data-paper-data="{&quot;index&quot;:null}" fill="#8f2525" stroke="none" stroke-width="0"/><path d="M105.15626,284.06251l33,-105.5l-7.5,106.5z" fill="#3559ce" stroke="none" stroke-width="0"/><path d="M160.65625,206.21876l-22.5,-28l36.5,-8.5z" fill="#3c64e7" stroke="none" stroke-width="0"/><path d="M-5.54685,387.81251v-86h490v86z" fill="#7e7e7e" stroke="#000000" stroke-width="3"/><path d="M-5.54685,300.81251v-16h39v16z" fill="#444444" stroke="#000000" stroke-width="3"/><path d="M35.45315,300.81251v-16h39v16z" fill="#444444" stroke="#000000" stroke-width="3"/><path d="M76.45315,300.81251v-16h39v16z" fill="#444444" stroke="#000000" stroke-width="3"/><path d="M117.45315,300.81251v-16h39v16z" fill="#444444" stroke="#000000" stroke-width="3"/><path d="M158.45314,300.81251v-16h39v16z" fill="#444444" stroke="#000000" stroke-width="3"/><path d="M199.45314,300.81251v-16h39v16z" fill="#444444" stroke="#000000" stroke-width="3"/><path d="M240.45314,300.81251v-16h39v16z" fill="#444444" stroke="#000000" stroke-width="3"/><path d="M281.45313,300.81251v-16h39v16z" fill="#444444" stroke="#000000" stroke-width="3"/><path d="M322.45313,300.81251v-16h39v16z" fill="#444444" stroke="#000000" stroke-width="3"/><path d="M363.45315,300.81251v-16h39v16z" fill="#444444" stroke="#000000" stroke-width="3"/><path d="M404.45315,300.81251v-16h39v16z" fill="#444444" stroke="#000000" stroke-width="3"/><path d="M445.45315,300.81251v-16h39v16z" fill="#444444" stroke="#000000" stroke-width="3"/><path d="M-9.59375,125.3125v-128h500v128z" fill="url(#color-9)" stroke="none" stroke-width="0"/><path d="M380.96729,141.24037l95.86903,-155.16162l25.84897,10.80883l-13.60452,204.68923z" fill="url(#color-10)" stroke="none" stroke-width="0"/><path d="M-9.59375,73.3125v-77h500v77z" fill="url(#color-11)" stroke="none" stroke-width="0"/></g></g></svg>