<svg version="1.1" xmlns="http://www.w3.org/2000/svg" xmlns:xlink="http://www.w3.org/1999/xlink" width="336.15179" height="234.51016" viewBox="0,0,336.15179,234.51016"><g transform="translate(15.12249,-60.97581)"><g data-paper-data="{&quot;isPaintingLayer&quot;:true}" fill-rule="nonzero" stroke-linecap="butt" stroke-linejoin="miter" stroke-miterlimit="10" stroke-dasharray="" stroke-dashoffset="0" style="mix-blend-mode: normal"><path d="M303.97816,247.88971l-63.37192,-74.40463l-7.35237,-75.80628l43.29222,19.2505l42.6377,123.25948z" data-paper-data="{&quot;index&quot;:null}" fill="#dada1f" stroke="#f5ff42" stroke-width="3"/><path d="M264.17173,169.56291l-31.12257,-70.85494l42.24503,18.40189z" data-paper-data="{&quot;index&quot;:null}" fill="#ffff66" stroke="none" stroke-width="0"/><path d="M303.0718,245.49817l-39.12084,-76.05595l52.9395,68.97727z" data-paper-data="{&quot;index&quot;:null}" fill="#9e9e00" stroke="none" stroke-width="0"/><path d="M240.79837,172.05646l23.03977,-2.86576l-3.29124,26.08703z" data-paper-data="{&quot;index&quot;:null}" fill="#9e9e00" stroke="none" stroke-width="0"/><path d="M56.79238,293.65896l-55.49353,-29.56768l-14.40326,-47.25624l34.16581,-0.40363l46.0163,67.65022z" data-paper-data="{&quot;index&quot;:null}" fill="#ff4b4b" stroke="#ff0000" stroke-width="3"/><path d="M18.75213,254.74297l-31.3221,-36.9083l33.29398,-0.64372z" data-paper-data="{&quot;index&quot;:null}" fill="#ff8787" stroke="none" stroke-width="0"/><path d="M56.40448,292.63694l-37.82924,-37.90661l47.1669,29.15055z" data-paper-data="{&quot;index&quot;:null}" fill="#8f2525" stroke="none" stroke-width="0"/><path d="M1.83411,263.36857l16.6282,-8.76854l0.66931,18.00529z" data-paper-data="{&quot;index&quot;:null}" fill="#8f2525" stroke="none" stroke-width="0"/><path d="M160.02908,203.73193l-12.94203,-110.34783l35.42029,-29.97101l27.24638,61.30435l-30.65217,79.69565z" fill="#426dff" stroke="#003cff" stroke-width="3"/><path d="M160.53995,202.33814l22.47826,-71.86232l-5.1087,72.54348z" fill="#3559ce" stroke="none" stroke-width="0"/><path d="M147.42763,93.8635l34.73913,-28.94928l0.68116,65.73188z" fill="#86a2ff" stroke="none" stroke-width="0"/><path d="M198.34429,149.31414l-15.32609,-19.07246l24.86232,-5.78986z" fill="#3c64e7" stroke="none" stroke-width="0"/></g></g></svg>