<svg version="1.1" xmlns="http://www.w3.org/2000/svg" xmlns:xlink="http://www.w3.org/1999/xlink" width="435.65479" height="153.0788" viewBox="0,0,435.65479,153.0788"><g transform="translate(-6.90312,-251.2962)"><g data-paper-data="{&quot;isPaintingLayer&quot;:true}" fill-rule="nonzero" stroke-linecap="butt" stroke-linejoin="miter" stroke-miterlimit="10" stroke-dasharray="" stroke-dashoffset="0" style="mix-blend-mode: normal"><path d="M8.44896,394.6875v-127.1875h135.60894v127.1875z" fill="#6b6b6b" stroke="#211502" stroke-width="3"/><path d="M45.47164,312.0424l4.3713,5.76313l-13.311,2.49491l-4.37129,-5.76313z" data-paper-data="{&quot;index&quot;:null}" fill="#3c3c3c" stroke="none" stroke-width="0"/><path d="M125.07366,290.00748l-7.7057,7.29805l-13.84748,-8.36469l7.70571,-7.29805z" data-paper-data="{&quot;index&quot;:null}" fill="#3c3c3c" stroke="none" stroke-width="0"/><path d="M8.40312,265.7962v-13h32.2622v13z" fill="#444444" stroke="#000000" stroke-width="3"/><path d="M42.62062,265.7962v-13h32.2622v13z" fill="#444444" stroke="#000000" stroke-width="3"/><path d="M77.32693,265.7962v-13h32.2622v13z" fill="#444444" stroke="#000000" stroke-width="3"/><path d="M112.03323,265.7962v-13h32.2622v13z" fill="#444444" stroke="#000000" stroke-width="3"/><path d="M114.07367,341.00748l-7.7057,7.29805l-13.84748,-8.36469l7.70571,-7.29805z" data-paper-data="{&quot;index&quot;:null}" fill="#3c3c3c" stroke="none" stroke-width="0"/><path d="M237.44898,369.875v-83.375h135.60894v83.375z" fill="#6b6b6b" stroke="#211502" stroke-width="3"/><path d="M289.47165,313.0424l4.3713,5.76313l-13.311,2.49491l-4.37129,-5.76313z" data-paper-data="{&quot;index&quot;:null}" fill="#3c3c3c" stroke="none" stroke-width="0"/><path d="M237.40314,284.7962v-13h32.2622v13z" fill="#444444" stroke="#000000" stroke-width="3"/><path d="M271.62063,284.7962v-13h32.2622v13z" fill="#444444" stroke="#000000" stroke-width="3"/><path d="M333.07367,349.00748l-7.7057,7.29805l-13.84748,-8.36469l7.70571,-7.29805z" data-paper-data="{&quot;index&quot;:null}" fill="#3c3c3c" stroke="none" stroke-width="0"/><path d="M306.40315,284.7962v-13h32.2622v13z" fill="#444444" stroke="#000000" stroke-width="3"/><path d="M340.62064,284.7962v-13h32.2622v13z" fill="#444444" stroke="#000000" stroke-width="3"/><path d="M362.07369,320.00748l-7.7057,7.29805l-13.84748,-8.36469l7.70571,-7.29805z" data-paper-data="{&quot;index&quot;:null}" fill="#3c3c3c" stroke="none" stroke-width="0"/><path d="M374.44898,402.875v-83.375h66.60894v83.375z" fill="#6b6b6b" stroke="#211502" stroke-width="3"/><path d="M391.47165,326.0424l4.3713,5.76313l-13.311,2.49491l-4.37129,-5.76313z" data-paper-data="{&quot;index&quot;:null}" fill="#3c3c3c" stroke="none" stroke-width="0"/><path d="M374.40314,317.7962v-13h32.2622v13z" fill="#444444" stroke="#000000" stroke-width="3"/><path d="M408.62063,317.7962v-13h32.2622v13z" fill="#444444" stroke="#000000" stroke-width="3"/><path d="M436.07369,345.00748l-7.7057,7.29805l-13.84748,-8.36469l7.70571,-7.29805z" data-paper-data="{&quot;index&quot;:null}" fill="#3c3c3c" stroke="none" stroke-width="0"/></g></g></svg>