<svg version="1.1" xmlns="http://www.w3.org/2000/svg" xmlns:xlink="http://www.w3.org/1999/xlink" width="35.26244" height="83.61207" viewBox="0,0,35.26244,83.61207"><defs><linearGradient x1="237.59844" y1="194.98489" x2="237.59844" y2="220.68103" gradientUnits="userSpaceOnUse" id="color-1"><stop offset="0" stop-color="#ffffff"/><stop offset="1" stop-color="#f1f1f1"/></linearGradient><linearGradient x1="242.02553" y1="171.7957" x2="242.02553" y2="197.49184" gradientUnits="userSpaceOnUse" id="color-2"><stop offset="0" stop-color="#ffffff"/><stop offset="1" stop-color="#f1f1f1"/></linearGradient><linearGradient x1="237.43409" y1="149.85997" x2="237.43409" y2="175.55611" gradientUnits="userSpaceOnUse" id="color-3"><stop offset="0" stop-color="#ffffff"/><stop offset="1" stop-color="#f1f1f1"/></linearGradient><linearGradient x1="250.41987" y1="147.66588" x2="250.41987" y2="160.59648" gradientUnits="userSpaceOnUse" id="color-4"><stop offset="0" stop-color="#e3e100"/><stop offset="1" stop-color="#d4d100"/></linearGradient><linearGradient x1="245.45066" y1="138.40701" x2="245.45066" y2="154.63048" gradientUnits="userSpaceOnUse" id="color-5"><stop offset="0" stop-color="#e30000"/><stop offset="1" stop-color="#a20000"/></linearGradient><linearGradient x1="242.54542" y1="148.33798" x2="242.54542" y2="155.39578" gradientUnits="userSpaceOnUse" id="color-6"><stop offset="0" stop-color="#e30000"/><stop offset="1" stop-color="#cf0000"/></linearGradient><linearGradient x1="234.01826" y1="162.96476" x2="234.01826" y2="166.68049" gradientUnits="userSpaceOnUse" id="color-7"><stop offset="0" stop-color="#ffa100"/><stop offset="1" stop-color="#c67d00"/></linearGradient></defs><g transform="translate(-222.36879,-138.06897)"><g data-paper-data="{&quot;isPaintingLayer&quot;:true}" fill-rule="nonzero" stroke-linejoin="miter" stroke-miterlimit="10" stroke-dasharray="" stroke-dashoffset="0" style="mix-blend-mode: normal"><path d="M250.44651,207.83296c0,7.09579 -5.75228,12.84807 -12.84807,12.84807c-7.09579,0 -12.84807,-5.75227 -12.84807,-12.84807c0,-7.09579 5.75228,-12.84807 12.84807,-12.84807c7.09579,0 12.84807,5.75227 12.84807,12.84807z" data-paper-data="{&quot;origPos&quot;:null}" fill="url(#color-1)" stroke="#e4e4e4" stroke-width="2" stroke-linecap="butt"/><path d="M248.817,200.40615l4.13645,-0.87743l-2.38159,4.01111z" data-paper-data="{&quot;origPos&quot;:null,&quot;index&quot;:null}" fill="#e4e4e4" stroke="none" stroke-width="0" stroke-linecap="round"/><path d="M250.82255,210.9353l2.63229,3.88576l-4.13645,-0.87743z" data-paper-data="{&quot;origPos&quot;:null,&quot;index&quot;:null}" fill="#e4e4e4" stroke="none" stroke-width="0" stroke-linecap="round"/><path d="M228.04608,216.48122l-4.13645,0.87743l2.38159,-4.01111z" data-paper-data="{&quot;origPos&quot;:null,&quot;index&quot;:null}" fill="#e4e4e4" stroke="none" stroke-width="0" stroke-linecap="round"/><path d="M224.75038,204.66794l-2.38159,-4.01111l4.13645,0.87743z" data-paper-data="{&quot;origPos&quot;:null}" fill="#e4e4e4" stroke="none" stroke-width="0" stroke-linecap="round"/><path d="M232.02051,204.16656c0,-0.86534 0.7015,-1.56684 1.56684,-1.56684c0.86534,0 1.56684,0.7015 1.56684,1.56684c0,0.86534 -0.7015,1.56684 -1.56684,1.56684c-0.86534,0 -1.56684,-0.7015 -1.56684,-1.56684z" data-paper-data="{&quot;origPos&quot;:null}" fill="#e4e4e4" stroke="none" stroke-width="0.5" stroke-linecap="butt"/><path d="M242.09386,200.72415c0,-0.86534 0.7015,-1.56684 1.56684,-1.56684c0.86534,0 1.56684,0.7015 1.56684,1.56684c0,0.86534 -0.7015,1.56684 -1.56684,1.56684c-0.86534,0 -1.56684,-0.7015 -1.56684,-1.56684z" data-paper-data="{&quot;origPos&quot;:null}" fill="#e4e4e4" stroke="none" stroke-width="0.5" stroke-linecap="butt"/><path d="M239.18573,216.58672c0,-0.86534 0.7015,-1.56684 1.56684,-1.56684c0.86534,0 1.56684,0.7015 1.56684,1.56684c0,0.86534 -0.7015,1.56684 -1.56684,1.56684c-0.86534,0 -1.56684,-0.7015 -1.56684,-1.56684z" data-paper-data="{&quot;origPos&quot;:null}" fill="#e4e4e4" stroke="none" stroke-width="0.5" stroke-linecap="butt"/><path d="M244.60544,209.44857c0,-0.86534 0.7015,-1.56684 1.56684,-1.56684c0.86534,0 1.56684,0.7015 1.56684,1.56684c0,0.86534 -0.7015,1.56684 -1.56684,1.56684c-0.86534,0 -1.56684,-0.7015 -1.56684,-1.56684z" data-paper-data="{&quot;origPos&quot;:null}" fill="#e4e4e4" stroke="none" stroke-width="0.5" stroke-linecap="butt"/><path d="M228.3463,213.5464c0,-0.86534 0.7015,-1.56684 1.56684,-1.56684c0.86534,0 1.56684,0.7015 1.56684,1.56684c0,0.86534 -0.7015,1.56684 -1.56684,1.56684c-0.86534,0 -1.56684,-0.7015 -1.56684,-1.56684z" data-paper-data="{&quot;origPos&quot;:null}" fill="#e4e4e4" stroke="none" stroke-width="0.5" stroke-linecap="butt"/><path d="M236.40978,209.18419c0,-0.86534 0.7015,-1.56684 1.56684,-1.56684c0.86534,0 1.56684,0.7015 1.56684,1.56684c0,0.86534 -0.7015,1.56684 -1.56684,1.56684c-0.86534,0 -1.56684,-0.7015 -1.56684,-1.56684z" data-paper-data="{&quot;origPos&quot;:null}" fill="#e4e4e4" stroke="none" stroke-width="0.5" stroke-linecap="butt"/><path d="M228.47849,201.12071c0,-0.86534 0.7015,-1.56684 1.56684,-1.56684c0.86534,0 1.56684,0.7015 1.56684,1.56684c0,0.86534 -0.7015,1.56684 -1.56684,1.56684c-0.86534,0 -1.56684,-0.7015 -1.56684,-1.56684z" data-paper-data="{&quot;origPos&quot;:null}" fill="#e4e4e4" stroke="none" stroke-width="0.5" stroke-linecap="butt"/><path d="M254.8736,184.64377c0,7.09579 -5.75228,12.84807 -12.84807,12.84807c-7.09579,0 -12.84807,-5.75227 -12.84807,-12.84807c0,-7.09579 5.75228,-12.84807 12.84807,-12.84807c7.09579,0 12.84807,5.75228 12.84807,12.84807z" data-paper-data="{&quot;origPos&quot;:null}" fill="url(#color-2)" stroke="#e4e4e4" stroke-width="2" stroke-linecap="butt"/><path d="M252.99339,177.7404l4.13645,-0.87743l-2.38159,4.01111z" data-paper-data="{&quot;origPos&quot;:null,&quot;index&quot;:null}" fill="#e4e4e4" stroke="none" stroke-width="0" stroke-linecap="round"/><path d="M254.99894,188.49818l2.63229,3.88576l-4.13645,-0.87743z" data-paper-data="{&quot;origPos&quot;:null,&quot;index&quot;:null}" fill="#e4e4e4" stroke="none" stroke-width="0" stroke-linecap="round"/><path d="M229.38364,180.90036l-2.38159,-4.01111l4.13645,0.87743z" data-paper-data="{&quot;origPos&quot;:null}" fill="#e4e4e4" stroke="none" stroke-width="0" stroke-linecap="round"/><path d="M231.44046,192.53665l-4.13645,0.87743l2.38159,-4.01111z" data-paper-data="{&quot;origPos&quot;:null,&quot;index&quot;:null}" fill="#e4e4e4" stroke="none" stroke-width="0" stroke-linecap="round"/><path d="M246.53405,190.46622c0,-0.86534 0.7015,-1.56684 1.56684,-1.56684c0.86534,0 1.56684,0.7015 1.56684,1.56684c0,0.86534 -0.7015,1.56684 -1.56684,1.56684c-0.86534,0 -1.56684,-0.7015 -1.56684,-1.56684z" data-paper-data="{&quot;origPos&quot;:null}" fill="#e4e4e4" stroke="none" stroke-width="0.5" stroke-linecap="butt"/><path d="M232.93978,180.48383c0,-0.86534 0.7015,-1.56684 1.56684,-1.56684c0.86534,0 1.56684,0.7015 1.56684,1.56684c0,0.86534 -0.7015,1.56684 -1.56684,1.56684c-0.86534,0 -1.56684,-0.7015 -1.56684,-1.56684z" data-paper-data="{&quot;origPos&quot;:null}" fill="#e4e4e4" stroke="none" stroke-width="0.5" stroke-linecap="butt"/><path d="M234.79042,190.26574c0,-0.86534 0.7015,-1.56684 1.56684,-1.56684c0.86534,0 1.56684,0.7015 1.56684,1.56684c0,0.86534 -0.7015,1.56684 -1.56684,1.56684c-0.86534,0 -1.56684,-0.7015 -1.56684,-1.56684z" data-paper-data="{&quot;origPos&quot;:null}" fill="#e4e4e4" stroke="none" stroke-width="0.5" stroke-linecap="butt"/><path d="M248.14141,184.05291c0,-0.86534 0.7015,-1.56684 1.56684,-1.56684c0.86534,0 1.56684,0.7015 1.56684,1.56684c0,0.86534 -0.7015,1.56684 -1.56684,1.56684c-0.86534,0 -1.56684,-0.7015 -1.56684,-1.56684z" data-paper-data="{&quot;origPos&quot;:null}" fill="#e4e4e4" stroke="none" stroke-width="0.5" stroke-linecap="butt"/><path d="M245.23327,178.6332c0,-0.86534 0.7015,-1.56684 1.56684,-1.56684c0.86534,0 1.56684,0.7015 1.56684,1.56684c0,0.86534 -0.7015,1.56684 -1.56684,1.56684c-0.86534,0 -1.56684,-0.7015 -1.56684,-1.56684z" data-paper-data="{&quot;origPos&quot;:null}" fill="#e4e4e4" stroke="none" stroke-width="0.5" stroke-linecap="butt"/><path d="M240.07793,185.1104c0,-0.86534 0.7015,-1.56684 1.56684,-1.56684c0.86534,0 1.56684,0.7015 1.56684,1.56684c0,0.86534 -0.7015,1.56684 -1.56684,1.56684c-0.86534,0 -1.56684,-0.7015 -1.56684,-1.56684z" data-paper-data="{&quot;origPos&quot;:null}" fill="#e4e4e4" stroke="none" stroke-width="0.5" stroke-linecap="butt"/><path d="M248.27661,155.40658l4.13645,-0.87743l-2.38159,4.01111z" data-paper-data="{&quot;origPos&quot;:null,&quot;index&quot;:null}" fill="#e4e4e4" stroke="none" stroke-width="0" stroke-linecap="round"/><path d="M250.28216,162.70804c0,7.09579 -5.75228,12.84807 -12.84807,12.84807c-7.09579,0 -12.84807,-5.75228 -12.84807,-12.84807c0,-7.09579 5.75228,-12.84807 12.84807,-12.84807c7.09579,0 12.84807,5.75228 12.84807,12.84807z" data-paper-data="{&quot;origPos&quot;:null}" fill="url(#color-3)" stroke="#e4e4e4" stroke-width="2" stroke-linecap="butt"/><path d="M252.08252,158.91957c1.7584,1.05194 -1.71831,-11.25369 -1.71831,-11.25369c0.1413,0.91688 4.92098,12.55776 2.60465,12.91472c-2.31634,0.35696 -5.5841,-5.4121 -5.7254,-6.32899c-0.1413,-0.91688 2.6473,3.35679 4.83906,4.66797z" data-paper-data="{&quot;origPos&quot;:null,&quot;index&quot;:null,&quot;origRot&quot;:0}" fill="url(#color-4)" stroke="#b8b500" stroke-width="0.5" stroke-linecap="butt"/><path d="M226.73054,169.77306l-4.13645,0.87743l2.38159,-4.01111z" data-paper-data="{&quot;origPos&quot;:null,&quot;index&quot;:null}" fill="#e4e4e4" stroke="none" stroke-width="0" stroke-linecap="round"/><path d="M225.63891,157.85615l-2.38159,-4.01111l4.13645,0.87743z" data-paper-data="{&quot;origPos&quot;:null}" fill="#e4e4e4" stroke="none" stroke-width="0" stroke-linecap="round"/><path d="M250.28216,165.93572l2.63229,3.88576l-4.13645,-0.87743z" data-paper-data="{&quot;origPos&quot;:null,&quot;index&quot;:null}" fill="#e4e4e4" stroke="none" stroke-width="0" stroke-linecap="round"/><path d="M235.53537,158.69908c0,1.85779 -1.02913,3.36383 -2.29862,3.36383c-1.2695,0 -2.29862,-1.50605 -2.29862,-3.36383c0,-1.85779 1.02913,-3.36383 2.29862,-3.36383c1.2695,0 2.29862,1.50605 2.29862,3.36383z" data-paper-data="{&quot;origPos&quot;:null}" fill="#e4e4e4" stroke="#000000" stroke-width="2" stroke-linecap="butt"/><path d="M236.82619,148.24558l5.22402,-9.83857l12.02492,6.3849l-5.22402,9.83857z" data-paper-data="{&quot;origPos&quot;:null,&quot;origRot&quot;:0}" fill="url(#color-5)" stroke="#a20000" stroke-width="0.5" stroke-linecap="butt"/><path d="M248.8496,154.98998c-0.51591,0.90654 -3.75661,0.24318 -7.23831,-1.48166c-3.48169,-1.72484 -5.88595,-3.85799 -5.37003,-4.76454c0.51591,-0.90654 3.75662,-0.24319 7.23831,1.48165c3.48169,1.72484 5.88594,3.85799 5.37002,4.76454z" data-paper-data="{&quot;origPos&quot;:null,&quot;origRot&quot;:0}" fill="url(#color-6)" stroke="#a20000" stroke-width="0.5" stroke-linecap="butt"/><path d="M243.79674,158.82688c0,1.85779 -1.02913,3.36383 -2.29862,3.36383c-1.2695,0 -2.29862,-1.50605 -2.29862,-3.36383c0,-1.85779 1.02913,-3.36383 2.29862,-3.36383c1.2695,0 2.29862,1.50605 2.29862,3.36383z" data-paper-data="{&quot;origPos&quot;:null}" fill="#e4e4e4" stroke="#000000" stroke-width="2" stroke-linecap="butt"/><path d="M237.81971,166.68049l-7.6029,-0.05803l7.27763,-3.6577z" data-paper-data="{&quot;origPos&quot;:null,&quot;origRot&quot;:0}" fill="url(#color-7)" stroke="#c67d00" stroke-width="0.5" stroke-linecap="round"/><path d="M237.52137,170.41646c0,0.78122 -0.51456,1.41454 -1.1493,1.41454c-0.63475,0 -1.14931,-0.63331 -1.14931,-1.41454c0,-0.78122 0.51456,-1.41454 1.14931,-1.41454c0.63475,0 1.1493,0.63331 1.1493,1.41454z" data-paper-data="{&quot;origPos&quot;:null}" fill="#000000" stroke="#000000" stroke-width="0.5" stroke-linecap="butt"/></g></g></svg>