<svg version="1.1" xmlns="http://www.w3.org/2000/svg" xmlns:xlink="http://www.w3.org/1999/xlink" width="77.88207" height="135.97875" viewBox="0,0,77.88207,135.97875"><defs><linearGradient x1="244.10365" y1="173.62827" x2="264.96048" y2="195.57106" gradientUnits="userSpaceOnUse" id="color-1"><stop offset="0" stop-color="#20de16"/><stop offset="1" stop-color="#158e0e"/></linearGradient><linearGradient x1="237.63468" y1="223.90925" x2="272.39991" y2="233.17942" gradientUnits="userSpaceOnUse" id="color-2"><stop offset="0" stop-color="#364ec7"/><stop offset="1" stop-color="#001371"/></linearGradient><linearGradient x1="266.99561" y1="228.09491" x2="280.12844" y2="231.59679" gradientUnits="userSpaceOnUse" id="color-3"><stop offset="0" stop-color="#a6680a"/><stop offset="1" stop-color="#6c4205"/></linearGradient><linearGradient x1="239.12174" y1="171.72157" x2="239.12174" y2="230.70749" gradientUnits="userSpaceOnUse" id="color-4"><stop offset="0" stop-color="#364ec7"/><stop offset="1" stop-color="#001371"/></linearGradient><linearGradient x1="240.56203" y1="175.94449" x2="240.56203" y2="196.8" gradientUnits="userSpaceOnUse" id="color-5"><stop offset="0" stop-color="#20de16"/><stop offset="1" stop-color="#158e0e"/></linearGradient><linearGradient x1="223.2793" y1="227.15329" x2="257.66544" y2="236.73589" gradientUnits="userSpaceOnUse" id="color-6"><stop offset="0" stop-color="#364ec7"/><stop offset="1" stop-color="#001371"/></linearGradient><linearGradient x1="252.78819" y1="235.2944" x2="265.51122" y2="238.84001" gradientUnits="userSpaceOnUse" id="color-7"><stop offset="0" stop-color="#a6680a"/><stop offset="1" stop-color="#6c4205"/></linearGradient><linearGradient x1="239.87395" y1="129.43712" x2="239.87395" y2="182.32942" gradientUnits="userSpaceOnUse" id="color-8"><stop offset="0" stop-color="#ffefc0"/><stop offset="1" stop-color="#e0ce98"/></linearGradient><linearGradient x1="238.82964" y1="112.63563" x2="238.82964" y2="144.9319" gradientUnits="userSpaceOnUse" id="color-9"><stop offset="0" stop-color="#20de16"/><stop offset="1" stop-color="#158e0e"/></linearGradient><linearGradient x1="239.59209" y1="130.37346" x2="239.59209" y2="138.30386" gradientUnits="userSpaceOnUse" id="color-10"><stop offset="0" stop-color="#20de16"/><stop offset="1" stop-color="#158e0e"/></linearGradient><linearGradient x1="240.93146" y1="150.39782" x2="240.93146" y2="167.9483" gradientUnits="userSpaceOnUse" id="color-11"><stop offset="0" stop-color="#ffefc0"/><stop offset="1" stop-color="#e0ce98"/></linearGradient><linearGradient x1="233.07103" y1="183.49521" x2="210.84708" y2="165.51004" gradientUnits="userSpaceOnUse" id="color-12"><stop offset="0" stop-color="#20de16"/><stop offset="1" stop-color="#158e0e"/></linearGradient></defs><g transform="translate(-208.56648,-112.13563)"><g data-paper-data="{&quot;isPaintingLayer&quot;:true}" fill-rule="nonzero" stroke-linejoin="miter" stroke-miterlimit="10" stroke-dasharray="" stroke-dashoffset="0" style="mix-blend-mode: normal"><g data-paper-data="{&quot;origRot&quot;:0,&quot;origPos&quot;:null}" stroke-width="1.5" stroke-linecap="butt"><path d="M237.96167,180.09984c0.52931,-3.31129 8.37723,-3.98099 17.5288,-1.4958c9.15158,2.48518 16.1413,7.18415 15.61198,10.49546c-0.52932,3.3113 -8.37723,3.981 -17.5288,1.49581c-9.15158,-2.48518 -16.14132,-7.18417 -15.61198,-10.49546z" data-paper-data="{&quot;origRot&quot;:0,&quot;origPos&quot;:null,&quot;index&quot;:null}" fill="url(#color-1)" stroke="#158e0e"/><path d="M268.69017,180.85725c4.39612,-3.48491 10.93336,-2.58079 14.60131,2.01938c3.66796,4.60019 3.07767,11.15444 -1.31845,14.63936c-4.39611,3.48489 -10.93336,2.58079 -14.60131,-2.01938c-3.66796,-4.60019 -3.07766,-11.15445 1.31845,-14.63936z" data-paper-data="{&quot;origPos&quot;:null,&quot;index&quot;:null}" fill="#ffffff" stroke="#bfbfbf"/></g><g data-paper-data="{&quot;origPos&quot;:null}" stroke-width="1.5" stroke-linecap="butt"><path d="M254.78149,220.94882c3.49504,0.57967 9.32385,2.80114 12.64676,4.03104c4.77886,1.76877 5.18324,3.40415 4.72732,7.48627c-0.45795,4.10032 -0.14911,5.42429 -5.16566,5.56525c-3.45045,0.09695 -10.20479,-3.35341 -13.6774,-3.92936c-10.25458,-1.70077 -17.44252,-1.34919 -17.0307,-5.03663c0,0 1.23337,-5.80182 3.16097,-6.5012c0,0 -1.24023,-3.03512 1.87321,-3.2655c3.135,-0.23197 3.21094,-0.05064 13.46552,1.65014z" data-paper-data="{&quot;origPos&quot;:null,&quot;origRot&quot;:0}" fill="url(#color-2)" stroke="#001371"/><path d="M272.15132,221.32345c4.08673,-3.40006 7.25036,-0.63187 8.17213,1.86578c1.11621,3.02448 -0.18527,11.35942 -2.88302,15.25342c-2.69773,3.89398 -3.37879,2.07035 -5.10127,1.8365c-3.82968,-0.51992 -6.52571,-3.71781 -5.56877,-10.22114c0.95692,-6.50332 1.29418,-5.33453 5.38092,-8.73459z" data-paper-data="{&quot;origPos&quot;:null,&quot;origRot&quot;:0}" fill="url(#color-3)" stroke="#6c4306"/></g><path d="M256.24037,201.31185c0,9.41437 2.57396,18.53496 -2.43939,25.72942c-3.21333,4.61132 -9.69716,3.56404 -14.67924,3.56404c-4.98207,0 -11.4659,0.74966 -14.67924,-3.86164c-5.01335,-7.19445 -2.43939,-16.01745 -2.43939,-25.4318c0,-16.17833 7.66426,-29.54752 17.11863,-29.54752c0,0 9.72842,-0.91541 12.88897,5.72261c3.14566,6.60674 4.22966,7.64657 4.22966,23.8249z" data-paper-data="{&quot;origPos&quot;:null}" fill="url(#color-4)" stroke="#001371" stroke-width="1.5" stroke-linecap="butt"/><path d="M247.25516,184.72278c0,2.73229 1.18698,7.24255 -0.31003,9.12432c-1.61709,2.03268 -3.32827,2.96733 -5.5586,2.95273c-2.46992,-0.01618 -4.1733,-1.01847 -6.23486,-2.81865c-2.11879,-1.85016 -1.69451,-5.89918 -1.69451,-9.25839c0,-4.84812 3.0888,-8.7783 6.89902,-8.7783c3.8102,0 6.899,3.93019 6.899,8.7783z" data-paper-data="{&quot;origPos&quot;:null}" fill="url(#color-5)" stroke="none" stroke-width="0" stroke-linecap="butt"/><path d="M233.99305,193.01094c0,2.26997 -1.7773,4.11017 -3.96972,4.11017c-2.19242,0 -3.96972,-1.84019 -3.96972,-4.11017c0,-2.26997 1.7773,-4.11016 3.96972,-4.11016c2.19242,0 3.96972,1.84019 3.96972,4.11016z" data-paper-data="{&quot;origPos&quot;:null}" fill="#faff66" stroke="none" stroke-width="1.5" stroke-linecap="butt"/><path d="M255.28603,192.4472c0,2.21407 -1.73351,4.00892 -3.87193,4.00892c-2.13841,0 -3.87194,-1.79484 -3.87194,-4.00892c0,-2.21407 1.73353,-4.00892 3.87194,-4.00892c2.13841,0 3.87193,1.79484 3.87193,4.00892z" data-paper-data="{&quot;origPos&quot;:null}" fill="#faff66" stroke="none" stroke-width="1.5" stroke-linecap="butt"/><path d="M242.03117,224.37453c3.37539,0.94064 8.79534,3.77444 11.89124,5.3531c4.4524,2.27036 4.58127,3.96039 3.44729,8.02958c-1.13904,4.08734 -1.05314,5.45366 -6.06031,5.0845c-3.444,-0.25393 -9.57836,-4.42103 -12.9321,-5.35564c-9.90354,-2.75988 -17.103,-3.138 -16.07865,-6.81377c0,0 2.19326,-5.72378 4.22491,-6.23246c5.85795,-1.46669 5.60407,-2.82519 15.50762,-0.06531z" data-paper-data="{&quot;origPos&quot;:null,&quot;origRot&quot;:0}" fill="url(#color-6)" stroke="#001371" stroke-width="1.5" stroke-linecap="butt"/><path d="M258.76595,228.64094c4.34279,-2.62641 7.09228,0.40859 7.70164,2.87999c0.73789,2.99268 -1.46747,10.63527 -4.52129,13.91711c-3.0538,3.28184 -3.5065,1.47627 -5.14788,1.01885c-3.64937,-1.01699 -5.89737,-4.39066 -4.23333,-10.36187c1.66403,-5.9712 1.85807,-4.82768 6.20087,-7.45409z" data-paper-data="{&quot;origPos&quot;:null,&quot;origRot&quot;:0}" fill="url(#color-7)" stroke="#6c4306" stroke-width="1.5" stroke-linecap="butt"/><path d="" data-paper-data="{&quot;origPos&quot;:null}" fill="#c1770b" stroke="#6c4306" stroke-width="1.5" stroke-linecap="butt"/><g data-paper-data="{&quot;origPos&quot;:null}"><path d="M264.89567,156.74528c0,9.84218 -5.14936,13.90084 -11.92352,18.96597c-4.72012,3.52931 -6.06853,6.61817 -11.57363,6.61817c-6.39728,0 -8.94794,-3.43831 -14.4308,-7.5442c-6.66848,-4.99375 -12.11553,-8.5149 -12.11553,-18.20747c0,-5.0106 0.57271,-17.63489 2.65647,-21.85717c4.80207,-9.73034 14.74065,-3.04204 23.65922,-3.04204c0,0 14.51881,-4.21225 19.42967,5.04324c2.33042,4.39213 4.29814,6.17951 4.29814,20.02349z" data-paper-data="{&quot;origPos&quot;:null}" fill="url(#color-8)" stroke="#e0ce98" stroke-width="1" stroke-linecap="butt"/><path d="M263.70686,131.11588c4.00627,16.71215 -25.08437,7.40635 -27.49927,9.0406c-2.37176,1.60506 -21.51796,1.04064 -21.1688,-1.20378c1.89371,-12.17314 11.44355,-17.03179 17.05142,-15.97189c5.60786,1.0599 27.61039,-8.57709 31.61666,8.13505z" data-paper-data="{&quot;origPos&quot;:null,&quot;origRot&quot;:0}" fill="#c27231" stroke="#985926" stroke-width="1.5" stroke-linecap="butt"/><path d="M252.71777,168.689c0,0.96935 -1.05436,2.6064 -1.15734,3.56971c-0.21869,2.04583 -1.61583,3.12409 -3.57684,3.21584c-2.16435,0.10127 -5.99132,-2.51586 -5.99132,-2.51586c0,0 -2.87775,1.19046 -4.82459,1.64777c-1.63184,0.38331 -4.15503,0.13211 -5.64053,-0.65409c-1.0443,-0.55271 -2.66543,-2.87291 -3.30943,-3.89703c-2.03878,-3.24213 -7.28717,-8.01425 -2.80634,-9.19469c2.20464,-0.58081 8.73957,5.62854 11.0127,5.62854c0,0 3.80829,-0.01754 5.70018,0.08441c4.2897,0.23114 10.5935,-2.47257 10.5935,2.1154z" data-paper-data="{&quot;origPos&quot;:null}" fill="#160b02" stroke="none" stroke-width="0" stroke-linecap="butt"/><path d="M266.87487,132.13143c0,9.88537 -11.03409,3.80048 -26.30554,3.80048c-3.69718,0 -21.53088,4.57582 -25.67096,1.35486c-2.92262,-2.27378 -2.32629,-4.64778 -2.32629,-8.35535c0,-7.42474 9.66934,-13.62739 9.84287,-13.71054c5.48182,-2.62659 10.95662,-1.97633 17.03295,-1.97633c0,0 12.43874,-1.8163 19.6767,0.82488c8.19439,2.99018 7.75028,8.17661 7.75028,18.06198z" data-paper-data="{&quot;origPos&quot;:null}" fill="url(#color-9)" stroke="#158e0e" stroke-width="1" stroke-linecap="butt"/><path d="M266.5571,136.67679c0,3.48124 -11.46327,0.29318 -26.35564,0.29318c-14.89236,0 -27.57441,3.18806 -27.57441,-0.29318c0,-3.48124 12.07265,-6.30333 26.96502,-6.30333c14.89236,0 26.96502,2.8221 26.96502,6.30333z" data-paper-data="{&quot;origPos&quot;:null}" fill="url(#color-10)" stroke="#158e0e" stroke-width="1" stroke-linecap="butt"/><path d="M248.40676,125.49928c0,2.14526 0.31298,3.62537 -1.25453,4.98952c-1.35299,1.17745 -9.04403,0.86884 -10.32229,-0.07714c-1.82086,-1.34756 -1.08988,-2.56403 -1.08988,-4.91238c0,-3.50501 2.83555,-6.34641 6.33336,-6.34641c3.49782,0 6.33335,2.84139 6.33335,6.34641z" data-paper-data="{&quot;origPos&quot;:null}" fill="#ffffff" stroke="#a4a4a4" stroke-width="1" stroke-linecap="butt"/><path d="M229.96445,146.14649c0,0 3.57853,-0.58761 4.30266,-0.46124c1.29495,0.22598 3.53513,1.83418 3.53513,1.83418" data-paper-data="{&quot;origPos&quot;:null,&quot;origRot&quot;:0}" fill="none" stroke="#351c06" stroke-width="2" stroke-linecap="round"/><path d="M245.16561,147.04733c0,0 1.85754,-1.33351 2.93129,-1.52089c0.60044,-0.10479 3.56772,0.38246 3.56772,0.38246" data-paper-data="{&quot;origPos&quot;:null,&quot;origRot&quot;:0,&quot;index&quot;:null}" fill="none" stroke="#351c06" stroke-width="2" stroke-linecap="round"/><path d="M245.30663,129.10558l-4.53402,-0.22681l0.06825,-5.80712" data-paper-data="{&quot;origPos&quot;:null}" fill="none" stroke="#158e0e" stroke-width="1" stroke-linecap="round"/><path d="M229.4515,168.889c0,-4.58797 6.3038,-1.88426 10.5935,-2.1154c1.89189,-0.10195 5.70018,-0.08441 5.70018,-0.08441c2.27313,0 8.80806,-6.20935 11.0127,-5.62854c4.48083,1.18044 -0.76756,5.95256 -2.80634,9.19469c-0.644,1.02412 -2.26513,3.34432 -3.30943,3.89703c-1.4855,0.7862 -4.00869,1.0374 -5.64053,0.65409c-1.94684,-0.45731 -4.82459,-1.64777 -4.82459,-1.64777c0,0 -3.82697,2.61713 -5.99132,2.51586c-1.96101,-0.09175 -3.35815,-1.17001 -3.57684,-3.21584c-0.10298,-0.96331 -1.15734,-2.60036 -1.15734,-3.56971z" data-paper-data="{&quot;origPos&quot;:null,&quot;index&quot;:null}" fill="#160b02" stroke="none" stroke-width="0" stroke-linecap="butt"/><path d="M253.13809,159.04371c0,4.77499 -5.21052,8.90459 -11.95206,8.90459c-6.74152,0 -12.46119,-4.1296 -12.46119,-8.90459c0,-4.77499 5.46509,-8.64589 12.20662,-8.64589c6.74152,0 12.20662,3.87089 12.20662,8.64589z" data-paper-data="{&quot;origPos&quot;:null}" fill="url(#color-11)" stroke="#e0ce98" stroke-width="1.5" stroke-linecap="butt"/><path d="M245.43303,176.99346c0,0.9665 -3.27043,2.75 -4.375,2.75c-1.10457,0 -4.125,-2.1585 -4.125,-3.125c0,-0.9665 3.02043,-0.375 4.125,-0.375c1.10457,0 4.375,-0.2165 4.375,0.75z" data-paper-data="{&quot;origPos&quot;:null}" fill="#160b02" stroke="#160b02" stroke-width="1" stroke-linecap="butt"/><path d="M242.59743,179.31429c0,0.50626 -0.61561,0.91667 -1.375,0.91667c-0.75939,0 -1.375,-0.41041 -1.375,-0.91667c0,-0.50626 0.61561,-0.91667 1.375,-0.91667c0.75939,0 1.375,0.41041 1.375,0.91667z" data-paper-data="{&quot;origPos&quot;:null}" fill="#ff0000" stroke="none" stroke-width="0" stroke-linecap="butt"/></g><path d="M215.53381,175.6704c-1.90694,-9.61969 -0.57615,-17.94084 2.9724,-18.58578c3.54856,-0.64496 7.97111,6.63052 9.87808,16.25021c1.90694,9.61969 0.57615,17.94084 -2.9724,18.58578c-3.54856,0.64496 -7.97111,-6.63052 -9.87808,-16.25021z" data-paper-data="{&quot;origRot&quot;:0,&quot;origPos&quot;:null}" fill="url(#color-12)" stroke="#158e0e" stroke-width="1.5" stroke-linecap="butt"/><path d="M209.78152,153.81179c0.61424,-1.98658 2.19881,-1.0327 2.96416,-2.9661c0.46859,-1.18372 0.61796,-9.26631 0.61796,-9.26631l2.55784,-0.4679l2.68298,8.23946c0,0 1.42219,0.5738 2.67804,0.54095c0.00584,-0.00015 3.18208,-8.28452 3.18208,-8.28452l2.14715,0.50495c0,0 0.27324,7.54109 0.6009,10.10549c0.12846,1.00537 2.03218,1.31049 2.13342,2.31896c0.48593,4.84022 0.08979,6.78345 -3.86871,9.61085c-4.71824,3.37006 -11.21679,2.55359 -14.51491,-1.82364c0,0 -2.70344,-3.58799 -1.18091,-8.51218z" data-paper-data="{&quot;origPos&quot;:null,&quot;origRot&quot;:0}" fill="#ffffff" stroke="#bfbfbf" stroke-width="1.5" stroke-linecap="butt"/></g></g></svg>