<svg version="1.1" xmlns="http://www.w3.org/2000/svg" xmlns:xlink="http://www.w3.org/1999/xlink" width="34.45119" height="34.93982" viewBox="0,0,34.45119,34.93982"><defs><linearGradient x1="240.02466" y1="187.76148" x2="240.02466" y2="196.71991" gradientUnits="userSpaceOnUse" id="color-1"><stop offset="0" stop-color="#66ff77"/><stop offset="1" stop-color="#00db1a"/></linearGradient><linearGradient x1="239.97535" y1="163.28009" x2="239.97535" y2="172.23852" gradientUnits="userSpaceOnUse" id="color-2"><stop offset="0" stop-color="#66ff77"/><stop offset="1" stop-color="#00db1a"/></linearGradient></defs><g transform="translate(-222.7744,-162.53009)"><g data-paper-data="{&quot;isPaintingLayer&quot;:true}" fill-rule="nonzero" stroke-linecap="butt" stroke-linejoin="miter" stroke-miterlimit="10" stroke-dasharray="" stroke-dashoffset="0" style="mix-blend-mode: normal"><g><path d="M232.13863,177.63419l-1.60906,-4.44103l20.67373,-7.49049l1.60907,4.44102z" data-paper-data="{&quot;origRot&quot;:0,&quot;origPos&quot;:null}" fill="#eaea2f" stroke="#898600" stroke-width="1"/><path d="M232.02505,192.17986l-1.6924,-4.02436l20.75707,-7.90715l1.60907,4.44103z" data-paper-data="{&quot;origRot&quot;:0,&quot;origPos&quot;:null}" fill="#eaea2f" stroke="#898600" stroke-width="1"/><path d="M228.73788,177.31045l1.4424,-3.85769l20.67373,6.57382l-1.4424,4.77436z" data-paper-data="{&quot;origRot&quot;:0,&quot;origPos&quot;:null,&quot;index&quot;:null}" fill="#eaea2f" stroke="#898600" stroke-width="1"/><path d="M244.46661,184.59849l-1.08333,-0.58333l1.08333,-2.33333l5.75,-1.375l0.79167,1.125l-0.29167,3.41667l-3.16667,1.16667z" data-paper-data="{&quot;origPos&quot;:null}" fill="#eaea2f" stroke="none" stroke-width="0"/><path d="M230.52929,174.15801l0.95238,-0.80952l6.28571,1.28571l-0.85714,2.38095z" fill="#eaea2f" stroke="none" stroke-width="0"/><path d="M223.57372,196.71991v-8.95843h32.90188v8.95843z" data-paper-data="{&quot;origPos&quot;:null}" fill="url(#color-1)" stroke="#00b315" stroke-width="1.5"/><path d="M223.52441,172.23852v-8.95843h32.90188v8.95843z" data-paper-data="{&quot;origPos&quot;:null}" fill="url(#color-2)" stroke="#00b315" stroke-width="1.5"/></g></g></g></svg>