<svg version="1.1" xmlns="http://www.w3.org/2000/svg" xmlns:xlink="http://www.w3.org/1999/xlink" width="200.51527" height="279.7062" viewBox="0,0,200.51527,279.7062"><defs><linearGradient x1="123.35027" y1="46.02768" x2="123.35027" y2="260.89316" gradientUnits="userSpaceOnUse" id="color-1"><stop offset="0" stop-color="#ffb54d"/><stop offset="1" stop-color="#ffcb82"/></linearGradient><linearGradient x1="203.94138" y1="3.82363" x2="203.94138" y2="283.49074" gradientUnits="userSpaceOnUse" id="color-2"><stop offset="0" stop-color="#ff84f5"/><stop offset="1" stop-color="#ff9bf7"/></linearGradient></defs><g transform="translate(-71.24539,-3.78455)"><g data-paper-data="{&quot;isPaintingLayer&quot;:true}" fill-rule="nonzero" stroke="none" stroke-width="0" stroke-linecap="butt" stroke-linejoin="miter" stroke-miterlimit="10" stroke-dasharray="" stroke-dashoffset="0" style="mix-blend-mode: normal"><path d="M175.45515,153.46042c0,59.33346 -23.32815,107.43274 -52.10488,107.43274c-28.77673,0 -52.10488,-48.09928 -52.10488,-107.43274c0,-59.33346 9.36895,-106.10706 52.10488,-107.43274c45.95688,-1.42559 52.10488,48.09928 52.10488,107.43274z" fill="url(#color-1)"/><path d="M81.13391,77.96643c0,0 11.02063,1.90625 18.48483,8.09069c5.56413,4.61015 8.1381,12.61153 8.1381,18.53224c0,13.86324 -11.23838,25.10162 -25.10162,25.10162c-3.24853,0 -9.96303,-1.74044 -9.96303,-1.74044c0,0 -0.22001,-15.62549 1.26096,-23.42477c1.58007,-8.32116 7.18076,-26.55935 7.18076,-26.55935z" fill="#ffe0b5"/><path d="M125.25191,157.07457c0,-19.74462 16.00618,-35.75079 35.75079,-35.75079c5.1436,0 14.4528,3.04183 14.4528,3.04183c0,0 1.5678,22.48526 0.42495,33.59166c-1.17735,11.44167 -3.58537,34.08244 -3.58537,34.08244c0,0 -8.72373,0.78567 -11.29237,0.78567c-19.74462,0 -35.75079,-16.00618 -35.75079,-35.75079z" fill="#ffe0b5"/><path d="M75.25452,196.17078c0,0 9.21859,-2.58476 13.48594,-2.58476c15.96373,0 28.9049,12.94116 28.9049,28.9049c0,11.56087 -18.11548,27.68108 -18.11548,27.68108c0,0 -7.79737,-9.36477 -15.11479,-23.69325c-8.85359,-17.33652 -9.16056,-30.30796 -9.16056,-30.30796z" fill="#ffe0b5"/><path d="M203.94138,3.82363c55.62472,1.72549 67.81927,62.60562 67.81927,139.83356c0,77.22794 -30.36372,139.83356 -67.81927,139.83356c-37.45555,0 -67.81927,-62.60562 -67.81927,-139.83356c0,-77.22794 8.00218,-141.6891 67.81927,-139.83356z" data-paper-data="{&quot;index&quot;:null}" fill="url(#color-2)"/><path d="M268.23626,79.96426c1.92762,10.15148 1.64126,30.48948 1.64126,30.48948c0,0 -8.73954,2.26534 -12.9678,2.26534c-18.04428,0 -32.67206,-14.62778 -32.67206,-32.67206c0,-7.70634 3.35026,-18.12087 10.59249,-24.1214c9.71534,-8.04962 24.05969,-10.53078 24.05969,-10.53078c0,0 7.28981,23.73867 9.34642,34.56942z" data-paper-data="{&quot;index&quot;:null}" fill="#ffc9fa"/><path d="M154.93329,194.89426c-3.34332,0 -14.69806,-1.02262 -14.69806,-1.02262c0,0 -3.13426,-29.46904 -4.66669,-44.36141c-1.48753,-14.45599 0.55311,-43.72262 0.55311,-43.72262c0,0 12.11678,-3.95921 18.81164,-3.95921c25.69943,0 46.53293,20.8335 46.53293,46.53293c0,25.69943 -20.8335,46.53293 -46.53293,46.53293z" data-paper-data="{&quot;index&quot;:null}" fill="#ffc9fa"/><path d="M254.61909,238.69722c-9.52429,18.64983 -19.67329,30.83894 -19.67329,30.83894c0,0 -23.57895,-20.98193 -23.57895,-36.02946c0,-20.77826 16.84411,-37.62237 37.62237,-37.62237c5.55434,0 17.55318,3.36431 17.55318,3.36431c0,0 -0.39955,16.88353 -11.92331,39.44859z" data-paper-data="{&quot;index&quot;:null}" fill="#ffc9fa"/></g></g></svg>