<svg version="1.1" xmlns="http://www.w3.org/2000/svg" xmlns:xlink="http://www.w3.org/1999/xlink" width="486" height="227" viewBox="0,0,486,227"><defs><linearGradient x1="293.90625" y1="159.81251" x2="293.90625" y2="301.81251" gradientUnits="userSpaceOnUse" id="color-1"><stop offset="0" stop-color="#ffaf26"/><stop offset="1" stop-color="#ffe1a0"/></linearGradient><linearGradient x1="250.40625" y1="290.81251" x2="250.40625" y2="382.81251" gradientUnits="userSpaceOnUse" id="color-2"><stop offset="0" stop-color="#ffaf26"/><stop offset="1" stop-color="#ffe1a0"/></linearGradient></defs><g transform="translate(-7.40625,-157.81251)"><g data-paper-data="{&quot;isPaintingLayer&quot;:true}" fill-rule="nonzero" stroke-linejoin="miter" stroke-miterlimit="10" stroke-dasharray="" stroke-dashoffset="0" style="mix-blend-mode: normal"><path d="M164.40625,301.81251v-142h259v142z" fill="url(#color-1)" stroke="#c38600" stroke-width="4" stroke-linecap="butt"/><path d="M9.40625,382.81251v-92h482v92z" fill="url(#color-2)" stroke="#c38600" stroke-width="4" stroke-linecap="butt"/><path d="M22.40625,332.10871l44,-1" fill="none" stroke="#c38600" stroke-width="4" stroke-linecap="round"/><path d="M115.90625,315.10871l44,-1" fill="none" stroke="#c38600" stroke-width="4" stroke-linecap="round"/><path d="M192.40625,335.10871l44,-1" fill="none" stroke="#c38600" stroke-width="4" stroke-linecap="round"/><path d="M315.90625,339.10871l-44,1" fill="none" stroke="#c38600" stroke-width="4" stroke-linecap="round"/><path d="M318.40625,316.10871l44,-1" fill="none" stroke="#c38600" stroke-width="4" stroke-linecap="round"/><path d="M393.40625,330.10871l44,-1" fill="none" stroke="#c38600" stroke-width="4" stroke-linecap="round"/><path d="M489.45313,309.60871l-44,1" fill="none" stroke="#c38600" stroke-width="4" stroke-linecap="round"/><path d="M203.90625,209.10871l44,-1" fill="none" stroke="#c38600" stroke-width="4" stroke-linecap="round"/><path d="M250.40625,185.10871l44,-1" fill="none" stroke="#c38600" stroke-width="4" stroke-linecap="round"/><path d="M325.40625,199.10871l44,-1" fill="none" stroke="#c38600" stroke-width="4" stroke-linecap="round"/><path d="M421.45313,178.60871l-44,1" fill="none" stroke="#c38600" stroke-width="4" stroke-linecap="round"/><path d="M101.45136,283.00251l-7.59198,-67.32748c0,0 10.85156,-8.05002 31.99477,-8.05002c21.86634,0 35.24848,8.05002 35.24848,8.05002l-4.88056,67.32748z" fill="#a26700" stroke="#654500" stroke-width="4" stroke-linecap="butt"/><path d="M93.85938,278.22364c0,-15.70477 0,-44.62714 0,-51.24144c0,-3.66976 0,-7.42694 0,-7.42694c0,0 12.47841,7.05559 33.62162,7.05559c21.86634,0 33.62163,-7.05559 33.62163,-7.05559c0,0 0,46.68501 0,58.12609c0,4.79312 -4.16406,10.20172 -10.27798,10.20172c-13.69586,0 -37.17636,0 -45.55188,0c-6.39852,0 -11.41339,-0.41298 -11.41339,-9.65944z" fill="#bf841d" stroke="#654500" stroke-width="4" stroke-linecap="butt"/><path d="M94.96937,247.85572v-9.76111c0,0 22.05329,7.59198 32.23115,7.59198c11.3792,0 32.84295,-7.59198 32.84295,-7.59198v9.76111c0,0 -22.33172,7.59198 -33.39914,7.59198c-10.60413,0 -31.67496,-7.59198 -31.67496,-7.59198z" fill="#654500" stroke="none" stroke-width="0" stroke-linecap="butt"/><path d="M94.96937,265.20882v-9.76112c0,0 22.05329,7.59198 32.23115,7.59198c11.3792,0 32.84296,-7.59198 32.84296,-7.59198v9.76112c0,0 -22.33173,7.59197 -33.39915,7.59197c-10.60413,0 -31.67496,-7.59197 -31.67496,-7.59197z" fill="#654500" stroke="none" stroke-width="0" stroke-linecap="butt"/><path d="M77.99873,286.52873l-5.10811,-45.29992c0,0 7.30125,-5.41629 21.52703,-5.41629c14.71232,0 23.71622,5.41629 23.71622,5.41629l-3.28378,45.29992z" fill="#a26700" stroke="#654500" stroke-width="4" stroke-linecap="butt"/><path d="M72.89063,283.31335c0,-10.56664 0,-30.02646 0,-34.47676c0,-2.46912 0,-4.99706 0,-4.99706c0,0 8.39585,4.74721 22.62162,4.74721c14.71232,0 22.62162,-4.74721 22.62162,-4.74721c0,0 0,31.41105 0,39.10895c0,3.22495 -2.8017,6.86402 -6.91533,6.86402c-9.21498,0 -25.01335,0 -30.64865,0c-4.30512,0 -7.67927,-0.27787 -7.67927,-6.49916z" fill="#bf841d" stroke="#654500" stroke-width="4" stroke-linecap="butt"/><path d="M73.63746,262.88092v-6.56757c0,0 14.8381,5.10811 21.68607,5.10811c7.65626,0 22.09771,-5.10811 22.09771,-5.10811v6.56757c0,0 -15.02545,5.10811 -22.47193,5.10811c-7.13478,0 -21.31185,-5.10811 -21.31185,-5.10811z" fill="#654500" stroke="none" stroke-width="0" stroke-linecap="butt"/><path d="M73.63746,274.5566v-6.56757c0,0 14.8381,5.10811 21.68607,5.10811c7.65626,0 22.09772,-5.10811 22.09772,-5.10811v6.56757c0,0 -15.02545,5.10811 -22.47194,5.10811c-7.13478,0 -21.31185,-5.10811 -21.31185,-5.10811z" fill="#654500" stroke="none" stroke-width="0" stroke-linecap="butt"/></g></g></svg>