<svg version="1.1" xmlns="http://www.w3.org/2000/svg" xmlns:xlink="http://www.w3.org/1999/xlink" width="264.60512" height="141.10354" viewBox="0,0,264.60512,141.10354"><defs><linearGradient x1="314.82043" y1="182.70751" x2="314.82043" y2="204.97143" gradientUnits="userSpaceOnUse" id="color-1"><stop offset="0" stop-color="#d21515"/><stop offset="1" stop-color="#940000"/></linearGradient><linearGradient x1="320.18473" y1="214.18107" x2="320.18473" y2="241.78546" gradientUnits="userSpaceOnUse" id="color-2"><stop offset="0" stop-color="#364ec7"/><stop offset="1" stop-color="#001371"/></linearGradient><linearGradient x1="304.48974" y1="228.59565" x2="304.48974" y2="251.36238" gradientUnits="userSpaceOnUse" id="color-3"><stop offset="0" stop-color="#a6680a"/><stop offset="1" stop-color="#6c4306"/></linearGradient><linearGradient x1="330.07516" y1="172.58105" x2="330.07516" y2="231.78101" gradientUnits="userSpaceOnUse" id="color-4"><stop offset="0" stop-color="#364ec7"/><stop offset="1" stop-color="#001371"/></linearGradient><linearGradient x1="331.66483" y1="177.89431" x2="331.66483" y2="198.4161" gradientUnits="userSpaceOnUse" id="color-5"><stop offset="0" stop-color="#d21515"/><stop offset="1" stop-color="#940000"/></linearGradient><linearGradient x1="330.51095" y1="135.59665" x2="330.51095" y2="186.2091" gradientUnits="userSpaceOnUse" id="color-6"><stop offset="0" stop-color="#ffefc0"/><stop offset="1" stop-color="#e0ce98"/></linearGradient><linearGradient x1="330.63481" y1="116.66052" x2="330.63481" y2="150.57001" gradientUnits="userSpaceOnUse" id="color-7"><stop offset="0" stop-color="#d21515"/><stop offset="1" stop-color="#940000"/></linearGradient><linearGradient x1="348.24889" y1="137.05436" x2="348.24889" y2="144.71789" gradientUnits="userSpaceOnUse" id="color-8"><stop offset="0" stop-color="#d21515"/><stop offset="1" stop-color="#940000"/></linearGradient><linearGradient x1="356.99924" y1="158.17124" x2="356.99924" y2="174.88114" gradientUnits="userSpaceOnUse" id="color-9"><stop offset="0" stop-color="#ffefc0"/><stop offset="1" stop-color="#e0ce98"/></linearGradient><linearGradient x1="307.75291" y1="150.50648" x2="307.75291" y2="161.81043" gradientUnits="userSpaceOnUse" id="color-10"><stop offset="0" stop-color="#ffefc0"/><stop offset="1" stop-color="#e0ce98"/></linearGradient><linearGradient x1="340.70174" y1="216.04588" x2="340.70174" y2="245.0376" gradientUnits="userSpaceOnUse" id="color-11"><stop offset="0" stop-color="#364ec7"/><stop offset="1" stop-color="#001371"/></linearGradient><linearGradient x1="357.87093" y1="228.95351" x2="357.87093" y2="250.64283" gradientUnits="userSpaceOnUse" id="color-12"><stop offset="0" stop-color="#a6680a"/><stop offset="1" stop-color="#6c4306"/></linearGradient><linearGradient x1="326.67066" y1="184.20387" x2="326.67066" y2="204.74653" gradientUnits="userSpaceOnUse" id="color-13"><stop offset="0" stop-color="#d21515"/><stop offset="1" stop-color="#940000"/></linearGradient><linearGradient x1="150.10307" y1="217.88424" x2="118.42902" y2="233.88428" gradientUnits="userSpaceOnUse" id="color-14"><stop offset="0" stop-color="#364ec7"/><stop offset="1" stop-color="#001371"/></linearGradient><linearGradient x1="125.84918" y1="233.88484" x2="113.88405" y2="239.92897" gradientUnits="userSpaceOnUse" id="color-15"><stop offset="0" stop-color="#a6680a"/><stop offset="1" stop-color="#6c4205"/></linearGradient><linearGradient x1="152.6745" y1="184.21113" x2="122.40598" y2="183.6891" gradientUnits="userSpaceOnUse" id="color-16"><stop offset="0" stop-color="#20de16"/><stop offset="1" stop-color="#158e0e"/></linearGradient><linearGradient x1="151.07231" y1="167.8356" x2="151.07231" y2="223.13116" gradientUnits="userSpaceOnUse" id="color-17"><stop offset="0" stop-color="#364ec7"/><stop offset="1" stop-color="#001371"/></linearGradient><linearGradient x1="152.5126" y1="171.79431" x2="152.5126" y2="191.34504" gradientUnits="userSpaceOnUse" id="color-18"><stop offset="0" stop-color="#20de16"/><stop offset="1" stop-color="#158e0e"/></linearGradient><linearGradient x1="152.3245" y1="127.25917" x2="152.3245" y2="176.84235" gradientUnits="userSpaceOnUse" id="color-19"><stop offset="0" stop-color="#ffefc0"/><stop offset="1" stop-color="#e0ce98"/></linearGradient><linearGradient x1="151.2802" y1="111.50884" x2="151.2802" y2="141.78455" gradientUnits="userSpaceOnUse" id="color-20"><stop offset="0" stop-color="#20de16"/><stop offset="1" stop-color="#158e0e"/></linearGradient><linearGradient x1="165.24265" y1="129.44935" x2="165.24265" y2="136.88359" gradientUnits="userSpaceOnUse" id="color-21"><stop offset="0" stop-color="#20de16"/><stop offset="1" stop-color="#158e0e"/></linearGradient><linearGradient x1="175.78202" y1="149.15834" x2="175.78202" y2="165.61081" gradientUnits="userSpaceOnUse" id="color-22"><stop offset="0" stop-color="#ffefc0"/><stop offset="1" stop-color="#e0ce98"/></linearGradient><linearGradient x1="136.91908" y1="185.52474" x2="165.43508" y2="183.60195" gradientUnits="userSpaceOnUse" id="color-23"><stop offset="0" stop-color="#20de16"/><stop offset="1" stop-color="#158e0e"/></linearGradient><linearGradient x1="149.43711" y1="215.00442" x2="176.92079" y2="236.35823" gradientUnits="userSpaceOnUse" id="color-24"><stop offset="0" stop-color="#364ec7"/><stop offset="1" stop-color="#001371"/></linearGradient><linearGradient x1="173.05616" y1="233.25901" x2="183.22524" y2="241.16002" gradientUnits="userSpaceOnUse" id="color-25"><stop offset="0" stop-color="#a6680a"/><stop offset="1" stop-color="#6c4205"/></linearGradient></defs><g transform="translate(-108.26821,-111.00884)"><g data-paper-data="{&quot;isPaintingLayer&quot;:true}" fill-rule="nonzero" stroke-linejoin="miter" stroke-miterlimit="10" stroke-dasharray="" stroke-dashoffset="0" style="mix-blend-mode: normal"><g data-paper-data="{&quot;origPos&quot;:null,&quot;origRot&quot;:0}" stroke-width="1.5" stroke-linecap="butt"><path d="M329.31142,184.07626c1.98834,2.95116 -2.88765,9.7147 -10.8908,15.10676c-8.00316,5.39208 -16.10283,7.37083 -18.09118,4.41966c-1.98833,-2.95118 2.88763,-9.71471 10.89079,-15.10677c8.00316,-5.39208 16.10287,-7.37082 18.09118,-4.41965z" data-paper-data="{&quot;origRot&quot;:0,&quot;origPos&quot;:null,&quot;index&quot;:null}" fill="url(#color-1)" stroke="#940000"/><path d="M307.83555,205.19666c-0.52222,5.58478 -5.61898,9.67513 -11.3839,9.13607c-5.76493,-0.53907 -10.01497,-5.50343 -9.49276,-11.08822c0.52223,-5.58476 5.61898,-9.67513 11.3839,-9.13607c5.76493,0.53907 10.01497,5.50344 9.49276,11.08822z" data-paper-data="{&quot;origPos&quot;:null,&quot;index&quot;:null}" fill="#ffffff" stroke="#bfbfbf"/></g><g data-paper-data="{&quot;origPos&quot;:null,&quot;origRot&quot;:0}" stroke-width="1.5" stroke-linecap="butt"><path d="M326.15335,236.52148c-2.98039,1.82843 -8.87514,3.61409 -12.20874,4.66886c-4.79422,1.51693 -6.29427,0.14899 -8.96808,-4.27691c-2.68574,-4.44561 -3.8866,-5.56588 -0.32545,-9.17021c2.44941,-2.47911 9.92554,-3.66591 12.88682,-5.48261c8.74458,-5.3647 13.73697,-10.67981 16.15227,-6.68185c0,0 3.37257,6.69444 2.47946,8.72922c0,0 3.14177,2.20076 1.03685,4.58164c-2.11949,2.39735 -2.30854,2.26715 -11.05313,7.63184z" data-paper-data="{&quot;origPos&quot;:null,&quot;origRot&quot;:0}" fill="url(#color-2)" stroke="#001371"/><path d="M312.22516,246.4417c-0.85138,5.83402 -5.29447,5.52009 -7.77401,3.91604c-3.00256,-1.94238 -7.8131,-10.28686 -8.40694,-15.61343c-0.59384,-5.32656 1.22292,-4.16087 2.74978,-5.12885c3.39474,-2.15219 7.76892,-1.13435 11.56867,5.3364c3.79974,6.47076 2.71388,5.65583 1.86251,11.48985z" data-paper-data="{&quot;origPos&quot;:null,&quot;origRot&quot;:0}" fill="url(#color-3)" stroke="#6c4306"/></g><path d="" data-paper-data="{&quot;origPos&quot;:null}" fill="#c1770b" stroke="#6c4306" stroke-width="1.5" stroke-linecap="butt"/><g data-paper-data="{&quot;origPos&quot;:null}" stroke-linecap="butt"><path d="M348.9692,202.85576c0,9.26372 2.84091,18.23837 -2.69239,25.3177c-3.54659,4.53753 -10.70286,3.50701 -16.20164,3.50701c-5.49877,0 -12.65505,0.73766 -16.20165,-3.79985c-5.5333,-7.07933 -2.69238,-15.76114 -2.69238,-25.02485c0,-15.91945 8.45914,-28.82471 18.89403,-28.82471c0,0 11.73737,-4.40076 15.22571,2.13104c3.4719,6.50102 3.66832,10.77421 3.66832,26.69366z" data-paper-data="{&quot;origPos&quot;:null}" fill="url(#color-4)" stroke="#001371" stroke-width="1.5"/><path d="M339.05212,186.53214c0,2.68857 1.31009,7.12666 -0.34219,8.97831c-1.7848,2.00015 -3.67346,2.91985 -6.1351,2.90548c-2.72608,-0.01592 -4.60612,-1.00217 -6.88148,-2.77355c-2.33853,-1.82055 -1.87025,-5.80478 -1.87025,-9.11024c0,-4.77054 3.40914,-8.63783 7.61452,-8.63783c4.20537,0 7.61451,3.8673 7.61451,8.63783z" data-paper-data="{&quot;origPos&quot;:null}" fill="url(#color-5)" stroke="none" stroke-width="0"/><path d="M324.41458,194.68768c0,2.23365 -1.96162,4.0444 -4.38142,4.0444c-2.4198,0 -4.38143,-1.81074 -4.38143,-4.0444c0,-2.23365 1.96163,-4.04439 4.38143,-4.04439c2.4198,0 4.38142,1.81074 4.38142,4.04439z" data-paper-data="{&quot;origPos&quot;:null}" fill="#faff66" stroke="none" stroke-width="1.5"/><path d="M347.91589,194.13296c0,2.17864 -1.9133,3.94477 -4.2735,3.94477c-2.36019,0 -4.2735,-1.76612 -4.2735,-3.94477c0,-2.17864 1.91331,-3.94477 4.2735,-3.94477c2.36019,0 4.2735,1.76612 4.2735,3.94477z" data-paper-data="{&quot;origPos&quot;:null}" fill="#faff66" stroke="none" stroke-width="1.5"/></g><g data-paper-data="{&quot;origPos&quot;:null}"><path d="M360.6324,161.98587c0,13.37811 -13.73475,24.22323 -28.56379,24.22323c-14.82904,0 -31.67913,-11.007 -31.67913,-24.38512c0,-4.84199 0.68944,-17.04147 3.19789,-21.12167c5.78078,-9.40291 17.74496,-2.93967 28.48124,-2.93967c0,0 17.47791,-4.07051 23.38966,4.87354c2.80538,4.24433 5.17415,5.97157 5.17415,19.34969z" data-paper-data="{&quot;origPos&quot;:null}" fill="url(#color-6)" stroke="#e0ce98" stroke-width="1" stroke-linecap="butt"/><path d="M358.50909,134.8602c8.09723,14.22755 -29.33424,10.83219 -31.98263,12.69652c-2.60107,1.83102 -0.81879,7.42841 -3.96033,7.42841c-4.40313,0 -9.25612,0.71417 -10.46658,5.11413c-0.70052,2.54638 2.60132,7.50047 0.13667,8.17316c-2.42796,0.66268 -4.70501,2.65189 -7.21096,2.80494c-2.03236,0.12412 -2.35905,-1.8961 -4.39469,-1.9276c-5.79716,-0.08972 0.78824,-11.96655 0.9253,-12.58939c0.04568,-0.20761 -1.20602,-4.44904 -1.20602,-6.50931c0,-11.17434 10.77902,-17.11649 17.8548,-17.11649c7.07578,0 32.2072,-12.30192 40.30444,1.92563z" data-paper-data="{&quot;origPos&quot;:null}" fill="#5a3413" stroke="#351c06" stroke-width="1" stroke-linecap="butt"/><path d="M357.91427,174.43729c0,0.93673 -1.03545,2.26869 -1.13658,3.19959c-0.21477,1.97699 -1.58685,3.01897 -3.51269,3.10762c-2.12553,0.09786 -3.01604,-2.04326 -5.14035,-2.16621c-1.47465,-0.08537 -1.53991,1.74597 -3.01688,1.74597c-1.60871,0 -1.59206,-1.47457 -3.17663,-1.76096c-2.16384,-0.39108 -2.86624,1.73159 -4.82742,0.71024c-1.02557,-0.53411 -2.61762,-2.77623 -3.25007,-3.76589c-2.00221,-3.13303 -6.90647,-7.24457 -2.50601,-8.38529c2.1651,-0.56126 8.33282,5.18914 10.56518,5.18914c0,0 3.73999,-0.01695 5.59794,0.08157c4.21276,0.22336 10.4035,-2.38936 10.4035,2.04422z" data-paper-data="{&quot;origPos&quot;:null}" fill="#5a3413" stroke="#351c06" stroke-width="1" stroke-linecap="butt"/><path d="M361.87853,137.32832c0,10.22611 -12.29169,3.93148 -29.30368,3.93148c-4.11857,0 -9.56963,8.43304 -13.688,8.3958c-5.83861,-0.05278 -13.19319,2.54455 -17.80513,-0.78743c-3.25572,-2.35216 -0.80907,-7.7045 -0.80907,-11.53986c0,-8.66476 9.69318,-8.78997 18.09413,-12.52798c6.1066,-2.71713 5.93994,-7.5099 12.70881,-7.5099c0,0 13.85643,-1.8789 21.91934,0.85332c9.12834,3.09325 8.8836,8.95845 8.8836,19.18456z" data-paper-data="{&quot;origPos&quot;:null}" fill="url(#color-7)" stroke="#940000" stroke-width="1" stroke-linecap="butt"/><path d="M372.37333,143.14558c0,3.36409 -10.25569,0.28331 -23.57925,0.28331c-13.32355,0 -24.66962,3.08078 -24.66962,-0.28331c0,-3.36409 10.80087,-6.09122 24.12443,-6.09122c13.32355,0 24.12443,2.72713 24.12443,6.09122z" data-paper-data="{&quot;origPos&quot;:null}" fill="url(#color-8)" stroke="#940000" stroke-width="1" stroke-linecap="butt"/><path d="M356.48394,131.00477c0,2.07307 0.30737,3.50338 -1.23203,4.82162c-1.32872,1.13783 -8.88182,0.83961 -10.13715,-0.07455c-1.7882,-1.30221 -1.07033,-2.47775 -1.07033,-4.74707c0,-3.38707 2.78469,-6.13285 6.21977,-6.13285c3.43508,0 6.21976,2.74578 6.21976,6.13285z" data-paper-data="{&quot;origPos&quot;:null}" fill="#ffffff" stroke="#a4a4a4" stroke-width="1" stroke-linecap="butt"/><path d="M348.88145,155.83591c0,3.99999 -2.08558,7.24263 -4.65827,7.24263c-2.57269,0 -4.65827,-3.24264 -4.65827,-7.24263c0,-3.99999 2.08558,-7.24264 4.65827,-7.24264c2.57269,0 4.65827,3.24264 4.65827,7.24264z" data-paper-data="{&quot;origPos&quot;:null}" fill="#ffffff" stroke="none" stroke-width="0" stroke-linecap="butt"/><path d="M346.59388,133.89745l1.71344,-5.34246l2.02498,3.56164l1.55767,-3.72353l2.3365,5.01868" data-paper-data="{&quot;origPos&quot;:null}" fill="none" stroke="#ba0000" stroke-width="1" stroke-linecap="round"/><path d="M340.53295,147.87833c0,0 3.51435,-0.56784 4.22549,-0.44572c1.27172,0.21838 3.47173,1.77246 3.47173,1.77246" data-paper-data="{&quot;origPos&quot;:null,&quot;origRot&quot;:0}" fill="none" stroke="#351c06" stroke-width="1.5" stroke-linecap="round"/><path d="M348.90994,155.52473c0,2.65462 -1.3841,4.8066 -3.09148,4.8066c-1.70738,0 -3.09148,-2.152 -3.09148,-4.8066c0,-2.65462 1.38411,-4.8066 3.09148,-4.8066c1.70738,0 3.09148,2.152 3.09148,4.8066z" data-paper-data="{&quot;origPos&quot;:null}" fill="#1121d4" stroke="none" stroke-width="0" stroke-linecap="butt"/><path d="M348.97722,155.38514c0,1.37271 -0.71572,2.4855 -1.59861,2.4855c-0.8829,0 -1.59861,-1.1128 -1.59861,-2.4855c0,-1.37271 0.71573,-2.4855 1.59861,-2.4855c0.8829,0 1.59861,1.1128 1.59861,2.4855z" data-paper-data="{&quot;origPos&quot;:null}" fill="#000000" stroke="none" stroke-width="0" stroke-linecap="butt"/><path d="M355.16295,147.96594c2.13325,0 3.8626,2.68875 3.8626,6.0055c0,3.31675 -1.72934,6.0055 -3.8626,6.0055c-2.13325,0 -3.8626,-2.68875 -3.8626,-6.0055c0,-3.31675 1.72934,-6.0055 3.8626,-6.0055z" data-paper-data="{&quot;origPos&quot;:null,&quot;index&quot;:null}" fill="#ffffff" stroke="none" stroke-width="0" stroke-linecap="butt"/><path d="M352.17604,148.37996c0,0 1.82422,-1.28863 2.87872,-1.46971c0.58967,-0.10126 3.50373,0.36959 3.50373,0.36959" data-paper-data="{&quot;origPos&quot;:null,&quot;origRot&quot;:0,&quot;index&quot;:null}" fill="none" stroke="#351c06" stroke-width="1.5" stroke-linecap="round"/><path d="M356.58257,149.84529c1.41573,0 2.56343,1.78441 2.56343,3.98557c0,2.20117 -1.14768,3.98557 -2.56343,3.98557c-1.41573,0 -2.56342,-1.78441 -2.56342,-3.98557c0,-2.20117 1.14768,-3.98557 2.56342,-3.98557z" data-paper-data="{&quot;origPos&quot;:null,&quot;index&quot;:null}" fill="#1121d4" stroke="none" stroke-width="0" stroke-linecap="butt"/><path d="M357.92058,151.77634c0.73209,0 1.32555,0.92272 1.32555,2.06095c0,1.13824 -0.59347,2.06095 -1.32555,2.06095c-0.73209,0 -1.32554,-0.92272 -1.32554,-2.06095c0,-1.13824 0.59347,-2.06095 1.32554,-2.06095z" data-paper-data="{&quot;origPos&quot;:null,&quot;index&quot;:null}" fill="#000000" stroke="none" stroke-width="0" stroke-linecap="butt"/><path d="M368.98693,166.52619c0,4.61431 -5.36707,8.35495 -11.98769,8.35495c-6.62061,0 -11.98769,-3.74063 -11.98769,-8.35495c0,-4.61431 5.36707,-8.35495 11.98769,-8.35495c6.62061,0 11.98769,3.74063 11.98769,8.35495z" data-paper-data="{&quot;origPos&quot;:null}" fill="url(#color-9)" stroke="#e0ce98" stroke-width="1.5" stroke-linecap="butt"/><path d="M314.73522,158.57742c-0.90455,2.82035 -4.76391,4.0237 -8.62013,2.68774c-3.85623,-1.33596 -6.24902,-4.70531 -5.34448,-7.52567c0.90455,-2.82035 4.76391,-4.0237 8.62013,-2.68774c3.85623,1.33596 6.24902,4.70531 5.34448,7.52567z" data-paper-data="{&quot;origRot&quot;:0,&quot;origPos&quot;:null}" fill="url(#color-10)" stroke="#e0ce98" stroke-width="1.5" stroke-linecap="butt"/></g><g data-paper-data="{&quot;origPos&quot;:null,&quot;origRot&quot;:0}" stroke-width="1.5" stroke-linecap="butt"><path d="M346.79843,220.94564c2.72486,2.11267 6.4181,6.95536 8.54833,9.67769c3.0636,3.91511 2.31503,5.80854 -0.86077,9.90458c-3.18995,4.11431 -3.81253,5.63921 -8.38364,3.62985c-3.14406,-1.38208 -6.82939,-7.91493 -9.5368,-10.01405c-7.99486,-6.19868 -14.64605,-8.92049 -11.77731,-12.62051c0,0 5.03593,-5.56983 7.23006,-5.47615c6.32642,0.27012 6.78525,-1.30008 14.78013,4.89862z" data-paper-data="{&quot;origPos&quot;:null}" fill="url(#color-11)" stroke="#001371"/><path d="M361.30591,229.17485c5.89391,-1.27578 7.27009,3.24794 6.67324,6.29188c-0.72274,3.68598 -6.87886,11.49359 -11.74286,14.01922c-4.86399,2.52562 -4.43585,0.29882 -5.93645,-0.86465c-3.33639,-2.58681 -4.0142,-7.298 0.73338,-13.4213c4.7476,-6.1233 4.37878,-4.74938 10.27269,-6.02515z" data-paper-data="{&quot;origPos&quot;:null}" fill="url(#color-12)" stroke="#6c4306"/></g><g data-paper-data="{&quot;origPos&quot;:null,&quot;origRot&quot;:0}" stroke-width="1.5" stroke-linecap="butt"><path d="M329.82955,188.81015c8.48465,4.73114 13.94855,11.10281 12.20394,14.23152c-1.74459,3.12872 -10.03704,1.82969 -18.52172,-2.90142c-8.48465,-4.73114 -13.94855,-11.10281 -12.20394,-14.23152c1.74459,-3.12872 10.03704,-1.82969 18.52172,2.90142z" data-paper-data="{&quot;origRot&quot;:0,&quot;origPos&quot;:null}" fill="url(#color-13)" stroke="#940000"/><path d="M343.22233,193.34966c5.73721,-1.02893 11.19619,2.64254 12.19296,8.20048c0.99678,5.55793 -2.84611,10.89762 -8.58331,11.92655c-5.73721,1.02893 -11.19619,-2.64254 -12.19296,-8.20048c-0.99678,-5.55793 2.84611,-10.89762 8.58331,-11.92655z" data-paper-data="{&quot;origPos&quot;:null,&quot;origRot&quot;:0}" fill="#ffffff" stroke="#bfbfbf"/></g><g data-paper-data="{&quot;origRot&quot;:0,&quot;origPos&quot;:null}" stroke-width="1.5" stroke-linecap="butt"><path d="M139.64202,230.91912c-2.9429,1.84907 -8.71059,4.07608 -11.97363,5.37061c-4.69275,1.86174 -6.10781,1.00481 -8.57266,-2.07535c-2.47585,-3.0939 -3.60795,-3.79955 -0.05056,-7.11795c2.44682,-2.28243 9.73065,-4.26482 12.65467,-6.10203c8.63458,-5.42524 13.62927,-10.28214 15.85582,-7.4998c0,0 3.07687,4.75376 2.15203,6.46941c0,0 2.98294,1.27581 0.87301,3.43289c-2.12454,2.17201 -2.3041,2.09697 -10.93868,7.52222z" data-paper-data="{&quot;origPos&quot;:null,&quot;origRot&quot;:0}" fill="url(#color-14)" stroke="#001371"/><path d="M126.73344,241.82002c-0.64709,4.94652 -4.8481,5.08838 -7.23082,3.975c-2.88531,-1.34821 -7.64819,-7.87536 -8.35124,-12.267c-0.70305,-4.39163 1.04252,-3.58387 2.45736,-4.53055c3.14571,-2.10481 7.30055,-1.65292 11.05942,3.40229c3.75887,5.05519 2.71239,4.47375 2.06531,9.42027z" data-paper-data="{&quot;origPos&quot;:null,&quot;origRot&quot;:0}" fill="url(#color-15)" stroke="#6c4306"/></g><g data-paper-data="{&quot;origPos&quot;:null}" stroke-width="1.5" stroke-linecap="butt"><path d="M152.37927,175.85174c1.98604,2.53289 -3.04761,8.21198 -11.24298,12.68459c-8.19537,4.47261 -16.44902,6.04506 -18.43508,3.51215c-1.98604,-2.53291 3.0476,-8.21199 11.24297,-12.68459c8.19537,-4.47261 16.44905,-6.04506 18.43508,-3.51214z" data-paper-data="{&quot;origRot&quot;:0,&quot;origPos&quot;:null,&quot;index&quot;:null}" fill="url(#color-16)" stroke="#158e0e"/><path d="M130.26367,195.86363c-0.60546,5.22817 -5.83939,8.99648 -11.69029,8.41676c-5.85092,-0.57972 -10.1032,-5.28793 -9.49775,-10.5161c0.60546,-5.22815 5.83939,-8.99648 11.6903,-8.41676c5.85093,0.57972 10.1032,5.28794 9.49775,10.51611z" data-paper-data="{&quot;origPos&quot;:null,&quot;index&quot;:null,&quot;origRot&quot;:0}" fill="#ffffff" stroke="#bfbfbf"/></g><path d="M168.19094,195.57461c0,8.82537 2.57396,17.37535 -2.43939,24.1197c-3.21333,4.32282 -9.69716,3.34106 -14.67924,3.34106c-4.98207,0 -11.4659,0.70276 -14.67924,-3.62004c-5.01335,-6.74434 -2.43939,-15.01534 -2.43939,-23.8407c0,-15.16616 7.66426,-27.69893 17.11863,-27.69893c0,0 9.72842,-0.85814 12.88897,5.36458c3.14566,6.1934 4.22966,7.16817 4.22966,22.33433z" data-paper-data="{&quot;origPos&quot;:null}" fill="url(#color-17)" stroke="#001371" stroke-width="1.5" stroke-linecap="butt"/><path d="M159.20573,180.02341c0,2.56135 1.18698,6.78943 -0.31003,8.55347c-1.61709,1.90551 -3.32827,2.78168 -5.5586,2.768c-2.46992,-0.01517 -4.1733,-0.95475 -6.23486,-2.64231c-2.11879,-1.73441 -1.69451,-5.53011 -1.69451,-8.67915c0,-4.5448 3.0888,-8.2291 6.89902,-8.2291c3.8102,0 6.899,3.6843 6.899,8.2291z" data-paper-data="{&quot;origPos&quot;:null}" fill="url(#color-18)" stroke="none" stroke-width="0" stroke-linecap="butt"/><path d="M145.94362,187.79304c0,2.12795 -1.7773,3.85302 -3.96972,3.85302c-2.19242,0 -3.96972,-1.72506 -3.96972,-3.85302c0,-2.12795 1.7773,-3.85301 3.96972,-3.85301c2.19242,0 3.96972,1.72506 3.96972,3.85301z" data-paper-data="{&quot;origPos&quot;:null}" fill="#faff66" stroke="none" stroke-width="1.5" stroke-linecap="butt"/><path d="M167.2366,187.26456c0,2.07555 -1.73351,3.75811 -3.87193,3.75811c-2.13841,0 -3.87194,-1.68255 -3.87194,-3.75811c0,-2.07555 1.73353,-3.75811 3.87194,-3.75811c2.13841,0 3.87193,1.68255 3.87193,3.75811z" data-paper-data="{&quot;origPos&quot;:null}" fill="#faff66" stroke="none" stroke-width="1.5" stroke-linecap="butt"/><path d="M177.34623,152.85884c0,9.22642 -5.14936,13.03116 -11.92352,17.77939c-4.72012,3.3085 -6.06853,6.20411 -11.57363,6.20411c-6.39728,0 -8.94794,-3.2232 -14.4308,-7.07221c-6.66848,-4.68132 -12.11553,-7.98218 -12.11553,-17.06835c0,-4.69712 0.57271,-16.53159 2.65647,-20.48971c4.80207,-9.12158 14.74065,-2.85172 23.65922,-2.85172c0,0 14.51881,-3.94872 19.42967,4.72772c2.33042,4.11734 4.29814,5.7929 4.29814,18.77075z" data-paper-data="{&quot;origPos&quot;:null}" fill="url(#color-19)" stroke="#e0ce98" stroke-width="1" stroke-linecap="butt"/><path d="M177.43941,125.681c7.39631,14.73172 -26.79497,11.21604 -29.2141,13.14643c-2.37591,1.8959 -0.74791,7.69164 -3.6175,7.69164c-4.02198,0 -8.45488,0.73948 -9.56057,5.29535c-0.63988,2.63662 2.37615,7.76626 0.12484,8.46279c-2.2178,0.68617 -4.06937,3.00473 -6.35839,3.16319c-1.85643,0.12851 -2.3832,-2.22215 -4.24263,-2.25477c-5.29533,-0.09291 0.72001,-12.3906 0.8452,-13.03551c0.04172,-0.21497 -1.10163,-4.60669 -1.10163,-6.73997c0,-11.57032 9.84594,-17.72304 16.30923,-17.72304c6.46328,0 29.41924,-12.73785 36.81555,1.99386z" data-paper-data="{&quot;origPos&quot;:null}" fill="#c27231" stroke="#985926" stroke-width="1.5" stroke-linecap="butt"/><path d="M176.96833,165.18025c0,0.9087 -1.05436,2.44333 -1.15734,3.34638c-0.21869,1.91784 -1.61583,2.92864 -3.57684,3.01465c-2.16435,0.09493 -5.99132,-2.35846 -5.99132,-2.35846c0,0 -2.87775,1.11598 -4.82459,1.54468c-1.63184,0.35933 -4.15503,0.12384 -5.64053,-0.61317c-1.0443,-0.51813 -2.66543,-2.69317 -3.30943,-3.65322c-2.03878,-3.03929 -7.28717,-7.51285 -2.80634,-8.61944c2.20464,-0.54447 8.73957,5.2764 11.0127,5.2764c0,0 3.80829,-0.01644 5.70018,0.07913c4.2897,0.21668 10.5935,-2.31788 10.5935,1.98305z" data-paper-data="{&quot;origPos&quot;:null}" fill="#160b02" stroke="none" stroke-width="0" stroke-linecap="butt"/><path d="M179.32543,129.78492c0,9.26691 -11.03409,3.56271 -26.30554,3.56271c-3.69718,0 -8.59054,7.64203 -12.28753,7.60828c-5.24124,-0.04784 -11.84335,2.30588 -15.98343,-0.71357c-2.92262,-2.13152 -0.72629,-6.98182 -0.72629,-10.45743c0,-7.85202 8.70145,-7.96547 16.24287,-11.35286c5.48182,-2.46226 5.55662,-6.35238 11.63295,-6.35238c0,0 12.43874,-1.70267 19.6767,0.77327c8.19439,2.8031 7.75028,7.66505 7.75028,16.93196z" data-paper-data="{&quot;origPos&quot;:null}" fill="url(#color-20)" stroke="#158e0e" stroke-width="1" stroke-linecap="butt"/><path d="M189.80767,135.35832c0,3.26344 -10.44299,0.27484 -24.00988,0.27484c-13.56688,0 -25.12017,2.9886 -25.12017,-0.27484c0,-3.26344 10.99813,-5.90897 24.56502,-5.90897c13.56688,0 24.56502,2.64554 24.56502,5.90897z" data-paper-data="{&quot;origPos&quot;:null}" fill="url(#color-21)" stroke="#158e0e" stroke-width="1" stroke-linecap="butt"/><path d="M175.25732,123.19272c0,2.01105 0.31298,3.39855 -1.25453,4.67736c-1.35299,1.10378 -9.04403,0.81448 -10.32229,-0.07231c-1.82086,-1.26325 -1.08988,-2.40362 -1.08988,-4.60504c0,-3.28572 2.83555,-5.94936 6.33336,-5.94936c3.49782,0 6.33335,2.66362 6.33335,5.94936z" data-paper-data="{&quot;origPos&quot;:null}" fill="#ffffff" stroke="#a4a4a4" stroke-width="1" stroke-linecap="butt"/><path d="M167.51598,146.89289c0,3.88031 -2.12367,7.02593 -4.74334,7.02593c-2.61968,0 -4.74334,-3.14562 -4.74334,-7.02593c0,-3.88031 2.12367,-7.02594 4.74334,-7.02594c2.61968,0 4.74334,3.14562 4.74334,7.02594z" data-paper-data="{&quot;origPos&quot;:null}" fill="#ffffff" stroke="none" stroke-width="0" stroke-linecap="butt"/><path d="M159.01501,139.1734c0,0 3.57853,-0.55085 4.30266,-0.43238c1.29495,0.21184 3.53513,1.71943 3.53513,1.71943" data-paper-data="{&quot;origPos&quot;:null,&quot;origRot&quot;:0}" fill="none" stroke="#351c06" stroke-width="1.5" stroke-linecap="round"/><path d="M167.54499,146.59102c0,2.57519 -1.40938,4.66279 -3.14794,4.66279c-1.73856,0 -3.14794,-2.08761 -3.14794,-4.66279c0,-2.57519 1.40939,-4.66279 3.14794,-4.66279c1.73856,0 3.14794,2.08761 3.14794,4.66279z" data-paper-data="{&quot;origPos&quot;:null}" fill="#1121d4" stroke="none" stroke-width="0" stroke-linecap="butt"/><path d="M167.6135,146.45561c0,1.33164 -0.72879,2.41113 -1.62781,2.41113c-0.89902,0 -1.62781,-1.07951 -1.62781,-2.41113c0,-1.33164 0.7288,-2.41113 1.62781,-2.41113c0.89902,0 1.62781,1.07951 1.62781,2.41113z" data-paper-data="{&quot;origPos&quot;:null}" fill="#000000" stroke="none" stroke-width="0" stroke-linecap="butt"/><path d="M173.9122,139.25839c2.17221,0 3.93314,2.6083 3.93314,5.82581c0,3.21752 -1.76092,5.82581 -3.93314,5.82581c-2.17221,0 -3.93314,-2.6083 -3.93314,-5.82581c0,-3.21752 1.76092,-5.82581 3.93314,-5.82581z" data-paper-data="{&quot;origPos&quot;:null,&quot;index&quot;:null}" fill="#ffffff" stroke="none" stroke-width="0" stroke-linecap="butt"/><path d="M170.61617,138.70547c0,0 1.85754,-1.25008 2.93129,-1.42574c0.60044,-0.09823 3.56772,0.35853 3.56772,0.35853" data-paper-data="{&quot;origPos&quot;:null,&quot;origRot&quot;:0,&quot;index&quot;:null}" fill="none" stroke="#351c06" stroke-width="1.5" stroke-linecap="round"/><path d="M175.35775,141.08151c1.44159,0 2.61025,1.73102 2.61025,3.86632c0,2.13531 -1.16864,3.86632 -2.61025,3.86632c-1.44159,0 -2.61024,-1.73102 -2.61024,-3.86632c0,-2.13531 1.16864,-3.86632 2.61024,-3.86632z" data-paper-data="{&quot;origPos&quot;:null,&quot;index&quot;:null}" fill="#1121d4" stroke="none" stroke-width="0" stroke-linecap="butt"/><path d="M176.72019,142.95479c0.74546,0 1.34976,0.89512 1.34976,1.99929c0,1.10419 -0.60431,1.99929 -1.34976,1.99929c-0.74546,0 -1.34975,-0.89512 -1.34975,-1.99929c0,-1.10419 0.60431,-1.99929 1.34975,-1.99929z" data-paper-data="{&quot;origPos&quot;:null,&quot;index&quot;:null}" fill="#000000" stroke="none" stroke-width="0" stroke-linecap="butt"/><path d="M187.98865,157.26332c0,4.47625 -5.21052,8.34749 -11.95206,8.34749c-6.74152,0 -12.46119,-3.87124 -12.46119,-8.34749c0,-4.47625 5.46509,-8.10497 12.20662,-8.10497c6.74152,0 12.20662,3.62871 12.20662,8.10497z" data-paper-data="{&quot;origPos&quot;:null}" fill="url(#color-22)" stroke="#e0ce98" stroke-width="1.5" stroke-linecap="butt"/><path d="M140.48493,151.29853c-0.92107,2.73596 -4.85091,3.90331 -8.77756,2.60732c-3.92666,-1.296 -6.36315,-4.56453 -5.44209,-7.3005c0.92107,-2.73596 4.85091,-3.90331 8.77756,-2.60732c3.92666,1.296 6.36315,4.56453 5.44209,7.3005z" data-paper-data="{&quot;origRot&quot;:0,&quot;origPos&quot;:null}" fill="#ffefc0" stroke="#e0ce98" stroke-width="1.5" stroke-linecap="butt"/><path d="M171.75719,125.82345l-4.53402,-0.21262l0.06825,-5.44381" data-paper-data="{&quot;origPos&quot;:null}" fill="none" stroke="#158e0e" stroke-width="1" stroke-linecap="round"/><g data-paper-data="{&quot;origPos&quot;:null}" stroke-width="1.5" stroke-linecap="butt"><path d="M155.07098,179.64872c7.96489,5.36353 12.67836,11.91188 10.52783,14.62615c-2.15053,2.71427 -10.35069,0.56661 -18.31561,-4.7969c-7.96489,-5.36353 -12.67837,-11.91188 -10.52784,-14.62615c2.15052,-2.71427 10.3507,-0.56661 18.31562,4.7969z" data-paper-data="{&quot;origRot&quot;:0,&quot;origPos&quot;:null}" fill="url(#color-23)" stroke="#158e0e"/><path d="M168.00949,185.38952c5.91438,-0.30812 10.96049,3.72672 11.27079,9.01209c0.31033,5.28535 -4.23268,9.81975 -10.14707,10.12788c-5.91438,0.30812 -10.96049,-3.72672 -11.2708,-9.01209c-0.31032,-5.28535 4.23268,-9.81975 10.14707,-10.12788z" data-paper-data="{&quot;origPos&quot;:null,&quot;origRot&quot;:0}" fill="#ffffff" stroke="#bfbfbf"/></g><g data-paper-data="{&quot;origRot&quot;:0,&quot;origPos&quot;:null}" stroke-width="1.5" stroke-linecap="butt"><path d="M167.69084,219.79869c2.69784,2.09612 6.48985,6.59454 8.67219,9.12981c3.13856,3.64611 2.56665,5.14182 -0.12896,8.19071c-2.70764,3.06248 -3.1867,4.26472 -7.60748,2.03355c-3.04066,-1.53464 -6.9409,-7.44743 -9.62143,-9.5301c-7.91557,-6.15011 -14.33419,-9.22748 -11.89919,-11.98158c0,0 4.33781,-4.05981 6.40021,-3.71806c5.94658,0.98537 6.2691,-0.27443 14.18467,5.87568z" data-paper-data="{&quot;origPos&quot;:null}" fill="url(#color-24)" stroke="#001371"/><path d="M181.22844,229.85108c5.03648,-0.58673 6.30834,3.06246 5.85629,5.41068c-0.54741,2.84354 -5.67918,8.54093 -9.80629,10.18164c-4.1271,1.64071 -3.80368,-0.07775 -5.11559,-1.09705c-2.91682,-2.26626 -3.59264,-6.01348 0.36295,-10.48747c3.9556,-4.47399 3.66616,-3.42108 8.70265,-4.00781z" data-paper-data="{&quot;origPos&quot;:null}" fill="url(#color-25)" stroke="#6c4306"/></g></g></g></svg>