<svg version="1.1" xmlns="http://www.w3.org/2000/svg" xmlns:xlink="http://www.w3.org/1999/xlink" width="68.66335" height="151.48889" viewBox="0,0,68.66335,151.48889"><defs><linearGradient x1="245.0877" y1="173.24601" x2="238.22143" y2="201.59856" gradientUnits="userSpaceOnUse" id="color-1"><stop offset="0" stop-color="#20de16"/><stop offset="1" stop-color="#158e0e"/></linearGradient><linearGradient x1="241.44905" y1="218.84833" x2="223.71752" y2="248.95355" gradientUnits="userSpaceOnUse" id="color-2"><stop offset="0" stop-color="#364ec7"/><stop offset="1" stop-color="#001371"/></linearGradient><linearGradient x1="229.99978" y1="245.15652" x2="223.30157" y2="256.52899" gradientUnits="userSpaceOnUse" id="color-3"><stop offset="0" stop-color="#a6680a"/><stop offset="1" stop-color="#6c4205"/></linearGradient><linearGradient x1="241.0723" y1="166.28761" x2="241.0723" y2="223.0086" gradientUnits="userSpaceOnUse" id="color-4"><stop offset="0" stop-color="#364ec7"/><stop offset="1" stop-color="#001371"/></linearGradient><linearGradient x1="242.51259" y1="170.34838" x2="242.51259" y2="190.40308" gradientUnits="userSpaceOnUse" id="color-5"><stop offset="0" stop-color="#20de16"/><stop offset="1" stop-color="#158e0e"/></linearGradient><linearGradient x1="243.36304" y1="217.61352" x2="260.33306" y2="247.81229" gradientUnits="userSpaceOnUse" id="color-6"><stop offset="0" stop-color="#364ec7"/><stop offset="1" stop-color="#001371"/></linearGradient><linearGradient x1="257.98532" y1="243.47403" x2="264.26431" y2="254.64772" gradientUnits="userSpaceOnUse" id="color-7"><stop offset="0" stop-color="#a6680a"/><stop offset="1" stop-color="#6c4205"/></linearGradient><linearGradient x1="220.22508" y1="179.46734" x2="247.05252" y2="188.9701" gradientUnits="userSpaceOnUse" id="color-8"><stop offset="0" stop-color="#20de16"/><stop offset="1" stop-color="#158e0e"/></linearGradient><linearGradient x1="242.3245" y1="124.66518" x2="242.3245" y2="175.52654" gradientUnits="userSpaceOnUse" id="color-9"><stop offset="0" stop-color="#ffefc0"/><stop offset="1" stop-color="#e0ce98"/></linearGradient><linearGradient x1="241.28019" y1="108.50883" x2="241.28019" y2="139.565" gradientUnits="userSpaceOnUse" id="color-10"><stop offset="0" stop-color="#20de16"/><stop offset="1" stop-color="#158e0e"/></linearGradient><linearGradient x1="255.24264" y1="126.91181" x2="255.24264" y2="134.5377" gradientUnits="userSpaceOnUse" id="color-11"><stop offset="0" stop-color="#20de16"/><stop offset="1" stop-color="#158e0e"/></linearGradient><linearGradient x1="265.78201" y1="147.12889" x2="265.78201" y2="164.00547" gradientUnits="userSpaceOnUse" id="color-12"><stop offset="0" stop-color="#ffefc0"/><stop offset="1" stop-color="#e0ce98"/></linearGradient></defs><g transform="translate(-211.64432,-108.00884)"><g data-paper-data="{&quot;isPaintingLayer&quot;:true}" fill-rule="nonzero" stroke-linejoin="miter" stroke-miterlimit="10" stroke-dasharray="" stroke-dashoffset="0" style="mix-blend-mode: normal"><path d="M253.66167,175.61942c2.13388,2.48745 -1.51207,9.78828 -8.14342,16.30684c-6.63133,6.51856 -13.73694,9.78639 -15.87081,7.29892c-2.13386,-2.48748 1.51208,-9.78828 8.14343,-16.30683c6.63134,-6.51855 13.73696,-9.78639 15.87081,-7.29893z" data-paper-data="{&quot;origRot&quot;:0,&quot;origPos&quot;:null,&quot;index&quot;:null}" fill="url(#color-1)" stroke="#158e0e" stroke-width="1.5" stroke-linecap="butt"/><path d="M236.10479,202.71146c-0.83202,5.60073 -6.01031,9.53487 -11.566,8.78717c-5.55571,-0.74772 -9.38501,-5.89414 -8.553,-11.49489c0.83202,-5.60073 6.01029,-9.53488 11.566,-8.78717c5.5557,0.74772 9.38501,5.89414 8.553,11.49489z" data-paper-data="{&quot;origPos&quot;:null,&quot;index&quot;:null,&quot;origRot&quot;:0}" fill="#ffffff" stroke="#bfbfbf" stroke-width="1.5" stroke-linecap="butt"/><path d="M239.99312,235.52201c-1.44168,3.11192 -5.06027,7.99774 -7.08782,10.79193c-2.91592,4.01847 -4.60042,3.9985 -8.43592,2.58508c-3.8526,-1.41973 -5.21167,-1.45314 -4.08395,-6.15556c0.77566,-3.23438 5.8167,-8.6837 7.24913,-11.77566c4.22994,-9.13049 5.70101,-15.90457 9.16567,-14.62783c0,0 5.3038,2.5536 5.49487,4.51685c0,0 3.2497,-0.41866 2.68809,2.53444c-0.56551,2.97354 -0.76012,3.00028 -4.99007,12.13077z" data-paper-data="{&quot;origPos&quot;:null,&quot;origRot&quot;:0}" fill="url(#color-2)" stroke="#001371" stroke-width="1.5" stroke-linecap="butt"/><path d="M235.25354,251.59509c2.26052,4.62688 -1.21554,6.90009 -3.86487,7.15264c-3.20815,0.30584 -10.94617,-2.92496 -14.03469,-6.37898c-3.08852,-3.454 -1.15211,-3.64589 -0.49177,-5.1921c1.46819,-3.4378 5.24226,-5.17176 11.29458,-2.7054c6.05232,2.46634 4.83626,2.49696 7.09678,7.12385z" data-paper-data="{&quot;origPos&quot;:null,&quot;origRot&quot;:0}" fill="url(#color-3)" stroke="#6c4306" stroke-width="1.5" stroke-linecap="butt"/><path d="M258.19093,194.74169c0,9.05288 2.57396,17.82326 -2.43939,24.74147c-3.21333,4.43426 -9.69716,3.42719 -14.67924,3.42719c-4.98207,0 -11.4659,0.72087 -14.67924,-3.71336c-5.01335,-6.9182 -2.43939,-15.40242 -2.43939,-24.45528c0,-15.55712 7.66426,-28.41296 17.11863,-28.41296c0,0 9.72842,-0.88026 12.88897,5.50287c3.14566,6.35306 4.22966,7.35296 4.22966,22.91008z" data-paper-data="{&quot;origPos&quot;:null}" fill="url(#color-4)" stroke="#001371" stroke-width="1.5" stroke-linecap="butt"/><path d="M249.20572,178.7896c0,2.62738 1.18698,6.96445 -0.31003,8.77397c-1.61709,1.95463 -3.32827,2.85339 -5.5586,2.83935c-2.46992,-0.01556 -4.1733,-0.97936 -6.23486,-2.71042c-2.11879,-1.77912 -1.69451,-5.67266 -1.69451,-8.90289c0,-4.66196 3.0888,-8.44123 6.89902,-8.44123c3.8102,0 6.899,3.77928 6.899,8.44123z" data-paper-data="{&quot;origPos&quot;:null}" fill="url(#color-5)" stroke="none" stroke-width="0" stroke-linecap="butt"/><path d="M235.94361,186.75951c0,2.18281 -1.7773,3.95235 -3.96972,3.95235c-2.19242,0 -3.96972,-1.76953 -3.96972,-3.95235c0,-2.18281 1.7773,-3.95234 3.96972,-3.95234c2.19242,0 3.96972,1.76953 3.96972,3.95234z" data-paper-data="{&quot;origPos&quot;:null}" fill="#faff66" stroke="none" stroke-width="1.5" stroke-linecap="butt"/><path d="M257.23659,186.21742c0,2.12905 -1.73351,3.85499 -3.87193,3.85499c-2.13841,0 -3.87194,-1.72592 -3.87194,-3.85499c0,-2.12905 1.73353,-3.85499 3.87194,-3.85499c2.13841,0 3.87193,1.72592 3.87193,3.85499z" data-paper-data="{&quot;origPos&quot;:null}" fill="#faff66" stroke="none" stroke-width="1.5" stroke-linecap="butt"/><path d="M258.37941,228.73916c1.6658,2.96435 3.38797,8.60761 4.40048,11.80435c1.45616,4.59742 0.32904,5.81467 -3.38733,7.74575c-3.73294,1.9397 -4.65687,2.91114 -7.8667,-0.80131c-2.20775,-2.55349 -3.46602,-9.5812 -5.12114,-12.52655c-4.88753,-8.69754 -9.61263,-13.93351 -6.25557,-15.6779c0,0 5.6427,-2.30223 7.41909,-1.23541c5.12193,3.07601 5.92364,1.99351 10.81117,10.69105z" data-paper-data="{&quot;origPos&quot;:null,&quot;origRot&quot;:0}" fill="url(#color-6)" stroke="#001371" stroke-width="1.5" stroke-linecap="butt"/><path d="M266.92416,243.17096c4.90507,1.2531 4.62877,5.18212 3.27269,7.25351c-1.64212,2.5083 -8.67449,6.08289 -13.15667,6.15951c-4.48217,0.07663 -3.49664,-1.44189 -4.30668,-2.8834c-1.80101,-3.20497 -0.93283,-7.01289 4.52063,-9.8466c5.45346,-2.83372 4.76497,-1.93614 9.67004,-0.68302z" data-paper-data="{&quot;origPos&quot;:null,&quot;origRot&quot;:0}" fill="url(#color-7)" stroke="#6c4306" stroke-width="1.5" stroke-linecap="butt"/><path d="M239.34712,181.16836c4.89942,8.16913 6.31549,16.15722 3.16288,17.84187c-3.15261,1.68468 -9.68006,-3.57203 -14.57951,-11.74115c-4.89942,-8.16913 -6.31549,-16.15722 -3.16288,-17.84187c3.15261,-1.68468 9.68006,3.57203 14.57951,11.74115z" data-paper-data="{&quot;origRot&quot;:0,&quot;origPos&quot;:null}" fill="url(#color-8)" stroke="#158e0e" stroke-width="1.5" stroke-linecap="butt"/><path d="M248.61238,191.66096c5.5243,2.05567 8.34837,7.82636 6.30771,12.88919c-2.04064,5.06284 -8.17324,7.5006 -13.69755,5.44493c-5.5243,-2.05567 -8.34837,-7.82636 -6.30771,-12.88919c2.04064,-5.06284 8.17324,-7.5006 13.69755,-5.44493z" data-paper-data="{&quot;origPos&quot;:null,&quot;origRot&quot;:0}" fill="#ffffff" stroke="#bfbfbf" stroke-width="1.5" stroke-linecap="butt"/><path d="M267.34623,150.92477c0,9.46426 -5.14936,13.36708 -11.92352,18.23772c-4.72012,3.39379 -6.06853,6.36405 -11.57363,6.36405c-6.39728,0 -8.94794,-3.30629 -14.4308,-7.25452c-6.66848,-4.802 -12.11553,-8.18795 -12.11553,-17.50834c0,-4.8182 0.57271,-16.95775 2.65647,-21.0179c4.80207,-9.35672 14.74065,-2.92523 23.65922,-2.92523c0,0 14.51881,-4.05051 19.42967,4.84959c2.33042,4.22348 4.29814,5.94223 4.29814,19.25463z" data-paper-data="{&quot;origPos&quot;:null}" fill="url(#color-9)" stroke="#e0ce98" stroke-width="1" stroke-linecap="butt"/><path d="M267.4394,123.04633c7.39631,15.11148 -26.79497,11.50518 -29.2141,13.48533c-2.37591,1.94477 -0.74791,7.88992 -3.6175,7.88992c-4.02198,0 -8.45488,0.75854 -9.56057,5.43186c-0.63988,2.70458 2.37615,7.96646 0.12484,8.68095c-2.2178,0.70385 -4.06937,3.08219 -6.35839,3.24473c-1.85643,0.13183 -2.3832,-2.27943 -4.24263,-2.31289c-5.29533,-0.0953 0.72001,-12.71001 0.8452,-13.37155c0.04172,-0.22051 -1.10163,-4.72545 -1.10163,-6.91372c0,-11.86858 9.84594,-18.17991 16.30923,-18.17991c6.46328,0 29.41924,-13.06621 36.81555,2.04526z" data-paper-data="{&quot;origPos&quot;:null}" fill="#c27231" stroke="#985926" stroke-width="1.5" stroke-linecap="butt"/><path d="M266.96832,163.5638c0,0.93213 -1.05436,2.50632 -1.15734,3.43264c-0.21869,1.96727 -1.61583,3.00413 -3.57684,3.09236c-2.16435,0.09738 -5.99132,-2.41926 -5.99132,-2.41926c0,0 -2.87775,1.14475 -4.82459,1.5845c-1.63184,0.36859 -4.15503,0.12704 -5.64053,-0.62897c-1.0443,-0.53149 -2.66543,-2.7626 -3.30943,-3.74739c-2.03878,-3.11764 -7.28717,-7.70652 -2.80634,-8.84163c2.20464,-0.55851 8.73957,5.41242 11.0127,5.41242c0,0 3.80829,-0.01687 5.70018,0.08117c4.2897,0.22226 10.5935,-2.37763 10.5935,2.03417z" data-paper-data="{&quot;origPos&quot;:null}" fill="#160b02" stroke="none" stroke-width="0" stroke-linecap="butt"/><path d="M269.32542,127.25604c0,9.50579 -11.03409,3.65455 -26.30554,3.65455c-3.69718,0 -8.59054,7.83903 -12.28753,7.80441c-5.24124,-0.04907 -11.84335,2.36532 -15.98343,-0.73196c-2.92262,-2.18647 -0.72629,-7.1618 -0.72629,-10.72701c0,-8.05443 8.70145,-8.17081 16.24287,-11.64552c5.48182,-2.52573 5.55662,-6.51613 11.63295,-6.51613c0,0 12.43874,-1.74656 19.6767,0.79321c8.19439,2.87536 7.75028,7.86265 7.75028,17.36844z" data-paper-data="{&quot;origPos&quot;:null}" fill="url(#color-10)" stroke="#158e0e" stroke-width="1" stroke-linecap="butt"/><path d="M279.80766,132.97311c0,3.34757 -10.44299,0.28192 -24.00988,0.28192c-13.56688,0 -25.12017,3.06565 -25.12017,-0.28192c0,-3.34757 10.99813,-6.0613 24.56502,-6.0613c13.56688,0 24.56502,2.71374 24.56502,6.0613z" data-paper-data="{&quot;origPos&quot;:null}" fill="url(#color-11)" stroke="#158e0e" stroke-width="1" stroke-linecap="butt"/><path d="M265.25731,120.49391c0,2.06289 0.31298,3.48616 -1.25453,4.79793c-1.35299,1.13224 -9.04403,0.83548 -10.32229,-0.07418c-1.82086,-1.29582 -1.08988,-2.46558 -1.08988,-4.72376c0,-3.37043 2.83555,-6.10272 6.33336,-6.10272c3.49782,0 6.33335,2.73229 6.33335,6.10272z" data-paper-data="{&quot;origPos&quot;:null}" fill="#ffffff" stroke="#a4a4a4" stroke-width="1" stroke-linecap="butt"/><path d="M257.51597,144.80503c0,3.98034 -2.12367,7.20705 -4.74334,7.20705c-2.61968,0 -4.74334,-3.2267 -4.74334,-7.20705c0,-3.98034 2.12367,-7.20705 4.74334,-7.20705c2.61968,0 4.74334,3.2267 4.74334,7.20705z" data-paper-data="{&quot;origPos&quot;:null}" fill="#ffffff" stroke="none" stroke-width="0" stroke-linecap="butt"/><path d="M249.015,136.88654c0,0 3.57853,-0.56505 4.30266,-0.44353c1.29495,0.2173 3.53513,1.76375 3.53513,1.76375" data-paper-data="{&quot;origPos&quot;:null,&quot;origRot&quot;:0}" fill="none" stroke="#351c06" stroke-width="1.5" stroke-linecap="round"/><path d="M257.54498,144.49537c0,2.64158 -1.40938,4.78299 -3.14794,4.78299c-1.73856,0 -3.14794,-2.14143 -3.14794,-4.78299c0,-2.64158 1.40939,-4.78299 3.14794,-4.78299c1.73856,0 3.14794,2.14143 3.14794,4.78299z" data-paper-data="{&quot;origPos&quot;:null}" fill="#1121d4" stroke="none" stroke-width="0" stroke-linecap="butt"/><path d="M257.61349,144.35647c0,1.36597 -0.72879,2.47329 -1.62781,2.47329c-0.89902,0 -1.62781,-1.10733 -1.62781,-2.47329c0,-1.36597 0.7288,-2.47329 1.62781,-2.47329c0.89902,0 1.62781,1.10733 1.62781,2.47329z" data-paper-data="{&quot;origPos&quot;:null}" fill="#000000" stroke="none" stroke-width="0" stroke-linecap="butt"/><path d="M263.91219,136.97372c2.17221,0 3.93314,2.67553 3.93314,5.97599c0,3.30046 -1.76092,5.97599 -3.93314,5.97599c-2.17221,0 -3.93314,-2.67553 -3.93314,-5.97599c0,-3.30046 1.76092,-5.97599 3.93314,-5.97599z" data-paper-data="{&quot;origPos&quot;:null,&quot;index&quot;:null}" fill="#ffffff" stroke="none" stroke-width="0" stroke-linecap="butt"/><path d="M260.61616,136.40655c0,0 1.85754,-1.28231 2.93129,-1.46249c0.60044,-0.10077 3.56772,0.36777 3.56772,0.36777" data-paper-data="{&quot;origPos&quot;:null,&quot;origRot&quot;:0,&quot;index&quot;:null}" fill="none" stroke="#351c06" stroke-width="1.5" stroke-linecap="round"/><path d="M265.35774,138.84384c1.44159,0 2.61025,1.77565 2.61025,3.96598c0,2.19036 -1.16864,3.96598 -2.61025,3.96598c-1.44159,0 -2.61024,-1.77565 -2.61024,-3.96598c0,-2.19036 1.16864,-3.96598 2.61024,-3.96598z" data-paper-data="{&quot;origPos&quot;:null,&quot;index&quot;:null}" fill="#1121d4" stroke="none" stroke-width="0" stroke-linecap="butt"/><path d="M266.72018,140.76541c0.74546,0 1.34976,0.9182 1.34976,2.05083c0,1.13265 -0.60431,2.05083 -1.34976,2.05083c-0.74546,0 -1.34975,-0.9182 -1.34975,-2.05083c0,-1.13265 0.60431,-2.05083 1.34975,-2.05083z" data-paper-data="{&quot;origPos&quot;:null,&quot;index&quot;:null}" fill="#000000" stroke="none" stroke-width="0" stroke-linecap="butt"/><path d="M277.98864,155.44279c0,4.59164 -5.21052,8.56267 -11.95206,8.56267c-6.74152,0 -12.46119,-3.97103 -12.46119,-8.56267c0,-4.59164 5.46509,-8.31391 12.20662,-8.31391c6.74152,0 12.20662,3.72226 12.20662,8.31391z" data-paper-data="{&quot;origPos&quot;:null}" fill="url(#color-12)" stroke="#e0ce98" stroke-width="1.5" stroke-linecap="butt"/><path d="M230.48492,149.32423c-0.92107,2.80649 -4.85091,4.00393 -8.77756,2.67453c-3.92666,-1.32941 -6.36315,-4.6822 -5.44209,-7.4887c0.92107,-2.80649 4.85091,-4.00393 8.77756,-2.67453c3.92666,1.32941 6.36315,4.6822 5.44209,7.4887z" data-paper-data="{&quot;origRot&quot;:0,&quot;origPos&quot;:null}" fill="#ffefc0" stroke="#e0ce98" stroke-width="1.5" stroke-linecap="butt"/><path d="M261.75718,123.19245l-4.53402,-0.2181l0.06825,-5.58414" data-paper-data="{&quot;origPos&quot;:null}" fill="none" stroke="#158e0e" stroke-width="1" stroke-linecap="round"/><path d="" data-paper-data="{&quot;origPos&quot;:null}" fill="#c1770b" stroke="#6c4306" stroke-width="1.5" stroke-linecap="butt"/></g></g></svg>