<svg version="1.1" xmlns="http://www.w3.org/2000/svg" xmlns:xlink="http://www.w3.org/1999/xlink" width="501.05836" height="293.50004" viewBox="0,0,501.05836,293.50004"><defs><linearGradient x1="216.23621" y1="183.09374" x2="216.23621" y2="222.38516" gradientUnits="userSpaceOnUse" id="color-1"><stop offset="0" stop-color="#17ff22"/><stop offset="1" stop-color="#02d10c"/></linearGradient><linearGradient x1="429.23621" y1="82.09374" x2="429.23621" y2="121.38516" gradientUnits="userSpaceOnUse" id="color-2"><stop offset="0" stop-color="#17ff22"/><stop offset="1" stop-color="#02d10c"/></linearGradient><linearGradient x1="180.38029" y1="291.09374" x2="180.38029" y2="330.38516" gradientUnits="userSpaceOnUse" id="color-3"><stop offset="0" stop-color="#17ff22"/><stop offset="1" stop-color="#02d10c"/></linearGradient></defs><g transform="translate(13.22656,-80.59376)"><g data-paper-data="{&quot;isPaintingLayer&quot;:true}" fill-rule="nonzero" stroke-linejoin="miter" stroke-miterlimit="10" stroke-dasharray="" stroke-dashoffset="0" style="mix-blend-mode: normal"><path d="M159.47404,374.0938v-167h114.21496v167z" data-paper-data="{&quot;index&quot;:null}" fill="#98763d" stroke="none" stroke-width="0" stroke-linecap="butt"/><path d="M261.85842,218.95144l-13.26327,-10.7627l-10.07175,13.2091l-13.5726,-12.49333l-9.52865,9.40523l-10.23706,-8.22474l-9.60869,10.67969l-9.60292,-10.37815l-10.08819,11.9986l-10.37359,-10.64086l-6.37108,-1.75726v-26.89326h114.19118v26.89326z" data-paper-data="{&quot;index&quot;:null}" fill="url(#color-1)" stroke="#08a310" stroke-width="3" stroke-linecap="butt"/><path d="M246.06903,253.68777l1.16689,-7.40281l16.87004,-15.94784l6.05447,3.87501l-8.87184,13.22785z" data-paper-data="{&quot;index&quot;:null}" fill="#774b00" stroke="#703100" stroke-width="2" stroke-linecap="round"/><path d="M179.06903,337.68777l1.16689,-7.40281l16.87004,-15.94784l6.05447,3.87501l-8.87184,13.22785z" data-paper-data="{&quot;index&quot;:null}" fill="#774b00" stroke="#703100" stroke-width="2" stroke-linecap="round"/><path d="M180.06903,296.68777l1.16689,-7.40281l16.87004,-15.94784l6.05447,3.87501l-8.87184,13.22785z" data-paper-data="{&quot;index&quot;:null}" fill="#774b00" stroke="#703100" stroke-width="2" stroke-linecap="round"/><path d="M372.47404,374.0938v-269h114.21496v269z" data-paper-data="{&quot;index&quot;:null}" fill="#98763d" stroke="none" stroke-width="0" stroke-linecap="butt"/><path d="M474.85842,117.95144l-13.26327,-10.7627l-10.07175,13.2091l-13.5726,-12.49333l-9.52865,9.40523l-10.23706,-8.22474l-9.60869,10.67969l-9.60292,-10.37815l-10.08819,11.9986l-10.37359,-10.64086l-6.37108,-1.75726v-26.89326h114.19118v26.89326z" data-paper-data="{&quot;index&quot;:null}" fill="url(#color-2)" stroke="#08a310" stroke-width="3" stroke-linecap="butt"/><path d="M436.06903,159.68777l1.16689,-7.40281l16.87004,-15.94784l6.05447,3.87501l-8.87184,13.22785z" data-paper-data="{&quot;index&quot;:null}" fill="#774b00" stroke="#703100" stroke-width="2" stroke-linecap="round"/><path d="M392.06903,236.68777l1.16689,-7.40281l16.87004,-15.94784l6.05447,3.87501l-8.87184,13.22785z" data-paper-data="{&quot;index&quot;:null}" fill="#774b00" stroke="#703100" stroke-width="2" stroke-linecap="round"/><path d="M436.06903,295.68777l1.16689,-7.40281l16.87004,-15.94784l6.05447,3.87501l-8.87184,13.22785z" data-paper-data="{&quot;index&quot;:null}" fill="#774b00" stroke="#703100" stroke-width="2" stroke-linecap="round"/><path d="M-10.60472,366.0938v-52h384.29372v52z" data-paper-data="{&quot;index&quot;:null}" fill="#98763d" stroke="none" stroke-width="0" stroke-linecap="butt"/><path d="M333.8832,326.95144l-44.6263,-10.7627l-33.88795,13.2091l-45.66709,-12.49333l-32.0606,9.40523l-34.44416,-8.22474l-32.32991,10.67969l-32.31049,-10.37815l-33.94326,11.9986l-34.90353,-10.64086l-21.43647,-1.75726v-26.89326h384.21371v26.89326z" data-paper-data="{&quot;index&quot;:null}" fill="url(#color-3)" stroke="#08a310" stroke-width="3" stroke-linecap="butt"/><path d="M317.06903,349.68777l1.16689,-7.40281l16.87004,-15.94784l6.05447,3.87501l-8.87184,13.22785z" data-paper-data="{&quot;index&quot;:null}" fill="#774b00" stroke="#703100" stroke-width="2" stroke-linecap="round"/><path d="M224.06903,349.68777l1.16689,-7.40281l16.87004,-15.94784l6.05447,3.87501l-8.87184,13.22785z" data-paper-data="{&quot;index&quot;:null}" fill="#774b00" stroke="#703100" stroke-width="2" stroke-linecap="round"/><path d="M139.06903,361.68777l1.16689,-7.40281l16.87004,-15.94784l6.05447,3.87501l-8.87184,13.22785z" data-paper-data="{&quot;index&quot;:null}" fill="#774b00" stroke="#703100" stroke-width="2" stroke-linecap="round"/><path d="M31.06903,354.68777l1.16689,-7.40281l16.87004,-15.94784l6.05447,3.87501l-8.87184,13.22785z" data-paper-data="{&quot;index&quot;:null}" fill="#774b00" stroke="#703100" stroke-width="2" stroke-linecap="round"/></g></g></svg>