<svg version="1.1" xmlns="http://www.w3.org/2000/svg" xmlns:xlink="http://www.w3.org/1999/xlink" width="50.97708" height="51.54171" viewBox="0,0,50.97708,51.54171"><defs><linearGradient x1="227.45814" y1="164.39082" x2="227.91853" y2="167.52703" gradientUnits="userSpaceOnUse" id="color-1"><stop offset="0" stop-color="#f50000"/><stop offset="1" stop-color="#be0000"/></linearGradient><linearGradient x1="227.6795" y1="166.90355" x2="229.14604" y2="173.03315" gradientUnits="userSpaceOnUse" id="color-2"><stop offset="0" stop-color="#f50000"/><stop offset="1" stop-color="#be0000"/></linearGradient><linearGradient x1="245.05467" y1="169.92047" x2="246.38" y2="175.45982" gradientUnits="userSpaceOnUse" id="color-3"><stop offset="0" stop-color="#f50000"/><stop offset="1" stop-color="#be0000"/></linearGradient><linearGradient x1="228.33616" y1="171.78268" x2="233.7187" y2="194.27945" gradientUnits="userSpaceOnUse" id="color-4"><stop offset="0" stop-color="#f50000"/><stop offset="1" stop-color="#be0000"/></linearGradient><linearGradient x1="251.59597" y1="152.23974" x2="256.13851" y2="171.22571" gradientUnits="userSpaceOnUse" id="color-5"><stop offset="0" stop-color="#f50000"/><stop offset="1" stop-color="#be0000"/></linearGradient><linearGradient x1="234.82064" y1="179.81809" x2="236.52583" y2="186.94505" gradientUnits="userSpaceOnUse" id="color-6"><stop offset="0" stop-color="#ffffff"/><stop offset="1" stop-color="#cecece"/></linearGradient><linearGradient x1="229.69548" y1="181.04433" x2="231.46911" y2="188.45732" gradientUnits="userSpaceOnUse" id="color-7"><stop offset="0" stop-color="#ffffff"/><stop offset="1" stop-color="#cecece"/></linearGradient></defs><g transform="translate(-214.24073,-150.67181)"><g data-paper-data="{&quot;isPaintingLayer&quot;:true}" fill-rule="nonzero" stroke-linecap="butt" stroke-linejoin="miter" stroke-miterlimit="10" stroke-dasharray="" stroke-dashoffset="0" style="mix-blend-mode: normal"><path d="M246.56212,187.44553c2.85773,-0.68373 5.5133,0.17847 5.93135,1.92577c0.25941,1.08428 0.43527,2.15421 -0.4964,3.03268c-1.03491,0.9758 -6.55706,2.09838 -7.7993,1.83821c-1.44084,-0.30177 -1.75902,-1.1658 -2.05308,-2.39486c-0.41806,-1.74732 1.55969,-3.71807 4.41743,-4.4018z" data-paper-data="{&quot;origPos&quot;:null,&quot;index&quot;:null,&quot;origRot&quot;:0}" fill="#d9d900" stroke="#c1c100" stroke-width="1"/><path d="M252.21911,192.34216c0.06329,0.26452 -1.77054,0.92997 -4.09595,1.48634c-2.32543,0.55638 -4.26186,0.79299 -4.32514,0.52847c-0.06329,-0.26452 1.77054,-0.92998 4.09596,-1.48635c2.32543,-0.55638 4.26185,-0.79298 4.32514,-0.52846z" data-paper-data="{&quot;origPos&quot;:null,&quot;origRot&quot;:0}" fill="#c1c100" stroke="none" stroke-width="0"/><path d="M227.63209,165.57587c2.00558,-0.29442 4.7335,0.56036 4.86063,1.4264c0.12713,0.86604 -2.56864,0.23033 -4.57421,0.52476c-2.00558,0.29442 -4.32758,2.20475 -4.4547,1.33871c-0.12713,-0.86604 2.16272,-2.99546 4.16829,-3.28988z" data-paper-data="{&quot;origPos&quot;:null,&quot;index&quot;:null,&quot;origRot&quot;:0}" fill="url(#color-1)" stroke="#b30000" stroke-width="1"/><path d="M227.86529,167.68014c4.03246,-0.9648 9.00579,0.80122 9.41078,2.49386c0.40498,1.69264 -4.09756,1.89434 -8.13002,2.85914c-4.03246,0.9648 -8.26814,2.85381 -8.67312,1.16117c-0.40498,-1.69264 3.35993,-5.54935 7.39237,-6.51416z" data-paper-data="{&quot;origPos&quot;:null,&quot;index&quot;:null,&quot;origRot&quot;:0}" fill="url(#color-2)" stroke="#b30000" stroke-width="1"/><path d="M245.05467,169.92047c1.63162,-0.39038 3.251,0.53318 3.61699,2.06282c0.36598,1.52965 -0.66003,3.08613 -2.29165,3.47651c-1.63162,0.39038 -3.251,-0.53317 -3.61699,-2.06281c-0.36598,-1.52965 0.66003,-3.08613 2.29165,-3.47651z" data-paper-data="{&quot;origPos&quot;:null,&quot;index&quot;:null,&quot;origRot&quot;:0}" fill="url(#color-3)" stroke="#b30000" stroke-width="1"/><path d="M228.33616,171.78268c8.86981,-2.12217 17.26514,1.19355 18.75148,7.40584c0.60564,2.53132 1.11031,5.54567 -0.14027,7.88905c-2.79623,5.23966 -7.29372,5.7819 -13.22867,7.20188c-6.02778,1.44221 -9.95321,2.63481 -14.81846,-0.92124c-2.06748,-1.51114 -3.34856,-4.04183 -3.93302,-6.48463c-1.48634,-6.21231 4.49913,-12.96875 13.36894,-15.09092z" data-paper-data="{&quot;origPos&quot;:null,&quot;index&quot;:null,&quot;origRot&quot;:0}" fill="url(#color-4)" stroke="#b30000" stroke-width="1"/><path d="M246.84287,170.81798c-4.23128,-4.13936 -3.73595,-9.07528 -1.63808,-13.1005c2.16217,-4.14858 5.85343,-5.82313 10.85473,-6.54568c5.00133,-0.72256 7.18011,3.94011 7.18011,3.94011c0,0 -4.24599,1.71567 -6.22533,3.14901c-1.95412,1.41509 -3.85371,4.14973 -3.85371,4.14973c0,0 3.79661,1.38828 6.31829,1.74307c1.75448,0.24684 4.63885,-0.2015 4.63885,-0.2015c0,0 -3.10133,4.32903 -6.24165,6.11416c-3.53952,2.01205 -8.12284,3.59874 -11.03322,0.75159z" data-paper-data="{&quot;origPos&quot;:null,&quot;origRot&quot;:0,&quot;index&quot;:null}" fill="url(#color-5)" stroke="#b30000" stroke-width="1"/><path d="M232.45634,180.32504c5.28173,-1.2637 10.20282,0.38434 10.99157,3.68098c0.78875,3.29664 -2.85353,6.99354 -8.13525,8.25724c-5.28173,1.2637 -10.20282,-0.38434 -10.99158,-3.68099c-0.78875,-3.29664 2.85353,-6.99353 8.13525,-8.25723z" data-paper-data="{&quot;origPos&quot;:null,&quot;index&quot;:null,&quot;origRot&quot;:0}" fill="#000000" stroke="#b30000" stroke-width="0.5"/><path d="M238.66231,181.61156c0.47819,1.99867 -0.2554,4.88342 -1.98502,5.29724c-1.72962,0.41382 -3.5194,-0.87095 -3.99759,-2.86962c-0.47819,-1.99867 -1.76522,-3.28652 -0.03563,-3.70035c1.72962,-0.41382 5.54003,-0.72595 6.01823,1.27272z" data-paper-data="{&quot;origPos&quot;:null,&quot;index&quot;:null,&quot;origRot&quot;:0}" fill="url(#color-6)" stroke="#cecece" stroke-width="0.5"/><path d="M227.19334,184.74512c-0.49355,-2.06283 2.23256,-3.6363 4.0177,-4.06341c1.78515,-0.42712 2.07407,1.21127 2.56762,3.27411c0.49355,2.06283 -0.5535,4.08134 -2.33865,4.50846c-1.78516,0.42712 -3.75314,-1.65631 -4.2467,-3.71916z" data-paper-data="{&quot;origPos&quot;:null,&quot;index&quot;:null,&quot;origRot&quot;:0}" fill="url(#color-7)" stroke="#cecece" stroke-width="0.5"/><path d="M235.73493,180.4614c0.8057,-0.19277 1.65186,0.45779 1.88999,1.45305c0.23812,0.99526 -0.22197,1.95835 -1.02766,2.1511c-0.8057,0.19277 -1.65187,-0.45779 -1.89,-1.45305c-0.23812,-0.99526 0.22198,-1.95835 1.02767,-2.1511z" data-paper-data="{&quot;origPos&quot;:null,&quot;index&quot;:null,&quot;origRot&quot;:0}" fill="#0062ca" stroke="none" stroke-width="0"/><path d="M231.09742,181.5551c0.8057,-0.19277 1.65186,0.45779 1.88999,1.45305c0.23812,0.99526 -0.22197,1.95835 -1.02766,2.1511c-0.8057,0.19277 -1.65186,-0.45778 -1.88999,-1.45304c-0.23812,-0.99526 0.22197,-1.95835 1.02766,-2.15111z" data-paper-data="{&quot;origPos&quot;:null,&quot;index&quot;:null,&quot;origRot&quot;:0}" fill="#0062ca" stroke="none" stroke-width="0"/><path d="M220.25021,193.40303c3.47479,-0.83137 6.7037,0.21699 7.21202,2.34158c0.31543,1.31838 0.52926,2.61933 -0.60358,3.68748c-1.25837,1.18651 -7.97284,2.55146 -9.4833,2.23511c-1.75195,-0.36692 -2.13883,-1.41752 -2.49639,-2.91195c-0.50832,-2.12458 1.89647,-4.52086 5.37124,-5.35223z" data-paper-data="{&quot;origPos&quot;:null,&quot;index&quot;:null,&quot;origRot&quot;:0}" fill="#d9d900" stroke="#c1c100" stroke-width="1"/><path d="M227.59832,199.04351c0.07022,0.29347 -2.37082,1.12902 -5.4522,1.86626c-3.08138,0.73725 -5.63626,1.09701 -5.70646,0.80353c-0.07022,-0.29347 2.37083,-1.12903 5.45221,-1.86627c3.08138,-0.73725 5.63625,-1.097 5.70646,-0.80352z" data-paper-data="{&quot;origPos&quot;:null,&quot;origRot&quot;:0}" fill="#c1c100" stroke="none" stroke-width="0"/></g></g></svg>