<svg version="1.1" xmlns="http://www.w3.org/2000/svg" xmlns:xlink="http://www.w3.org/1999/xlink" width="137.08631" height="104.99998" viewBox="0,0,137.08631,104.99998"><g transform="translate(-96.95313,-209.31252)"><g data-paper-data="{&quot;isPaintingLayer&quot;:true}" fill-rule="nonzero" stroke-linejoin="miter" stroke-miterlimit="10" stroke-dasharray="" stroke-dashoffset="0" style="mix-blend-mode: normal"><path d="" data-paper-data="{&quot;origPos&quot;:null}" fill="none" stroke="#5c4a25" stroke-width="7.5" stroke-linecap="round"/><path d="M169.46621,307.81251v-47.54774h5.1093v47.54774z" fill="#90ff96" stroke="none" stroke-width="0" stroke-linecap="butt"/><path d="M177.23443,273.40297c0,11.40232 -10.42714,11.40232 -10.42714,0c0,-11.40232 5.21357,-20.64573 5.21357,-20.64573c0,0 5.21357,9.24341 5.21357,20.64573z" fill="#ff8cf5" stroke="none" stroke-width="0" stroke-linecap="butt"/><path d="M172.02086,254.00999c0,0 -5.21357,-9.24341 -5.21357,-20.64573c0,-11.40232 10.42714,-11.40232 10.42714,0c0,11.40232 -5.21357,20.64573 -5.21357,20.64573z" data-paper-data="{&quot;index&quot;:null}" fill="#ff8cf5" stroke="none" stroke-width="0" stroke-linecap="butt"/><path d="M172.87059,253.44796c0,0 8.98667,-5.64462 20.37625,-6.18353c11.38958,-0.53891 11.8824,9.87657 0.49282,10.41548c-11.38958,0.53891 -20.86907,-4.23196 -20.86907,-4.23196z" data-paper-data="{&quot;index&quot;:null}" fill="#ff8cf5" stroke="none" stroke-width="0" stroke-linecap="butt"/><path d="M150.72314,258.09701c-11.38958,-0.53891 -10.89676,-10.95439 0.49282,-10.41548c11.38958,0.53891 20.37625,6.18353 20.37625,6.18353c0,0 -9.47949,4.77087 -20.86907,4.23196z" data-paper-data="{&quot;index&quot;:null}" fill="#ff8cf5" stroke="none" stroke-width="0" stroke-linecap="butt"/><path d="M172.47533,253.99661c0,0 3.15285,-10.13318 11.45216,-17.95203c8.29931,-7.81885 15.44945,-0.22934 7.15014,7.58951c-8.29931,7.81885 -18.6023,10.36253 -18.6023,10.36253z" data-paper-data="{&quot;index&quot;:null}" fill="#ff8cf5" stroke="none" stroke-width="0" stroke-linecap="butt"/><path d="M153.22654,243.6341c-8.29931,-7.81885 -1.14917,-15.40836 7.15014,-7.58951c8.29931,7.81885 11.45216,17.95204 11.45216,17.95204c0,0 -10.30299,-2.54367 -18.6023,-10.36252z" data-paper-data="{&quot;index&quot;:null}" fill="#ff8cf5" stroke="none" stroke-width="0" stroke-linecap="butt"/><path d="M191.49469,264.39167c8.29931,7.81885 1.14917,15.40836 -7.15014,7.58951c-8.29931,-7.81885 -11.45215,-17.95204 -11.45215,-17.95204c0,0 10.30299,2.54367 18.6023,10.36252z" data-paper-data="{&quot;index&quot;:null}" fill="#ff8cf5" stroke="none" stroke-width="0" stroke-linecap="butt"/><path d="M171.82884,254.02915c0,0 -3.15285,10.13318 -11.45215,17.95203c-8.29931,7.81885 -15.44945,0.22934 -7.15014,-7.58951c8.29931,-7.81885 18.6023,-10.36252 18.6023,-10.36252z" data-paper-data="{&quot;index&quot;:null}" fill="#ff8cf5" stroke="none" stroke-width="0" stroke-linecap="butt"/><path d="M167.64147,254.0085c0,-2.53385 2.05409,-4.58794 4.58794,-4.58794c2.53385,0 4.58794,2.05409 4.58794,4.58794c0,2.53385 -2.05409,4.58794 -4.58794,4.58794c-2.53385,0 -4.58794,-2.05409 -4.58794,-4.58794z" fill="#fffa5b" stroke="none" stroke-width="0" stroke-linecap="butt"/><path d="M172.85783,289.54796c0,0 3.92257,-5.84413 10.67826,-9.24282c6.75569,-3.39868 9.8637,2.77923 3.10801,6.17791c-6.75569,3.39868 -13.78627,3.0649 -13.78627,3.0649z" data-paper-data="{&quot;index&quot;:null}" fill="#90ff96" stroke="none" stroke-width="0" stroke-linecap="butt"/><path d="M170.81317,289.13088c0,0 -7.03058,0.33378 -13.78627,-3.0649c-6.75569,-3.39868 -3.64768,-9.57659 3.10801,-6.17791c6.75569,3.39869 10.67826,9.24282 10.67826,9.24282z" data-paper-data="{&quot;index&quot;:null}" fill="#90ff96" stroke="none" stroke-width="0" stroke-linecap="butt"/><path d="M201.46622,308.31253v-63.54774h5.1093v63.54774z" fill="#90ff96" stroke="none" stroke-width="0" stroke-linecap="butt"/><path d="M209.23444,257.90298c0,11.40232 -10.42714,11.40232 -10.42714,0c0,-11.40232 5.21357,-20.64573 5.21357,-20.64573c0,0 5.21357,9.24341 5.21357,20.64573z" fill="#bb8cff" stroke="none" stroke-width="0" stroke-linecap="butt"/><path d="M204.02087,238.51c0,0 -5.21357,-9.24341 -5.21357,-20.64573c0,-11.40232 10.42714,-11.40232 10.42714,0c0,11.40232 -5.21357,20.64573 -5.21357,20.64573z" data-paper-data="{&quot;index&quot;:null}" fill="#bb8cff" stroke="none" stroke-width="0" stroke-linecap="butt"/><path d="M204.8706,237.94797c0,0 8.98667,-5.64462 20.37625,-6.18353c11.38958,-0.53891 11.8824,9.87657 0.49282,10.41548c-11.38958,0.53891 -20.86907,-4.23196 -20.86907,-4.23196z" data-paper-data="{&quot;index&quot;:null}" fill="#bb8cff" stroke="none" stroke-width="0" stroke-linecap="butt"/><path d="M182.72315,242.59702c-11.38958,-0.53891 -10.89676,-10.95439 0.49282,-10.41548c11.38958,0.53891 20.37625,6.18353 20.37625,6.18353c0,0 -9.47949,4.77087 -20.86907,4.23196z" data-paper-data="{&quot;index&quot;:null}" fill="#bb8cff" stroke="none" stroke-width="0" stroke-linecap="butt"/><path d="M204.47534,238.49663c0,0 3.15285,-10.13318 11.45216,-17.95203c8.29931,-7.81885 15.44945,-0.22934 7.15014,7.58951c-8.29931,7.81885 -18.6023,10.36253 -18.6023,10.36253z" data-paper-data="{&quot;index&quot;:null}" fill="#bb8cff" stroke="none" stroke-width="0" stroke-linecap="butt"/><path d="M185.22655,228.1341c-8.29931,-7.81885 -1.14917,-15.40836 7.15014,-7.58951c8.29931,7.81885 11.45216,17.95204 11.45216,17.95204c0,0 -10.30299,-2.54367 -18.6023,-10.36252z" data-paper-data="{&quot;index&quot;:null}" fill="#bb8cff" stroke="none" stroke-width="0" stroke-linecap="butt"/><path d="M223.49472,248.89166c8.29931,7.81885 1.14917,15.40836 -7.15014,7.58951c-8.29931,-7.81885 -11.45215,-17.95204 -11.45215,-17.95204c0,0 10.30299,2.54367 18.6023,10.36252z" data-paper-data="{&quot;index&quot;:null}" fill="#bb8cff" stroke="none" stroke-width="0" stroke-linecap="butt"/><path d="M203.82885,238.52916c0,0 -3.15285,10.13318 -11.45215,17.95203c-8.29931,7.81885 -15.44945,0.22934 -7.15014,-7.58951c8.29931,-7.81885 18.6023,-10.36252 18.6023,-10.36252z" data-paper-data="{&quot;index&quot;:null}" fill="#bb8cff" stroke="none" stroke-width="0" stroke-linecap="butt"/><path d="M199.64148,238.50851c0,-2.53385 2.05409,-4.58794 4.58794,-4.58794c2.53385,0 4.58794,2.05409 4.58794,4.58794c0,2.53385 -2.05409,4.58794 -4.58794,4.58794c-2.53385,0 -4.58794,-2.05409 -4.58794,-4.58794z" fill="#fffa5b" stroke="none" stroke-width="0" stroke-linecap="butt"/><path d="M204.85784,274.04798c0,0 3.92257,-5.84413 10.67826,-9.24282c6.75569,-3.39868 9.8637,2.77923 3.10801,6.17791c-6.75569,3.39868 -13.78627,3.0649 -13.78627,3.0649z" data-paper-data="{&quot;index&quot;:null}" fill="#90ff96" stroke="none" stroke-width="0" stroke-linecap="butt"/><path d="M202.81318,273.6309c0,0 -7.03058,0.33378 -13.78627,-3.0649c-6.75569,-3.39868 -3.64768,-9.57659 3.10801,-6.17791c6.75569,3.39869 10.67826,9.24282 10.67826,9.24282z" data-paper-data="{&quot;index&quot;:null}" fill="#90ff96" stroke="none" stroke-width="0" stroke-linecap="butt"/><path d="M96.95313,254.31251c0,0 6.25258,10.48725 8.59828,16.06382c2.02304,4.80951 4.65172,15.43618 4.65172,15.43618c0,0 2.62918,-10.60502 4.92992,-15.87582c2.28244,-5.22886 8.82008,-15.62418 8.82008,-15.62418c0,0 -1.78825,20.71235 -4.01722,30.43876c-2.34815,10.24648 -9.73278,29.56124 -9.73278,29.56124c0,0 -6.29268,-19.17442 -8.35896,-28.53115c-2.32076,-10.50912 -4.89104,-31.46885 -4.89104,-31.46885z" fill="#90ff96" stroke="none" stroke-width="0" stroke-linecap="butt"/><path d="M110.95313,235.42362c0,0 8.22098,13.78879 11.30514,21.12095c2.65993,6.32361 6.11615,20.29572 6.11615,20.29572c0,0 3.45689,-13.94364 6.48194,-20.87377c3.00099,-6.87499 11.59677,-20.5429 11.59677,-20.5429c0,0 -2.35121,27.2329 -5.2819,40.02134c-3.08738,13.47223 -12.79681,38.86755 -12.79681,38.86755c0,0 -8.27371,-25.2108 -10.99048,-37.51317c-3.05138,-13.81754 -6.43081,-41.37572 -6.43081,-41.37572z" fill="#80ff87" stroke="none" stroke-width="0" stroke-linecap="butt"/></g></g></svg>