<svg version="1.1" xmlns="http://www.w3.org/2000/svg" xmlns:xlink="http://www.w3.org/1999/xlink" width="559.02114" height="386" viewBox="0,0,559.02114,386"><defs><linearGradient x1="240.96369" y1="310.12501" x2="240.96369" y2="386.12501" gradientUnits="userSpaceOnUse" id="color-1"><stop offset="0" stop-color="#ffaf26"/><stop offset="1" stop-color="#ffe1a0"/></linearGradient><linearGradient x1="494.46369" y1="4.12501" x2="494.46369" y2="386.12501" gradientUnits="userSpaceOnUse" id="color-2"><stop offset="0" stop-color="#ffaf26"/><stop offset="1" stop-color="#ffe1a0"/></linearGradient><linearGradient x1="304.90625" y1="271.42121" x2="304.90625" y2="310.42121" gradientUnits="userSpaceOnUse" id="color-3"><stop offset="0" stop-color="#c6964f"/><stop offset="1" stop-color="#a98044"/></linearGradient></defs><g transform="translate(3.54688,-2.12501)"><g data-paper-data="{&quot;isPaintingLayer&quot;:true}" fill-rule="nonzero" stroke-linejoin="miter" stroke-miterlimit="10" stroke-dasharray="" stroke-dashoffset="0" style="mix-blend-mode: normal"><path d="M-1.54688,386.12501v-76h485.02113v76z" fill="url(#color-1)" stroke="#c38600" stroke-width="4" stroke-linecap="butt"/><path d="M435.45313,386.12501v-382h118.02113v382z" fill="url(#color-2)" stroke="#c38600" stroke-width="4" stroke-linecap="butt"/><path d="M263.90625,310.42121v-39h82v39z" fill="url(#color-3)" stroke="#826334" stroke-width="2.5" stroke-linecap="butt"/><path d="M107.85937,333.43751h-76" fill="none" stroke="#c38600" stroke-width="4" stroke-linecap="round"/><path d="M215.85937,340.43751h-86" fill="none" stroke="#c38600" stroke-width="4" stroke-linecap="round"/><path d="M316.85937,330.43751h-81" fill="none" stroke="#c38600" stroke-width="4" stroke-linecap="round"/><path d="M290.85938,356.43751l103,-7" fill="none" stroke="#c38600" stroke-width="4" stroke-linecap="round"/><path d="M455.92739,124.43751h56" fill="none" stroke="#c38600" stroke-width="4" stroke-linecap="round"/><path d="M468.92739,142.43751l61,1" fill="none" stroke="#c38600" stroke-width="4" stroke-linecap="round"/><path d="M537.92739,198.43751h-79" fill="none" stroke="#c38600" stroke-width="4" stroke-linecap="round"/><path d="M448.92739,157.43751h51" fill="none" stroke="#c38600" stroke-width="4" stroke-linecap="round"/><path d="M523.92739,275.43751h-64" fill="none" stroke="#c38600" stroke-width="4" stroke-linecap="round"/><path d="M510.92739,243.43751h-45" fill="none" stroke="#c38600" stroke-width="4" stroke-linecap="round"/><path d="M477.92739,315.43751h-27" fill="none" stroke="#c38600" stroke-width="4" stroke-linecap="round"/><path d="M463.92739,337.43751l60,1" fill="none" stroke="#c38600" stroke-width="4" stroke-linecap="round"/><path d="M447.42739,94.8125h66" fill="none" stroke="#c38600" stroke-width="4" stroke-linecap="round"/><path d="M475.42739,74.8125h68" fill="none" stroke="#c38600" stroke-width="4" stroke-linecap="round"/><path d="M455.42739,40.8125h54" fill="none" stroke="#c38600" stroke-width="4" stroke-linecap="round"/><path d="M492.42739,25.8125h29" fill="none" stroke="#c38600" stroke-width="4" stroke-linecap="round"/></g></g></svg>