<svg version="1.1" xmlns="http://www.w3.org/2000/svg" xmlns:xlink="http://www.w3.org/1999/xlink" width="37.7854" height="83.36207" viewBox="0,0,37.7854,83.36207"><defs><linearGradient x1="240.89085" y1="194.90155" x2="240.89085" y2="220.59769" gradientUnits="userSpaceOnUse" id="color-1"><stop offset="0" stop-color="#ffffff"/><stop offset="1" stop-color="#f1f1f1"/></linearGradient><linearGradient x1="236.15125" y1="172.5457" x2="236.15125" y2="198.24184" gradientUnits="userSpaceOnUse" id="color-2"><stop offset="0" stop-color="#ffffff"/><stop offset="1" stop-color="#f1f1f1"/></linearGradient><linearGradient x1="242.05982" y1="149.77663" x2="242.05982" y2="175.47277" gradientUnits="userSpaceOnUse" id="color-3"><stop offset="0" stop-color="#ffffff"/><stop offset="1" stop-color="#f1f1f1"/></linearGradient><linearGradient x1="238.47733" y1="163.04809" x2="238.47733" y2="166.76382" gradientUnits="userSpaceOnUse" id="color-4"><stop offset="0" stop-color="#ffa100"/><stop offset="1" stop-color="#c67d00"/></linearGradient><linearGradient x1="254.91986" y1="147.83254" x2="254.91986" y2="160.76314" gradientUnits="userSpaceOnUse" id="color-5"><stop offset="0" stop-color="#e3e100"/><stop offset="1" stop-color="#d4d100"/></linearGradient><linearGradient x1="249.95066" y1="138.57367" x2="249.95066" y2="154.79714" gradientUnits="userSpaceOnUse" id="color-6"><stop offset="0" stop-color="#e30000"/><stop offset="1" stop-color="#a20000"/></linearGradient><linearGradient x1="247.04541" y1="148.50464" x2="247.04541" y2="155.56244" gradientUnits="userSpaceOnUse" id="color-7"><stop offset="0" stop-color="#e30000"/><stop offset="1" stop-color="#cf0000"/></linearGradient></defs><g transform="translate(-221.12777,-138.23563)"><g data-paper-data="{&quot;isPaintingLayer&quot;:true}" fill-rule="nonzero" stroke-linejoin="miter" stroke-miterlimit="10" stroke-dasharray="" stroke-dashoffset="0" style="mix-blend-mode: normal"><path d="M253.73892,207.74962c0,7.09579 -5.75228,12.84807 -12.84807,12.84807c-7.09579,0 -12.84807,-5.75227 -12.84807,-12.84807c0,-7.09579 5.75228,-12.84807 12.84807,-12.84807c7.09579,0 12.84807,5.75227 12.84807,12.84807z" data-paper-data="{&quot;origPos&quot;:null}" fill="url(#color-1)" stroke="#e4e4e4" stroke-width="2" stroke-linecap="butt"/><path d="M252.10941,200.32281l4.13645,-0.87743l-2.38159,4.01111z" data-paper-data="{&quot;origPos&quot;:null,&quot;index&quot;:null}" fill="#e4e4e4" stroke="none" stroke-width="0" stroke-linecap="round"/><path d="M254.11496,210.85196l2.63229,3.88576l-4.13645,-0.87743z" data-paper-data="{&quot;origPos&quot;:null,&quot;index&quot;:null}" fill="#e4e4e4" stroke="none" stroke-width="0" stroke-linecap="round"/><path d="M231.33849,216.39788l-4.13645,0.87743l2.38159,-4.01111z" data-paper-data="{&quot;origPos&quot;:null,&quot;index&quot;:null}" fill="#e4e4e4" stroke="none" stroke-width="0" stroke-linecap="round"/><path d="M228.04279,204.5846l-2.38159,-4.01111l4.13645,0.87743z" data-paper-data="{&quot;origPos&quot;:null}" fill="#e4e4e4" stroke="none" stroke-width="0" stroke-linecap="round"/><path d="M235.31292,204.08322c0,-0.86534 0.7015,-1.56684 1.56684,-1.56684c0.86534,0 1.56684,0.7015 1.56684,1.56684c0,0.86534 -0.7015,1.56684 -1.56684,1.56684c-0.86534,0 -1.56684,-0.7015 -1.56684,-1.56684z" data-paper-data="{&quot;origPos&quot;:null}" fill="#e4e4e4" stroke="none" stroke-width="0.5" stroke-linecap="butt"/><path d="M245.38627,200.64081c0,-0.86534 0.7015,-1.56684 1.56684,-1.56684c0.86534,0 1.56684,0.7015 1.56684,1.56684c0,0.86534 -0.7015,1.56684 -1.56684,1.56684c-0.86534,0 -1.56684,-0.7015 -1.56684,-1.56684z" data-paper-data="{&quot;origPos&quot;:null}" fill="#e4e4e4" stroke="none" stroke-width="0.5" stroke-linecap="butt"/><path d="M242.47814,216.50338c0,-0.86534 0.7015,-1.56684 1.56684,-1.56684c0.86534,0 1.56684,0.7015 1.56684,1.56684c0,0.86534 -0.7015,1.56684 -1.56684,1.56684c-0.86534,0 -1.56684,-0.7015 -1.56684,-1.56684z" data-paper-data="{&quot;origPos&quot;:null}" fill="#e4e4e4" stroke="none" stroke-width="0.5" stroke-linecap="butt"/><path d="M247.89785,209.36523c0,-0.86534 0.7015,-1.56684 1.56684,-1.56684c0.86534,0 1.56684,0.7015 1.56684,1.56684c0,0.86534 -0.7015,1.56684 -1.56684,1.56684c-0.86534,0 -1.56684,-0.7015 -1.56684,-1.56684z" data-paper-data="{&quot;origPos&quot;:null}" fill="#e4e4e4" stroke="none" stroke-width="0.5" stroke-linecap="butt"/><path d="M231.63871,213.46306c0,-0.86534 0.7015,-1.56684 1.56684,-1.56684c0.86534,0 1.56684,0.7015 1.56684,1.56684c0,0.86534 -0.7015,1.56684 -1.56684,1.56684c-0.86534,0 -1.56684,-0.7015 -1.56684,-1.56684z" data-paper-data="{&quot;origPos&quot;:null}" fill="#e4e4e4" stroke="none" stroke-width="0.5" stroke-linecap="butt"/><path d="M239.70219,209.10085c0,-0.86534 0.7015,-1.56684 1.56684,-1.56684c0.86534,0 1.56684,0.7015 1.56684,1.56684c0,0.86534 -0.7015,1.56684 -1.56684,1.56684c-0.86534,0 -1.56684,-0.7015 -1.56684,-1.56684z" data-paper-data="{&quot;origPos&quot;:null}" fill="#e4e4e4" stroke="none" stroke-width="0.5" stroke-linecap="butt"/><path d="M231.7709,201.03737c0,-0.86534 0.7015,-1.56684 1.56684,-1.56684c0.86534,0 1.56684,0.7015 1.56684,1.56684c0,0.86534 -0.7015,1.56684 -1.56684,1.56684c-0.86534,0 -1.56684,-0.7015 -1.56684,-1.56684z" data-paper-data="{&quot;origPos&quot;:null}" fill="#e4e4e4" stroke="none" stroke-width="0.5" stroke-linecap="butt"/><path d="M248.99932,185.39377c0,7.09579 -5.75228,12.84807 -12.84807,12.84807c-7.09579,0 -12.84807,-5.75227 -12.84807,-12.84807c0,-7.09579 5.75228,-12.84807 12.84807,-12.84807c7.09579,0 12.84807,5.75228 12.84807,12.84807z" data-paper-data="{&quot;origPos&quot;:null}" fill="url(#color-2)" stroke="#e4e4e4" stroke-width="2" stroke-linecap="butt"/><path d="M247.11911,178.4904l4.13645,-0.87743l-2.38159,4.01111z" data-paper-data="{&quot;origPos&quot;:null,&quot;index&quot;:null}" fill="#e4e4e4" stroke="none" stroke-width="0" stroke-linecap="round"/><path d="M249.12466,189.24818l2.63229,3.88576l-4.13645,-0.87743z" data-paper-data="{&quot;origPos&quot;:null,&quot;index&quot;:null}" fill="#e4e4e4" stroke="none" stroke-width="0" stroke-linecap="round"/><path d="M223.50936,181.65036l-2.38159,-4.01111l4.13645,0.87743z" data-paper-data="{&quot;origPos&quot;:null}" fill="#e4e4e4" stroke="none" stroke-width="0" stroke-linecap="round"/><path d="M225.56618,193.28665l-4.13645,0.87743l2.38159,-4.01111z" data-paper-data="{&quot;origPos&quot;:null,&quot;index&quot;:null}" fill="#e4e4e4" stroke="none" stroke-width="0" stroke-linecap="round"/><path d="M240.65977,191.21622c0,-0.86534 0.7015,-1.56684 1.56684,-1.56684c0.86534,0 1.56684,0.7015 1.56684,1.56684c0,0.86534 -0.7015,1.56684 -1.56684,1.56684c-0.86534,0 -1.56684,-0.7015 -1.56684,-1.56684z" data-paper-data="{&quot;origPos&quot;:null}" fill="#e4e4e4" stroke="none" stroke-width="0.5" stroke-linecap="butt"/><path d="M227.0655,181.23383c0,-0.86534 0.7015,-1.56684 1.56684,-1.56684c0.86534,0 1.56684,0.7015 1.56684,1.56684c0,0.86534 -0.7015,1.56684 -1.56684,1.56684c-0.86534,0 -1.56684,-0.7015 -1.56684,-1.56684z" data-paper-data="{&quot;origPos&quot;:null}" fill="#e4e4e4" stroke="none" stroke-width="0.5" stroke-linecap="butt"/><path d="M228.91614,191.01574c0,-0.86534 0.7015,-1.56684 1.56684,-1.56684c0.86534,0 1.56684,0.7015 1.56684,1.56684c0,0.86534 -0.7015,1.56684 -1.56684,1.56684c-0.86534,0 -1.56684,-0.7015 -1.56684,-1.56684z" data-paper-data="{&quot;origPos&quot;:null}" fill="#e4e4e4" stroke="none" stroke-width="0.5" stroke-linecap="butt"/><path d="M242.26713,184.80291c0,-0.86534 0.7015,-1.56684 1.56684,-1.56684c0.86534,0 1.56684,0.7015 1.56684,1.56684c0,0.86534 -0.7015,1.56684 -1.56684,1.56684c-0.86534,0 -1.56684,-0.7015 -1.56684,-1.56684z" data-paper-data="{&quot;origPos&quot;:null}" fill="#e4e4e4" stroke="none" stroke-width="0.5" stroke-linecap="butt"/><path d="M239.35899,179.3832c0,-0.86534 0.7015,-1.56684 1.56684,-1.56684c0.86534,0 1.56684,0.7015 1.56684,1.56684c0,0.86534 -0.7015,1.56684 -1.56684,1.56684c-0.86534,0 -1.56684,-0.7015 -1.56684,-1.56684z" data-paper-data="{&quot;origPos&quot;:null}" fill="#e4e4e4" stroke="none" stroke-width="0.5" stroke-linecap="butt"/><path d="M234.20365,185.8604c0,-0.86534 0.7015,-1.56684 1.56684,-1.56684c0.86534,0 1.56684,0.7015 1.56684,1.56684c0,0.86534 -0.7015,1.56684 -1.56684,1.56684c-0.86534,0 -1.56684,-0.7015 -1.56684,-1.56684z" data-paper-data="{&quot;origPos&quot;:null}" fill="#e4e4e4" stroke="none" stroke-width="0.5" stroke-linecap="butt"/><path d="M252.73568,155.48991l4.13645,-0.87743l-2.38159,4.01111z" data-paper-data="{&quot;origPos&quot;:null,&quot;index&quot;:null}" fill="#e4e4e4" stroke="none" stroke-width="0" stroke-linecap="round"/><path d="M254.90789,162.6247c0,7.09579 -5.75228,12.84807 -12.84807,12.84807c-7.09579,0 -12.84807,-5.75228 -12.84807,-12.84807c0,-7.09579 5.75228,-12.84807 12.84807,-12.84807c7.09579,0 12.84807,5.75228 12.84807,12.84807z" data-paper-data="{&quot;origPos&quot;:null}" fill="url(#color-3)" stroke="#e4e4e4" stroke-width="2" stroke-linecap="butt"/><path d="M231.18961,169.85639l-4.13645,0.87743l2.38159,-4.01111z" data-paper-data="{&quot;origPos&quot;:null,&quot;index&quot;:null}" fill="#e4e4e4" stroke="none" stroke-width="0" stroke-linecap="round"/><path d="M230.09798,157.93948l-2.38159,-4.01111l4.13645,0.87743z" data-paper-data="{&quot;origPos&quot;:null}" fill="#e4e4e4" stroke="none" stroke-width="0" stroke-linecap="round"/><path d="M254.74123,166.01905l2.63229,3.88576l-4.13645,-0.87743z" data-paper-data="{&quot;origPos&quot;:null,&quot;index&quot;:null}" fill="#e4e4e4" stroke="none" stroke-width="0" stroke-linecap="round"/><path d="M239.99444,158.78241c0,1.85779 -1.02913,3.36383 -2.29862,3.36383c-1.2695,0 -2.29862,-1.50605 -2.29862,-3.36383c0,-1.85779 1.02913,-3.36383 2.29862,-3.36383c1.2695,0 2.29862,1.50605 2.29862,3.36383z" data-paper-data="{&quot;origPos&quot;:null}" fill="#e4e4e4" stroke="#000000" stroke-width="2" stroke-linecap="butt"/><path d="M248.25581,158.91021c0,1.85779 -1.02913,3.36383 -2.29862,3.36383c-1.2695,0 -2.29862,-1.50605 -2.29862,-3.36383c0,-1.85779 1.02913,-3.36383 2.29862,-3.36383c1.2695,0 2.29862,1.50605 2.29862,3.36383z" data-paper-data="{&quot;origPos&quot;:null}" fill="#e4e4e4" stroke="#000000" stroke-width="2" stroke-linecap="butt"/><path d="M242.27878,166.76382l-7.6029,-0.05803l7.27763,-3.6577z" data-paper-data="{&quot;origPos&quot;:null,&quot;origRot&quot;:0}" fill="url(#color-4)" stroke="#c67d00" stroke-width="0.5" stroke-linecap="round"/><path d="M241.98044,170.49979c0,0.78122 -0.51456,1.41454 -1.1493,1.41454c-0.63475,0 -1.14931,-0.63331 -1.14931,-1.41454c0,-0.78122 0.51456,-1.41454 1.14931,-1.41454c0.63475,0 1.1493,0.63331 1.1493,1.41454z" data-paper-data="{&quot;origPos&quot;:null}" fill="#000000" stroke="#000000" stroke-width="0.5" stroke-linecap="butt"/><g data-paper-data="{&quot;origPos&quot;:null}" stroke-width="0.5" stroke-linecap="butt"><path d="M256.58251,159.08623c1.7584,1.05194 -1.71831,-11.25369 -1.71831,-11.25369c0.1413,0.91688 4.92098,12.55776 2.60465,12.91472c-2.31634,0.35696 -5.5841,-5.4121 -5.7254,-6.32899c-0.1413,-0.91688 2.6473,3.35679 4.83906,4.66797z" data-paper-data="{&quot;origPos&quot;:null,&quot;index&quot;:null,&quot;origRot&quot;:0}" fill="url(#color-5)" stroke="#b8b500"/><path d="M241.32618,148.41224l5.22402,-9.83857l12.02492,6.3849l-5.22402,9.83857z" data-paper-data="{&quot;origPos&quot;:null,&quot;origRot&quot;:0}" fill="url(#color-6)" stroke="#a20000"/><path d="M253.34959,155.15664c-0.51591,0.90654 -3.75661,0.24318 -7.23831,-1.48166c-3.48169,-1.72484 -5.88595,-3.85799 -5.37003,-4.76454c0.51591,-0.90654 3.75662,-0.24319 7.23831,1.48165c3.48169,1.72484 5.88594,3.85799 5.37002,4.76454z" data-paper-data="{&quot;origPos&quot;:null,&quot;origRot&quot;:0}" fill="url(#color-7)" stroke="#a20000"/></g></g></g></svg>