<svg version="1.1" xmlns="http://www.w3.org/2000/svg" xmlns:xlink="http://www.w3.org/1999/xlink" width="282.34827" height="81.99134" viewBox="0,0,282.34827,81.99134"><defs><linearGradient x1="152.9285" y1="237.31992" x2="134.11518" y2="237.31992" gradientUnits="userSpaceOnUse" id="color-1"><stop offset="0" stop-color="#e9eaf3"/><stop offset="1" stop-color="#9ca4ab"/></linearGradient><linearGradient x1="172.77458" y1="242.82035" x2="147.98388" y2="242.82035" gradientUnits="userSpaceOnUse" id="color-2"><stop offset="0" stop-color="#e9eaf3"/><stop offset="1" stop-color="#9ca4ab"/></linearGradient><radialGradient cx="265.73073" cy="232.05815" r="14.56944" gradientUnits="userSpaceOnUse" id="color-3"><stop offset="0" stop-color="#accac8"/><stop offset="1" stop-color="#839a99"/></radialGradient><linearGradient x1="250.56082" y1="229.13108" x2="254.15374" y2="233.46216" gradientUnits="userSpaceOnUse" id="color-4"><stop offset="0" stop-color="#d2d3db"/><stop offset="1" stop-color="#a3a5ab"/></linearGradient><linearGradient x1="242.91748" y1="223.46183" x2="249.36887" y2="231.23865" gradientUnits="userSpaceOnUse" id="color-5"><stop offset="0" stop-color="#d2d3db"/><stop offset="1" stop-color="#a3a5ab"/></linearGradient><radialGradient cx="285.38317" cy="230.52714" r="11.15763" gradientUnits="userSpaceOnUse" id="color-6"><stop offset="0" stop-color="#b6d6d4"/><stop offset="1" stop-color="#839a99"/></radialGradient><radialGradient cx="297.76715" cy="239.38049" r="5.68075" gradientUnits="userSpaceOnUse" id="color-7"><stop offset="0" stop-color="#b6d6d6"/><stop offset="1" stop-color="#89a19f"/></radialGradient><radialGradient cx="291.16435" cy="241.98148" r="5.57885" gradientUnits="userSpaceOnUse" id="color-8"><stop offset="0" stop-color="#b6d6d6"/><stop offset="1" stop-color="#89a19f"/></radialGradient><radialGradient cx="303.14701" cy="233.93122" r="5.28347" gradientUnits="userSpaceOnUse" id="color-9"><stop offset="0" stop-color="#b6d6d6"/><stop offset="1" stop-color="#89a19f"/></radialGradient><radialGradient cx="303.0838" cy="229.31813" r="3.24716" gradientUnits="userSpaceOnUse" id="color-10"><stop offset="0" stop-color="#b6d6d6"/><stop offset="1" stop-color="#89a19f"/></radialGradient><radialGradient cx="277.99482" cy="224.88513" r="3.61811" gradientUnits="userSpaceOnUse" id="color-11"><stop offset="0" stop-color="#d2d3db"/><stop offset="1" stop-color="#a3a5ab"/></radialGradient><radialGradient cx="278.66649" cy="222.73579" r="6.99881" gradientUnits="userSpaceOnUse" id="color-12"><stop offset="0" stop-color="#d2d3db"/><stop offset="1" stop-color="#a3a5ab"/></radialGradient><radialGradient cx="255.36276" cy="217.72592" r="12.46491" gradientUnits="userSpaceOnUse" id="color-13"><stop offset="0" stop-color="#645d46"/><stop offset="1" stop-color="#978d69"/></radialGradient><radialGradient cx="261.49234" cy="227.53051" r="14.40414" gradientUnits="userSpaceOnUse" id="color-14"><stop offset="0" stop-color="#645d46"/><stop offset="1" stop-color="#978d69"/></radialGradient><radialGradient cx="246.08218" cy="236.49391" r="18.36514" gradientUnits="userSpaceOnUse" id="color-15"><stop offset="0" stop-color="#645d46"/><stop offset="1" stop-color="#978d69"/></radialGradient><radialGradient cx="240.67125" cy="250.77914" r="18.81118" gradientUnits="userSpaceOnUse" id="color-16"><stop offset="0" stop-color="#645d46"/><stop offset="1" stop-color="#978d69"/></radialGradient><radialGradient cx="219.2206" cy="245.65196" r="16.1122" gradientUnits="userSpaceOnUse" id="color-17"><stop offset="0" stop-color="#645d46"/><stop offset="1" stop-color="#978d69"/></radialGradient><linearGradient x1="246.33353" y1="223.82059" x2="212.70865" y2="204.80293" gradientUnits="userSpaceOnUse" id="color-18"><stop offset="0" stop-color="#9299a0"/><stop offset="1" stop-color="#e5f0fb"/></linearGradient><radialGradient cx="222.23808" cy="196.28891" r="10.30069" gradientUnits="userSpaceOnUse" id="color-19"><stop offset="0" stop-color="#a6a7ad"/><stop offset="1" stop-color="#74757a"/></radialGradient><radialGradient cx="241.82195" cy="187.32635" r="9.21465" gradientUnits="userSpaceOnUse" id="color-20"><stop offset="0" stop-color="#a6a7ad"/><stop offset="1" stop-color="#74757a"/></radialGradient><radialGradient cx="239.7805" cy="194.99348" r="2.96811" gradientUnits="userSpaceOnUse" id="color-21"><stop offset="0" stop-color="#a6a7ad"/><stop offset="1" stop-color="#74757a"/></radialGradient><radialGradient cx="208.17906" cy="207.65283" r="13.1884" gradientUnits="userSpaceOnUse" id="color-22"><stop offset="0" stop-color="#a6a7ad"/><stop offset="1" stop-color="#74757a"/></radialGradient><radialGradient cx="216.43635" cy="209.42542" r="2.13332" gradientUnits="userSpaceOnUse" id="color-23"><stop offset="0" stop-color="#a6a7ad"/><stop offset="1" stop-color="#74757a"/></radialGradient><radialGradient cx="177.72721" cy="248.04545" r="16.61441" gradientUnits="userSpaceOnUse" id="color-24"><stop offset="0" stop-color="#accac8"/><stop offset="1" stop-color="#839a99"/></radialGradient><linearGradient x1="184.79272" y1="234.12802" x2="178.91305" y2="237.4717" gradientUnits="userSpaceOnUse" id="color-25"><stop offset="0" stop-color="#d2d3db"/><stop offset="1" stop-color="#a3a5ab"/></linearGradient><linearGradient x1="192.51429" y1="227.84401" x2="183.07968" y2="233.20933" gradientUnits="userSpaceOnUse" id="color-26"><stop offset="0" stop-color="#d2d3db"/><stop offset="1" stop-color="#a3a5ab"/></linearGradient><linearGradient x1="314.45885" y1="238.62003" x2="317.22709" y2="260.30838" gradientUnits="userSpaceOnUse" id="color-27"><stop offset="0" stop-color="#9da5ac"/><stop offset="1" stop-color="#838a90"/></linearGradient><linearGradient x1="293.85155" y1="186.00265" x2="298.48875" y2="227.43844" gradientUnits="userSpaceOnUse" id="color-28"><stop offset="0" stop-color="#d2d3db"/><stop offset="1" stop-color="#bdc0c7"/></linearGradient><linearGradient x1="309.66088" y1="199.396" x2="315.32302" y2="249.99034" gradientUnits="userSpaceOnUse" id="color-29"><stop offset="0" stop-color="#e9eaf3"/><stop offset="1" stop-color="#9ca4ab"/></linearGradient><linearGradient x1="326.79493" y1="233.24204" x2="327.06478" y2="241.31139" gradientUnits="userSpaceOnUse" id="color-30"><stop offset="0" stop-color="#000000"/><stop offset="1" stop-color="#000000" stop-opacity="0"/></linearGradient><radialGradient cx="208.31306" cy="233.62009" r="4.28242" gradientUnits="userSpaceOnUse" id="color-31"><stop offset="0" stop-color="#d2d3db"/><stop offset="1" stop-color="#a3a5ab"/></radialGradient><radialGradient cx="212.85802" cy="231.01423" r="9.15743" gradientUnits="userSpaceOnUse" id="color-32"><stop offset="0" stop-color="#d2d3db"/><stop offset="1" stop-color="#a3a5ab"/></radialGradient><radialGradient cx="202.53352" cy="242.49865" r="12.54263" gradientUnits="userSpaceOnUse" id="color-33"><stop offset="0" stop-color="#b6d6d4"/><stop offset="1" stop-color="#839a99"/></radialGradient><radialGradient cx="194.40656" cy="257.55859" r="6.38591" gradientUnits="userSpaceOnUse" id="color-34"><stop offset="0" stop-color="#b6d6d6"/><stop offset="1" stop-color="#89a19f"/></radialGradient><radialGradient cx="190.57451" cy="250.56169" r="6.27135" gradientUnits="userSpaceOnUse" id="color-35"><stop offset="0" stop-color="#b6d6d6"/><stop offset="1" stop-color="#89a19f"/></radialGradient><radialGradient cx="201.24266" cy="262.78985" r="5.9393" gradientUnits="userSpaceOnUse" id="color-36"><stop offset="0" stop-color="#b6d6d6"/><stop offset="1" stop-color="#89a19f"/></radialGradient><radialGradient cx="206.37847" cy="262.0687" r="3.65023" gradientUnits="userSpaceOnUse" id="color-37"><stop offset="0" stop-color="#b6d6d6"/><stop offset="1" stop-color="#89a19f"/></radialGradient><linearGradient x1="387.81696" y1="197.28184" x2="385.36443" y2="224.83157" gradientUnits="userSpaceOnUse" id="color-38"><stop offset="0" stop-color="#6b40c0"/><stop offset="1" stop-color="#252972"/></linearGradient><linearGradient x1="384.60036" y1="214.83083" x2="383.6017" y2="226.04896" gradientUnits="userSpaceOnUse" id="color-39"><stop offset="0" stop-color="#d62d2d"/><stop offset="1" stop-color="#8e1e1e"/></linearGradient></defs><g transform="translate(-133.74017,-184.00433)"><g data-paper-data="{&quot;isPaintingLayer&quot;:true}" fill-rule="nonzero" stroke-linejoin="miter" stroke-miterlimit="10" stroke-dasharray="" stroke-dashoffset="0" style="mix-blend-mode: normal"><g data-paper-data="{&quot;index&quot;:null}" stroke="#747474" stroke-width="0.75" stroke-linecap="butt"><path d="M138.35316,237.10131c0,-1.73998 -2.4774,-3.02732 -3.256,-4.35536c-1.52658,-2.60384 -1.49721,-4.53505 1.7013,-4.53505c2.29762,0 3.4083,0.80762 6.99803,2.57142c3.95629,1.94391 9.40067,3.9186 9.40067,3.9186c0,0 -2.99758,2.75241 -3.74311,4.69088c-0.83723,2.17691 -1.30582,6.93243 -1.30582,6.93243c0,0 -2.49174,0.1047 -3.18757,0.1047c-2.36056,0 -2.42003,-1.76756 -3.85095,-3.2822c-1.49685,-1.5844 -2.75655,-3.41168 -2.75655,-6.04543z" fill="url(#color-1)"/><path d="M149.62476,239.69584c0,-1.80412 3.49995,-5.19189 3.49995,-5.19189c0,0 3.48868,-0.93621 4.92002,-0.95178c1.53994,-0.01675 4.01766,0.85455 4.01766,0.85455c0,0 0.38924,5.18423 2.79411,8.77943c2.35589,3.52198 7.91809,5.83606 7.91809,5.83606l-5.38691,2.35225c0,0 -4.82381,-0.64702 -5.51964,-0.64702c-2.36056,0 -6.50112,2.39856 -7.93204,0.82808c-0.9656,-1.05977 -5.94768,-5.67323 -5.94768,-5.67323c0,0 -0.07664,-2.23404 0.40775,-4.04991c0.25584,-0.95911 1.22868,-1.80156 1.22868,-2.13654z" fill="url(#color-2)"/></g><g data-paper-data="{&quot;index&quot;:null}" stroke-width="0.75" stroke-linecap="butt"><path d="M247.90132,240.71635c0,0 -4.3073,-2.14114 -2.29528,-4.28975c0.27502,-0.2937 2.89964,-2.63079 2.89964,-2.63079l1.19954,1.41876c0,0 3.64527,-1.17131 4.07228,-1.52554c2.05318,-1.70326 3.14663,-3.85076 3.14663,-3.85076c0,0 1.33942,-0.80837 1.99916,-0.82076c0.77058,-0.01448 2.34369,0.73914 2.34369,0.73914c0,0 -0.88855,3.50647 -4.13946,6.20332c-2.82545,2.3439 -9.2262,4.75638 -9.2262,4.75638z" fill="#627372" stroke="#222828"/><path d="M252.38053,250.50359c0,0 -2.00407,0.11532 -3.28101,-1.12958c-0.93289,-0.90947 -1.16802,-3.10167 -1.48666,-3.83279c-0.46997,-1.07838 0.05638,-4.45603 0.05638,-4.45603l7.54268,-4.19551c0,0 2.15698,-1.22032 3.0283,-3.2541c0.81063,-1.89214 2.14299,-3.14576 2.31439,-3.28795c2.35109,-1.95038 4.83381,-3.35821 6.90784,-2.45865c1.13832,0.49371 2.57276,1.17035 3.47873,2.19849c1.53756,1.7449 2.22312,3.94629 2.22312,3.94629c0,0 -5.12727,5.79668 -10.95867,10.63421c-5.83139,4.83752 -9.82507,5.83562 -9.82507,5.83562z" fill="url(#color-3)" stroke="#4a5957"/><path d="M252.37258,250.50697c0,0 2.35237,-0.05404 5.82286,-2.8664c0.0735,-0.05957 7.34512,-5.8001 7.41378,-5.85706c2.92555,-2.42694 7.45176,-7.59603 7.45176,-7.59603l1.07883,1.52794c0,0 -2.20421,3.51621 -7.27286,7.72099c-5.06864,4.20477 -13.13546,8.72399 -13.13546,8.72399z" fill="#a06025" stroke="#3f260f"/><path d="M247.87088,232.42222c0,0 1.9162,-2.64926 2.63573,-3.24616c0.61128,-0.5071 4.04505,-2.16241 5.22171,-0.88689c0.47094,0.51049 -0.33469,1.17473 0.18767,1.22245c0.55764,0.05093 0.9769,0.32652 0.9769,0.32652c0,0 -1.44006,2.54635 -3.04813,3.88035c-1.60807,1.334 -4.16278,1.4257 -4.16278,1.4257z" fill="url(#color-4)" stroke="#747474"/><path d="M247.72783,232.59996c0,0 -1.83431,-0.84403 -2.43723,-1.40699c-0.28371,-0.26491 -0.8699,-1.1219 -1.88718,-1.67185c-1.49022,-0.80563 -2.39107,-0.64933 -3.15258,-0.89664c-0.2015,-0.06544 -1.39278,-0.93247 -1.39278,-0.93247c0,0 3.52377,-3.78584 4.2433,-4.38274c0.25867,-0.21458 1.66682,0.44117 3.14482,0.51619c2.01469,0.10225 4.27788,-0.2337 5.03258,0.59362c0.52364,0.57403 1.74708,3.41134 1.74708,3.41134c0,0 -1.76179,0.76632 -3.36986,2.10032c-0.53594,0.44459 -0.77004,1.08073 -1.05568,1.47612c-0.5714,0.79098 -0.87245,1.19312 -0.87245,1.19312z" fill="url(#color-5)" stroke="#747474"/></g><g data-paper-data="{&quot;index&quot;:null}" stroke-width="0.75" stroke-linecap="butt"><path d="M276.29771,233.07348c-0.39524,-1.44671 -0.2972,-3.14646 -0.3012,-3.25482c-0.03963,-1.07434 1.42539,-3.42609 2.96789,-4.93839c1.09039,-1.06905 2.63065,-1.58703 3.31692,-1.85817c1.755,-0.6934 4.34954,1.71035 4.34954,1.71035c0,0 1.89813,-0.5602 3.91586,-0.41311c2.20242,0.16055 7.73839,1.85258 7.645,2.19758c-0.05607,0.20715 -3.92474,1.35203 -2.96649,3.43206c0.68113,1.4785 3.07854,3.31302 3.07854,3.31302c0,0 -6.79416,-2.9586 -7.00697,-1.93818c-0.46987,2.25297 2.13219,5.03985 2.13219,5.03985l-1.00819,0.08357c0,0 -4.60515,-3.5607 -4.914,-2.97449c-1.47523,2.79999 0.73617,5.74477 0.73617,5.74477c0,0 -3.56003,0.2582 -5.92578,-0.60429c-2.10032,-0.76572 -3.18491,-2.12996 -3.18491,-2.12996c0,0 -0.79429,-0.42589 -1.45117,-1.07528c-0.64663,-0.63925 -1.15418,-1.49541 -1.38342,-2.33451z" fill="url(#color-6)" stroke="#4a5957"/><path d="M295.16297,239.67704c-0.78472,-1.98611 -5.47198,-7.83862 -4.04949,-8.40065c0.78087,-0.30853 4.15606,0.23013 6.34588,1.83917c1.79933,1.3221 1.85898,3.99637 2.21293,4.89222c0.78472,1.9861 0.90965,3.68578 -0.51284,4.24781c-0.84994,0.33581 -2.43436,0.52203 -3.25366,-0.17899c-0.55193,-0.47224 -0.42699,-1.60012 -0.74283,-2.39955z" fill="url(#color-7)" stroke="#4a5957"/><path d="M288.49341,242.24426c-0.07284,-0.60791 0.66411,-1.15683 0.40575,-2.1877c-0.28662,-1.14361 -1.26019,-2.18242 -1.65339,-3.36032c-0.54609,-1.63588 -0.32406,-3.30042 0.34675,-3.38078c0.8724,-0.10451 5.12998,3.27916 5.12998,3.27916c0,0 0.98699,2.48057 0.92514,3.75283c-0.01738,0.35757 -0.22652,3.5422 -1.81574,3.73258c-0.94955,0.11375 -1.78201,0.85897 -2.42472,-0.0685c-0.43297,-0.6248 -0.80679,-0.87416 -0.91378,-1.76727z" fill="url(#color-8)" stroke="#4a5957"/><path d="M300.32686,235.24904c-0.33404,-0.84546 -1.81901,-1.68296 -3.03858,-2.80202c-1.6217,-1.48802 -2.32794,-3.34978 -2.32794,-3.34978c0,0 1.33749,-3.04349 3.50921,-1.44776c0.62191,0.45696 1.82795,0.30209 2.82152,0.99338c0.81563,0.56748 1.40873,1.97136 2.0944,2.48282c0.87572,0.65322 1.44058,1.10462 1.56884,1.42925c0.77823,1.96969 0.90214,3.65531 -0.5086,4.21269c-0.84291,0.33304 -2.41424,0.51771 -3.22677,-0.17751c-0.54737,-0.46834 -0.57887,-0.54826 -0.8921,-1.34108z" fill="url(#color-9)" stroke="#4a5957"/><path d="M301.48497,228.90844c-1.42209,-0.88948 -4.21854,-1.85269 -4.21854,-1.85269l1.09769,-0.47506c0,0 1.03977,0.55191 1.58551,0.6999c1.06582,0.28903 2.40974,0.19488 3.0573,0.5999c1.4221,0.88947 0.39548,3.11199 0.39548,3.11199c0,0 -0.38201,-0.41332 -0.9214,-1.09023c-0.24067,-0.30202 -0.55728,-0.71938 -0.99603,-0.99381z" fill="url(#color-10)" stroke="#4a5957"/><path d="M275.985,230.89186c0,0 -0.91876,-1.34787 -1.00522,-2.65269c-0.04001,-0.60388 0.49666,-1.25988 0.63765,-1.73803c0.44563,-1.51128 2.02819,-2.21862 2.79997,-2.68448c0.65568,-0.39578 1.61542,0.06258 1.61542,0.06258c0,0 -2.45442,2.4758 -2.49647,2.54865c-0.70393,1.2195 -1.55136,4.46397 -1.55136,4.46397z" data-paper-data="{&quot;index&quot;:null}" fill="url(#color-11)" stroke="#747474"/><path d="M278.23609,220.72695c0.1542,0.17501 0.37027,1.10129 0.82262,1.56222c0.61227,0.62389 1.10705,1.15637 1.11062,1.45594c0.00185,0.15493 -1.56426,-0.19551 -2.31554,0.36103c-0.37557,0.27821 -0.9655,0.51803 -1.40138,1.0288c-0.46946,0.55012 -0.94096,1.17543 -1.17422,1.82838c-0.41656,1.16604 -0.37785,2.2882 -0.37785,2.2882c0,0 -1.27802,-0.00007 -1.7639,-0.46099c-0.32404,-0.3074 -1.02193,-1.25438 -1.26063,-2.25171c-0.25608,-1.06994 -0.04269,-2.21509 -0.07877,-3.21945c-0.00296,-0.08264 -0.59011,-1.15974 -0.58868,-1.23543c0.01148,-0.60828 -1.36812,-2.75034 -1.07175,-4.30034c0.18659,-0.97584 1.90129,-1.40896 2.33321,-2.04423c0.41522,-0.6107 2.64139,-0.47192 2.64139,-0.47192c0,0 0.64247,0.56385 1.20257,1.03835c0.26162,0.22164 0.50529,0.4238 0.6571,0.53988c0.3616,0.2765 0.6559,1.28532 0.9294,1.86456c0.43289,0.91681 0.11422,1.76525 0.3358,2.01672z" data-paper-data="{&quot;index&quot;:null}" fill="url(#color-12)" stroke="#747474"/></g><g data-paper-data="{&quot;index&quot;:null}" stroke-linecap="butt"><path d="M236.93423,186.12934c11.34794,3.64887 21.83326,-1.20389 17.80401,11.32705c-4.02926,12.53094 -37.49192,32.76278 -48.83986,29.11391c-11.34793,-3.64887 -0.83626,-11.82762 3.19299,-24.35856c4.02926,-12.53093 16.49492,-19.73127 27.84286,-16.0824z" fill="#000000" stroke="#000000" stroke-width="0.5"/><path d="M252.0548,207.62409l5.1278,-3.4763l6.51894,3.2494c0,0 8.06536,7.31248 7.04628,13.62333c-0.01875,0.11608 -3.59347,11.90256 -10.59747,19.20117c-9.62952,10.03458 -24.04227,16.27356 -29.17328,14.62371c-2.63176,-0.84624 -9.71355,-2.57751 -14.62285,-6.58772c-4.81097,-3.92989 -7.49496,-10.1007 -5.79893,-14.69556c2.40179,-6.50687 25.35584,-15.99591 25.35584,-15.99591z" fill="#000000" stroke="none" stroke-width="0"/><path d="M255.9868,221.49453c-1.95173,-2.08523 -4.15991,-5.34785 -5.39644,-7.89845c-1.02051,-2.10501 -1.2518,-3.73439 -1.2518,-3.73439c0,0 1.61895,-1.15977 2.39936,-1.65934c0.81615,-0.52246 2.39509,-1.40982 2.39509,-1.40982c0,0 3.64785,8.59578 6.76646,10.57673c3.11862,1.98095 9.36436,4.59375 9.36436,4.59375c0,0 -0.25946,1.59182 -0.55357,2.35583c-0.32231,0.83727 -1.30344,2.46813 -1.30344,2.46813c0,0 -8.85754,-1.48627 -12.42003,-5.29244z" fill="url(#color-13)" stroke="none" stroke-width="NaN"/><path d="M265.83754,231.20028c0,0 -10.79326,-2.09273 -13.38075,-5.08909c-2.27934,-2.6395 -4.86204,-6.34736 -5.64135,-7.34626c-2.17334,-2.78573 -2.90147,-7.31978 -2.90147,-7.31978l5.08795,-2.18296c0,0 3.30123,9.21151 7.73936,12.03062c3.11861,1.98095 11.87208,5.36991 11.87208,5.36991c0,0 -0.89073,2.09445 -1.39126,2.91266c-0.40381,0.66013 -1.38455,1.62493 -1.38455,1.62493z" fill="url(#color-14)" stroke="none" stroke-width="NaN"/><path d="M241.09605,237.75916c-7.08524,-4.70573 -13.48276,-13.69922 -13.48276,-13.69922l6.53194,-4.40852c0,0 2.88688,3.97816 7.32501,6.79727c3.11862,1.98094 7.74542,7.09783 11.56429,7.9593c3.81886,0.86147 9.20008,3.04825 9.20008,3.04825c0,0 -4.85704,7.0254 -7.11919,7.66536c-2.92613,0.82781 -6.93415,-2.65671 -14.01938,-7.36243z" fill="url(#color-15)" stroke="none" stroke-width="NaN"/><path d="M239.46202,253.75303c0,0 -9.8978,-5.91619 -14.07559,-10.36271c-4.17778,-4.44652 -8.0364,-13.41006 -8.0364,-13.41006l7.24527,-4.09966c0,0 3.7831,8.90031 9.29209,13.55435c4.68788,3.96036 16.28339,8.93721 16.28339,8.93721c0,0 -3.30732,2.65387 -5.14469,3.5771c-1.72515,0.86685 -5.56407,1.80378 -5.56407,1.80378z" fill="url(#color-16)" stroke="none" stroke-width="NaN"/><path d="M224.63311,252.85155c-3.83953,-1.14433 -9.84508,-5.67857 -9.84508,-5.67857c-3.56249,-3.80616 -3.66455,-13.92139 -3.66455,-13.92139l3.77544,-2.71299c0,0 -0.51569,7.37881 4.8999,13.38121c0.07221,0.08004 4.10767,3.54864 8.49715,6.45013c3.60779,2.38479 7.72921,4.31032 7.72921,4.31032l-4.75643,0.39065c0,0 -4.19343,-1.4915 -6.63564,-2.21937z" fill="url(#color-17)" stroke="none" stroke-width="NaN"/><path d="M238.31964,201.20872c0,0 6.60836,-4.18744 7.04596,-4.4121c1.88502,-0.96773 9.22196,-3.71243 9.22196,-3.71243c0,0 -0.32911,2.69049 0.63869,6.2435c0.71327,2.61857 2.63404,4.1126 2.63404,4.1126c0,0 -9.83244,6.64701 -20.27986,13.16992c-5.37912,3.3585 -10.57438,7.5725 -15.78711,10.54972c-9.01145,5.14683 -16.66273,8.24518 -18.58084,7.62842c-1.74843,-0.56219 -6.45484,-5.55457 -1.18685,-10.06392c10.34718,-8.8571 36.29401,-23.51568 36.29401,-23.51568z" fill="url(#color-18)" stroke="#747474" stroke-width="1"/><path d="M222.30125,192.4264l2.12644,1.48639l1.26972,-4.23684l3.9669,-1.55909c0,0 4.53527,2.1903 4.94542,4.82562c0.3329,2.13896 -0.03341,4.72187 -0.29355,5.5309c-1.16071,3.60981 -10.20168,9.45563 -12.88983,8.59127c-1.57885,-0.50769 -3.63593,-4.12494 -3.29662,-7.00905c0.23841,-2.02638 1.16726,-6.41156 1.16726,-6.41156z" fill="url(#color-19)" stroke="#343434" stroke-width="0.75"/><path d="M241.47485,192.85589c0,0 -2.17382,-2.5162 -3.24309,-3.4978c-1.52189,-1.39712 -3.54335,-1.96739 -2.92798,-2.97404c1.04772,-1.71392 8.10809,-2.75456 10.40965,-1.34761c0.51583,0.31532 5.43165,0.39321 6.24523,1.70074c1.00238,1.61095 2.24946,3.65639 2.24946,3.65639c0,0 -1.89171,2.68855 -3.26392,3.00569c-0.56915,0.13153 -4.95358,-0.04993 -4.95358,-0.04993l-3.11879,-0.95992z" data-paper-data="{&quot;index&quot;:null}" fill="url(#color-20)" stroke="#343434" stroke-width="0.75"/><path d="M237.82027,198.18603l0.57855,-5.06609c0,0 1.15798,-0.23051 2.09081,0.03759c0.72201,0.20751 3.03753,1.43632 3.03753,1.43632z" fill="url(#color-21)" stroke="#343434" stroke-width="0.75"/><path d="M211.79316,215.06064c0,0 -3.37228,2.26247 -4.7674,3.43806c-1.98565,1.6732 -3.29954,4.21052 -4.11481,3.14903c-1.38808,-1.80729 0.07867,-11.41213 2.35475,-14.11545c0.51011,-0.60586 2.35756,-7.09676 3.99634,-7.85391c2.01906,-0.93288 4.57348,-2.08336 4.57348,-2.08336c0,0 2.0882,3.16366 1.92142,5.05854c-0.06919,0.78595 -1.83224,6.54773 -1.83224,6.54773l-2.1096,3.89507z" data-paper-data="{&quot;index&quot;:null}" fill="url(#color-22)" stroke="#343434" stroke-width="0.75"/><path d="M215.31816,212.44525l0.41584,-3.64126c0,0 0.83231,-0.16568 1.50278,0.02702c0.51895,0.14915 2.18322,1.03236 2.18322,1.03236z" fill="url(#color-23)" stroke="#343434" stroke-width="0.75"/></g><g data-paper-data="{&quot;index&quot;:null}" stroke-width="0.75" stroke-linecap="butt"><path d="M175.38428,240.55744c-2.24395,-3.94587 -3.12575,-10.81141 -3.12575,-10.81141c0,0 3.63028,-4.41702 5.56733,-1.90816c0.26478,0.34295 2.25914,3.55087 2.25914,3.55087l-1.93187,1.12011c0,0 0.39791,4.16675 0.69266,4.68504c1.41722,2.49211 3.59019,3.99189 3.59019,3.99189c0,0 0.57837,1.58362 0.42218,2.30997c-0.18243,0.84839 -1.45029,2.47136 -1.45029,2.47136c0,0 -3.77964,-1.46381 -6.0236,-5.40968z" fill="#627372" stroke="#222828"/><path d="M159.77313,232.68652c0,0 0.31993,-2.30195 2.04715,-3.53078c1.26187,-0.89775 3.84812,-0.76977 4.76499,-1.00052c1.35235,-0.34034 5.13623,0.86834 5.13623,0.86834l3.14238,9.34267c0,0 0.92234,2.67545 3.07537,4.03426c2.00307,1.26416 3.15037,3.00697 3.27591,3.22773c1.72205,3.02812 2.78738,6.10816 1.27896,8.30661c-0.82789,1.2066 -1.9341,2.71726 -3.32698,3.56294c-2.36391,1.43524 -5.06265,1.8183 -5.06265,1.8183c0,0 -5.53872,-6.88225 -9.80991,-14.39291c-4.27119,-7.51065 -4.52145,-12.2366 -4.52145,-12.2366z" fill="url(#color-24)" stroke="#4a5957"/><path d="M159.77105,232.67688c0,0 -0.46947,2.68735 1.99548,7.1452c0.05221,0.09443 5.04116,9.40739 5.09145,9.49582c2.1428,3.76799 7.09226,9.85285 7.09226,9.85285l-2.00949,0.95224c0,0 -3.56458,-3.14353 -7.2771,-9.67178c-3.71252,-6.52826 -7.11043,-16.52595 -7.11043,-16.52595z" fill="#a06025" stroke="#3f260f"/><path d="M181.83002,230.90121c0,0 2.45407,2.33237 2.92707,3.16412c0.40185,0.70663 1.31414,4.54377 -0.45036,5.65464c-0.7062,0.4446 -1.2312,-0.48623 -1.43005,0.06434c-0.21227,0.58774 -0.63934,1.00337 -0.63934,1.00337c0,0 -2.47031,-1.81432 -3.52741,-3.67317c-1.0571,-1.85884 -0.45103,-4.58748 -0.45103,-4.58748z" fill="url(#color-25)" stroke="#747474"/><path d="M182.15307,231.57994c0,0 1.32073,-1.63386 2.03925,-2.14825c0.33812,-0.24205 1.34515,-0.71765 2.15915,-1.61727c1.19245,-1.31786 1.2725,-2.16549 1.7181,-2.85194c0.1179,-0.18162 1.29327,-1.21745 1.29327,-1.21745c0,0 2.849,3.56714 3.25529,4.28157c0.14605,0.25683 -0.87561,1.51047 -1.33709,2.87489c-0.62905,1.85986 -0.88662,3.98487 -1.9082,4.61904c-0.70881,0.44003 -3.85517,1.34953 -3.85517,1.34953c0,0 -0.30233,-1.69422 -1.21032,-3.29088c-0.30262,-0.53214 -0.87499,-0.7996 -1.19411,-1.09577c-0.63837,-0.59247 -0.96016,-0.90346 -0.96016,-0.90346z" fill="url(#color-26)" stroke="#747474"/></g><path d="M295.23014,241.51684c-0.45399,-4.05662 9.16541,-8.46289 21.48552,-9.84166c6.64102,-0.74321 14.71295,-1.64315 18.96915,-0.5842c3.63972,0.90557 3.95113,3.56292 4.1604,5.43286c0.45399,4.05662 -9.1654,8.46288 -21.48551,9.84165c-6.59123,0.73764 -12.97958,4.63128 -17.23079,3.59176c-3.69504,-0.90354 -5.68766,-6.55408 -5.89877,-8.44043z" data-paper-data="{&quot;index&quot;:null}" fill="#000000" stroke="none" stroke-width="0" stroke-linecap="butt"/><path d="M293.40786,248.48212l7.1601,3.11674c0,0 -2.29445,-10.85651 -1.46147,-11.44385c0.60652,-0.42766 4.38964,2.48912 7.58145,3.81087c2.37218,0.98233 5.15404,1.57028 5.15404,1.57028l3.58452,1.06176l0.47189,-6.03176c0,0 9.86746,-2.79544 13.4321,-2.97881c3.38018,-0.17388 10.60296,-1.30381 10.60296,-1.30381c0,0 1.23862,4.35086 -0.5167,7.70331c-3.36515,6.42705 -13.29102,15.44835 -22.10363,16.3131c-5.77243,0.56642 -12.42998,-0.14343 -16.66092,-1.83113c-5.59755,-2.23283 -10.40245,-6.80413 -10.40245,-6.80413z" data-paper-data="{&quot;index&quot;:null}" fill="url(#color-27)" stroke="none" stroke-width="0" stroke-linecap="butt"/><path d="M278.96268,207.40896c-0.65833,-5.88253 1.89765,-13.39043 4.91024,-16.90177c2.02726,-2.36288 2.84615,-2.1921 5.17108,-2.5439c2.32493,-0.35179 4.75604,0.8713 4.75604,0.8713c0,0 2.61526,-4.7344 7.11803,-2.98505c4.50276,1.74935 5.01776,4.87776 7.76186,8.76598c2.93411,4.15743 4.36326,8.4285 4.36326,8.4285c0,0 -5.4108,5.65058 -8.60241,9.60269c-1.62833,2.01632 -9.73348,12.55718 -11.89069,12.7986c-2.92993,0.3279 -9.76402,3.75045 -9.76402,3.75045c0,0 -3.22739,-16.46131 -3.82338,-21.78681z" data-paper-data="{&quot;index&quot;:null}" fill="url(#color-28)" stroke="#747474" stroke-width="1" stroke-linecap="butt"/><path d="M311.77261,204.24013l-3.59499,2.95024c0,0 -3.30248,-5.45091 -4.6079,-8.50228c-0.48029,-1.12264 -1.5679,-2.53682 -2.05365,-3.92301c-0.76864,-2.19348 -0.84858,-4.22532 -0.84858,-4.22532c0,0 1.80955,0.77619 4.35616,2.31799c1.61611,0.97843 2.4815,3.26237 3.26248,4.25867c1.62907,2.07818 3.4865,7.12369 3.4865,7.12369z" data-paper-data="{&quot;index&quot;:null}" fill="#000000" stroke="none" stroke-width="0" stroke-linecap="butt"/><path d="M287.73389,206.03511c-0.30585,-2.73295 -1.89314,-8.11115 -1.24388,-10.10384c0.76063,-2.3345 2.95467,-3.44696 4.59607,-3.63065c3.04246,-0.34048 11.5559,12.8056 12.22007,18.74029c0.66416,5.9347 -4.42572,7.38156 -7.46818,7.72205c-3.04247,0.3405 -7.4399,-6.79314 -8.10407,-12.72783z" data-paper-data="{&quot;index&quot;:null}" fill="#000000" stroke="none" stroke-width="0" stroke-linecap="butt"/><path d="M281.56899,246.85353c-0.24246,-2.16659 -1.44405,-5.14037 -1.65083,-8.33164c-0.15402,-2.37694 0.48159,-4.94204 1.20507,-7.0232c1.42387,-4.09587 9.52945,-6.62807 11.80762,-6.99939c2.27817,-0.37131 10.18147,-12.12479 15.47096,-17.15502c7.63346,-7.2593 6.00417,-6.88448 12.72766,-9.05946c6.74872,-2.18312 17.26433,4.43662 20.92645,8.09823c1.48835,1.48814 4.01372,7.90996 3.95166,14.50214c-0.07101,7.54041 -2.8531,15.25659 -2.8531,15.25659c0,0 -4.17153,-4.61204 -14.63038,-3.70232c-1.10586,0.09619 -11.37967,3.14251 -11.37967,3.14251c0,0 -0.47017,9.10044 -2.16647,9.52966c-1.82316,0.46132 -8.41936,-6.8511 -8.41936,-6.8511l-2.09419,2.05324c0,0 -3.49042,-2.96521 -4.89433,-2.92445c-0.54132,0.01572 2.19134,12.62641 1.54197,12.67942c-1.79176,0.14626 -6.65389,-3.07627 -6.65389,-3.07627l-2.29381,5.01753c0,0 -1.72123,1.27777 -3.63596,0.67332c-3.0838,-0.97351 -6.81574,-4.54595 -6.95941,-5.82975z" data-paper-data="{&quot;index&quot;:null}" fill="url(#color-29)" stroke="#747474" stroke-width="1" stroke-linecap="butt"/><path d="M324.50183,203.5893c2.91289,-0.32599 5.15696,2.69987 5.15696,2.69987c0,0 -2.05454,0.83678 -4.96742,1.16277c-2.91288,0.32599 -3.83979,0.39363 -4.0102,-1.12902c-0.17041,-1.52265 0.90778,-2.40763 3.82066,-2.73362z" data-paper-data="{&quot;index&quot;:null}" fill="#000000" stroke="#73797e" stroke-width="1" stroke-linecap="butt"/><path d="M317.6132,236.00316c0,0 4.03369,-1.19283 8.61025,-2.47716c1.61924,-0.4544 3.21481,-0.76085 4.60074,-0.96716c2.53122,-0.37677 3.85615,0.15436 3.85615,0.15436c0,0 1.60513,0.16657 2.26693,0.27852c0.58228,0.0985 2.35889,1.23617 2.35889,1.23617c0,0 -9.74503,1.9097 -12.40235,2.65544c-2.2667,0.6361 -9.60864,3.2587 -9.60864,3.2587z" data-paper-data="{&quot;index&quot;:null}" fill="url(#color-30)" stroke="none" stroke-width="0" stroke-linecap="butt"/><g data-paper-data="{&quot;index&quot;:null}" stroke-width="0.75" stroke-linecap="butt"><path d="M201.65315,231.3641c0,0 1.85316,-1.07587 3.57095,-1.06533c0.79501,0.00488 1.60359,0.77029 2.21668,1.00039c1.9378,0.72727 2.71439,2.86787 3.25152,3.92327c0.45633,0.89664 -0.23528,2.1106 -0.23528,2.1106c0,0 -3.01093,-3.45073 -3.10237,-3.51273c-1.531,-1.03799 -5.70151,-2.45619 -5.70151,-2.45619z" data-paper-data="{&quot;index&quot;:null}" fill="url(#color-31)" stroke="#747474"/><path d="M214.75765,235.2781c-0.24393,0.18543 -1.47805,0.38063 -2.12489,0.92956c-0.87552,0.743 -1.62015,1.34074 -2.01297,1.31699c-0.20316,-0.01228 0.4046,-2.03096 -0.2533,-3.06811c-0.32888,-0.51846 -0.5871,-1.31417 -1.21495,-1.93372c-0.67624,-0.66728 -1.45077,-1.34437 -2.28414,-1.71196c-1.48822,-0.65643 -2.96215,-0.71219 -2.96215,-0.71219c0,0 0.12136,-1.67446 0.77137,-2.26733c0.43351,-0.39539 1.74047,-1.2199 3.06984,-1.43801c1.42615,-0.23399 2.90629,0.15425 4.22562,0.20229c0.10856,0.00396 1.5755,-0.66311 1.67454,-0.65406c0.79589,0.07277 3.73333,-1.53153 5.73603,-0.99614c1.26085,0.33706 1.66563,2.62477 2.45696,3.25096c0.76074,0.60197 0.36766,3.50555 0.36766,3.50555c0,0 -0.79972,0.78826 -1.47457,1.47708c-0.31523,0.32176 -0.60322,0.62182 -0.76972,0.80971c-0.39658,0.44753 -1.74627,0.7374 -2.53114,1.04078c-1.24228,0.48018 -2.32368,-0.01785 -2.67419,0.24859z" data-paper-data="{&quot;index&quot;:null}" fill="url(#color-32)" stroke="#747474"/><path d="M198.41224,232.72528c1.55769,-0.64484 3.46716,-0.77525 3.58744,-0.79499c1.19257,-0.19573 4.02198,1.10642 5.92614,2.61338c1.34604,1.06527 2.14096,2.70999 2.54015,3.43711c1.02085,1.85946 -1.29397,5.09205 -1.29397,5.09205c0,0 0.89249,2.03787 1.01304,4.30888c0.13159,2.47888 -0.97462,8.89151 -1.37255,8.83602c-0.23893,-0.03332 -2.06142,-4.18636 -4.246,-2.82429c-1.55281,0.96816 -3.26062,3.90062 -3.26062,3.90062c0,0 2.34128,-7.99447 1.17324,-8.08788c-2.5789,-0.20625 -5.31994,3.08877 -5.31994,3.08877l-0.23541,-1.1126c0,0 3.32151,-5.63811 2.62419,-5.89987c-3.33076,-1.25031 -6.303,1.63129 -6.303,1.63129c0,0 -0.79009,-3.9339 -0.16188,-6.69394c0.55773,-2.45037 1.92621,-3.85238 1.92621,-3.85238c0,0 0.36295,-0.94589 0.99453,-1.77007c0.62171,-0.81132 1.50495,-1.49811 2.40842,-1.87213z" fill="url(#color-33)" stroke="#4a5957"/><path d="M193.70852,254.6961c2.10431,-1.15529 7.9702,-7.20821 8.79763,-5.70106c0.45422,0.82734 0.32953,4.6675 -1.15607,7.33663c-1.22067,2.19316 -4.19473,2.63689 -5.1439,3.15799c-2.10432,1.15529 -3.98226,1.53434 -4.80969,0.02719c-0.49439,-0.90052 -0.92555,-2.64128 -0.2593,-3.65388c0.44883,-0.68215 1.72431,-0.70188 2.57132,-1.16688z" fill="url(#color-34)" stroke="#4a5957"/><path d="M189.90473,247.62001c0.6677,-0.16696 1.38382,0.5775 2.49706,0.14395c1.23497,-0.48094 2.25618,-1.71323 3.51437,-2.31789c1.74738,-0.83977 3.63507,-0.82693 3.81931,-0.09014c0.23959,0.95819 -2.93351,6.1837 -2.93351,6.1837c0,0 -2.62724,1.45059 -4.05484,1.56107c-0.40123,0.03106 -3.98237,0.247 -4.41885,-1.49853c-0.26079,-1.04294 -1.20931,-1.86623 -0.26561,-2.71383c0.63575,-0.57099 0.86111,-1.02306 1.84207,-1.26835z" fill="url(#color-35)" stroke="#4a5957"/><path d="M199.37517,259.83058c0.89579,-0.49179 1.62035,-2.26601 2.69636,-3.78398c1.43078,-2.01848 3.40749,-3.06871 3.40749,-3.06871c0,0 3.58289,1.06236 2.10957,3.70943c-0.4219,0.75802 -0.07906,2.08121 -0.70989,3.2868c-0.51784,0.98968 -1.99987,1.84915 -2.47356,2.68597c-0.60498,1.06878 -1.02873,1.7624 -1.37268,1.95123c-2.08692,1.14573 -3.94932,1.52167 -4.76992,0.02697c-0.4903,-0.89308 -0.91789,-2.61945 -0.25715,-3.62368c0.44511,-0.6765 0.5298,-0.72292 1.36981,-1.18407z" fill="url(#color-36)" stroke="#4a5957"/><path d="M206.60987,260.22784c0.79141,-1.71145 1.47119,-4.96603 1.47119,-4.96603l0.68464,1.15719c0,0 -0.46886,1.23744 -0.55693,1.86695c-0.17201,1.22941 0.12255,2.71494 -0.23782,3.49425c-0.79139,1.71145 -3.41485,0.88 -3.41485,0.88c0,0 0.40707,-0.48434 1.08591,-1.18137c0.30288,-0.311 0.72368,-0.72297 0.96785,-1.25099z" fill="url(#color-37)" stroke="#4a5957"/></g><g data-paper-data="{&quot;index&quot;:null}"><path d="M387.95927,197.29451c18.41585,1.63941 27.35086,19.90573 26.6735,27.51463c-0.67736,7.6089 -15.3349,-5.25331 -33.75074,-6.89272c-18.41585,-1.63941 -24.67202,5.65801 -23.99466,-1.95089c0.67736,-7.6089 12.65606,-20.31043 31.0719,-18.67102z" fill="url(#color-38)" stroke="#9c9f00" stroke-width="2.5" stroke-linecap="butt"/><path d="M392.25675,202.9466c0.93174,0.58327 1.59624,2.10202 1.59624,2.10202l-2.85428,-0.156l1.16871,0.88944c0,0 -1.46725,0.05633 -2.38371,-0.10901c-0.91646,-0.16533 -0.77644,-0.49358 -1.13187,-0.52523c-0.66487,-0.05919 -1.33737,-0.79852 -1.81891,-1.26075c-0.32909,-0.31589 0.00313,-0.91625 0.04358,-1.37062c0.04537,-0.5097 0.58679,-0.52059 1.0116,-0.80588c0.47094,-0.31627 2.44825,-0.49703 2.44825,-0.49703l-0.99168,0.9704c0,0 1.98032,0.17938 2.91207,0.76266z" data-paper-data="{&quot;index&quot;:null}" fill="#ececec" stroke="#000000" stroke-width="0.25" stroke-linecap="butt"/><path d="M389.57833,207.99058c-0.03891,0.43712 -0.3093,0.78991 -0.74642,0.751c-1.21954,-0.10856 -2.11108,0.32579 -3.19905,-0.23578c-1.15748,-0.59745 -2.56199,-1.53988 -2.44648,-2.83733c0.0749,-0.84134 1.12592,-1.01964 1.95725,-1.16922c0.69755,-0.12551 1.67329,-0.0171 2.30993,0.47557c0,0 1.17859,0.85281 1.6856,1.5373c0.38042,0.51359 0.4781,1.04133 0.43918,1.47845z" data-paper-data="{&quot;index&quot;:null}" fill="#ececec" stroke="#000000" stroke-width="0.25" stroke-linecap="butt"/><path d="M384.29082,206.30309c-0.1593,0.25822 -0.43422,0.37761 -0.61405,0.26667c-0.17983,-0.11094 -0.19648,-0.4102 -0.03718,-0.66842c0.1593,-0.25822 0.43421,-0.37761 0.61405,-0.26667c0.17983,0.11094 0.19648,0.4102 0.03718,0.66842z" data-paper-data="{&quot;origRot&quot;:0,&quot;index&quot;:null}" fill="#090005" stroke="#000000" stroke-width="0.25" stroke-linecap="butt"/><path d="M381.47547,212.12743l0.33055,-3.71311l6.10241,0.54325l-0.33055,3.71311z" data-paper-data="{&quot;index&quot;:null}" fill="#ececec" stroke="#000000" stroke-width="0.25" stroke-linecap="butt"/><path d="M387.88992,207.78391c0.59325,-0.01893 1.13317,0.06148 1.57673,0.45588c0.3074,0.27333 0.60579,0.49825 0.75278,0.88245c0.21258,0.55564 0.16073,1.72466 -0.24669,2.15817c-0.17009,0.18098 -0.86239,0.97087 -1.52316,1.46406c-0.66077,0.49318 -1.23585,0.93651 -2.14794,1.29158c-0.91208,0.35507 -1.85314,0.42533 -2.11886,0.36946c-0.26916,-0.0566 -1.14632,-0.27384 -1.33136,-0.47734c-0.53325,-0.5864 -0.88636,-0.90579 -1.249,-1.61058c-0.371,-0.72104 -0.73376,-2.35399 -0.73376,-2.35399c0,0 0.43502,0.1824 0.68315,0.51073c0.26068,0.34493 0.24372,0.77494 0.4204,1.16956c0.27777,0.62041 0.60254,0.82335 1.13395,1.24723c0.93462,0.7455 1.23269,0.5863 1.81924,0.35565c0.58655,-0.23065 0.76352,-0.40329 1.16138,-0.82679c0.39654,-0.42209 0.66207,-0.72294 0.93306,-1.23476c0.20557,-0.38827 0.35038,-1.03181 0.35038,-1.03181l0.474,0.1483c0,0 -0.40429,-0.59954 -0.76978,-0.80217c-0.45522,-0.25238 -1.27312,-0.4115 -1.27312,-0.4115l0.6147,0.58175c0,0 -0.7688,0.68092 -1.27276,0.8816c-0.71876,0.28623 -1.15629,0.28093 -1.92691,0.21233c-1.06989,-0.09524 -1.83834,-0.39272 -2.58982,-1.16017c-0.56032,-0.57223 -0.74011,-1.13912 -0.66909,-1.93684c0.10649,-1.19623 0.79058,-2.19594 2.18049,-2.0722c0,0 1.5685,0.21104 2.3782,0.91054c0.5965,0.5153 1.40884,1.85924 1.40884,1.85924c0,0 1.19508,-0.55582 1.96493,-0.58039z" data-paper-data="{&quot;index&quot;:null}" fill="#ececec" stroke="#000000" stroke-width="0.25" stroke-linecap="butt"/><path d="M386.52258,211.56032c0,0 -0.53703,0.78407 -0.98539,1.14076c-0.48665,0.38715 -0.92506,0.63308 -1.54447,0.57794c-0.68653,-0.06112 -1.49731,-1.09334 -1.49731,-1.09334c0,0 0.98722,-1.13251 1.67375,-1.07139c0.68653,0.06112 2.35342,0.44603 2.35342,0.44603z" data-paper-data="{&quot;index&quot;:null}" fill="#ececec" stroke="#000000" stroke-width="0.25" stroke-linecap="butt"/><path d="M384.84159,210.66984l0.65116,-0.33438l-0.15592,0.93877z" data-paper-data="{&quot;origRot&quot;:0,&quot;index&quot;:null}" fill="#ececec" stroke="#000000" stroke-width="0.25" stroke-linecap="butt"/><path d="M386.51642,207.19062c-0.1593,0.25822 -0.43422,0.37761 -0.61405,0.26667c-0.17983,-0.11094 -0.19648,-0.4102 -0.03718,-0.66842c0.1593,-0.25822 0.43422,-0.37761 0.61405,-0.26667c0.17983,0.11094 0.19648,0.4102 0.03718,0.66842z" data-paper-data="{&quot;origRot&quot;:0,&quot;index&quot;:null}" fill="#090005" stroke="#000000" stroke-width="0.25" stroke-linecap="butt"/><path d="M388.6146,205.09788l-0.00922,0.76738l1.01448,0.11001c0,0 -0.3018,0.49928 -0.59405,0.62412c-0.31923,0.13636 -0.75207,0.16544 -1.08705,0.07437c-0.64339,-0.17492 -1.67943,-0.5643 -1.67943,-0.5643c0,0 0.79638,-0.15372 1.24721,-0.34824c0.45084,-0.19453 1.10806,-0.66334 1.10806,-0.66334z" data-paper-data="{&quot;index&quot;:null}" fill="#ececec" stroke="#000000" stroke-width="0.25" stroke-linecap="butt"/><path d="M384.43656,204.57024c0.11428,0.39337 0.3319,1.0764 0.3319,1.0764c0,0 -0.80075,-0.45978 -1.25498,-0.78083c-0.23649,-0.16715 -0.44766,-0.46108 -0.52947,-0.73889c-0.07489,-0.25434 0.18592,-0.50781 0.18592,-0.50781l0.50969,0.38842l0.5583,-0.3088c0,0 0.08434,0.47814 0.19862,0.87151z" data-paper-data="{&quot;index&quot;:null,&quot;origRot&quot;:0}" fill="#ececec" stroke="#000000" stroke-width="0.25" stroke-linecap="butt"/><path d="M388.04348,205.33598l-1.29598,-0.72104c0,0 0.20106,-0.39575 0.28347,-0.56967c0.08241,-0.17392 0.47078,-0.16176 0.71346,-0.04678c0,0 0.58755,0.29562 0.66688,0.50869c0.08798,0.23634 -0.36782,0.8288 -0.36782,0.8288z" data-paper-data="{&quot;origRot&quot;:0,&quot;index&quot;:null}" fill="#ececec" stroke="#000000" stroke-width="0.25" stroke-linecap="butt"/><path d="M381.22532,206.13796c0,0 0.22513,0.00325 0.32455,0.05027c0.10542,0.04986 0.16675,0.28533 0.16675,0.28533" data-paper-data="{&quot;index&quot;:null}" fill="none" stroke="#000000" stroke-width="0.25" stroke-linecap="round"/><path d="M382.38715,206.71392c0,0 0.10196,-0.22094 0.21453,-0.25139c0.10617,-0.02872 0.32832,0.00785 0.32832,0.00785" data-paper-data="{&quot;index&quot;:null}" fill="none" stroke="#000000" stroke-width="0.25" stroke-linecap="round"/><path d="M386.60084,225.41309c-2.10958,-0.1878 -10.70922,-0.83316 -15.24979,-1.93905c-6.02329,-1.46702 -8.46159,-3.22483 -8.46159,-3.22483l5.54529,-3.57312c0,0 2.82868,-0.36785 6.04428,-0.52636c3.20779,-0.15812 6.79345,-0.03849 9.21714,0.31875c5.60422,0.82604 16.48067,5.16123 16.48067,5.16123l3.47802,4.37176c0,0 -11.24837,-0.07155 -17.05402,-0.58838z" fill="url(#color-39)" stroke="none" stroke-width="0" stroke-linecap="butt"/><path d="M415.95112,224.59231c0,0 0.48535,1.64857 -0.36882,2.6352c-0.87458,1.0102 -2.48947,1.41238 -2.48947,1.41238c0,0 -2.23635,-0.01318 -3.53271,-0.34739c-1.63779,-0.42224 -5.94584,-2.30049 -5.94584,-2.30049l-3.49971,-4.33603z" fill="#312d7f" stroke="none" stroke-width="0" stroke-linecap="butt"/><path d="M368.72784,216.61835l-5.59358,3.59592c0,0 -0.48731,0.41055 -2.17394,0.53684c-1.33501,0.09996 -3.16225,0.16771 -3.16225,0.16771c0,0 -1.31192,-0.66274 -1.9943,-1.81154c-0.66646,-1.12199 -0.31671,-2.62684 -0.31671,-2.62684z" data-paper-data="{&quot;index&quot;:null}" fill="#372f86" stroke="none" stroke-width="0" stroke-linecap="butt"/></g></g></g></svg>