<svg version="1.1" xmlns="http://www.w3.org/2000/svg" xmlns:xlink="http://www.w3.org/1999/xlink" width="344.07409" height="159.1711" viewBox="0,0,344.07409,159.1711"><defs><linearGradient x1="299.17546" y1="88.48802" x2="299.17546" y2="146.48463" gradientUnits="userSpaceOnUse" id="color-1"><stop offset="0" stop-color="#36d900"/><stop offset="1" stop-color="#0ba600"/></linearGradient><linearGradient x1="126.623" y1="83.29026" x2="126.623" y2="141.82394" gradientUnits="userSpaceOnUse" id="color-2"><stop offset="0" stop-color="#0040ff"/><stop offset="1" stop-color="#1500a2"/></linearGradient><linearGradient x1="188.8624" y1="85.80477" x2="188.8624" y2="143.72792" gradientUnits="userSpaceOnUse" id="color-3"><stop offset="0" stop-color="#f6ff00"/><stop offset="1" stop-color="#ffde00"/></linearGradient><linearGradient x1="322.58406" y1="155.10295" x2="322.58406" y2="221.84279" gradientUnits="userSpaceOnUse" id="color-4"><stop offset="0" stop-color="#0040ff"/><stop offset="1" stop-color="#1500a2"/></linearGradient><linearGradient x1="119.25186" y1="156.22173" x2="119.25186" y2="221.08489" gradientUnits="userSpaceOnUse" id="color-5"><stop offset="0" stop-color="#ff0000"/><stop offset="1" stop-color="#be0000"/></linearGradient><linearGradient x1="248.27515" y1="88.88277" x2="248.27515" y2="141.97365" gradientUnits="userSpaceOnUse" id="color-6"><stop offset="0" stop-color="#ff0000"/><stop offset="1" stop-color="#be0000"/></linearGradient><linearGradient x1="246.76725" y1="104.29626" x2="246.76725" y2="112.85931" gradientUnits="userSpaceOnUse" id="color-7"><stop offset="0" stop-color="#000000"/><stop offset="1" stop-color="#1a1a1a"/></linearGradient><linearGradient x1="356.4958" y1="90.35018" x2="356.4958" y2="148.39768" gradientUnits="userSpaceOnUse" id="color-8"><stop offset="0" stop-color="#f6ff00"/><stop offset="1" stop-color="#ffde00"/></linearGradient><linearGradient x1="356.06896" y1="104.86207" x2="356.06896" y2="117.66667" gradientUnits="userSpaceOnUse" id="color-9"><stop offset="0" stop-color="#000000"/><stop offset="1" stop-color="#1a1a1a"/></linearGradient><linearGradient x1="198.83503" y1="158.25173" x2="198.83503" y2="221.19334" gradientUnits="userSpaceOnUse" id="color-10"><stop offset="0" stop-color="#36d900"/><stop offset="1" stop-color="#0ba600"/></linearGradient><linearGradient x1="270.43821" y1="155.12774" x2="270.43821" y2="225.16928" gradientUnits="userSpaceOnUse" id="color-11"><stop offset="0" stop-color="#f6ff00"/><stop offset="1" stop-color="#ffde00"/></linearGradient><linearGradient x1="269.92317" y1="172.63814" x2="269.92317" y2="188.08848" gradientUnits="userSpaceOnUse" id="color-12"><stop offset="0" stop-color="#000000"/><stop offset="1" stop-color="#1a1a1a"/></linearGradient><linearGradient x1="372.27582" y1="159.2678" x2="372.27582" y2="223.45279" gradientUnits="userSpaceOnUse" id="color-13"><stop offset="0" stop-color="#36d900"/><stop offset="1" stop-color="#0ba600"/></linearGradient><linearGradient x1="371.21491" y1="179.42507" x2="371.21491" y2="202.76506" gradientUnits="userSpaceOnUse" id="color-14"><stop offset="0" stop-color="#000000"/><stop offset="1" stop-color="#1a1a1a"/></linearGradient></defs><g transform="translate(-67.96296,-76.19476)"><g data-paper-data="{&quot;isPaintingLayer&quot;:true}" fill-rule="nonzero" stroke-linejoin="miter" stroke-miterlimit="10" stroke-dasharray="" stroke-dashoffset="0" style="mix-blend-mode: normal"><path d="M67.96296,219.59636l31.58935,-71.72611l12.16618,-1.24024l-18.04188,-13.50855l5.71464,-18.56738l-9.13074,-7.68605l18.24795,-26.21699l29.84588,-4.45628l14.38514,9.41331l0.51635,-6.7056l42.87541,4.30911l0.13672,9.3414l23.89586,4.98338l0.95339,-14.74916l39.67865,-0.49241l15.18404,11.5342l2.60835,-12.43146l47.96283,7.92754l31.34678,-5.78991l28.73588,15.55638l-1.29188,19.63658l-5.37401,6.79182l12.19418,16.30115l-15.86582,11.15871l18.02108,6.70472l17.71976,25.30334c0,0 -7.68164,33.83315 -10.16289,36.80147c-0.82708,0.98944 -28.36156,9.3914 -28.36156,9.3914l-32.13018,-11.5612l-4.99262,-12.26233l-2.78263,23.72189l-30.69239,1.09988l-1.79918,-6.59741l-23.01856,9.7843l-6.70256,-9.67347l-2.60184,5.62134l-32.06886,-4.93723l-30.51677,2.1476l-1.17882,-16.94812l-10.60371,1.74151l-5.70075,16.61694l-30.08298,-2.86258l-0.22802,-5.36611l-29.04541,9.52006l-2.88559,-23.21311l-6.33557,5.66723l-5.52639,-8.84435l-7.39454,20.32268z" fill="#000000" stroke="none" stroke-width="0" stroke-linecap="butt"/><path d="M276.6693,140.4253l6.92497,-51.93728l38.08734,6.92498l-1.73123,14.71555l-19.04367,-5.19372l-3.46248,6.92498l15.58119,3.46248v7.7906h-19.04366l-0.8656,10.38745l21.64053,-2.59689l1.73123,15.58118z" fill="url(#color-1)" stroke="#098c00" stroke-width="4" stroke-linecap="round"/><path d="M128.90945,105.24041l21.95013,10.97506l0.91459,14.63341l-7.31671,10.97506h-27.43765l-14.63341,-10.97506l5.48753,-11.88966l16.4626,7.31671l1.82917,-5.48753l-26.52309,-15.548l11.88966,-18.29177l25.60848,-3.65836l16.4626,10.06047l-6.40211,11.88966l-17.37718,-7.31671z" fill="url(#color-2)" stroke="#1500a2" stroke-width="4" stroke-linecap="round"/><path d="M158.81459,85.80477l30.94032,3.87714l-0.595,31.66328l5.95006,0.6462v-22.61663l23.80025,5.16951l-1.71324,27.8314l-10.78995,11.35224l-37.46842,-0.86578l-8.70297,-11.78858z" fill="url(#color-3)" stroke="#dcac00" stroke-width="4" stroke-linecap="round"/><path d="M309.56165,221.84279l4.34081,-66.73984l21.70401,5.9686l-8.68159,59.68603z" fill="url(#color-4)" stroke="#1500a2" stroke-width="4" stroke-linecap="round"/><path d="M80.86344,211.37749l23.8273,-55.15577l12.3549,2.20621l6.6187,15.44361l9.26617,-14.56111l14.11988,2.20623l10.58991,51.6258l-23.38607,7.94242l-3.52996,-30.00474l-8.38368,11.03116l-9.26617,-11.91365l-8.82491,24.70977z" fill="url(#color-5)" stroke="#9f0000" stroke-width="4" stroke-linecap="round"/><path d="M226.29666,141.97365l1.14174,-53.09088h30.82696l11.4174,8.56303l0.57086,21.12218l-11.41739,11.41739l-16.55522,1.71262l1.14174,10.27565z" fill="url(#color-6)" stroke="#9f0000" stroke-width="4" stroke-linecap="round"/><path d="M247.33813,112.85931l-5.13782,-0.57086v-7.99218l9.13391,1.71262z" fill="url(#color-7)" stroke="#9f0000" stroke-width="3" stroke-linecap="round"/><path d="M331.74023,143.27585l0.85364,-49.5111l24.75556,-3.41457l22.19464,11.95095l-1.70727,13.65823l-7.68277,10.24368l11.09734,13.65823l-17.0728,8.53641l-11.95095,-17.0728v13.65823z" fill="url(#color-8)" stroke="#dcac00" stroke-width="4" stroke-linecap="round"/><path d="M349.66666,117.66667v-12.8046l12.8046,2.56093l-1.70726,5.12184z" fill="url(#color-9)" stroke="#ffc600" stroke-width="3" stroke-linecap="round"/><path d="M165.46511,219.02296l18.44842,-60.77123l26.04481,1.08519l22.2466,59.14343l-18.991,1.6278l-2.17041,-17.36321l-22.24659,3.2556l-3.79821,15.1928z" fill="url(#color-10)" stroke="#098c00" stroke-width="4" stroke-linecap="round"/><path d="M189.33951,192.97817l3.79819,-15.73541l8.139,-1.62779l4.3408,16.278z" fill="#000000" stroke="#098c00" stroke-width="3" stroke-linecap="round"/><path d="M240.56754,218.98917l1.03002,-59.74132l29.87067,-4.12011l26.78059,14.42032l-2.06004,16.48036l-9.27021,12.36027l13.39032,16.48036l-20.60045,10.30023l-14.42033,-20.60045v16.48036z" fill="url(#color-11)" stroke="#dcac00" stroke-width="4" stroke-linecap="round"/><path d="M262.19802,188.08848v-15.45034l15.45033,3.09007l-2.06003,6.18013z" fill="url(#color-12)" stroke="#ffc600" stroke-width="3" stroke-linecap="round"/><path d="M346.28355,213.37416l-6.36546,-21.21818l16.97456,-32.88818l31.29683,4.7741l16.44409,22.80953l-8.48726,28.64455l-22.2791,7.95681z" fill="url(#color-13)" stroke="#098c00" stroke-width="4" stroke-linecap="round"/><path d="M370.68444,202.76506l-11.67,-9.54818l6.36546,-13.79181l14.85272,2.12182l3.18273,13.79181z" fill="url(#color-14)" stroke="#098c00" stroke-width="3" stroke-linecap="round"/></g></g></svg>