<svg version="1.1" xmlns="http://www.w3.org/2000/svg" xmlns:xlink="http://www.w3.org/1999/xlink" width="425.38921" height="185.82393" viewBox="0,0,425.38921,185.82393"><defs><linearGradient x1="206.19217" y1="219.6366" x2="206.19217" y2="298.00001" gradientUnits="userSpaceOnUse" id="color-1"><stop offset="0" stop-color="#9f8040"/><stop offset="1" stop-color="#7f6633"/></linearGradient><linearGradient x1="205.41671" y1="188.19864" x2="205.41671" y2="257.75976" gradientUnits="userSpaceOnUse" id="color-2"><stop offset="0" stop-color="#9f8040"/><stop offset="1" stop-color="#7f6633"/></linearGradient><radialGradient cx="58.95313" cy="264.3125" r="84.5" gradientUnits="userSpaceOnUse" id="color-3"><stop offset="0" stop-color="#00ff4c"/><stop offset="1" stop-color="#48983d"/></radialGradient><radialGradient cx="95.17969" cy="226.96875" r="11.25" gradientUnits="userSpaceOnUse" id="color-4"><stop offset="0" stop-color="#ff5858"/><stop offset="1" stop-color="#f73434"/></radialGradient><radialGradient cx="95.17969" cy="222.71875" r="5.75" gradientUnits="userSpaceOnUse" id="color-5"><stop offset="0" stop-color="#f78934"/><stop offset="1" stop-color="#f78934" stop-opacity="0"/></radialGradient></defs><g transform="translate(25.54688,-162.98857)"><g data-paper-data="{&quot;isPaintingLayer&quot;:true}" fill-rule="nonzero" stroke-linejoin="miter" stroke-miterlimit="10" stroke-dasharray="" stroke-dashoffset="0" style="mix-blend-mode: normal"><path d="M399.84234,246.24756c0,45.98267 -22.82953,54.57644 -50.99115,54.57644c-28.16162,0 -50.99113,-8.59378 -50.99113,-54.57644c0,-45.98267 22.82951,-83.25899 50.99113,-83.25899c28.16162,0 50.99115,37.27633 50.99115,83.25899z" fill="#99a6ff" stroke="none" stroke-width="0" stroke-linecap="butt"/><path d="M349.05038,282.69825c0,-17.60102 17.85375,-29.47925 35.45477,-29.47925c8.9002,0 14.3645,11.12463 14.3645,11.12463c0,0 0.60597,11.10769 -9.21053,24.46685c-9.42833,12.83091 -31.05558,11.59401 -31.05558,11.59401c0,0 -9.55316,-6.92955 -9.55316,-17.70624z" fill="#0021ff" stroke="none" stroke-width="0" stroke-linecap="butt"/><path d="M303.07056,212.15688c0,0 5.39372,-1.56329 8.33401,-1.56329c12.65073,0 22.90618,10.25544 22.90618,22.90617c0,12.65073 -10.25545,22.90619 -22.90618,22.90619c-5.28863,0 -12.84067,-4.00588 -12.84067,-4.00588c0,0 -2.38996,-8.07627 -1.24442,-21.30871c1.26601,-14.62398 5.75108,-18.93447 5.75108,-18.93447z" fill="#0021ff" stroke="none" stroke-width="0" stroke-linecap="butt"/><path d="M347.45691,192.66702c0,-11.68329 19.23386,-23.77152 19.23386,-23.77152c0,0 9.04751,3.3127 15.89383,12.96212c6.63977,9.35833 10.57244,22.33309 10.57244,22.33309c0,0 -12.14879,12.77678 -21.39966,12.77678c-13.42078,0 -24.30047,-10.87969 -24.30047,-24.30047z" fill="#0021ff" stroke="none" stroke-width="0" stroke-linecap="butt"/><path d="M197.30559,298.00001v-78.36341h17.77315v78.36341z" fill="url(#color-1)" stroke="#3e3119" stroke-width="2" stroke-linecap="butt"/><path d="M166.11474,257.75976l-9.90581,-54.96251l13.29335,2.94395l13.59937,-5.36789l14.44663,1.84264l16.59986,-8.08267l15.39788,2.38276l15.17267,-8.31738l9.90581,54.96251l-12.24734,0.35976l-12.7786,6.06997l-13.81883,-1.38163l-18.60454,5.98537l-14.78142,-2.22813z" data-paper-data="{&quot;origRot&quot;:0}" fill="url(#color-2)" stroke="#3e3119" stroke-width="2" stroke-linecap="butt"/><path d="M175.00004,230.00001l56.5,-11.5" fill="none" stroke="#3e3119" stroke-width="7.5" stroke-linecap="round"/><path d="M211.50004,205.75001l24.41283,12.36158v0l-18.41282,20.13842" fill="none" stroke="#3e3119" stroke-width="7.5" stroke-linecap="round"/><path d="M-25.54687,264.3125c0,-46.66806 37.83194,-84.5 84.5,-84.5c46.66806,0 84.5,37.83194 84.5,84.5c0,46.66806 -37.83194,84.5 -84.5,84.5c-46.66806,0 -84.5,-37.83194 -84.5,-84.5z" fill="url(#color-3)" stroke="none" stroke-width="0" stroke-linecap="butt"/><path d="M71.18189,215.62788c0.02412,-0.52753 0.31201,-3.67543 3.74779,-3.67543c3.75,0 3.75,3.75 3.75,3.75l-0.57001,2.9875c-4.35971,6.97502 -8.31715,14.09449 -11.77015,21.57311c-1.01285,2.19367 -2.91724,9.45802 -6.68896,10.11946c-3.30542,0.57966 -9.11665,-5.14315 -10.63638,-6.82159c-2.52154,-2.78489 -3.95794,-6.40183 -5.6,-9.7808c-3.43383,-7.06604 -5.2231,-13.77136 -5.2345,-21.57766c0,0 0,-3.75 3.75,-3.75c3.75,0 3.75,3.75 3.75,3.75c-0.01542,9.31649 3.55933,16.57733 8.06876,24.60704c0.37725,0.67174 0.5774,1.46542 1.09674,2.03449c0.61905,0.67835 1.91992,1.56916 2.81785,2.37436c0.51822,-1.39318 1.2355,-2.72454 1.85681,-4.0765c1.06191,-2.3107 2.27248,-4.55014 3.40984,-6.82465c2.54501,-5.08956 5.27274,-9.87536 8.25221,-14.68932z" fill="#13ae37" stroke="none" stroke-width="0.5" stroke-linecap="butt"/><path d="M23.68189,250.62788c0.02412,-0.52754 0.31202,-3.67543 3.74779,-3.67543c3.75,0 3.75,3.75 3.75,3.75l-0.57001,2.9875c-4.35971,6.97502 -8.31715,14.09449 -11.77015,21.57311c-1.01286,2.19367 -2.91724,9.45801 -6.68897,10.11946c-3.30541,0.57966 -9.11666,-5.14315 -10.63638,-6.8216c-2.52154,-2.7849 -3.95795,-6.40183 -5.59999,-9.7808c-3.43382,-7.06604 -5.22309,-13.77137 -5.2345,-21.57767c0,0 0,-3.75 3.75,-3.75c3.75,0 3.75,3.75 3.75,3.75c-0.01542,9.31649 3.55932,16.57733 8.06876,24.60704c0.37725,0.67174 0.57741,1.46542 1.09674,2.03449c0.61905,0.67835 1.91992,1.56916 2.81785,2.37436c0.51823,-1.39318 1.23549,-2.72454 1.85681,-4.0765c1.06191,-2.3107 2.27248,-4.55014 3.40984,-6.82466c2.54502,-5.08956 5.27273,-9.87535 8.25221,-14.68931z" fill="#13ae37" stroke="none" stroke-width="0.5" stroke-linecap="butt"/><path d="M108.1819,256.62788c0.02412,-0.52754 0.31202,-3.67543 3.74779,-3.67543c3.75,0 3.75,3.75 3.75,3.75l-0.57001,2.9875c-4.3597,6.97501 -8.31715,14.09449 -11.77015,21.57311c-1.01286,2.19367 -2.91724,9.45801 -6.68896,10.11946c-3.30541,0.57966 -9.11665,-5.14315 -10.63638,-6.8216c-2.52154,-2.7849 -3.95794,-6.40183 -5.6,-9.7808c-3.43382,-7.06604 -5.2231,-13.77137 -5.2345,-21.57767c0,0 0,-3.75 3.75,-3.75c3.75,0 3.75,3.75 3.75,3.75c-0.01542,9.31649 3.55933,16.57733 8.06876,24.60705c0.37725,0.67174 0.5774,1.46542 1.09674,2.03449c0.61905,0.67834 1.91992,1.56915 2.81785,2.37435c0.51823,-1.39318 1.2355,-2.72454 1.85681,-4.0765c1.06191,-2.3107 2.27248,-4.55014 3.40984,-6.82465c2.54502,-5.08956 5.27274,-9.87536 8.25221,-14.68932z" fill="#13ae37" stroke="none" stroke-width="0.5" stroke-linecap="butt"/><path d="M60.6819,287.12788c0.02412,-0.52754 0.31202,-3.67543 3.74779,-3.67543c3.75,0 3.75,3.75 3.75,3.75l-0.57001,2.9875c-4.35971,6.97501 -8.31715,14.09449 -11.77015,21.57311c-1.01286,2.19367 -2.91724,9.45801 -6.68896,10.11946c-3.30541,0.57966 -9.11666,-5.14315 -10.63638,-6.8216c-2.52154,-2.7849 -3.95794,-6.40183 -5.59999,-9.7808c-3.43382,-7.06604 -5.2231,-13.77137 -5.2345,-21.57767c0,0 0,-3.75 3.75,-3.75c3.75,0 3.75,3.75 3.75,3.75c-0.01542,9.31649 3.55933,16.57733 8.06876,24.60705c0.37725,0.67174 0.5774,1.46542 1.09674,2.03449c0.61905,0.67834 1.91991,1.56915 2.81785,2.37435c0.51823,-1.39318 1.2355,-2.72454 1.85681,-4.0765c1.06191,-2.3107 2.27248,-4.55014 3.40984,-6.82465c2.54502,-5.08956 5.27273,-9.87536 8.25221,-14.68932z" fill="#13ae37" stroke="none" stroke-width="0.5" stroke-linecap="butt"/><path d="M83.92969,226.96875c0,-6.2132 5.0368,-11.25 11.25,-11.25c6.2132,0 11.25,5.0368 11.25,11.25c0,6.2132 -5.0368,11.25 -11.25,11.25c-6.2132,0 -11.25,-5.0368 -11.25,-11.25z" fill="url(#color-4)" stroke="none" stroke-width="0" stroke-linecap="butt"/><path d="M89.42969,222.71875c0,-3.17564 2.57436,-5.75 5.75,-5.75c3.17564,0 5.75,2.57436 5.75,5.75c0,3.17564 -2.57436,5.75 -5.75,5.75c-3.17564,0 -5.75,-2.57436 -5.75,-5.75z" fill="url(#color-5)" stroke="none" stroke-width="0" stroke-linecap="butt"/><path d="M100.59475,203.40037c0.69338,1.04006 -0.34669,1.73344 -0.34669,1.73344l-0.4943,0.27343c-3.63798,4.20788 -3.69907,10.09965 -3.69907,15.43651c0,0 0,1.25 -1.25,1.25c-1.25,0 -1.25,-1.25 -1.25,-1.25c0,-6.00955 0.25815,-12.31108 4.30093,-17.06349l1.0057,-0.72657c0,0 1.04006,-0.69338 1.73344,0.34669z" fill="#13ae37" stroke="none" stroke-width="0.5" stroke-linecap="butt"/><path d="M147.71629,277.99597c0,14.17823 -7.03922,16.82803 -15.72254,16.82803c-8.68332,0 -15.72254,-2.6498 -15.72254,-16.82803c0,-14.17823 7.03922,-25.67197 15.72254,-25.67197c8.68332,0 15.72254,11.49373 15.72254,25.67197z" fill="#fff6bc" stroke="none" stroke-width="0" stroke-linecap="butt"/><path d="M132.05516,289.23513c0,-5.42708 5.50501,-9.0896 10.93208,-9.0896c2.74427,0 4.42913,3.43016 4.42913,3.43016c0,0 -0.42983,2.80825 -3.45664,6.9274c-2.90712,3.95627 -8.95896,4.19156 -8.95896,4.19156c0,0 -2.94561,-2.13665 -2.94561,-5.45952z" fill="#ffdd00" stroke="none" stroke-width="0" stroke-linecap="butt"/><path d="M117.8778,267.4845c0,0 1.66309,-0.48202 2.5697,-0.48202c3.90071,0 7.06286,3.16215 7.06286,7.06286c0,3.90071 -3.16215,7.06286 -7.06286,7.06286c-1.63069,0 -3.95928,-1.23517 -3.95928,-1.23517c0,0 -0.73692,-2.49022 -0.3837,-6.5703c0.39036,-4.50914 1.77328,-5.83823 1.77328,-5.83823z" fill="#ffdd00" stroke="none" stroke-width="0" stroke-linecap="butt"/><path d="M131.56383,261.47502c0,-3.60241 5.93055,-7.32968 5.93055,-7.32968c0,0 2.7897,1.02143 4.90068,3.99672c2.0473,2.88553 3.25989,6.88616 3.25989,6.88616c0,0 -3.74595,3.93957 -6.59834,3.93957c-4.13815,0 -7.49277,-3.35463 -7.49277,-7.49277z" fill="#ffdd00" stroke="none" stroke-width="0" stroke-linecap="butt"/><path d="M343.30294,262.5785c0,30.53817 -15.16162,36.24551 -33.86443,36.24551c-18.7028,0 -33.86442,-5.70733 -33.86442,-36.24551c0,-30.53817 15.16161,-55.29426 33.86442,-55.29426c18.7028,0 33.86443,24.75609 33.86443,55.29426z" fill="#ff9898" stroke="none" stroke-width="0" stroke-linecap="butt"/><path d="M309.57081,286.78627c0,-11.68925 11.8571,-19.57787 23.54635,-19.57787c5.91083,0 9.5398,7.38813 9.5398,7.38813c0,0 -0.9258,6.04864 -7.44518,14.92077c-6.26158,8.52131 -19.2965,9.0281 -19.2965,9.0281c0,0 -6.34448,-4.60208 -6.34448,-11.75913z" fill="#ff0000" stroke="none" stroke-width="0" stroke-linecap="butt"/><path d="M279.03452,239.93808c0,0 3.5821,-1.03822 5.53482,-1.03822c8.40165,0 15.21253,6.81088 15.21253,15.21253c0,8.40165 -6.81088,15.21254 -15.21253,15.21254c-3.51231,0 -8.52779,-2.6604 -8.52779,-2.6604c0,0 -1.58723,-5.36364 -0.82645,-14.15162c0.84079,-9.71213 3.81943,-12.57483 3.81943,-12.57483z" fill="#ff0000" stroke="none" stroke-width="0" stroke-linecap="butt"/><path d="M308.51254,226.9944c0,-7.75915 12.77366,-15.78723 12.77366,-15.78723c0,0 6.00866,2.20005 10.55546,8.60845c4.40963,6.21509 7.02141,14.83193 7.02141,14.83193c0,0 -8.0683,8.48536 -14.21202,8.48536c-8.91305,0 -16.13851,-7.22546 -16.13851,-16.13851z" fill="#ff0000" stroke="none" stroke-width="0" stroke-linecap="butt"/></g></g></svg>