<svg version="1.1" xmlns="http://www.w3.org/2000/svg" xmlns:xlink="http://www.w3.org/1999/xlink" width="445.65479" height="267.8913" viewBox="0,0,445.65479,267.8913"><g transform="translate(-6.90312,-128.2962)"><g data-paper-data="{&quot;isPaintingLayer&quot;:true}" fill-rule="nonzero" stroke-linecap="butt" stroke-linejoin="miter" stroke-miterlimit="10" stroke-dasharray="" stroke-dashoffset="0" style="mix-blend-mode: normal"><path d="M8.44896,394.6875v-127.1875h135.60894v127.1875z" fill="#6b6b6b" stroke="#211502" stroke-width="3"/><path d="M45.47163,312.0424l4.3713,5.76313l-13.311,2.49491l-4.37129,-5.76313z" data-paper-data="{&quot;index&quot;:null}" fill="#3c3c3c" stroke="none" stroke-width="0"/><path d="M125.07365,290.00748l-7.7057,7.29805l-13.84748,-8.36469l7.70571,-7.29805z" data-paper-data="{&quot;index&quot;:null}" fill="#3c3c3c" stroke="none" stroke-width="0"/><path d="M8.40312,265.7962v-13h32.2622v13z" fill="#444444" stroke="#000000" stroke-width="3"/><path d="M42.62061,265.7962v-13h32.2622v13z" fill="#444444" stroke="#000000" stroke-width="3"/><path d="M77.32692,265.7962v-13h32.2622v13z" fill="#444444" stroke="#000000" stroke-width="3"/><path d="M112.03322,265.7962v-13h32.2622v13z" fill="#444444" stroke="#000000" stroke-width="3"/><path d="M114.07366,341.00748l-7.7057,7.29805l-13.84748,-8.36469l7.70571,-7.29805z" data-paper-data="{&quot;index&quot;:null}" fill="#3c3c3c" stroke="none" stroke-width="0"/><path d="M214.44897,394.6875v-197.1875h66.60894v197.1875z" fill="#6b6b6b" stroke="#211502" stroke-width="3"/><path d="M251.47164,242.0424l4.3713,5.76313l-13.311,2.49491l-4.37129,-5.76313z" data-paper-data="{&quot;index&quot;:null}" fill="#3c3c3c" stroke="none" stroke-width="0"/><path d="M214.40313,195.7962v-13h32.2622v13z" fill="#444444" stroke="#000000" stroke-width="3"/><path d="M248.62062,195.7962v-13h32.2622v13z" fill="#444444" stroke="#000000" stroke-width="3"/><path d="M265.07367,279.00748l-7.7057,7.29805l-13.84748,-8.36469l7.70571,-7.29805z" data-paper-data="{&quot;index&quot;:null}" fill="#3c3c3c" stroke="none" stroke-width="0"/><path d="M260.69127,339.23151l-3.8048,-9.90772l13.01639,-9.60699l3.80479,9.90773z" data-paper-data="{&quot;index&quot;:null}" fill="#3c3c3c" stroke="none" stroke-width="0"/><path d="M384.40314,380.875v-236.375h66.60894v236.375z" data-paper-data="{&quot;index&quot;:null}" fill="#6b6b6b" stroke="#211502" stroke-width="3"/><path d="M434.30039,205.53731l-4.37129,5.76313l-13.311,-2.49491l4.3713,-5.76313z" data-paper-data="{&quot;index&quot;:null}" fill="#3c3c3c" stroke="none" stroke-width="0"/><path d="M418.79571,142.7962v-13h32.2622v13z" data-paper-data="{&quot;index&quot;:null}" fill="#444444" stroke="#000000" stroke-width="3"/><path d="M384.57822,142.7962v-13h32.2622v13z" data-paper-data="{&quot;index&quot;:null}" fill="#444444" stroke="#000000" stroke-width="3"/><path d="M412.23486,254.64279l7.70571,7.29805l-13.84748,8.36469l-7.7057,-7.29805z" data-paper-data="{&quot;index&quot;:null}" fill="#3c3c3c" stroke="none" stroke-width="0"/><path d="M403.75339,314.62453l3.80479,-9.90773l13.01639,9.60699l-3.8048,9.90772z" data-paper-data="{&quot;index&quot;:null}" fill="#3c3c3c" stroke="none" stroke-width="0"/></g></g></svg>