<svg version="1.1" xmlns="http://www.w3.org/2000/svg" xmlns:xlink="http://www.w3.org/1999/xlink" width="506" height="376" viewBox="0,0,506,376"><defs><linearGradient x1="240" y1="101.14491" x2="240" y2="258.85509" gradientUnits="userSpaceOnUse" id="color-1"><stop offset="0" stop-color="#58fffc"/><stop offset="1" stop-color="#c7fffc"/></linearGradient><linearGradient x1="240.24698" y1="100.35935" x2="240.24698" y2="258.06954" gradientUnits="userSpaceOnUse" id="color-2"><stop offset="0" stop-color="#58fffc"/><stop offset="1" stop-color="#c7fffc"/></linearGradient><linearGradient x1="168.50836" y1="137.893" x2="168.50836" y2="239.13054" gradientUnits="userSpaceOnUse" id="color-3"><stop offset="0" stop-color="#ff83f5"/><stop offset="1" stop-color="#ffcbfb"/></linearGradient><linearGradient x1="203.92505" y1="119.99083" x2="203.92505" y2="247.078" gradientUnits="userSpaceOnUse" id="color-4"><stop offset="0" stop-color="#ffd53c"/><stop offset="1" stop-color="#f4ff9d"/></linearGradient><linearGradient x1="240.34206" y1="211.43226" x2="240.34206" y2="238.49189" gradientUnits="userSpaceOnUse" id="color-5"><stop offset="0" stop-color="#17ff22"/><stop offset="1" stop-color="#02d10c"/></linearGradient></defs><g transform="translate(13,8)"><g data-paper-data="{&quot;isPaintingLayer&quot;:true}" fill-rule="nonzero" stroke-linejoin="miter" stroke-miterlimit="10" stroke-dasharray="" stroke-dashoffset="0" style="mix-blend-mode: normal"><path d="M-12,367v-374h504v374z" fill="#000000" stroke="#000000" stroke-width="2" stroke-linecap="butt"/><path d="M131.18686,258.85509v-157.71019h217.62629v157.71019z" fill="url(#color-1)" stroke="#ffffff" stroke-width="10" stroke-linecap="butt"/><path d="M131.43384,258.06954v-157.71019h217.62629v157.71019z" fill="url(#color-2)" stroke="none" stroke-width="NaN" stroke-linecap="butt"/><path d="M191.23516,188.51177c0,27.95598 -10.17513,50.61877 -22.7268,50.61877c-12.55167,0 -22.7268,-22.66279 -22.7268,-50.61877c0,-27.95598 -0.14602,-49.96945 22.7268,-50.61877c24.25941,-0.68869 22.7268,22.66279 22.7268,50.61877z" fill="url(#color-3)" stroke="none" stroke-width="0" stroke-linecap="butt"/><path d="M148.24705,153.8922c0,0 3.08706,-1.31208 4.85901,-1.31208c5.32495,0 9.64167,4.31672 9.64167,9.64167c0,5.32495 -4.31672,9.64167 -9.64167,9.64167c-2.71933,0 -6.92854,-2.93666 -6.92854,-2.93666c0,0 -0.01739,-5.10633 0.32372,-7.58443c0.34857,-2.53225 1.74582,-7.45016 1.74582,-7.45016z" fill="#ffb8f9" stroke="none" stroke-width="0" stroke-linecap="butt"/><path d="M170.66768,182.76773c0,-6.78297 5.49869,-12.28165 12.28165,-12.28165c3.39149,0 8.68444,3.59721 8.68444,3.59721l-0.34927,17.70472c0,0 -5.11796,3.26138 -8.33517,3.26138c-6.78297,0 -12.28165,-5.49869 -12.28165,-12.28165z" fill="#ffb8f9" stroke="none" stroke-width="0" stroke-linecap="butt"/><path d="M232.45483,183.53442c0,35.09415 -12.77322,63.54359 -28.52977,63.54359c-15.75656,0 -28.52977,-28.44943 -28.52977,-63.54359c0,-35.09415 -0.1833,-62.72847 28.52977,-63.54359c30.45372,-0.86454 28.52977,28.44943 28.52977,63.54359z" data-paper-data="{&quot;index&quot;:null}" fill="url(#color-4)" stroke="none" stroke-width="0" stroke-linecap="butt"/><path d="M178.49028,140.07521c0,0 3.8753,-1.6471 6.09969,-1.6471c6.6846,0 12.10354,5.41894 12.10354,12.10354c0,6.6846 -5.41894,12.10354 -12.10354,12.10354c-3.41367,0 -8.69766,-3.6865 -8.69766,-3.6865c0,0 -0.02184,-6.41015 0.40638,-9.52102c0.43756,-3.17883 2.19159,-9.35246 2.19159,-9.35246z" data-paper-data="{&quot;index&quot;:null}" fill="#f6f7a0" stroke="none" stroke-width="0" stroke-linecap="butt"/><path d="M206.63571,176.32372c0,-8.51491 6.90269,-15.4176 15.4176,-15.4176c4.25746,0 10.9019,4.51571 10.9019,4.51571l-0.43845,22.22537c0,0 -6.42477,4.09413 -10.46344,4.09413c-8.51491,0 -15.4176,-6.9027 -15.4176,-15.41761z" data-paper-data="{&quot;index&quot;:null}" fill="#f6f7a0" stroke="none" stroke-width="0" stroke-linecap="butt"/><path d="M175.62433,185.11504c0,0 5.17252,-3.17182 8.38929,-3.17182c7.00291,0 12.6799,5.67699 12.6799,12.6799c0,7.00291 -5.67699,12.6799 -12.6799,12.6799c-2.35178,0 -6.44192,-1.75597 -6.44192,-1.75597c0,0 -1.50141,-6.6821 -1.82347,-10.06125c-0.32699,-3.43073 -0.1239,-10.37076 -0.1239,-10.37076z" data-paper-data="{&quot;index&quot;:null}" fill="#f6f7a0" stroke="none" stroke-width="0" stroke-linecap="butt"/><path d="M145.96403,189.77089c0,0 4.12042,-2.52667 6.6829,-2.52667c5.57852,0 10.1008,4.52228 10.1008,10.1008c0,5.57852 -4.52228,10.1008 -10.1008,10.1008c-1.87343,0 -5.13164,-1.3988 -5.13164,-1.3988c0,0 -1.19602,-5.32296 -1.45257,-8.01479c-0.26047,-2.73292 -0.09869,-8.26134 -0.09869,-8.26134z" fill="#ffd4fb" stroke="none" stroke-width="0" stroke-linecap="butt"/><path d="M130.30934,259.64065v-32.36847h218.74278v32.36847z" fill="#98763d" stroke="none" stroke-width="0" stroke-linecap="butt"/><path d="M130.99345,229.9534v-18.52114h218.69722v18.52114l-12.20179,1.21021l-19.86734,7.32826l-19.32076,-8.26332l-18.39137,7.14734l-18.40241,-7.35501l-19.60586,5.6643l-18.24912,-6.4773l-25.99404,8.60404l-19.28928,-9.09698l-25.40161,7.41217z" fill="url(#color-5)" stroke="#08a310" stroke-width="3" stroke-linecap="butt"/><path d="M271.64535,235.63157l7.06193,12.40653l-0.14719,11.20345l-10.09503,-9.55739l-2.97952,-10.26534z" data-paper-data="{&quot;index&quot;:null}" fill="#774b00" stroke="#703100" stroke-width="2" stroke-linecap="round"/><path d="M158.5835,247.48263l-5.29202,-9.1099l3.61147,-2.66869l10.06291,10.98313l0.69604,5.09825z" data-paper-data="{&quot;index&quot;:null}" fill="#774b00" stroke="#703100" stroke-width="2" stroke-linecap="round"/><path d="M211.9769,254.09344l-2.87828,-2.21874l3.87264,-6.2534l6.83472,-1.32289l-0.45906,3.70112z" data-paper-data="{&quot;index&quot;:null}" fill="#774b00" stroke="#703100" stroke-width="2" stroke-linecap="round"/><path d="M320.70008,241.29733l6.6957,6.95006l-1.47094,6.23563l-10.5214,-5.38287l-2.24063,-5.73282z" data-paper-data="{&quot;index&quot;:null}" fill="#774b00" stroke="#703100" stroke-width="2" stroke-linecap="round"/><path d="M124.79688,62.40625l4.33333,-10l10.66667,-5.66667l10.16668,0.66667l-0.01856,8.74583l-8.08064,-1.26521l-6.00311,4.3381l-0.01068,6.79425l8.08818,2.8304l5.12196,-5.55279l2.90284,9.27609l-14.39128,4.63075z" fill="#ffffff" stroke="#303030" stroke-width="2" stroke-linecap="butt"/><path d="M155.14584,75.54452l7.60623,-28.35048h9.91115l9.21966,29.50295l-6.65064,-0.9624l-2.9373,-6.47762l-9.33586,2.28756l-1.82315,6.48109z" fill="#ffffff" stroke="#303030" stroke-width="2" stroke-linecap="butt"/><path d="M163.40452,65.05894l2.34394,-10.71967l2.91836,0.30852l2.61344,8.5282z" fill="#ffffff" stroke="#303030" stroke-width="2.5" stroke-linecap="butt"/><path d="M188.56696,78.20625v-31.1l8.79334,3.07333l-1.03578,18.94853l13.93713,-2.35875l0.5196,9.06737z" fill="#ffffff" stroke="#303030" stroke-width="2" stroke-linecap="butt"/><path d="M214.82138,76.65005l7.84685,-28.06757l5.7138,-0.22262l2.69761,9.482l5.73253,-9.15544l7.28398,-0.10395l4.22523,26.25676l-6.85528,3.753l-6.15881,-16.28404l-3.70184,6.87195l-4.20886,-6.3936l-4.14319,15.1338z" fill="#ffffff" stroke="#303030" stroke-width="2" stroke-linecap="butt"/><path d="M265.76762,75.21752l4.54119,-7.31001l6.58859,6.01042l3.47123,-3.96013l-11.95441,-7.65651l0.53664,-11.53798l10.19635,-4.02488l10.733,6.70813l-1,8.47644l-12.14792,-8.20813l-1.72861,6.23292l13.47929,6.88372l0.50602,4.87011l-5.01192,7.77245l-11.00785,0.28469z" fill="#ffffff" stroke="#303030" stroke-width="2" stroke-linecap="butt"/><path d="M294.80653,80.49318l2.69107,-34.08693l7.17619,1.34554v8.52173l10.76429,-8.52173l4.7679,7.896l-14.49571,8.10615l13.52285,10.69003l-5.66372,6.80642l-10.26511,-11.16245l-0.42454,10.40524z" fill="#ffffff" stroke="#303030" stroke-width="2" stroke-linecap="butt"/><path d="M334.33335,80.90625v-17l-10.5,-10.5l6.99999,-5l7.50001,7.5l7.99999,-8l8.63282,6.09375l-12.63281,9.40625l1,17.5z" fill="#ffffff" stroke="#303030" stroke-width="2" stroke-linecap="butt"/></g></g></svg>