<svg version="1.1" xmlns="http://www.w3.org/2000/svg" xmlns:xlink="http://www.w3.org/1999/xlink" width="257.96761" height="153.1505" viewBox="0,0,257.96761,153.1505"><defs><linearGradient x1="350.61039" y1="173.77607" x2="350.61039" y2="205.43364" gradientUnits="userSpaceOnUse" id="color-1"><stop offset="0" stop-color="#d21515"/><stop offset="1" stop-color="#940000"/></linearGradient><linearGradient x1="336.831" y1="213.48466" x2="336.831" y2="249.61714" gradientUnits="userSpaceOnUse" id="color-2"><stop offset="0" stop-color="#364ec7"/><stop offset="1" stop-color="#001371"/></linearGradient><linearGradient x1="334.54124" y1="243.49986" x2="334.54124" y2="258.68518" gradientUnits="userSpaceOnUse" id="color-3"><stop offset="0" stop-color="#a6680a"/><stop offset="1" stop-color="#6c4306"/></linearGradient><linearGradient x1="330.07517" y1="162.58105" x2="330.07517" y2="221.78101" gradientUnits="userSpaceOnUse" id="color-4"><stop offset="0" stop-color="#364ec7"/><stop offset="1" stop-color="#001371"/></linearGradient><linearGradient x1="331.66483" y1="167.89431" x2="331.66483" y2="188.4161" gradientUnits="userSpaceOnUse" id="color-5"><stop offset="0" stop-color="#d21515"/><stop offset="1" stop-color="#940000"/></linearGradient><linearGradient x1="330.51095" y1="127.59665" x2="330.51095" y2="178.2091" gradientUnits="userSpaceOnUse" id="color-6"><stop offset="0" stop-color="#ffefc0"/><stop offset="1" stop-color="#e0ce98"/></linearGradient><linearGradient x1="330.63481" y1="108.66052" x2="330.63481" y2="142.57001" gradientUnits="userSpaceOnUse" id="color-7"><stop offset="0" stop-color="#d21515"/><stop offset="1" stop-color="#940000"/></linearGradient><linearGradient x1="348.24889" y1="129.05436" x2="348.24889" y2="136.71789" gradientUnits="userSpaceOnUse" id="color-8"><stop offset="0" stop-color="#d21515"/><stop offset="1" stop-color="#940000"/></linearGradient><linearGradient x1="356.99924" y1="150.17124" x2="356.99924" y2="166.88114" gradientUnits="userSpaceOnUse" id="color-9"><stop offset="0" stop-color="#ffefc0"/><stop offset="1" stop-color="#e0ce98"/></linearGradient><linearGradient x1="307.75291" y1="142.50648" x2="307.75291" y2="153.81043" gradientUnits="userSpaceOnUse" id="color-10"><stop offset="0" stop-color="#ffefc0"/><stop offset="1" stop-color="#e0ce98"/></linearGradient><linearGradient x1="320.98411" y1="213.92098" x2="320.98411" y2="248.73425" gradientUnits="userSpaceOnUse" id="color-11"><stop offset="0" stop-color="#364ec7"/><stop offset="1" stop-color="#001371"/></linearGradient><linearGradient x1="328.20274" y1="240.39959" x2="328.20274" y2="256.10358" gradientUnits="userSpaceOnUse" id="color-12"><stop offset="0" stop-color="#a6680a"/><stop offset="1" stop-color="#6c4306"/></linearGradient><linearGradient x1="309.87409" y1="173.75059" x2="309.87409" y2="205.9989" gradientUnits="userSpaceOnUse" id="color-13"><stop offset="0" stop-color="#d21515"/><stop offset="1" stop-color="#940000"/></linearGradient><linearGradient x1="169.92578" y1="171.14916" x2="166.42847" y2="200.4418" gradientUnits="userSpaceOnUse" id="color-14"><stop offset="0" stop-color="#20de16"/><stop offset="1" stop-color="#158e0e"/></linearGradient><linearGradient x1="162.61824" y1="215.03991" x2="154.07303" y2="249.0858" gradientUnits="userSpaceOnUse" id="color-15"><stop offset="0" stop-color="#364ec7"/><stop offset="1" stop-color="#001371"/></linearGradient><linearGradient x1="159.04405" y1="243.71951" x2="155.81603" y2="256.58061" gradientUnits="userSpaceOnUse" id="color-16"><stop offset="0" stop-color="#a6680a"/><stop offset="1" stop-color="#6c4205"/></linearGradient><linearGradient x1="151.0723" y1="165.03962" x2="151.0723" y2="222.49885" gradientUnits="userSpaceOnUse" id="color-17"><stop offset="0" stop-color="#364ec7"/><stop offset="1" stop-color="#001371"/></linearGradient><linearGradient x1="152.51259" y1="169.15323" x2="152.51259" y2="189.46896" gradientUnits="userSpaceOnUse" id="color-18"><stop offset="0" stop-color="#20de16"/><stop offset="1" stop-color="#158e0e"/></linearGradient><linearGradient x1="140.62943" y1="214.60807" x2="151.46645" y2="247.73942" gradientUnits="userSpaceOnUse" id="color-19"><stop offset="0" stop-color="#364ec7"/><stop offset="1" stop-color="#001371"/></linearGradient><linearGradient x1="149.99819" y1="242.99619" x2="154.00794" y2="255.25494" gradientUnits="userSpaceOnUse" id="color-20"><stop offset="0" stop-color="#a6680a"/><stop offset="1" stop-color="#6c4205"/></linearGradient><linearGradient x1="128.98389" y1="170.94346" x2="137.08531" y2="197.65165" gradientUnits="userSpaceOnUse" id="color-21"><stop offset="0" stop-color="#20de16"/><stop offset="1" stop-color="#158e0e"/></linearGradient><linearGradient x1="152.3245" y1="122.87547" x2="152.3245" y2="174.39879" gradientUnits="userSpaceOnUse" id="color-22"><stop offset="0" stop-color="#ffefc0"/><stop offset="1" stop-color="#e0ce98"/></linearGradient><linearGradient x1="151.28018" y1="106.50884" x2="151.28018" y2="137.96921" gradientUnits="userSpaceOnUse" id="color-23"><stop offset="0" stop-color="#20de16"/><stop offset="1" stop-color="#158e0e"/></linearGradient><linearGradient x1="165.24264" y1="125.15134" x2="165.24264" y2="132.87648" gradientUnits="userSpaceOnUse" id="color-24"><stop offset="0" stop-color="#20de16"/><stop offset="1" stop-color="#158e0e"/></linearGradient><linearGradient x1="175.78201" y1="145.63153" x2="175.78201" y2="162.72777" gradientUnits="userSpaceOnUse" id="color-25"><stop offset="0" stop-color="#ffefc0"/><stop offset="1" stop-color="#e0ce98"/></linearGradient></defs><g transform="translate(-114.90571,-106.00883)"><g data-paper-data="{&quot;isPaintingLayer&quot;:true}" fill-rule="nonzero" stroke-linejoin="miter" stroke-miterlimit="10" stroke-dasharray="" stroke-dashoffset="0" style="mix-blend-mode: normal"><g data-paper-data="{&quot;origPos&quot;:null,&quot;origRot&quot;:0}" stroke-width="1.5" stroke-linecap="butt"><path d="M342.64286,174.05405c3.16699,-1.62264 9.30155,4.0243 13.70189,12.61277c4.40035,8.58848 5.40018,16.86619 2.23318,18.48884c-3.16701,1.62263 -9.30157,-4.02429 -13.7019,-12.61276c-4.40035,-8.58848 -5.40018,-16.86622 -2.23317,-18.48884z" data-paper-data="{&quot;origRot&quot;:0,&quot;origPos&quot;:null,&quot;index&quot;:null}" fill="url(#color-1)" stroke="#940000"/><path d="M361.05468,197.89287c5.48281,1.18376 8.93691,6.73147 7.71497,12.39113c-1.22195,5.65967 -6.65722,9.2881 -12.14004,8.10434c-5.48279,-1.18376 -8.93691,-6.73147 -7.71497,-12.39113c1.22195,-5.65967 6.65723,-9.2881 12.14004,-8.10434z" data-paper-data="{&quot;origPos&quot;:null,&quot;index&quot;:null}" fill="#ffffff" stroke="#bfbfbf"/></g><g data-paper-data="{&quot;origPos&quot;:null,&quot;origRot&quot;:0}" stroke-width="1.5" stroke-linecap="butt"><path d="M346.36709,232.94359c-0.56668,3.45033 -3.07216,9.07698 -4.45506,12.28837c-1.98882,4.61847 -4.00474,4.8582 -9.1014,3.98535c-5.11938,-0.87673 -6.75225,-0.70127 -7.14888,-5.75258c-0.2728,-3.47436 3.72009,-9.90536 4.28314,-13.33356c1.66266,-10.1234 0.90831,-17.37636 5.5122,-16.58791c0,0 7.26959,1.82832 8.22439,3.83489c0,0 3.71977,-0.93667 4.14363,2.21287c0.42679,3.17134 0.20464,3.22916 -1.45803,13.35256z" data-paper-data="{&quot;origPos&quot;:null,&quot;origRot&quot;:0}" fill="url(#color-2)" stroke="#001371"/><path d="M344.75915,249.96769c3.85569,4.4603 0.71178,7.61552 -2.12346,8.44165c-3.43327,1.0004 -12.89155,-0.81968 -17.30882,-3.85492c-4.41726,-3.03524 -2.34714,-3.64682 -2.08048,-5.43489c0.59286,-3.97551 4.2241,-6.61815 11.60394,-5.25925c7.37985,1.3589 6.05315,1.64711 9.90884,6.10741z" data-paper-data="{&quot;origPos&quot;:null,&quot;origRot&quot;:0}" fill="url(#color-3)" stroke="#6c4306"/></g><path d="" data-paper-data="{&quot;origPos&quot;:null}" fill="#c1770b" stroke="#6c4306" stroke-width="1.5" stroke-linecap="butt"/><g data-paper-data="{&quot;origPos&quot;:null}" stroke-linecap="butt"><path d="M348.9692,192.85576c0,9.26372 2.84091,18.23837 -2.69239,25.3177c-3.54659,4.53753 -10.70286,3.50701 -16.20164,3.50701c-5.49877,0 -12.65505,0.73766 -16.20165,-3.79985c-5.5333,-7.07933 -2.69238,-15.76114 -2.69238,-25.02485c0,-15.91945 8.45914,-28.82471 18.89403,-28.82471c0,0 11.73737,-4.40076 15.22571,2.13104c3.4719,6.50102 3.66832,10.77421 3.66832,26.69366z" data-paper-data="{&quot;origPos&quot;:null}" fill="url(#color-4)" stroke="#001371" stroke-width="1.5"/><path d="M339.05212,176.53214c0,2.68857 1.31009,7.12666 -0.34219,8.97831c-1.7848,2.00015 -3.67346,2.91985 -6.1351,2.90548c-2.72608,-0.01592 -4.60612,-1.00217 -6.88148,-2.77355c-2.33853,-1.82055 -1.87025,-5.80478 -1.87025,-9.11024c0,-4.77054 3.40914,-8.63783 7.61452,-8.63783c4.20537,0 7.61451,3.8673 7.61451,8.63783z" data-paper-data="{&quot;origPos&quot;:null}" fill="url(#color-5)" stroke="none" stroke-width="0"/><path d="M324.41458,184.68768c0,2.23365 -1.96162,4.0444 -4.38142,4.0444c-2.4198,0 -4.38143,-1.81074 -4.38143,-4.0444c0,-2.23365 1.96163,-4.04439 4.38143,-4.04439c2.4198,0 4.38142,1.81074 4.38142,4.04439z" data-paper-data="{&quot;origPos&quot;:null}" fill="#faff66" stroke="none" stroke-width="1.5"/><path d="M347.91589,184.13296c0,2.17864 -1.9133,3.94477 -4.2735,3.94477c-2.36019,0 -4.2735,-1.76612 -4.2735,-3.94477c0,-2.17864 1.91331,-3.94477 4.2735,-3.94477c2.36019,0 4.2735,1.76612 4.2735,3.94477z" data-paper-data="{&quot;origPos&quot;:null}" fill="#faff66" stroke="none" stroke-width="1.5"/></g><g data-paper-data="{&quot;origPos&quot;:null}"><path d="M360.6324,153.98587c0,13.37811 -13.73475,24.22323 -28.56379,24.22323c-14.82904,0 -31.67913,-11.007 -31.67913,-24.38512c0,-4.84199 0.68944,-17.04147 3.19789,-21.12167c5.78078,-9.40291 17.74496,-2.93967 28.48124,-2.93967c0,0 17.47791,-4.07051 23.38966,4.87354c2.80538,4.24433 5.17415,5.97157 5.17415,19.34969z" data-paper-data="{&quot;origPos&quot;:null}" fill="url(#color-6)" stroke="#e0ce98" stroke-width="1" stroke-linecap="butt"/><path d="M358.50909,126.8602c8.09723,14.22755 -29.33424,10.83219 -31.98263,12.69652c-2.60107,1.83102 -0.81879,7.42841 -3.96033,7.42841c-4.40313,0 -9.25612,0.71417 -10.46658,5.11413c-0.70052,2.54638 2.60132,7.50047 0.13667,8.17316c-2.42796,0.66268 -4.70501,2.65189 -7.21096,2.80494c-2.03236,0.12412 -2.35905,-1.8961 -4.39469,-1.9276c-5.79716,-0.08972 0.78824,-11.96655 0.9253,-12.58939c0.04568,-0.20761 -1.20602,-4.44904 -1.20602,-6.50931c0,-11.17434 10.77902,-17.11649 17.8548,-17.11649c7.07578,0 32.2072,-12.30192 40.30444,1.92563z" data-paper-data="{&quot;origPos&quot;:null}" fill="#5a3413" stroke="#351c06" stroke-width="1" stroke-linecap="butt"/><path d="M357.91427,166.43729c0,0.93673 -1.03545,2.26869 -1.13658,3.19959c-0.21477,1.97699 -1.58685,3.01897 -3.51269,3.10762c-2.12553,0.09786 -3.01604,-2.04326 -5.14035,-2.16621c-1.47465,-0.08537 -1.53991,1.74597 -3.01688,1.74597c-1.60871,0 -1.59206,-1.47457 -3.17663,-1.76096c-2.16384,-0.39108 -2.86624,1.73159 -4.82742,0.71024c-1.02557,-0.53411 -2.61762,-2.77623 -3.25007,-3.76589c-2.00221,-3.13303 -6.90647,-7.24457 -2.50601,-8.38529c2.1651,-0.56126 8.33282,5.18914 10.56518,5.18914c0,0 3.73999,-0.01695 5.59794,0.08157c4.21276,0.22336 10.4035,-2.38936 10.4035,2.04422z" data-paper-data="{&quot;origPos&quot;:null}" fill="#5a3413" stroke="#351c06" stroke-width="1" stroke-linecap="butt"/><path d="M361.87853,129.32832c0,10.22611 -12.29169,3.93148 -29.30368,3.93148c-4.11857,0 -9.56963,8.43304 -13.688,8.3958c-5.83861,-0.05278 -13.19319,2.54455 -17.80513,-0.78743c-3.25572,-2.35216 -0.80907,-7.7045 -0.80907,-11.53986c0,-8.66476 9.69318,-8.78997 18.09413,-12.52798c6.1066,-2.71713 5.93994,-7.5099 12.70881,-7.5099c0,0 13.85643,-1.8789 21.91934,0.85332c9.12834,3.09325 8.8836,8.95845 8.8836,19.18456z" data-paper-data="{&quot;origPos&quot;:null}" fill="url(#color-7)" stroke="#940000" stroke-width="1" stroke-linecap="butt"/><path d="M372.37333,135.14558c0,3.36409 -10.25569,0.28331 -23.57925,0.28331c-13.32355,0 -24.66962,3.08078 -24.66962,-0.28331c0,-3.36409 10.80087,-6.09122 24.12443,-6.09122c13.32355,0 24.12443,2.72713 24.12443,6.09122z" data-paper-data="{&quot;origPos&quot;:null}" fill="url(#color-8)" stroke="#940000" stroke-width="1" stroke-linecap="butt"/><path d="M356.48394,123.00477c0,2.07307 0.30737,3.50338 -1.23203,4.82162c-1.32872,1.13783 -8.88182,0.83961 -10.13715,-0.07455c-1.7882,-1.30221 -1.07033,-2.47775 -1.07033,-4.74707c0,-3.38707 2.78469,-6.13285 6.21977,-6.13285c3.43508,0 6.21976,2.74578 6.21976,6.13285z" data-paper-data="{&quot;origPos&quot;:null}" fill="#ffffff" stroke="#a4a4a4" stroke-width="1" stroke-linecap="butt"/><path d="M348.88145,147.83591c0,3.99999 -2.08558,7.24263 -4.65827,7.24263c-2.57269,0 -4.65827,-3.24264 -4.65827,-7.24263c0,-3.99999 2.08558,-7.24264 4.65827,-7.24264c2.57269,0 4.65827,3.24264 4.65827,7.24264z" data-paper-data="{&quot;origPos&quot;:null}" fill="#ffffff" stroke="none" stroke-width="0" stroke-linecap="butt"/><path d="M346.59388,125.89745l1.71344,-5.34246l2.02498,3.56164l1.55767,-3.72353l2.3365,5.01868" data-paper-data="{&quot;origPos&quot;:null}" fill="none" stroke="#ba0000" stroke-width="1" stroke-linecap="round"/><path d="M340.53295,139.87833c0,0 3.51435,-0.56784 4.22549,-0.44572c1.27172,0.21838 3.47173,1.77246 3.47173,1.77246" data-paper-data="{&quot;origPos&quot;:null,&quot;origRot&quot;:0}" fill="none" stroke="#351c06" stroke-width="1.5" stroke-linecap="round"/><path d="M348.90994,147.52473c0,2.65462 -1.3841,4.8066 -3.09148,4.8066c-1.70738,0 -3.09148,-2.152 -3.09148,-4.8066c0,-2.65462 1.38411,-4.8066 3.09148,-4.8066c1.70738,0 3.09148,2.152 3.09148,4.8066z" data-paper-data="{&quot;origPos&quot;:null}" fill="#1121d4" stroke="none" stroke-width="0" stroke-linecap="butt"/><path d="M348.97722,147.38514c0,1.37271 -0.71572,2.4855 -1.59861,2.4855c-0.8829,0 -1.59861,-1.1128 -1.59861,-2.4855c0,-1.37271 0.71573,-2.4855 1.59861,-2.4855c0.8829,0 1.59861,1.1128 1.59861,2.4855z" data-paper-data="{&quot;origPos&quot;:null}" fill="#000000" stroke="none" stroke-width="0" stroke-linecap="butt"/><path d="M355.16295,139.96594c2.13325,0 3.8626,2.68875 3.8626,6.0055c0,3.31675 -1.72934,6.0055 -3.8626,6.0055c-2.13325,0 -3.8626,-2.68875 -3.8626,-6.0055c0,-3.31675 1.72934,-6.0055 3.8626,-6.0055z" data-paper-data="{&quot;origPos&quot;:null,&quot;index&quot;:null}" fill="#ffffff" stroke="none" stroke-width="0" stroke-linecap="butt"/><path d="M352.17604,140.37996c0,0 1.82422,-1.28863 2.87872,-1.46971c0.58967,-0.10126 3.50373,0.36959 3.50373,0.36959" data-paper-data="{&quot;origPos&quot;:null,&quot;origRot&quot;:0,&quot;index&quot;:null}" fill="none" stroke="#351c06" stroke-width="1.5" stroke-linecap="round"/><path d="M356.58257,141.84529c1.41573,0 2.56343,1.78441 2.56343,3.98557c0,2.20117 -1.14768,3.98557 -2.56343,3.98557c-1.41573,0 -2.56342,-1.78441 -2.56342,-3.98557c0,-2.20117 1.14768,-3.98557 2.56342,-3.98557z" data-paper-data="{&quot;origPos&quot;:null,&quot;index&quot;:null}" fill="#1121d4" stroke="none" stroke-width="0" stroke-linecap="butt"/><path d="M357.92058,143.77634c0.73209,0 1.32555,0.92272 1.32555,2.06095c0,1.13824 -0.59347,2.06095 -1.32555,2.06095c-0.73209,0 -1.32554,-0.92272 -1.32554,-2.06095c0,-1.13824 0.59347,-2.06095 1.32554,-2.06095z" data-paper-data="{&quot;origPos&quot;:null,&quot;index&quot;:null}" fill="#000000" stroke="none" stroke-width="0" stroke-linecap="butt"/><path d="M368.98693,158.52619c0,4.61431 -5.36707,8.35495 -11.98769,8.35495c-6.62061,0 -11.98769,-3.74063 -11.98769,-8.35495c0,-4.61431 5.36707,-8.35495 11.98769,-8.35495c6.62061,0 11.98769,3.74063 11.98769,8.35495z" data-paper-data="{&quot;origPos&quot;:null}" fill="url(#color-9)" stroke="#e0ce98" stroke-width="1.5" stroke-linecap="butt"/><path d="M314.73522,150.57742c-0.90455,2.82035 -4.76391,4.0237 -8.62013,2.68774c-3.85623,-1.33596 -6.24902,-4.70531 -5.34448,-7.52567c0.90455,-2.82035 4.76391,-4.0237 8.62013,-2.68774c3.85623,1.33596 6.24902,4.70531 5.34448,7.52567z" data-paper-data="{&quot;origRot&quot;:0,&quot;origPos&quot;:null}" fill="url(#color-10)" stroke="#e0ce98" stroke-width="1.5" stroke-linecap="butt"/></g><g data-paper-data="{&quot;origPos&quot;:null,&quot;origRot&quot;:0}" stroke-width="1.5" stroke-linecap="butt"><path d="M330.53657,227.58859c0.83611,3.34503 0.74598,9.43465 0.73781,12.89136c-0.01173,4.97128 -1.77053,5.99698 -6.79881,7.25382c-5.05069,1.26245 -6.48266,2.07633 -8.83394,-2.32868c-1.61723,-3.02983 -0.47617,-10.44318 -1.30692,-13.76676c-2.45317,-9.81445 -5.99919,-16.06523 -1.45707,-17.20056c0,0 7.40148,-1.26559 9.06835,0.16428c4.80616,4.12279 6.1374,3.17209 8.59057,12.98656z" data-paper-data="{&quot;origPos&quot;:null}" fill="url(#color-11)" stroke="#001371"/><path d="M336.85413,243.02477c5.42171,2.64024 3.70733,7.04691 1.35665,9.0708c-2.8465,2.45077 -12.51175,4.78305 -17.89641,3.7619c-5.38465,-1.02114 -3.67167,-2.50697 -4.13212,-4.3491c-1.02375,-4.09573 1.35548,-8.2181 8.87241,-10.097c7.51693,-1.87889 6.37777,-1.02684 11.79947,1.61341z" data-paper-data="{&quot;origPos&quot;:null}" fill="url(#color-12)" stroke="#6c4306"/></g><g data-paper-data="{&quot;origPos&quot;:null,&quot;origRot&quot;:0}" stroke-width="1.5" stroke-linecap="butt"><path d="M315.72912,192.66581c-4.18024,8.76918 -10.19037,14.62842 -13.424,13.08696c-3.23364,-1.54144 -2.46626,-9.89988 1.71395,-18.66909c4.18024,-8.76918 10.19037,-14.62842 13.424,-13.08696c3.23364,1.54144 2.46626,9.89988 -1.71395,18.66909z" data-paper-data="{&quot;origRot&quot;:0,&quot;origPos&quot;:null}" fill="url(#color-13)" stroke="#940000"/><path d="M312.05323,206.32091c1.39283,5.65989 -1.92292,11.34196 -7.40595,12.69126c-5.48302,1.34931 -11.05699,-2.14512 -12.44981,-7.805c-1.39283,-5.65989 1.92292,-11.34196 7.40595,-12.69126c5.48302,-1.34931 11.05699,2.14512 12.44981,7.805z" data-paper-data="{&quot;origPos&quot;:null,&quot;origRot&quot;:0}" fill="#ffffff" stroke="#bfbfbf"/></g><path d="M161.02205,170.59077c2.88224,-1.66956 8.42221,3.78438 12.37385,12.1817c3.95164,8.39732 4.81856,16.55814 1.93631,18.2277c-2.88225,1.66955 -8.42222,-3.78437 -12.37384,-12.18169c-3.95165,-8.39732 -4.81856,-16.55817 -1.9363,-18.2277z" data-paper-data="{&quot;origRot&quot;:0,&quot;origPos&quot;:null,&quot;index&quot;:null}" fill="url(#color-14)" stroke="#158e0e" stroke-width="1.5" stroke-linecap="butt"/><path d="M180.11801,194.05383c5.49179,1.11524 8.98364,6.57027 7.79928,12.18417c-1.18438,5.61391 -6.59647,9.2608 -12.08827,8.14557c-5.49177,-1.11524 -8.98364,-6.57027 -7.79927,-12.18417c1.18438,-5.61391 6.59648,-9.2608 12.08827,-8.14557z" data-paper-data="{&quot;origPos&quot;:null,&quot;index&quot;:null,&quot;origRot&quot;:0}" fill="#ffffff" stroke="#bfbfbf" stroke-width="1.5" stroke-linecap="butt"/><path d="M165.93461,231.67933c-0.50686,3.41558 -2.60665,9.1373 -3.76717,12.39842c-1.66901,4.69 -3.29563,5.11695 -7.38635,4.75561c-4.10896,-0.36295 -5.42622,-0.03534 -5.67146,-4.91814c-0.16868,-3.35846 3.14047,-10.00644 3.64408,-13.40012c1.48716,-10.02146 0.98618,-17.01473 4.68139,-16.68834c0,0 5.82621,1.08366 6.56553,2.94679c0,0 3.00867,-1.26935 3.30375,1.75819c0.29711,3.0485 0.1174,3.12613 -1.36976,13.14759z" data-paper-data="{&quot;origPos&quot;:null,&quot;origRot&quot;:0}" fill="url(#color-15)" stroke="#001371" stroke-width="1.5" stroke-linecap="butt"/><path d="M165.92126,248.60353c3.48431,3.91122 0.78251,7.04837 -1.69544,7.99669c-3.00061,1.14836 -11.36082,0.04967 -15.31007,-2.49881c-3.94924,-2.54847 -2.14016,-3.24869 -1.94219,-4.93095c0.44017,-3.74028 3.58131,-6.43075 10.10313,-5.63052c6.52181,0.80022 5.36029,1.15235 8.84459,5.06358z" data-paper-data="{&quot;origPos&quot;:null,&quot;origRot&quot;:0}" fill="url(#color-16)" stroke="#6c4306" stroke-width="1.5" stroke-linecap="butt"/><path d="M168.19093,193.86403c0,9.1707 2.57396,18.05523 -2.43939,25.06348c-3.21333,4.49197 -9.69716,3.47179 -14.67924,3.47179c-4.98207,0 -11.4659,0.73026 -14.67924,-3.76169c-5.01335,-7.00824 -2.43939,-15.60288 -2.43939,-24.77357c0,-15.7596 7.66426,-28.78276 17.11863,-28.78276c0,0 9.72842,-0.89172 12.88897,5.5745c3.14566,6.43574 4.22966,7.44866 4.22966,23.20826z" data-paper-data="{&quot;origPos&quot;:null}" fill="url(#color-17)" stroke="#001371" stroke-width="1.5" stroke-linecap="butt"/><path d="M159.20572,177.70433c0,2.66157 1.18698,7.0551 -0.31003,8.88816c-1.61709,1.98007 -3.32827,2.89053 -5.5586,2.87631c-2.46992,-0.01576 -4.1733,-0.99211 -6.23486,-2.7457c-2.11879,-1.80227 -1.69451,-5.7465 -1.69451,-9.01876c0,-4.72264 3.0888,-8.5511 6.89902,-8.5511c3.8102,0 6.899,3.82847 6.899,8.5511z" data-paper-data="{&quot;origPos&quot;:null}" fill="url(#color-18)" stroke="none" stroke-width="0" stroke-linecap="butt"/><path d="M145.94361,185.77797c0,2.21122 -1.7773,4.00379 -3.96972,4.00379c-2.19242,0 -3.96972,-1.79256 -3.96972,-4.00379c0,-2.21122 1.7773,-4.00378 3.96972,-4.00378c2.19242,0 3.96972,1.79256 3.96972,4.00378z" data-paper-data="{&quot;origPos&quot;:null}" fill="#faff66" stroke="none" stroke-width="1.5" stroke-linecap="butt"/><path d="M167.23659,185.22882c0,2.15676 -1.73351,3.90516 -3.87193,3.90516c-2.13841,0 -3.87194,-1.74839 -3.87194,-3.90516c0,-2.15676 1.73353,-3.90516 3.87194,-3.90516c2.13841,0 3.87193,1.74839 3.87193,3.90516z" data-paper-data="{&quot;origPos&quot;:null}" fill="#faff66" stroke="none" stroke-width="1.5" stroke-linecap="butt"/><path d="M153.2336,228.40102c1.06378,3.25222 1.66512,9.18112 2.04207,12.54636c0.54213,4.83976 -0.80064,5.84728 -4.82551,7.09652c-4.04282,1.25481 -5.13842,2.05446 -7.57473,-2.22196c-1.6757,-2.94139 -1.55362,-10.16433 -2.61057,-13.3957c-3.12117,-9.54215 -6.75183,-15.60938 -3.1161,-16.73784c0,0 5.98938,-1.26987 7.5286,0.11364c4.4381,3.98913 5.43508,3.05681 8.55625,12.59897z" data-paper-data="{&quot;origPos&quot;:null,&quot;origRot&quot;:0}" fill="url(#color-19)" stroke="#001371" stroke-width="1.5" stroke-linecap="butt"/><path d="M158.83984,244.31301c4.57737,2.13542 3.54643,5.99618 1.81359,7.81242c-2.09835,2.19933 -9.69912,4.48406 -14.118,3.74877c-4.41887,-0.73528 -3.15699,-2.06832 -3.67429,-3.64981c-1.15012,-3.5162 0.43899,-7.14926 6.34516,-8.98242c5.90617,-1.83315 5.05618,-1.0644 9.63355,1.07103z" data-paper-data="{&quot;origPos&quot;:null,&quot;origRot&quot;:0}" fill="url(#color-20)" stroke="#6c4306" stroke-width="1.5" stroke-linecap="butt"/><path d="M138.98862,186.91089c-3.88597,8.77107 -9.70187,14.71141 -12.99017,13.26811c-3.28832,-1.44329 -2.80379,-9.72368 1.08215,-18.49477c3.88597,-8.77107 9.70186,-14.71142 12.99016,-13.26812c3.28832,1.44329 2.8038,9.72368 -1.08214,18.49477z" data-paper-data="{&quot;origRot&quot;:0,&quot;origPos&quot;:null}" fill="url(#color-21)" stroke="#158e0e" stroke-width="1.5" stroke-linecap="butt"/><path d="M135.77305,200.49861c1.58578,5.55957 -1.53974,11.25794 -6.98108,12.72765c-5.44133,1.46972 -11.13792,-1.84578 -12.72371,-7.40537c-1.58578,-5.55957 1.53974,-11.25794 6.98108,-12.72765c5.44133,-1.46972 11.13792,1.84578 12.72371,7.40537z" data-paper-data="{&quot;origPos&quot;:null,&quot;origRot&quot;:0}" fill="#ffffff" stroke="#bfbfbf" stroke-width="1.5" stroke-linecap="butt"/><path d="M177.34623,149.47683c0,9.58744 -5.14936,13.54105 -11.92352,18.47509c-4.72012,3.43796 -6.06853,6.44688 -11.57363,6.44688c-6.39728,0 -8.94794,-3.34932 -14.4308,-7.34894c-6.66848,-4.8645 -12.11553,-8.29451 -12.11553,-17.73622c0,-4.88091 0.57271,-17.17846 2.65647,-21.29146c4.80207,-9.4785 14.74065,-2.96331 23.65922,-2.96331c0,0 14.51881,-4.10323 19.42967,4.91271c2.33042,4.27845 4.29814,6.01957 4.29814,19.50524z" data-paper-data="{&quot;origPos&quot;:null}" fill="url(#color-22)" stroke="#e0ce98" stroke-width="1" stroke-linecap="butt"/><path d="M177.4394,121.23554c7.39631,15.30816 -26.79497,11.65492 -29.2141,13.66084c-2.37591,1.97008 -0.74791,7.99261 -3.6175,7.99261c-4.02198,0 -8.45488,0.76841 -9.56057,5.50256c-0.63988,2.73978 2.37615,8.07015 0.12484,8.79394c-2.2178,0.71302 -4.06937,3.1223 -6.35839,3.28697c-1.85643,0.13354 -2.3832,-2.3091 -4.24263,-2.343c-5.29533,-0.09654 0.72001,-12.87543 0.8452,-13.54558c0.04172,-0.22338 -1.10163,-4.78695 -1.10163,-7.0037c0,-12.02306 9.84594,-18.41652 16.30923,-18.41652c6.46328,0 29.41924,-13.23627 36.81555,2.07188z" data-paper-data="{&quot;origPos&quot;:null}" fill="#c27231" stroke="#985926" stroke-width="1.5" stroke-linecap="butt"/><path d="M176.96832,162.28036c0,0.94426 -1.05436,2.53894 -1.15734,3.47732c-0.21869,1.99288 -1.61583,3.04323 -3.57684,3.13261c-2.16435,0.09865 -5.99132,-2.45074 -5.99132,-2.45074c0,0 -2.87775,1.15965 -4.82459,1.60512c-1.63184,0.37339 -4.15503,0.12869 -5.64053,-0.63716c-1.0443,-0.5384 -2.66543,-2.79855 -3.30943,-3.79617c-2.03878,-3.15822 -7.28717,-7.80682 -2.80634,-8.95671c2.20464,-0.56578 8.73957,5.48286 11.0127,5.48286c0,0 3.80829,-0.01709 5.70018,0.08223c4.2897,0.22516 10.5935,-2.40857 10.5935,2.06065z" data-paper-data="{&quot;origPos&quot;:null}" fill="#160b02" stroke="none" stroke-width="0" stroke-linecap="butt"/><path d="M179.32542,125.50004c0,9.62951 -11.03409,3.70211 -26.30554,3.70211c-3.69718,0 -8.59054,7.94106 -12.28753,7.90599c-5.24124,-0.04971 -11.84335,2.39611 -15.98343,-0.74149c-2.92262,-2.21493 -0.72629,-7.25501 -0.72629,-10.86662c0,-8.15926 8.70145,-8.27716 16.24287,-11.79709c5.48182,-2.55861 5.55662,-6.60094 11.63295,-6.60094c0,0 12.43874,-1.76929 19.6767,0.80353c8.19439,2.91279 7.75028,7.96498 7.75028,17.59449z" data-paper-data="{&quot;origPos&quot;:null}" fill="url(#color-23)" stroke="#158e0e" stroke-width="1" stroke-linecap="butt"/><path d="M189.80766,131.29152c0,3.39114 -10.44299,0.28559 -24.00988,0.28559c-13.56688,0 -25.12017,3.10555 -25.12017,-0.28559c0,-3.39114 10.99813,-6.14019 24.56502,-6.14019c13.56688,0 24.56502,2.74906 24.56502,6.14019z" data-paper-data="{&quot;origPos&quot;:null}" fill="url(#color-24)" stroke="#158e0e" stroke-width="1" stroke-linecap="butt"/><path d="M175.2573,118.6499c0,2.08974 0.31298,3.53154 -1.25453,4.86038c-1.35299,1.14697 -9.04403,0.84635 -10.32229,-0.07514c-1.82086,-1.31268 -1.08988,-2.49767 -1.08988,-4.78524c0,-3.41429 2.83555,-6.18215 6.33336,-6.18215c3.49782,0 6.33335,2.76785 6.33335,6.18215z" data-paper-data="{&quot;origPos&quot;:null}" fill="#ffffff" stroke="#a4a4a4" stroke-width="1" stroke-linecap="butt"/><path d="M167.51597,143.27744c0,4.03215 -2.12367,7.30085 -4.74334,7.30085c-2.61968,0 -4.74334,-3.2687 -4.74334,-7.30085c0,-4.03215 2.12367,-7.30086 4.74334,-7.30086c2.61968,0 4.74334,3.2687 4.74334,7.30086z" data-paper-data="{&quot;origPos&quot;:null}" fill="#ffffff" stroke="none" stroke-width="0" stroke-linecap="butt"/><path d="M159.015,135.25589c0,0 3.57853,-0.5724 4.30266,-0.4493c1.29495,0.22013 3.53513,1.78671 3.53513,1.78671" data-paper-data="{&quot;origPos&quot;:null,&quot;origRot&quot;:0}" fill="none" stroke="#351c06" stroke-width="1.5" stroke-linecap="round"/><path d="M167.54498,142.96375c0,2.67596 -1.40938,4.84524 -3.14794,4.84524c-1.73856,0 -3.14794,-2.1693 -3.14794,-4.84524c0,-2.67596 1.40939,-4.84524 3.14794,-4.84524c1.73856,0 3.14794,2.1693 3.14794,4.84524z" data-paper-data="{&quot;origPos&quot;:null}" fill="#1121d4" stroke="none" stroke-width="0" stroke-linecap="butt"/><path d="M167.61349,142.82304c0,1.38374 -0.72879,2.50548 -1.62781,2.50548c-0.89902,0 -1.62781,-1.12175 -1.62781,-2.50548c0,-1.38374 0.7288,-2.50548 1.62781,-2.50548c0.89902,0 1.62781,1.12175 1.62781,2.50548z" data-paper-data="{&quot;origPos&quot;:null}" fill="#000000" stroke="none" stroke-width="0" stroke-linecap="butt"/><path d="M173.91219,135.3442c2.17221,0 3.93314,2.71036 3.93314,6.05377c0,3.34342 -1.76092,6.05377 -3.93314,6.05377c-2.17221,0 -3.93314,-2.71036 -3.93314,-6.05377c0,-3.34342 1.76092,-6.05377 3.93314,-6.05377z" data-paper-data="{&quot;origPos&quot;:null,&quot;index&quot;:null}" fill="#ffffff" stroke="none" stroke-width="0" stroke-linecap="butt"/><path d="M170.61616,134.76965c0,0 1.85754,-1.299 2.93129,-1.48153c0.60044,-0.10208 3.56772,0.37256 3.56772,0.37256" data-paper-data="{&quot;origPos&quot;:null,&quot;origRot&quot;:0,&quot;index&quot;:null}" fill="none" stroke="#351c06" stroke-width="1.5" stroke-linecap="round"/><path d="M175.35774,137.23866c1.44159,0 2.61025,1.79876 2.61025,4.0176c0,2.21886 -1.16864,4.0176 -2.61025,4.0176c-1.44159,0 -2.61024,-1.79876 -2.61024,-4.0176c0,-2.21886 1.16864,-4.0176 2.61024,-4.0176z" data-paper-data="{&quot;origPos&quot;:null,&quot;index&quot;:null}" fill="#1121d4" stroke="none" stroke-width="0" stroke-linecap="butt"/><path d="M176.72018,139.18524c0.74546,0 1.34976,0.93015 1.34976,2.07752c0,1.14739 -0.60431,2.07752 -1.34976,2.07752c-0.74546,0 -1.34975,-0.93015 -1.34975,-2.07752c0,-1.14739 0.60431,-2.07752 1.34975,-2.07752z" data-paper-data="{&quot;origPos&quot;:null,&quot;index&quot;:null}" fill="#000000" stroke="none" stroke-width="0" stroke-linecap="butt"/><path d="M187.98864,154.05365c0,4.6514 -5.21052,8.67412 -11.95206,8.67412c-6.74152,0 -12.46119,-4.02272 -12.46119,-8.67412c0,-4.6514 5.46509,-8.42211 12.20662,-8.42211c6.74152,0 12.20662,3.7707 12.20662,8.42211z" data-paper-data="{&quot;origPos&quot;:null}" fill="url(#color-25)" stroke="#e0ce98" stroke-width="1.5" stroke-linecap="butt"/><path d="M140.48492,147.85546c-0.92107,2.84302 -4.85091,4.05604 -8.77756,2.70934c-3.92666,-1.34671 -6.36315,-4.74313 -5.44209,-7.58617c0.92107,-2.84302 4.85091,-4.05604 8.77756,-2.70934c3.92666,1.34671 6.36315,4.74313 5.44209,7.58617z" data-paper-data="{&quot;origRot&quot;:0,&quot;origPos&quot;:null}" fill="#ffefc0" stroke="#e0ce98" stroke-width="1.5" stroke-linecap="butt"/><path d="M171.75718,121.38357l-4.53402,-0.22094l0.06825,-5.65682" data-paper-data="{&quot;origPos&quot;:null}" fill="none" stroke="#158e0e" stroke-width="1" stroke-linecap="round"/></g></g></svg>