<svg version="1.1" xmlns="http://www.w3.org/2000/svg" xmlns:xlink="http://www.w3.org/1999/xlink" width="36.69049" height="6.47425" viewBox="0,0,36.69049,6.47425"><defs><linearGradient x1="240.00001" y1="193.07754" x2="240.00001" y2="196.55946" gradientUnits="userSpaceOnUse" id="color-1"><stop offset="0" stop-color="#aa5825"/><stop offset="1" stop-color="#89471e"/></linearGradient></defs><g transform="translate(-221.65475,-192.08307)"><g data-paper-data="{&quot;isPaintingLayer&quot;:true}" fill-rule="nonzero" stroke-linejoin="miter" stroke-miterlimit="10" stroke-dasharray="" stroke-dashoffset="0" style="mix-blend-mode: normal"><g><path d="M248.50251,196.46935c0,0.38157 0.4326,0.4625 -1.2135,0.62104c-1.81427,0.17473 -4.73825,0.34291 -7.45524,0.34291c-2.71699,0 -5.75066,-0.2088 -7.7429,-0.43803c-1.08839,-0.12523 -0.81866,-0.34173 -0.81866,-0.52591c0,-0.38157 3.5932,-0.69089 8.02562,-0.69089c4.43243,0 9.20467,0.30932 9.20467,0.69089z" fill="#f1c2a4" stroke="#b8947d" stroke-width="1" stroke-linecap="butt"/><path d="M257.84522,195.44945c0,0.70219 -2.95587,0.9942 -8.51833,1.07616c-2.64438,0.03897 -6.89309,-0.05789 -9.55569,-0.05789c-3.31831,0 -6.45848,0.1461 -9.72014,0.06955c-5.17143,-0.12136 -7.89631,-0.49991 -7.89631,-1.15954c0,-0.60759 2.82083,-0.84348 5.76991,-1.32562c1.81567,-0.29684 1.07235,-0.56444 3.49589,-0.78264c2.39926,-0.21601 6.08924,-0.19562 9.0423,-0.18731c2.74335,0.00771 5.656,-0.01307 8.54006,0.21381c2.88406,0.22689 2.06547,0.42701 3.69012,0.74832c2.54179,0.5027 5.15221,0.53386 5.15221,1.40514z" fill="url(#color-1)" stroke="#89471e" stroke-width="1" stroke-linecap="butt"/><path d="M238.19803,194.52928c0,0.3637 -1.4834,0.65854 -3.31329,0.65854c-1.82988,0 -3.31329,-0.29484 -3.31329,-0.65854c0,-0.3637 1.48341,-0.65854 3.31329,-0.65854c1.82988,0 3.31329,0.29484 3.31329,0.65854z" fill="#e0e0e0" stroke="none" stroke-width="0" stroke-linecap="butt"/><path d="M248.54477,194.54534c0,0.3637 -1.4834,0.65854 -3.31328,0.65854c-1.82988,0 -3.31329,-0.29484 -3.31329,-0.65854c0,-0.3637 1.48341,-0.65854 3.31329,-0.65854c1.82988,0 3.31328,0.29484 3.31328,0.65854z" fill="#e0e0e0" stroke="none" stroke-width="0" stroke-linecap="butt"/><path d="M229.59,196.10336c0,0 6.49484,-0.20529 10.46573,-0.21291c4.19775,-0.00805 10.46539,0.17274 10.46539,0.17274" fill="none" stroke="#000000" stroke-width="1" stroke-linecap="round"/><path d="M229.90857,193.12016c0,0 3.57992,-0.1388 4.93016,0.03509c1.35024,0.17389 0.30722,0.62248 0.94954,0.75638c0.56239,0.11724 3.60001,0.20131 3.60001,0.20131" fill="none" stroke="#000000" stroke-width="2" stroke-linecap="round"/><path d="M237.23923,194.45576c0,0.1352 -0.38196,0.2448 -0.85313,0.2448c-0.47117,0 -0.85313,-0.1096 -0.85313,-0.2448c0,-0.1352 0.38196,-0.2448 0.85313,-0.2448c0.47117,0 0.85313,0.1096 0.85313,0.2448z" fill="#000000" stroke="#000000" stroke-width="2" stroke-linecap="butt"/><path d="M244.74281,194.44306c0,0.13403 -0.37865,0.24268 -0.84572,0.24268c-0.46707,0 -0.84571,-0.10865 -0.84571,-0.24268c0,-0.13403 0.37863,-0.24268 0.84571,-0.24268c0.46707,0 0.84572,0.10865 0.84572,0.24268z" fill="#000000" stroke="#000000" stroke-width="2" stroke-linecap="butt"/><path d="M239.81179,194.12098c0,0 4.14302,-0.11623 4.70541,-0.23346c0.71771,-0.14961 1.38026,-0.63176 2.41497,-0.7403c1.37991,-0.14475 4.41704,0.00075 4.41704,0.00075" data-paper-data="{&quot;index&quot;:null}" fill="none" stroke="#000000" stroke-width="2" stroke-linecap="round"/><path d="M229.15599,196.02935l1.3077,-0.55201l2.59376,0.46143z" fill="#ffffff" stroke="none" stroke-width="0" stroke-linecap="butt"/><path d="M237.56667,194.29298c0,0.04324 -0.11939,0.07829 -0.26667,0.07829c-0.14728,0 -0.26667,-0.03505 -0.26667,-0.07829c0,-0.04324 0.11939,-0.07829 0.26667,-0.07829c0.14728,0 0.26667,0.03505 0.26667,0.07829z" fill="#e0e0e0" stroke="none" stroke-width="0" stroke-linecap="butt"/><path d="M246.82412,195.9243l2.46649,-0.47457l1.45685,0.54483z" data-paper-data="{&quot;index&quot;:null}" fill="#ffffff" stroke="none" stroke-width="0" stroke-linecap="butt"/><path d="M243.03333,194.30219c0,0.04324 -0.11939,0.07829 -0.26666,0.07829c-0.14728,0 -0.26667,-0.03505 -0.26667,-0.07829c0,-0.04324 0.11939,-0.07829 0.26667,-0.07829c0.14728,0 0.26666,0.03505 0.26666,0.07829z" fill="#e0e0e0" stroke="none" stroke-width="0" stroke-linecap="butt"/></g><path d="M237.11448,197.54207c0,0.27937 -2.68054,0.50584 -5.98717,0.50584c-3.30662,0 -5.98717,-0.22647 -5.98717,-0.50584c0,-0.27937 2.68054,-0.50584 5.98717,-0.50584c3.30662,0 5.98717,0.22647 5.98717,0.50584z" fill="#5a2f14" stroke="#43230f" stroke-width="1" stroke-linecap="butt"/><path d="M254.673,197.55148c0,0.27937 -2.68055,0.50584 -5.98717,0.50584c-3.30662,0 -5.98716,-0.22647 -5.98716,-0.50584c0,-0.27937 2.68054,-0.50584 5.98716,-0.50584c3.30662,0 5.98717,0.22647 5.98717,0.50584z" fill="#5a2f14" stroke="#43230f" stroke-width="1" stroke-linecap="butt"/></g></g></svg>