<svg version="1.1" xmlns="http://www.w3.org/2000/svg" xmlns:xlink="http://www.w3.org/1999/xlink" width="491.22106" height="318.50004" viewBox="0,0,491.22106,318.50004"><defs><linearGradient x1="297.53125" y1="295.00005" x2="297.53125" y2="334.29147" gradientUnits="userSpaceOnUse" id="color-1"><stop offset="0" stop-color="#17ff22"/><stop offset="1" stop-color="#02d10c"/></linearGradient><linearGradient x1="281.00151" y1="262.29631" x2="281.00151" y2="296.29631" gradientUnits="userSpaceOnUse" id="color-2"><stop offset="0" stop-color="#c6964f"/><stop offset="1" stop-color="#a98044"/></linearGradient><linearGradient x1="448.5557" y1="48.00005" x2="448.5557" y2="87.29147" gradientUnits="userSpaceOnUse" id="color-3"><stop offset="0" stop-color="#17ff22"/><stop offset="1" stop-color="#02d10c"/></linearGradient></defs><g transform="translate(-54,-46.50007)"><g data-paper-data="{&quot;isPaintingLayer&quot;:true}" fill-rule="nonzero" stroke-linejoin="miter" stroke-miterlimit="10" stroke-dasharray="" stroke-dashoffset="0" style="mix-blend-mode: normal"><path d="M358,313.00011v-242h180.02286v242z" fill="#98763d" stroke="none" stroke-width="0" stroke-linecap="butt"/><path d="M54,365.00011v-47h484.1351v47z" fill="#98763d" stroke="none" stroke-width="0" stroke-linecap="butt"/><path d="M55.51412,321.89333v-26.89326h484.03426v26.89326l-27.00578,1.75726l-43.97163,10.64086l-42.7619,-11.9986l-40.7049,10.37815l-40.72936,-10.67969l-43.3929,8.22474l-40.39009,-9.40523l-57.53162,12.49333l-42.69222,-13.2091l-56.22042,10.7627z" fill="url(#color-1)" stroke="#08a310" stroke-width="3" stroke-linecap="butt"/><path d="M296.71646,328.13819l11.83901,18.01465l-0.24675,16.26774l-16.92389,-13.87762l-4.99504,-14.90558z" data-paper-data="{&quot;index&quot;:null}" fill="#774b00" stroke="#703100" stroke-width="2" stroke-linecap="round"/><path d="M101.40041,347.34629l-8.87184,-13.22785l6.05447,-3.87501l16.87004,15.94784l1.16689,7.40281z" data-paper-data="{&quot;index&quot;:null}" fill="#774b00" stroke="#703100" stroke-width="2" stroke-linecap="round"/><path d="M190.91212,356.94539l-4.82531,-3.22167l6.49233,-9.08013l11.4581,-1.92088l-0.76959,5.37415z" data-paper-data="{&quot;index&quot;:null}" fill="#774b00" stroke="#703100" stroke-width="2" stroke-linecap="round"/><path d="M439.98471,340.64029l32.29784,-1.89717l23.81362,6.44201l-28.69929,7.27995l-24.37452,-2.00971z" data-paper-data="{&quot;index&quot;:null}" fill="#774b00" stroke="#703100" stroke-width="2" stroke-linecap="round"/><path d="M373.18179,338.36506l11.22505,10.0917l-2.46597,9.05432l-17.63868,-7.81609l-3.75631,-8.32422z" data-paper-data="{&quot;index&quot;:null}" fill="#774b00" stroke="#703100" stroke-width="2" stroke-linecap="round"/><path d="M245.00151,296.29631v-34h72v34z" fill="url(#color-2)" stroke="#826334" stroke-width="2.5" stroke-linecap="butt"/><path d="M358.56302,74.89333v-26.89326h179.98536v26.89326l-10.04194,1.75726l-16.3506,10.64086l-15.90077,-11.9986l-15.13588,10.37815l-15.14498,-10.67969l-16.1354,8.22474l-15.01882,-9.40523l-21.3928,12.49333l-15.87486,-13.2091l-20.90524,10.7627z" fill="url(#color-3)" stroke="#08a310" stroke-width="3" stroke-linecap="butt"/><path d="M406.63131,251.94818l-29.88666,-18.59936l7.92426,-14.64287l47.93229,15.86405l9.40487,14.44445z" data-paper-data="{&quot;index&quot;:null}" fill="#774b00" stroke="#703100" stroke-width="2" stroke-linecap="round"/><path d="M505.07287,170.94539l-14.32483,-9.56413l19.27369,-26.95606l34.01551,-5.70249l-2.28467,15.95417z" data-paper-data="{&quot;index&quot;:null}" fill="#774b00" stroke="#703100" stroke-width="2" stroke-linecap="round"/><path d="M410.75417,136.20533l8.46284,-14.14317l26.6746,17.14482l7.0596,32.23964l-15.35591,-1.42858z" data-paper-data="{&quot;index&quot;:null}" fill="#774b00" stroke="#703100" stroke-width="2" stroke-linecap="round"/><path d="M493.99132,284.04202l26.5903,6.67385l-6.51874,-21.80894l-42.26639,-25.00097l-8.60082,6.69547z" data-paper-data="{&quot;index&quot;:null}" fill="#774b00" stroke="#703100" stroke-width="2" stroke-linecap="round"/></g></g></svg>