<svg version="1.1" xmlns="http://www.w3.org/2000/svg" xmlns:xlink="http://www.w3.org/1999/xlink" width="58.28433" height="41.26173" viewBox="0,0,58.28433,41.26173"><defs><linearGradient x1="231.63586" y1="165.91193" x2="231.35384" y2="169.06918" gradientUnits="userSpaceOnUse" id="color-1"><stop offset="0" stop-color="#f50000"/><stop offset="1" stop-color="#be0000"/></linearGradient><linearGradient x1="231.26644" y1="168.40721" x2="231.26644" y2="174.70979" gradientUnits="userSpaceOnUse" id="color-2"><stop offset="0" stop-color="#f50000"/><stop offset="1" stop-color="#be0000"/></linearGradient><linearGradient x1="247.46269" y1="175.38436" x2="247.46269" y2="181.08004" gradientUnits="userSpaceOnUse" id="color-3"><stop offset="0" stop-color="#f50000"/><stop offset="1" stop-color="#be0000"/></linearGradient><linearGradient x1="230.76976" y1="173.30521" x2="230.76976" y2="196.43693" gradientUnits="userSpaceOnUse" id="color-4"><stop offset="0" stop-color="#f50000"/><stop offset="1" stop-color="#be0000"/></linearGradient><linearGradient x1="257.93857" y1="159.71104" x2="257.93857" y2="179.23287" gradientUnits="userSpaceOnUse" id="color-5"><stop offset="0" stop-color="#f50000"/><stop offset="1" stop-color="#be0000"/></linearGradient><linearGradient x1="235.20649" y1="182.62892" x2="235.20649" y2="189.95703" gradientUnits="userSpaceOnUse" id="color-6"><stop offset="0" stop-color="#ffffff"/><stop offset="1" stop-color="#cecece"/></linearGradient><linearGradient x1="229.93667" y1="182.62892" x2="229.93667" y2="190.25114" gradientUnits="userSpaceOnUse" id="color-7"><stop offset="0" stop-color="#ffffff"/><stop offset="1" stop-color="#cecece"/></linearGradient></defs><g transform="translate(-210.9057,-159.09013)"><g data-paper-data="{&quot;isPaintingLayer&quot;:true}" fill-rule="nonzero" stroke-linecap="butt" stroke-linejoin="miter" stroke-miterlimit="10" stroke-dasharray="" stroke-dashoffset="0" style="mix-blend-mode: normal"><path d="M244.85083,192.77913c2.93839,0 5.32043,1.45645 5.32043,3.25308c0,1.11488 -0.07793,2.19636 -1.18845,2.83393c-1.23357,0.70821 -6.86535,0.51502 -8.01295,-0.02707c-1.33107,-0.62876 -1.43947,-1.54311 -1.43947,-2.80686c0,-1.79663 2.38204,-3.25308 5.32043,-3.25308z" data-paper-data="{&quot;origPos&quot;:null,&quot;index&quot;:null}" fill="#d9d900" stroke="#c1c100" stroke-width="1"/><path d="M249.21315,198.85768c0,0.27198 -1.93833,0.49246 -4.32939,0.49246c-2.39105,0 -4.32939,-0.22048 -4.32939,-0.49246c0,-0.27198 1.93833,-0.49246 4.32939,-0.49246c2.39105,0 4.32939,0.22048 4.32939,0.49246z" data-paper-data="{&quot;origPos&quot;:null}" fill="#c1c100" stroke="none" stroke-width="0"/><path d="M231.5293,167.10493c2.01903,0.18034 4.47317,1.64642 4.3953,2.51827c-0.07788,0.87185 -2.55173,-0.37368 -4.57075,-0.55402c-2.01903,-0.18034 -4.72182,1.13725 -4.64394,0.2654c0.07788,-0.87185 2.80037,-2.40999 4.8194,-2.22965z" data-paper-data="{&quot;origPos&quot;:null,&quot;index&quot;:null,&quot;origRot&quot;:0}" fill="url(#color-1)" stroke="#b30000" stroke-width="1"/><path d="M231.26644,169.20571c4.14627,0 8.57216,2.8748 8.57216,4.61521c0,1.74041 -4.42589,0.88887 -8.57216,0.88887c-4.14627,0 -8.70524,0.85154 -8.70524,-0.88887c0,-1.74041 4.55898,-4.61521 8.70524,-4.61521z" data-paper-data="{&quot;origPos&quot;:null,&quot;index&quot;:null}" fill="url(#color-2)" stroke="#b30000" stroke-width="1"/><path d="M247.46269,175.38436c1.67767,0 3.0377,1.27502 3.0377,2.84784c0,1.57282 -1.36003,2.84784 -3.0377,2.84784c-1.67767,0 -3.0377,-1.27502 -3.0377,-2.84784c0,-1.57282 1.36003,-2.84784 3.0377,-2.84784z" data-paper-data="{&quot;origPos&quot;:null,&quot;index&quot;:null}" fill="url(#color-3)" stroke="#b30000" stroke-width="1"/><path d="M230.76976,173.30521c9.12015,0 16.51349,5.17821 16.51349,11.56586c0,2.60276 -0.21059,5.65181 -1.97212,7.63986c-3.93869,4.44518 -8.43891,3.926 -14.54137,3.926c-6.19791,0 -10.29308,0.24647 -14.19734,-4.34407c-1.65911,-1.95074 -2.31615,-4.71006 -2.31615,-7.2218c0,-6.38765 7.39334,-11.56586 16.51349,-11.56586z" data-paper-data="{&quot;origPos&quot;:null,&quot;index&quot;:null}" fill="url(#color-4)" stroke="#b30000" stroke-width="1"/><path d="M248.99295,176.67332c-3.15195,-5.01033 -1.52167,-9.6955 1.45524,-13.12207c3.06815,-3.53159 7.04774,-4.30125 12.07991,-3.84021c5.03217,0.46104 6.06619,5.50271 6.06619,5.50271c0,0 -4.52867,0.68058 -6.78719,1.614c-2.22977,0.92154 -4.71352,3.13911 -4.71352,3.13911c0,0 3.36935,2.23361 5.73926,3.16542c1.64889,0.64832 4.5584,0.88345 4.5584,0.88345c0,0 -4.02353,3.48855 -7.49303,4.49395c-3.91054,1.13321 -8.73727,1.60984 -10.90525,-1.83638z" data-paper-data="{&quot;origPos&quot;:null,&quot;origRot&quot;:0,&quot;index&quot;:null}" fill="url(#color-5)" stroke="#b30000" stroke-width="1"/><path d="M232.78911,182.5718c5.4308,0 9.83333,2.74789 9.83333,6.13758c0,3.38969 -4.40253,6.13758 -9.83333,6.13758c-5.4308,0 -9.83333,-2.74789 -9.83333,-6.13758c0,-3.38969 4.40253,-6.13758 9.83333,-6.13758z" data-paper-data="{&quot;origPos&quot;:null,&quot;index&quot;:null}" fill="#000000" stroke="#b30000" stroke-width="0.5"/><path d="M238.52539,185.26709c0,2.05508 -1.38472,4.68994 -3.16315,4.68994c-1.77843,0 -3.22013,-1.66597 -3.22013,-3.72105c0,-2.05508 -0.95203,-3.60706 0.8264,-3.60706c1.77843,0 5.55688,0.58309 5.55688,2.63817z" data-paper-data="{&quot;origPos&quot;:null,&quot;index&quot;:null}" fill="url(#color-6)" stroke="#cecece" stroke-width="0.5"/><path d="M226.64207,185.64591c0,-2.12106 3.01741,-3.01699 4.85294,-3.01699c1.83553,0 1.73529,1.66064 1.73529,3.7817c0,2.12106 -1.488,3.84052 -3.32353,3.84052c-1.83554,0 -3.26471,-2.48417 -3.26471,-4.60523z" data-paper-data="{&quot;origPos&quot;:null,&quot;index&quot;:null}" fill="url(#color-7)" stroke="#cecece" stroke-width="0.5"/><path d="M235.94598,183.46732c0.82843,0 1.5,0.82959 1.5,1.85294c0,1.02335 -0.67157,1.85294 -1.5,1.85294c-0.82843,0 -1.5,-0.82959 -1.5,-1.85294c0,-1.02335 0.67157,-1.85294 1.5,-1.85294z" data-paper-data="{&quot;origPos&quot;:null,&quot;index&quot;:null}" fill="#0062ca" stroke="none" stroke-width="0"/><path d="M231.18128,183.45189c0.82843,0 1.5,0.82959 1.5,1.85294c0,1.02335 -0.67157,1.85294 -1.5,1.85294c-0.82843,0 -1.5,-0.82959 -1.5,-1.85294c0,-1.02335 0.67157,-1.85294 1.5,-1.85294z" data-paper-data="{&quot;origPos&quot;:null,&quot;index&quot;:null}" fill="#0062ca" stroke="none" stroke-width="0"/><path d="M217.87492,192.45056c3.57285,0 6.4692,1.77093 6.4692,3.95548c0,1.35559 -0.09476,2.67059 -1.44505,3.44582c-1.49992,0.86113 -8.3477,0.62621 -9.74308,-0.03292c-1.61848,-0.76452 -1.75028,-1.87629 -1.75028,-3.4129c0,-2.18455 2.89637,-3.95548 6.46921,-3.95548z" data-paper-data="{&quot;origPos&quot;:null,&quot;index&quot;:null}" fill="#d9d900" stroke="#c1c100" stroke-width="1"/><path d="M223.70884,199.64605c0,0.30175 -2.56846,0.54636 -5.73681,0.54636c-3.16835,0 -5.73681,-0.24461 -5.73681,-0.54636c0,-0.30175 2.56846,-0.54637 5.73681,-0.54637c3.16835,0 5.73681,0.24462 5.73681,0.54637z" data-paper-data="{&quot;origPos&quot;:null}" fill="#c1c100" stroke="none" stroke-width="0"/></g></g></svg>