<svg version="1.1" xmlns="http://www.w3.org/2000/svg" xmlns:xlink="http://www.w3.org/1999/xlink" width="248.74644" height="134.08734" viewBox="0,0,248.74644,134.08734"><defs><linearGradient x1="164.52014" y1="213.87544" x2="145.70682" y2="213.87544" gradientUnits="userSpaceOnUse" id="color-1"><stop offset="0" stop-color="#e9eaf3"/><stop offset="1" stop-color="#9ca4ab"/></linearGradient><linearGradient x1="184.36622" y1="219.37587" x2="159.57552" y2="219.37587" gradientUnits="userSpaceOnUse" id="color-2"><stop offset="0" stop-color="#e9eaf3"/><stop offset="1" stop-color="#9ca4ab"/></linearGradient><radialGradient cx="256.23336" cy="241.26762" r="14.56944" gradientUnits="userSpaceOnUse" id="color-3"><stop offset="0" stop-color="#accac8"/><stop offset="1" stop-color="#839a99"/></radialGradient><linearGradient x1="241.06345" y1="238.34055" x2="244.65637" y2="242.67163" gradientUnits="userSpaceOnUse" id="color-4"><stop offset="0" stop-color="#d2d3db"/><stop offset="1" stop-color="#a3a5ab"/></linearGradient><linearGradient x1="233.42011" y1="232.6713" x2="239.8715" y2="240.44812" gradientUnits="userSpaceOnUse" id="color-5"><stop offset="0" stop-color="#d2d3db"/><stop offset="1" stop-color="#a3a5ab"/></linearGradient><radialGradient cx="275.8858" cy="239.73661" r="11.15763" gradientUnits="userSpaceOnUse" id="color-6"><stop offset="0" stop-color="#b6d6d4"/><stop offset="1" stop-color="#839a99"/></radialGradient><radialGradient cx="288.26978" cy="248.58996" r="5.68075" gradientUnits="userSpaceOnUse" id="color-7"><stop offset="0" stop-color="#b6d6d6"/><stop offset="1" stop-color="#89a19f"/></radialGradient><radialGradient cx="281.66698" cy="251.19095" r="5.57885" gradientUnits="userSpaceOnUse" id="color-8"><stop offset="0" stop-color="#b6d6d6"/><stop offset="1" stop-color="#89a19f"/></radialGradient><radialGradient cx="293.64964" cy="243.14069" r="5.28347" gradientUnits="userSpaceOnUse" id="color-9"><stop offset="0" stop-color="#b6d6d6"/><stop offset="1" stop-color="#89a19f"/></radialGradient><radialGradient cx="293.58643" cy="238.5276" r="3.24716" gradientUnits="userSpaceOnUse" id="color-10"><stop offset="0" stop-color="#b6d6d6"/><stop offset="1" stop-color="#89a19f"/></radialGradient><radialGradient cx="268.49745" cy="234.0946" r="3.61811" gradientUnits="userSpaceOnUse" id="color-11"><stop offset="0" stop-color="#d2d3db"/><stop offset="1" stop-color="#a3a5ab"/></radialGradient><radialGradient cx="269.16912" cy="231.94526" r="6.99881" gradientUnits="userSpaceOnUse" id="color-12"><stop offset="0" stop-color="#d2d3db"/><stop offset="1" stop-color="#a3a5ab"/></radialGradient><radialGradient cx="241.8523" cy="217.73169" r="12.46491" gradientUnits="userSpaceOnUse" id="color-13"><stop offset="0" stop-color="#645d46"/><stop offset="1" stop-color="#978d69"/></radialGradient><radialGradient cx="246.49602" cy="228.3212" r="14.40414" gradientUnits="userSpaceOnUse" id="color-14"><stop offset="0" stop-color="#645d46"/><stop offset="1" stop-color="#978d69"/></radialGradient><radialGradient cx="229.94938" cy="234.9563" r="18.36514" gradientUnits="userSpaceOnUse" id="color-15"><stop offset="0" stop-color="#645d46"/><stop offset="1" stop-color="#978d69"/></radialGradient><radialGradient cx="222.52501" cy="248.30638" r="18.81118" gradientUnits="userSpaceOnUse" id="color-16"><stop offset="0" stop-color="#645d46"/><stop offset="1" stop-color="#978d69"/></radialGradient><radialGradient cx="202.04405" cy="240.12415" r="16.1122" gradientUnits="userSpaceOnUse" id="color-17"><stop offset="0" stop-color="#645d46"/><stop offset="1" stop-color="#978d69"/></radialGradient><linearGradient x1="232.03503" y1="222.45325" x2="201.52177" y2="198.76263" gradientUnits="userSpaceOnUse" id="color-18"><stop offset="0" stop-color="#9299a0"/><stop offset="1" stop-color="#e5f0fb"/></linearGradient><radialGradient cx="212.18464" cy="191.71977" r="10.30069" gradientUnits="userSpaceOnUse" id="color-19"><stop offset="0" stop-color="#a6a7ad"/><stop offset="1" stop-color="#74757a"/></radialGradient><radialGradient cx="232.86079" cy="185.69046" r="9.21465" gradientUnits="userSpaceOnUse" id="color-20"><stop offset="0" stop-color="#a6a7ad"/><stop offset="1" stop-color="#74757a"/></radialGradient><radialGradient cx="229.72957" cy="192.98073" r="2.96811" gradientUnits="userSpaceOnUse" id="color-21"><stop offset="0" stop-color="#a6a7ad"/><stop offset="1" stop-color="#74757a"/></radialGradient><radialGradient cx="196.62694" cy="200.92589" r="13.1884" gradientUnits="userSpaceOnUse" id="color-22"><stop offset="0" stop-color="#a6a7ad"/><stop offset="1" stop-color="#74757a"/></radialGradient><radialGradient cx="204.5401" cy="203.87662" r="2.13332" gradientUnits="userSpaceOnUse" id="color-23"><stop offset="0" stop-color="#a6a7ad"/><stop offset="1" stop-color="#74757a"/></radialGradient><radialGradient cx="168.22984" cy="257.25492" r="16.61441" gradientUnits="userSpaceOnUse" id="color-24"><stop offset="0" stop-color="#accac8"/><stop offset="1" stop-color="#839a99"/></radialGradient><linearGradient x1="175.29535" y1="243.33749" x2="169.41568" y2="246.68117" gradientUnits="userSpaceOnUse" id="color-25"><stop offset="0" stop-color="#d2d3db"/><stop offset="1" stop-color="#a3a5ab"/></linearGradient><linearGradient x1="183.01692" y1="237.05348" x2="173.58231" y2="242.4188" gradientUnits="userSpaceOnUse" id="color-26"><stop offset="0" stop-color="#d2d3db"/><stop offset="1" stop-color="#a3a5ab"/></linearGradient><linearGradient x1="298.02021" y1="219.47274" x2="292.37948" y2="243.7153" gradientUnits="userSpaceOnUse" id="color-27"><stop offset="0" stop-color="#9da5ac"/><stop offset="1" stop-color="#838a90"/></linearGradient><linearGradient x1="295.11816" y1="165.89225" x2="285.66916" y2="206.50191" gradientUnits="userSpaceOnUse" id="color-28"><stop offset="0" stop-color="#d2d3db"/><stop offset="1" stop-color="#bdc0c7"/></linearGradient><radialGradient cx="302.78321" cy="184.15413" r="5.1506" gradientUnits="userSpaceOnUse" id="color-29"><stop offset="0" stop-color="#d5e20f"/><stop offset="1" stop-color="#d5e20f" stop-opacity="0"/></radialGradient><radialGradient cx="292.80911" cy="184.96922" r="6.53642" gradientUnits="userSpaceOnUse" id="color-30"><stop offset="0" stop-color="#d5e20f"/><stop offset="1" stop-color="#d5e20f" stop-opacity="0"/></radialGradient><linearGradient x1="305.55489" y1="183.79173" x2="294.01737" y2="233.37734" gradientUnits="userSpaceOnUse" id="color-31"><stop offset="0" stop-color="#e9eaf3"/><stop offset="1" stop-color="#9ca4ab"/></linearGradient><linearGradient x1="310.41862" y1="221.41452" x2="307.98154" y2="229.11178" gradientUnits="userSpaceOnUse" id="color-32"><stop offset="0" stop-color="#000000"/><stop offset="1" stop-color="#000000" stop-opacity="0"/></linearGradient><radialGradient cx="212.4215" cy="210.8559" r="4.28242" gradientUnits="userSpaceOnUse" id="color-33"><stop offset="0" stop-color="#d2d3db"/><stop offset="1" stop-color="#a3a5ab"/></radialGradient><radialGradient cx="216.96646" cy="208.25004" r="9.15743" gradientUnits="userSpaceOnUse" id="color-34"><stop offset="0" stop-color="#d2d3db"/><stop offset="1" stop-color="#a3a5ab"/></radialGradient><radialGradient cx="206.64196" cy="219.73446" r="12.54263" gradientUnits="userSpaceOnUse" id="color-35"><stop offset="0" stop-color="#b6d6d4"/><stop offset="1" stop-color="#839a99"/></radialGradient><radialGradient cx="198.515" cy="234.7944" r="6.38591" gradientUnits="userSpaceOnUse" id="color-36"><stop offset="0" stop-color="#b6d6d6"/><stop offset="1" stop-color="#89a19f"/></radialGradient><radialGradient cx="194.68295" cy="227.7975" r="6.27135" gradientUnits="userSpaceOnUse" id="color-37"><stop offset="0" stop-color="#b6d6d6"/><stop offset="1" stop-color="#89a19f"/></radialGradient><radialGradient cx="205.3511" cy="240.02566" r="5.9393" gradientUnits="userSpaceOnUse" id="color-38"><stop offset="0" stop-color="#b6d6d6"/><stop offset="1" stop-color="#89a19f"/></radialGradient><radialGradient cx="210.48691" cy="239.30451" r="3.65023" gradientUnits="userSpaceOnUse" id="color-39"><stop offset="0" stop-color="#b6d6d6"/><stop offset="1" stop-color="#89a19f"/></radialGradient><linearGradient x1="376.33964" y1="140.44772" x2="364.09944" y2="165.25053" gradientUnits="userSpaceOnUse" id="color-40"><stop offset="0" stop-color="#6b40c0"/><stop offset="1" stop-color="#252972"/></linearGradient><linearGradient x1="367.0001" y1="155.64925" x2="362.01594" y2="165.74884" gradientUnits="userSpaceOnUse" id="color-41"><stop offset="0" stop-color="#d62d2d"/><stop offset="1" stop-color="#8e1e1e"/></linearGradient></defs><g transform="translate(-145.33181,-135.68982)"><g data-paper-data="{&quot;isPaintingLayer&quot;:true}" fill-rule="nonzero" stroke-linejoin="miter" stroke-miterlimit="10" stroke-dasharray="" stroke-dashoffset="0" style="mix-blend-mode: normal"><g data-paper-data="{&quot;index&quot;:null}" stroke="#747474" stroke-width="0.75" stroke-linecap="butt"><path d="M149.9448,213.65683c0,-1.73998 -2.4774,-3.02732 -3.256,-4.35536c-1.52658,-2.60384 -1.49721,-4.53505 1.7013,-4.53505c2.29762,0 3.4083,0.80762 6.99803,2.57142c3.95629,1.94391 9.40067,3.9186 9.40067,3.9186c0,0 -2.99758,2.75241 -3.74311,4.69088c-0.83723,2.17691 -1.30582,6.93243 -1.30582,6.93243c0,0 -2.49174,0.1047 -3.18757,0.1047c-2.36056,0 -2.42003,-1.76756 -3.85095,-3.2822c-1.49685,-1.5844 -2.75655,-3.41168 -2.75655,-6.04543z" fill="url(#color-1)"/><path d="M161.2164,216.25136c0,-1.80412 3.49995,-5.19189 3.49995,-5.19189c0,0 3.48868,-0.93621 4.92002,-0.95178c1.53994,-0.01675 4.01766,0.85455 4.01766,0.85455c0,0 0.38924,5.18423 2.79411,8.77943c2.35589,3.52198 7.91809,5.83606 7.91809,5.83606l-5.38691,2.35225c0,0 -4.82381,-0.64702 -5.51964,-0.64702c-2.36056,0 -6.50112,2.39856 -7.93204,0.82808c-0.9656,-1.05977 -5.94768,-5.67323 -5.94768,-5.67323c0,0 -0.07664,-2.23404 0.40775,-4.04991c0.25584,-0.95911 1.22868,-1.80156 1.22868,-2.13654z" fill="url(#color-2)"/></g><g data-paper-data="{&quot;index&quot;:null}" stroke-width="0.75" stroke-linecap="butt"><path d="M238.40395,249.92582c0,0 -4.3073,-2.14114 -2.29528,-4.28975c0.27502,-0.2937 2.89964,-2.63079 2.89964,-2.63079l1.19954,1.41876c0,0 3.64527,-1.17131 4.07228,-1.52554c2.05318,-1.70326 3.14663,-3.85076 3.14663,-3.85076c0,0 1.33942,-0.80837 1.99916,-0.82076c0.77058,-0.01448 2.34369,0.73914 2.34369,0.73914c0,0 -0.88855,3.50647 -4.13946,6.20332c-2.82545,2.3439 -9.2262,4.75638 -9.2262,4.75638z" fill="#627372" stroke="#222828"/><path d="M242.88316,259.71306c0,0 -2.00407,0.11532 -3.28101,-1.12958c-0.93289,-0.90947 -1.16802,-3.10167 -1.48666,-3.83279c-0.46997,-1.07838 0.05638,-4.45603 0.05638,-4.45603l7.54268,-4.19551c0,0 2.15698,-1.22032 3.0283,-3.2541c0.81063,-1.89214 2.14299,-3.14576 2.31439,-3.28795c2.35109,-1.95038 4.83381,-3.35821 6.90784,-2.45865c1.13832,0.49371 2.57276,1.17035 3.47873,2.19849c1.53756,1.7449 2.22312,3.94629 2.22312,3.94629c0,0 -5.12727,5.79668 -10.95867,10.63421c-5.83139,4.83752 -9.82507,5.83562 -9.82507,5.83562z" fill="url(#color-3)" stroke="#4a5957"/><path d="M242.87521,259.71644c0,0 2.35237,-0.05404 5.82286,-2.8664c0.0735,-0.05957 7.34512,-5.8001 7.41378,-5.85706c2.92555,-2.42694 7.45176,-7.59603 7.45176,-7.59603l1.07883,1.52794c0,0 -2.20421,3.51621 -7.27286,7.72099c-5.06864,4.20477 -13.13546,8.72399 -13.13546,8.72399z" fill="#a06025" stroke="#3f260f"/><path d="M238.37351,241.63169c0,0 1.9162,-2.64926 2.63573,-3.24616c0.61128,-0.5071 4.04505,-2.16241 5.22171,-0.88689c0.47094,0.51049 -0.33469,1.17473 0.18767,1.22245c0.55764,0.05093 0.9769,0.32652 0.9769,0.32652c0,0 -1.44006,2.54635 -3.04813,3.88035c-1.60807,1.334 -4.16278,1.4257 -4.16278,1.4257z" fill="url(#color-4)" stroke="#747474"/><path d="M238.23046,241.80943c0,0 -1.83431,-0.84403 -2.43723,-1.40699c-0.28371,-0.26491 -0.8699,-1.1219 -1.88718,-1.67185c-1.49022,-0.80563 -2.39107,-0.64933 -3.15258,-0.89664c-0.2015,-0.06544 -1.39278,-0.93247 -1.39278,-0.93247c0,0 3.52377,-3.78584 4.2433,-4.38274c0.25867,-0.21458 1.66682,0.44117 3.14482,0.51619c2.01469,0.10225 4.27788,-0.2337 5.03258,0.59362c0.52364,0.57403 1.74708,3.41134 1.74708,3.41134c0,0 -1.76179,0.76632 -3.36986,2.10032c-0.53594,0.44459 -0.77004,1.08073 -1.05568,1.47612c-0.5714,0.79098 -0.87245,1.19312 -0.87245,1.19312z" fill="url(#color-5)" stroke="#747474"/></g><g data-paper-data="{&quot;index&quot;:null}" stroke-width="0.75" stroke-linecap="butt"><path d="M266.80034,242.28295c-0.39524,-1.44671 -0.2972,-3.14646 -0.3012,-3.25482c-0.03963,-1.07434 1.42539,-3.42609 2.96789,-4.93839c1.09039,-1.06905 2.63065,-1.58703 3.31692,-1.85817c1.755,-0.6934 4.34954,1.71035 4.34954,1.71035c0,0 1.89813,-0.5602 3.91586,-0.41311c2.20242,0.16055 7.73839,1.85258 7.645,2.19758c-0.05607,0.20715 -3.92474,1.35203 -2.96649,3.43206c0.68113,1.4785 3.07854,3.31302 3.07854,3.31302c0,0 -6.79416,-2.9586 -7.00697,-1.93818c-0.46987,2.25297 2.13219,5.03985 2.13219,5.03985l-1.00819,0.08357c0,0 -4.60515,-3.5607 -4.914,-2.97449c-1.47523,2.79999 0.73617,5.74477 0.73617,5.74477c0,0 -3.56003,0.2582 -5.92578,-0.60429c-2.10032,-0.76572 -3.18491,-2.12996 -3.18491,-2.12996c0,0 -0.79429,-0.42589 -1.45117,-1.07528c-0.64663,-0.63925 -1.15418,-1.49541 -1.38342,-2.33451z" fill="url(#color-6)" stroke="#4a5957"/><path d="M285.6656,248.88651c-0.78472,-1.98611 -5.47198,-7.83862 -4.04949,-8.40065c0.78087,-0.30853 4.15606,0.23013 6.34588,1.83917c1.79933,1.3221 1.85898,3.99637 2.21293,4.89222c0.78472,1.9861 0.90965,3.68578 -0.51284,4.24781c-0.84994,0.33581 -2.43436,0.52203 -3.25366,-0.17899c-0.55193,-0.47224 -0.42699,-1.60012 -0.74283,-2.39955z" fill="url(#color-7)" stroke="#4a5957"/><path d="M278.99604,251.45373c-0.07284,-0.60791 0.66411,-1.15683 0.40575,-2.1877c-0.28662,-1.14361 -1.26019,-2.18242 -1.65339,-3.36032c-0.54609,-1.63588 -0.32406,-3.30042 0.34675,-3.38078c0.8724,-0.10451 5.12998,3.27916 5.12998,3.27916c0,0 0.98699,2.48057 0.92514,3.75283c-0.01738,0.35757 -0.22652,3.5422 -1.81574,3.73258c-0.94955,0.11375 -1.78201,0.85897 -2.42472,-0.0685c-0.43297,-0.6248 -0.80679,-0.87416 -0.91378,-1.76727z" fill="url(#color-8)" stroke="#4a5957"/><path d="M290.82949,244.45851c-0.33404,-0.84546 -1.81901,-1.68296 -3.03858,-2.80202c-1.6217,-1.48802 -2.32794,-3.34978 -2.32794,-3.34978c0,0 1.33749,-3.04349 3.50921,-1.44776c0.62191,0.45696 1.82795,0.30209 2.82152,0.99338c0.81563,0.56748 1.40873,1.97136 2.0944,2.48282c0.87572,0.65322 1.44058,1.10462 1.56884,1.42925c0.77823,1.96969 0.90214,3.65531 -0.5086,4.21269c-0.84291,0.33304 -2.41424,0.51771 -3.22677,-0.17751c-0.54737,-0.46834 -0.57887,-0.54826 -0.8921,-1.34108z" fill="url(#color-9)" stroke="#4a5957"/><path d="M291.9876,238.11791c-1.42209,-0.88948 -4.21854,-1.85269 -4.21854,-1.85269l1.09769,-0.47506c0,0 1.03977,0.55191 1.58551,0.6999c1.06582,0.28903 2.40974,0.19488 3.0573,0.5999c1.4221,0.88947 0.39548,3.11199 0.39548,3.11199c0,0 -0.38201,-0.41332 -0.9214,-1.09023c-0.24067,-0.30202 -0.55728,-0.71938 -0.99603,-0.99381z" fill="url(#color-10)" stroke="#4a5957"/><path d="M266.48763,240.10133c0,0 -0.91876,-1.34787 -1.00522,-2.65269c-0.04001,-0.60388 0.49666,-1.25988 0.63765,-1.73803c0.44563,-1.51128 2.02819,-2.21862 2.79997,-2.68448c0.65568,-0.39578 1.61542,0.06258 1.61542,0.06258c0,0 -2.45442,2.4758 -2.49647,2.54865c-0.70393,1.2195 -1.55136,4.46397 -1.55136,4.46397z" data-paper-data="{&quot;index&quot;:null}" fill="url(#color-11)" stroke="#747474"/><path d="M268.73872,229.93642c0.1542,0.17501 0.37027,1.10129 0.82262,1.56222c0.61227,0.62389 1.10705,1.15637 1.11062,1.45594c0.00185,0.15493 -1.56426,-0.19551 -2.31554,0.36103c-0.37557,0.27821 -0.9655,0.51803 -1.40138,1.0288c-0.46946,0.55012 -0.94096,1.17543 -1.17422,1.82838c-0.41656,1.16604 -0.37785,2.2882 -0.37785,2.2882c0,0 -1.27802,-0.00007 -1.7639,-0.46099c-0.32404,-0.3074 -1.02193,-1.25438 -1.26063,-2.25171c-0.25608,-1.06994 -0.04269,-2.21509 -0.07877,-3.21945c-0.00296,-0.08264 -0.59011,-1.15974 -0.58868,-1.23543c0.01148,-0.60828 -1.36812,-2.75034 -1.07175,-4.30034c0.18659,-0.97584 1.90129,-1.40896 2.33321,-2.04423c0.41522,-0.6107 2.64139,-0.47192 2.64139,-0.47192c0,0 0.64247,0.56385 1.20257,1.03835c0.26162,0.22164 0.50529,0.4238 0.6571,0.53988c0.3616,0.2765 0.6559,1.28532 0.9294,1.86456c0.43289,0.91681 0.11422,1.76525 0.3358,2.01672z" data-paper-data="{&quot;index&quot;:null}" fill="url(#color-12)" stroke="#747474"/></g><g data-paper-data="{&quot;index&quot;:null}" stroke-linecap="butt"><path d="M198.31827,195.67449c5.80302,-11.81457 19.1807,-17.13202 29.87991,-11.87685c10.69921,5.25517 21.77719,1.97347 15.97418,13.78805c-5.80301,11.81458 -41.84482,26.98248 -52.54403,21.72731c-10.6992,-5.25517 0.88694,-11.82393 6.68995,-23.63851z" fill="#000000" stroke="#000000" stroke-width="0.5"/><path d="M240.04351,207.25706l5.57752,-2.69634l5.97911,4.15998c0,0 6.92027,8.4043 4.99722,14.50079c-0.03538,0.11214 -5.28075,11.25601 -13.26869,17.46234c-10.9823,8.53285 -26.14717,12.61688 -30.98485,10.24073c-2.48131,-1.21876 -9.23737,-3.95823 -13.51356,-8.63767c-4.19054,-4.58572 -5.95176,-11.0804 -3.60763,-15.3809c3.31957,-6.09003 27.40661,-12.15176 27.40661,-12.15176z" fill="#000000" stroke="none" stroke-width="0"/><path d="M241.92351,221.55095c-1.62887,-2.3461 -3.34083,-5.89434 -4.1946,-8.59723c-0.70462,-2.2307 -0.6973,-3.8764 -0.6973,-3.8764c0,0 1.76996,-0.91286 2.61454,-1.29404c0.88325,-0.39864 2.57414,-1.04777 2.57414,-1.04777c0,0 2.3634,9.03375 5.16195,11.44581c2.79855,2.41206 8.59962,5.90256 8.59962,5.90256c0,0 -0.48745,1.5374 -0.88919,2.25071c-0.44026,0.78171 -1.64742,2.25314 -1.64742,2.25314c0,0 -8.54857,-2.75444 -11.52175,-7.03678z" fill="url(#color-13)" stroke="none" stroke-width="NaN"/><path d="M250.26342,232.58204c0,0 -10.37594,-3.63507 -12.5018,-6.97483c-1.87268,-2.94201 -3.89067,-6.98506 -4.51696,-8.08637c-1.74661,-3.07133 -1.80986,-7.66304 -1.80986,-7.66304l5.35063,-1.42243c0,0 1.9312,9.59273 5.91384,13.02536c2.79855,2.41206 10.96836,7.03401 10.96836,7.03401c0,0 -1.18491,1.94322 -1.79875,2.68024c-0.49523,0.59462 -1.60546,1.40708 -1.60546,1.40708z" fill="url(#color-14)" stroke="none" stroke-width="NaN"/><path d="M224.83251,235.48546c-6.32834,-5.68301 -11.35473,-15.50882 -11.35473,-15.50882l7.10196,-3.41518c0,0 2.27978,4.35459 6.26242,7.78722c2.79856,2.41205 6.63483,8.14554 10.2885,9.55144c3.65366,1.4059 8.66109,4.34957 8.66109,4.34957c0,0 -5.82405,6.2472 -8.15507,6.55251c-3.01521,0.39494 -6.47584,-3.63373 -12.80417,-9.31673z" fill="url(#color-15)" stroke="none" stroke-width="NaN"/><path d="M208.47258,238.78012c-3.48916,-5.00512 -6.0078,-14.43329 -6.0078,-14.43329l7.76299,-3.00619c0,0 2.45308,9.35466 7.22931,14.75806c4.06434,4.59802 14.81602,11.20304 14.81602,11.20304c0,0 -3.65707,2.14646 -5.60885,2.79362c-1.83258,0.60764 -5.76676,0.97824 -5.76676,0.97824c0,0 -8.93575,-7.28836 -12.42491,-12.29348z" fill="url(#color-16)" stroke="none" stroke-width="NaN"/><path d="M206.35585,248.03224c-3.63312,-1.68877 -8.91803,-7.04561 -8.91803,-7.04561c-2.97318,-4.28234 -1.608,-14.30554 -1.608,-14.30554l4.12881,-2.1371c0,0 -1.57978,7.22614 2.9086,13.95012c0.05985,0.08966 3.54993,4.10655 7.4725,7.61364c3.22402,2.88254 7.02282,5.38512 7.02282,5.38512l-4.76282,-0.3029c0,0 -3.93296,-2.08357 -6.24388,-3.15774z" fill="url(#color-17)" stroke="none" stroke-width="NaN"/><path d="M227.38327,198.91858c0,0 7.14553,-3.18536 7.61107,-3.34422c2.00538,-0.68429 9.66267,-2.33654 9.66267,-2.33654c0,0 -0.71561,2.61437 -0.27303,6.27014c0.32619,2.6943 2.01012,4.45096 2.01012,4.45096c0,0 -10.69206,5.15165 -21.97462,10.09136c-5.80911,2.54335 -11.56031,5.95982 -17.14953,8.15003c-9.6623,3.7863 -17.68187,5.74291 -19.49033,4.85464c-1.64848,-0.80968 -5.58156,-6.43151 0.28441,-10.12967c11.52171,-7.26378 39.31923,-18.00667 39.31923,-18.00667z" fill="url(#color-18)" stroke="#747474" stroke-width="1"/><path d="M212.80701,187.90721l1.88854,1.77891l1.87042,-4.00806l4.15099,-0.96764c0,0 4.1699,2.82454 4.19374,5.49148c0.01935,2.16462 -0.71747,4.66716 -1.09213,5.42994c-1.67168,3.40345 -11.4645,7.87708 -13.99898,6.63221c-1.48859,-0.73117 -2.99964,-4.60839 -2.24587,-7.41286c0.5296,-1.97042 2.08426,-6.17466 2.08426,-6.17466z" fill="url(#color-19)" stroke="#343434" stroke-width="0.75"/><path d="M231.71586,191.11128c0,0 -1.78615,-2.80471 -2.70185,-3.93093c-1.30331,-1.60296 -3.22076,-2.46021 -2.46598,-3.36703c1.28508,-1.54396 8.42173,-1.55023 10.49505,0.17546c0.46468,0.38676 5.31729,1.17635 5.93276,2.588c0.7583,1.73923 1.69573,3.94383 1.69573,3.94383c0,0 -2.26142,2.38597 -3.66511,2.50086c-0.5822,0.04765 -4.89403,-0.7674 -4.89403,-0.7674l-2.94672,-1.40184z" data-paper-data="{&quot;index&quot;:null}" fill="url(#color-20)" stroke="#343434" stroke-width="0.75"/><path d="M227.3273,195.85543l1.30675,-4.92873c0,0 1.17916,-0.06023 2.06328,0.34025c0.6843,0.30997 2.79726,1.86143 2.79726,1.86143z" fill="url(#color-21)" stroke="#343434" stroke-width="0.75"/><path d="M199.12915,208.77931c0,0 -3.66461,1.74978 -5.21539,2.71074c-2.20721,1.36772 -3.875,3.6878 -4.5278,2.51935c-1.11146,-1.9894 1.73198,-11.28021 4.37586,-13.62507c0.59254,-0.52553 3.36131,-6.6801 5.09253,-7.19172c2.13296,-0.63037 4.82716,-1.39845 4.82716,-1.39845c0,0 1.60758,3.43292 1.16791,5.28362c-0.18238,0.76762 -2.76196,6.21301 -2.76196,6.21301l-2.6519,3.54816z" data-paper-data="{&quot;index&quot;:null}" fill="url(#color-22)" stroke="#343434" stroke-width="0.75"/><path d="M202.99601,206.70247l0.93923,-3.54253c0,0 0.84753,-0.04329 1.48299,0.24456c0.49185,0.2228 2.01053,1.33791 2.01053,1.33791z" fill="url(#color-23)" stroke="#343434" stroke-width="0.75"/></g><g data-paper-data="{&quot;index&quot;:null}" stroke-width="0.75" stroke-linecap="butt"><path d="M165.88691,249.76691c-2.24395,-3.94587 -3.12575,-10.81141 -3.12575,-10.81141c0,0 3.63028,-4.41702 5.56733,-1.90816c0.26478,0.34295 2.25914,3.55087 2.25914,3.55087l-1.93187,1.12011c0,0 0.39791,4.16675 0.69266,4.68504c1.41722,2.49211 3.59019,3.99189 3.59019,3.99189c0,0 0.57837,1.58362 0.42218,2.30997c-0.18243,0.84839 -1.45029,2.47136 -1.45029,2.47136c0,0 -3.77964,-1.46381 -6.0236,-5.40968z" fill="#627372" stroke="#222828"/><path d="M150.27576,241.89599c0,0 0.31993,-2.30195 2.04715,-3.53078c1.26187,-0.89775 3.84812,-0.76977 4.76499,-1.00052c1.35235,-0.34034 5.13623,0.86834 5.13623,0.86834l3.14238,9.34267c0,0 0.92234,2.67545 3.07537,4.03426c2.00307,1.26416 3.15037,3.00697 3.27591,3.22773c1.72205,3.02812 2.78738,6.10816 1.27896,8.30661c-0.82789,1.2066 -1.9341,2.71726 -3.32698,3.56294c-2.36391,1.43524 -5.06265,1.8183 -5.06265,1.8183c0,0 -5.53872,-6.88225 -9.80991,-14.39291c-4.27119,-7.51065 -4.52145,-12.2366 -4.52145,-12.2366z" fill="url(#color-24)" stroke="#4a5957"/><path d="M150.27368,241.88635c0,0 -0.46947,2.68735 1.99548,7.1452c0.05221,0.09443 5.04116,9.40739 5.09145,9.49582c2.1428,3.76799 7.09226,9.85285 7.09226,9.85285l-2.00949,0.95224c0,0 -3.56458,-3.14353 -7.2771,-9.67178c-3.71252,-6.52826 -7.11043,-16.52595 -7.11043,-16.52595z" fill="#a06025" stroke="#3f260f"/><path d="M172.33265,240.11068c0,0 2.45407,2.33237 2.92707,3.16412c0.40185,0.70663 1.31414,4.54377 -0.45036,5.65464c-0.7062,0.4446 -1.2312,-0.48623 -1.43005,0.06434c-0.21227,0.58774 -0.63934,1.00337 -0.63934,1.00337c0,0 -2.47031,-1.81432 -3.52741,-3.67317c-1.0571,-1.85884 -0.45103,-4.58748 -0.45103,-4.58748z" fill="url(#color-25)" stroke="#747474"/><path d="M172.6557,240.78941c0,0 1.32073,-1.63386 2.03925,-2.14825c0.33812,-0.24205 1.34515,-0.71765 2.15915,-1.61727c1.19245,-1.31786 1.2725,-2.16549 1.7181,-2.85194c0.1179,-0.18162 1.29327,-1.21745 1.29327,-1.21745c0,0 2.849,3.56714 3.25529,4.28157c0.14605,0.25683 -0.87561,1.51047 -1.33709,2.87489c-0.62905,1.85986 -0.88662,3.98487 -1.9082,4.61904c-0.70881,0.44003 -3.85517,1.34953 -3.85517,1.34953c0,0 -0.30233,-1.69422 -1.21032,-3.29088c-0.30262,-0.53214 -0.87499,-0.7996 -1.19411,-1.09577c-0.63837,-0.59247 -0.96016,-0.90346 -0.96016,-0.90346z" fill="url(#color-26)" stroke="#747474"/></g><g data-paper-data="{&quot;index&quot;:null}" stroke-linecap="butt"><path d="M277.90139,218.6872c0.92507,-3.97574 11.46329,-4.92119 23.53777,-2.11171c6.50861,1.51442 14.41847,3.35836 18.07773,5.7763c3.12924,2.06772 2.53648,4.67676 2.11006,6.50942c-0.92507,3.97574 -11.46328,4.92119 -23.53776,2.11171c-6.45981,-1.50306 -13.78103,0.03682 -17.44207,-2.36114c-3.18207,-2.08425 -3.17588,-8.07584 -2.74572,-9.92458z" fill="#000000" stroke="none" stroke-width="0"/><path d="M274.42308,223.055l5.56444,5.73932c0,0 1.96686,-12.43819 2.97557,-12.79185c0.73448,-0.25751 3.19139,4.14043 5.69761,6.62618c1.86264,1.84743 4.26154,3.40746 4.26154,3.40746l2.97535,2.33719l2.7394,-6.32793c0,0 10.36581,0.28558 13.79607,1.27739c3.25276,0.94048 10.49176,2.1347 10.49176,2.1347c0,0 -0.48742,5.09116 -3.41752,8.11022c-5.61735,5.78791 -18.4066,12.17687 -27.04351,10.16725c-5.65734,-1.31635 -11.66361,-4.30016 -15.01025,-7.52597c-4.42762,-4.26776 -7.2184,-10.78544 -7.2184,-10.78544z" fill="url(#color-27)" stroke="none" stroke-width="0"/><path d="M273.94197,181.10665c1.34145,-5.76525 6.25527,-11.99068 10.26653,-14.29611c2.69929,-1.55139 3.41433,-1.11725 5.72346,-0.67344c2.30913,0.44382 4.19307,2.40775 4.19307,2.40775c0,0 4.04463,-3.59098 7.70606,-0.43994c3.66143,3.15104 3.10347,6.27207 4.39354,10.85291c1.3794,4.89801 1.30212,9.40118 1.30212,9.40118c0,0 -6.98567,3.52226 -11.31271,6.18351c-2.20762,1.35774 -13.36446,8.59155 -15.47866,8.09962c-2.87152,-0.66814 -10.45582,0.27895 -10.45582,0.27895c0,0 2.44799,-16.59513 3.66242,-21.81445z" fill="url(#color-28)" stroke="#747474" stroke-width="1"/><path d="M305.92998,189.0628l-4.37316,1.58221c0,0 -1.29525,-6.24028 -1.50815,-9.55233c-0.07833,-1.21855 -0.63197,-2.91451 -0.62755,-4.38334c0.00699,-2.32424 0.60934,-4.26639 0.60934,-4.26639c0,0 1.44703,1.33531 3.33355,3.63822c1.19721,1.46145 1.25125,3.90324 1.6552,5.10298c0.84261,2.50254 0.91078,7.87865 0.91078,7.87865z" fill="#000000" stroke="none" stroke-width="0"/><path d="M302.15761,178.76835c1.2333,-0.09085 2.40903,2.22388 2.62607,5.1701c0.21705,2.94621 -0.6068,5.40824 -1.8401,5.49909c-1.2333,0.09086 -2.40903,-2.22386 -2.62607,-5.17008c-0.21704,-2.94622 0.6068,-5.40826 1.8401,-5.49911z" fill="url(#color-29)" stroke="none" stroke-width="0"/><path d="M282.66913,182.73704c0.62322,-2.67846 0.92069,-8.27811 2.19742,-9.94013c1.49572,-1.94711 3.93518,-2.26406 5.54385,-1.88975c2.9818,0.69381 6.62292,15.92668 5.26958,21.74305c-1.35335,5.81637 -6.63435,5.48268 -9.61615,4.78888c-2.98181,-0.6938 -4.74804,-8.88566 -3.3947,-14.70203z" fill="#000000" stroke="none" stroke-width="0"/><path d="M289.67998,185.11304c-0.27544,-3.73892 0.77006,-6.86338 2.33519,-6.97868c1.56513,-0.1153 3.0572,2.82224 3.33264,6.56116c0.27545,3.73893 -0.77006,6.86338 -2.33519,6.97868c-1.56513,0.1153 -3.05719,-2.82223 -3.33263,-6.56115z" fill="url(#color-30)" stroke="none" stroke-width="0"/><path d="M263.2425,219.16171c0.49407,-2.12339 0.35318,-5.32766 1.22267,-8.40515c0.64762,-2.2922 2.1024,-4.4984 3.47861,-6.21907c2.70849,-3.3864 11.1945,-3.07002 13.46606,-2.66021c2.27156,0.40982 13.64257,-8.03449 20.30696,-11.01239c9.61762,-4.2975 7.95661,-4.48759 15.02053,-4.29544c7.09042,0.19289 14.79588,9.94097 17.02698,14.61437c0.90676,1.89935 1.14556,8.79574 -1.11173,14.98972c-2.58199,7.08492 -7.77845,13.43128 -7.77845,13.43128c0,0 -2.39433,-5.73932 -12.55768,-8.37018c-1.07461,-0.27817 -11.77617,-0.83306 -11.77617,-0.83306c0,0 -3.47864,8.42248 -5.22096,8.26133c-1.87262,-0.1732 -5.65208,-9.26699 -5.65208,-9.26699l-2.65911,1.23716c0,0 -2.30151,-3.95961 -3.63862,-4.38945c-0.51556,-0.16574 -2.14561,12.63426 -2.77547,12.46764c-1.73794,-0.45975 -5.24678,-5.11947 -5.24678,-5.11947l-3.83602,3.96511c0,0 -2.04886,0.63049 -3.65233,-0.57799c-2.5825,-1.94634 -4.90916,-6.55897 -4.6164,-7.81717z" fill="url(#color-31)" stroke="#747474" stroke-width="1"/><path d="M302.33857,181.55078c0.74181,-0.05464 1.449,1.33764 1.57955,3.10976c0.13055,1.77212 -0.36499,3.25301 -1.1068,3.30765c-0.74181,0.05464 -1.449,-1.33764 -1.57955,-3.10976c-0.13055,-1.77212 0.36498,-3.253 1.1068,-3.30765z" fill="#d5e20f" stroke="none" stroke-width="0"/><path d="M291.15793,185.02681c-0.1417,-1.92341 0.39614,-3.53073 1.20129,-3.59005c0.80516,-0.05932 1.57272,1.45184 1.71441,3.37525c0.14169,1.92341 -0.39615,3.53073 -1.2013,3.59004c-0.80515,0.05931 -1.57272,-1.45184 -1.71441,-3.37525z" fill="#d5e20f" stroke="none" stroke-width="0"/><path d="M318.14732,192.695c2.85481,0.66425 3.96112,4.26533 3.96112,4.26533c0,0 -2.21598,0.10358 -5.07079,-0.56067c-2.85481,-0.66425 -3.7512,-0.90965 -3.40398,-2.40194c0.34722,-1.49229 1.65884,-1.96697 4.51365,-1.30272z" fill="#000000" stroke="#73797e" stroke-width="1"/><path d="M300.84173,220.95502c0,0 4.20056,0.22089 8.94342,0.53659c1.67808,0.11171 3.28449,0.355 4.65987,0.62277c2.51194,0.48907 3.58384,1.43171 3.58384,1.43171c0,0 1.45766,0.69241 2.04422,1.01869c0.51608,0.28707 1.81149,1.95217 1.81149,1.95217c0,0 -9.82395,-1.45005 -12.57783,-1.63335c-2.34907,-0.15637 -10.14532,-0.13281 -10.14532,-0.13281z" fill="url(#color-32)" stroke="none" stroke-width="0"/></g><g data-paper-data="{&quot;index&quot;:null}" stroke-width="0.75" stroke-linecap="butt"><path d="M205.76159,208.59991c0,0 1.85316,-1.07587 3.57095,-1.06533c0.79501,0.00488 1.60359,0.77029 2.21668,1.00039c1.9378,0.72727 2.71439,2.86787 3.25152,3.92327c0.45633,0.89664 -0.23528,2.1106 -0.23528,2.1106c0,0 -3.01093,-3.45073 -3.10237,-3.51273c-1.531,-1.03799 -5.70151,-2.45619 -5.70151,-2.45619z" data-paper-data="{&quot;index&quot;:null}" fill="url(#color-33)" stroke="#747474"/><path d="M218.86609,212.51391c-0.24393,0.18543 -1.47805,0.38063 -2.12489,0.92956c-0.87552,0.743 -1.62015,1.34074 -2.01297,1.31699c-0.20316,-0.01228 0.4046,-2.03096 -0.2533,-3.06811c-0.32888,-0.51846 -0.5871,-1.31417 -1.21495,-1.93372c-0.67624,-0.66728 -1.45077,-1.34437 -2.28414,-1.71196c-1.48822,-0.65643 -2.96215,-0.71219 -2.96215,-0.71219c0,0 0.12136,-1.67446 0.77137,-2.26733c0.43351,-0.39539 1.74047,-1.2199 3.06984,-1.43801c1.42615,-0.23399 2.90629,0.15425 4.22562,0.20229c0.10856,0.00396 1.5755,-0.66311 1.67454,-0.65406c0.79589,0.07277 3.73333,-1.53153 5.73603,-0.99614c1.26085,0.33706 1.66563,2.62477 2.45696,3.25096c0.76074,0.60197 0.36766,3.50555 0.36766,3.50555c0,0 -0.79972,0.78826 -1.47457,1.47708c-0.31523,0.32176 -0.60322,0.62182 -0.76972,0.80971c-0.39658,0.44753 -1.74627,0.7374 -2.53114,1.04078c-1.24228,0.48018 -2.32368,-0.01785 -2.67419,0.24859z" data-paper-data="{&quot;index&quot;:null}" fill="url(#color-34)" stroke="#747474"/><path d="M202.52068,209.96109c1.55769,-0.64484 3.46716,-0.77525 3.58744,-0.79499c1.19257,-0.19573 4.02198,1.10642 5.92614,2.61338c1.34604,1.06527 2.14096,2.70999 2.54015,3.43711c1.02085,1.85946 -1.29397,5.09205 -1.29397,5.09205c0,0 0.89249,2.03787 1.01304,4.30888c0.13159,2.47888 -0.97462,8.89151 -1.37255,8.83602c-0.23893,-0.03332 -2.06142,-4.18636 -4.246,-2.82429c-1.55281,0.96816 -3.26062,3.90062 -3.26062,3.90062c0,0 2.34128,-7.99447 1.17324,-8.08788c-2.5789,-0.20625 -5.31994,3.08877 -5.31994,3.08877l-0.23541,-1.1126c0,0 3.32151,-5.63811 2.62419,-5.89987c-3.33076,-1.25031 -6.303,1.63129 -6.303,1.63129c0,0 -0.79009,-3.9339 -0.16188,-6.69394c0.55773,-2.45037 1.92621,-3.85238 1.92621,-3.85238c0,0 0.36295,-0.94589 0.99453,-1.77007c0.62171,-0.81132 1.50495,-1.49811 2.40842,-1.87213z" fill="url(#color-35)" stroke="#4a5957"/><path d="M197.81696,231.93191c2.10431,-1.15529 7.9702,-7.20821 8.79763,-5.70106c0.45422,0.82734 0.32953,4.6675 -1.15607,7.33663c-1.22067,2.19316 -4.19473,2.63689 -5.1439,3.15799c-2.10432,1.15529 -3.98226,1.53434 -4.80969,0.02719c-0.49439,-0.90052 -0.92555,-2.64128 -0.2593,-3.65388c0.44883,-0.68215 1.72431,-0.70188 2.57132,-1.16688z" fill="url(#color-36)" stroke="#4a5957"/><path d="M194.01317,224.85582c0.6677,-0.16696 1.38382,0.5775 2.49706,0.14395c1.23497,-0.48094 2.25618,-1.71323 3.51437,-2.31789c1.74738,-0.83977 3.63507,-0.82693 3.81931,-0.09014c0.23959,0.95819 -2.93351,6.1837 -2.93351,6.1837c0,0 -2.62724,1.45059 -4.05484,1.56107c-0.40123,0.03106 -3.98237,0.247 -4.41885,-1.49853c-0.26079,-1.04294 -1.20931,-1.86623 -0.26561,-2.71383c0.63575,-0.57099 0.86111,-1.02306 1.84207,-1.26835z" fill="url(#color-37)" stroke="#4a5957"/><path d="M203.48361,237.06639c0.89579,-0.49179 1.62035,-2.26601 2.69636,-3.78398c1.43078,-2.01848 3.40749,-3.06871 3.40749,-3.06871c0,0 3.58289,1.06236 2.10957,3.70943c-0.4219,0.75802 -0.07906,2.08121 -0.70989,3.2868c-0.51784,0.98968 -1.99987,1.84915 -2.47356,2.68597c-0.60498,1.06878 -1.02873,1.7624 -1.37268,1.95123c-2.08692,1.14573 -3.94932,1.52167 -4.76992,0.02697c-0.4903,-0.89308 -0.91789,-2.61945 -0.25715,-3.62368c0.44511,-0.6765 0.5298,-0.72292 1.36981,-1.18407z" fill="url(#color-38)" stroke="#4a5957"/><path d="M210.71831,237.46365c0.79141,-1.71145 1.47119,-4.96603 1.47119,-4.96603l0.68464,1.15719c0,0 -0.46886,1.23744 -0.55693,1.86695c-0.17201,1.22941 0.12255,2.71494 -0.23782,3.49425c-0.79139,1.71145 -3.41485,0.88 -3.41485,0.88c0,0 0.40707,-0.48434 1.08591,-1.18137c0.30288,-0.311 0.72368,-0.72297 0.96785,-1.25099z" fill="url(#color-39)" stroke="#4a5957"/></g><g data-paper-data="{&quot;index&quot;:null}"><path d="M376.46776,140.51095c16.57965,8.18207 18.31177,28.44269 14.93118,35.29292c-3.38059,6.85023 -12.40115,-10.43876 -28.9808,-18.62083c-16.57965,-8.18207 -25.04971,-3.63783 -21.66911,-10.48806c3.3806,-6.85023 19.13909,-14.3661 35.71873,-6.18403z" fill="url(#color-40)" stroke="#9c9f00" stroke-width="2.5" stroke-linecap="butt"/><path d="M378.43295,147.33389c0.65808,0.8805 0.72899,2.53674 0.72899,2.53674l-2.60513,-1.17668l0.76843,1.2516c0,0 -1.3885,-0.47758 -2.18332,-0.96284c-0.79482,-0.48527 -0.54567,-0.74076 -0.86566,-0.89868c-0.59858,-0.2954 -0.95854,-1.22776 -1.24057,-1.83274c-0.19273,-0.41345 0.33395,-0.85323 0.53583,-1.26229c0.22645,-0.45888 0.73524,-0.27343 1.23443,-0.38597c0.5534,-0.12476 2.46245,0.42106 2.46245,0.42106l-1.27529,0.54657c0,0 1.78176,0.88273 2.43984,1.76324z" data-paper-data="{&quot;index&quot;:null}" fill="#ececec" stroke="#000000" stroke-width="0.25" stroke-linecap="butt"/><path d="M374.11313,151.06949c-0.19421,0.39354 -0.57379,0.62481 -0.96733,0.4306c-1.09795,-0.54183 -2.08619,-0.45891 -2.89779,-1.37563c-0.86345,-0.97527 -1.8326,-2.36147 -1.25615,-3.52956c0.3738,-0.75745 1.41825,-0.54398 2.24747,-0.38312c0.69578,0.13498 1.56644,0.58859 1.98209,1.27799c0,0 0.79087,1.22102 1.01635,2.04244c0.16917,0.61634 0.06958,1.14373 -0.12463,1.53726z" data-paper-data="{&quot;index&quot;:null}" fill="#ececec" stroke="#000000" stroke-width="0.25" stroke-linecap="butt"/><path d="M369.79243,147.58567c-0.24183,0.18322 -0.54131,0.19523 -0.66892,0.02681c-0.1276,-0.16841 -0.03501,-0.45348 0.20683,-0.63671c0.24183,-0.18322 0.54131,-0.19523 0.66891,-0.02681c0.1276,0.16842 0.035,0.45348 -0.20682,0.6367z" data-paper-data="{&quot;origRot&quot;:0,&quot;index&quot;:null}" fill="#090005" stroke="#000000" stroke-width="0.25" stroke-linecap="butt"/><path d="M365.06298,151.99947l1.64972,-3.34288l5.49396,2.71127l-1.64972,3.34288z" data-paper-data="{&quot;index&quot;:null}" fill="#ececec" stroke="#000000" stroke-width="0.25" stroke-linecap="butt"/><path d="M372.61343,150.26678c0.56001,0.19668 1.03442,0.46673 1.30553,0.99474c0.18789,0.36593 0.38486,0.68346 0.38311,1.09481c-0.00252,0.59491 -0.47322,1.66623 -1.00974,1.92327c-0.22399,0.10731 -1.1549,0.59373 -1.94922,0.81487c-0.79432,0.22115 -1.49072,0.42676 -2.46948,0.42833c-0.97875,0.00156 -1.88163,-0.27291 -2.10922,-0.42101c-0.23053,-0.15002 -0.96995,-0.66949 -1.06898,-0.9261c-0.28537,-0.73945 -0.49925,-1.16484 -0.58275,-1.95303c-0.08544,-0.80638 0.16626,-2.46009 0.16626,-2.46009c0,0 0.33974,0.32725 0.45249,0.72304c0.11846,0.41582 -0.05272,0.81065 -0.03054,1.24245c0.03486,0.67885 0.26437,0.98543 0.60675,1.57266c0.60215,1.0328 0.93761,0.99206 1.56787,0.9889c0.63026,-0.00315 0.85765,-0.1002 1.38164,-0.35135c0.52225,-0.25032 0.87854,-0.43491 1.31614,-0.81426c0.33196,-0.28777 0.69949,-0.83552 0.69949,-0.83552l0.38841,0.30954c0,0 -0.16038,-0.70511 -0.42798,-1.02609c-0.33329,-0.3998 -1.03846,-0.84367 -1.03846,-0.84367l0.363,0.76454c0,0 -0.96288,0.35717 -1.5053,0.36222c-0.77362,0.00722 -1.17968,-0.1558 -1.87347,-0.49818c-0.96321,-0.47535 -1.57228,-1.03036 -1.99573,-2.01748c-0.31574,-0.73601 -0.27857,-1.32957 0.07586,-2.04774c0.53148,-1.07696 1.53054,-1.76199 2.78187,-1.14445c0,0 1.38631,0.76347 1.8886,1.70825c0.37003,0.69601 0.64196,2.24266 0.64196,2.24266c0,0 1.31517,-0.08651 2.0419,0.16871z" data-paper-data="{&quot;index&quot;:null}" fill="#ececec" stroke="#000000" stroke-width="0.25" stroke-linecap="butt"/><path d="M369.97408,153.29412c0,0 -0.78403,0.53709 -1.33097,0.7077c-0.59365,0.18518 -1.0913,0.25611 -1.64895,-0.01909c-0.61808,-0.30503 -1.00117,-1.56044 -1.00117,-1.56044c0,0 1.3297,-0.69934 1.94777,-0.39432c0.61808,0.30503 2.03332,1.26616 2.03332,1.26616z" data-paper-data="{&quot;index&quot;:null}" fill="#ececec" stroke="#000000" stroke-width="0.25" stroke-linecap="butt"/><path d="M368.72835,151.85646l0.72798,-0.07654l-0.48455,0.81903z" data-paper-data="{&quot;origRot&quot;:0,&quot;index&quot;:null}" fill="#ececec" stroke="#000000" stroke-width="0.25" stroke-linecap="butt"/><path d="M371.54705,149.21735c-0.24183,0.18322 -0.54131,0.19523 -0.66892,0.02681c-0.1276,-0.16842 -0.035,-0.45348 0.20682,-0.63671c0.24183,-0.18322 0.54132,-0.19522 0.66892,-0.02681c0.1276,0.16841 0.03501,0.45348 -0.20682,0.6367z" data-paper-data="{&quot;origRot&quot;:0,&quot;index&quot;:null}" fill="#090005" stroke="#000000" stroke-width="0.25" stroke-linecap="butt"/><path d="M374.25958,148.024l-0.28584,0.71222l0.90621,0.4691c0,0 -0.46179,0.35653 -0.77942,0.36734c-0.34693,0.01182 -0.76104,-0.11745 -1.04049,-0.32339c-0.53673,-0.39556 -1.36212,-1.13294 -1.36212,-1.13294c0,0 0.79812,0.14438 1.28878,0.12588c0.49066,-0.01851 1.27287,-0.21821 1.27287,-0.21821z" data-paper-data="{&quot;index&quot;:null}" fill="#ececec" stroke="#000000" stroke-width="0.25" stroke-linecap="butt"/><path d="M370.55437,146.02253c-0.03556,0.40808 -0.0794,1.12361 -0.0794,1.12361c0,0 -0.58055,-0.71803 -0.88811,-1.1815c-0.16013,-0.2413 -0.25084,-0.59167 -0.22675,-0.88027c0.02205,-0.26422 0.35683,-0.40634 0.35683,-0.40634l0.33494,0.54633l0.63216,-0.08624c0,0 -0.0941,0.47632 -0.12966,0.88441z" data-paper-data="{&quot;index&quot;:null,&quot;origRot&quot;:0}" fill="#ececec" stroke="#000000" stroke-width="0.25" stroke-linecap="butt"/><path d="M373.64102,148.03968l-0.94793,-1.14056c0,0 0.33046,-0.29638 0.47013,-0.42878c0.13968,-0.1324 0.49743,0.01925 0.68217,0.21415c0,0 0.44106,0.48793 0.43805,0.71526c-0.00334,0.25216 -0.64241,0.63994 -0.64241,0.63994z" data-paper-data="{&quot;origRot&quot;:0,&quot;index&quot;:null}" fill="#ececec" stroke="#000000" stroke-width="0.25" stroke-linecap="butt"/><path d="M366.99364,146.32418c0,0 0.20874,0.08436 0.28447,0.16413c0.08029,0.08457 0.0524,0.3263 0.0524,0.3263" data-paper-data="{&quot;index&quot;:null}" fill="none" stroke="#000000" stroke-width="0.25" stroke-linecap="round"/><path d="M367.86891,147.28099c0,0 0.1749,-0.16918 0.29086,-0.1569c0.10937,0.01158 0.30331,0.12594 0.30331,0.12594" data-paper-data="{&quot;index&quot;:null}" fill="none" stroke="#000000" stroke-width="0.25" stroke-linecap="round"/><path d="M365.04224,166.23948c-1.89924,-0.93727 -9.68485,-4.64598 -13.51919,-7.31762c-5.08643,-3.54406 -6.72496,-6.06406 -6.72496,-6.06406l6.46165,-1.32834c0,0 2.77052,0.67896 5.82618,1.69291c3.04825,1.01149 6.34849,2.41849 8.47941,3.62725c4.92725,2.79497 13.50281,10.76685 13.50281,10.76685l1.66365,5.33303c0,0 -10.46275,-4.1306 -15.68953,-6.71002z" fill="url(#color-41)" stroke="none" stroke-width="0" stroke-linecap="butt"/><path d="M392.70658,176.07799c0,0 -0.14303,1.71257 -1.29597,2.32396c-1.18048,0.62599 -2.83159,0.41757 -2.83159,0.41757c0,0 -2.08054,-0.82025 -3.16859,-1.60025c-1.37462,-0.98543 -4.71309,-4.29325 -4.71309,-4.29325l-1.69677,-5.30755z" fill="#312d7f" stroke="none" stroke-width="0" stroke-linecap="butt"/><path d="M351.55388,151.5815l-6.51491,1.33215c0,0 -0.60272,0.20676 -2.22105,-0.28484c-1.28095,-0.38911 -3.00924,-0.98609 -3.00924,-0.98609c0,0 -0.98387,-1.09195 -1.20511,-2.40969c-0.21608,-1.28699 0.65372,-2.56383 0.65372,-2.56383z" data-paper-data="{&quot;index&quot;:null}" fill="#372f86" stroke="none" stroke-width="0" stroke-linecap="butt"/></g></g></g></svg>