<svg version="1.1" xmlns="http://www.w3.org/2000/svg" xmlns:xlink="http://www.w3.org/1999/xlink" width="76.75479" height="136.97875" viewBox="0,0,76.75479,136.97875"><defs><linearGradient x1="243.54001" y1="174.12827" x2="264.39684" y2="196.07106" gradientUnits="userSpaceOnUse" id="color-1"><stop offset="0" stop-color="#20de16"/><stop offset="1" stop-color="#158e0e"/></linearGradient><linearGradient x1="237.07104" y1="224.40925" x2="271.83627" y2="233.67942" gradientUnits="userSpaceOnUse" id="color-2"><stop offset="0" stop-color="#364ec7"/><stop offset="1" stop-color="#001371"/></linearGradient><linearGradient x1="266.43197" y1="228.59491" x2="279.5648" y2="232.09679" gradientUnits="userSpaceOnUse" id="color-3"><stop offset="0" stop-color="#a6680a"/><stop offset="1" stop-color="#6c4205"/></linearGradient><linearGradient x1="238.5581" y1="172.22157" x2="238.5581" y2="231.20749" gradientUnits="userSpaceOnUse" id="color-4"><stop offset="0" stop-color="#364ec7"/><stop offset="1" stop-color="#001371"/></linearGradient><linearGradient x1="239.99839" y1="176.44449" x2="239.99839" y2="197.3" gradientUnits="userSpaceOnUse" id="color-5"><stop offset="0" stop-color="#20de16"/><stop offset="1" stop-color="#158e0e"/></linearGradient><linearGradient x1="222.71566" y1="227.65329" x2="257.1018" y2="237.23589" gradientUnits="userSpaceOnUse" id="color-6"><stop offset="0" stop-color="#364ec7"/><stop offset="1" stop-color="#001371"/></linearGradient><linearGradient x1="252.22455" y1="235.7944" x2="264.94758" y2="239.34001" gradientUnits="userSpaceOnUse" id="color-7"><stop offset="0" stop-color="#a6680a"/><stop offset="1" stop-color="#6c4205"/></linearGradient><linearGradient x1="239.8103" y1="128.93712" x2="239.8103" y2="181.82942" gradientUnits="userSpaceOnUse" id="color-8"><stop offset="0" stop-color="#ffefc0"/><stop offset="1" stop-color="#e0ce98"/></linearGradient><linearGradient x1="238.76599" y1="112.13563" x2="238.76599" y2="144.4319" gradientUnits="userSpaceOnUse" id="color-9"><stop offset="0" stop-color="#20de16"/><stop offset="1" stop-color="#158e0e"/></linearGradient><linearGradient x1="252.72844" y1="131.27346" x2="252.72844" y2="139.20386" gradientUnits="userSpaceOnUse" id="color-10"><stop offset="0" stop-color="#20de16"/><stop offset="1" stop-color="#158e0e"/></linearGradient><linearGradient x1="263.26781" y1="152.29782" x2="263.26781" y2="169.8483" gradientUnits="userSpaceOnUse" id="color-11"><stop offset="0" stop-color="#ffefc0"/><stop offset="1" stop-color="#e0ce98"/></linearGradient><linearGradient x1="226.10648" y1="193.72681" x2="253.85962" y2="186.86143" gradientUnits="userSpaceOnUse" id="color-12"><stop offset="0" stop-color="#20de16"/><stop offset="1" stop-color="#158e0e"/></linearGradient></defs><g transform="translate(-209.13011,-111.63563)"><g data-paper-data="{&quot;isPaintingLayer&quot;:true}" fill-rule="nonzero" stroke-linejoin="miter" stroke-miterlimit="10" stroke-dasharray="" stroke-dashoffset="0" style="mix-blend-mode: normal"><g data-paper-data="{&quot;origRot&quot;:0,&quot;origPos&quot;:null}" stroke-width="1.5" stroke-linecap="butt"><path d="M237.39803,180.59984c0.52931,-3.31129 8.37723,-3.98099 17.5288,-1.4958c9.15158,2.48518 16.1413,7.18415 15.61198,10.49546c-0.52932,3.3113 -8.37723,3.981 -17.5288,1.49581c-9.15158,-2.48518 -16.14132,-7.18417 -15.61198,-10.49546z" data-paper-data="{&quot;origRot&quot;:0,&quot;origPos&quot;:null,&quot;index&quot;:null}" fill="url(#color-1)" stroke="#158e0e"/><path d="M268.12653,181.35725c4.39612,-3.48491 10.93336,-2.58079 14.60131,2.01938c3.66796,4.60019 3.07767,11.15444 -1.31845,14.63936c-4.39611,3.48489 -10.93336,2.58079 -14.60131,-2.01938c-3.66796,-4.60019 -3.07766,-11.15445 1.31845,-14.63936z" data-paper-data="{&quot;origPos&quot;:null,&quot;index&quot;:null}" fill="#ffffff" stroke="#bfbfbf"/></g><g data-paper-data="{&quot;origPos&quot;:null}" stroke-width="1.5" stroke-linecap="butt"><path d="M254.21785,221.44882c3.49504,0.57967 9.32385,2.80114 12.64676,4.03104c4.77886,1.76877 5.18324,3.40415 4.72732,7.48627c-0.45795,4.10032 -0.14911,5.42429 -5.16566,5.56525c-3.45045,0.09695 -10.20479,-3.35341 -13.6774,-3.92936c-10.25458,-1.70077 -17.44252,-1.34919 -17.0307,-5.03663c0,0 1.23337,-5.80182 3.16097,-6.5012c0,0 -1.24023,-3.03512 1.87321,-3.2655c3.135,-0.23197 3.21094,-0.05064 13.46552,1.65014z" data-paper-data="{&quot;origPos&quot;:null,&quot;origRot&quot;:0}" fill="url(#color-2)" stroke="#001371"/><path d="M271.58768,221.82345c4.08673,-3.40006 7.25036,-0.63187 8.17213,1.86578c1.11621,3.02448 -0.18527,11.35942 -2.88302,15.25342c-2.69773,3.89398 -3.37879,2.07035 -5.10127,1.8365c-3.82968,-0.51992 -6.52571,-3.71781 -5.56877,-10.22114c0.95692,-6.50332 1.29418,-5.33453 5.38092,-8.73459z" data-paper-data="{&quot;origPos&quot;:null,&quot;origRot&quot;:0}" fill="url(#color-3)" stroke="#6c4306"/></g><path d="M255.67673,201.81185c0,9.41437 2.57396,18.53496 -2.43939,25.72942c-3.21333,4.61132 -9.69716,3.56404 -14.67924,3.56404c-4.98207,0 -11.4659,0.74966 -14.67924,-3.86164c-5.01335,-7.19445 -2.43939,-16.01745 -2.43939,-25.4318c0,-16.17833 7.66426,-29.54752 17.11863,-29.54752c0,0 9.72842,-0.91541 12.88897,5.72261c3.14566,6.60674 4.22966,7.64657 4.22966,23.8249z" data-paper-data="{&quot;origPos&quot;:null}" fill="url(#color-4)" stroke="#001371" stroke-width="1.5" stroke-linecap="butt"/><path d="M246.69152,185.22278c0,2.73229 1.18698,7.24255 -0.31003,9.12432c-1.61709,2.03268 -3.32827,2.96733 -5.5586,2.95273c-2.46992,-0.01618 -4.1733,-1.01847 -6.23486,-2.81865c-2.11879,-1.85016 -1.69451,-5.89918 -1.69451,-9.25839c0,-4.84812 3.0888,-8.7783 6.89902,-8.7783c3.8102,0 6.899,3.93019 6.899,8.7783z" data-paper-data="{&quot;origPos&quot;:null}" fill="url(#color-5)" stroke="none" stroke-width="0" stroke-linecap="butt"/><path d="M233.42941,193.51094c0,2.26997 -1.7773,4.11017 -3.96972,4.11017c-2.19242,0 -3.96972,-1.84019 -3.96972,-4.11017c0,-2.26997 1.7773,-4.11016 3.96972,-4.11016c2.19242,0 3.96972,1.84019 3.96972,4.11016z" data-paper-data="{&quot;origPos&quot;:null}" fill="#faff66" stroke="none" stroke-width="1.5" stroke-linecap="butt"/><path d="M254.72239,192.9472c0,2.21407 -1.73351,4.00892 -3.87193,4.00892c-2.13841,0 -3.87194,-1.79484 -3.87194,-4.00892c0,-2.21407 1.73353,-4.00892 3.87194,-4.00892c2.13841,0 3.87193,1.79484 3.87193,4.00892z" data-paper-data="{&quot;origPos&quot;:null}" fill="#faff66" stroke="none" stroke-width="1.5" stroke-linecap="butt"/><path d="M241.46753,224.87453c3.37539,0.94064 8.79534,3.77444 11.89124,5.3531c4.4524,2.27036 4.58127,3.96039 3.44729,8.02958c-1.13904,4.08734 -1.05314,5.45366 -6.06031,5.0845c-3.444,-0.25393 -9.57836,-4.42103 -12.9321,-5.35564c-9.90354,-2.75988 -17.103,-3.138 -16.07865,-6.81377c0,0 2.19326,-5.72378 4.22491,-6.23246c5.85795,-1.46669 5.60407,-2.82519 15.50762,-0.06531z" data-paper-data="{&quot;origPos&quot;:null,&quot;origRot&quot;:0}" fill="url(#color-6)" stroke="#001371" stroke-width="1.5" stroke-linecap="butt"/><path d="M258.20231,229.14094c4.34279,-2.62641 7.09228,0.40859 7.70164,2.87999c0.73789,2.99268 -1.46747,10.63527 -4.52129,13.91711c-3.0538,3.28184 -3.5065,1.47627 -5.14788,1.01885c-3.64937,-1.01699 -5.89737,-4.39066 -4.23333,-10.36187c1.66403,-5.9712 1.85807,-4.82768 6.20087,-7.45409z" data-paper-data="{&quot;origPos&quot;:null,&quot;origRot&quot;:0}" fill="url(#color-7)" stroke="#6c4306" stroke-width="1.5" stroke-linecap="butt"/><path d="M264.83203,156.24528c0,9.84218 -5.14936,13.90084 -11.92352,18.96597c-4.72012,3.52931 -6.06853,6.61817 -11.57363,6.61817c-6.39728,0 -8.94794,-3.43831 -14.4308,-7.5442c-6.66848,-4.99375 -12.11553,-8.5149 -12.11553,-18.20747c0,-5.0106 0.57271,-17.63489 2.65647,-21.85717c4.80207,-9.73034 14.74065,-3.04204 23.65922,-3.04204c0,0 14.51881,-4.21225 19.42967,5.04324c2.33042,4.39213 4.29814,6.17951 4.29814,20.02349z" data-paper-data="{&quot;origPos&quot;:null}" fill="url(#color-8)" stroke="#e0ce98" stroke-width="1" stroke-linecap="butt"/><path d="M264.9252,127.25362c7.39631,15.7149 -26.79497,11.96459 -29.2141,14.02381c-2.37591,2.02243 -0.74791,8.20497 -3.6175,8.20497c-4.02198,0 -8.45488,0.78883 -9.56057,5.64876c-0.63988,2.81258 2.37615,8.28457 0.12484,9.02759c-2.2178,0.73196 -4.06937,3.20526 -6.35839,3.3743c-1.85643,0.13709 -2.3832,-2.37045 -4.24263,-2.40525c-5.29533,-0.09911 0.72001,-13.21753 0.8452,-13.90549c0.04172,-0.22932 -1.10163,-4.91414 -1.10163,-7.18979c0,-12.34251 9.84594,-18.90585 16.30923,-18.90585c6.46328,0 29.41924,-13.58796 36.81555,2.12693z" data-paper-data="{&quot;origPos&quot;:null}" fill="#c27231" stroke="#985926" stroke-width="1.5" stroke-linecap="butt"/><path d="M264.45412,169.389c0,0.96935 -1.05436,2.6064 -1.15734,3.56971c-0.21869,2.04583 -1.61583,3.12409 -3.57684,3.21584c-2.16435,0.10127 -5.99132,-2.51586 -5.99132,-2.51586c0,0 -2.87775,1.19046 -4.82459,1.64777c-1.63184,0.38331 -4.15503,0.13211 -5.64053,-0.65409c-1.0443,-0.55271 -2.66543,-2.87291 -3.30943,-3.89703c-2.03878,-3.24213 -7.28717,-8.01425 -2.80634,-9.19469c2.20464,-0.58081 8.73957,5.62854 11.0127,5.62854c0,0 3.80829,-0.01754 5.70018,0.08441c4.2897,0.23114 10.5935,-2.47257 10.5935,2.1154z" data-paper-data="{&quot;origPos&quot;:null}" fill="#160b02" stroke="none" stroke-width="0" stroke-linecap="butt"/><path d="M266.81122,131.63143c0,9.88537 -11.03409,3.80048 -26.30554,3.80048c-3.69718,0 -8.59054,8.15205 -12.28753,8.11605c-5.24124,-0.05103 -11.84335,2.45977 -15.98343,-0.76119c-2.92262,-2.27378 -0.72629,-7.44778 -0.72629,-11.15535c0,-8.37605 8.70145,-8.49708 16.24287,-12.11054c5.48182,-2.62659 5.55662,-6.77633 11.63295,-6.77633c0,0 12.43874,-1.8163 19.6767,0.82488c8.19439,2.99018 7.75028,8.17661 7.75028,18.06198z" data-paper-data="{&quot;origPos&quot;:null}" fill="url(#color-9)" stroke="#158e0e" stroke-width="1" stroke-linecap="butt"/><path d="M277.29346,137.57679c0,3.48124 -10.44299,0.29318 -24.00988,0.29318c-13.56688,0 -25.12017,3.18806 -25.12017,-0.29318c0,-3.48124 10.99813,-6.30333 24.56502,-6.30333c13.56688,0 24.56502,2.8221 24.56502,6.30333z" data-paper-data="{&quot;origPos&quot;:null}" fill="url(#color-10)" stroke="#158e0e" stroke-width="1" stroke-linecap="butt"/><path d="M262.74311,124.59928c0,2.14526 0.31298,3.62537 -1.25453,4.98952c-1.35299,1.17745 -9.04403,0.86884 -10.32229,-0.07714c-1.82086,-1.34756 -1.08988,-2.56403 -1.08988,-4.91238c0,-3.50501 2.83555,-6.34641 6.33336,-6.34641c3.49782,0 6.33335,2.84139 6.33335,6.34641z" data-paper-data="{&quot;origPos&quot;:null}" fill="#ffffff" stroke="#a4a4a4" stroke-width="1" stroke-linecap="butt"/><path d="M255.00177,149.88117c0,4.13928 -2.12367,7.49483 -4.74334,7.49483c-2.61968,0 -4.74334,-3.35555 -4.74334,-7.49483c0,-4.13928 2.12367,-7.49484 4.74334,-7.49484c2.61968,0 4.74334,3.35555 4.74334,7.49484z" data-paper-data="{&quot;origPos&quot;:null}" fill="#ffffff" stroke="none" stroke-width="0" stroke-linecap="butt"/><path d="M246.5008,141.64649c0,0 3.57853,-0.58761 4.30266,-0.46124c1.29495,0.22598 3.53513,1.83418 3.53513,1.83418" data-paper-data="{&quot;origPos&quot;:null,&quot;origRot&quot;:0}" fill="none" stroke="#351c06" stroke-width="1.5" stroke-linecap="round"/><path d="M255.03078,149.55915c0,2.74706 -1.40938,4.97398 -3.14794,4.97398c-1.73856,0 -3.14794,-2.22694 -3.14794,-4.97398c0,-2.74706 1.40939,-4.97398 3.14794,-4.97398c1.73856,0 3.14794,2.22694 3.14794,4.97398z" data-paper-data="{&quot;origPos&quot;:null}" fill="#1121d4" stroke="none" stroke-width="0" stroke-linecap="butt"/><path d="M255.09929,149.4147c0,1.42051 -0.72879,2.57205 -1.62781,2.57205c-0.89902,0 -1.62781,-1.15155 -1.62781,-2.57205c0,-1.42051 0.7288,-2.57205 1.62781,-2.57205c0.89902,0 1.62781,1.15155 1.62781,2.57205z" data-paper-data="{&quot;origPos&quot;:null}" fill="#000000" stroke="none" stroke-width="0" stroke-linecap="butt"/><path d="M261.39799,141.73715c2.17221,0 3.93314,2.78237 3.93314,6.21462c0,3.43225 -1.76092,6.21462 -3.93314,6.21462c-2.17221,0 -3.93314,-2.78237 -3.93314,-6.21462c0,-3.43225 1.76092,-6.21462 3.93314,-6.21462z" data-paper-data="{&quot;origPos&quot;:null,&quot;index&quot;:null}" fill="#ffffff" stroke="none" stroke-width="0" stroke-linecap="butt"/><path d="M258.10196,141.14733c0,0 1.85754,-1.33351 2.93129,-1.52089c0.60044,-0.10479 3.56772,0.38246 3.56772,0.38246" data-paper-data="{&quot;origPos&quot;:null,&quot;origRot&quot;:0,&quot;index&quot;:null}" fill="none" stroke="#351c06" stroke-width="1.5" stroke-linecap="round"/><path d="M262.84354,143.68194c1.44159,0 2.61025,1.84655 2.61025,4.12435c0,2.27782 -1.16864,4.12435 -2.61025,4.12435c-1.44159,0 -2.61024,-1.84655 -2.61024,-4.12435c0,-2.27782 1.16864,-4.12435 2.61024,-4.12435z" data-paper-data="{&quot;origPos&quot;:null,&quot;index&quot;:null}" fill="#1121d4" stroke="none" stroke-width="0" stroke-linecap="butt"/><path d="M264.20598,145.68024c0.74546,0 1.34976,0.95486 1.34976,2.13272c0,1.17788 -0.60431,2.13272 -1.34976,2.13272c-0.74546,0 -1.34975,-0.95486 -1.34975,-2.13272c0,-1.17788 0.60431,-2.13272 1.34975,-2.13272z" data-paper-data="{&quot;origPos&quot;:null,&quot;index&quot;:null}" fill="#000000" stroke="none" stroke-width="0" stroke-linecap="butt"/><path d="M275.47444,160.94371c0,4.77499 -5.21052,8.90459 -11.95206,8.90459c-6.74152,0 -12.46119,-4.1296 -12.46119,-8.90459c0,-4.77499 5.46509,-8.64589 12.20662,-8.64589c6.74152,0 12.20662,3.87089 12.20662,8.64589z" data-paper-data="{&quot;origPos&quot;:null}" fill="url(#color-11)" stroke="#e0ce98" stroke-width="1.5" stroke-linecap="butt"/><path d="M227.97072,154.58083c-0.92107,2.91856 -4.85091,4.16381 -8.77756,2.78133c-3.92666,-1.38249 -6.36315,-4.86916 -5.44209,-7.78773c0.92107,-2.91856 4.85091,-4.16381 8.77756,-2.78133c3.92666,1.38249 6.36315,4.86916 5.44209,7.78773z" data-paper-data="{&quot;origRot&quot;:0,&quot;origPos&quot;:null}" fill="#ffefc0" stroke="#e0ce98" stroke-width="1.5" stroke-linecap="butt"/><path d="M259.24298,127.40558l-4.53402,-0.22681l0.06825,-5.80712" data-paper-data="{&quot;origPos&quot;:null}" fill="none" stroke="#158e0e" stroke-width="1" stroke-linecap="round"/><path d="" data-paper-data="{&quot;origPos&quot;:null}" fill="#c1770b" stroke="#6c4306" stroke-width="1.5" stroke-linecap="butt"/><g data-paper-data="{&quot;origPos&quot;:null}" stroke-width="1.5" stroke-linecap="butt"><path d="M242.92978,184.46623c8.82105,4.28532 14.65265,10.36849 13.02522,13.58713c-1.62742,3.21866 -10.09759,2.35394 -18.91866,-1.93135c-8.82105,-4.28532 -14.65265,-10.36849 -13.02522,-13.58713c1.62742,-3.21866 10.09759,-2.35394 18.91866,1.93135z" data-paper-data="{&quot;origRot&quot;:0,&quot;origPos&quot;:null}" fill="url(#color-12)" stroke="#158e0e"/><path d="M256.72052,188.30327c5.77259,-1.32859 11.47651,2.05577 12.74006,7.55922c1.26357,5.50344 -2.39173,11.04189 -8.16433,12.37049c-5.77259,1.32859 -11.47651,-2.05577 -12.74006,-7.55922c-1.26357,-5.50344 2.39173,-11.04189 8.16433,-12.37049z" data-paper-data="{&quot;origPos&quot;:null,&quot;origRot&quot;:0}" fill="#ffffff" stroke="#bfbfbf"/></g></g></g></svg>