<svg version="1.1" xmlns="http://www.w3.org/2000/svg" xmlns:xlink="http://www.w3.org/1999/xlink" width="579" height="387.31252" viewBox="0,0,579,387.31252"><defs><linearGradient x1="240" y1="2" x2="240" y2="358" gradientUnits="userSpaceOnUse" id="color-1"><stop offset="0" stop-color="#3d1f1f"/><stop offset="1" stop-color="#a83434"/></linearGradient><linearGradient x1="237.90627" y1="241.12502" x2="237.90627" y2="326.12502" gradientUnits="userSpaceOnUse" id="color-2"><stop offset="0" stop-color="#ffffff" stop-opacity="0"/><stop offset="1" stop-color="#ffffff"/></linearGradient><linearGradient x1="258.85939" y1="2.31251" x2="258.85939" y2="123.31251" gradientUnits="userSpaceOnUse" id="color-3"><stop offset="0" stop-color="#000000"/><stop offset="1" stop-color="#000000" stop-opacity="0"/></linearGradient></defs><g transform="translate(30.64061,-2)"><g data-paper-data="{&quot;isPaintingLayer&quot;:true}" fill-rule="nonzero" stroke-linecap="butt" stroke-linejoin="miter" stroke-miterlimit="10" stroke-dasharray="" stroke-dashoffset="0" style="mix-blend-mode: normal"><path d="M-5,358v-356h490v356z" fill="url(#color-1)" stroke="none" stroke-width="0"/><path d="M208.81252,294.7047l31.75857,-56.8168l32.9348,56.8168z" data-paper-data="{&quot;index&quot;:null}" fill="#7d5555" stroke="#000000" stroke-width="4"/><path d="M308.02556,235.93922l-32.93481,56.8168l-31.75856,-56.8168z" data-paper-data="{&quot;index&quot;:null}" fill="#7d5555" stroke="#000000" stroke-width="4"/><path d="M277.88243,294.98308l32.93481,-56.8168l31.75856,56.8168z" data-paper-data="{&quot;index&quot;:null}" fill="#7d5555" stroke="#000000" stroke-width="4"/><path d="M243.36275,232.90385l31.75857,-56.8168l32.9348,56.8168z" data-paper-data="{&quot;index&quot;:null}" fill="#7d5555" stroke="#000000" stroke-width="4"/><path d="M349.54924,294.7047l31.75857,-56.8168l32.9348,56.8168z" data-paper-data="{&quot;index&quot;:null}" fill="#7d5555" stroke="#000000" stroke-width="4"/><path d="M448.76228,235.93922l-32.93481,56.8168l-31.75856,-56.8168z" data-paper-data="{&quot;index&quot;:null}" fill="#7d5555" stroke="#000000" stroke-width="4"/><path d="M418.61915,294.98308l32.93481,-56.8168l31.75856,56.8168z" data-paper-data="{&quot;index&quot;:null}" fill="#7d5555" stroke="#000000" stroke-width="4"/><path d="M384.09947,232.90385l31.75857,-56.8168l32.9348,56.8168z" data-paper-data="{&quot;index&quot;:null}" fill="#7d5555" stroke="#000000" stroke-width="4"/><path d="M412.31021,175.09753l-31.75857,56.8168l-32.9348,-56.8168z" data-paper-data="{&quot;index&quot;:null}" fill="#7d5555" stroke="#000000" stroke-width="4"/><path d="M313.09716,233.86301l32.93481,-56.8168l31.75856,56.8168z" data-paper-data="{&quot;index&quot;:null}" fill="#7d5555" stroke="#000000" stroke-width="4"/><path d="M343.24029,174.81915l-32.93481,56.8168l-31.75856,-56.8168z" data-paper-data="{&quot;index&quot;:null}" fill="#7d5555" stroke="#000000" stroke-width="4"/><path d="M377.75997,236.89838l-31.75857,56.8168l-32.9348,-56.8168z" data-paper-data="{&quot;index&quot;:null}" fill="#7d5555" stroke="#000000" stroke-width="4"/><path d="M347.61684,171.71855l32.9348,-56.8168l31.75857,56.8168z" data-paper-data="{&quot;index&quot;:null}" fill="#7d5555" stroke="#000000" stroke-width="4"/><path d="M377.79052,112.95308l-31.75856,56.8168l-32.93481,-56.8168z" data-paper-data="{&quot;index&quot;:null}" fill="#7d5555" stroke="#000000" stroke-width="4"/><path d="M278.54693,171.99693l31.75856,-56.8168l32.93481,56.8168z" data-paper-data="{&quot;index&quot;:null}" fill="#7d5555" stroke="#000000" stroke-width="4"/><path d="M313.06661,109.91771l32.9348,-56.8168l31.75857,56.8168z" data-paper-data="{&quot;index&quot;:null}" fill="#7d5555" stroke="#000000" stroke-width="4"/><path d="M18.81251,307.65544l25.04819,-44.81179l25.9759,44.81179z" data-paper-data="{&quot;index&quot;:null}" fill="#7e7e7e" stroke="#000000" stroke-width="3"/><path d="M97.06251,261.30672l-25.9759,44.81179l-25.04819,-44.81179z" data-paper-data="{&quot;index&quot;:null}" fill="#7e7e7e" stroke="#000000" stroke-width="3"/><path d="M73.28842,307.87501l25.97591,-44.81179l25.04819,44.81179z" data-paper-data="{&quot;index&quot;:null}" fill="#7e7e7e" stroke="#000000" stroke-width="3"/><path d="M46.06252,258.9127l25.04819,-44.81179l25.9759,44.81179z" data-paper-data="{&quot;index&quot;:null}" fill="#7e7e7e" stroke="#000000" stroke-width="3"/><path d="M129.81251,307.65545l25.0482,-44.81179l25.9759,44.81179z" data-paper-data="{&quot;index&quot;:null}" fill="#7e7e7e" stroke="#000000" stroke-width="3"/><path d="M208.06251,261.30672l-25.9759,44.81179l-25.04819,-44.81179z" data-paper-data="{&quot;index&quot;:null}" fill="#7e7e7e" stroke="#000000" stroke-width="3"/><path d="M184.28842,307.87501l25.97591,-44.81179l25.04819,44.81179z" data-paper-data="{&quot;index&quot;:null}" fill="#7e7e7e" stroke="#000000" stroke-width="3"/><path d="M157.06252,258.9127l25.04819,-44.81179l25.9759,44.81179z" data-paper-data="{&quot;index&quot;:null}" fill="#7e7e7e" stroke="#000000" stroke-width="3"/><path d="M179.31252,213.32047l-25.04819,44.81179l-25.9759,-44.81179z" data-paper-data="{&quot;index&quot;:null}" fill="#7e7e7e" stroke="#000000" stroke-width="3"/><path d="M101.06252,259.66919l25.9759,-44.81179l25.04819,44.81179z" data-paper-data="{&quot;index&quot;:null}" fill="#7e7e7e" stroke="#000000" stroke-width="3"/><path d="M124.83661,213.10091l-25.9759,44.81179l-25.04819,-44.81179z" data-paper-data="{&quot;index&quot;:null}" fill="#7e7e7e" stroke="#000000" stroke-width="3"/><path d="M152.06252,262.06322l-25.04819,44.81179l-25.9759,-44.81179z" data-paper-data="{&quot;index&quot;:null}" fill="#7e7e7e" stroke="#000000" stroke-width="3"/><path d="M128.28842,210.65545l25.9759,-44.81179l25.0482,44.81179z" data-paper-data="{&quot;index&quot;:null}" fill="#7e7e7e" stroke="#000000" stroke-width="3"/><path d="M152.08661,164.30672l-25.04819,44.81179l-25.9759,-44.81179z" data-paper-data="{&quot;index&quot;:null}" fill="#7e7e7e" stroke="#000000" stroke-width="3"/><path d="M73.81251,210.87501l25.04819,-44.81179l25.97591,44.81179z" data-paper-data="{&quot;index&quot;:null}" fill="#7e7e7e" stroke="#000000" stroke-width="3"/><path d="M101.03842,161.9127l25.9759,-44.81179l25.0482,44.81179z" data-paper-data="{&quot;index&quot;:null}" fill="#7e7e7e" stroke="#000000" stroke-width="3"/><path d="M-11.09373,326.12502v-85h498v85z" fill="url(#color-2)" stroke="none" stroke-width="0"/><path d="M22.32321,296.9127l104.2309,-179.81179l100.50841,179.81179z" data-paper-data="{&quot;index&quot;:null}" fill="#7e7e7e" stroke="#000000" stroke-width="3"/><path d="M-5.54685,387.81252v-86h490v86z" fill="#7e7e7e" stroke="#000000" stroke-width="3"/><path d="M-5.54685,300.81252v-16h39v16z" fill="#444444" stroke="#000000" stroke-width="3"/><path d="M35.45315,300.81252v-16h39v16z" fill="#444444" stroke="#000000" stroke-width="3"/><path d="M76.45315,300.81252v-16h39v16z" fill="#444444" stroke="#000000" stroke-width="3"/><path d="M214.09716,285.86301l134.22885,-231.5621l129.43494,231.5621z" data-paper-data="{&quot;index&quot;:null}" fill="#7d5555" stroke="#000000" stroke-width="4"/><path d="M117.45315,300.81252v-16h39v16z" fill="#444444" stroke="#000000" stroke-width="3"/><path d="M158.45314,300.81252v-16h39v16z" fill="#444444" stroke="#000000" stroke-width="3"/><path d="M199.45314,300.81252v-16h39v16z" fill="#444444" stroke="#000000" stroke-width="3"/><path d="M240.45314,300.81252v-16h39v16z" fill="#444444" stroke="#000000" stroke-width="3"/><path d="M281.45313,300.81252v-16h39v16z" fill="#444444" stroke="#000000" stroke-width="3"/><path d="M322.45313,300.81252v-16h39v16z" fill="#444444" stroke="#000000" stroke-width="3"/><path d="M363.45315,300.81252v-16h39v16z" fill="#444444" stroke="#000000" stroke-width="3"/><path d="M404.45315,300.81252v-16h39v16z" fill="#444444" stroke="#000000" stroke-width="3"/><path d="M445.45315,300.81252v-16h39v16z" fill="#444444" stroke="#000000" stroke-width="3"/><path d="M-30.64061,123.31251v-121h579v121z" fill="url(#color-3)" stroke="none" stroke-width="0"/></g></g></svg>