<svg version="1.1" xmlns="http://www.w3.org/2000/svg" xmlns:xlink="http://www.w3.org/1999/xlink" width="317.61625" height="222.4912" viewBox="0,0,317.61625,222.4912"><defs><linearGradient x1="207.45313" y1="220.8125" x2="207.45313" y2="327.8125" gradientUnits="userSpaceOnUse" id="color-1"><stop offset="0" stop-color="#9f8040"/><stop offset="1" stop-color="#7f6633"/></linearGradient><linearGradient x1="207.45313" y1="182.8125" x2="207.45313" y2="248.8125" gradientUnits="userSpaceOnUse" id="color-2"><stop offset="0" stop-color="#9f8040"/><stop offset="1" stop-color="#7f6633"/></linearGradient></defs><g transform="translate(-37.46399,-108.97581)"><g data-paper-data="{&quot;isPaintingLayer&quot;:true}" fill-rule="nonzero" stroke-linejoin="miter" stroke-miterlimit="10" stroke-dasharray="" stroke-dashoffset="0" style="mix-blend-mode: normal"><path d="M194.45313,327.8125v-107h26v107z" fill="url(#color-1)" stroke="#3e3119" stroke-width="2" stroke-linecap="butt"/><path d="M324.94969,329.91309l-27.36264,-93.82609l24.32234,-72.17391l31.61905,35.28503l-11.55311,129.91304z" data-paper-data="{&quot;index&quot;:null}" fill="#dada1f" stroke="#f5ff42" stroke-width="3" stroke-linecap="butt"/><path d="M320.69328,242.15478l0.60806,-77.38648l31.01099,34.08212z" data-paper-data="{&quot;index&quot;:null}" fill="#ffff66" stroke="none" stroke-width="0" stroke-linecap="butt"/><path d="M325.1017,327.36009l-4.56044,-85.4058l20.06593,84.60386z" data-paper-data="{&quot;index&quot;:null}" fill="#9e9e00" stroke="none" stroke-width="0" stroke-linecap="butt"/><path d="M298.34713,234.8622l22.19414,6.81642l-13.68132,22.45411z" data-paper-data="{&quot;index&quot;:null}" fill="#9e9e00" stroke="none" stroke-width="0" stroke-linecap="butt"/><path d="M78.08705,317.41309l-19,-162l52,-44l40,90l-45,117z" fill="#426dff" stroke="#003cff" stroke-width="3" stroke-linecap="butt"/><path d="M78.83705,315.36689l33,-105.5l-7.5,106.5z" fill="#3559ce" stroke="none" stroke-width="0" stroke-linecap="butt"/><path d="M59.58705,156.11689l51,-42.5l1,96.5z" fill="#86a2ff" stroke="none" stroke-width="0" stroke-linecap="butt"/><path d="M66.04357,327.41309l-26.95652,-70.08695l23.96135,-53.91305l31.14976,26.35749l-11.38164,97.04348z" data-paper-data="{&quot;index&quot;:null}" fill="#ff4b4b" stroke="#ff0000" stroke-width="3" stroke-linecap="butt"/><path d="M62.14985,262.54l0.59904,-57.80677l30.55073,25.45894z" data-paper-data="{&quot;index&quot;:null}" fill="#ff8787" stroke="none" stroke-width="0" stroke-linecap="butt"/><path d="M66.49284,326.18734l-4.49275,-63.7971l19.76811,63.19807z" data-paper-data="{&quot;index&quot;:null}" fill="#8f2525" stroke="none" stroke-width="0" stroke-linecap="butt"/><path d="M40.13536,257.09254l21.86473,5.09179l-13.47826,16.77295z" data-paper-data="{&quot;index&quot;:null}" fill="#8f2525" stroke="none" stroke-width="0" stroke-linecap="butt"/><path d="M134.33704,237.52314l-22.5,-28l36.5,-8.5z" fill="#3c64e7" stroke="none" stroke-width="0" stroke-linecap="butt"/><path d="M156.45313,248.8125v-66h102v66z" fill="url(#color-2)" stroke="#3e3119" stroke-width="2" stroke-linecap="butt"/><path d="M174.45313,213.8125h61" fill="none" stroke="#3e3119" stroke-width="7.5" stroke-linecap="round"/><path d="M214.45313,192.8125l26,20l-29,26" fill="none" stroke="#3e3119" stroke-width="7.5" stroke-linecap="round"/></g></g></svg>