<svg version="1.1" xmlns="http://www.w3.org/2000/svg" xmlns:xlink="http://www.w3.org/1999/xlink" width="590.56891" height="471.6875" viewBox="0,0,590.56891,471.6875"><defs><linearGradient x1="240" y1="-8" x2="240" y2="368" gradientUnits="userSpaceOnUse" id="color-1"><stop offset="0" stop-color="#ffca47"/><stop offset="1" stop-color="#ffecc3"/></linearGradient><linearGradient x1="329.35938" y1="151.80147" x2="329.35938" y2="303.625" gradientUnits="userSpaceOnUse" id="color-2"><stop offset="0" stop-color="#c38600"/><stop offset="1" stop-color="#ffae00"/></linearGradient><linearGradient x1="193.35938" y1="107.80147" x2="193.35938" y2="259.625" gradientUnits="userSpaceOnUse" id="color-3"><stop offset="0" stop-color="#c38600"/><stop offset="1" stop-color="#c38600" stop-opacity="0"/></linearGradient><linearGradient x1="193.35938" y1="107.80147" x2="193.35938" y2="259.625" gradientUnits="userSpaceOnUse" id="color-4"><stop offset="0" stop-color="#c38600"/><stop offset="1" stop-color="#c38600" stop-opacity="0"/></linearGradient><linearGradient x1="199.81251" y1="109.625" x2="199.81251" y2="240.625" gradientUnits="userSpaceOnUse" id="color-5"><stop offset="0" stop-color="#c38600"/><stop offset="1" stop-color="#c38600" stop-opacity="0"/></linearGradient><linearGradient x1="223.81251" y1="166.125" x2="223.81251" y2="170.125" gradientUnits="userSpaceOnUse" id="color-6"><stop offset="0" stop-color="#c38600"/><stop offset="1" stop-color="#c38600" stop-opacity="0"/></linearGradient><linearGradient x1="160.3125" y1="190.625" x2="160.3125" y2="198.625" gradientUnits="userSpaceOnUse" id="color-7"><stop offset="0" stop-color="#c38600"/><stop offset="1" stop-color="#c38600" stop-opacity="0"/></linearGradient><linearGradient x1="242.40625" y1="289.3125" x2="242.40625" y2="380.3125" gradientUnits="userSpaceOnUse" id="color-8"><stop offset="0" stop-color="#ffaf26"/><stop offset="1" stop-color="#ffe1a0"/></linearGradient><linearGradient x1="401.76563" y1="163.625" x2="401.76563" y2="287.625" gradientUnits="userSpaceOnUse" id="color-9"><stop offset="0" stop-color="#f9dea4"/><stop offset="1" stop-color="#ffce71"/></linearGradient><radialGradient cx="450.97516" cy="34.625" r="124" gradientUnits="userSpaceOnUse" id="color-10"><stop offset="0" stop-color="#fbff00"/><stop offset="1" stop-color="#fbff00" stop-opacity="0"/></radialGradient><radialGradient cx="461.85938" cy="25.625" r="84" gradientUnits="userSpaceOnUse" id="color-11"><stop offset="0" stop-color="#ffffff"/><stop offset="1" stop-color="#fbff00"/></radialGradient><linearGradient x1="419.76584" y1="268.465" x2="419.76584" y2="292.35834" gradientUnits="userSpaceOnUse" id="color-12"><stop offset="0" stop-color="#00a515"/><stop offset="1" stop-color="#00bf06"/></linearGradient><linearGradient x1="127.70979" y1="259.505" x2="127.70979" y2="296.09166" gradientUnits="userSpaceOnUse" id="color-13"><stop offset="0" stop-color="#00a515"/><stop offset="1" stop-color="#00bf06"/></linearGradient><linearGradient x1="400.3125" y1="128.81574" x2="400.3125" y2="206.45529" gradientUnits="userSpaceOnUse" id="color-14"><stop offset="0" stop-color="#00a515"/><stop offset="1" stop-color="#00bf06"/></linearGradient><linearGradient x1="441.22612" y1="265.84" x2="441.22612" y2="292.06667" gradientUnits="userSpaceOnUse" id="color-15"><stop offset="0" stop-color="#00a515"/><stop offset="1" stop-color="#00bf06"/></linearGradient></defs><g transform="translate(15.59375,89.375)"><g data-paper-data="{&quot;isPaintingLayer&quot;:true}" fill-rule="nonzero" stroke-linejoin="miter" stroke-miterlimit="10" stroke-dasharray="" stroke-dashoffset="0" style="mix-blend-mode: normal"><path d="M-5.5,368v-376h491v376z" fill="url(#color-1)" stroke="none" stroke-width="0" stroke-linecap="butt"/><path d="M195.85938,303.625l138.73529,-151.82353l128.26471,151.82353z" fill="url(#color-2)" stroke="#c38600" stroke-width="4" stroke-linecap="butt"/><path d="M59.85938,259.625l138.7353,-151.82353l128.26471,151.82353z" fill="url(#color-3)" stroke="url(#color-4)" stroke-width="4" stroke-linecap="butt"/><path d="M200.31251,240.625l-1,-131" fill="none" stroke="url(#color-5)" stroke-width="4" stroke-linecap="round"/><path d="M245.31251,166.625l-43,3" fill="none" stroke="url(#color-6)" stroke-width="4" stroke-linecap="round"/><path d="M123.3125,190.625l74,8" fill="none" stroke="url(#color-7)" stroke-width="4" stroke-linecap="round"/><path d="M-13.59375,380.3125v-91h512v91z" fill="url(#color-8)" stroke="#c38600" stroke-width="4" stroke-linecap="butt"/><path d="M17.85938,317.6087h54" fill="none" stroke="#c38600" stroke-width="4" stroke-linecap="round"/><path d="M65.85938,332.6087h73" fill="none" stroke="#c38600" stroke-width="4" stroke-linecap="round"/><path d="M172.85938,338.6087h52" fill="none" stroke="#c38600" stroke-width="4" stroke-linecap="round"/><path d="M164.85938,305.6087h74" fill="none" stroke="#c38600" stroke-width="4" stroke-linecap="round"/><path d="M236.85938,331.6087h67" fill="none" stroke="#c38600" stroke-width="4" stroke-linecap="round"/><path d="M318.85938,344.6087l86,1" fill="none" stroke="#c38600" stroke-width="4" stroke-linecap="round"/><path d="M313.85938,306.6087h70" fill="none" stroke="#c38600" stroke-width="4" stroke-linecap="round"/><path d="M476.85938,322.6087h-56" fill="none" stroke="#c38600" stroke-width="4" stroke-linecap="round"/><path d="M451.85938,353.6087h59" fill="none" stroke="#c38600" stroke-width="4" stroke-linecap="round"/><path d="M12.19004,277.03577l-0.33066,-43.64753c0,0 8.13171,-6.65877 22.83126,-7.27459c11.6724,-0.489 22.80025,7.27459 22.80025,7.27459l-0.66133,43.64753z" fill="#895e00" stroke="#654500" stroke-width="4" stroke-linecap="butt"/><path d="M11.85938,278.02776c0,-8.51772 0,-42.98621 0,-42.98621c0,0 11.10053,9.20478 22.48509,8.59724c12.3926,-0.66133 23.14642,-8.59724 23.14642,-8.59724c0,0 0,32.55494 0,41.66355c0,4.44455 -3.88771,9.91989 -9.25857,9.91989c-9.90077,0 -22.19632,0 -27.11438,0c-3.12309,0 -9.25857,-1.83931 -9.25857,-8.59724z" fill="#bf841d" stroke="#654500" stroke-width="4" stroke-linecap="butt"/><path d="M12.20554,254.43838v-7.82362c0,0 8.0729,6.03603 22.15443,6.22645c13.25015,0.17917 23.14642,-6.22645 23.14642,-6.22645v7.82362c0,0 -6.58753,6.3949 -22.81576,6.72556c-16.72077,0.3407 -22.48509,-6.72556 -22.48509,-6.72556z" fill="#654500" stroke="none" stroke-width="0" stroke-linecap="butt"/><path d="M12.20554,270.64087v-7.82362c0,0 8.0729,6.03604 22.15443,6.22645c13.25016,0.17917 23.14642,-6.22645 23.14642,-6.22645v7.82362c0,0 -6.58753,6.3949 -22.81576,6.72556c-16.72077,0.3407 -22.48509,-6.72556 -22.48509,-6.72556z" fill="#654500" stroke="none" stroke-width="0" stroke-linecap="butt"/><path d="M390.26563,287.625v-124h23v124z" fill="url(#color-9)" stroke="#c38600" stroke-width="4" stroke-linecap="butt"/><path d="M335.31251,153.625l1,131" fill="none" stroke="#c38600" stroke-width="4" stroke-linecap="round"/><path d="M338.31251,213.625l43,-3" fill="none" stroke="#c38600" stroke-width="4" stroke-linecap="round"/><path d="M333.31251,242.625l-74,-8" fill="none" stroke="#c38600" stroke-width="4" stroke-linecap="round"/><path d="M45.37839,274.57386l-0.51901,-68.50865c0,0 12.76344,-10.45153 35.83567,-11.4181c18.32085,-0.76753 35.78701,11.4181 35.78701,11.4181l-1.03801,68.50865z" fill="#895e00" stroke="#654500" stroke-width="4" stroke-linecap="butt"/><path d="M44.85938,276.13087c0,-13.3693 0,-67.47065 0,-67.47065c0,0 17.42326,14.44771 35.29234,13.49413c19.45128,-1.03801 36.33034,-13.49413 36.33034,-13.49413c0,0 0,51.09786 0,65.39462c0,6.97611 -6.1021,15.57015 -14.53213,15.57015c-15.54013,0 -34.83907,0 -42.5584,0c-4.90196,0 -14.53214,-2.88696 -14.53214,-13.49413z" fill="#bf841d" stroke="#654500" stroke-width="4" stroke-linecap="butt"/><path d="M45.40271,239.10525v-12.27985c0,0 12.67111,9.47409 34.77332,9.77296c20.79729,0.28123 36.33035,-9.77296 36.33035,-9.77296v12.27985c0,0 -10.33971,10.03736 -35.81134,10.55637c-26.24473,0.53476 -35.29232,-10.55637 -35.29232,-10.55637z" fill="#654500" stroke="none" stroke-width="0" stroke-linecap="butt"/><path d="M45.40272,264.5365v-12.27985c0,0 12.67112,9.4741 34.77333,9.77297c20.79729,0.28123 36.33035,-9.77297 36.33035,-9.77297v12.27985c0,0 -10.33972,10.03735 -35.81135,10.55636c-26.24472,0.53475 -35.29233,-10.55636 -35.29233,-10.55636z" fill="#654500" stroke="none" stroke-width="0" stroke-linecap="butt"/><path d="M326.97516,34.625c0,-68.48331 55.51669,-124 124,-124c68.48331,0 124,55.51669 124,124c0,68.48331 -55.51669,124 -124,124c-68.48331,0 -124,-55.51669 -124,-124z" fill="url(#color-10)" stroke="none" stroke-width="0" stroke-linecap="butt"/><path d="M377.85938,25.625c0,-46.39192 37.60808,-84 84,-84c46.39192,0 84,37.60808 84,84c0,46.39192 -37.60808,84 -84,84c-46.39192,0 -84,-37.60808 -84,-84z" fill="url(#color-11)" stroke="none" stroke-width="0" stroke-linecap="butt"/><path d="M407.81917,280.41167c0,-6.59796 5.3487,-11.94667 11.94667,-11.94667c6.59796,0 11.94666,5.3487 11.94666,11.94667c0,6.59796 -5.3487,11.94667 -11.94666,11.94667c-6.59796,0 -11.94667,-5.3487 -11.94667,-11.94667z" fill="url(#color-12)" stroke="#008a05" stroke-width="5" stroke-linecap="butt"/><path d="M426.99917,275.29167l6.4,-4.69333" fill="none" stroke="#008a05" stroke-width="5" stroke-linecap="round"/><path d="M420.59917,274.43834l-1.70667,-9.81333" fill="none" stroke="#008a05" stroke-width="5" stroke-linecap="round"/><path d="M418.8925,282.11834l1.28,-4.26667" fill="none" stroke="#008a05" stroke-width="5" stroke-linecap="round"/><path d="M414.19917,276.145l-7.25333,-8.96" fill="none" stroke="#008a05" stroke-width="5" stroke-linecap="round"/><path d="M404.8125,284.67834l8.10667,-1.28" fill="none" stroke="#008a05" stroke-width="5" stroke-linecap="round"/><path d="M419.31917,296.625l-1.28,-8.53334" fill="none" stroke="#008a05" stroke-width="5" stroke-linecap="round"/><path d="M420.59917,284.67834l9.38667,3.84" fill="none" stroke="#008a05" stroke-width="5" stroke-linecap="round"/><path d="M425.71917,280.41167l9.81334,-2.56" fill="none" stroke="#008a05" stroke-width="5" stroke-linecap="round"/><path d="M109.41646,277.79834c0,-10.10313 8.1902,-18.29334 18.29333,-18.29334c10.10313,0 18.29334,8.1902 18.29334,18.29334c0,10.10313 -8.19021,18.29333 -18.29334,18.29333c-10.10313,0 -18.29333,-8.1902 -18.29333,-18.29333z" fill="url(#color-13)" stroke="#008a05" stroke-width="5" stroke-linecap="butt"/><path d="M138.78584,269.95833l9.8,-7.18667" fill="none" stroke="#008a05" stroke-width="5" stroke-linecap="round"/><path d="M128.98584,268.65166l-2.61334,-15.02666" fill="none" stroke="#008a05" stroke-width="5" stroke-linecap="round"/><path d="M126.3725,280.41167l1.96,-6.53333" fill="none" stroke="#008a05" stroke-width="5" stroke-linecap="round"/><path d="M119.18584,271.265l-11.10667,-13.72" fill="none" stroke="#008a05" stroke-width="5" stroke-linecap="round"/><path d="M104.8125,284.33167l12.41334,-1.96" fill="none" stroke="#008a05" stroke-width="5" stroke-linecap="round"/><path d="M127.02584,302.625l-1.96,-13.06666" fill="none" stroke="#008a05" stroke-width="5" stroke-linecap="round"/><path d="M128.98584,284.33167l14.37333,5.88" fill="none" stroke="#008a05" stroke-width="5" stroke-linecap="round"/><path d="M497.3125,167.63552l-32.00489,-4.78053c0,0 25.36485,12.27634 25.94705,15.14929c1.65533,8.16847 -22.29355,13.52127 -41.22636,13.44027c-26.12816,-0.11177 -49.71579,-25.65759 -49.71579,-25.65759c0,0 -11.35577,21.62334 -46.36338,22.17788c-8.69718,0.13777 -43.99052,-4.92153 -43.99052,-4.92153c0,0 5.80907,-8.78275 14.46528,-12.48224c6.69281,-2.86037 22.60001,-8.34864 22.60001,-8.34864c0,0 -13.08675,-3.04736 -19.87847,-2.18502c-7.39416,0.93884 -22.83294,7.6081 -22.83294,7.6081c0,0 18.24937,-23.13279 48.02164,-23.88729c30.1489,-0.76405 47.97837,20.80635 47.97837,20.80635c0,0 22.90942,-22.31243 51.18088,-20.76307c26.95949,1.47746 45.81912,23.84401 45.81912,23.84401z" fill="url(#color-14)" stroke="#008a05" stroke-width="5" stroke-linecap="butt"/><path d="M136.82584,277.79834l15.02666,-3.92" fill="none" stroke="#008a05" stroke-width="5" stroke-linecap="round"/><path d="M337.42829,263.9375h50" fill="none" stroke="#c38600" stroke-width="4" stroke-linecap="round"/><path d="M415.42829,265.9375l13,-1" fill="none" stroke="#c38600" stroke-width="4" stroke-linecap="round"/><path d="M428.11278,278.95333c0,-7.2423 5.87104,-13.11333 13.11334,-13.11333c7.2423,0 13.11333,5.87103 13.11333,13.11333c0,7.2423 -5.87103,13.11334 -13.11333,13.11334c-7.2423,0 -13.11334,-5.87104 -13.11334,-13.11334z" fill="url(#color-15)" stroke="#008a05" stroke-width="5" stroke-linecap="butt"/><path d="M449.16583,273.33333l7.025,-5.15166" fill="none" stroke="#008a05" stroke-width="5" stroke-linecap="round"/><path d="M442.14083,272.39667l-1.87333,-10.77167" fill="none" stroke="#008a05" stroke-width="5" stroke-linecap="round"/><path d="M440.2675,280.82667l1.405,-4.68334" fill="none" stroke="#008a05" stroke-width="5" stroke-linecap="round"/><path d="M435.11583,274.27l-7.96166,-9.835" fill="none" stroke="#008a05" stroke-width="5" stroke-linecap="round"/><path d="M424.8125,283.63667l8.89833,-1.405" fill="none" stroke="#008a05" stroke-width="5" stroke-linecap="round"/><path d="M440.73583,296.75l-1.405,-9.36667" fill="none" stroke="#008a05" stroke-width="5" stroke-linecap="round"/><path d="M442.14083,283.63667l10.30334,4.215" fill="none" stroke="#008a05" stroke-width="5" stroke-linecap="round"/><path d="M447.76083,278.95333l10.77167,-2.81" fill="none" stroke="#008a05" stroke-width="5" stroke-linecap="round"/></g></g></svg>