<svg version="1.1" xmlns="http://www.w3.org/2000/svg" xmlns:xlink="http://www.w3.org/1999/xlink" width="36.00768" height="34.22071" viewBox="0,0,36.00768,34.22071"><defs><linearGradient x1="240.00001" y1="163.88964" x2="240.00001" y2="196.11035" gradientUnits="userSpaceOnUse" id="color-1"><stop offset="0" stop-color="#fcff9b"/><stop offset="1" stop-color="#ffdc68"/></linearGradient></defs><g transform="translate(-221.99617,-162.88964)"><g data-paper-data="{&quot;isPaintingLayer&quot;:true}" fill-rule="nonzero" stroke-linejoin="miter" stroke-miterlimit="10" stroke-dasharray="" stroke-dashoffset="0" style="mix-blend-mode: normal"><path d="M222.99617,196.11035v-32.22071h34.00768v32.22071z" fill="url(#color-1)" stroke="#f4ca3d" stroke-width="2" stroke-linecap="butt"/><g fill="#cccccc" stroke="#cccccc" stroke-width="1.5"><path d="M228.26446,178.08368l0.17756,-3.78879l-1.36137,-2.31537l-2.19004,-0.07016l-0.47352,-2.80651l4.43928,0.07016l2.36761,4.20977l-0.05919,6.17433l-3.78818,3.15733l0.05919,3.29765l-3.25547,0.21048l-0.05919,-3.85895z" data-paper-data="{&quot;origPos&quot;:null}" stroke-linecap="round"/><path d="M227.19144,189.11129l-0.47554,3.11915l-2.34518,-1.39127l0.34276,-2.44591z" data-paper-data="{&quot;origPos&quot;:null,&quot;origRot&quot;:0}" stroke-linecap="butt"/></g><g fill="#fafafa" stroke="#fafafa" stroke-width="1.5"><path d="M225.8459,177.4448l0.16942,-3.78879l-1.29896,-2.31537l-0.16114,-2.6838l1.85544,-0.22271l2.25906,4.30977l-0.05647,6.17433l-3.61448,3.15733l0.05647,3.29765l-0.63274,0.01048l0.43331,-4.35895z" data-paper-data="{&quot;origPos&quot;:null}" stroke-linecap="round"/><path d="M224.82208,188.47241l-0.43959,3.24043l0.27924,-3.74875z" data-paper-data="{&quot;origPos&quot;:null,&quot;origRot&quot;:0}" stroke-linecap="butt"/></g><g fill="#cccccc" stroke="#cccccc" stroke-width="1.5"><path d="M254.56506,178.1948l0.1522,-3.78879l-1.16688,-2.31537l-1.87716,-0.07016l-2.13084,3.08717l-1.31909,-2.80651l3.04406,-3.08717l3.80507,0.07016l2.02937,4.20977l-0.05073,6.17433l-3.24699,3.15733l0.05073,3.29765l-2.79038,0.21048l-0.05073,-3.85895z" data-paper-data="{&quot;origPos&quot;:null}" stroke-linecap="round"/><path d="M253.64535,189.22241l-0.4076,3.11915l-2.444,-1.39127l0.72765,-2.44591z" data-paper-data="{&quot;origPos&quot;:null,&quot;origRot&quot;:0}" stroke-linecap="butt"/></g><g fill="#fafafa" stroke="#fafafa" stroke-width="1.5"><path d="M253.51347,177.4448l0.21048,-3.78879l-1.61374,-2.31537l-2.59602,-0.07016l-2.94684,3.08717l-1.82423,-2.80651l4.20977,-3.08717l5.26221,0.07016l2.80651,4.20977l-0.07016,6.17433l-4.49042,3.15733l0.07016,3.29765l-3.85895,0.21048l-0.07016,-3.85895z" data-paper-data="{&quot;origPos&quot;:null}" stroke-linecap="round"/><path d="M252.24153,188.47241l-0.56369,3.11915l-3.37992,-1.39127l1.0063,-2.44591z" data-paper-data="{&quot;origPos&quot;:null,&quot;origRot&quot;:0}" stroke-linecap="butt"/></g><path d="M255.97261,183.57064v-14.74444h1.88889v14.74444z" fill="#f4ca3d" stroke="none" stroke-width="0" stroke-linecap="butt"/><path d="M251.98525,167.33327c0,-0.78241 0.63426,-1.41666 1.41667,-1.41666c0.7824,0 1.41667,0.63426 1.41667,1.41666c0,0.78241 -0.63426,1.41667 -1.41667,1.41667c-0.78241,0 -1.41667,-0.63426 -1.41667,-1.41667z" fill="#f4ca3d" stroke="none" stroke-width="0" stroke-linecap="butt"/><path d="M252.16705,192.5151c0,-0.78241 0.63426,-1.41667 1.41667,-1.41667c0.7824,0 1.41667,0.63426 1.41667,1.41667c0,0.78241 -0.63427,1.41667 -1.41667,1.41667c-0.7824,0 -1.41667,-0.63426 -1.41667,-1.41667z" fill="#f4ca3d" stroke="none" stroke-width="0" stroke-linecap="butt"/><path d="M225.09636,167.44439c0,-0.7824 0.63426,-1.41667 1.41667,-1.41667c0.7824,0 1.41667,0.63426 1.41667,1.41667c0,0.7824 -0.63426,1.41667 -1.41667,1.41667c-0.7824,0 -1.41667,-0.63426 -1.41667,-1.41667z" fill="#f4ca3d" stroke="none" stroke-width="0" stroke-linecap="butt"/><path d="M225.27816,192.62621c0,-0.78241 0.63426,-1.41666 1.41667,-1.41666c0.78241,0 1.41667,0.63426 1.41667,1.41666c0,0.78241 -0.63426,1.41667 -1.41667,1.41667c-0.78241,0 -1.41667,-0.63426 -1.41667,-1.41667z" fill="#f4ca3d" stroke="none" stroke-width="0" stroke-linecap="butt"/></g></g></svg>