<svg version="1.1" xmlns="http://www.w3.org/2000/svg" xmlns:xlink="http://www.w3.org/1999/xlink" width="665.54902" height="397.09909" viewBox="0,0,665.54902,397.09909"><defs><linearGradient x1="240" y1="-11" x2="240" y2="371.00001" gradientUnits="userSpaceOnUse" id="color-1"><stop offset="0" stop-color="#000000"/><stop offset="1" stop-color="#5a82ff"/></linearGradient><linearGradient x1="363.35938" y1="116.8125" x2="363.35938" y2="310.81251" gradientUnits="userSpaceOnUse" id="color-2"><stop offset="0" stop-color="#bb6b24"/><stop offset="1" stop-color="#7c5226"/></linearGradient><radialGradient cx="289.35938" cy="156.3125" r="45.5" gradientUnits="userSpaceOnUse" id="color-3"><stop offset="0" stop-color="#398f3b"/><stop offset="1" stop-color="#1a421b"/></radialGradient><radialGradient cx="434.35938" cy="170.31251" r="45.5" gradientUnits="userSpaceOnUse" id="color-4"><stop offset="0" stop-color="#398f3b"/><stop offset="1" stop-color="#1a421b"/></radialGradient><radialGradient cx="364.35938" cy="99.31251" r="67.5" gradientUnits="userSpaceOnUse" id="color-5"><stop offset="0" stop-color="#398f3b"/><stop offset="1" stop-color="#1a421b"/></radialGradient><linearGradient x1="138.35938" y1="107.8125" x2="138.35938" y2="301.81251" gradientUnits="userSpaceOnUse" id="color-6"><stop offset="0" stop-color="#bb6b24"/><stop offset="1" stop-color="#7c5226"/></linearGradient><radialGradient cx="64.35938" cy="147.3125" r="45.5" gradientUnits="userSpaceOnUse" id="color-7"><stop offset="0" stop-color="#398f3b"/><stop offset="1" stop-color="#1a421b"/></radialGradient><radialGradient cx="209.35938" cy="161.3125" r="45.5" gradientUnits="userSpaceOnUse" id="color-8"><stop offset="0" stop-color="#398f3b"/><stop offset="1" stop-color="#1a421b"/></radialGradient><radialGradient cx="139.35938" cy="90.31251" r="67.5" gradientUnits="userSpaceOnUse" id="color-9"><stop offset="0" stop-color="#398f3b"/><stop offset="1" stop-color="#1a421b"/></radialGradient><linearGradient x1="495.09108" y1="69.5366" x2="495.09108" y2="273.00001" gradientUnits="userSpaceOnUse" id="color-10"><stop offset="0" stop-color="#bb6b24"/><stop offset="1" stop-color="#7c5226"/></linearGradient><radialGradient cx="419.15206" cy="104.19361" r="49.29268" gradientUnits="userSpaceOnUse" id="color-11"><stop offset="0" stop-color="#66ff68"/><stop offset="1" stop-color="#398f3b"/></radialGradient><radialGradient cx="500.33499" cy="44.69361" r="70.79268" gradientUnits="userSpaceOnUse" id="color-12"><stop offset="0" stop-color="#66ff68"/><stop offset="1" stop-color="#398f3b"/></radialGradient><linearGradient x1="9.03782" y1="110.33129" x2="9.03782" y2="351.00001" gradientUnits="userSpaceOnUse" id="color-13"><stop offset="0" stop-color="#bb6b24"/><stop offset="1" stop-color="#7c5226"/></linearGradient><radialGradient cx="108.94532" cy="166.20667" r="58.30632" gradientUnits="userSpaceOnUse" id="color-14"><stop offset="0" stop-color="#66ff68"/><stop offset="1" stop-color="#398f3b"/></radialGradient><radialGradient cx="15.24061" cy="80.94552" r="83.73783" gradientUnits="userSpaceOnUse" id="color-15"><stop offset="0" stop-color="#66ff68"/><stop offset="1" stop-color="#398f3b"/></radialGradient><radialGradient cx="184.8054" cy="228.41198" r="84.5" gradientUnits="userSpaceOnUse" id="color-16"><stop offset="0" stop-color="#00ff4c"/><stop offset="1" stop-color="#65b15b"/></radialGradient><radialGradient cx="229.57035" cy="197.01018" r="11.25" gradientUnits="userSpaceOnUse" id="color-17"><stop offset="0" stop-color="#ff5858"/><stop offset="1" stop-color="#f73434"/></radialGradient><radialGradient cx="227.23731" cy="193.4578" r="5.75" gradientUnits="userSpaceOnUse" id="color-18"><stop offset="0" stop-color="#f78934"/><stop offset="1" stop-color="#f78934" stop-opacity="0"/></radialGradient><radialGradient cx="207.9118" cy="195.64541" r="11.25" gradientUnits="userSpaceOnUse" id="color-19"><stop offset="0" stop-color="#ff5858"/><stop offset="1" stop-color="#f73434"/></radialGradient><radialGradient cx="209.40238" cy="191.66536" r="5.75" gradientUnits="userSpaceOnUse" id="color-20"><stop offset="0" stop-color="#f78934"/><stop offset="1" stop-color="#f78934" stop-opacity="0"/></radialGradient><radialGradient cx="104.3054" cy="270.91198" r="78" gradientUnits="userSpaceOnUse" id="color-21"><stop offset="0" stop-color="#00ff4c"/><stop offset="1" stop-color="#65b15b"/></radialGradient><radialGradient cx="137.7453" cy="236.44082" r="10.38461" gradientUnits="userSpaceOnUse" id="color-22"><stop offset="0" stop-color="#ff5858"/><stop offset="1" stop-color="#f73434"/></radialGradient><radialGradient cx="137.7453" cy="232.51775" r="5.30769" gradientUnits="userSpaceOnUse" id="color-23"><stop offset="0" stop-color="#f78934"/><stop offset="1" stop-color="#f78934" stop-opacity="0"/></radialGradient><linearGradient x1="238.24604" y1="239.7365" x2="238.24604" y2="323.82058" gradientUnits="userSpaceOnUse" id="color-24"><stop offset="0" stop-color="#ffffff" stop-opacity="0"/><stop offset="1" stop-color="#ffffff"/></linearGradient><linearGradient x1="238.90625" y1="283.85537" x2="238.90625" y2="325.33635" gradientUnits="userSpaceOnUse" id="color-25"><stop offset="0" stop-color="#17ff22"/><stop offset="1" stop-color="#02d10c"/></linearGradient></defs><g transform="translate(91.45508,26.09908)"><g data-paper-data="{&quot;isPaintingLayer&quot;:true}" fill-rule="nonzero" stroke-linecap="butt" stroke-linejoin="miter" stroke-miterlimit="10" stroke-dasharray="" stroke-dashoffset="0" style="mix-blend-mode: normal"><path d="M-7.5,371.00001v-382h495v382z" fill="url(#color-1)" stroke="none" stroke-width="0"/><path d="M344.85938,310.81251l-1,-106l-61.50605,-20.31878l5.50605,-24.68122l57,13v-56h37v70l46,-22l10.8283,22.85374l-56.8283,31.14627v92z" fill="url(#color-2)" stroke="none" stroke-width="0"/><path d="M243.85938,156.3125c0,-25.12896 20.37104,-45.5 45.5,-45.5c25.12896,0 45.5,20.37104 45.5,45.5c0,25.12896 -20.37104,45.5 -45.5,45.5c-25.12896,0 -45.5,-20.37104 -45.5,-45.5z" fill="url(#color-3)" stroke="none" stroke-width="0"/><path d="M388.85938,170.31251c0,-25.12896 20.37104,-45.5 45.5,-45.5c25.12896,0 45.5,20.37104 45.5,45.5c0,25.12896 -20.37104,45.5 -45.5,45.5c-25.12896,0 -45.5,-20.37104 -45.5,-45.5z" fill="url(#color-4)" stroke="none" stroke-width="0"/><path d="M296.85938,99.31251c0,-37.27922 30.22078,-67.5 67.5,-67.5c37.27922,0 67.5,30.22078 67.5,67.5c0,37.27922 -30.22078,67.5 -67.5,67.5c-37.27922,0 -67.5,-30.22078 -67.5,-67.5z" fill="url(#color-5)" stroke="none" stroke-width="0"/><path d="M119.85938,301.81251l-1,-106l-61.50605,-20.31878l5.50605,-24.68122l57,13v-56h37v70l46,-22l10.8283,22.85374l-56.8283,31.14627v92z" fill="url(#color-6)" stroke="none" stroke-width="0"/><path d="M18.85938,147.3125c0,-25.12896 20.37104,-45.5 45.5,-45.5c25.12896,0 45.5,20.37104 45.5,45.5c0,25.12896 -20.37104,45.5 -45.5,45.5c-25.12896,0 -45.5,-20.37104 -45.5,-45.5z" fill="url(#color-7)" stroke="none" stroke-width="0"/><path d="M163.85938,161.3125c0,-25.12896 20.37104,-45.5 45.5,-45.5c25.12896,0 45.5,20.37104 45.5,45.5c0,25.12896 -20.37104,45.5 -45.5,45.5c-25.12896,0 -45.5,-20.37104 -45.5,-45.5z" fill="url(#color-8)" stroke="none" stroke-width="0"/><path d="M71.85938,90.31251c0,-37.27922 30.22078,-67.5 67.5,-67.5c37.27922,0 67.5,30.22078 67.5,67.5c0,37.27922 -30.22078,67.5 -67.5,67.5c-37.27922,0 -67.5,-30.22078 -67.5,-67.5z" fill="url(#color-9)" stroke="none" stroke-width="0"/><path d="M475.68865,273.00001l-1.04878,-111.17073l-64.50635,-21.30994l5.77464,-25.88518l59.78049,13.63415v-58.73171h38.80487v73.41464l48.24391,-23.07317l11.35651,23.96855l-59.60041,32.66559v96.48781z" fill="url(#color-10)" stroke="none" stroke-width="0"/><path d="M369.85938,104.19361c0,-27.2236 22.06909,-49.29269 49.29269,-49.29269c27.2236,0 49.29268,22.06909 49.29268,49.29269c0,27.2236 -22.06908,49.29268 -49.29268,49.29268c-27.2236,0 -49.29269,-22.06908 -49.29269,-49.29268z" fill="url(#color-11)" stroke="none" stroke-width="0"/><path d="M429.5423,44.69361c0,-39.09772 31.69496,-70.79269 70.79269,-70.79269c39.09773,0 70.79268,31.69496 70.79268,70.79269c0,39.09772 -31.69496,70.79268 -70.79268,70.79268c-39.09773,0 -70.79269,-31.69495 -70.79269,-70.79268z" fill="url(#color-12)" stroke="none" stroke-width="0"/><path d="M469.56856,232.57596c0,50.84499 -25.24356,60.34752 -56.38308,60.34752c-31.13952,0 -56.38309,-9.50252 -56.38309,-60.34752c0,-50.84499 25.24357,-92.06304 56.38309,-92.06304c31.13952,0 56.38308,41.21802 56.38308,92.06304z" fill="#fff6bc" stroke="none" stroke-width="0"/><path d="M413.4057,272.88106c0,-19.46222 19.74169,-32.5965 39.20387,-32.5965c9.84132,0 15.88345,12.30101 15.88345,12.30101c0,0 -1.54143,10.07074 -12.39596,24.84256c-10.42531,14.1877 -32.12801,15.03148 -32.12801,15.03148c0,0 -10.56335,-7.6623 -10.56335,-19.57855z" fill="#ffdd00" stroke="none" stroke-width="0"/><path d="M362.56384,194.88046c0,0 5.96406,-1.72859 9.21527,-1.72859c13.98846,0 25.32834,11.33988 25.32834,25.32834c0,13.98846 -11.33988,25.32833 -25.32834,25.32833c-5.84787,0 -14.1985,-4.42948 -14.1985,-4.42948c0,0 -2.64269,-8.93025 -1.376,-23.56195c1.39988,-16.17036 6.35922,-20.93665 6.35922,-20.93665z" fill="#ffdd00" stroke="none" stroke-width="0"/><path d="M-13.91255,351.00001l-1.24056,-131.4994l-76.30197,-25.20668l6.83059,-30.61855l70.71194,16.12729v-69.47139h45.90073v86.83923l57.06579,-27.29233l13.43316,28.35143l-70.49895,38.63883v114.13156z" fill="url(#color-13)" stroke="none" stroke-width="0"/><path d="M50.63897,166.20667c0,-32.2017 26.10466,-58.30633 58.30635,-58.30633c32.2017,0 58.30632,26.10464 58.30632,58.30633c0,32.2017 -26.10462,58.30633 -58.30632,58.30633c-32.2017,0 -58.30635,-26.10464 -58.30635,-58.30633z" fill="url(#color-14)" stroke="none" stroke-width="0"/><path d="M-68.49721,80.94552c0,-46.24713 37.4907,-83.73783 83.73783,-83.73783c46.24713,0 83.73783,37.4907 83.73783,83.73783c0,46.24713 -37.4907,83.73783 -83.73783,83.73783c-46.24713,0 -83.73783,-37.4907 -83.73783,-83.73783z" fill="url(#color-15)" stroke="none" stroke-width="0"/><path d="M411.64373,173.32967c0,-12.91871 21.26772,-26.2852 21.26772,-26.2852c0,0 10.00424,3.66299 17.57449,14.33277c7.34189,10.34788 11.69038,24.69466 11.69038,24.69466c0,0 -13.43347,14.12782 -23.66251,14.12782c-14.83995,0 -26.87006,-12.03015 -26.87006,-26.87006z" fill="#ffdd00" stroke="none" stroke-width="0"/><path d="M100.3054,228.41198c0,-46.66806 37.83194,-84.5 84.5,-84.5c46.66806,0 84.5,37.83194 84.5,84.5c0,46.66806 -37.83194,84.5 -84.5,84.5c-46.66806,0 -84.5,-37.83194 -84.5,-84.5z" fill="url(#color-16)" stroke="none" stroke-width="0"/><path d="M190.03416,179.72736c0.02412,-0.52753 0.31201,-3.67543 3.74779,-3.67543c3.75,0 3.75,3.75 3.75,3.75l-0.57001,2.9875c-4.35971,6.97502 -8.31715,14.09449 -11.77015,21.57311c-1.01285,2.19367 -2.91724,9.45802 -6.68896,10.11946c-3.30542,0.57966 -9.11665,-5.14315 -10.63638,-6.82159c-2.52154,-2.78489 -3.95794,-6.40183 -5.6,-9.7808c-3.43383,-7.06604 -5.2231,-13.77136 -5.2345,-21.57766c0,0 0,-3.75 3.75,-3.75c3.75,0 3.75,3.75 3.75,3.75c-0.01542,9.31649 3.55933,16.57733 8.06876,24.60704c0.37725,0.67174 0.5774,1.46542 1.09674,2.03449c0.61905,0.67835 1.91992,1.56916 2.81785,2.37436c0.51822,-1.39318 1.2355,-2.72454 1.85681,-4.0765c1.06191,-2.3107 2.27248,-4.55014 3.40984,-6.82465c2.54501,-5.08956 5.27274,-9.87536 8.25221,-14.68932z" fill="#13ae37" stroke="none" stroke-width="0.5"/><path d="M154.53416,234.72736c0.02412,-0.52754 0.31202,-3.67543 3.74779,-3.67543c3.75,0 3.75,3.75 3.75,3.75l-0.57001,2.9875c-4.35971,6.97502 -8.31715,14.09449 -11.77015,21.57311c-1.01286,2.19367 -2.91724,9.45801 -6.68897,10.11946c-3.30541,0.57966 -9.11666,-5.14315 -10.63638,-6.8216c-2.52154,-2.7849 -3.95795,-6.40183 -5.59999,-9.7808c-3.43382,-7.06604 -5.22309,-13.77137 -5.2345,-21.57767c0,0 0,-3.75 3.75,-3.75c3.75,0 3.75,3.75 3.75,3.75c-0.01542,9.31649 3.55932,16.57733 8.06876,24.60704c0.37725,0.67174 0.57741,1.46542 1.09674,2.03449c0.61905,0.67835 1.91992,1.56916 2.81785,2.37436c0.51823,-1.39318 1.23549,-2.72454 1.85681,-4.0765c1.06191,-2.3107 2.27248,-4.55014 3.40984,-6.82466c2.54502,-5.08956 5.27273,-9.87535 8.25221,-14.68931z" fill="#13ae37" stroke="none" stroke-width="0.5"/><path d="M220.03417,226.72736c0.02412,-0.52754 0.31202,-3.67543 3.74779,-3.67543c3.75,0 3.75,3.75 3.75,3.75l-0.57001,2.9875c-4.3597,6.97501 -8.31715,14.09449 -11.77015,21.57311c-1.01286,2.19367 -2.91724,9.45801 -6.68896,10.11946c-3.30541,0.57966 -9.11665,-5.14315 -10.63638,-6.8216c-2.52154,-2.7849 -3.95794,-6.40183 -5.6,-9.7808c-3.43382,-7.06604 -5.2231,-13.77137 -5.2345,-21.57767c0,0 0,-3.75 3.75,-3.75c3.75,0 3.75,3.75 3.75,3.75c-0.01542,9.31649 3.55933,16.57733 8.06876,24.60705c0.37725,0.67174 0.5774,1.46542 1.09674,2.03449c0.61905,0.67834 1.91992,1.56915 2.81785,2.37435c0.51823,-1.39318 1.2355,-2.72454 1.85681,-4.0765c1.06191,-2.3107 2.27248,-4.55014 3.40984,-6.82465c2.54502,-5.08956 5.27274,-9.87536 8.25221,-14.68932z" fill="#13ae37" stroke="none" stroke-width="0.5"/><path d="M220.16699,203.18589c-3.41074,-5.19333 -1.96566,-12.16832 3.22767,-15.57906c5.19333,-3.41074 12.16832,-1.96567 15.57906,3.22767c3.41074,5.19333 1.96567,12.16832 -3.22767,15.57906c-5.19333,3.41074 -12.16832,1.96567 -15.57906,-3.22767z" fill="url(#color-17)" stroke="none" stroke-width="0"/><path d="M222.43115,196.61428c-1.74327,-2.65437 -1.00467,-6.21936 1.6497,-7.96263c2.65437,-1.74327 6.21936,-1.00467 7.96263,1.6497c1.74327,2.65437 1.00468,6.21936 -1.6497,7.96263c-2.65437,1.74327 -6.21937,1.00468 -7.96264,-1.6497z" fill="url(#color-18)" stroke="none" stroke-width="0"/><path d="M221.15868,174.33785c1.15051,0.48871 0.66179,1.63922 0.66179,1.63922l-0.26307,0.49989c-0.73091,5.51425 2.45233,10.47245 5.382,14.93329c0,0 0.68619,1.04482 -0.35863,1.73101c-1.04482,0.68619 -1.73101,-0.35863 -1.73101,-0.35863c-3.29895,-5.02311 -6.5424,-10.43199 -5.77206,-16.6236l0.44177,-1.15939c0,0 0.48871,-1.15051 1.63922,-0.66179z" fill="#13ae37" stroke="none" stroke-width="0.5"/><path d="M197.37641,191.69976c2.17911,-5.81853 8.6625,-8.76886 14.48103,-6.58974c5.81853,2.17911 8.76886,8.6625 6.58974,14.48103c-2.17911,5.81853 -8.66249,8.76886 -14.48102,6.58974c-5.81853,-2.17911 -8.76887,-8.6625 -6.58975,-14.48103z" fill="url(#color-19)" stroke="none" stroke-width="0"/><path d="M204.01762,189.6487c1.11378,-2.97392 4.4275,-4.48186 7.40142,-3.36809c2.97392,1.11378 4.48186,4.4275 3.36809,7.40142c-1.11378,2.97392 -4.42749,4.48186 -7.40141,3.36809c-2.97392,-1.11378 -4.48187,-4.4275 -3.3681,-7.40142z" fill="url(#color-20)" stroke="none" stroke-width="0"/><path d="M221.24889,175.47331c0.28456,1.21717 -0.93263,1.50173 -0.93263,1.50173l-0.5588,0.0827c-4.8827,2.66467 -7.00629,8.16075 -8.87805,13.15861c0,0 -0.4384,1.1706 -1.609,0.7322c-1.1706,-0.4384 -0.73219,-1.609 -0.73219,-1.609c2.10769,-5.62782 4.55954,-11.43853 10.0123,-14.47117l1.19664,-0.32769c0,0 1.21717,-0.28456 1.50173,0.93263z" fill="#13ae37" stroke="none" stroke-width="0.5"/><path d="M506.42307,247.10564c0,36.91813 -18.32916,43.81782 -40.9393,43.81782c-22.61013,0 -40.93927,-6.8997 -40.93927,-43.81782c0,-36.91813 18.32914,-66.84619 40.93927,-66.84619c22.61013,0 40.9393,29.92806 40.9393,66.84619z" fill="#99a6ff" stroke="none" stroke-width="0"/><path d="M465.6437,276.37084c0,-14.13134 14.33425,-23.66802 28.46559,-23.66802c7.14571,0 11.53284,8.93164 11.53284,8.93164c0,0 0.48652,8.91805 -7.39486,19.64372c-7.56973,10.30156 -24.93361,9.30848 -24.93361,9.30848c0,0 -7.66995,-5.56352 -7.66995,-14.21581z" fill="#0021ff" stroke="none" stroke-width="0"/><path d="M428.72786,219.73525c0,0 4.33046,-1.25512 6.69113,-1.25512c10.1569,0 18.3907,8.23379 18.3907,18.39069c0,10.1569 -8.2338,18.3907 -18.3907,18.3907c-4.24609,0 -10.30939,-3.2162 -10.30939,-3.2162c0,0 -1.91883,-6.48419 -0.99911,-17.10813c1.01645,-11.74116 4.61737,-15.20193 4.61737,-15.20193z" fill="#0021ff" stroke="none" stroke-width="0"/><path d="M464.36435,204.08742c0,-9.38017 15.4423,-19.08545 15.4423,-19.08545c0,0 7.26397,2.65967 12.76068,10.4069c5.33088,7.51353 8.48831,17.93058 8.48831,17.93058c0,0 -9.75391,10.2581 -17.18116,10.2581c-10.77515,0 -19.51013,-8.73498 -19.51013,-19.51013z" fill="#0021ff" stroke="none" stroke-width="0"/><path d="M26.3054,270.91198c0,-43.07821 34.92179,-78 78,-78c43.07821,0 78,34.92179 78,78c0,43.07821 -34.92179,78 -78,78c-43.07821,0 -78,-34.92179 -78,-78z" fill="url(#color-21)" stroke="none" stroke-width="0"/><path d="M115.59349,225.97233c0.02227,-0.48695 0.28801,-3.39271 3.4595,-3.39271c3.46154,0 3.46154,3.46154 3.46154,3.46154l-0.52617,2.75769c-4.02435,6.43848 -7.67737,13.0103 -10.86476,19.91364c-0.93494,2.02492 -2.69284,8.73048 -6.17442,9.34104c-3.05116,0.53507 -8.41536,-4.74752 -9.81819,-6.29685c-2.32758,-2.57067 -3.65348,-5.90938 -5.16923,-9.02843c-3.16969,-6.5225 -4.82132,-12.71203 -4.83184,-19.91784c0,0 -0.00001,-3.46154 3.46153,-3.46154c3.46154,0 3.46154,3.46154 3.46154,3.46154c-0.01423,8.59984 3.28553,15.30215 7.44808,22.71419c0.34823,0.62007 0.53298,1.3527 1.01237,1.87799c0.57143,0.62617 1.77224,1.44845 2.6011,2.19171c0.47835,-1.28601 1.14046,-2.51495 1.71397,-3.76292c0.98023,-2.13296 2.09768,-4.20013 3.14755,-6.29968c2.34924,-4.69806 4.86714,-9.11571 7.61742,-13.55937z" fill="#13ae37" stroke="none" stroke-width="0.5"/><path d="M82.82426,276.74154c0.02226,-0.48696 0.28802,-3.3927 3.4595,-3.3927c3.46154,0 3.46153,3.46154 3.46153,3.46154l-0.52616,2.7577c-4.02435,6.43848 -7.67737,13.0103 -10.86476,19.91364c-0.93495,2.02492 -2.69284,8.73047 -6.17443,9.34104c-3.05115,0.53507 -8.41538,-4.74752 -9.8182,-6.29686c-2.32757,-2.57067 -3.65349,-5.90938 -5.16922,-9.02843c-3.16968,-6.5225 -4.82132,-12.71204 -4.83185,-19.91785c0,0 0,-3.46154 3.46154,-3.46154c3.46154,0 3.46154,3.46154 3.46154,3.46154c-0.01423,8.59983 3.28553,15.30215 7.44808,22.71419c0.34823,0.62007 0.533,1.3527 1.01238,1.87799c0.57143,0.62617 1.77223,1.44846 2.60109,2.19172c0.47836,-1.28601 1.14045,-2.51496 1.71398,-3.76292c0.98022,-2.13295 2.09767,-4.20013 3.14754,-6.29969c2.34925,-4.69806 4.86714,-9.11571 7.61743,-13.55937z" fill="#13ae37" stroke="none" stroke-width="0.5"/><path d="M143.28581,269.35693c0.02227,-0.48696 0.28802,-3.3927 3.4595,-3.3927c3.46154,0 3.46154,3.46154 3.46154,3.46154l-0.52617,2.75769c-4.02434,6.43847 -7.67736,13.0103 -10.86475,19.91364c-0.93495,2.02492 -2.69284,8.73047 -6.17442,9.34104c-3.05115,0.53507 -8.41537,-4.74752 -9.8182,-6.29686c-2.32757,-2.57067 -3.65348,-5.90938 -5.16923,-9.02843c-3.16968,-6.5225 -4.82132,-12.71204 -4.83185,-19.91785c0,0 0,-3.46154 3.46154,-3.46154c3.46154,0 3.46153,3.46154 3.46153,3.46154c-0.01423,8.59983 3.28554,15.30215 7.44809,22.7142c0.34823,0.62007 0.53299,1.35269 1.01238,1.87799c0.57143,0.62616 1.77223,1.44845 2.60109,2.19171c0.47836,-1.28601 1.14047,-2.51496 1.71398,-3.76292c0.98023,-2.13295 2.09767,-4.20013 3.14754,-6.29968c2.34925,-4.69806 4.86714,-9.11572 7.61742,-13.55937z" fill="#13ae37" stroke="none" stroke-width="0.5"/><path d="M127.36069,236.44082c0,-5.73526 4.64936,-10.38461 10.38461,-10.38461c5.73526,0 10.38461,4.64935 10.38461,10.38461c0,5.73526 -4.64935,10.38461 -10.38461,10.38461c-5.73526,0 -10.38461,-4.64935 -10.38461,-10.38461z" fill="url(#color-22)" stroke="none" stroke-width="0"/><path d="M132.43761,232.51775c0,-2.93136 2.37633,-5.30769 5.30769,-5.30769c2.93136,0 5.30769,2.37633 5.30769,5.30769c0,2.93136 -2.37633,5.30769 -5.30769,5.30769c-2.93136,0 -5.30769,-2.37633 -5.30769,-5.30769z" fill="url(#color-23)" stroke="none" stroke-width="0"/><path d="M142.74382,214.6854c0.64005,0.96006 -0.32003,1.6001 -0.32003,1.6001l-0.45628,0.2524c-3.35814,3.8842 -3.41452,9.32276 -3.41452,14.24909c0,0 0,1.15384 -1.15384,1.15384c-1.15385,0 -1.15385,-1.15384 -1.15385,-1.15384c0,-5.54728 0.23829,-11.36408 3.97009,-15.75092l0.92834,-0.67068c0,0 0.96005,-0.64004 1.6001,0.32002z" fill="#13ae37" stroke="none" stroke-width="0.5"/><path d="M-37.27948,323.82058v-84.08408h551.05105v84.08408z" fill="url(#color-24)" stroke="none" stroke-width="0"/><path d="M-21.59375,370.85539v-80h522v80z" fill="#98763d" stroke="none" stroke-width="0"/><path d="M-21.59375,308.43667v-24.58132h521l1.14047,41.3284l-63.35677,-25.88423l-55.72625,24.35639l-61.55711,-21.63902l-66.30373,18.60445l-60.20055,-17.99541l-62.02193,19.0896l-63.98539,-16.68231l-52.98876,14.91211z" fill="url(#color-25)" stroke="#08a310" stroke-width="3"/></g></g></svg>