<svg version="1.1" xmlns="http://www.w3.org/2000/svg" xmlns:xlink="http://www.w3.org/1999/xlink" width="344.95313" height="256.9585" viewBox="0,0,344.95313,256.9585"><defs><linearGradient x1="213.12179" y1="210.78125" x2="213.12179" y2="293.78125" gradientUnits="userSpaceOnUse" id="color-1"><stop offset="0" stop-color="#9f8040"/><stop offset="1" stop-color="#7f6633"/></linearGradient><linearGradient x1="346.07493" y1="97.15625" x2="346.07493" y2="295.15625" gradientUnits="userSpaceOnUse" id="color-2"><stop offset="0" stop-color="#f9dea4"/><stop offset="1" stop-color="#ffce71"/></linearGradient><linearGradient x1="344.6218" y1="62.34699" x2="344.6218" y2="139.98654" gradientUnits="userSpaceOnUse" id="color-3"><stop offset="0" stop-color="#00a515"/><stop offset="1" stop-color="#00bf06"/></linearGradient><linearGradient x1="230.88662" y1="258.11198" x2="230.88662" y2="292.88912" gradientUnits="userSpaceOnUse" id="color-4"><stop offset="0" stop-color="#00a515"/><stop offset="1" stop-color="#00bf06"/></linearGradient><linearGradient x1="262.1224" y1="254.29125" x2="262.1224" y2="292.46459" gradientUnits="userSpaceOnUse" id="color-5"><stop offset="0" stop-color="#00a515"/><stop offset="1" stop-color="#00bf06"/></linearGradient><linearGradient x1="213.66867" y1="158.80559" x2="213.66867" y2="231.46875" gradientUnits="userSpaceOnUse" id="color-6"><stop offset="0" stop-color="#9f8040"/><stop offset="1" stop-color="#7f6633"/></linearGradient><linearGradient x1="401.07493" y1="72.15625" x2="401.07493" y2="295.15625" gradientUnits="userSpaceOnUse" id="color-7"><stop offset="0" stop-color="#f9dea4"/><stop offset="1" stop-color="#ffce71"/></linearGradient><linearGradient x1="399.6218" y1="37.34699" x2="399.6218" y2="114.98654" gradientUnits="userSpaceOnUse" id="color-8"><stop offset="0" stop-color="#00a515"/><stop offset="1" stop-color="#00bf06"/></linearGradient><linearGradient x1="186.77657" y1="276.89125" x2="186.77657" y2="300.13125" gradientUnits="userSpaceOnUse" id="color-9"><stop offset="0" stop-color="#00a515"/><stop offset="1" stop-color="#00bf06"/></linearGradient></defs><g transform="translate(-154.16867,-49.82275)"><g data-paper-data="{&quot;isPaintingLayer&quot;:true}" fill-rule="nonzero" stroke-linejoin="miter" stroke-miterlimit="10" stroke-dasharray="" stroke-dashoffset="0" style="mix-blend-mode: normal"><path d="M198.62179,293.78125v-83h29v83z" fill="url(#color-1)" stroke="#3e3119" stroke-width="2" stroke-linecap="butt"/><path d="M334.57493,295.15625v-198h23v198z" fill="url(#color-2)" stroke="#c38600" stroke-width="4" stroke-linecap="butt"/><path d="M441.6218,101.16677l-32.00489,-4.78053c0,0 25.36485,12.27634 25.94705,15.14929c1.65533,8.16847 -22.29355,13.52127 -41.22636,13.44027c-26.12816,-0.11177 -49.71579,-25.65759 -49.71579,-25.65759c0,0 -11.35577,21.62334 -46.36338,22.17788c-8.69718,0.13777 -43.99052,-4.92153 -43.99052,-4.92153c0,0 5.80907,-8.78275 14.46528,-12.48224c6.69281,-2.86037 22.60001,-8.34864 22.60001,-8.34864c0,0 -13.08675,-3.04736 -19.87847,-2.18502c-7.39416,0.93884 -22.83294,7.6081 -22.83294,7.6081c0,0 18.24937,-23.13279 48.02164,-23.88729c30.1489,-0.76405 47.97837,20.80635 47.97837,20.80635c0,0 22.90942,-22.31243 51.18088,-20.76307c26.95949,1.47746 45.81912,23.84401 45.81912,23.84401z" fill="url(#color-3)" stroke="#008a05" stroke-width="5" stroke-linecap="butt"/><path d="M213.49805,275.50055c0,-9.60344 7.78512,-17.38857 17.38857,-17.38857c9.60344,0 17.38855,7.78512 17.38855,17.38857c0,9.60344 -7.78512,17.38857 -17.38855,17.38857c-9.60344,0 -17.38857,-7.78512 -17.38857,-17.38857z" fill="url(#color-4)" stroke="#008a05" stroke-width="5" stroke-linecap="butt"/><path d="M250.73015,261.21709l-9.3153,6.83122" fill="none" stroke="#008a05" stroke-width="5" stroke-linecap="round"/><path d="M232.09955,266.80627l-2.48409,-14.28346" fill="none" stroke="#008a05" stroke-width="5" stroke-linecap="round"/><path d="M229.61546,277.98463l1.86306,-6.21021" fill="none" stroke="#008a05" stroke-width="5" stroke-linecap="round"/><path d="M222.78424,269.29034l-10.55734,-13.04142" fill="none" stroke="#008a05" stroke-width="5" stroke-linecap="round"/><path d="M220.92118,279.8477l-11.79939,1.86306" fill="none" stroke="#008a05" stroke-width="5" stroke-linecap="round"/><path d="M228.37342,286.6789l1.86306,12.42041" fill="none" stroke="#008a05" stroke-width="5" stroke-linecap="round"/><path d="M245.76199,287.29994l-13.66245,-5.58918" fill="none" stroke="#008a05" stroke-width="5" stroke-linecap="round"/><path d="M239.55179,275.50055l14.28347,-3.72612" fill="none" stroke="#008a05" stroke-width="5" stroke-linecap="round"/><path d="M243.03573,273.37791c0,-10.54128 8.54539,-19.08666 19.08668,-19.08666c10.54128,0 19.08666,8.54538 19.08666,19.08666c0,10.54128 -8.54538,19.08668 -19.08666,19.08668c-10.54128,0 -19.08668,-8.54539 -19.08668,-19.08668z" fill="url(#color-5)" stroke="#008a05" stroke-width="5" stroke-linecap="butt"/><path d="M283.90378,257.69959l-10.225,7.49832" fill="none" stroke="#008a05" stroke-width="5" stroke-linecap="round"/><path d="M263.45378,263.83459l-2.72666,-15.67834" fill="none" stroke="#008a05" stroke-width="5" stroke-linecap="round"/><path d="M262.77212,269.28791l-2.045,6.81668" fill="none" stroke="#008a05" stroke-width="5" stroke-linecap="round"/><path d="M253.22878,266.56125l-11.58832,-14.315" fill="none" stroke="#008a05" stroke-width="5" stroke-linecap="round"/><path d="M238.23212,280.19459l12.95166,-2.045" fill="none" stroke="#008a05" stroke-width="5" stroke-linecap="round"/><path d="M259.36378,285.64791l2.045,13.63334" fill="none" stroke="#008a05" stroke-width="5" stroke-linecap="round"/><path d="M278.45045,286.32959l-14.99668,-6.135" fill="none" stroke="#008a05" stroke-width="5" stroke-linecap="round"/><path d="M271.63378,273.37791l15.67834,-4.09" fill="none" stroke="#008a05" stroke-width="5" stroke-linecap="round"/><path d="M155.16867,231.46875v-72.66316h117v72.66316z" fill="url(#color-6)" stroke="#3e3119" stroke-width="2" stroke-linecap="butt"/><path d="M218.62179,170.78125l40,23.33899l-36,27.66101" fill="none" stroke="#654500" stroke-width="7.5" stroke-linecap="round"/><path d="M167.62179,194.78125h84" fill="none" stroke="#654500" stroke-width="7.5" stroke-linecap="round"/><path d="M389.57493,295.15625v-223h23v223z" fill="url(#color-7)" stroke="#c38600" stroke-width="4" stroke-linecap="butt"/><path d="M496.6218,76.16677l-32.00489,-4.78053c0,0 25.36485,12.27634 25.94705,15.14929c1.65533,8.16847 -22.29355,13.52127 -41.22636,13.44027c-26.12816,-0.11177 -49.71579,-25.65759 -49.71579,-25.65759c0,0 -11.35577,21.62334 -46.36338,22.17788c-8.69718,0.13777 -43.99052,-4.92153 -43.99052,-4.92153c0,0 5.80907,-8.78275 14.46528,-12.48224c6.69281,-2.86037 22.60001,-8.34864 22.60001,-8.34864c0,0 -13.08675,-3.04736 -19.87847,-2.18502c-7.39416,0.93884 -22.83294,7.6081 -22.83294,7.6081c0,0 18.24937,-23.13279 48.02164,-23.88729c30.1489,-0.76405 47.97837,20.80635 47.97837,20.80635c0,0 22.90942,-22.31243 51.18088,-20.76307c26.95949,1.47746 45.81912,23.84401 45.81912,23.84401z" fill="url(#color-8)" stroke="#008a05" stroke-width="5" stroke-linecap="butt"/><path d="M175.15656,288.51125c0,-6.41755 5.20245,-11.62 11.62001,-11.62c6.41755,0 11.62,5.20244 11.62,11.62c0,6.41755 -5.20244,11.62001 -11.62,11.62001c-6.41755,0 -11.62001,-5.20245 -11.62001,-11.62001z" fill="url(#color-9)" stroke="#008a05" stroke-width="5" stroke-linecap="butt"/><path d="M200.03711,278.96625l-6.225,4.56499" fill="none" stroke="#008a05" stroke-width="5" stroke-linecap="round"/><path d="M187.58711,282.70125l-1.66,-9.545" fill="none" stroke="#008a05" stroke-width="5" stroke-linecap="round"/><path d="M187.17211,286.02125l-1.245,4.15001" fill="none" stroke="#008a05" stroke-width="5" stroke-linecap="round"/><path d="M181.36211,284.36125l-7.05499,-8.715" fill="none" stroke="#008a05" stroke-width="5" stroke-linecap="round"/><path d="M172.23211,292.66125l7.885,-1.245" fill="none" stroke="#008a05" stroke-width="5" stroke-linecap="round"/><path d="M185.09711,295.98125l1.245,8.3" fill="none" stroke="#008a05" stroke-width="5" stroke-linecap="round"/><path d="M196.71712,296.39625l-9.13001,-3.735" fill="none" stroke="#008a05" stroke-width="5" stroke-linecap="round"/><path d="M192.56711,288.51125l9.545,-2.49" fill="none" stroke="#008a05" stroke-width="5" stroke-linecap="round"/></g></g></svg>