<svg version="1.1" xmlns="http://www.w3.org/2000/svg" xmlns:xlink="http://www.w3.org/1999/xlink" width="470" height="227" viewBox="0,0,470,227"><defs><linearGradient x1="79.90625" y1="160.12501" x2="79.90625" y2="383.12501" gradientUnits="userSpaceOnUse" id="color-1"><stop offset="0" stop-color="#ffaf26"/><stop offset="1" stop-color="#ffe1a0"/></linearGradient><linearGradient x1="314.90625" y1="322.12501" x2="314.90625" y2="383.12501" gradientUnits="userSpaceOnUse" id="color-2"><stop offset="0" stop-color="#ffaf26"/><stop offset="1" stop-color="#ffe1a0"/></linearGradient></defs><g transform="translate(-16.40625,-158.12501)"><g data-paper-data="{&quot;isPaintingLayer&quot;:true}" fill-rule="nonzero" stroke="#c38600" stroke-width="4" stroke-linejoin="miter" stroke-miterlimit="10" stroke-dasharray="" stroke-dashoffset="0" style="mix-blend-mode: normal"><path d="M18.40625,383.12501v-223h123v223z" fill="url(#color-1)" stroke-linecap="butt"/><path d="M145.40625,383.12501v-61h339v61z" fill="url(#color-2)" stroke-linecap="butt"/><path d="M37.90625,196.42121h47" fill="none" stroke-linecap="round"/><path d="M65.90625,227.42121h57" fill="none" stroke-linecap="round"/><path d="M32.90625,302.42121h43" fill="none" stroke-linecap="round"/><path d="M43.90625,264.42121l55,2" fill="none" stroke-linecap="round"/><path d="M75.90625,337.42121l42,-1" fill="none" stroke-linecap="round"/><path d="M170.90625,340.42121l48,-1" fill="none" stroke-linecap="round"/><path d="M227.90625,348.42121h72" fill="none" stroke-linecap="round"/><path d="M306.90626,338.42121h48" fill="none" stroke-linecap="round"/><path d="M356.90626,350.42121h44" fill="none" stroke-linecap="round"/><path d="M415.90626,350.42121l45,-3" fill="none" stroke-linecap="round"/><path d="M404.85938,335.43751l64,-1" fill="none" stroke-linecap="round"/></g></g></svg>