<svg version="1.1" xmlns="http://www.w3.org/2000/svg" xmlns:xlink="http://www.w3.org/1999/xlink" width="107.1111" height="142.75519" viewBox="0,0,107.1111,142.75519"><defs><linearGradient x1="272.17274" y1="153.35563" x2="267.19302" y2="182.72569" gradientUnits="userSpaceOnUse" id="color-1"><stop offset="0" stop-color="#d21515"/><stop offset="1" stop-color="#940000"/></linearGradient><linearGradient x1="210.02479" y1="154.45299" x2="214.52002" y2="182.22371" gradientUnits="userSpaceOnUse" id="color-2"><stop offset="0" stop-color="#d21515"/><stop offset="1" stop-color="#940000"/></linearGradient><linearGradient x1="229.82279" y1="211.63707" x2="209.14628" y2="240.59804" gradientUnits="userSpaceOnUse" id="color-3"><stop offset="0" stop-color="#364ec7"/><stop offset="1" stop-color="#001371"/></linearGradient><linearGradient x1="213.91073" y1="236.40948" x2="205.71078" y2="247.89491" gradientUnits="userSpaceOnUse" id="color-4"><stop offset="0" stop-color="#a6680a"/><stop offset="1" stop-color="#6c4306"/></linearGradient><linearGradient x1="252.90812" y1="213.02984" x2="271.9698" y2="243.07826" gradientUnits="userSpaceOnUse" id="color-5"><stop offset="0" stop-color="#364ec7"/><stop offset="1" stop-color="#001371"/></linearGradient><linearGradient x1="269.87998" y1="237.08855" x2="277.43952" y2="249.00524" gradientUnits="userSpaceOnUse" id="color-6"><stop offset="0" stop-color="#a6680a"/><stop offset="1" stop-color="#6c4306"/></linearGradient><linearGradient x1="240.07517" y1="162.58105" x2="240.07517" y2="221.78101" gradientUnits="userSpaceOnUse" id="color-7"><stop offset="0" stop-color="#364ec7"/><stop offset="1" stop-color="#001371"/></linearGradient><linearGradient x1="241.66483" y1="167.89431" x2="241.66483" y2="188.41609" gradientUnits="userSpaceOnUse" id="color-8"><stop offset="0" stop-color="#d21515"/><stop offset="1" stop-color="#940000"/></linearGradient><linearGradient x1="240.51095" y1="123.59664" x2="240.51095" y2="174.2091" gradientUnits="userSpaceOnUse" id="color-9"><stop offset="0" stop-color="#ffefc0"/><stop offset="1" stop-color="#e0ce98"/></linearGradient><linearGradient x1="240.41769" y1="110.02055" x2="240.41769" y2="136.53636" gradientUnits="userSpaceOnUse" id="color-10"><stop offset="0" stop-color="#d21515"/><stop offset="1" stop-color="#940000"/></linearGradient><linearGradient x1="241.74001" y1="127.62718" x2="241.74001" y2="135.29071" gradientUnits="userSpaceOnUse" id="color-11"><stop offset="0" stop-color="#d21515"/><stop offset="1" stop-color="#940000"/></linearGradient><linearGradient x1="242.94798" y1="148.0936" x2="242.94798" y2="164.8035" gradientUnits="userSpaceOnUse" id="color-12"><stop offset="0" stop-color="#ffefc0"/><stop offset="1" stop-color="#e0ce98"/></linearGradient></defs><g transform="translate(-186.70416,-109.52055)"><g data-paper-data="{&quot;isPaintingLayer&quot;:true}" fill-rule="nonzero" stroke-linejoin="miter" stroke-miterlimit="10" stroke-dasharray="" stroke-dashoffset="0" style="mix-blend-mode: normal"><g data-paper-data="{&quot;origRot&quot;:0,&quot;index&quot;:null}" stroke-width="1.5" stroke-linecap="butt"><path d="M257.5725,180.6362c-2.56516,-2.46633 0.77739,-10.10492 7.46578,-17.06125c6.68837,-6.95633 14.18984,-10.59617 16.75499,-8.12982c2.56515,2.46636 -0.7774,10.10492 -7.46579,17.06125c-6.68838,6.95633 -14.18986,10.59618 -16.755,8.12983z" data-paper-data="{&quot;origRot&quot;:0,&quot;origPos&quot;:null,&quot;index&quot;:null}" fill="url(#color-1)" stroke="#940000"/><path d="M272.78229,151.85491c0.46064,-5.77171 5.36678,-10.08887 10.95812,-9.64264c5.59137,0.44624 9.75064,5.48688 9.29,11.25862c-0.46064,5.77171 -5.36676,10.08888 -10.95812,9.64264c-5.59136,-0.44624 -9.75064,-5.48688 -9.29,-11.25862z" data-paper-data="{&quot;origPos&quot;:null,&quot;index&quot;:null}" fill="#ffffff" stroke="#bfbfbf"/></g><g data-paper-data="{&quot;origRot&quot;:0,&quot;index&quot;:null}" stroke-width="1.5" stroke-linecap="butt"><path d="M225.63882,179.7725c-2.32861,2.72213 -10.20069,-0.19038 -17.58276,-6.50527c-7.38206,-6.31493 -11.47871,-13.64089 -9.15008,-16.36302c2.32861,-2.72213 10.20069,0.19038 17.58276,6.50527c7.38206,6.31493 11.47871,13.64089 9.15008,16.36302z" data-paper-data="{&quot;origRot&quot;:0,&quot;origPos&quot;:null}" fill="url(#color-2)" stroke="#940000"/><path d="M199.37706,164.61455c-5.55836,0.99442 -10.89642,-2.85075 -11.9229,-8.5884c-1.02649,-5.73765 2.64731,-11.19507 8.20567,-12.18946c5.55836,-0.99442 10.89642,2.85075 11.9229,8.5884c1.02649,5.73765 -2.64731,11.19507 -8.20567,12.18946z" data-paper-data="{&quot;origPos&quot;:null,&quot;origRot&quot;:0}" fill="#ffffff" stroke="#bfbfbf"/></g><g stroke-width="1.5" stroke-linecap="butt"><path d="M220.3442,240.23047c-3.39234,3.71183 -5.37552,3.27778 -9.90481,0.78312c-4.54948,-2.50578 -6.1497,-2.87504 -4.86929,-7.77745c0.88069,-3.37194 14.96745,-27.31347 19.05882,-25.06001c0,0 10.42218,6.09972 9.79064,9.21427c0,0 -11.71656,20.25909 -14.07537,22.84006z" data-paper-data="{&quot;origPos&quot;:null,&quot;origRot&quot;:0}" fill="url(#color-3)" stroke="#001371"/><path d="M217.27869,242.94362c1.07878,4.69027 -2.45279,6.97858 -4.84922,7.2249c-2.90189,0.29829 -9.1096,-2.99831 -11.15555,-6.50454c-2.04595,-3.50623 -0.29295,-3.69362 0.60023,-5.25608c1.98586,-3.4739 5.67377,-5.21544 10.54125,-2.69836c4.86748,2.51708 3.78452,2.54381 4.8633,7.23408z" data-paper-data="{&quot;origPos&quot;:null,&quot;origRot&quot;:0}" fill="url(#color-4)" stroke="#6c4306"/></g><g stroke-width="1.5" stroke-linecap="butt"><path d="M275.83954,232.56382c2.16397,4.53904 1.01611,6.2135 -2.99848,9.47246c-4.03248,3.2735 -4.97632,4.61746 -9.03757,1.58773c-2.79339,-2.08389 -19.68163,-24.13883 -16.0552,-27.08271c0,0 9.5708,-7.36398 12.21936,-5.60774c0,0 14.3672,18.47409 15.87189,21.63025z" data-paper-data="{&quot;origPos&quot;:null,&quot;origRot&quot;:0}" fill="url(#color-5)" stroke="#001371"/><path d="M277.201,236.4245c4.75172,0.76389 5.54427,4.89671 4.87149,7.2099c-0.81469,2.80111 -6.20344,7.31382 -10.22166,7.89133c-4.01821,0.57751 -3.53274,-1.11732 -4.64472,-2.53244c-2.47232,-3.14631 -2.69945,-7.21841 1.46307,-10.78232c4.16252,-3.56392 3.7801,-2.55037 8.53184,-1.78649z" data-paper-data="{&quot;origPos&quot;:null,&quot;origRot&quot;:0}" fill="url(#color-6)" stroke="#6c4306"/></g><g data-paper-data="{&quot;origPos&quot;:null}" stroke-linecap="butt"><path d="M258.9692,192.85576c0,9.26372 2.84091,18.23837 -2.69239,25.3177c-3.54659,4.53753 -10.70286,3.50701 -16.20164,3.50701c-5.49877,0 -12.65505,0.73766 -16.20165,-3.79985c-5.5333,-7.07933 -2.69238,-15.76114 -2.69238,-25.02485c0,-15.91945 8.45914,-28.82471 18.89403,-28.82471c0,0 11.73737,-4.40076 15.22571,2.13104c3.4719,6.50102 3.66832,10.77421 3.66832,26.69366z" data-paper-data="{&quot;origPos&quot;:null}" fill="url(#color-7)" stroke="#001371" stroke-width="1.5"/><path d="M249.05212,176.53214c0,2.68857 1.31009,7.12666 -0.34219,8.97831c-1.7848,2.00015 -3.67346,2.91985 -6.1351,2.90548c-2.72608,-0.01592 -4.60612,-1.00217 -6.88148,-2.77355c-2.33853,-1.82055 -1.87025,-5.80478 -1.87025,-9.11024c0,-4.77054 3.40914,-8.63783 7.61452,-8.63783c4.20537,0 7.61451,3.8673 7.61451,8.63783z" data-paper-data="{&quot;origPos&quot;:null}" fill="url(#color-8)" stroke="none" stroke-width="0"/><path d="M234.41458,184.68768c0,2.23365 -1.96162,4.0444 -4.38142,4.0444c-2.4198,0 -4.38143,-1.81074 -4.38143,-4.0444c0,-2.23365 1.96163,-4.04439 4.38143,-4.04439c2.4198,0 4.38142,1.81074 4.38142,4.04439z" data-paper-data="{&quot;origPos&quot;:null}" fill="#faff66" stroke="none" stroke-width="1.5"/><path d="M257.91589,184.13296c0,2.17864 -1.9133,3.94477 -4.2735,3.94477c-2.36019,0 -4.2735,-1.76612 -4.2735,-3.94477c0,-2.17864 1.91331,-3.94477 4.2735,-3.94477c2.36019,0 4.2735,1.76612 4.2735,3.94477z" data-paper-data="{&quot;origPos&quot;:null}" fill="#faff66" stroke="none" stroke-width="1.5"/></g><g><path d="M270.6324,149.98587c0,13.37811 -13.73475,24.22323 -28.56379,24.22323c-14.82904,0 -31.67913,-11.007 -31.67913,-24.38512c0,-4.84199 0.68944,-17.04147 3.19789,-21.12167c5.78078,-9.40291 17.74496,-2.93967 28.48124,-2.93967c0,0 17.47791,-4.07051 23.38966,4.87354c2.80538,4.24433 5.17415,5.97157 5.17415,19.34969z" data-paper-data="{&quot;origPos&quot;:null}" fill="url(#color-9)" stroke="#e0ce98" stroke-width="1" stroke-linecap="butt"/><path d="M270.0099,125.6583c5.03003,9.40432 -1.73673,11.55139 -11.88128,12.30628c-5.52152,0.41087 -15.57531,-2.18669 -20.10135,1.20349c-2.60107,1.9483 -26.17661,-1.6789 -26.17661,-3.87114c0,-11.89009 10.77902,-11.68761 17.8548,-11.68761c7.07578,0 32.2072,-13.0899 40.30444,2.04897z" data-paper-data="{&quot;origPos&quot;:null}" fill="#5a3413" stroke="#351c06" stroke-width="1" stroke-linecap="butt"/><path d="M271.66413,130.68835c0,10.22611 -12.29169,3.93148 -29.30368,3.93148c-4.11857,0 -25.80918,2.79311 -30.42112,-0.53887c-3.25572,-2.35216 -2.73868,-4.48848 -2.73868,-8.32384c0,-8.66476 8.19237,-8.36117 16.59332,-12.09918c6.1066,-2.71713 8.29835,-3.00748 15.06722,-3.00748c0,0 13.85643,-1.8789 21.91934,0.85332c9.12834,3.09325 8.8836,8.95845 8.8836,19.18456z" data-paper-data="{&quot;origPos&quot;:null}" fill="url(#color-10)" stroke="#940000" stroke-width="1" stroke-linecap="butt"/><path d="M265.86444,133.7184c0,3.36409 -10.25569,0.28331 -23.57925,0.28331c-13.32355,0 -24.66962,3.08078 -24.66962,-0.28331c0,-3.36409 10.80087,-6.09122 24.12443,-6.09122c13.32355,0 24.12443,2.72713 24.12443,6.09122z" data-paper-data="{&quot;origPos&quot;:null}" fill="url(#color-11)" stroke="#940000" stroke-width="1" stroke-linecap="butt"/><path d="M248.68864,122.86399c0,2.07307 0.30737,3.50338 -1.23203,4.82162c-1.32872,1.13783 -8.88182,0.83961 -10.13715,-0.07455c-1.7882,-1.30221 -1.07033,-2.47775 -1.07033,-4.74707c0,-3.38707 2.78469,-6.13285 6.21977,-6.13285c3.43508,0 6.21976,2.74578 6.21976,6.13285z" data-paper-data="{&quot;origPos&quot;:null}" fill="#ffffff" stroke="#a4a4a4" stroke-width="1" stroke-linecap="butt"/><path d="M239.01298,125.97107l1.71344,-5.34246l2.02498,3.56164l1.55767,-3.72353l2.3365,5.01868" data-paper-data="{&quot;origPos&quot;:null}" fill="none" stroke="#ba0000" stroke-width="1" stroke-linecap="round"/><path d="M229.70136,143.14046c0,0 3.51435,-0.56784 4.22549,-0.44572c1.27172,0.21838 3.47173,1.77246 3.47173,1.77246" data-paper-data="{&quot;origPos&quot;:null,&quot;origRot&quot;:0}" fill="none" stroke="#351c06" stroke-width="2.5" stroke-linecap="round"/><g fill="#5a3413" stroke="#351c06" stroke-width="1" stroke-linecap="butt"><path d="M248.50255,163.22479c0,0.93673 -1.03545,2.26869 -1.13658,3.19959c-0.21477,1.97699 -1.58685,3.01897 -3.51269,3.10762c-2.12553,0.09786 -3.01604,-2.04326 -5.14035,-2.16621c-1.47465,-0.08537 -1.53991,1.74597 -3.01688,1.74597c-1.60871,0 -1.59206,-1.47457 -3.17663,-1.76096c-2.16384,-0.39108 -2.86624,1.73159 -4.82742,0.71024c-1.02557,-0.53411 -2.61762,-2.77623 -3.25007,-3.76589c-2.00221,-3.13303 -6.90647,-7.24457 -2.50601,-8.38529c2.1651,-0.56126 8.33282,5.18914 10.56518,5.18914c0,0 3.73999,-0.01695 5.59794,0.08157c4.21276,0.22336 10.4035,-2.38936 10.4035,2.04422z" data-paper-data="{&quot;origPos&quot;:null}"/><path d="M238.04297,163.31233c0,-4.43358 6.19074,-1.82086 10.4035,-2.04422c1.85795,-0.09852 5.59794,-0.08157 5.59794,-0.08157c2.23236,0 8.40008,-5.7504 10.56518,-5.18914c4.40046,1.14072 -0.5038,5.25226 -2.50601,8.38529c-0.63245,0.98966 -2.2245,3.23178 -3.25007,3.76589c-1.96118,1.02135 -2.66358,-1.10132 -4.82742,-0.71024c-1.58457,0.28639 -1.56792,1.76096 -3.17663,1.76096c-1.47697,0 -1.54223,-1.83134 -3.01688,-1.74597c-2.12431,0.12295 -3.01482,2.26407 -5.14035,2.16621c-1.92584,-0.08865 -3.29792,-1.13063 -3.51269,-3.10762c-0.10113,-0.9309 -1.13658,-2.26286 -1.13658,-3.19959z" data-paper-data="{&quot;origPos&quot;:null,&quot;index&quot;:null}"/></g><path d="M250.01192,144.91803c0,0 1.82422,-1.28863 2.87872,-1.46971c0.58967,-0.10126 3.50373,0.36959 3.50373,0.36959" data-paper-data="{&quot;origPos&quot;:null,&quot;origRot&quot;:0,&quot;index&quot;:null}" fill="none" stroke="#351c06" stroke-width="2.5" stroke-linecap="round"/><path d="M254.93567,156.44855c0,4.61431 -5.36707,8.35495 -11.98769,8.35495c-6.62061,0 -11.98769,-3.74063 -11.98769,-8.35495c0,-4.61431 5.36707,-8.35495 11.98769,-8.35495c6.62061,0 11.98769,3.74063 11.98769,8.35495z" data-paper-data="{&quot;origPos&quot;:null}" fill="url(#color-12)" stroke="#e0ce98" stroke-width="1.5" stroke-linecap="butt"/></g><path d="" data-paper-data="{&quot;origPos&quot;:null}" fill="#c1770b" stroke="#6c4306" stroke-width="1.5" stroke-linecap="butt"/></g></g></svg>