<svg version="1.1" xmlns="http://www.w3.org/2000/svg" xmlns:xlink="http://www.w3.org/1999/xlink" width="34.45121" height="27.22554" viewBox="0,0,34.45121,27.22554"><defs><linearGradient x1="240.02468" y1="187.77934" x2="240.02468" y2="196.73777" gradientUnits="userSpaceOnUse" id="color-1"><stop offset="0" stop-color="#66ff77"/><stop offset="1" stop-color="#00db1a"/></linearGradient><linearGradient x1="239.97536" y1="171.01223" x2="239.97536" y2="179.97066" gradientUnits="userSpaceOnUse" id="color-2"><stop offset="0" stop-color="#66ff77"/><stop offset="1" stop-color="#00db1a"/></linearGradient></defs><g transform="translate(-222.77441,-170.26223)"><g data-paper-data="{&quot;isPaintingLayer&quot;:true}" fill-rule="nonzero" stroke-linecap="butt" stroke-linejoin="miter" stroke-miterlimit="10" stroke-dasharray="" stroke-dashoffset="0" style="mix-blend-mode: normal"><path d="M232.13867,184.24444l-1.38684,-2.50234l20.45151,-4.02158l1.60907,2.42826z" data-paper-data="{&quot;origRot&quot;:0,&quot;origPos&quot;:null}" fill="#eaea2f" stroke="#898600" stroke-width="1"/><path d="M232.02506,192.19772l-1.6924,-2.20044l20.75707,-4.32347l1.60907,2.42827z" data-paper-data="{&quot;origRot&quot;:0,&quot;origPos&quot;:null}" fill="#ffff32" stroke="#898600" stroke-width="1"/><path d="M228.73789,184.06743l1.4424,-2.10931l20.38484,3.52776l-1.15351,2.67719z" data-paper-data="{&quot;origRot&quot;:0,&quot;origPos&quot;:null,&quot;index&quot;:null}" fill="#eaea2f" stroke="#898600" stroke-width="1"/><path d="M244.4222,188.11905l-1.08333,-0.31895l1.08333,-1.27582l5.75,-0.75182l0.79167,0.61513l-0.29167,1.86817l-3.16667,0.63791z" data-paper-data="{&quot;origPos&quot;:null}" fill="#eaea2f" stroke="none" stroke-width="0"/><path d="M230.30711,182.61782l0.16243,-0.30696l2.49365,-0.48382l4.80423,0.77707l-0.85714,1.30186z" fill="#eaea2f" stroke="none" stroke-width="0"/><path d="M223.57375,196.73777v-8.95843h32.90188v8.95843z" data-paper-data="{&quot;origPos&quot;:null}" fill="url(#color-1)" stroke="#00b315" stroke-width="1.5"/><path d="M223.52442,179.97066v-8.95843h32.90188v8.95843z" data-paper-data="{&quot;origPos&quot;:null}" fill="url(#color-2)" stroke="#00b315" stroke-width="1.5"/></g></g></svg>