<svg version="1.1" xmlns="http://www.w3.org/2000/svg" xmlns:xlink="http://www.w3.org/1999/xlink" width="133.26347" height="125" viewBox="0,0,133.26347,125"><defs><linearGradient x1="239.99999" y1="119.5" x2="239.99999" y2="240.5" gradientUnits="userSpaceOnUse" id="color-1"><stop offset="0" stop-color="#cdcdcd"/><stop offset="1" stop-color="#a6a6a6"/></linearGradient><linearGradient x1="194.618" y1="128.79061" x2="194.618" y2="146.92563" gradientUnits="userSpaceOnUse" id="color-2"><stop offset="0" stop-color="#ffffff"/><stop offset="1" stop-color="#b7b7b7"/></linearGradient><linearGradient x1="216.23215" y1="129.56187" x2="216.23215" y2="147.50727" gradientUnits="userSpaceOnUse" id="color-3"><stop offset="0" stop-color="#ffffff"/><stop offset="1" stop-color="#b7b7b7"/></linearGradient><linearGradient x1="235.27835" y1="128.90082" x2="235.27835" y2="147.90461" gradientUnits="userSpaceOnUse" id="color-4"><stop offset="0" stop-color="#ffffff"/><stop offset="1" stop-color="#b7b7b7"/></linearGradient><linearGradient x1="250.65454" y1="129.09416" x2="250.65454" y2="147.75387" gradientUnits="userSpaceOnUse" id="color-5"><stop offset="0" stop-color="#ffffff"/><stop offset="1" stop-color="#b7b7b7"/></linearGradient><linearGradient x1="266.1271" y1="130.07048" x2="266.1271" y2="147.87365" gradientUnits="userSpaceOnUse" id="color-6"><stop offset="0" stop-color="#ffffff"/><stop offset="1" stop-color="#b7b7b7"/></linearGradient><linearGradient x1="284.9964" y1="128.68951" x2="284.9964" y2="149.75948" gradientUnits="userSpaceOnUse" id="color-7"><stop offset="0" stop-color="#ffffff"/><stop offset="1" stop-color="#b7b7b7"/></linearGradient></defs><g transform="translate(-173.36827,-117.5)"><g data-paper-data="{&quot;isPaintingLayer&quot;:true}" fill-rule="nonzero" stroke-linejoin="miter" stroke-miterlimit="10" stroke-dasharray="" stroke-dashoffset="0" style="mix-blend-mode: normal"><path d="M175.36827,240.5v-121h129.26347v121z" data-paper-data="{&quot;origPos&quot;:null}" fill="url(#color-1)" stroke="#373737" stroke-width="4" stroke-linecap="butt"/><path d="M215.61718,221.66667c0,-10.92736 0,-27.84466 0,-45.66666c0,-2.92697 4.34597,-7.5 7.12761,-7.5c13.6592,0 26.36849,0 35,0c2.87717,0 7.37239,4.97952 7.37239,8.16666c0,17.69191 0,34.79624 0,45.33334c0,3.51236 -5.51145,9 -9.03906,9c0,0 -22.09402,0 -32,0c-3.30199,0 -8.46095,-5.69088 -8.46095,-9.33334z" data-paper-data="{&quot;origPos&quot;:null}" fill="#c2fffc" stroke="#343434" stroke-width="4" stroke-linecap="butt"/><path d="M229.41146,225.92544h21" data-paper-data="{&quot;origPos&quot;:null}" fill="none" stroke="#343434" stroke-width="2.5" stroke-linecap="round"/><path d="M229.41146,171.9386h21" data-paper-data="{&quot;origPos&quot;:null}" fill="none" stroke="#343434" stroke-width="5.5" stroke-linecap="round"/><g stroke-width="2" stroke-linecap="round"><g fill="#000000" stroke="#000000"><path d="M186.8272,146.74216l6.66184,-15.42094l3.45429,0.61683l1.85051,4.31786l2.59072,-4.07113l3.94776,0.61684l2.96082,14.434l-6.53848,2.22061l-0.98694,-8.38899l-2.34398,3.08419l-2.59072,-3.33092l-2.46735,6.90858z" data-paper-data="{&quot;origPos&quot;:null}"/><g data-paper-data="{&quot;origPos&quot;:null}"><path d="M211.90717,147.22001l-1.77971,-5.93237l4.7459,-9.19517l8.75024,1.33478l4.59758,6.37729l-2.37294,8.00869l-6.22899,2.22464z" data-paper-data="{&quot;origPos&quot;:null}"/><path d="M218.72939,144.25383l-3.2628,-2.66956l1.77971,-3.85604l4.15266,0.59323l0.88985,3.85604z" data-paper-data="{&quot;origPos&quot;:null}"/></g><g data-paper-data="{&quot;origPos&quot;:null}"><path d="M230.65988,150.43522l-0.20434,-17.77774l3.26947,-1.22605l8.99104,1.4304l1.43039,2.86079l0.20434,3.88249l-1.22606,1.4304l1.83908,2.04342l1.02171,2.65644l-1.83908,4.29118z" data-paper-data="{&quot;origPos&quot;:null}"/><path d="M239.03789,144.30275v1.43039h-2.4521v-2.24776z" data-paper-data="{&quot;origPos&quot;:null}"/><path d="M238.62921,136.53776v1.63474h-2.4521v-2.65644z" data-paper-data="{&quot;origPos&quot;:null}"/></g><path d="M249.95579,150.28448l1.21364,-18.65971l6.0682,1.66876l-2.42728,16.68755z" data-paper-data="{&quot;origPos&quot;:null}"/><path d="M268.87576,133.76217l-0.58054,9.86915l6.96646,-0.58054l0.77405,6.38592l-13.5459,0.96756l-0.38703,-17.80317z" data-paper-data="{&quot;origPos&quot;:null}"/><path d="M279.76216,150.08874l2.51582,-18.86863l13.83699,2.51582l-0.62895,5.34611l-6.91849,-1.88686l-1.25791,2.51582l5.66059,1.25791v2.8303h-6.91849l-0.31447,3.77372l7.86193,-0.94343l0.62895,5.66059z" data-paper-data="{&quot;origPos&quot;:null}"/></g><g stroke="#989898"><path d="M183.88503,144.21155l6.66184,-15.42094l3.45429,0.61683l1.85051,4.31786l2.59072,-4.07113l3.94776,0.61684l2.96082,14.434l-6.53848,2.22061l-0.98694,-8.38899l-2.34398,3.08419l-2.59072,-3.33092l-2.46735,6.90858z" data-paper-data="{&quot;origPos&quot;:null}" fill="url(#color-2)"/><g data-paper-data="{&quot;origPos&quot;:null}"><path d="M208.965,144.6894l-1.77971,-5.93237l4.7459,-9.19517l8.75024,1.33478l4.59758,6.37729l-2.37294,8.00869l-6.22899,2.22464z" data-paper-data="{&quot;origPos&quot;:null}" fill="url(#color-3)"/><path d="M215.78722,141.72322l-3.2628,-2.66956l1.77971,-3.85604l4.15266,0.59323l0.88985,3.85604z" data-paper-data="{&quot;origPos&quot;:null}" fill="#ffffff"/></g><g data-paper-data="{&quot;origPos&quot;:null}"><path d="M227.71771,147.90461l-0.20434,-17.77774l3.26947,-1.22605l8.99104,1.4304l1.43039,2.86079l0.20434,3.88249l-1.22606,1.4304l1.83908,2.04342l1.02171,2.65644l-1.83908,4.29118z" data-paper-data="{&quot;origPos&quot;:null}" fill="url(#color-4)"/><path d="M236.09572,141.77214v1.43039h-2.4521v-2.24776z" data-paper-data="{&quot;origPos&quot;:null}" fill="#ffffff"/><path d="M235.68704,134.00715v1.63474h-2.4521v-2.65644z" data-paper-data="{&quot;origPos&quot;:null}" fill="#ffffff"/></g><path d="M247.01362,147.75387l1.21364,-18.65971l6.0682,1.66876l-2.42728,16.68755z" data-paper-data="{&quot;origPos&quot;:null}" fill="url(#color-5)"/><path d="M265.93359,131.23156l-0.58054,9.86915l6.96646,-0.58054l0.77405,6.38592l-13.5459,0.96756l-0.38703,-17.80317z" data-paper-data="{&quot;origPos&quot;:null}" fill="url(#color-6)"/><path d="M276.81999,147.55813l2.51582,-18.86863l13.83699,2.51582l-0.62895,5.34611l-6.91849,-1.88686l-1.25791,2.51582l5.66059,1.25791v2.8303h-6.91849l-0.31447,3.77372l7.86193,-0.94343l0.62895,5.66059z" data-paper-data="{&quot;origPos&quot;:null}" fill="url(#color-7)"/></g></g></g></g></svg>