<svg version="1.1" xmlns="http://www.w3.org/2000/svg" xmlns:xlink="http://www.w3.org/1999/xlink" width="402.80691" height="267.3183" viewBox="0,0,402.80691,267.3183"><g transform="translate(-50.1724,-140.54083)"><g data-paper-data="{&quot;isPaintingLayer&quot;:true}" fill-rule="nonzero" stroke-linecap="butt" stroke-linejoin="miter" stroke-miterlimit="10" stroke-dasharray="" stroke-dashoffset="0" style="mix-blend-mode: normal"><path d="M77.33169,287.65081l9.42344,-67.09565c0,0 12.51512,-5.09225 32.99147,0.176c21.17668,5.44842 32.13092,16.57897 32.13092,16.57897l-21.50259,63.98788z" fill="#a26700" stroke="#654500" stroke-width="4"/><path d="M54.26828,346.8234c8.4375,-32.79445 23.97625,-93.18969 27.52983,-107.00157c1.9716,-7.66314 3.99018,-15.50883 3.99018,-15.50883c0,0 9.38699,9.58177 29.86334,14.85001c21.17668,5.44843 35.25905,1.90496 35.25905,1.90496c0,0 -25.08185,97.48692 -31.22866,121.378c-2.57514,10.00892 -9.51368,20.26552 -15.43476,18.74211c-13.26389,-3.41259 -36.00382,-9.26322 -44.11517,-11.35014c-6.19671,-1.59431 -10.83154,-3.70625 -5.8638,-23.01457z" fill="#bf841d" stroke="#654500" stroke-width="4"/><path d="M79.81166,251.99744l2.43217,-9.45324c0,0 19.46604,12.84754 29.32289,15.38355c11.0203,2.83535 33.69877,0.83094 33.69877,0.83094l-2.43217,9.45324c0,0 -23.51907,1.78814 -34.23742,-0.96953c-10.26968,-2.64222 -28.78423,-15.24496 -28.78423,-15.24496z" fill="#654500" stroke="none" stroke-width="0"/><path d="M75.48779,268.80322l2.43218,-9.45326c0,0 19.46604,12.84753 29.32289,15.38355c11.0203,2.83535 33.69878,0.83094 33.69878,0.83094l-2.43218,9.45326c0,0 -23.51907,1.78813 -34.23742,-0.96954c-10.26968,-2.64222 -28.78424,-15.24496 -28.78424,-15.24496z" fill="#654500" stroke="none" stroke-width="0"/><path d="M70.5044,288.17242l2.43217,-9.45325c0,0 19.46604,12.84753 29.32289,15.38355c11.0203,2.83535 33.69878,0.83094 33.69878,0.83094l-2.43218,9.45326c0,0 -23.51907,1.78813 -34.23742,-0.96954c-10.26968,-2.64222 -28.78423,-15.24496 -28.78423,-15.24496z" fill="#654500" stroke="none" stroke-width="0"/><path d="M64.30338,308.2609l2.43218,-9.45325c0,0 19.46604,12.84753 29.32289,15.38355c11.0203,2.83535 33.69878,0.83094 33.69878,0.83094l-2.43218,9.45326c0,0 -23.51907,1.78813 -34.23742,-0.96954c-10.26968,-2.64222 -28.78424,-15.24496 -28.78424,-15.24496z" fill="#654500" stroke="none" stroke-width="0"/><path d="M58.57248,330.53548l2.43218,-9.45326c0,0 19.46604,12.84754 29.32289,15.38356c11.0203,2.83535 33.69878,0.83094 33.69878,0.83094l-2.43218,9.45326c0,0 -23.51907,1.78813 -34.23742,-0.96954c-10.26967,-2.64222 -28.78424,-15.24496 -28.78424,-15.24496z" fill="#654500" stroke="none" stroke-width="0"/><path d="M54.80672,349.18539l2.43218,-9.45325c0,0 19.46603,12.84753 29.32288,15.38355c11.0203,2.83535 33.69878,0.83094 33.69878,0.83094l-2.43218,9.45325c0,0 -23.51907,1.78813 -34.23742,-0.96954c-10.26967,-2.64222 -28.78424,-15.24496 -28.78424,-15.24496z" fill="#654500" stroke="none" stroke-width="0"/><path d="M304.97319,288.13774l-68.6363,-87.64057c0,0 8.24324,-20.61174 37.8199,-38.83085c30.58823,-18.84223 56.24484,-19.11266 56.24484,-19.11266l51.1888,98.38815z" fill="#a26700" stroke="#654500" stroke-width="4"/><path d="M348.68573,382.88284c-29.1793,-47.3693 -82.91676,-134.60601 -95.20607,-154.55631c-6.81838,-11.06886 -13.79918,-22.40142 -13.79918,-22.40142c0,0 22.03755,-0.18192 51.61421,-18.40103c30.58823,-18.84223 42.45054,-39.54247 42.45054,-39.54247c0,0 86.74028,140.81304 107.99769,175.32204c8.90557,14.45719 13.1297,34.35897 4.5771,39.62733c-19.15876,11.80172 -52.00499,32.03488 -63.72128,39.25206c-8.95071,5.51361 -16.7332,8.58927 -33.91302,-19.30024z" fill="#bf841d" stroke="#654500" stroke-width="4"/><path d="M265.61972,244.55738l-8.41115,-13.65454c0,0 37.39175,-8.38311 51.62928,-17.15337c15.91805,-9.80546 39.40109,-38.92099 39.40109,-38.92099l8.41115,13.65455c0,0 -24.69723,29.86346 -40.17914,39.40025c-14.83383,9.13758 -50.85124,16.6741 -50.85124,16.6741z" fill="#654500" stroke="none" stroke-width="0"/><path d="M280.57289,268.83216l-8.41116,-13.65457c0,0 37.39175,-8.38311 51.62928,-17.15337c15.91805,-9.80546 39.40111,-38.92099 39.40111,-38.92099l8.41116,13.65457c0,0 -24.69725,29.86345 -40.17916,39.40025c-14.83383,9.13758 -50.85124,16.67411 -50.85124,16.67411z" fill="#654500" stroke="none" stroke-width="0"/><path d="M297.80689,296.80961l-8.41116,-13.65456c0,0 37.39175,-8.38311 51.62928,-17.15337c15.91805,-9.80546 39.40111,-38.921 39.40111,-38.921l8.41116,13.65457c0,0 -24.69725,29.86345 -40.17916,39.40025c-14.83383,9.13758 -50.85123,16.67411 -50.85123,16.67411z" fill="#654500" stroke="none" stroke-width="0"/><path d="M314.50372,327.04765l-8.41116,-13.65457c0,0 37.39175,-8.38311 51.62928,-17.15337c15.91805,-9.80546 39.40111,-38.92099 39.40111,-38.92099l8.41116,13.65457c0,0 -24.69725,29.86345 -40.17916,39.40025c-14.83383,9.13758 -50.85124,16.67411 -50.85124,16.67411z" fill="#654500" stroke="none" stroke-width="0"/><path d="M334.32282,359.22171l-8.41116,-13.65457c0,0 37.39176,-8.3831 51.62929,-17.15336c15.91805,-9.80546 39.40111,-38.921 39.40111,-38.921l8.41116,13.65457c0,0 -24.69725,29.86345 -40.17916,39.40025c-14.83383,9.13758 -50.85124,16.67411 -50.85124,16.67411z" fill="#654500" stroke="none" stroke-width="0"/><path d="M352.09399,384.93859l-8.41115,-13.65456c0,0 37.39174,-8.3831 51.62928,-17.15336c15.91805,-9.80546 39.40111,-38.92099 39.40111,-38.92099l8.41115,13.65456c0,0 -24.69724,29.86345 -40.17915,39.40024c-14.83383,9.13758 -50.85124,16.67411 -50.85124,16.67411z" fill="#654500" stroke="none" stroke-width="0"/></g></g></svg>