<svg version="1.1" xmlns="http://www.w3.org/2000/svg" xmlns:xlink="http://www.w3.org/1999/xlink" width="464.65736" height="286.50004" viewBox="0,0,464.65736,286.50004"><defs><linearGradient x1="318.55919" y1="87.00005" x2="318.55919" y2="126.29147" gradientUnits="userSpaceOnUse" id="color-1"><stop offset="0" stop-color="#17ff22"/><stop offset="1" stop-color="#02d10c"/></linearGradient><linearGradient x1="250.26657" y1="266.00005" x2="250.26657" y2="305.29147" gradientUnits="userSpaceOnUse" id="color-2"><stop offset="0" stop-color="#17ff22"/><stop offset="1" stop-color="#02d10c"/></linearGradient></defs><g transform="translate(-18.93788,-85.50007)"><g data-paper-data="{&quot;isPaintingLayer&quot;:true}" fill-rule="nonzero" stroke-linejoin="miter" stroke-miterlimit="10" stroke-dasharray="" stroke-dashoffset="0" style="mix-blend-mode: normal"><path d="M154,333.00011v-223h327.1403v223z" fill="#98763d" stroke="none" stroke-width="0" stroke-linecap="butt"/><path d="M155.0231,113.89333v-26.89326h327.07213v26.89326l-18.24837,1.75726l-29.71255,10.64086l-28.89512,-11.9986l-27.50515,10.37815l-27.52169,-10.67969l-29.32149,8.22474l-27.29242,-9.40523l-38.87535,12.49333l-28.84803,-13.2091l-37.98931,10.7627z" fill="url(#color-1)" stroke="#08a310" stroke-width="3" stroke-linecap="butt"/><path d="M19.00001,372.00011v-83h459.75317v83z" fill="#98763d" stroke="none" stroke-width="0" stroke-linecap="butt"/><path d="M20.43788,292.89333v-26.89326h459.65738v26.89326l-25.64573,1.75726l-41.75714,10.64086l-40.60832,-11.9986l-38.65493,10.37815l-38.67816,-10.67969l-41.20754,8.22474l-38.35597,-9.40523l-54.63422,12.49333l-40.54215,-13.2091l-53.38904,10.7627z" fill="url(#color-2)" stroke="#08a310" stroke-width="3" stroke-linecap="butt"/><path d="M46.1669,339.58434l-5.14528,-4.7255l6.92285,-13.31861l12.2179,-2.81752l-0.82062,7.88273z" data-paper-data="{&quot;index&quot;:null}" fill="#774b00" stroke="#703100" stroke-width="2" stroke-linecap="round"/><path d="M118.0305,325.18349l9.00381,-2.7239l11.56951,11.43564l-4.48265,12.01226l-8.95923,-3.84512z" data-paper-data="{&quot;index&quot;:null}" fill="#774b00" stroke="#703100" stroke-width="2" stroke-linecap="round"/><path d="M215.25058,336.76577l2.1848,-8.97088l8.76071,-0.89681l3.15977,12.05066l-4.787,4.26061z" data-paper-data="{&quot;index&quot;:null}" fill="#774b00" stroke="#703100" stroke-width="2" stroke-linecap="round"/><path d="M319.08412,323.48922l2.82436,8.63162l-10.78711,11.41504l-11.69166,-4.06634l3.51717,-8.731z" data-paper-data="{&quot;index&quot;:null}" fill="#774b00" stroke="#703100" stroke-width="2" stroke-linecap="round"/><path d="M418.56275,325.26998l4.62251,8.6798l-9.37649,14.18752l-13.22897,-2.15643l2.12292,-9.96865z" data-paper-data="{&quot;index&quot;:null}" fill="#774b00" stroke="#703100" stroke-width="2" stroke-linecap="round"/><path d="M244.71334,170.99995l9.00381,-2.7239l11.56951,11.43564l-4.48265,12.01226l-8.95923,-3.84512z" data-paper-data="{&quot;index&quot;:null}" fill="#774b00" stroke="#703100" stroke-width="2" stroke-linecap="round"/><path d="M332.49956,252.14989l-9.01996,5.72599l-16.92699,-15.50645l0.68311,-19.16349l11.31768,4.33778z" data-paper-data="{&quot;index&quot;:null}" fill="#774b00" stroke="#703100" stroke-width="2" stroke-linecap="round"/><path d="M385.4545,200.77978l-8.34203,-3.74267l3.09472,-19.39997l14.00888,-8.54671l2.2376,10.12828z" data-paper-data="{&quot;index&quot;:null}" fill="#774b00" stroke="#703100" stroke-width="2" stroke-linecap="round"/><path d="M199.15895,245.88565l1.37927,-9.03851l19.52192,-2.19786l11.97706,11.21807l-9.16304,4.86083z" data-paper-data="{&quot;index&quot;:null}" fill="#774b00" stroke="#703100" stroke-width="2" stroke-linecap="round"/><path d="M403.15895,256.88565l1.37927,-9.03851l19.52192,-2.19787l11.97706,11.21807l-9.16304,4.86083z" data-paper-data="{&quot;index&quot;:null}" fill="#774b00" stroke="#703100" stroke-width="2" stroke-linecap="round"/></g></g></svg>