<svg version="1.1" xmlns="http://www.w3.org/2000/svg" xmlns:xlink="http://www.w3.org/1999/xlink" width="104.05584" height="149.05106" viewBox="0,0,104.05584,149.05106"><defs><linearGradient x1="264.8291" y1="174.53747" x2="264.8291" y2="197.8564" gradientUnits="userSpaceOnUse" id="color-1"><stop offset="0" stop-color="#d21515"/><stop offset="1" stop-color="#940000"/></linearGradient><linearGradient x1="253.77043" y1="216.55539" x2="253.77043" y2="251.52532" gradientUnits="userSpaceOnUse" id="color-2"><stop offset="0" stop-color="#364ec7"/><stop offset="1" stop-color="#001371"/></linearGradient><linearGradient x1="261.49836" y1="243.46487" x2="261.49836" y2="258.37333" gradientUnits="userSpaceOnUse" id="color-3"><stop offset="0" stop-color="#a6680a"/><stop offset="1" stop-color="#6c4306"/></linearGradient><linearGradient x1="240.57517" y1="165.96001" x2="240.57517" y2="223.9837" gradientUnits="userSpaceOnUse" id="color-4"><stop offset="0" stop-color="#364ec7"/><stop offset="1" stop-color="#001371"/></linearGradient><linearGradient x1="242.16483" y1="171.1677" x2="242.16483" y2="191.28173" gradientUnits="userSpaceOnUse" id="color-5"><stop offset="0" stop-color="#d21515"/><stop offset="1" stop-color="#940000"/></linearGradient><linearGradient x1="240.51095" y1="129.2204" x2="240.51095" y2="178.82721" gradientUnits="userSpaceOnUse" id="color-6"><stop offset="0" stop-color="#ffefc0"/><stop offset="1" stop-color="#e0ce98"/></linearGradient><linearGradient x1="240.63481" y1="110.66052" x2="240.63481" y2="143.89625" gradientUnits="userSpaceOnUse" id="color-7"><stop offset="0" stop-color="#d21515"/><stop offset="1" stop-color="#940000"/></linearGradient><linearGradient x1="258.2489" y1="130.64915" x2="258.2489" y2="138.16041" gradientUnits="userSpaceOnUse" id="color-8"><stop offset="0" stop-color="#d21515"/><stop offset="1" stop-color="#940000"/></linearGradient><linearGradient x1="266.99924" y1="151.34645" x2="266.99924" y2="167.72433" gradientUnits="userSpaceOnUse" id="color-9"><stop offset="0" stop-color="#ffefc0"/><stop offset="1" stop-color="#e0ce98"/></linearGradient><linearGradient x1="217.75291" y1="143.83398" x2="217.75291" y2="154.91333" gradientUnits="userSpaceOnUse" id="color-10"><stop offset="0" stop-color="#ffefc0"/><stop offset="1" stop-color="#e0ce98"/></linearGradient><linearGradient x1="225.21568" y1="214.19118" x2="225.21568" y2="249.14206" gradientUnits="userSpaceOnUse" id="color-11"><stop offset="0" stop-color="#364ec7"/><stop offset="1" stop-color="#001371"/></linearGradient><linearGradient x1="223.10835" y1="242.71909" x2="223.10835" y2="258.6467" gradientUnits="userSpaceOnUse" id="color-12"><stop offset="0" stop-color="#a6680a"/><stop offset="1" stop-color="#6c4306"/></linearGradient><linearGradient x1="213.82906" y1="175.65495" x2="213.82906" y2="197.87406" gradientUnits="userSpaceOnUse" id="color-13"><stop offset="0" stop-color="#d21515"/><stop offset="1" stop-color="#940000"/></linearGradient></defs><g transform="translate(-186.69818,-110.16052)"><g data-paper-data="{&quot;isPaintingLayer&quot;:true}" fill-rule="nonzero" stroke-linejoin="miter" stroke-miterlimit="10" stroke-dasharray="" stroke-dashoffset="0" style="mix-blend-mode: normal"><path d="" data-paper-data="{&quot;origPos&quot;:null}" fill="#c1770b" stroke="#6c4306" stroke-width="1.5" stroke-linecap="butt"/><g data-paper-data="{&quot;origPos&quot;:null,&quot;origRot&quot;:0}" stroke-width="1.5" stroke-linecap="butt"><path d="M251.05762,175.65629c2.19016,-2.74891 10.13136,-0.25813 17.73713,5.56331c7.60578,5.82144 11.99599,12.76906 9.80582,15.51798c-2.19018,2.74891 -10.13137,0.25815 -17.73713,-5.5633c-7.60578,-5.82144 -11.996,-12.76908 -9.80581,-15.51799z" data-paper-data="{&quot;origRot&quot;:0,&quot;origPos&quot;:null,&quot;index&quot;:null}" fill="url(#color-1)" stroke="#940000"/><path d="M277.79124,189.25852c5.47188,-1.20877 10.93974,2.29929 12.21279,7.83545c1.27305,5.53616 -2.13077,11.00401 -7.60266,12.21277c-5.47186,1.20876 -10.93974,-2.29929 -12.21279,-7.83545c-1.27305,-5.53616 2.13078,-11.00401 7.60266,-12.21277z" data-paper-data="{&quot;origPos&quot;:null,&quot;index&quot;:null}" fill="#ffffff" stroke="#bfbfbf"/></g><g data-paper-data="{&quot;origPos&quot;:null,&quot;origRot&quot;:0}" stroke-width="1.5" stroke-linecap="butt"><path d="M263.20544,230.01547c1.06728,3.26352 1.39999,9.29161 1.63181,12.71108c0.33339,4.91773 -1.35201,6.02698 -6.28676,7.54096c-4.95675,1.52074 -6.33043,2.40289 -8.98456,-1.82744c-1.82554,-2.90968 -1.20054,-10.30368 -2.26097,-13.54628c-3.13142,-9.57532 -7.10693,-15.56694 -2.6493,-16.93456c0,0 7.30438,-1.65048 9.06842,-0.326c0,0 2.88472,-2.47808 4.69678,0.08073c1.82459,2.57654 1.65317,2.72617 4.78458,12.30149z" data-paper-data="{&quot;origPos&quot;:null,&quot;origRot&quot;:0}" fill="url(#color-2)" stroke="#001371"/><path d="M269.52908,245.58742c5.46423,2.17024 4.10277,6.32697 1.95512,8.31368c-2.60064,2.40577 -11.84969,5.04067 -17.16468,4.36457c-5.31498,-0.6761 -3.75072,-2.134 -4.32786,-3.81321c-1.28321,-3.73345 0.74557,-7.66052 7.93427,-9.76981c7.1887,-2.1093 6.13894,-1.26548 11.60316,0.90477z" data-paper-data="{&quot;origPos&quot;:null,&quot;origRot&quot;:0}" fill="url(#color-3)" stroke="#6c4306"/></g><g data-paper-data="{&quot;origPos&quot;:null}" stroke-linecap="butt"><path d="M259.4692,195.63318c0,9.07966 2.84091,17.87599 -2.69239,24.81465c-3.54659,4.44737 -10.70286,3.43733 -16.20164,3.43733c-5.49877,0 -12.65505,0.723 -16.20165,-3.72435c-5.5333,-6.93867 -2.69238,-15.44798 -2.69238,-24.52762c0,-15.60314 8.45914,-28.25198 18.89403,-28.25198c0,0 11.73737,-4.31332 15.22571,2.0887c3.4719,6.37185 3.66832,10.56013 3.66832,26.16327z" data-paper-data="{&quot;origPos&quot;:null}" fill="url(#color-4)" stroke="#001371" stroke-width="1.5"/><path d="M249.55212,179.6339c0,2.63515 1.31009,6.98506 -0.34219,8.79992c-1.7848,1.96041 -3.67346,2.86183 -6.1351,2.84775c-2.72608,-0.0156 -4.60612,-0.98226 -6.88148,-2.71844c-2.33853,-1.78438 -1.87025,-5.68944 -1.87025,-8.92923c0,-4.67575 3.40914,-8.4662 7.61452,-8.4662c4.20537,0 7.61451,3.79046 7.61451,8.4662z" data-paper-data="{&quot;origPos&quot;:null}" fill="url(#color-5)" stroke="none" stroke-width="0"/><path d="M234.91458,187.62739c0,2.18927 -1.96162,3.96404 -4.38142,3.96404c-2.4198,0 -4.38143,-1.77476 -4.38143,-3.96404c0,-2.18927 1.96163,-3.96403 4.38143,-3.96403c2.4198,0 4.38142,1.77476 4.38142,3.96403z" data-paper-data="{&quot;origPos&quot;:null}" fill="#faff66" stroke="none" stroke-width="1.5"/><path d="M258.41589,187.0837c0,2.13535 -1.9133,3.86639 -4.2735,3.86639c-2.36019,0 -4.2735,-1.73103 -4.2735,-3.86639c0,-2.13535 1.91331,-3.86639 4.2735,-3.86639c2.36019,0 4.2735,1.73103 4.2735,3.86639z" data-paper-data="{&quot;origPos&quot;:null}" fill="#faff66" stroke="none" stroke-width="1.5"/></g><g data-paper-data="{&quot;origPos&quot;:null}"><path d="M270.6324,155.08528c0,13.1123 -13.73475,23.74193 -28.56379,23.74193c-14.82904,0 -31.67913,-10.7883 -31.67913,-23.9006c0,-4.74578 0.68944,-16.70287 3.19789,-20.702c5.78078,-9.21608 17.74496,-2.88126 28.48124,-2.88126c0,0 17.47791,-3.98963 23.38966,4.77671c2.80538,4.16 5.17415,5.85292 5.17415,18.96522z" data-paper-data="{&quot;origPos&quot;:null}" fill="url(#color-6)" stroke="#e0ce98" stroke-width="1" stroke-linecap="butt"/><path d="M268.50909,128.49858c8.09723,13.94486 -29.33424,10.61696 -31.98263,12.44425c-2.60107,1.79464 -0.81879,7.28081 -3.96033,7.28081c-4.40313,0 -9.25612,0.69998 -10.46658,5.01252c-0.70052,2.49579 2.60132,7.35144 0.13667,8.01076c-2.42796,0.64951 -4.70501,2.5992 -7.21096,2.74921c-2.03236,0.12165 -2.35905,-1.85843 -4.39469,-1.8893c-5.79716,-0.08794 0.78824,-11.72878 0.9253,-12.33925c0.04568,-0.20348 -1.20602,-4.36064 -1.20602,-6.37997c0,-10.95231 10.77902,-16.7764 17.8548,-16.7764c7.07578,0 32.2072,-12.05749 40.30444,1.88737z" data-paper-data="{&quot;origPos&quot;:null}" fill="#5a3413" stroke="#351c06" stroke-width="1" stroke-linecap="butt"/><path d="M267.91427,167.2893c0,0.91812 -1.03545,2.22361 -1.13658,3.13602c-0.21477,1.93771 -1.58685,2.95898 -3.51269,3.04587c-2.12553,0.09592 -3.01604,-2.00266 -5.14035,-2.12317c-1.47465,-0.08367 -1.53991,1.71128 -3.01688,1.71128c-1.60871,0 -1.59206,-1.44527 -3.17663,-1.72597c-2.16384,-0.38331 -2.86624,1.69718 -4.82742,0.69613c-1.02557,-0.5235 -2.61762,-2.72107 -3.25007,-3.69106c-2.00221,-3.07078 -6.90647,-7.10062 -2.50601,-8.21868c2.1651,-0.55011 8.33282,5.08604 10.56518,5.08604c0,0 3.73999,-0.01661 5.59794,0.07995c4.21276,0.21892 10.4035,-2.34188 10.4035,2.0036z" data-paper-data="{&quot;origPos&quot;:null}" fill="#5a3413" stroke="#351c06" stroke-width="1" stroke-linecap="butt"/><path d="M271.87853,130.91766c0,10.02292 -12.29169,3.85336 -29.30368,3.85336c-4.11857,0 -9.56963,8.26548 -13.688,8.22898c-5.83861,-0.05173 -13.19319,2.49399 -17.80513,-0.77178c-3.25572,-2.30542 -0.80907,-7.55142 -0.80907,-11.31057c0,-8.4926 9.69318,-8.61532 18.09413,-12.27906c6.1066,-2.66314 5.93994,-7.36068 12.70881,-7.36068c0,0 13.85643,-1.84157 21.91934,0.83637c9.12834,3.03179 8.8836,8.78045 8.8836,18.80337z" data-paper-data="{&quot;origPos&quot;:null}" fill="url(#color-7)" stroke="#940000" stroke-width="1" stroke-linecap="butt"/><path d="M282.37333,136.61934c0,3.29725 -10.25569,0.27768 -23.57925,0.27768c-13.32355,0 -24.66962,3.01957 -24.66962,-0.27768c0,-3.29725 10.80087,-5.97019 24.12443,-5.97019c13.32355,0 24.12443,2.67294 24.12443,5.97019z" data-paper-data="{&quot;origPos&quot;:null}" fill="url(#color-8)" stroke="#940000" stroke-width="1" stroke-linecap="butt"/><path d="M266.48394,124.71976c0,2.03188 0.30737,3.43377 -1.23203,4.72582c-1.32872,1.11522 -8.88182,0.82293 -10.13715,-0.07307c-1.7882,-1.27634 -1.07033,-2.42852 -1.07033,-4.65275c0,-3.31977 2.78469,-6.01099 6.21977,-6.01099c3.43508,0 6.21976,2.69122 6.21976,6.01099z" data-paper-data="{&quot;origPos&quot;:null}" fill="#ffffff" stroke="#a4a4a4" stroke-width="1" stroke-linecap="butt"/><path d="M258.88145,149.05752c0,3.92051 -2.08558,7.09872 -4.65827,7.09872c-2.57269,0 -4.65827,-3.17821 -4.65827,-7.09872c0,-3.92051 2.08558,-7.09873 4.65827,-7.09873c2.57269,0 4.65827,3.17821 4.65827,7.09873z" data-paper-data="{&quot;origPos&quot;:null}" fill="#ffffff" stroke="none" stroke-width="0" stroke-linecap="butt"/><path d="M256.59388,127.55496l1.71344,-5.23631l2.02498,3.49087l1.55767,-3.64955l2.3365,4.91896" data-paper-data="{&quot;origPos&quot;:null}" fill="none" stroke="#ba0000" stroke-width="1" stroke-linecap="round"/><path d="M250.53295,141.25805c0,0 3.51435,-0.55656 4.22549,-0.43686c1.27172,0.21404 3.47173,1.73724 3.47173,1.73724" data-paper-data="{&quot;origPos&quot;:null,&quot;origRot&quot;:0}" fill="none" stroke="#351c06" stroke-width="1.5" stroke-linecap="round"/><path d="M258.90994,148.75252c0,2.60187 -1.3841,4.7111 -3.09148,4.7111c-1.70738,0 -3.09148,-2.10924 -3.09148,-4.7111c0,-2.60187 1.38411,-4.7111 3.09148,-4.7111c1.70738,0 3.09148,2.10924 3.09148,4.7111z" data-paper-data="{&quot;origPos&quot;:null}" fill="#1121d4" stroke="none" stroke-width="0" stroke-linecap="butt"/><path d="M258.97722,148.6157c0,1.34544 -0.71572,2.43611 -1.59861,2.43611c-0.8829,0 -1.59861,-1.09069 -1.59861,-2.43611c0,-1.34544 0.71573,-2.43611 1.59861,-2.43611c0.8829,0 1.59861,1.09069 1.59861,2.43611z" data-paper-data="{&quot;origPos&quot;:null}" fill="#000000" stroke="none" stroke-width="0" stroke-linecap="butt"/><path d="M265.16295,141.34392c2.13325,0 3.8626,2.63533 3.8626,5.88617c0,3.25085 -1.72934,5.88617 -3.8626,5.88617c-2.13325,0 -3.8626,-2.63533 -3.8626,-5.88617c0,-3.25085 1.72934,-5.88617 3.8626,-5.88617z" data-paper-data="{&quot;origPos&quot;:null,&quot;index&quot;:null}" fill="#ffffff" stroke="none" stroke-width="0" stroke-linecap="butt"/><path d="M262.17604,141.74971c0,0 1.82422,-1.26303 2.87872,-1.44051c0.58967,-0.09925 3.50373,0.36225 3.50373,0.36225" data-paper-data="{&quot;origPos&quot;:null,&quot;origRot&quot;:0,&quot;index&quot;:null}" fill="none" stroke="#351c06" stroke-width="1.5" stroke-linecap="round"/><path d="M266.58257,143.18593c1.41573,0 2.56343,1.74895 2.56343,3.90638c0,2.15743 -1.14768,3.90638 -2.56343,3.90638c-1.41573,0 -2.56342,-1.74895 -2.56342,-3.90638c0,-2.15743 1.14768,-3.90638 2.56342,-3.90638z" data-paper-data="{&quot;origPos&quot;:null,&quot;index&quot;:null}" fill="#1121d4" stroke="none" stroke-width="0" stroke-linecap="butt"/><path d="M267.92058,145.07861c0.73209,0 1.32555,0.90439 1.32555,2.02c0,1.11562 -0.59347,2.02 -1.32555,2.02c-0.73209,0 -1.32554,-0.90439 -1.32554,-2.02c0,-1.11562 0.59347,-2.02 1.32554,-2.02z" data-paper-data="{&quot;origPos&quot;:null,&quot;index&quot;:null}" fill="#000000" stroke="none" stroke-width="0" stroke-linecap="butt"/><path d="M278.98693,159.53539c0,4.52263 -5.36707,8.18894 -11.98769,8.18894c-6.62061,0 -11.98769,-3.66631 -11.98769,-8.18894c0,-4.52263 5.36707,-8.18894 11.98769,-8.18894c6.62061,0 11.98769,3.66631 11.98769,8.18894z" data-paper-data="{&quot;origPos&quot;:null}" fill="url(#color-9)" stroke="#e0ce98" stroke-width="1.5" stroke-linecap="butt"/><path d="M224.73522,151.74456c-0.90455,2.76431 -4.76391,3.94375 -8.62013,2.63434c-3.85623,-1.30942 -6.24902,-4.61182 -5.34448,-7.37614c0.90455,-2.76431 4.76391,-3.94375 8.62013,-2.63434c3.85623,1.30942 6.24902,4.61182 5.34448,7.37614z" data-paper-data="{&quot;origRot&quot;:0,&quot;origPos&quot;:null}" fill="url(#color-10)" stroke="#e0ce98" stroke-width="1.5" stroke-linecap="butt"/></g><g data-paper-data="{&quot;origPos&quot;:null,&quot;origRot&quot;:0}" stroke-width="1.5" stroke-linecap="butt"><path d="M235.35337,233.6525c-0.77977,3.29188 -3.63454,8.56475 -5.21674,11.57704c-2.27544,4.33215 -4.30841,4.44164 -9.3571,3.29277c-5.0712,-1.15399 -6.71672,-1.08335 -6.80277,-5.97667c-0.05917,-3.36569 4.33421,-9.3242 5.10898,-12.59496c2.28788,-9.6585 1.97926,-16.69576 6.53982,-15.65797c0,0 7.16525,2.20102 7.99758,4.19293c2.39992,5.74334 4.0181,5.50835 1.73022,15.16686z" data-paper-data="{&quot;origPos&quot;:null}" fill="url(#color-11)" stroke="#001371"/><path d="M233.94412,249.94158c3.62333,4.72472 0.08948,7.80392 -2.92515,8.52c-3.6505,0.86712 -13.3169,-1.41414 -17.64494,-4.70967c-4.32803,-3.29552 -2.12622,-3.82694 -1.69679,-5.6398c0.95477,-4.03065 4.95093,-6.5649 12.49837,-4.84741c7.54744,1.71748 6.14518,1.95218 9.76851,6.6769z" data-paper-data="{&quot;origPos&quot;:null}" fill="url(#color-12)" stroke="#6c4306"/></g><g data-paper-data="{&quot;origPos&quot;:null,&quot;origRot&quot;:0}" stroke-width="1.5" stroke-linecap="butt"><path d="M217.51555,191.99524c-7.99299,5.41161 -16.12309,7.45675 -18.15907,4.5679c-2.03601,-2.88884 2.79311,-9.6177 10.78609,-15.02936c7.99299,-5.41161 16.12309,-7.45675 18.15907,-4.5679c2.03601,2.88884 -2.79311,9.6177 -10.78609,15.02936z" data-paper-data="{&quot;origRot&quot;:0,&quot;origPos&quot;:null}" fill="url(#color-13)" stroke="#940000"/><path d="M207.52598,201.80547c-1.61174,5.49018 -7.3173,8.70027 -12.74375,7.16991c-5.42644,-1.53035 -8.51886,-7.22161 -6.90712,-12.71179c1.61174,-5.49018 7.3173,-8.70027 12.74375,-7.16991c5.42644,1.53035 8.51886,7.22161 6.90712,12.71179z" data-paper-data="{&quot;origPos&quot;:null,&quot;origRot&quot;:0}" fill="#ffffff" stroke="#bfbfbf"/></g></g></g></svg>