<svg version="1.1" xmlns="http://www.w3.org/2000/svg" xmlns:xlink="http://www.w3.org/1999/xlink" width="64.49735" height="36.75959" viewBox="0,0,64.49735,36.75959"><defs><linearGradient x1="235.94438" y1="163.59442" x2="234.87215" y2="166.57737" gradientUnits="userSpaceOnUse" id="color-1"><stop offset="0" stop-color="#f50000"/><stop offset="1" stop-color="#be0000"/></linearGradient><linearGradient x1="234.95521" y1="165.91485" x2="233.3594" y2="172.01206" gradientUnits="userSpaceOnUse" id="color-2"><stop offset="0" stop-color="#f50000"/><stop offset="1" stop-color="#be0000"/></linearGradient><linearGradient x1="248.85708" y1="176.76551" x2="247.41494" y2="182.27559" gradientUnits="userSpaceOnUse" id="color-3"><stop offset="0" stop-color="#f50000"/><stop offset="1" stop-color="#be0000"/></linearGradient><linearGradient x1="233.23455" y1="170.52749" x2="227.37763" y2="192.90544" gradientUnits="userSpaceOnUse" id="color-4"><stop offset="0" stop-color="#f50000"/><stop offset="1" stop-color="#be0000"/></linearGradient><linearGradient x1="262.96006" y1="164.25539" x2="258.01716" y2="183.14109" gradientUnits="userSpaceOnUse" id="color-5"><stop offset="0" stop-color="#f50000"/><stop offset="1" stop-color="#be0000"/></linearGradient><linearGradient x1="235.16594" y1="180.67075" x2="233.31048" y2="187.76007" gradientUnits="userSpaceOnUse" id="color-6"><stop offset="0" stop-color="#ffffff"/><stop offset="1" stop-color="#cecece"/></linearGradient><linearGradient x1="230.06785" y1="179.33644" x2="228.13792" y2="186.71029" gradientUnits="userSpaceOnUse" id="color-7"><stop offset="0" stop-color="#ffffff"/><stop offset="1" stop-color="#cecece"/></linearGradient></defs><g transform="translate(-207.88093,-163.60741)"><g data-paper-data="{&quot;isPaintingLayer&quot;:true}" fill-rule="nonzero" stroke-linecap="butt" stroke-linejoin="miter" stroke-miterlimit="10" stroke-dasharray="" stroke-dashoffset="0" style="mix-blend-mode: normal"><path d="M241.926,192.93214c2.84264,0.744 4.77829,2.75612 4.32338,4.4942c-0.28229,1.07855 -0.63151,2.10506 -1.86727,2.44067c-1.37269,0.37279 -6.77204,-1.24006 -7.74499,-2.05506c-1.1285,-0.9453 -1.00185,-1.8573 -0.68187,-3.07987c0.4549,-1.73809 3.12809,-2.54395 5.97074,-1.79995z" data-paper-data="{&quot;origPos&quot;:null,&quot;index&quot;:null,&quot;origRot&quot;:0}" fill="#d9d900" stroke="#c1c100" stroke-width="1"/><path d="M244.60709,199.91715c-0.06886,0.26312 -1.99986,-0.01437 -4.313,-0.61978c-2.31314,-0.60541 -4.13249,-1.30949 -4.06362,-1.57261c0.06886,-0.26312 1.99986,0.01437 4.313,0.61978c2.31314,0.60541 4.13249,1.30949 4.06362,1.57261z" data-paper-data="{&quot;origPos&quot;:null,&quot;origRot&quot;:0}" fill="#c1c100" stroke="none" stroke-width="0"/><path d="M235.53923,164.72156c1.90758,0.68568 3.91054,2.72537 3.61445,3.54909c-0.29609,0.82372 -2.37396,-1.0076 -4.28153,-1.69327c-1.90758,-0.68568 -4.85591,-0.09537 -4.55981,-0.91909c0.29609,-0.82372 3.31932,-1.62241 5.2269,-0.93673z" data-paper-data="{&quot;origPos&quot;:null,&quot;index&quot;:null,&quot;origRot&quot;:0}" fill="url(#color-1)" stroke="#b30000" stroke-width="1"/><path d="M234.75303,166.68733c4.01116,1.04983 7.56493,4.95158 7.12427,6.63528c-0.44067,1.6837 -4.50673,-0.26072 -8.51789,-1.31055c-4.01116,-1.04983 -8.63718,-1.38036 -8.19651,-3.06406c0.44067,-1.6837 5.57899,-3.31049 9.59014,-2.26067z" data-paper-data="{&quot;origPos&quot;:null,&quot;index&quot;:null,&quot;origRot&quot;:0}" fill="url(#color-2)" stroke="#b30000" stroke-width="1"/><path d="M248.85708,176.76551c1.623,0.42478 2.61588,2.00261 2.21765,3.52418c-0.39824,1.52157 -2.03678,2.41068 -3.65978,1.9859c-1.623,-0.42478 -2.61588,-2.00261 -2.21765,-3.52418c0.39824,-1.52157 2.03678,-2.41068 3.65978,-1.9859z" data-paper-data="{&quot;origPos&quot;:null,&quot;index&quot;:null,&quot;origRot&quot;:0}" fill="url(#color-3)" stroke="#b30000" stroke-width="1"/><path d="M233.23455,170.52749c8.82296,2.30921 14.66427,9.19067 13.04693,15.37017c-0.65902,2.51795 -1.63476,5.41432 -3.84226,6.89157c-4.93586,3.30306 -9.15798,1.66135 -15.06159,0.11621c-5.99595,-1.5693 -10.02008,-2.36776 -12.6348,-7.79726c-1.11112,-2.30726 -1.0481,-5.14303 -0.41213,-7.57292c1.61734,-6.1795 10.08088,-9.317 18.90385,-7.00779z" data-paper-data="{&quot;origPos&quot;:null,&quot;index&quot;:null,&quot;origRot&quot;:0}" fill="url(#color-4)" stroke="#b30000" stroke-width="1"/><path d="M250.01112,178.39993c-1.78063,-5.64513 0.9828,-9.76485 4.73031,-12.32601c3.86237,-2.63966 7.90716,-2.37661 12.65861,-0.65646c4.75146,1.72016 4.47524,6.85935 4.47524,6.85935c0,0 -4.55342,-0.48825 -6.97469,-0.1571c-2.39044,0.32694 -5.35475,1.84336 -5.35475,1.84336c0,0 2.69401,3.01394 4.75076,4.51545c1.43101,1.04469 4.18617,2.00884 4.18617,2.00884c0,0 -4.77572,2.35612 -8.38673,2.45029c-4.07004,0.10614 -8.86017,-0.65488 -10.08493,-4.53773z" data-paper-data="{&quot;origPos&quot;:null,&quot;origRot&quot;:0,&quot;index&quot;:null}" fill="url(#color-5)" stroke="#b30000" stroke-width="1"/><path d="M232.84181,180.00342c5.25383,1.37507 8.81714,5.14813 7.95888,8.42737c-0.85826,3.27923 -5.8131,4.82287 -11.06693,3.4478c-5.25383,-1.37507 -8.81714,-5.14813 -7.95888,-8.42737c0.85826,-3.27923 5.8131,-4.82287 11.06693,-3.4478z" data-paper-data="{&quot;origPos&quot;:null,&quot;index&quot;:null,&quot;origRot&quot;:0}" fill="#000000" stroke="#b30000" stroke-width="0.5"/><path d="M237.70871,184.06329c-0.52034,1.98811 -2.52708,4.18651 -4.24756,3.73621c-1.72048,-0.4503 -2.69338,-2.42702 -2.17304,-4.41513c0.52034,-1.98811 -0.0077,-3.73057 1.71277,-3.28028c1.72048,0.4503 5.22817,1.97108 4.70782,3.9592z" data-paper-data="{&quot;origPos&quot;:null,&quot;index&quot;:null,&quot;origRot&quot;:0}" fill="url(#color-6)" stroke="#cecece" stroke-width="0.5"/><path d="M226.11671,181.42093c0.53705,-2.05194 3.68298,-2.15468 5.4587,-1.68992c1.77572,0.46475 1.25827,2.0459 0.72122,4.09784c-0.53705,2.05194 -2.41193,3.33861 -4.18764,2.87386c-1.77573,-0.46476 -2.52934,-3.22984 -1.99229,-5.28179z" data-paper-data="{&quot;origPos&quot;:null,&quot;index&quot;:null,&quot;origRot&quot;:0}" fill="url(#color-7)" stroke="#cecece" stroke-width="0.5"/><path d="M235.66906,181.66907c0.80144,0.20976 1.24107,1.18236 0.98196,2.17236c-0.25911,0.99 -1.11885,1.62252 -1.92028,1.41276c-0.80144,-0.20976 -1.24107,-1.18236 -0.98196,-2.17236c0.25911,-0.99 1.11885,-1.62252 1.92028,-1.41276z" data-paper-data="{&quot;origPos&quot;:null,&quot;index&quot;:null,&quot;origRot&quot;:0}" fill="#0062ca" stroke="none" stroke-width="0"/><path d="M231.06352,180.44772c0.80144,0.20976 1.24107,1.18236 0.98196,2.17236c-0.25911,0.99 -1.11885,1.62252 -1.92028,1.41276c-0.80144,-0.20976 -1.24107,-1.18236 -0.98196,-2.17236c0.25911,-0.99 1.11885,-1.62252 1.92028,-1.41276z" data-paper-data="{&quot;origPos&quot;:null,&quot;index&quot;:null,&quot;origRot&quot;:0}" fill="#0062ca" stroke="none" stroke-width="0"/><path d="M215.91231,185.78401c3.45643,0.90464 5.81,3.35122 5.25687,5.46458c-0.34323,1.31142 -0.76786,2.55957 -2.27044,2.96765c-1.66908,0.45329 -8.23424,-1.50782 -9.41726,-2.49878c-1.37217,-1.1494 -1.21817,-2.25832 -0.8291,-3.74486c0.55313,-2.11336 3.80351,-3.09323 7.25993,-2.18859z" data-paper-data="{&quot;origPos&quot;:null,&quot;index&quot;:null,&quot;origRot&quot;:0}" fill="#d9d900" stroke="#c1c100" stroke-width="1"/><path d="M219.73424,194.22218c-0.0764,0.29192 -2.6231,-0.12177 -5.68821,-0.924c-3.06511,-0.80222 -5.48794,-1.68919 -5.41153,-1.98111c0.0764,-0.29192 2.62311,0.12176 5.68821,0.92399c3.06511,0.80222 5.48793,1.6892 5.41153,1.98112z" data-paper-data="{&quot;origPos&quot;:null,&quot;origRot&quot;:0}" fill="#c1c100" stroke="none" stroke-width="0"/></g></g></svg>