<svg version="1.1" xmlns="http://www.w3.org/2000/svg" xmlns:xlink="http://www.w3.org/1999/xlink" width="109.06981" height="153.07734" viewBox="0,0,109.06981,153.07734"><defs><linearGradient x1="246.62931" y1="220.28435" x2="269.24214" y2="248.27038" gradientUnits="userSpaceOnUse" id="color-1"><stop offset="0" stop-color="#364ec7"/><stop offset="1" stop-color="#001371"/></linearGradient><linearGradient x1="272.36439" y1="238.52862" x2="272.36439" y2="256.08323" gradientUnits="userSpaceOnUse" id="color-2"><stop offset="0" stop-color="#a6680a"/><stop offset="1" stop-color="#6c4205"/></linearGradient><linearGradient x1="255.50574" y1="173.21267" x2="272.98715" y2="197.92893" gradientUnits="userSpaceOnUse" id="color-3"><stop offset="0" stop-color="#20de16"/><stop offset="1" stop-color="#158e0e"/></linearGradient><linearGradient x1="240.14947" y1="166.37626" x2="240.14947" y2="225.36218" gradientUnits="userSpaceOnUse" id="color-4"><stop offset="0" stop-color="#364ec7"/><stop offset="1" stop-color="#001371"/></linearGradient><linearGradient x1="241.58976" y1="170.59917" x2="241.58976" y2="191.45469" gradientUnits="userSpaceOnUse" id="color-5"><stop offset="0" stop-color="#20de16"/><stop offset="1" stop-color="#158e0e"/></linearGradient><linearGradient x1="233.84369" y1="218.75683" x2="211.56524" y2="246.64776" gradientUnits="userSpaceOnUse" id="color-6"><stop offset="0" stop-color="#364ec7"/><stop offset="1" stop-color="#001371"/></linearGradient><linearGradient x1="209.88963" y1="239.55946" x2="209.88963" y2="256.85704" gradientUnits="userSpaceOnUse" id="color-7"><stop offset="0" stop-color="#a6680a"/><stop offset="1" stop-color="#6c4205"/></linearGradient><linearGradient x1="218.13713" y1="169.98277" x2="209.59708" y2="197.26715" gradientUnits="userSpaceOnUse" id="color-8"><stop offset="0" stop-color="#20de16"/><stop offset="1" stop-color="#158e0e"/></linearGradient><linearGradient x1="254.76727" y1="124.6863" x2="237.19622" y2="174.57471" gradientUnits="userSpaceOnUse" id="color-9"><stop offset="0" stop-color="#ffefc0"/><stop offset="1" stop-color="#e0ce98"/></linearGradient><linearGradient x1="259.36379" y1="104.82542" x2="248.63484" y2="135.2875" gradientUnits="userSpaceOnUse" id="color-10"><stop offset="0" stop-color="#20de16"/><stop offset="1" stop-color="#158e0e"/></linearGradient><linearGradient x1="266.17561" y1="127.84808" x2="263.5411" y2="135.3281" gradientUnits="userSpaceOnUse" id="color-11"><stop offset="0" stop-color="#20de16"/><stop offset="1" stop-color="#158e0e"/></linearGradient><linearGradient x1="269.13204" y1="154.51298" x2="263.3017" y2="171.06672" gradientUnits="userSpaceOnUse" id="color-12"><stop offset="0" stop-color="#ffefc0"/><stop offset="1" stop-color="#e0ce98"/></linearGradient></defs><g transform="translate(-186.14909,-104.5297)"><g data-paper-data="{&quot;isPaintingLayer&quot;:true}" fill-rule="nonzero" stroke-linejoin="miter" stroke-miterlimit="10" stroke-dasharray="" stroke-dashoffset="0" style="mix-blend-mode: normal"><path d="M262.22385,228.00365c2.48104,2.52898 5.87894,7.76006 7.83757,10.71272c2.81682,4.24636 2.17914,5.80565 -0.59606,8.83383c-2.78756,3.04169 -3.31878,4.29312 -7.45361,1.44903c-2.84399,-1.9562 -6.26481,-8.72554 -8.72995,-11.23829c-7.27948,-7.42012 -13.29227,-11.37443 -10.78541,-14.10983c0,0 4.41711,-3.95872 6.38636,-3.387c0,0 0.78791,-3.18266 3.43838,-1.53294c2.66882,1.66115 2.62324,1.85238 9.90272,9.2725z" data-paper-data="{&quot;origPos&quot;:null,&quot;origRot&quot;:0}" fill="url(#color-1)" stroke="#001371" stroke-width="1.5" stroke-linecap="butt"/><path d="M276.03204,238.54809c5.30552,-0.33645 6.22848,3.76472 5.50025,6.32551c-0.8818,3.10094 -6.84755,9.06543 -11.32247,10.6198c-4.4749,1.55437 -3.9497,-0.3201 -5.20301,-1.5246c-2.78655,-2.67803 -3.07846,-6.85055 1.52901,-11.53885c4.60746,-4.6883 4.1907,-3.54544 9.49622,-3.88189z" data-paper-data="{&quot;origPos&quot;:null,&quot;origRot&quot;:0}" fill="url(#color-2)" stroke="#6c4306" stroke-width="1.5" stroke-linecap="butt"/><path d="M248.49626,178.73282c1.00039,-3.20063 8.86299,-2.73378 17.56158,1.04272c8.6986,3.77651 14.9392,9.43259 13.93881,12.63323c-1.0004,3.20064 -8.86299,2.7338 -17.56158,-1.04272c-8.6986,-3.77651 -14.93922,-9.43259 -13.9388,-12.63323z" data-paper-data="{&quot;origRot&quot;:0,&quot;index&quot;:null}" fill="url(#color-3)" stroke="#158e0e" stroke-width="1.5" stroke-linecap="butt"/><path d="M257.2681,195.96654c0,9.41437 2.57396,18.53496 -2.43939,25.72942c-3.21333,4.61132 -9.69716,3.56404 -14.67924,3.56404c-4.98207,0 -11.4659,0.74966 -14.67924,-3.86164c-5.01335,-7.19445 -2.43939,-16.01745 -2.43939,-25.4318c0,-16.17833 7.66426,-29.54752 17.11863,-29.54752c0,0 9.72842,-0.91541 12.88897,5.72261c3.14566,6.60674 4.22966,7.64657 4.22966,23.8249z" data-paper-data="{&quot;origPos&quot;:null}" fill="url(#color-4)" stroke="#001371" stroke-width="1.5" stroke-linecap="butt"/><path d="M278.79578,183.90513c4.85193,-2.81588 11.19098,-0.98026 14.15862,4.09994c2.96766,5.08023 1.44015,11.48127 -3.41179,14.29717c-4.85192,2.81587 -11.19098,0.98026 -14.15862,-4.09994c-2.96766,-5.08023 -1.44015,-11.48129 3.41179,-14.29717z" data-paper-data="{&quot;index&quot;:null,&quot;origRot&quot;:0}" fill="#ffffff" stroke="#bfbfbf" stroke-width="1.5" stroke-linecap="butt"/><path d="M248.28289,179.37747c0,2.73229 1.18698,7.24255 -0.31003,9.12432c-1.61709,2.03268 -3.32827,2.96733 -5.5586,2.95273c-2.46992,-0.01618 -4.1733,-1.01847 -6.23486,-2.81865c-2.11879,-1.85016 -1.69451,-5.89918 -1.69451,-9.25839c0,-4.84812 3.0888,-8.7783 6.89902,-8.7783c3.8102,0 6.899,3.93019 6.899,8.7783z" data-paper-data="{&quot;origPos&quot;:null}" fill="url(#color-5)" stroke="none" stroke-width="0" stroke-linecap="butt"/><path d="M235.02078,187.66563c0,2.26997 -1.7773,4.11017 -3.96972,4.11017c-2.19242,0 -3.96972,-1.84019 -3.96972,-4.11017c0,-2.26997 1.7773,-4.11016 3.96972,-4.11016c2.19242,0 3.96972,1.84019 3.96972,4.11016z" data-paper-data="{&quot;origPos&quot;:null}" fill="#faff66" stroke="none" stroke-width="1.5" stroke-linecap="butt"/><path d="M256.31376,187.10189c0,2.21407 -1.73351,4.00892 -3.87193,4.00892c-2.13841,0 -3.87194,-1.79484 -3.87194,-4.00892c0,-2.21407 1.73353,-4.00892 3.87194,-4.00892c2.13841,0 3.87193,1.79484 3.87193,4.00892z" data-paper-data="{&quot;origPos&quot;:null}" fill="#faff66" stroke="none" stroke-width="1.5" stroke-linecap="butt"/><path d="M229.06022,237.10002c-2.18688,2.73782 -6.91619,6.61594 -9.58077,8.84681c-3.83209,3.20835 -5.43769,2.66537 -8.73825,0.02899c-3.31528,-2.64814 -4.6062,-3.10395 -2.30643,-7.56703c1.58183,-3.06975 7.8177,-7.08336 9.99056,-9.80362c6.41641,-8.03286 9.58261,-14.50977 12.56405,-12.12827c0,0 4.40846,4.25883 4.08124,6.32747c-0.94347,5.96461 0.40601,6.26278 -6.0104,14.29565z" data-paper-data="{&quot;origPos&quot;:null,&quot;origRot&quot;:0}" fill="url(#color-6)" stroke="#001371" stroke-width="1.5" stroke-linecap="butt"/><path d="M218.58341,250.82923c0.71683,5.02435 -3.15228,6.36636 -5.66499,5.95965c-3.04271,-0.49249 -9.2121,-5.51357 -11.03662,-9.60837c-1.82452,-4.09479 0.01417,-3.80456 1.07761,-5.13591c2.3644,-2.96004 6.34882,-3.70801 11.19212,0.16068c4.8433,3.86868 3.71507,3.5996 4.43189,8.62395z" data-paper-data="{&quot;origPos&quot;:null,&quot;origRot&quot;:0}" fill="url(#color-7)" stroke="#6c4306" stroke-width="1.5" stroke-linecap="butt"/><path d="M217.31837,189.16899c-8.24199,5.31456 -16.46862,7.14074 -18.37469,4.07886c-1.90609,-3.06187 3.23019,-9.85232 11.47217,-15.16692c8.24199,-5.31456 16.46862,-7.14074 18.37469,-4.07886c1.90609,3.06187 -3.23019,9.85232 -11.47217,15.16692z" data-paper-data="{&quot;origRot&quot;:0,&quot;origPos&quot;:null}" fill="url(#color-8)" stroke="#158e0e" stroke-width="1.5" stroke-linecap="butt"/><path d="M206.87955,198.96382c-1.86126,5.62349 -7.71498,8.7416 -13.07468,6.96448c-5.35969,-1.7771 -8.19573,-7.77649 -6.33447,-13.39999c1.86126,-5.62349 7.71498,-8.7416 13.07468,-6.96448c5.35969,1.7771 8.19573,7.77649 6.33447,13.39999z" data-paper-data="{&quot;origPos&quot;:null,&quot;origRot&quot;:0}" fill="#ffffff" stroke="#bfbfbf" stroke-width="1.5" stroke-linecap="butt"/><path d="M269.29607,158.75589c-3.26962,9.28322 -9.47483,11.40073 -17.54693,13.9278c-5.6245,1.76083 -7.92247,4.22631 -13.11492,2.3975c-6.03396,-2.12521 -7.29754,-6.21559 -11.10503,-11.90972c-4.63081,-6.92544 -8.59878,-12.05615 -5.37886,-21.19826c1.66454,-4.72603 6.39857,-16.4431 9.76665,-19.73336c7.76181,-7.58246 14.91407,2.02764 23.32613,4.99042c0,0 15.09358,0.85018 16.65082,11.21144c0.73899,4.91687 2.00118,7.25643 -2.59785,20.31416z" data-paper-data="{&quot;origPos&quot;:null,&quot;origRot&quot;:0}" fill="url(#color-9)" stroke="#e0ce98" stroke-width="1" stroke-linecap="butt"/><path d="M279.0151,131.44169c1.75569,17.2795 -29.2479,2.38369 -32.21373,3.52231c-2.91283,1.11829 -3.43116,7.49054 -6.13778,6.53723c-3.79356,-1.33612 -8.23676,-2.06472 -10.89414,2.15189c-1.53789,2.44028 -0.51097,8.60344 -2.88126,8.55636c-2.335,-0.04638 -4.90306,1.67137 -7.11824,1.07038c-1.79654,-0.48741 -1.46038,-3.02754 -3.20264,-3.67807c-4.96168,-1.85261 5.07004,-12.22768 5.41666,-12.83498c0.11553,-0.20244 0.59343,-5.00102 1.34942,-7.14743c4.10024,-11.64155 15.56737,-14.56127 21.66359,-12.41414c6.09621,2.14713 32.26242,-3.04307 34.01812,14.23642z" data-paper-data="{&quot;origPos&quot;:null,&quot;origRot&quot;:0}" fill="#c27231" stroke="#985926" stroke-width="1.5" stroke-linecap="butt"/><path d="M264.57322,171.0276c-0.32202,0.9143 -1.86034,2.10811 -2.27748,2.98251c-0.8859,1.85699 -2.5619,2.40988 -4.44202,1.84496c-2.07507,-0.62348 -4.81528,-4.36332 -4.81528,-4.36332c0,0 -3.10979,0.16685 -5.09798,-0.04856c-1.6665,-0.18056 -3.96294,-1.25572 -5.1029,-2.49075c-0.80138,-0.86825 -1.55966,-3.59521 -1.82687,-4.77512c-0.84594,-3.73529 -4.21095,-9.97993 0.40756,-9.60478c2.27238,0.18457 6.3734,8.21221 8.51744,8.96735c0,0 3.59784,1.24859 5.34841,1.97324c3.9693,1.64307 10.81327,1.18706 9.28913,5.51447z" data-paper-data="{&quot;origPos&quot;:null,&quot;origRot&quot;:0}" fill="#160b02" stroke="none" stroke-width="0" stroke-linecap="butt"/><path d="M279.33967,132.53075c-3.28396,9.32395 -11.66997,-0.08093 -26.07412,-5.15418c-3.48721,-1.22822 -10.8108,4.83526 -14.28588,3.57315c-4.92663,-1.78929 -11.98788,-1.61434 -14.82282,-6.02773c-2.00128,-3.11555 1.78914,-7.26608 3.02082,-10.76309c2.78256,-7.90035 11.03004,-5.12385 19.34357,-6.0268c6.04306,-0.65634 7.49217,-4.54556 13.22342,-2.52697c0,0 12.3357,2.41906 18.28519,7.31472c6.73566,5.54257 4.59382,10.28692 1.30986,19.61087z" data-paper-data="{&quot;origPos&quot;:null,&quot;origRot&quot;:0}" fill="url(#color-10)" stroke="#158e0e" stroke-width="1" stroke-linecap="butt"/><path d="M287.25153,141.95404c-1.15649,3.28354 -9.9473,-3.19268 -22.74369,-7.69966c-12.79638,-4.50697 -24.75262,-5.33802 -23.59614,-8.62156c1.15649,-3.28354 12.46751,-2.29173 25.2639,2.21526c12.79638,4.50697 22.2324,10.82244 21.07592,14.10595z" data-paper-data="{&quot;origPos&quot;:null,&quot;origRot&quot;:0}" fill="url(#color-11)" stroke="#158e0e" stroke-width="1" stroke-linecap="butt"/><path d="M277.83872,124.87986c-0.71266,2.02342 -0.90916,3.52345 -2.84082,4.2894c-1.6673,0.66111 -8.81903,-2.18497 -9.71043,-3.50187c-1.26978,-1.87593 -0.1762,-2.78047 0.60393,-4.99546c1.16438,-3.30596 4.78281,-5.044 8.08198,-3.88201c3.29917,1.16199 5.02974,4.78399 3.86536,8.08995z" data-paper-data="{&quot;origPos&quot;:null,&quot;origRot&quot;:0}" fill="#ffffff" stroke="#a4a4a4" stroke-width="1" stroke-linecap="butt"/><path d="M262.13827,149.48756c-1.37509,3.9042 -4.49287,6.36369 -6.96377,5.49342c-2.4709,-0.87027 -3.35922,-4.74074 -1.98413,-8.64494c1.37509,-3.9042 4.49288,-6.3637 6.96378,-5.49343c2.4709,0.87027 3.35922,4.74074 1.98414,8.64495z" data-paper-data="{&quot;origPos&quot;:null,&quot;origRot&quot;:0}" fill="#ffffff" stroke="none" stroke-width="0" stroke-linecap="butt"/><path d="M256.85569,138.89649c0,0 3.5705,0.63456 4.21153,0.99431c1.14633,0.64334 2.72504,2.9044 2.72504,2.9044" data-paper-data="{&quot;origPos&quot;:null,&quot;origRot&quot;:0}" fill="none" stroke="#351c06" stroke-width="1.5" stroke-linecap="round"/><path d="M262.27261,149.19346c-0.91258,2.59104 -2.98171,4.2233 -4.62154,3.64574c-1.63982,-0.57755 -2.22936,-3.14622 -1.31678,-5.73726c0.91258,-2.59104 2.98172,-4.22329 4.62154,-3.64574c1.63982,0.57755 2.22936,3.14622 1.31678,5.73726z" data-paper-data="{&quot;origPos&quot;:null,&quot;origRot&quot;:0}" fill="#1121d4" stroke="none" stroke-width="0" stroke-linecap="butt"/><path d="M262.38522,149.07997c-0.4719,1.33984 -1.54185,2.18387 -2.38981,1.88521c-0.84796,-0.29866 -1.15281,-1.62692 -0.68091,-2.96674c0.4719,-1.33984 1.54186,-2.18386 2.38981,-1.88521c0.84796,0.29866 1.15281,1.62692 0.68091,2.96674z" data-paper-data="{&quot;origPos&quot;:null,&quot;origRot&quot;:0}" fill="#000000" stroke="none" stroke-width="0" stroke-linecap="butt"/><path d="M270.87672,143.93091c2.04884,0.72162 2.78545,3.93096 1.64524,7.16828c-1.14021,3.23732 -3.72543,5.27669 -5.77429,4.55507c-2.04884,-0.72162 -2.78545,-3.93096 -1.64524,-7.16828c1.14021,-3.23732 3.72543,-5.27669 5.77429,-4.55507z" data-paper-data="{&quot;origPos&quot;:null,&quot;index&quot;:null,&quot;origRot&quot;:0}" fill="#ffffff" stroke="none" stroke-width="0" stroke-linecap="butt"/><path d="M267.96381,142.27963c0,0 2.19505,-0.64069 3.27006,-0.46073c0.60115,0.10062 3.23805,1.54595 3.23805,1.54595" data-paper-data="{&quot;origPos&quot;:null,&quot;origRot&quot;:0,&quot;index&quot;:null}" fill="none" stroke="#351c06" stroke-width="1.5" stroke-linecap="round"/><path d="M271.5941,146.24547c1.35972,0.47891 1.84858,2.60882 1.09188,4.75725c-0.7567,2.14846 -2.4724,3.50189 -3.83213,3.02298c-1.35972,-0.47891 -1.84857,-2.60881 -1.09187,-4.75725c0.7567,-2.14846 2.4724,-3.50189 3.83212,-3.02299z" data-paper-data="{&quot;origPos&quot;:null,&quot;index&quot;:null,&quot;origRot&quot;:0}" fill="#1121d4" stroke="none" stroke-width="0" stroke-linecap="butt"/><path d="M273.34795,157.90417c0.61792,0.41699 0.58471,1.54652 -0.07415,2.52286c-0.65888,0.97636 -1.69391,1.42981 -2.31183,1.01282c-0.61792,-0.41699 -0.5847,-1.54651 0.07416,-2.52286c0.65888,-0.97636 1.69391,-1.42981 2.31182,-1.01283z" data-paper-data="{&quot;origPos&quot;:null,&quot;index&quot;:null,&quot;origRot&quot;:0}" fill="#000000" stroke="none" stroke-width="0" stroke-linecap="butt"/><path d="M277.77322,166.72294c-1.58627,4.5038 -7.87275,6.66791 -14.23141,4.42835c-6.35865,-2.23957 -10.38161,-8.03473 -8.79534,-12.53853c1.58627,-4.5038 8.02692,-6.33934 14.38558,-4.09978c6.35865,2.23957 10.22745,7.70615 8.64117,12.20996z" data-paper-data="{&quot;origPos&quot;:null,&quot;origRot&quot;:0}" fill="url(#color-12)" stroke="#e0ce98" stroke-width="1.5" stroke-linecap="butt"/><path d="M235.08114,144.94048c-1.83832,2.44682 -5.95865,2.31585 -9.20303,-0.29257c-3.24438,-2.60843 -4.38421,-6.70649 -2.5459,-9.15333c1.83832,-2.44682 5.95865,-2.31585 9.20303,0.29257c3.24438,2.60843 4.38421,6.70649 2.5459,9.15333z" data-paper-data="{&quot;origRot&quot;:0,&quot;origPos&quot;:null}" fill="#ffefc0" stroke="#e0ce98" stroke-width="1.5" stroke-linecap="butt"/><path d="M273.6051,126.36402l-4.20117,-1.72015l1.99352,-5.45464" data-paper-data="{&quot;origPos&quot;:null,&quot;origRot&quot;:0}" fill="none" stroke="#158e0e" stroke-width="1" stroke-linecap="round"/></g></g></svg>