<svg version="1.1" xmlns="http://www.w3.org/2000/svg" xmlns:xlink="http://www.w3.org/1999/xlink" width="79.07447" height="94.45402" viewBox="0,0,79.07447,94.45402"><defs><linearGradient x1="234.38025" y1="174.23521" x2="240.89637" y2="207.90921" gradientUnits="userSpaceOnUse" id="color-1"><stop offset="0" stop-color="#ffefc0"/><stop offset="1" stop-color="#e0ce98"/></linearGradient><linearGradient x1="231.64555" y1="163.66716" x2="235.62432" y2="184.22865" gradientUnits="userSpaceOnUse" id="color-2"><stop offset="0" stop-color="#20de16"/><stop offset="1" stop-color="#158e0e"/></linearGradient><linearGradient x1="242.89244" y1="174.13118" x2="243.86946" y2="179.18008" gradientUnits="userSpaceOnUse" id="color-3"><stop offset="0" stop-color="#20de16"/><stop offset="1" stop-color="#158e0e"/></linearGradient><linearGradient x1="252.19247" y1="186.21797" x2="254.35463" y2="197.39152" gradientUnits="userSpaceOnUse" id="color-4"><stop offset="0" stop-color="#ffefc0"/><stop offset="1" stop-color="#e0ce98"/></linearGradient><linearGradient x1="229.16971" y1="133.5388" x2="229.16971" y2="144.29627" gradientUnits="userSpaceOnUse" id="color-5"><stop offset="0" stop-color="#ffffff"/><stop offset="1" stop-color="#b7b7b7"/></linearGradient><linearGradient x1="267.49868" y1="133.8247" x2="267.49868" y2="144.94669" gradientUnits="userSpaceOnUse" id="color-6"><stop offset="0" stop-color="#ffffff"/><stop offset="1" stop-color="#b7b7b7"/></linearGradient><linearGradient x1="207.64269" y1="133.45326" x2="207.64269" y2="143.10662" gradientUnits="userSpaceOnUse" id="color-7"><stop offset="0" stop-color="#ffffff"/><stop offset="1" stop-color="#b7b7b7"/></linearGradient><linearGradient x1="218.36009" y1="132.94436" x2="218.36009" y2="144.1438" gradientUnits="userSpaceOnUse" id="color-8"><stop offset="0" stop-color="#ffffff"/><stop offset="1" stop-color="#b7b7b7"/></linearGradient><linearGradient x1="240.15463" y1="133.71789" x2="240.15463" y2="144.36091" gradientUnits="userSpaceOnUse" id="color-9"><stop offset="0" stop-color="#ffffff"/><stop offset="1" stop-color="#b7b7b7"/></linearGradient><linearGradient x1="251.21045" y1="133.83432" x2="251.21045" y2="144.47735" gradientUnits="userSpaceOnUse" id="color-10"><stop offset="0" stop-color="#ffffff"/><stop offset="1" stop-color="#b7b7b7"/></linearGradient></defs><g transform="translate(-200.46279,-132.42673)"><g data-paper-data="{&quot;isPaintingLayer&quot;:true}" fill-rule="nonzero" stroke-linejoin="miter" stroke-miterlimit="10" stroke-dasharray="" stroke-dashoffset="0" style="mix-blend-mode: normal"><path d="M203.4628,188.87033c0,-20.16415 16.69406,-36.51041 37.28723,-36.51041c20.59317,0 37.28724,16.34627 37.28724,36.51042c0,20.16415 -16.69407,36.51041 -37.28724,36.51041c-20.59317,0 -37.28723,-16.34627 -37.28723,-36.51041z" fill="#000000" stroke="#000000" stroke-width="3" stroke-linecap="butt"/><path d="M201.9628,186.70366c0,-20.16415 16.69406,-36.51042 37.28723,-36.51042c20.59317,0 37.28723,16.34627 37.28723,36.51042c0,20.16415 -16.69406,36.51042 -37.28723,36.51042c-20.59317,0 -37.28723,-16.34627 -37.28723,-36.51042z" fill="#b6b6b6" stroke="#21180e" stroke-width="3" stroke-linecap="butt"/><g><g fill="#000000" stroke="none" stroke-width="0"><path d="M256.65157,192.01339c1.21252,6.26604 -1.56583,9.48438 -5.2546,13.54366c-2.57028,2.82844 -3.04821,4.96109 -6.55304,5.63929c-4.07284,0.78812 -6.12031,-1.08665 -10.11682,-3.02521c-4.86072,-2.35775 -8.76238,-3.92844 -9.95646,-10.09924c-0.61729,-3.19 -1.80793,-11.29785 -1.00147,-14.24268c1.85851,-6.78644 9.0099,-3.75271 14.68793,-4.85145c0,0 8.7245,-4.4704 12.99125,0.81713c2.02476,2.50916 3.49771,3.40469 5.20323,12.21849z" stroke-linecap="butt"/><path d="M253.13927,173.54431c6.64489,9.09373 -15.58509,10.91831 -16.87154,12.52735c-1.26347,1.58029 0.53466,5.31585 -1.29227,5.66937c-2.5606,0.49549 -5.28564,1.54382 -5.39085,4.77412c-0.06088,1.86946 2.5334,4.98166 1.19164,5.73205c-1.32179,0.73923 -2.1959,2.54197 -3.63239,2.93159c-1.16501,0.31598 -1.8093,-1.21555 -2.9974,-1.00863c-3.38349,0.58926 -1.16995,-8.50367 -1.175,-8.95709c-0.00169,-0.15114 -1.30676,-2.99288 -1.58711,-4.44168c-1.52055,-7.85788 3.93931,-13.24943 8.05418,-14.04568c4.11486,-0.79625 17.05584,-12.27514 23.70073,-3.18142z" stroke-linecap="butt"/><path d="M258.03024,200.42793c0.11942,0.61714 -0.35016,1.78926 -0.29705,2.41524c0.11281,1.32942 -0.64384,2.18802 -1.88103,2.48802c-1.36546,0.33111 -4.12433,-0.86362 -4.12433,-0.86362c0,0 -1.68546,1.11244 -2.86858,1.64343c-0.9917,0.44507 -2.62903,0.59599 -3.67164,0.27847c-0.73295,-0.22323 -2.05088,-1.50067 -2.58705,-2.07335c-1.69741,-1.81294 -5.62671,-4.20454 -2.91942,-5.50809c1.33204,-0.64137 6.25748,2.50675 7.70467,2.22671c0,0 2.42239,-0.48033 3.63943,-0.6485c2.75952,-0.38131 6.43976,-2.87925 7.00498,0.0417z" stroke-linecap="butt"/><path d="M254.87932,176.0991c1.21784,6.29354 -6.55667,3.77894 -16.27928,5.66033c-2.35382,0.45548 -4.46488,6.24834 -6.82302,6.68087c-3.34314,0.61321 -7.23706,3.02508 -10.26966,1.48449c-2.14081,-1.08755 -1.37993,-4.65217 -1.83669,-7.0126c-1.0319,-5.33263 4.49299,-6.48167 8.84909,-9.71126c3.16642,-2.34756 2.70282,-4.99872 6.57133,-5.7473c0,0 7.69539,-2.68875 12.62884,-1.89893c5.58535,0.89419 5.94155,4.25085 7.15939,10.54439z" stroke-linecap="butt"/><path d="M262.28529,178.59286c0.42887,2.21634 -6.61243,1.47319 -15.24982,3.14458c-8.63738,1.67139 -15.60005,5.1244 -16.02893,2.90805c-0.42887,-2.21634 6.22544,-5.36795 14.86283,-7.03934c8.63738,-1.67139 15.98705,-1.22961 16.41592,0.98671z" stroke-linecap="butt"/><path d="M251.42302,172.12324c0.26429,1.36578 0.6459,2.26955 -0.18401,3.33115c-0.71632,0.91631 -5.65086,1.66734 -6.58122,1.22256c-1.32527,-0.6336 -1.00976,-1.49813 -1.29906,-2.9932c-0.4318,-2.23148 1.02341,-4.38979 3.25029,-4.8207c2.22689,-0.43092 4.38219,1.02873 4.814,3.26021z" stroke-linecap="butt"/><path d="M249.60911,189.17271c0.50994,2.63528 -0.42871,5.03322 -2.09653,5.35596c-1.66782,0.32273 -3.43325,-1.55196 -3.94319,-4.18723c-0.50994,-2.63528 0.4287,-5.03323 2.09653,-5.35597c1.66782,-0.32273 3.43325,1.55196 3.9432,4.18724z" stroke-linecap="butt"/><path d="M243.18245,184.97737c0,0 2.20589,-0.81496 2.68247,-0.82372c0.85228,-0.01566 2.47661,0.73222 2.47661,0.73222" data-paper-data="{&quot;origRot&quot;:0}" stroke-linecap="round"/><path d="M249.58789,188.96413c0.33843,1.74892 -0.28451,3.34033 -1.39137,3.55451c-1.10686,0.21418 -2.27849,-1.02998 -2.61692,-2.77888c-0.33843,-1.74892 0.28452,-3.34033 1.39137,-3.55451c1.10686,-0.21418 2.27849,1.02998 2.61692,2.77888z" stroke-linecap="butt"/><path d="M249.61374,188.86372c0.175,0.90437 -0.14712,1.72729 -0.71948,1.83804c-0.57236,0.11076 -1.17821,-0.5326 -1.35321,-1.43696c-0.175,-0.90437 0.14713,-1.72729 0.71948,-1.83804c0.57236,-0.11076 1.17821,0.5326 1.35321,1.43696z" stroke-linecap="butt"/><path d="M252.67797,183.19981c1.38295,-0.26761 2.84682,1.28685 3.26966,3.47201c0.42284,2.18515 -0.35548,4.17349 -1.73842,4.4411c-1.38295,0.26761 -2.84682,-1.28685 -3.26966,-3.47201c-0.42284,-2.18515 0.35548,-4.17349 1.73842,-4.4411z" data-paper-data="{&quot;index&quot;:null}" stroke-linecap="butt"/><path d="M250.50685,183.23037c0,0 1.01832,-1.07782 1.67884,-1.3294c0.36936,-0.14068 2.31851,-0.19604 2.31851,-0.19604" data-paper-data="{&quot;origRot&quot;:0,&quot;index&quot;:null}" stroke-linecap="round"/><path d="M253.83787,184.25989c0.91779,-0.1776 1.88931,0.85404 2.16993,2.30421c0.28062,1.45018 -0.23591,2.76975 -1.15372,2.94735c-0.91779,0.1776 -1.8893,-0.85404 -2.16992,-2.30421c-0.28062,-1.45018 0.23591,-2.76975 1.15371,-2.94735z" data-paper-data="{&quot;index&quot;:null}" stroke-linecap="butt"/><path d="M254.95143,185.36426c0.4746,-0.09184 0.97696,0.44163 1.12207,1.19152c0.14511,0.7499 -0.12199,1.43225 -0.59659,1.52409c-0.4746,0.09184 -0.97695,-0.44163 -1.12206,-1.19152c-0.14511,-0.7499 0.12199,-1.43225 0.59658,-1.52409z" data-paper-data="{&quot;index&quot;:null}" stroke-linecap="butt"/><path d="M264.00591,193.69355c0.58826,3.04001 -2.22028,6.31104 -6.51229,7.14157c-4.292,0.83053 -8.44219,-1.09395 -9.03045,-4.13396c-0.58826,-3.04001 2.41422,-6.1777 6.70623,-7.00823c4.292,-0.83053 8.24825,0.96061 8.83651,4.00061z" stroke-linecap="butt"/><path d="M232.97872,195.49489c-0.22685,1.97158 -2.57538,3.24851 -5.24561,2.8521c-2.67023,-0.39641 -4.65097,-2.31605 -4.42414,-4.28763c0.22685,-1.97158 2.57538,-3.24851 5.24561,-2.8521c2.67023,0.39641 4.65097,2.31605 4.42414,4.28763z" data-paper-data="{&quot;origRot&quot;:0}" stroke-linecap="butt"/><path d="M249.54034,174.34108l-2.91454,0.41417l-0.67196,-3.70553" stroke-linecap="round"/></g><g><path d="M253.67466,188.53843c1.21252,6.26604 -1.56583,9.48438 -5.2546,13.54366c-2.57028,2.82844 -3.04821,4.96109 -6.55304,5.63929c-4.07284,0.78812 -6.12031,-1.08665 -10.11682,-3.02521c-4.86072,-2.35775 -8.76238,-3.92844 -9.95646,-10.09924c-0.61729,-3.19 -1.80793,-11.29785 -1.00147,-14.24268c1.85851,-6.78644 9.0099,-3.75271 14.68793,-4.85145c0,0 8.7245,-4.4704 12.99125,0.81713c2.02476,2.50916 3.49771,3.40469 5.20323,12.21849z" fill="url(#color-1)" stroke="#e0ce98" stroke-width="1" stroke-linecap="butt"/><path d="M250.16231,170.06934c6.64489,9.09373 -15.58509,10.91831 -16.87154,12.52735c-1.26347,1.58029 0.53466,5.31585 -1.29227,5.66937c-2.5606,0.49549 -5.28564,1.54382 -5.39085,4.77412c-0.06088,1.86946 2.5334,4.98166 1.19164,5.73205c-1.32179,0.73923 -2.1959,2.54197 -3.63239,2.93159c-1.16501,0.31598 -1.8093,-1.21555 -2.9974,-1.00863c-3.38349,0.58926 -1.16995,-8.50367 -1.175,-8.95709c-0.00169,-0.15114 -1.30676,-2.99288 -1.58711,-4.44168c-1.52055,-7.85788 3.93931,-13.24943 8.05418,-14.04568c4.11486,-0.79625 17.05584,-12.27514 23.70073,-3.18142z" fill="#c27231" stroke="#985926" stroke-width="1.5" stroke-linecap="butt"/><path d="M255.05333,196.95297c0.11942,0.61714 -0.35016,1.78926 -0.29705,2.41524c0.11281,1.32942 -0.64384,2.18802 -1.88103,2.48802c-1.36546,0.33111 -4.12433,-0.86362 -4.12433,-0.86362c0,0 -1.68546,1.11244 -2.86858,1.64343c-0.9917,0.44507 -2.62903,0.59599 -3.67164,0.27847c-0.73295,-0.22323 -2.05088,-1.50067 -2.58705,-2.07335c-1.69741,-1.81294 -5.62671,-4.20454 -2.91942,-5.50809c1.33204,-0.64137 6.25748,2.50675 7.70467,2.22671c0,0 2.42239,-0.48033 3.63943,-0.6485c2.75952,-0.38131 6.43976,-2.87925 7.00498,0.0417z" fill="#160b02" stroke="none" stroke-width="0" stroke-linecap="butt"/><path d="M251.90237,172.62414c1.21784,6.29354 -6.55667,3.77894 -16.27928,5.66033c-2.35382,0.45548 -4.46488,6.24834 -6.82302,6.68087c-3.34314,0.61321 -7.23706,3.02508 -10.26966,1.48449c-2.14081,-1.08755 -1.37993,-4.65217 -1.83669,-7.0126c-1.0319,-5.33263 4.49299,-6.48167 8.84909,-9.71126c3.16642,-2.34756 2.70282,-4.99872 6.57133,-5.7473c0,0 7.69539,-2.68875 12.62884,-1.89893c5.58535,0.89419 5.94155,4.25085 7.15939,10.54439z" fill="url(#color-2)" stroke="#158e0e" stroke-width="1" stroke-linecap="butt"/><path d="M259.30836,175.11789c0.42887,2.21634 -6.61243,1.47319 -15.24982,3.14458c-8.63738,1.67139 -15.60005,5.1244 -16.02893,2.90805c-0.42887,-2.21634 6.22544,-5.36795 14.86283,-7.03934c8.63738,-1.67139 15.98705,-1.22961 16.41592,0.98671z" fill="url(#color-3)" stroke="#158e0e" stroke-width="1" stroke-linecap="butt"/><path d="M248.44607,168.64827c0.26429,1.36578 0.6459,2.26955 -0.18401,3.33115c-0.71632,0.91631 -5.65086,1.66734 -6.58122,1.22256c-1.32527,-0.6336 -1.00976,-1.49813 -1.29906,-2.9932c-0.4318,-2.23148 1.02341,-4.38979 3.25029,-4.8207c2.22689,-0.43092 4.38219,1.02873 4.814,3.26021z" fill="#ffffff" stroke="#a4a4a4" stroke-width="1" stroke-linecap="butt"/><path d="M246.6322,185.69775c0.50994,2.63528 -0.42871,5.03322 -2.09653,5.35596c-1.66782,0.32273 -3.43325,-1.55196 -3.94319,-4.18723c-0.50994,-2.63528 0.4287,-5.03323 2.09653,-5.35597c1.66782,-0.32273 3.43325,1.55196 3.9432,4.18724z" fill="#ffffff" stroke="none" stroke-width="0" stroke-linecap="butt"/><path d="M240.20555,181.50241c0,0 2.20589,-0.81496 2.68247,-0.82372c0.85228,-0.01566 2.47661,0.73222 2.47661,0.73222" data-paper-data="{&quot;origRot&quot;:0}" fill="none" stroke="#351c06" stroke-width="1.5" stroke-linecap="round"/><path d="M246.61099,185.48917c0.33843,1.74892 -0.28451,3.34033 -1.39137,3.55451c-1.10686,0.21418 -2.27849,-1.02998 -2.61692,-2.77888c-0.33843,-1.74892 0.28452,-3.34033 1.39137,-3.55451c1.10686,-0.21418 2.27849,1.02998 2.61692,2.77888z" fill="#1121d4" stroke="none" stroke-width="0" stroke-linecap="butt"/><path d="M246.63678,185.38876c0.175,0.90437 -0.14712,1.72729 -0.71948,1.83804c-0.57236,0.11076 -1.17821,-0.5326 -1.35321,-1.43696c-0.175,-0.90437 0.14713,-1.72729 0.71948,-1.83804c0.57236,-0.11076 1.17821,0.5326 1.35321,1.43696z" fill="#000000" stroke="none" stroke-width="0" stroke-linecap="butt"/><path d="M249.70105,179.72485c1.38295,-0.26761 2.84682,1.28685 3.26966,3.47201c0.42284,2.18515 -0.35548,4.17349 -1.73842,4.4411c-1.38295,0.26761 -2.84682,-1.28685 -3.26966,-3.47201c-0.42284,-2.18515 0.35548,-4.17349 1.73842,-4.4411z" data-paper-data="{&quot;index&quot;:null}" fill="#ffffff" stroke="none" stroke-width="0" stroke-linecap="butt"/><path d="M247.52996,179.7554c0,0 1.01832,-1.07782 1.67884,-1.3294c0.36936,-0.14068 2.31851,-0.19604 2.31851,-0.19604" data-paper-data="{&quot;origRot&quot;:0,&quot;index&quot;:null}" fill="none" stroke="#351c06" stroke-width="1.5" stroke-linecap="round"/><path d="M250.86092,180.78493c0.91779,-0.1776 1.88931,0.85404 2.16993,2.30421c0.28062,1.45018 -0.23591,2.76975 -1.15372,2.94735c-0.91779,0.1776 -1.8893,-0.85404 -2.16992,-2.30421c-0.28062,-1.45018 0.23591,-2.76975 1.15371,-2.94735z" data-paper-data="{&quot;index&quot;:null}" fill="#1121d4" stroke="none" stroke-width="0" stroke-linecap="butt"/><path d="M251.97453,181.8893c0.4746,-0.09184 0.97696,0.44163 1.12207,1.19152c0.14511,0.7499 -0.12199,1.43225 -0.59659,1.52409c-0.4746,0.09184 -0.97695,-0.44163 -1.12206,-1.19152c-0.14511,-0.7499 0.12199,-1.43225 0.59658,-1.52409z" data-paper-data="{&quot;index&quot;:null}" fill="#000000" stroke="none" stroke-width="0" stroke-linecap="butt"/><path d="M261.02902,190.21859c0.58826,3.04001 -2.22028,6.31104 -6.51229,7.14157c-4.292,0.83053 -8.44219,-1.09395 -9.03045,-4.13396c-0.58826,-3.04001 2.41422,-6.1777 6.70623,-7.00823c4.292,-0.83053 8.24825,0.96061 8.83651,4.00061z" fill="url(#color-4)" stroke="#e0ce98" stroke-width="1.5" stroke-linecap="butt"/><path d="M230.00176,192.01992c-0.22685,1.97158 -2.57538,3.24851 -5.24561,2.8521c-2.67023,-0.39641 -4.65097,-2.31605 -4.42414,-4.28763c0.22685,-1.97158 2.57538,-3.24851 5.24561,-2.8521c2.67023,0.39641 4.65097,2.31605 4.42414,4.28763z" data-paper-data="{&quot;origRot&quot;:0}" fill="#ffefc0" stroke="#e0ce98" stroke-width="1.5" stroke-linecap="butt"/><path d="M246.56345,170.86612l-2.91454,0.41417l-0.67196,-3.70553" fill="none" stroke="#158e0e" stroke-width="1" stroke-linecap="round"/></g></g><g fill="#000000" stroke="#000000" stroke-width="1" stroke-linecap="round"><path d="M226.24456,145.25769l1.41357,-9.63357l7.77466,1.28448l-0.3534,2.7295l-3.88732,-0.96335l-0.70679,1.28448l3.18054,0.64224v1.44504h-3.88732l-0.17669,1.92671l4.41742,-0.48168l0.35339,2.89007z"/><path d="M266.58225,141.17834l-2.24392,-2.73171l2.14635,-2.34148l2.34148,2.14635l1.95123,-2.34148l2.92684,2.63416l-2.04879,2.34148l3.12197,2.92685l-2.43903,3.21953l-2.82928,-2.92684l-2.92684,2.92684l-3.02441,-2.82928z"/><path d="M205.31535,145.19196l0.2076,-9.65337h5.60519l2.076,1.557l0.1038,3.84059l-2.07599,2.076l-3.01019,0.3114l0.2076,1.86839z"/><path d="M209.35686,139.89818l-0.9342,-0.1038v-1.4532l1.6608,0.3114z"/><path d="M215.25282,145.24094l0.16469,-9.55245l4.77623,-0.6588l4.28214,2.30577l-0.3294,2.63516l-1.48228,1.97638l2.14107,2.63516l-3.29395,1.64698l-2.30577,-3.29396v2.63516z"/><path d="M218.71147,140.30002v-2.47047l2.47046,0.49409l-0.32939,0.98818z" data-paper-data="{&quot;origPos&quot;:null}"/><path d="M242.23932,139.79437l3.99113,1.99557l0.16629,2.66075l-1.33038,1.99557h-4.98892l-2.66075,-1.99557l0.99779,-2.16186l2.99335,1.33038l0.3326,-0.99778l-4.82262,-2.82706l2.16186,-3.32595l4.65632,-0.66519l2.99335,1.82927l-1.16408,2.16187l-3.15965,-1.33038z"/><path d="M253.29515,139.9108l3.99113,1.99556l0.1663,2.66076l-1.33038,1.99557h-4.98892l-2.66075,-1.99557l0.99779,-2.16187l2.99336,1.33038l0.33259,-0.99779l-4.82262,-2.82706l2.16186,-3.32594l4.65632,-0.66519l2.99336,1.82927l-1.16408,2.16186l-3.15965,-1.33037z"/></g><path d="M224.5756,143.17235l1.41357,-9.63357l7.77466,1.28448l-0.3534,2.7295l-3.88732,-0.96335l-0.70679,1.28448l3.18054,0.64224v1.44504h-3.88732l-0.17669,1.92671l4.41742,-0.48168l0.35339,2.89007z" fill="url(#color-5)" stroke="#9a9a9a" stroke-width="1" stroke-linecap="round"/><path d="M264.9133,139.093l-2.24392,-2.73171l2.14635,-2.34148l2.34148,2.14635l1.95123,-2.34148l2.92684,2.63416l-2.04879,2.34148l3.12197,2.92685l-2.43903,3.21953l-2.82928,-2.92684l-2.92684,2.92684l-3.02441,-2.82928z" fill="url(#color-6)" stroke="#9a9a9a" stroke-width="1" stroke-linecap="round"/><path d="M203.64639,143.10662l0.2076,-9.65337h5.60519l2.076,1.557l0.1038,3.84059l-2.07599,2.076l-3.01019,0.3114l0.2076,1.86839z" fill="url(#color-7)" stroke="#9a9a9a" stroke-width="1" stroke-linecap="round"/><path d="M207.6879,137.81284l-0.9342,-0.1038v-1.4532l1.6608,0.3114z" fill="#ffffff" stroke="#9a9a9a" stroke-width="1" stroke-linecap="round"/><path d="M213.58386,143.1556l0.16469,-9.55245l4.77623,-0.6588l4.28214,2.30577l-0.3294,2.63516l-1.48228,1.97638l2.14107,2.63516l-3.29395,1.64698l-2.30577,-3.29396v2.63516z" fill="url(#color-8)" stroke="#9a9a9a" stroke-width="1" stroke-linecap="round"/><path d="M217.04251,138.21468v-2.47047l2.47046,0.49409l-0.32939,0.98818z" data-paper-data="{&quot;origPos&quot;:null}" fill="#ffffff" stroke="#9a9a9a" stroke-width="1" stroke-linecap="round"/><path d="M240.57036,137.70903l3.99113,1.99557l0.16629,2.66075l-1.33038,1.99557h-4.98892l-2.66075,-1.99557l0.99779,-2.16186l2.99335,1.33038l0.3326,-0.99778l-4.82262,-2.82706l2.16186,-3.32595l4.65632,-0.66519l2.99335,1.82927l-1.16408,2.16187l-3.15965,-1.33038z" fill="url(#color-9)" stroke="#9a9a9a" stroke-width="1" stroke-linecap="round"/><path d="M251.62619,137.82546l3.99113,1.99556l0.1663,2.66076l-1.33038,1.99557h-4.98892l-2.66075,-1.99557l0.99779,-2.16187l2.99336,1.33038l0.33259,-0.99779l-4.82262,-2.82706l2.16186,-3.32594l4.65632,-0.66519l2.99336,1.82927l-1.16408,2.16186l-3.15965,-1.33037z" fill="url(#color-10)" stroke="#9a9a9a" stroke-width="1" stroke-linecap="round"/></g></g></svg>