<svg version="1.1" xmlns="http://www.w3.org/2000/svg" xmlns:xlink="http://www.w3.org/1999/xlink" width="132.58087" height="33.24426" viewBox="0,0,132.58087,33.24426"><defs><linearGradient x1="279.28376" y1="166.38185" x2="279.28376" y2="189.93885" gradientUnits="userSpaceOnUse" id="color-1"><stop offset="0" stop-color="#ffffff"/><stop offset="1" stop-color="#b7b7b7"/></linearGradient><linearGradient x1="306.781" y1="164.46831" x2="306.781" y2="192.44096" gradientUnits="userSpaceOnUse" id="color-2"><stop offset="0" stop-color="#ffffff"/><stop offset="1" stop-color="#b7b7b7"/></linearGradient><linearGradient x1="253.86705" y1="167.86417" x2="253.86705" y2="191.22712" gradientUnits="userSpaceOnUse" id="color-3"><stop offset="0" stop-color="#ffffff"/><stop offset="1" stop-color="#b7b7b7"/></linearGradient><linearGradient x1="228.39258" y1="167.58207" x2="228.39258" y2="189.99139" gradientUnits="userSpaceOnUse" id="color-4"><stop offset="0" stop-color="#ffffff"/><stop offset="1" stop-color="#b7b7b7"/></linearGradient><linearGradient x1="201.87105" y1="166.31252" x2="201.87105" y2="191.0192" gradientUnits="userSpaceOnUse" id="color-5"><stop offset="0" stop-color="#ffffff"/><stop offset="1" stop-color="#b7b7b7"/></linearGradient></defs><g transform="translate(-189.07361,-163.29688)"><g data-paper-data="{&quot;isPaintingLayer&quot;:true}" fill-rule="nonzero" stroke-width="2" stroke-linecap="round" stroke-linejoin="miter" stroke-miterlimit="10" stroke-dasharray="" stroke-dashoffset="0" style="mix-blend-mode: normal"><g fill="#000000" stroke="#000000"><path d="M292.60818,190.66301l-13.14809,2.19135l-7.66971,-12.05242l4.38269,-8.76539l7.66972,-2.73919h7.66972v8.76539l-4.93054,-1.64351l-4.93054,3.28702v4.38269l3.28703,1.09567l5.47836,-3.28702z" data-paper-data="{&quot;origPos&quot;:null}"/><path d="M298.84147,192.43396l3.34003,-25.05014l18.3701,3.34003l-0.83501,7.09754l-9.18505,-2.50502l-1.67001,3.34003l7.51504,1.67001v3.75752h-9.18505l-0.41749,5.01002l10.43756,-1.25251l0.83501,7.51504z" data-paper-data="{&quot;origPos&quot;:null}"/><g data-paper-data="{&quot;origPos&quot;:null}"><path d="M244.39617,193.33702l6.84776,-22.55733l9.66743,0.40281l8.25759,21.95311l-7.04915,0.60421l-0.80562,-6.44495l-8.25759,1.20843l-1.40984,5.63933z" data-paper-data="{&quot;origPos&quot;:null}"/><path d="M253.25799,183.66961l1.40983,-5.84075l3.02107,-0.60421l1.61124,6.04215z" data-paper-data="{&quot;origPos&quot;:null}"/></g><path d="M222.03112,192.90691l0.48192,-22.40932h13.01186l4.81921,3.6144l0.24096,8.91553l-4.81921,4.81921l-6.98785,0.72288l0.48192,4.33729z" data-paper-data="{&quot;origPos&quot;:null}"/><path d="M231.9105,180.61793l-2.16864,-0.24096v-3.37345l3.85537,0.72288z" data-paper-data="{&quot;origPos&quot;:null}"/><path d="M205.75165,178.49306l9.26501,4.6325l0.38604,6.17667l-3.08833,4.6325h-11.58126l-6.17667,-4.6325l2.31626,-5.01855l6.94876,3.08833l0.77208,-2.31626l-11.19522,-6.56271l5.01855,-7.72084l10.80918,-1.54417l6.94876,4.24646l-2.70228,5.01855l-7.33479,-3.08833z" data-paper-data="{&quot;origPos&quot;:null}"/></g><path d="M289.69266,187.74749l-13.14809,2.19135l-7.66971,-12.05242l4.38269,-8.76539l7.66972,-2.73919h7.66972v8.76539l-4.93054,-1.64351l-4.93054,3.28702v4.38269l3.28703,1.09567l5.47836,-3.28702z" fill="url(#color-1)" stroke="#989898"/><path d="M295.92595,189.51844l3.34003,-25.05014l18.3701,3.34003l-0.83501,7.09754l-9.18505,-2.50502l-1.67001,3.34003l7.51504,1.67001v3.75752h-9.18505l-0.41749,5.01002l10.43756,-1.25251l0.83501,7.51504z" fill="url(#color-2)" stroke="#989898"/><g stroke="#989898"><path d="M241.48065,190.4215l6.84776,-22.55733l9.66743,0.40281l8.25759,21.95311l-7.04915,0.60421l-0.80562,-6.44495l-8.25759,1.20843l-1.40984,5.63933z" data-paper-data="{&quot;origPos&quot;:null}" fill="url(#color-3)"/><path d="M250.34247,180.75409l1.40983,-5.84075l3.02107,-0.60421l1.61124,6.04215z" data-paper-data="{&quot;origPos&quot;:null}" fill="#ffffff"/></g><path d="M219.1156,189.99139l0.48192,-22.40932h13.01186l4.81921,3.6144l0.24096,8.91553l-4.81921,4.81921l-6.98785,0.72288l0.48192,4.33729z" fill="url(#color-4)" stroke="#989898"/><path d="M228.99498,177.70241l-2.16864,-0.24096v-3.37345l3.85537,0.72288z" fill="#ffffff" stroke="#989898"/><path d="M202.83613,175.57754l9.26501,4.6325l0.38604,6.17667l-3.08833,4.6325h-11.58126l-6.17667,-4.6325l2.31626,-5.01855l6.94876,3.08833l0.77208,-2.31626l-11.19522,-6.56271l5.01855,-7.72084l10.80918,-1.54417l6.94876,4.24646l-2.70228,5.01855l-7.33479,-3.08833z" fill="url(#color-5)" stroke="#989898"/></g></g></svg>