<svg version="1.1" xmlns="http://www.w3.org/2000/svg" xmlns:xlink="http://www.w3.org/1999/xlink" width="91.26432" height="32.55926" viewBox="0,0,91.26432,32.55926"><defs><linearGradient x1="239.91313" y1="165.46931" x2="239.91313" y2="191.55412" gradientUnits="userSpaceOnUse" id="color-1"><stop offset="0" stop-color="#f3f3f3"/><stop offset="1" stop-color="#b7b7b7"/></linearGradient><linearGradient x1="209.8021" y1="165.03319" x2="209.8021" y2="190.65539" gradientUnits="userSpaceOnUse" id="color-2"><stop offset="0" stop-color="#f3f3f3"/><stop offset="1" stop-color="#b7b7b7"/></linearGradient><linearGradient x1="270.5292" y1="165.45385" x2="270.5292" y2="190.55761" gradientUnits="userSpaceOnUse" id="color-3"><stop offset="0" stop-color="#f3f3f3"/><stop offset="1" stop-color="#b7b7b7"/></linearGradient></defs><g transform="translate(-194.33402,-163.77055)"><g data-paper-data="{&quot;isPaintingLayer&quot;:true}" fill-rule="nonzero" stroke-width="2.5" stroke-linecap="round" stroke-linejoin="miter" stroke-miterlimit="10" stroke-dasharray="" stroke-dashoffset="0" style="mix-blend-mode: normal"><path d="M229.49633,194.06733l7.64556,-25.18535l10.79372,0.44973l9.21963,24.51074l-7.87041,0.67461l-0.89948,-7.1958l-9.21963,1.34922l-1.57409,6.29633z" fill="#000000" stroke="#000000"/><path d="M239.3906,183.27362l1.57408,-6.52121l3.37303,-0.67461l1.79896,6.74608z" fill="#000000" stroke="#000000"/><path d="M199.66741,168.44587l27.68375,0.29451l-0.29451,10.89679l-8.83524,-1.47254l1.17803,15.90343l-11.1913,-0.29451l2.06156,-16.19795l-11.1913,1.47255z" fill="#000000" stroke="#000000"/><path d="M263.54945,193.97029l0.53986,-25.10377h14.57637l5.39866,4.04899l0.26994,9.98752l-5.39866,5.39866l-7.82805,0.80981l0.53986,4.85879z" fill="#000000" stroke="#000000"/><path d="M274.61669,180.20372l-2.42939,-0.26994v-3.77906l4.31893,0.80981z" fill="#000000" stroke="#000000"/><path d="M226.08367,190.65465l7.64556,-25.18535l10.79372,0.44973l9.21963,24.51074l-7.87041,0.67461l-0.89948,-7.1958l-9.21963,1.34922l-1.57409,6.29633z" fill="url(#color-1)" stroke="#989898"/><path d="M235.97793,179.86094l1.57408,-6.52121l3.37303,-0.67461l1.79896,6.74608z" fill="#ffffff" stroke="#989898"/><path d="M196.25474,165.03319l27.68375,0.29451l-0.29451,10.89679l-8.83524,-1.47254l1.17803,15.90343l-11.1913,-0.29451l2.06156,-16.19795l-11.1913,1.47255z" fill="url(#color-2)" stroke="#989898"/><path d="M260.13678,190.55761l0.53986,-25.10377h14.57637l5.39866,4.04899l0.26994,9.98752l-5.39866,5.39866l-7.82805,0.80981l0.53986,4.85879z" fill="url(#color-3)" stroke="#989898"/><path d="M271.20402,176.79104l-2.42939,-0.26994v-3.77906l4.31893,0.80981z" fill="#ffffff" stroke="#989898"/></g></g></svg>