<svg version="1.1" xmlns="http://www.w3.org/2000/svg" xmlns:xlink="http://www.w3.org/1999/xlink" width="281.43766" height="108.63499" viewBox="0,0,281.43766,108.63499"><g transform="translate(-99.95313,-196.31252)"><g data-paper-data="{&quot;isPaintingLayer&quot;:true}" fill-rule="nonzero" stroke-linejoin="miter" stroke-miterlimit="10" stroke-dasharray="" stroke-dashoffset="0" style="mix-blend-mode: normal"><path d="" data-paper-data="{&quot;origPos&quot;:null}" fill="none" stroke="#5c4a25" stroke-width="7.5" stroke-linecap="round"/><path d="M159.41707,294.81251v-47.54774h5.1093v47.54774z" data-paper-data="{&quot;index&quot;:null}" fill="#90ff96" stroke="none" stroke-width="0" stroke-linecap="butt"/><path d="M161.97172,239.75723c0,0 5.21357,9.24341 5.21357,20.64573c0,11.40232 -10.42714,11.40232 -10.42714,0c0,-11.40232 5.21357,-20.64573 5.21357,-20.64573z" data-paper-data="{&quot;index&quot;:null}" fill="#ff8cf5" stroke="none" stroke-width="0" stroke-linecap="butt"/><path d="M156.75815,220.36426c0,-11.40232 10.42714,-11.40232 10.42714,0c0,11.40232 -5.21357,20.64573 -5.21357,20.64573c0,0 -5.21357,-9.24341 -5.21357,-20.64573z" data-paper-data="{&quot;index&quot;:null}" fill="#ff8cf5" stroke="none" stroke-width="0" stroke-linecap="butt"/><path d="M161.12199,240.44796c0,0 -9.47949,4.77087 -20.86907,4.23196c-11.38958,-0.53891 -10.89676,-10.95439 0.49282,-10.41548c11.38958,0.53891 20.37625,6.18353 20.37625,6.18353z" data-paper-data="{&quot;index&quot;:null}" fill="#ff8cf5" stroke="none" stroke-width="0" stroke-linecap="butt"/><path d="M183.26944,245.09702c-11.38958,0.53891 -20.86907,-4.23196 -20.86907,-4.23196c0,0 8.98667,-5.64462 20.37625,-6.18353c11.38958,-0.53891 11.8824,9.87657 0.49282,10.41548z" data-paper-data="{&quot;index&quot;:null}" fill="#ff8cf5" stroke="none" stroke-width="0" stroke-linecap="butt"/><path d="M161.51725,240.99662c0,0 -10.30299,-2.54368 -18.6023,-10.36253c-8.29931,-7.81885 -1.14917,-15.40836 7.15014,-7.58951c8.29931,7.81885 11.45216,17.95203 11.45216,17.95203z" data-paper-data="{&quot;index&quot;:null}" fill="#ff8cf5" stroke="none" stroke-width="0" stroke-linecap="butt"/><path d="M180.76604,230.63411c-8.29931,7.81885 -18.6023,10.36252 -18.6023,10.36252c0,0 3.15285,-10.13319 11.45216,-17.95204c8.29931,-7.81885 15.44945,-0.22934 7.15014,7.58951z" data-paper-data="{&quot;index&quot;:null}" fill="#ff8cf5" stroke="none" stroke-width="0" stroke-linecap="butt"/><path d="M142.49788,251.39165c8.29931,-7.81885 18.6023,-10.36252 18.6023,-10.36252c0,0 -3.15284,10.13319 -11.45215,17.95204c-8.29931,7.81885 -15.44945,0.22934 -7.15014,-7.58951z" data-paper-data="{&quot;index&quot;:null}" fill="#ff8cf5" stroke="none" stroke-width="0" stroke-linecap="butt"/><path d="M162.16373,241.02915c0,0 10.30299,2.54367 18.6023,10.36252c8.29931,7.81885 1.14917,15.40836 -7.15014,7.58951c-8.2993,-7.81885 -11.45215,-17.95203 -11.45215,-17.95203z" data-paper-data="{&quot;index&quot;:null}" fill="#ff8cf5" stroke="none" stroke-width="0" stroke-linecap="butt"/><path d="M161.76317,245.59644c-2.53385,0 -4.58794,-2.05409 -4.58794,-4.58794c0,-2.53385 2.05409,-4.58794 4.58794,-4.58794c2.53385,0 4.58794,2.05409 4.58794,4.58794c0,2.53385 -2.05409,4.58794 -4.58794,4.58794z" data-paper-data="{&quot;index&quot;:null}" fill="#fffa5b" stroke="none" stroke-width="0" stroke-linecap="butt"/><path d="M161.13475,276.54796c0,0 -7.03058,0.33378 -13.78627,-3.0649c-6.75569,-3.39868 -3.64768,-9.57659 3.10801,-6.17791c6.75569,3.39869 10.67826,9.24282 10.67826,9.24282z" data-paper-data="{&quot;index&quot;:null}" fill="#90ff96" stroke="none" stroke-width="0" stroke-linecap="butt"/><path d="M163.17941,276.13089c0,0 3.92257,-5.84413 10.67826,-9.24282c6.75569,-3.39868 9.8637,2.77923 3.10801,6.17791c-6.75569,3.39868 -13.78627,3.0649 -13.78627,3.0649z" data-paper-data="{&quot;index&quot;:null}" fill="#90ff96" stroke="none" stroke-width="0" stroke-linecap="butt"/><path d="M127.41706,295.31253v-63.54774h5.1093v63.54774z" data-paper-data="{&quot;index&quot;:null}" fill="#90ff96" stroke="none" stroke-width="0" stroke-linecap="butt"/><path d="M129.97171,224.25725c0,0 5.21357,9.24341 5.21357,20.64573c0,11.40232 -10.42714,11.40232 -10.42714,0c0,-11.40232 5.21357,-20.64573 5.21357,-20.64573z" data-paper-data="{&quot;index&quot;:null}" fill="#bb8cff" stroke="none" stroke-width="0" stroke-linecap="butt"/><path d="M124.75814,204.86426c0,-11.40232 10.42714,-11.40232 10.42714,0c0,11.40232 -5.21357,20.64573 -5.21357,20.64573c0,0 -5.21357,-9.24341 -5.21357,-20.64573z" data-paper-data="{&quot;index&quot;:null}" fill="#bb8cff" stroke="none" stroke-width="0" stroke-linecap="butt"/><path d="M129.12198,224.94797c0,0 -9.47949,4.77087 -20.86907,4.23196c-11.38958,-0.53891 -10.89676,-10.95439 0.49282,-10.41548c11.38958,0.53891 20.37625,6.18353 20.37625,6.18353z" data-paper-data="{&quot;index&quot;:null}" fill="#bb8cff" stroke="none" stroke-width="0" stroke-linecap="butt"/><path d="M151.26943,229.59704c-11.38958,0.53891 -20.86907,-4.23196 -20.86907,-4.23196c0,0 8.98667,-5.64462 20.37625,-6.18353c11.38958,-0.53891 11.8824,9.87657 0.49282,10.41548z" data-paper-data="{&quot;index&quot;:null}" fill="#bb8cff" stroke="none" stroke-width="0" stroke-linecap="butt"/><path d="M129.51724,225.49664c0,0 -10.30299,-2.54368 -18.6023,-10.36253c-8.29931,-7.81885 -1.14917,-15.40836 7.15014,-7.58951c8.29931,7.81885 11.45216,17.95203 11.45216,17.95203z" data-paper-data="{&quot;index&quot;:null}" fill="#bb8cff" stroke="none" stroke-width="0" stroke-linecap="butt"/><path d="M148.76603,215.1341c-8.29931,7.81885 -18.6023,10.36252 -18.6023,10.36252c0,0 3.15285,-10.13319 11.45216,-17.95204c8.29931,-7.81885 15.44945,-0.22934 7.15014,7.58951z" data-paper-data="{&quot;index&quot;:null}" fill="#bb8cff" stroke="none" stroke-width="0" stroke-linecap="butt"/><path d="M110.49785,235.89166c8.29931,-7.81885 18.6023,-10.36252 18.6023,-10.36252c0,0 -3.15284,10.13319 -11.45215,17.95204c-8.29931,7.81885 -15.44945,0.22934 -7.15014,-7.58951z" data-paper-data="{&quot;index&quot;:null}" fill="#bb8cff" stroke="none" stroke-width="0" stroke-linecap="butt"/><path d="M130.16372,225.52916c0,0 10.30299,2.54367 18.6023,10.36252c8.29931,7.81885 1.14917,15.40836 -7.15014,7.58951c-8.2993,-7.81885 -11.45215,-17.95203 -11.45215,-17.95203z" data-paper-data="{&quot;index&quot;:null}" fill="#bb8cff" stroke="none" stroke-width="0" stroke-linecap="butt"/><path d="M129.76316,230.09645c-2.53385,0 -4.58794,-2.05409 -4.58794,-4.58794c0,-2.53385 2.05409,-4.58794 4.58794,-4.58794c2.53385,0 4.58794,2.05409 4.58794,4.58794c0,2.53385 -2.05409,4.58794 -4.58794,4.58794z" data-paper-data="{&quot;index&quot;:null}" fill="#fffa5b" stroke="none" stroke-width="0" stroke-linecap="butt"/><path d="M129.13474,261.04796c0,0 -7.03058,0.33378 -13.78627,-3.0649c-6.75569,-3.39868 -3.64768,-9.57659 3.10801,-6.17791c6.75569,3.39869 10.67826,9.24282 10.67826,9.24282z" data-paper-data="{&quot;index&quot;:null}" fill="#90ff96" stroke="none" stroke-width="0" stroke-linecap="butt"/><path d="M131.1794,260.63091c0,0 3.92257,-5.84413 10.67826,-9.24282c6.75569,-3.39868 9.8637,2.77923 3.10801,6.17791c-6.75569,3.39868 -13.78627,3.0649 -13.78627,3.0649z" data-paper-data="{&quot;index&quot;:null}" fill="#90ff96" stroke="none" stroke-width="0" stroke-linecap="butt"/><path d="M232.14841,272.78135c-2.06628,9.35673 -8.35896,28.53115 -8.35896,28.53115c0,0 -7.38463,-19.31476 -9.73278,-29.56124c-2.22897,-9.72641 -4.01722,-30.43876 -4.01722,-30.43876c0,0 6.53764,10.39532 8.82008,15.62418c2.30074,5.2708 4.92992,15.87582 4.92992,15.87582c0,0 2.62868,-10.62667 4.65172,-15.43618c2.3457,-5.57657 8.59828,-16.06382 8.59828,-16.06382c0,0 -2.57028,20.95973 -4.89104,31.46885z" data-paper-data="{&quot;index&quot;:null}" fill="#90ff96" stroke="none" stroke-width="0" stroke-linecap="butt"/><path d="M216.60864,263.79933c-2.71677,12.30237 -10.99048,37.51317 -10.99048,37.51317c0,0 -9.70943,-25.39532 -12.79681,-38.86755c-2.93069,-12.78844 -5.2819,-40.02134 -5.2819,-40.02134c0,0 8.59578,13.66791 11.59677,20.5429c3.02505,6.93013 6.48194,20.87377 6.48194,20.87377c0,0 3.45622,-13.97211 6.11615,-20.29572c3.08416,-7.33216 11.30514,-21.12095 11.30514,-21.12095c0,0 -3.37943,27.55818 -6.43081,41.37572z" data-paper-data="{&quot;index&quot;:null}" fill="#80ff87" stroke="none" stroke-width="0" stroke-linecap="butt"/><path d="M319.53986,266.08249c0,0 11.40752,4.35265 16.7052,7.27414c4.56897,2.51964 13.21942,9.22828 13.21942,9.22828c0,0 -4.51143,-9.95118 -5.9737,-15.51324c-1.45063,-5.51781 -2.76529,-17.72743 -2.76529,-17.72743c0,0 11.43717,17.3606 15.71795,26.37427c4.50967,9.49563 10.68921,29.229 10.68921,29.229c0,0 -16.82447,-11.14421 -24.24635,-17.20503c-8.33597,-6.80729 -23.34643,-21.65999 -23.34643,-21.65999z" fill="#90ff96" stroke="none" stroke-width="0" stroke-linecap="butt"/><path d="M318.81511,242.58217c0,0 14.99878,5.72294 21.96424,9.56415c6.00735,3.31285 17.38109,12.13347 17.38109,12.13347c0,0 -5.9317,-13.08396 -7.85432,-20.39705c-1.90732,-7.2549 -3.63584,-23.30829 -3.63584,-23.30829c0,0 15.03776,22.82597 20.66619,34.67729c5.92939,12.48499 14.05432,38.43073 14.05432,38.43073c0,0 -22.12106,-14.65256 -31.87946,-22.62142c-10.96026,-8.95032 -30.69623,-28.47889 -30.69623,-28.47889z" fill="#80ff87" stroke="none" stroke-width="0" stroke-linecap="butt"/></g></g></svg>