<svg version="1.1" xmlns="http://www.w3.org/2000/svg" xmlns:xlink="http://www.w3.org/1999/xlink" width="413.89231" height="228.8913" viewBox="0,0,413.89231,228.8913"><g transform="translate(-57.90313,-168.2962)"><g data-paper-data="{&quot;isPaintingLayer&quot;:true}" fill-rule="nonzero" stroke-linecap="butt" stroke-linejoin="miter" stroke-miterlimit="10" stroke-dasharray="" stroke-dashoffset="0" style="mix-blend-mode: normal"><path d="M334.64066,395.6875v-127.1875h135.60894v127.1875z" data-paper-data="{&quot;index&quot;:null}" fill="#6b6b6b" stroke="#211502" stroke-width="3"/><path d="M446.5379,315.53731l-4.37129,5.76313l-13.311,-2.49491l4.3713,-5.76313z" data-paper-data="{&quot;index&quot;:null}" fill="#3c3c3c" stroke="none" stroke-width="0"/><path d="M367.47236,282.64279l7.70571,7.29805l-13.84748,8.36469l-7.7057,-7.29805z" data-paper-data="{&quot;index&quot;:null}" fill="#3c3c3c" stroke="none" stroke-width="0"/><path d="M438.03324,266.7962v-13h32.2622v13z" data-paper-data="{&quot;index&quot;:null}" fill="#444444" stroke="#000000" stroke-width="3"/><path d="M403.81574,266.7962v-13h32.2622v13z" data-paper-data="{&quot;index&quot;:null}" fill="#444444" stroke="#000000" stroke-width="3"/><path d="M369.10942,266.7962v-13h32.2622v13z" data-paper-data="{&quot;index&quot;:null}" fill="#444444" stroke="#000000" stroke-width="3"/><path d="M334.40313,266.7962v-13h32.2622v13z" data-paper-data="{&quot;index&quot;:null}" fill="#444444" stroke="#000000" stroke-width="3"/><path d="M378.47236,333.64279l7.70571,7.29805l-13.84748,8.36469l-7.7057,-7.29805z" data-paper-data="{&quot;index&quot;:null}" fill="#3c3c3c" stroke="none" stroke-width="0"/><path d="M197.64066,394.6875v-165.1875h135.60894v165.1875z" data-paper-data="{&quot;index&quot;:null}" fill="#6b6b6b" stroke="#211502" stroke-width="3"/><path d="M306.53791,269.53731l-4.37129,5.76313l-13.311,-2.49491l4.3713,-5.76313z" data-paper-data="{&quot;index&quot;:null}" fill="#3c3c3c" stroke="none" stroke-width="0"/><path d="M228.47237,325.64279l7.70571,7.29805l-13.84748,8.36469l-7.7057,-7.29805z" data-paper-data="{&quot;index&quot;:null}" fill="#3c3c3c" stroke="none" stroke-width="0"/><path d="M301.03324,227.7962v-13h32.2622v13z" data-paper-data="{&quot;index&quot;:null}" fill="#444444" stroke="#000000" stroke-width="3"/><path d="M266.81574,227.7962v-13h32.2622v13z" data-paper-data="{&quot;index&quot;:null}" fill="#444444" stroke="#000000" stroke-width="3"/><path d="M232.10942,227.7962v-13h32.2622v13z" data-paper-data="{&quot;index&quot;:null}" fill="#444444" stroke="#000000" stroke-width="3"/><path d="M197.40313,227.7962v-13h32.2622v13z" data-paper-data="{&quot;index&quot;:null}" fill="#444444" stroke="#000000" stroke-width="3"/><path d="M272.47236,297.64279l7.70571,7.29805l-13.84748,8.36469l-7.7057,-7.29805z" data-paper-data="{&quot;index&quot;:null}" fill="#3c3c3c" stroke="none" stroke-width="0"/><path d="M59.64065,392.6875v-208.1875h135.60894v208.1875z" data-paper-data="{&quot;index&quot;:null}" fill="#6b6b6b" stroke="#211502" stroke-width="3"/><path d="M164.5379,248.53731l-4.37129,5.76313l-13.311,-2.49491l4.3713,-5.76313z" data-paper-data="{&quot;index&quot;:null}" fill="#3c3c3c" stroke="none" stroke-width="0"/><path d="M131.47237,201.64279l7.70571,7.29805l-13.84748,8.36469l-7.7057,-7.29805z" data-paper-data="{&quot;index&quot;:null}" fill="#3c3c3c" stroke="none" stroke-width="0"/><path d="M163.03323,182.7962v-13h32.2622v13z" data-paper-data="{&quot;index&quot;:null}" fill="#444444" stroke="#000000" stroke-width="3"/><path d="M128.81574,182.7962v-13h32.2622v13z" data-paper-data="{&quot;index&quot;:null}" fill="#444444" stroke="#000000" stroke-width="3"/><path d="M94.10942,182.7962v-13h32.2622v13z" data-paper-data="{&quot;index&quot;:null}" fill="#444444" stroke="#000000" stroke-width="3"/><path d="M59.40313,182.7962v-13h32.2622v13z" data-paper-data="{&quot;index&quot;:null}" fill="#444444" stroke="#000000" stroke-width="3"/><path d="M103.47236,249.64279l7.70571,7.29805l-13.84748,8.36469l-7.7057,-7.29805z" data-paper-data="{&quot;index&quot;:null}" fill="#3c3c3c" stroke="none" stroke-width="0"/><path d="M139.47236,298.64279l7.70571,7.29805l-13.84748,8.36469l-7.7057,-7.29805z" data-paper-data="{&quot;index&quot;:null}" fill="#3c3c3c" stroke="none" stroke-width="0"/></g></g></svg>