<svg version="1.1" xmlns="http://www.w3.org/2000/svg" xmlns:xlink="http://www.w3.org/1999/xlink" width="502.0469" height="85.7038" viewBox="0,0,502.0469,85.7038"><g transform="translate(72,-293.1481)"><g data-paper-data="{&quot;isPaintingLayer&quot;:true}" fill-rule="nonzero" stroke-linejoin="miter" stroke-miterlimit="10" stroke-dasharray="" stroke-dashoffset="0" style="mix-blend-mode: normal"><path d="M-70.45245,377.3519v-68h498.64114v68z" fill="#6b6b6b" stroke="#211502" stroke-width="3" stroke-linecap="butt"/><path d="M1.15992,355.8943l4.53531,5.76313l-13.81042,2.49491l-4.5353,-5.76313z" data-paper-data="{&quot;index&quot;:null}" fill="#3c3c3c" stroke="none" stroke-width="0" stroke-linecap="butt"/><path d="M339.09346,356.35607l-7.19924,5.90381l-13.59858,0.49198l-6.39934,-7.87174l7.99917,-6.39579l17.04439,3.21682z" data-paper-data="{&quot;index&quot;:null}" fill="#3c3c3c" stroke="none" stroke-width="0" stroke-linecap="round"/><path d="M94.12376,331.85938l-7.99481,7.29805l-14.36703,-8.36469l7.99482,-7.29805z" data-paper-data="{&quot;index&quot;:null}" fill="#3c3c3c" stroke="none" stroke-width="0" stroke-linecap="butt"/><path d="M187.56358,361.39446l-10.77417,6.53209l-12.03698,-10.5221l10.77419,-6.53209z" data-paper-data="{&quot;index&quot;:null}" fill="#3c3c3c" stroke="none" stroke-width="0" stroke-linecap="butt"/><path d="M240.36289,327.01419l11.4187,1.05024l-4.92354,9.33988l-11.41871,-1.05025z" data-paper-data="{&quot;index&quot;:null}" fill="#3c3c3c" stroke="none" stroke-width="0" stroke-linecap="butt"/><path d="M-70.5,307.6481v-13h33.47266v13z" fill="#444444" stroke="#000000" stroke-width="3" stroke-linecap="butt"/><path d="M-34.99869,307.6481v-13h33.47266v13z" fill="#444444" stroke="#000000" stroke-width="3" stroke-linecap="butt"/><path d="M1.00978,307.6481v-13h33.47266v13z" fill="#444444" stroke="#000000" stroke-width="3" stroke-linecap="butt"/><path d="M37.01824,307.6481v-13h33.47266v13z" fill="#444444" stroke="#000000" stroke-width="3" stroke-linecap="butt"/><path d="M72.51954,307.6481v-13h33.47266v13z" fill="#444444" stroke="#000000" stroke-width="3" stroke-linecap="butt"/><path d="M108.52799,307.6481v-13h33.47266v13z" fill="#444444" stroke="#000000" stroke-width="3" stroke-linecap="butt"/><path d="M144.53647,307.6481v-13h33.47266v13z" fill="#444444" stroke="#000000" stroke-width="3" stroke-linecap="butt"/><path d="M180.03777,307.6481v-13h33.47266v13z" fill="#444444" stroke="#000000" stroke-width="3" stroke-linecap="butt"/><path d="M216.04625,307.6481v-13h33.47266v13z" fill="#444444" stroke="#000000" stroke-width="3" stroke-linecap="butt"/><path d="M252.0547,307.6481v-13h33.47266v13z" fill="#444444" stroke="#000000" stroke-width="3" stroke-linecap="butt"/><path d="M287.55601,307.6481v-13h33.47266v13z" fill="#444444" stroke="#000000" stroke-width="3" stroke-linecap="butt"/><path d="M323.56446,307.6481v-13h33.47266v13z" fill="#444444" stroke="#000000" stroke-width="3" stroke-linecap="butt"/><path d="M359.57294,307.6481v-13h33.47266v13z" fill="#444444" stroke="#000000" stroke-width="3" stroke-linecap="butt"/><path d="M395.07424,307.6481v-13h33.47266v13z" fill="#444444" stroke="#000000" stroke-width="3" stroke-linecap="butt"/></g></g></svg>