<svg version="1.1" xmlns="http://www.w3.org/2000/svg" xmlns:xlink="http://www.w3.org/1999/xlink" width="79.07447" height="94.45402" viewBox="0,0,79.07447,94.45402"><defs><linearGradient x1="234.84756" y1="174.24144" x2="239.74183" y2="207.28587" gradientUnits="userSpaceOnUse" id="color-1"><stop offset="0" stop-color="#ffefc0"/><stop offset="1" stop-color="#e0ce98"/></linearGradient><linearGradient x1="233.09729" y1="161.86622" x2="236.37637" y2="184.00543" gradientUnits="userSpaceOnUse" id="color-2"><stop offset="0" stop-color="#d21515"/><stop offset="1" stop-color="#940000"/></linearGradient><linearGradient x1="246.56946" y1="173.47788" x2="247.31053" y2="178.48134" gradientUnits="userSpaceOnUse" id="color-3"><stop offset="0" stop-color="#d21515"/><stop offset="1" stop-color="#940000"/></linearGradient><linearGradient x1="254.32453" y1="186.41874" x2="255.9404" y2="197.32849" gradientUnits="userSpaceOnUse" id="color-4"><stop offset="0" stop-color="#ffefc0"/><stop offset="1" stop-color="#e0ce98"/></linearGradient><linearGradient x1="221.43084" y1="186.17667" x2="222.52395" y2="193.55692" gradientUnits="userSpaceOnUse" id="color-5"><stop offset="0" stop-color="#ffefc0"/><stop offset="1" stop-color="#e0ce98"/></linearGradient><linearGradient x1="229.1697" y1="133.53879" x2="229.1697" y2="144.29626" gradientUnits="userSpaceOnUse" id="color-6"><stop offset="0" stop-color="#ffffff"/><stop offset="1" stop-color="#b7b7b7"/></linearGradient><linearGradient x1="267.49867" y1="133.82469" x2="267.49867" y2="144.94668" gradientUnits="userSpaceOnUse" id="color-7"><stop offset="0" stop-color="#ffffff"/><stop offset="1" stop-color="#b7b7b7"/></linearGradient><linearGradient x1="207.64268" y1="133.45325" x2="207.64268" y2="143.10661" gradientUnits="userSpaceOnUse" id="color-8"><stop offset="0" stop-color="#ffffff"/><stop offset="1" stop-color="#b7b7b7"/></linearGradient><linearGradient x1="218.36008" y1="132.94435" x2="218.36008" y2="144.14379" gradientUnits="userSpaceOnUse" id="color-9"><stop offset="0" stop-color="#ffffff"/><stop offset="1" stop-color="#b7b7b7"/></linearGradient><linearGradient x1="240.15462" y1="133.71788" x2="240.15462" y2="144.3609" gradientUnits="userSpaceOnUse" id="color-10"><stop offset="0" stop-color="#ffffff"/><stop offset="1" stop-color="#b7b7b7"/></linearGradient><linearGradient x1="251.21044" y1="133.83431" x2="251.21044" y2="144.47734" gradientUnits="userSpaceOnUse" id="color-11"><stop offset="0" stop-color="#ffffff"/><stop offset="1" stop-color="#b7b7b7"/></linearGradient></defs><g transform="translate(-200.4628,-132.42673)"><g data-paper-data="{&quot;isPaintingLayer&quot;:true}" fill-rule="nonzero" stroke-linejoin="miter" stroke-miterlimit="10" stroke-dasharray="" stroke-dashoffset="0" style="mix-blend-mode: normal"><g fill="#000000" stroke="#000000" stroke-width="1" stroke-linecap="round"><path d="M226.24455,145.25768l1.41357,-9.63357l7.77466,1.28448l-0.3534,2.7295l-3.88732,-0.96335l-0.70679,1.28448l3.18054,0.64224v1.44504h-3.88732l-0.17669,1.92671l4.41742,-0.48168l0.35339,2.89007z"/><path d="M266.58225,141.17833l-2.24392,-2.73171l2.14635,-2.34148l2.34148,2.14635l1.95123,-2.34148l2.92684,2.63416l-2.04879,2.34148l3.12197,2.92685l-2.43903,3.21953l-2.82928,-2.92684l-2.92684,2.92684l-3.02441,-2.82928z"/><path d="M205.31534,145.19195l0.2076,-9.65337h5.60519l2.076,1.557l0.1038,3.84059l-2.07599,2.076l-3.01019,0.3114l0.2076,1.86839z"/><path d="M209.35685,139.89817l-0.9342,-0.1038v-1.4532l1.6608,0.3114z"/><path d="M215.25281,145.24093l0.16469,-9.55245l4.77623,-0.6588l4.28214,2.30577l-0.3294,2.63516l-1.48228,1.97638l2.14107,2.63516l-3.29395,1.64698l-2.30577,-3.29396v2.63516z"/><path d="M218.71146,140.30001v-2.47047l2.47046,0.49409l-0.32939,0.98818z" data-paper-data="{&quot;origPos&quot;:null}"/><path d="M242.23931,139.79436l3.99113,1.99557l0.16629,2.66075l-1.33038,1.99557h-4.98892l-2.66075,-1.99557l0.99779,-2.16186l2.99335,1.33038l0.3326,-0.99778l-4.82262,-2.82706l2.16186,-3.32595l4.65632,-0.66519l2.99335,1.82927l-1.16408,2.16187l-3.15965,-1.33038z"/><path d="M253.29514,139.91079l3.99113,1.99556l0.1663,2.66076l-1.33038,1.99557h-4.98892l-2.66075,-1.99557l0.99779,-2.16187l2.99336,1.33038l0.33259,-0.99779l-4.82262,-2.82706l2.16186,-3.32594l4.65632,-0.66519l2.99336,1.82927l-1.16408,2.16186l-3.15965,-1.33037z"/></g><path d="M203.4628,188.87034c0,-20.16415 16.69406,-36.51041 37.28723,-36.51041c20.59317,0 37.28724,16.34627 37.28724,36.51042c0,20.16415 -16.69407,36.51041 -37.28724,36.51041c-20.59317,0 -37.28723,-16.34627 -37.28723,-36.51041z" fill="#000000" stroke="#000000" stroke-width="3" stroke-linecap="butt"/><path d="M201.9628,186.70367c0,-20.16415 16.69406,-36.51042 37.28723,-36.51042c20.59317,0 37.28723,16.34627 37.28723,36.51042c0,20.16415 -16.69406,36.51042 -37.28723,36.51042c-20.59317,0 -37.28723,-16.34627 -37.28723,-36.51042z" fill="#b6b6b6" stroke="#21180e" stroke-width="3" stroke-linecap="butt"/><g fill="#000000" stroke="none" stroke-width="0"><path d="M260.64905,190.73366c1.39504,9.41882 -7.14396,18.48652 -17.58431,20.03287c-10.44035,1.54634 -23.45138,-4.44601 -24.84643,-13.86483c-0.50491,-3.40899 -1.29166,-12.0699 0.04894,-15.20412c3.08943,-7.2229 12.18675,-3.92007 19.7456,-5.03963c0,0 11.88081,-4.6884 16.97563,0.99217c2.41771,2.69566 4.26555,3.66471 5.6606,13.08354z" stroke-linecap="butt"/><path d="M256.32554,171.85733c7.18446,9.1725 -19.52313,10.68528 -21.19332,12.27403c-1.64034,1.56036 0.19816,5.31534 -2.01363,5.64293c-3.10001,0.45915 -6.44227,1.46801 -6.83567,4.69202c-0.22768,1.86581 2.61358,5.00942 0.9485,5.74004c-1.6403,0.71974 -3.03601,2.35768 -4.78436,2.72675c-1.41793,0.29932 -1.85861,-1.08894 -3.29507,-0.89885c-4.09083,0.54136 -0.69289,-8.50722 -0.66134,-8.96002c0.01051,-0.15093 -1.31304,-3.00658 -1.52788,-4.45709c-1.16524,-7.86727 5.80408,-13.17483 10.78575,-13.91268c4.98168,-0.73785 21.39257,-12.01964 28.57703,-2.84714z" stroke-linecap="butt"/><path d="M260.03378,199.78349c0.09768,0.65951 -0.49243,1.70523 -0.46656,2.37118c0.05495,1.41429 -0.8024,2.29097 -2.14903,2.55422c-1.48627,0.29054 -2.3365,-1.12406 -3.84495,-0.98909c-1.04713,0.09366 -0.9021,1.38982 -1.94195,1.54383c-1.1326,0.16775 -1.27466,-0.87216 -2.42013,-0.90855c-1.56423,-0.04969 -1.83739,1.51801 -3.32466,1.00344c-0.77775,-0.26909 -2.13244,-1.68165 -2.68091,-2.31245c-1.73636,-1.99701 -5.61794,-4.38033 -2.63875,-5.64232c1.46581,-0.62093 6.40781,2.78446 7.97951,2.55168c0,0 2.63136,-0.40193 3.94971,-0.52631c2.98928,-0.28204 7.07541,-2.76708 7.53773,0.35436z" stroke-linecap="butt"/><path d="M258.95516,173.24364c1.06636,7.19967 -8.24397,4.0497 -20.22121,5.82367c-2.89967,0.42948 -5.85808,6.93516 -8.7615,7.33839c-4.11617,0.57169 -9.02329,3.16725 -12.61776,1.3023c-2.53746,-1.31652 -1.37303,-5.33996 -1.77298,-8.04024c-0.90354,-6.1004 5.90786,-7.19934 11.43274,-10.70711c4.016,-2.54977 3.39889,-5.90674 8.16448,-6.61258c0,0 9.55966,-2.76776 15.52124,-1.68493c6.74935,1.2259 7.18865,5.38081 8.25501,12.58048z" stroke-linecap="butt"/><path d="M266.95061,176.24489c0.3508,2.36848 -7.19095,1.26891 -16.57137,2.65826c-9.38041,1.38935 -17.04732,4.74152 -17.39812,2.37303c-0.3508,-2.36848 6.96914,-5.41481 16.34956,-6.80416c9.38041,-1.38935 17.26911,-0.59561 17.61991,1.77287z" stroke-linecap="butt"/><path d="M254.49772,169.35411c0.21618,1.45955 0.58173,2.43449 -0.36461,3.52313c-0.81683,0.93964 -6.16566,1.5173 -7.1448,1.0046c-1.39478,-0.73034 -1.01193,-1.63284 -1.24857,-3.23055c-0.3532,-2.38466 1.32104,-4.60819 3.73949,-4.96639c2.41846,-0.3582 4.66533,1.28457 5.01853,3.66922z" stroke-linecap="butt"/><path d="M251.73456,187.62917c0.41711,2.81619 -0.71309,5.31664 -2.5244,5.58492c-1.81129,0.26827 -3.61779,-1.79722 -4.0349,-4.61341c-0.41711,-2.81619 0.71309,-5.31664 2.5244,-5.58492c1.81129,-0.26827 3.61779,1.79722 4.0349,4.61341z" stroke-linecap="butt"/><path d="M247.83629,172.422l0.64924,-3.94002l1.79709,2.2964l0.70838,-2.78397l2.16834,3.28975" stroke-linecap="round"/><path d="M245.027,182.8972c0,0 2.41505,-0.76626 2.92847,-0.75442c0.91812,0.02113 2.62909,0.88586 2.62909,0.88586" data-paper-data="{&quot;origRot&quot;:0}" stroke-linecap="round"/><path d="M251.72215,187.40711c0.27682,1.86897 -0.47326,3.52841 -1.67532,3.70646c-1.20207,0.17804 -2.40095,-1.19274 -2.67777,-3.06171c-0.27682,-1.86897 0.47327,-3.52841 1.67532,-3.70645c1.20207,-0.17804 2.40095,1.19274 2.67777,3.0617z" stroke-linecap="butt"/><path d="M251.75497,187.30182c0.14314,0.96646 -0.24472,1.82453 -0.86632,1.9166c-0.62161,0.09207 -1.24154,-0.61676 -1.38468,-1.5832c-0.14314,-0.96646 0.24472,-1.82453 0.86632,-1.9166c0.62161,-0.09207 1.24154,0.61676 1.38468,1.5832z" stroke-linecap="butt"/><path d="M255.33637,181.43331c1.50192,-0.22245 2.99983,1.49022 3.34569,3.82537c0.34586,2.33515 -0.5913,4.40849 -2.09321,4.63094c-1.50192,0.22245 -2.99983,-1.49022 -3.34569,-3.82537c-0.34586,-2.33515 0.5913,-4.40849 2.09321,-4.63094z" data-paper-data="{&quot;index&quot;:null}" stroke-linecap="butt"/><path d="M253.2766,182.03627c0,0 1.14996,-1.09749 1.87349,-1.33493c0.40459,-0.13278 2.50533,-0.10516 2.50533,-0.10516" data-paper-data="{&quot;origRot&quot;:0,&quot;index&quot;:null}" stroke-linecap="round"/><path d="M256.53182,182.60842c0.99674,-0.14763 1.99086,0.98899 2.22039,2.53872c0.22953,1.54972 -0.39241,2.92571 -1.38917,3.07334c-0.99674,0.14763 -1.99084,-0.989 -2.22037,-2.53872c-0.22953,-1.54972 0.39241,-2.92571 1.38915,-3.07334z" data-paper-data="{&quot;index&quot;:null}" stroke-linecap="butt"/><path d="M257.67519,183.82846c0.51543,-0.07634 1.02947,0.51142 1.14816,1.31278c0.11869,0.80137 -0.20292,1.51289 -0.71834,1.58923c-0.51543,0.07634 -1.02946,-0.51141 -1.14815,-1.31278c-0.11869,-0.80137 0.20292,-1.51289 0.71833,-1.58922z" data-paper-data="{&quot;index&quot;:null}" stroke-linecap="butt"/><path d="M267.00451,193.05908c0.48117,3.24869 -2.90743,6.44195 -7.56866,7.13233c-4.66123,0.69039 -8.82996,-1.38353 -9.31114,-4.63223c-0.48117,-3.24869 2.90743,-6.44196 7.56866,-7.13234c4.66123,-0.69039 8.82996,1.38353 9.31114,4.63224z" stroke-linecap="butt"/><path d="M227.97986,193.12002c-0.34275,2.07999 -2.93443,3.32965 -5.7887,2.79119c-2.85428,-0.53846 -4.89026,-2.66113 -4.54752,-4.74111c0.34275,-2.07999 2.93443,-3.32965 5.7887,-2.79119c2.85428,0.53846 4.89026,2.66113 4.54752,4.74111z" data-paper-data="{&quot;origRot&quot;:0}" stroke-linecap="butt"/></g><g><path d="M257.06543,188.55795c1.29368,8.73445 -6.62488,17.1433 -16.30663,18.57728c-9.68175,1.43399 -21.74742,-4.12296 -23.0411,-12.85742c-0.46823,-3.16129 -1.1978,-11.1929 0.04538,-14.0994c2.86495,-6.69809 11.30126,-3.63524 18.31088,-4.67345c0,0 11.01755,-4.34774 15.74218,0.92008c2.24204,2.4998 3.95562,3.39844 5.24929,12.1329z" fill="url(#color-1)" stroke="#e0ce98" stroke-width="1" stroke-linecap="butt"/><path d="M253.0561,171.05317c6.66244,8.50603 -18.10458,9.90889 -19.65342,11.3822c-1.52115,1.44698 0.18376,4.92913 -1.86733,5.23292c-2.87477,0.42579 -5.97417,1.36135 -6.33899,4.3511c-0.21113,1.73025 2.42369,4.64544 0.87958,5.32297c-1.52111,0.66745 -2.81542,2.18637 -4.43673,2.52863c-1.3149,0.27757 -1.72356,-1.00982 -3.05565,-0.83354c-3.79359,0.50202 -0.64254,-7.88908 -0.61329,-8.30898c0.00975,-0.13996 -1.21764,-2.78812 -1.41687,-4.13324c-1.08057,-7.29563 5.38235,-12.21755 10.00207,-12.90179c4.61971,-0.68424 19.83819,-11.14629 26.50063,-2.64026z" fill="#5a3413" stroke="#351c06" stroke-width="1" stroke-linecap="butt"/><path d="M256.49485,196.95022c0.09058,0.61159 -0.45665,1.58133 -0.43266,2.19889c0.05096,1.31153 -0.7441,2.12451 -1.99289,2.36863c-1.37828,0.26943 -2.16674,-1.04238 -3.56557,-0.91722c-0.97104,0.08686 -0.83656,1.28884 -1.80086,1.43166c-1.05031,0.15556 -1.18204,-0.80878 -2.24428,-0.84253c-1.45058,-0.04609 -1.70389,1.40771 -3.0831,0.93053c-0.72123,-0.24954 -1.97749,-1.55946 -2.48612,-2.14443c-1.6102,-1.85191 -5.20974,-4.06206 -2.44702,-5.23235c1.3593,-0.57581 5.94223,2.58215 7.39972,2.36627c0,0 2.44016,-0.37272 3.66273,-0.48807c2.77207,-0.26155 6.56131,-2.56602 6.99004,0.32862z" fill="#5a3413" stroke="#351c06" stroke-width="0.5" stroke-linecap="butt"/><path d="M255.49463,172.33875c0.98888,6.67654 -7.64496,3.75545 -18.75194,5.40053c-2.68898,0.39827 -5.43244,6.43125 -8.12489,6.80519c-3.81709,0.53015 -8.36766,2.93711 -11.70096,1.20768c-2.35309,-1.22086 -1.27327,-4.95196 -1.64416,-7.45604c-0.83789,-5.65715 5.4786,-6.67625 10.60203,-9.92913c3.7242,-2.3645 3.15193,-5.47755 7.57126,-6.13211c0,0 8.86506,-2.56665 14.39347,-1.5625c6.25894,1.13683 6.66632,4.98984 7.6552,11.66638z" fill="url(#color-2)" stroke="#940000" stroke-width="1" stroke-linecap="butt"/><path d="M262.90914,175.12193c0.32531,2.19639 -6.66846,1.17671 -15.36729,2.46511c-8.69883,1.2884 -15.80867,4.397 -16.13398,2.20061c-0.32531,-2.19639 6.46276,-5.02137 15.1616,-6.30978c8.69883,-1.2884 16.01434,-0.55233 16.33965,1.64406z" fill="url(#color-3)" stroke="#940000" stroke-width="1" stroke-linecap="butt"/><path d="M251.36107,168.73182c0.20047,1.35349 0.53946,2.2576 -0.33812,3.26714c-0.75749,0.87137 -5.71767,1.40705 -6.62567,0.93161c-1.29343,-0.67727 -0.93841,-1.5142 -1.15785,-2.99582c-0.32753,-2.21139 1.22505,-4.27336 3.46778,-4.60554c2.24273,-0.33218 4.32635,1.19123 4.65388,3.40262z" fill="#ffffff" stroke="#a4a4a4" stroke-width="1" stroke-linecap="butt"/><path d="M248.79867,185.67903c0.3868,2.61156 -0.66128,4.93033 -2.34098,5.17912c-1.67969,0.24878 -3.35492,-1.66663 -3.74172,-4.27819c-0.3868,-2.61156 0.66128,-4.93033 2.34098,-5.17912c1.67969,-0.24878 3.35492,1.66663 3.74172,4.27819z" fill="#ffffff" stroke="none" stroke-width="0" stroke-linecap="butt"/><path d="M245.18363,171.57681l0.60206,-3.65374l1.66651,2.12954l0.65692,-2.58169l2.01079,3.05071" fill="none" stroke="#ba0000" stroke-width="1" stroke-linecap="round"/><path d="M242.57849,181.29089c0,0 2.23958,-0.71058 2.71568,-0.69961c0.85141,0.0196 2.43806,0.8215 2.43806,0.8215" data-paper-data="{&quot;origRot&quot;:0}" fill="none" stroke="#351c06" stroke-width="1" stroke-linecap="round"/><path d="M248.78716,185.47311c0.2567,1.73317 -0.43887,3.27204 -1.5536,3.43714c-1.11473,0.16511 -2.2265,-1.10607 -2.48321,-2.83925c-0.2567,-1.73317 0.43888,-3.27203 1.5536,-3.43714c1.11473,-0.16511 2.2265,1.10607 2.4832,2.83924z" fill="#1121d4" stroke="none" stroke-width="0" stroke-linecap="butt"/><path d="M248.8176,185.37546c0.13274,0.89623 -0.22694,1.69197 -0.80337,1.77735c-0.57644,0.08538 -1.15133,-0.57195 -1.28407,-1.46817c-0.13274,-0.89623 0.22694,-1.69197 0.80337,-1.77735c0.57644,-0.08538 1.15133,0.57195 1.28407,1.46817z" fill="#000000" stroke="none" stroke-width="0" stroke-linecap="butt"/><path d="M252.13876,179.93336c1.39279,-0.20629 2.78186,1.38194 3.1026,3.54742c0.32073,2.16548 -0.54833,4.08817 -1.94112,4.29445c-1.39279,0.20629 -2.78186,-1.38194 -3.1026,-3.54742c-0.32073,-2.16548 0.54833,-4.08817 1.94112,-4.29445z" data-paper-data="{&quot;index&quot;:null}" fill="#ffffff" stroke="none" stroke-width="0" stroke-linecap="butt"/><path d="M250.22867,180.49251c0,0 1.0664,-1.01775 1.73736,-1.23794c0.3752,-0.12313 2.32329,-0.09752 2.32329,-0.09752" data-paper-data="{&quot;origRot&quot;:0,&quot;index&quot;:null}" fill="none" stroke="#351c06" stroke-width="1" stroke-linecap="round"/><path d="M253.24736,181.02309c0.92432,-0.1369 1.8462,0.91713 2.05905,2.35426c0.21286,1.43712 -0.3639,2.71312 -1.28823,2.85003c-0.92432,0.1369 -1.84619,-0.91714 -2.05904,-2.35426c-0.21286,-1.43712 0.3639,-2.71312 1.28822,-2.85003z" data-paper-data="{&quot;index&quot;:null}" fill="#1121d4" stroke="none" stroke-width="0" stroke-linecap="butt"/><path d="M254.30766,182.15447c0.47798,-0.07079 0.95467,0.47426 1.06473,1.21739c0.11007,0.74314 -0.18818,1.40296 -0.66614,1.47375c-0.47798,0.07079 -0.95466,-0.47425 -1.06472,-1.21739c-0.11007,-0.74314 0.18818,-1.40296 0.66613,-1.47375z" data-paper-data="{&quot;index&quot;:null}" fill="#000000" stroke="none" stroke-width="0" stroke-linecap="butt"/><path d="M262.9591,190.7144c0.44621,3.01264 -2.69618,5.97387 -7.01873,6.6141c-4.32254,0.64022 -8.18838,-1.283 -8.63459,-4.29565c-0.44621,-3.01264 2.69618,-5.97388 7.01872,-6.61411c4.32254,-0.64022 8.18838,1.283 8.63459,4.29566z" fill="url(#color-4)" stroke="#e0ce98" stroke-width="1" stroke-linecap="butt"/><path d="M226.77,190.77091c-0.31784,1.92886 -2.72121,3.08772 -5.3681,2.58838c-2.64689,-0.49933 -4.53494,-2.46777 -4.2171,-4.39662c0.31784,-1.92886 2.72121,-3.08772 5.3681,-2.58838c2.64689,0.49933 4.53494,2.46777 4.2171,4.39662z" data-paper-data="{&quot;origRot&quot;:0}" fill="url(#color-5)" stroke="#e0ce98" stroke-width="1.5" stroke-linecap="butt"/></g><path d="M224.57559,143.17234l1.41357,-9.63357l7.77466,1.28448l-0.3534,2.7295l-3.88732,-0.96335l-0.70679,1.28448l3.18054,0.64224v1.44504h-3.88732l-0.17669,1.92671l4.41742,-0.48168l0.35339,2.89007z" fill="url(#color-6)" stroke="#9a9a9a" stroke-width="1" stroke-linecap="round"/><path d="M264.91329,139.09299l-2.24392,-2.73171l2.14635,-2.34148l2.34148,2.14635l1.95123,-2.34148l2.92684,2.63416l-2.04879,2.34148l3.12197,2.92685l-2.43903,3.21953l-2.82928,-2.92684l-2.92684,2.92684l-3.02441,-2.82928z" fill="url(#color-7)" stroke="#9a9a9a" stroke-width="1" stroke-linecap="round"/><path d="M203.64638,143.10661l0.2076,-9.65337h5.60519l2.076,1.557l0.1038,3.84059l-2.07599,2.076l-3.01019,0.3114l0.2076,1.86839z" fill="url(#color-8)" stroke="#9a9a9a" stroke-width="1" stroke-linecap="round"/><path d="M207.68789,137.81283l-0.9342,-0.1038v-1.4532l1.6608,0.3114z" fill="#ffffff" stroke="#9a9a9a" stroke-width="1" stroke-linecap="round"/><path d="M213.58385,143.15559l0.16469,-9.55245l4.77623,-0.6588l4.28214,2.30577l-0.3294,2.63516l-1.48228,1.97638l2.14107,2.63516l-3.29395,1.64698l-2.30577,-3.29396v2.63516z" fill="url(#color-9)" stroke="#9a9a9a" stroke-width="1" stroke-linecap="round"/><path d="M217.0425,138.21467v-2.47047l2.47046,0.49409l-0.32939,0.98818z" data-paper-data="{&quot;origPos&quot;:null}" fill="#ffffff" stroke="#9a9a9a" stroke-width="1" stroke-linecap="round"/><path d="M240.57035,137.70902l3.99113,1.99557l0.16629,2.66075l-1.33038,1.99557h-4.98892l-2.66075,-1.99557l0.99779,-2.16186l2.99335,1.33038l0.3326,-0.99778l-4.82262,-2.82706l2.16186,-3.32595l4.65632,-0.66519l2.99335,1.82927l-1.16408,2.16187l-3.15965,-1.33038z" fill="url(#color-10)" stroke="#9a9a9a" stroke-width="1" stroke-linecap="round"/><path d="M251.62618,137.82545l3.99113,1.99556l0.1663,2.66076l-1.33038,1.99557h-4.98892l-2.66075,-1.99557l0.99779,-2.16187l2.99336,1.33038l0.33259,-0.99779l-4.82262,-2.82706l2.16186,-3.32594l4.65632,-0.66519l2.99336,1.82927l-1.16408,2.16186l-3.15965,-1.33037z" fill="url(#color-11)" stroke="#9a9a9a" stroke-width="1" stroke-linecap="round"/></g></g></svg>