<svg version="1.1" xmlns="http://www.w3.org/2000/svg" xmlns:xlink="http://www.w3.org/1999/xlink" width="42.80163" height="53.60085" viewBox="0,0,42.80163,53.60085"><defs><linearGradient x1="240" y1="158.02718" x2="240" y2="201.97283" gradientUnits="userSpaceOnUse" id="color-1"><stop offset="0" stop-color="#ffffff"/><stop offset="1" stop-color="#b7b7b7"/></linearGradient></defs><g transform="translate(-220.69911,-155.693)"><g data-paper-data="{&quot;isPaintingLayer&quot;:true}" fill-rule="nonzero" stroke-width="4.5" stroke-linecap="round" stroke-linejoin="miter" stroke-miterlimit="10" stroke-dasharray="" stroke-dashoffset="0" style="mix-blend-mode: normal"><path d="M235.8593,189.04302l5.97661,5.62504h7.38287l-1.0547,-4.57035l-8.086,-2.81252l-0.70313,-4.57035l7.0313,-5.27348l-1.75782,-2.46095l-9.1407,3.51565l-5.62504,-7.73444l8.78913,-7.73443l14.41418,1.40626l6.32818,10.89852l-4.21878,5.97661l4.57035,3.51565l1.40626,14.06261l-6.32818,8.086l-16.52356,-1.05469l-9.49226,-8.78913z" data-paper-data="{&quot;origPos&quot;:null}" fill="#000000" stroke="#000000"/><path d="M230.85929,184.04301l5.97661,5.62504h7.38287l-1.0547,-4.57035l-8.086,-2.81252l-0.70313,-4.57035l7.0313,-5.27348l-1.75782,-2.46095l-9.1407,3.51565l-5.62504,-7.73444l8.78913,-7.73443l14.41418,1.40626l6.32818,10.89852l-4.21878,5.97661l4.57035,3.51565l1.40626,14.06261l-6.32818,8.086l-16.52356,-1.05469l-9.49226,-8.78913z" data-paper-data="{&quot;origPos&quot;:null}" fill="url(#color-1)" stroke="#9d9d9d"/></g></g></svg>