<svg version="1.1" xmlns="http://www.w3.org/2000/svg" xmlns:xlink="http://www.w3.org/1999/xlink" width="36.00768" height="34.22071" viewBox="0,0,36.00768,34.22071"><defs><linearGradient x1="240" y1="163.88964" x2="240" y2="196.11035" gradientUnits="userSpaceOnUse" id="color-1"><stop offset="0" stop-color="#fcff9b"/><stop offset="1" stop-color="#ffdc68"/></linearGradient></defs><g transform="translate(-221.99616,-162.88964)"><g data-paper-data="{&quot;isPaintingLayer&quot;:true}" fill-rule="nonzero" stroke-linejoin="miter" stroke-miterlimit="10" stroke-dasharray="" stroke-dashoffset="0" style="mix-blend-mode: normal"><path d="M222.99616,196.11035v-32.22071h34.00768v32.22071z" fill="url(#color-1)" stroke="#f4ca3d" stroke-width="2" stroke-linecap="butt"/><g fill="#cccccc" stroke="#cccccc" stroke-width="1.5"><path d="M251.80554,178.16706l0.21048,-3.78879l-1.61374,-2.31537l-2.59602,-0.07016l-2.94684,3.08717l-1.82423,-2.80651l4.20977,-3.08717l5.26221,0.07016l2.80651,4.20977l-0.07016,6.17433l-4.49042,3.15733l0.07016,3.29765l-3.85895,0.21048l-0.07016,-3.85895z" data-paper-data="{&quot;origPos&quot;:null}" stroke-linecap="round"/><path d="M250.5336,189.19467l-0.56369,3.11915l-3.37992,-1.39127l1.0063,-2.44591z" data-paper-data="{&quot;origPos&quot;:null,&quot;origRot&quot;:0}" stroke-linecap="butt"/></g><g data-paper-data="{&quot;origPos&quot;:null}" fill="#fafafa" stroke="#fafafa" stroke-width="1.5"><path d="M250.11109,177.41706l0.21048,-3.78879l-1.61374,-2.31537l-2.59602,-0.07016l-2.94684,3.08717l-1.82423,-2.80651l4.20977,-3.08717l5.26221,0.07016l2.80651,4.20977l-0.07016,6.17433l-4.49042,3.15733l0.07016,3.29765l-3.85895,0.21048l-0.07016,-3.85895z" data-paper-data="{&quot;origPos&quot;:null}" stroke-linecap="round"/><path d="M248.83915,188.44467l-0.56369,3.11915l-3.37992,-1.39127l1.0063,-2.44591z" data-paper-data="{&quot;origPos&quot;:null,&quot;origRot&quot;:0}" stroke-linecap="butt"/></g><path d="M225.09635,167.41666c0,-0.7824 0.63426,-1.41667 1.41667,-1.41667c0.7824,0 1.41667,0.63426 1.41667,1.41667c0,0.7824 -0.63426,1.41667 -1.41667,1.41667c-0.7824,0 -1.41667,-0.63426 -1.41667,-1.41667z" fill="#f4ca3d" stroke="none" stroke-width="0" stroke-linecap="butt"/><path d="M225.27817,192.59847c0,-0.78241 0.63426,-1.41666 1.41667,-1.41666c0.78241,0 1.41667,0.63426 1.41667,1.41666c0,0.78241 -0.63426,1.41667 -1.41667,1.41667c-0.78241,0 -1.41667,-0.63426 -1.41667,-1.41667z" fill="#f4ca3d" stroke="none" stroke-width="0" stroke-linecap="butt"/><path d="M251.98524,167.30554c0,-0.78241 0.63426,-1.41666 1.41667,-1.41666c0.7824,0 1.41667,0.63426 1.41667,1.41666c0,0.78241 -0.63426,1.41667 -1.41667,1.41667c-0.78241,0 -1.41667,-0.63426 -1.41667,-1.41667z" fill="#f4ca3d" stroke="none" stroke-width="0" stroke-linecap="butt"/><path d="M252.16706,192.48736c0,-0.78241 0.63426,-1.41667 1.41667,-1.41667c0.7824,0 1.41667,0.63426 1.41667,1.41667c0,0.78241 -0.63427,1.41667 -1.41667,1.41667c-0.7824,0 -1.41667,-0.63426 -1.41667,-1.41667z" fill="#f4ca3d" stroke="none" stroke-width="0" stroke-linecap="butt"/></g></g></svg>