<svg version="1.1" xmlns="http://www.w3.org/2000/svg" xmlns:xlink="http://www.w3.org/1999/xlink" width="45.47687" height="55.58263" viewBox="0,0,45.47687,55.58263"><defs><linearGradient x1="246.26567" y1="189.88184" x2="246.26567" y2="196.75254" gradientUnits="userSpaceOnUse" id="color-1"><stop offset="0" stop-color="#ffffff"/><stop offset="1" stop-color="#b7b7b7"/></linearGradient><linearGradient x1="240" y1="157.03738" x2="240" y2="202.96262" gradientUnits="userSpaceOnUse" id="color-2"><stop offset="0" stop-color="#ffffff"/><stop offset="1" stop-color="#b7b7b7"/></linearGradient><linearGradient x1="241.26566" y1="184.88184" x2="241.26566" y2="191.75254" gradientUnits="userSpaceOnUse" id="color-3"><stop offset="0" stop-color="#ffffff"/><stop offset="1" stop-color="#b7b7b7"/></linearGradient></defs><g transform="translate(-219.7306,-154.65382)"><g data-paper-data="{&quot;isPaintingLayer&quot;:true}" fill-rule="nonzero" stroke-width="4.5" stroke-linecap="round" stroke-linejoin="miter" stroke-miterlimit="10" stroke-dasharray="" stroke-dashoffset="0" style="mix-blend-mode: normal"><g><path d="M230.35456,173.6091l4.33939,-11.57172l21.69697,1.80808l3.97778,10.48687l-4.70101,5.42424l6.50909,6.14747l0.72323,17.71919l-7.23232,3.61616l-18.80404,0.72323l-9.76364,-5.78586l1.44646,-15.91111l7.23232,-5.78586z" fill="#000000" stroke="#000000"/><path d="M250.96668,194.56641l-4.33939,2.18613l-5.06263,-2.18613l0.36162,-3.12304l5.06263,-1.56153l3.66776,0.6794z" data-paper-data="{&quot;origPos&quot;:null}" fill="url(#color-1)" stroke="#9d9d9d"/><path d="M245.17447,170.19424l3.43535,1.08485l0.18717,1.9684l-3.61616,1.80808l-3.97778,-1.80808l0.17444,-1.7876z" fill="#ffffff" stroke="#9d9d9d"/></g><g stroke="#9d9d9d"><path d="M225.35455,168.6091l4.33939,-11.57172l21.69697,1.80808l3.97778,10.48687l-4.70101,5.42424l6.50909,6.14747l0.72323,17.71919l-7.23232,3.61616l-18.80404,0.72323l-9.76364,-5.78586l1.44646,-15.91111l7.23232,-5.78586z" fill="url(#color-2)"/><path d="M245.96667,189.56641l-4.33939,2.18613l-5.06263,-2.18613l0.36162,-3.12304l5.06263,-1.56153l3.66776,0.6794z" data-paper-data="{&quot;origPos&quot;:null}" fill="url(#color-3)"/><path d="M240.17446,165.19424l3.43535,1.08485l0.18717,1.9684l-3.61616,1.80808l-3.97778,-1.80808l0.17444,-1.7876z" fill="#ffffff"/></g></g></g></svg>